<svg width="455" height="293" viewBox="0 0 455 293" fill="none" xmlns="http://www.w3.org/2000/svg">
<mask id="mask0" style="mask-type:alpha" maskUnits="userSpaceOnUse" x="0" y="-1" width="456" height="264">
<path fill-rule="evenodd" clip-rule="evenodd" d="M1 262.378H455V0H1V262.378Z" fill="white" stroke="white"/>
</mask>
<g mask="url(#mask0)">
<path fill-rule="evenodd" clip-rule="evenodd" d="M394.398 246.381H79.332V79.5754C79.332 73.011 84.8442 67.6895 91.6437 67.6895H382.085C388.886 67.6895 394.398 73.011 394.398 79.5754V246.381Z" fill="url(#paint0_linear)"/>
<path fill-rule="evenodd" clip-rule="evenodd" d="M94.4238 231.805H379.294V82.2651H94.4238V231.805Z" fill="white" fill-opacity="0.93"/>
<path fill-rule="evenodd" clip-rule="evenodd" d="M394.398 246.381H79.332V270.771C79.332 277.335 84.8442 282.657 91.6437 282.657H382.085C388.886 282.657 394.398 277.335 394.398 270.771V246.381Z" fill="url(#paint1_linear)"/>
<path fill-rule="evenodd" clip-rule="evenodd" d="M245.228 265.137C245.228 269.596 241.484 273.21 236.866 273.21C232.248 273.21 228.504 269.596 228.504 265.137C228.504 260.678 232.248 257.063 236.866 257.063C241.484 257.063 245.228 260.678 245.228 265.137" fill="#F0B50F"/>
<path fill-rule="evenodd" clip-rule="evenodd" d="M130.152 231.805H343.578V21.0688H130.152V231.805Z" fill="#E3ECFF"/>
<path fill-rule="evenodd" clip-rule="evenodd" d="M130.152 21.0689V13.1394C130.152 9.37956 133.309 6.33179 137.204 6.33179H336.526C340.421 6.33179 343.578 9.37956 343.578 13.1394V21.0689H130.152Z" fill="url(#paint2_linear)"/>
<path fill-rule="evenodd" clip-rule="evenodd" d="M142.232 231.805H331.501V21.0688H142.232V231.805Z" fill="white"/>
<path fill-rule="evenodd" clip-rule="evenodd" d="M142.232 112.551H331.501V21.0688H142.232V112.551Z" fill="white"/>
<path fill-rule="evenodd" clip-rule="evenodd" d="M142.232 181.522H331.501V112.551H142.232V181.522Z" fill="#EDEFFF"/>
<path fill-rule="evenodd" clip-rule="evenodd" d="M151.346 13.5525C151.346 15.9823 149.305 17.9517 146.789 17.9517C144.272 17.9517 142.232 15.9823 142.232 13.5525C142.232 11.1227 144.272 9.15332 146.789 9.15332C149.305 9.15332 151.346 11.1227 151.346 13.5525" fill="#73B1F5"/>
<path fill-rule="evenodd" clip-rule="evenodd" d="M222.311 15.7525H159.653C158.395 15.7525 157.375 14.7674 157.375 13.5529C157.375 12.3383 158.395 11.3533 159.653 11.3533H222.311C223.57 11.3533 224.589 12.3383 224.589 13.5529C224.589 14.7674 223.57 15.7525 222.311 15.7525" fill="#73B1F5"/>
<path fill-rule="evenodd" clip-rule="evenodd" d="M191.256 164.57H158.565C157.307 164.57 156.287 163.585 156.287 162.37C156.287 161.155 157.307 160.17 158.565 160.17H191.256C192.514 160.17 193.534 161.155 193.534 162.37C193.534 163.585 192.514 164.57 191.256 164.57" fill="#C2DFFF"/>
<path fill-rule="evenodd" clip-rule="evenodd" d="M191.256 173.703H158.565C157.307 173.703 156.287 172.718 156.287 171.503C156.287 170.289 157.307 169.303 158.565 169.303H191.256C192.514 169.303 193.534 170.289 193.534 171.503C193.534 172.718 192.514 173.703 191.256 173.703" fill="#C2DFFF"/>
<path fill-rule="evenodd" clip-rule="evenodd" d="M325.914 52.8733H279.648C278.39 52.8733 277.369 51.8882 277.369 50.6737C277.369 49.4584 278.39 48.4741 279.648 48.4741H325.914C327.172 48.4741 328.192 49.4584 328.192 50.6737C328.192 51.8882 327.172 52.8733 325.914 52.8733" fill="#F0B50F"/>
<path fill-rule="evenodd" clip-rule="evenodd" d="M312.338 61.8919H279.648C278.389 61.8919 277.369 60.9068 277.369 59.6923C277.369 58.477 278.389 57.4927 279.648 57.4927H312.338C313.596 57.4927 314.616 58.477 314.616 59.6923C314.616 60.9068 313.596 61.8919 312.338 61.8919" fill="#F0B50F"/>
<path fill-rule="evenodd" clip-rule="evenodd" d="M317.283 70.9107H279.648C278.39 70.9107 277.369 69.9256 277.369 68.7111C277.369 67.4958 278.39 66.5115 279.648 66.5115H317.283C318.541 66.5115 319.561 67.4958 319.561 68.7111C319.561 69.9256 318.541 70.9107 317.283 70.9107" fill="#F0B50F"/>
<path fill-rule="evenodd" clip-rule="evenodd" d="M315.425 85.574H281.505C279.221 85.574 277.369 83.7859 277.369 81.581C277.369 79.376 279.221 77.5879 281.505 77.5879H315.425C317.709 77.5879 319.561 79.376 319.561 81.581C319.561 83.7859 317.709 85.574 315.425 85.574" fill="#73B1F5"/>
<path fill-rule="evenodd" clip-rule="evenodd" d="M299.005 224.206H265.085C262.801 224.206 260.949 222.419 260.949 220.213C260.949 218.008 262.801 216.22 265.085 216.22H299.005C301.289 216.22 303.141 218.008 303.141 220.213C303.141 222.419 301.289 224.206 299.005 224.206" fill="#73B1F5"/>
<path fill-rule="evenodd" clip-rule="evenodd" d="M250.718 224.206H174.792C172.508 224.206 170.656 222.419 170.656 220.213C170.656 218.008 172.508 216.22 174.792 216.22H250.718C253.002 216.22 254.854 218.008 254.854 220.213C254.854 222.419 253.002 224.206 250.718 224.206" fill="#F0B50F"/>
<path fill-rule="evenodd" clip-rule="evenodd" d="M253.205 164.57H220.515C219.257 164.57 218.236 163.585 218.236 162.37C218.236 161.155 219.257 160.17 220.515 160.17H253.205C254.463 160.17 255.484 161.155 255.484 162.37C255.484 163.585 254.463 164.57 253.205 164.57" fill="#C2DFFF"/>
<path fill-rule="evenodd" clip-rule="evenodd" d="M253.205 173.703H220.515C219.257 173.703 218.236 172.718 218.236 171.503C218.236 170.289 219.257 169.303 220.515 169.303H253.205C254.463 169.303 255.484 170.289 255.484 171.503C255.484 172.718 254.463 173.703 253.205 173.703" fill="#C2DFFF"/>
<path fill-rule="evenodd" clip-rule="evenodd" d="M260.488 198.318H213.241C211.983 198.318 210.963 197.333 210.963 196.119C210.963 194.904 211.983 193.919 213.241 193.919H260.488C261.746 193.919 262.766 194.904 262.766 196.119C262.766 197.333 261.746 198.318 260.488 198.318" fill="#C2DFFF"/>
<path fill-rule="evenodd" clip-rule="evenodd" d="M253.205 207.452H220.515C219.257 207.452 218.236 206.467 218.236 205.252C218.236 204.038 219.257 203.052 220.515 203.052H253.205C254.463 203.052 255.484 204.038 255.484 205.252C255.484 206.467 254.463 207.452 253.205 207.452" fill="#C2DFFF"/>
<path fill-rule="evenodd" clip-rule="evenodd" d="M315.17 164.57H282.48C281.222 164.57 280.201 163.585 280.201 162.37C280.201 161.155 281.222 160.17 282.48 160.17H315.17C316.429 160.17 317.448 161.155 317.448 162.37C317.448 163.585 316.429 164.57 315.17 164.57" fill="#C2DFFF"/>
<path fill-rule="evenodd" clip-rule="evenodd" d="M315.17 173.703H282.48C281.222 173.703 280.201 172.718 280.201 171.503C280.201 170.289 281.222 169.303 282.48 169.303H315.17C316.429 169.303 317.448 170.289 317.448 171.503C317.448 172.718 316.429 173.703 315.17 173.703" fill="#C2DFFF"/>
<path fill-rule="evenodd" clip-rule="evenodd" d="M329.22 15.7525H315.567C314.309 15.7525 313.289 14.7674 313.289 13.5529C313.289 12.3383 314.309 11.3533 315.567 11.3533H329.22C330.478 11.3533 331.498 12.3383 331.498 13.5529C331.498 14.7674 330.478 15.7525 329.22 15.7525" fill="#73B1F5"/>
<path fill-rule="evenodd" clip-rule="evenodd" d="M196.5 153.498H153.32C152.227 153.498 151.342 152.643 151.342 151.588V125.014C151.342 123.959 152.227 123.104 153.32 123.104H196.5C197.592 123.104 198.478 123.959 198.478 125.014V151.588C198.478 152.643 197.592 153.498 196.5 153.498" fill="url(#paint3_linear)"/>
<path fill-rule="evenodd" clip-rule="evenodd" d="M258.459 153.498H215.279C214.186 153.498 213.301 152.643 213.301 151.588V125.014C213.301 123.959 214.186 123.104 215.279 123.104H258.459C259.551 123.104 260.438 123.959 260.438 125.014V151.588C260.438 152.643 259.551 153.498 258.459 153.498" fill="#F0B50F"/>
<path fill-rule="evenodd" clip-rule="evenodd" d="M320.414 153.498H277.234C276.142 153.498 275.256 152.643 275.256 151.588V125.014C275.256 123.959 276.142 123.104 277.234 123.104H320.414C321.507 123.104 322.393 123.959 322.393 125.014V151.588C322.393 152.643 321.507 153.498 320.414 153.498" fill="url(#paint4_linear)"/>
<path fill-rule="evenodd" clip-rule="evenodd" d="M218.877 105.654C218.877 106.621 218.065 107.405 217.063 107.405C216.062 107.405 215.25 106.621 215.25 105.654C215.25 104.687 216.062 103.903 217.063 103.903C218.065 103.903 218.877 104.687 218.877 105.654" fill="#DAB3FF"/>
<path fill-rule="evenodd" clip-rule="evenodd" d="M228.777 105.654C228.777 106.621 227.965 107.405 226.964 107.405C225.962 107.405 225.15 106.621 225.15 105.654C225.15 104.687 225.962 103.903 226.964 103.903C227.965 103.903 228.777 104.687 228.777 105.654" fill="#DAB3FF"/>
<path fill-rule="evenodd" clip-rule="evenodd" d="M238.679 105.654C238.679 106.621 237.867 107.405 236.866 107.405C235.865 107.405 235.053 106.621 235.053 105.654C235.053 104.687 235.865 103.903 236.866 103.903C237.867 103.903 238.679 104.687 238.679 105.654" fill="#DAB3FF"/>
<path fill-rule="evenodd" clip-rule="evenodd" d="M248.576 105.654C248.576 106.621 247.764 107.405 246.763 107.405C245.761 107.405 244.949 106.621 244.949 105.654C244.949 104.687 245.761 103.903 246.763 103.903C247.764 103.903 248.576 104.687 248.576 105.654" fill="#DAB3FF"/>
<path fill-rule="evenodd" clip-rule="evenodd" d="M258.482 105.654C258.482 106.621 257.67 107.405 256.669 107.405C255.667 107.405 254.855 106.621 254.855 105.654C254.855 104.687 255.667 103.903 256.669 103.903C257.67 103.903 258.482 104.687 258.482 105.654" fill="#DAB3FF"/>
<path fill-rule="evenodd" clip-rule="evenodd" d="M142.232 112.551H300.918C299.437 109.611 297.527 106.94 294.961 104.751C288.926 99.6049 280.517 98.2137 272.644 96.5801C263.149 94.6099 253.796 91.9958 244.678 88.7637C240.024 87.114 235.2 85.1385 232.198 81.329C229.378 77.7482 228.593 73.0775 228.149 68.5987C227.382 60.8772 227.358 53.083 226.141 45.4158C224.925 37.7478 222.403 30.0546 217.272 24.086C216.342 23.0046 215.327 21.9989 214.243 21.0688H142.232V112.551Z" fill="#E4ECF5"/>
<path fill-rule="evenodd" clip-rule="evenodd" d="M256.843 79.1562C256.843 92.6551 245.508 103.598 231.525 103.598C217.543 103.598 206.207 92.6551 206.207 79.1562C206.207 65.6573 217.543 54.7144 231.525 54.7144C245.508 54.7144 256.843 65.6573 256.843 79.1562" fill="#F0B50F"/>
<path fill-rule="evenodd" clip-rule="evenodd" d="M274.829 60.5608C274.829 69.155 267.613 76.1217 258.711 76.1217C249.809 76.1217 242.594 69.155 242.594 60.5608C242.594 51.9674 249.809 45 258.711 45C267.613 45 274.829 51.9674 274.829 60.5608" fill="url(#paint5_linear)"/>
<path fill-rule="evenodd" clip-rule="evenodd" d="M138.322 162.23L161.662 141.586C162.459 140.881 161.795 139.609 160.735 139.808L129.66 145.636L138.322 162.23Z" fill="#FEF6F7"/>
<path fill-rule="evenodd" clip-rule="evenodd" d="M129.617 145.653L138.279 162.248L23.1628 218.251L14.5 201.657L129.617 145.653Z" fill="url(#paint6_linear)"/>
<path fill-rule="evenodd" clip-rule="evenodd" d="M135.931 157.747L138.281 162.248L23.1641 218.251L20.8145 213.75L135.931 157.747Z" fill="url(#paint7_linear)"/>
<path fill-rule="evenodd" clip-rule="evenodd" d="M129.617 145.653L131.966 150.155L16.8497 206.157L14.5 201.657L129.617 145.653Z" fill="url(#paint8_linear)"/>
<path fill-rule="evenodd" clip-rule="evenodd" d="M1.9909 218.145V218.145C4.38258 222.728 10.1697 224.57 14.9166 222.261L23.1595 218.252L14.4975 201.657L6.25457 205.667C1.50766 207.976 -0.401565 213.563 1.9909 218.145" fill="#7BA1C9"/>
<path fill-rule="evenodd" clip-rule="evenodd" d="M23.3224 197.365L31.9844 213.96L23.164 218.252L14.502 201.657L23.3224 197.365Z" fill="#274F7A"/>
<path fill-rule="evenodd" clip-rule="evenodd" d="M160.732 139.808L149.664 141.883C150.843 144.078 152.231 146.682 153.388 148.902L161.66 141.586C162.457 140.881 161.794 139.609 160.732 139.808" fill="#2789F5"/>
</g>
<mask id="mask1" style="mask-type:alpha" maskUnits="userSpaceOnUse" x="57" y="278" width="29" height="11">
<path fill-rule="evenodd" clip-rule="evenodd" d="M59.0172 278.538C59.0172 278.538 56.9531 284.763 58.3369 286.84V286.84C59.7207 288.917 72.2417 287.968 78.8825 287.968V287.968C85.5242 287.968 87.253 287.019 84.7636 284.942V284.942C82.2724 282.864 73.2724 282.459 68.4675 278.538V278.538H59.0172Z" fill="white"/>
</mask>
<g mask="url(#mask1)">
<path fill-rule="evenodd" clip-rule="evenodd" d="M59.0172 278.538C59.0172 278.538 56.9531 284.763 58.3369 286.84V286.84C59.7207 288.917 72.2417 287.968 78.8825 287.968V287.968C85.5242 287.968 87.253 287.019 84.7636 284.942V284.942C82.2724 282.864 73.2724 282.459 68.4675 278.538V278.538H59.0172Z" fill="url(#paint9_linear)"/>
</g>
<path fill-rule="evenodd" clip-rule="evenodd" d="M47.834 219.901C47.834 219.901 47.834 226.251 51.7723 234.763C55.7097 243.275 56.497 249.76 56.497 249.76C56.497 249.76 56.6548 261.109 57.2843 268C57.9146 274.89 59.0167 278.538 59.0167 278.538H68.4679C68.4679 278.538 73.3504 255.569 73.5082 243.95C73.666 232.33 65.2571 215.983 65.2571 215.983L47.834 219.901Z" fill="url(#paint10_linear)"/>
<path opacity="0.85" fill-rule="evenodd" clip-rule="evenodd" d="M58.3821 218.009C58.3821 218.009 56.3349 225.575 61.3743 230.574C66.4147 235.573 72.0854 248.274 72.0854 248.274C72.0854 248.274 66.7909 250.435 65.0282 258.001C63.2655 265.567 61.2174 271.512 61.2174 271.512C61.2174 271.512 67.045 272.323 68.4627 275.025C68.4627 275.025 83.5837 258.271 86.2612 249.084C88.9388 239.897 82.7964 219.901 82.7964 219.901L58.3821 218.009Z" fill="url(#paint11_linear)" fill-opacity="0.96"/>
<path fill-rule="evenodd" clip-rule="evenodd" d="M42.2512 197.102C42.2512 197.102 39.5487 202.965 40.821 204.464C42.0925 205.964 49.0444 208.691 49.0444 208.691V197.783L42.2512 197.102Z" fill="#FFADC8"/>
<path fill-rule="evenodd" clip-rule="evenodd" d="M57.2689 178.186C57.2689 178.186 47.8498 179.387 43.0458 191.375C41.2973 195.739 40.8203 197.647 40.8203 197.647C40.8203 197.647 45.2713 199.538 50.0397 199.82C54.808 200.101 57.2689 178.186 57.2689 178.186" fill="#274F7A"/>
<path fill-rule="evenodd" clip-rule="evenodd" d="M68.4474 152.303C78.3756 151.608 79.738 158.863 79.4954 165.423C79.252 171.984 77.9422 175.421 73.9834 175.524C70.0264 175.629 56.9143 170.735 57.2789 162.404C57.6427 154.073 62.4994 152.719 68.4474 152.303" fill="#FFADC8"/>
<path fill-rule="evenodd" clip-rule="evenodd" d="M72.0593 173.593C72.0593 173.593 70.9359 177.964 71.5404 179.742C72.1458 181.521 65.8394 181.669 62.0384 180.558C58.2383 179.446 59.6783 179.406 60.8293 175.074C61.9804 170.743 61.6933 169.073 61.6933 169.073L72.0593 173.593Z" fill="#FFADC8"/>
<path fill-rule="evenodd" clip-rule="evenodd" d="M94.0228 191.622L102.063 195.251L107.774 183.365L113.275 185.633C113.275 185.633 114.767 201.723 104.072 203.689C101.11 204.234 86.8301 198.064 86.8301 198.064L94.0228 191.622Z" fill="#FFADC8"/>
<path fill-rule="evenodd" clip-rule="evenodd" d="M72.8926 178.456C85.6463 182.922 96.7728 191.376 96.7728 191.376C96.7728 191.376 96.4028 196.971 91.8449 201.193L74.6785 195.33L72.8926 178.456Z" fill="#274F7A"/>
<path fill-rule="evenodd" clip-rule="evenodd" d="M65.8148 176.759C50.1481 175.98 49.2752 188.641 47.253 205.124C46.0226 215.146 45.4074 220.949 46.0226 221.652C46.6378 222.356 54.0178 219.894 63.4466 220.245C72.8755 220.597 82.1002 223.235 84.1501 222.883C86.1999 222.531 82.1002 197.739 81.691 192.992C81.2808 188.244 78.8422 177.406 65.8148 176.759" fill="#274F7A"/>
<path fill-rule="evenodd" clip-rule="evenodd" d="M107.771 183.365C107.771 183.365 106.197 181.542 106.139 180.145C106.081 178.747 105.266 176.552 104.452 176.153C103.638 175.754 105.673 174.107 107.593 176.153C109.513 178.199 108.814 179.417 110.327 179.257C111.839 179.097 117.733 176.529 120.002 175.381C122.27 174.233 124.888 174.504 123.143 178.186C121.398 181.868 115.228 185.186 113.272 185.634L107.771 183.365Z" fill="#FFADC8"/>
<path fill-rule="evenodd" clip-rule="evenodd" d="M67.4637 276.966C67.4637 276.966 66.8458 272.951 61.349 272.323C59.8457 272.151 53.9307 277.912 55.434 280.75C56.9381 283.587 65.2587 287.543 67.8649 289.091C70.4711 290.638 76.0848 294.164 77.7896 292.616C79.4934 291.068 77.7896 287.887 75.1825 285.651C72.5763 283.415 67.4637 276.966 67.4637 276.966" fill="#274F7A"/>
<mask id="mask2" style="mask-type:alpha" maskUnits="userSpaceOnUse" x="55" y="150" width="25" height="23">
<path fill-rule="evenodd" clip-rule="evenodd" d="M67.6532 151.317C65.5909 151.792 63.5143 152.27 61.6562 152.257V152.257C54.8638 152.211 55.8936 158.349 55.8936 162.233V162.233C55.8936 166.117 57.2311 172.031 62.1715 172.384V172.384C67.1102 172.738 73.0787 170.796 74.3707 163.361V163.361C75.6626 155.925 79.8363 159.153 79.5216 156.672V156.672C78.8912 151.717 76.532 150.375 73.5058 150.375V150.375C71.7146 150.375 69.6897 150.846 67.6532 151.317" fill="white"/>
</mask>
<g mask="url(#mask2)">
<path fill-rule="evenodd" clip-rule="evenodd" d="M67.6532 151.317C65.5909 151.792 63.5143 152.27 61.6562 152.257V152.257C54.8638 152.211 55.8936 158.349 55.8936 162.233V162.233C55.8936 166.117 57.2311 172.031 62.1715 172.384V172.384C67.1102 172.738 73.0787 170.796 74.3707 163.361V163.361C75.6626 155.925 79.8363 159.153 79.5216 156.672V156.672C78.8912 151.717 76.532 150.375 73.5058 150.375V150.375C71.7146 150.375 69.6897 150.846 67.6532 151.317" fill="url(#paint12_linear)"/>
</g>
<path fill-rule="evenodd" clip-rule="evenodd" d="M80.2841 156.142C80.2841 156.142 74.9326 159.761 64.539 159.32C54.1453 158.879 54.3513 157.75 54.3513 157.75C54.3513 157.75 52.6011 145.726 66.5968 145.726C80.5926 145.726 80.2841 156.142 80.2841 156.142" fill="#2789F5"/>
<path fill-rule="evenodd" clip-rule="evenodd" d="M75.5065 163.361C75.5065 163.361 73.0947 160.028 71.8883 162.556C70.6829 165.084 72.5339 168.093 75.1329 168.233L75.5065 163.361Z" fill="#FFADC8"/>
<path fill-rule="evenodd" clip-rule="evenodd" d="M319.557 283.3L292.468 277.285C290.613 276.873 289.498 275.249 289.979 273.658L296.251 252.874C296.731 251.283 298.625 250.327 300.48 250.739L327.569 256.755C329.423 257.167 330.538 258.791 330.057 260.381L323.785 281.165C323.305 282.757 321.412 283.713 319.557 283.3" fill="url(#paint13_linear)"/>
<path fill-rule="evenodd" clip-rule="evenodd" d="M390.338 277.979C390.155 277.979 389.97 277.96 389.785 277.919L337.187 266.238C336.01 265.977 335.304 264.947 335.608 263.939C335.913 262.93 337.114 262.324 338.289 262.585L390.887 274.265C392.064 274.527 392.77 275.556 392.466 276.565C392.21 277.415 391.316 277.979 390.338 277.979" fill="#F0B50F"/>
<path fill-rule="evenodd" clip-rule="evenodd" d="M360.039 280.085C359.857 280.085 359.671 280.065 359.487 280.024L334.691 274.517C333.514 274.257 332.808 273.227 333.112 272.218C333.417 271.21 334.618 270.605 335.793 270.865L360.589 276.371C361.766 276.631 362.472 277.662 362.167 278.67C361.91 279.52 361.018 280.085 360.039 280.085" fill="#F0B50F"/>
<path fill-rule="evenodd" clip-rule="evenodd" d="M357.911 287.127C357.728 287.127 357.542 287.108 357.358 287.066L332.561 281.56C331.385 281.298 330.679 280.269 330.983 279.26C331.288 278.251 332.489 277.646 333.664 277.906L358.46 283.413C359.637 283.674 360.343 284.704 360.038 285.713C359.781 286.562 358.889 287.127 357.911 287.127" fill="#F0B50F"/>
<path opacity="0.58" d="M137.825 37.2C137.825 35.4667 138.2 33.925 138.95 32.575C139.7 31.2083 140.742 30.15 142.075 29.4C143.425 28.6333 144.95 28.25 146.65 28.25C148.733 28.25 150.517 28.8 152 29.9C153.483 31 154.475 32.5 154.975 34.4H150.275C149.925 33.6667 149.425 33.1083 148.775 32.725C148.142 32.3417 147.417 32.15 146.6 32.15C145.283 32.15 144.217 32.6083 143.4 33.525C142.583 34.4417 142.175 35.6667 142.175 37.2C142.175 38.7333 142.583 39.9583 143.4 40.875C144.217 41.7917 145.283 42.25 146.6 42.25C147.417 42.25 148.142 42.0583 148.775 41.675C149.425 41.2917 149.925 40.7333 150.275 40H154.975C154.475 41.9 153.483 43.4 152 44.5C150.517 45.5833 148.733 46.125 146.65 46.125C144.95 46.125 143.425 45.75 142.075 45C140.742 44.2333 139.7 43.175 138.95 41.825C138.2 40.475 137.825 38.9333 137.825 37.2ZM164.768 46.175C163.118 46.175 161.601 45.7917 160.218 45.025C158.851 44.2583 157.76 43.1917 156.943 41.825C156.143 40.4417 155.743 38.8917 155.743 37.175C155.743 35.4583 156.143 33.9167 156.943 32.55C157.76 31.1833 158.851 30.1167 160.218 29.35C161.601 28.5833 163.118 28.2 164.768 28.2C166.418 28.2 167.926 28.5833 169.293 29.35C170.676 30.1167 171.76 31.1833 172.543 32.55C173.343 33.9167 173.743 35.4583 173.743 37.175C173.743 38.8917 173.343 40.4417 172.543 41.825C171.743 43.1917 170.66 44.2583 169.293 45.025C167.926 45.7917 166.418 46.175 164.768 46.175ZM164.768 42.275C166.168 42.275 167.285 41.8083 168.118 40.875C168.968 39.9417 169.393 38.7083 169.393 37.175C169.393 35.625 168.968 34.3917 168.118 33.475C167.285 32.5417 166.168 32.075 164.768 32.075C163.351 32.075 162.218 32.5333 161.368 33.45C160.535 34.3667 160.118 35.6083 160.118 37.175C160.118 38.725 160.535 39.9667 161.368 40.9C162.218 41.8167 163.351 42.275 164.768 42.275ZM190.696 46H186.421L179.271 35.175V46H174.996V28.45H179.271L186.421 39.325V28.45H190.696V46ZM205.295 28.45V31.875H200.645V46H196.37V31.875H191.72V28.45H205.295ZM217.241 42.9H210.691L209.641 46H205.166L211.516 28.45H216.466L222.816 46H218.291L217.241 42.9ZM216.141 39.6L213.966 33.175L211.816 39.6H216.141ZM222.898 37.2C222.898 35.4667 223.273 33.925 224.023 32.575C224.773 31.2083 225.815 30.15 227.148 29.4C228.498 28.6333 230.023 28.25 231.723 28.25C233.807 28.25 235.59 28.8 237.073 29.9C238.557 31 239.548 32.5 240.048 34.4H235.348C234.998 33.6667 234.498 33.1083 233.848 32.725C233.215 32.3417 232.49 32.15 231.673 32.15C230.357 32.15 229.29 32.6083 228.473 33.525C227.657 34.4417 227.248 35.6667 227.248 37.2C227.248 38.7333 227.657 39.9583 228.473 40.875C229.29 41.7917 230.357 42.25 231.673 42.25C232.49 42.25 233.215 42.0583 233.848 41.675C234.498 41.2917 234.998 40.7333 235.348 40H240.048C239.548 41.9 238.557 43.4 237.073 44.5C235.59 45.5833 233.807 46.125 231.723 46.125C230.023 46.125 228.498 45.75 227.148 45C225.815 44.2333 224.773 43.175 224.023 41.825C223.273 40.475 222.898 38.9333 222.898 37.2ZM254.166 28.45V31.875H249.516V46H245.241V31.875H240.591V28.45H254.166Z" fill="url(#paint14_linear)"/>
<defs>
<linearGradient id="paint0_linear" x1="236.865" y1="67.6895" x2="236.865" y2="246.381" gradientUnits="userSpaceOnUse">
<stop stop-color="#1C6FC4"/>
<stop offset="0.847875" stop-color="#02298A"/>
<stop offset="1" stop-color="#144591"/>
</linearGradient>
<linearGradient id="paint1_linear" x1="236.865" y1="246.381" x2="236.865" y2="282.657" gradientUnits="userSpaceOnUse">
<stop stop-color="#1C6FC4"/>
<stop offset="0.847875" stop-color="#02298A"/>
<stop offset="1" stop-color="#144591"/>
</linearGradient>
<linearGradient id="paint2_linear" x1="236.865" y1="6.33179" x2="236.865" y2="21.0689" gradientUnits="userSpaceOnUse">
<stop stop-color="#1C6FC4"/>
<stop offset="0.847875" stop-color="#02298A"/>
<stop offset="1" stop-color="#144591"/>
</linearGradient>
<linearGradient id="paint3_linear" x1="174.91" y1="123.104" x2="174.91" y2="153.498" gradientUnits="userSpaceOnUse">
<stop stop-color="#1C6FC4"/>
<stop offset="0.847875" stop-color="#02298A"/>
<stop offset="1" stop-color="#144591"/>
</linearGradient>
<linearGradient id="paint4_linear" x1="298.824" y1="123.104" x2="298.824" y2="153.498" gradientUnits="userSpaceOnUse">
<stop stop-color="#1C6FC4"/>
<stop offset="0.847875" stop-color="#02298A"/>
<stop offset="1" stop-color="#144591"/>
</linearGradient>
<linearGradient id="paint5_linear" x1="258.712" y1="45" x2="258.712" y2="76.1217" gradientUnits="userSpaceOnUse">
<stop stop-color="#1C6FC4"/>
<stop offset="0.847875" stop-color="#02298A"/>
<stop offset="1" stop-color="#144591"/>
</linearGradient>
<linearGradient id="paint6_linear" x1="76.3893" y1="145.653" x2="76.3893" y2="218.251" gradientUnits="userSpaceOnUse">
<stop stop-color="#1C6FC4"/>
<stop offset="0.847875" stop-color="#02298A"/>
<stop offset="1" stop-color="#144591"/>
</linearGradient>
<linearGradient id="paint7_linear" x1="79.5476" y1="157.747" x2="79.5476" y2="218.251" gradientUnits="userSpaceOnUse">
<stop stop-color="#B0BECD"/>
<stop offset="0.847875" stop-color="#02298A"/>
<stop offset="1" stop-color="#144591"/>
</linearGradient>
<linearGradient id="paint8_linear" x1="73.2331" y1="145.653" x2="73.2331" y2="206.157" gradientUnits="userSpaceOnUse">
<stop stop-color="#B0BECD"/>
<stop offset="0.847875" stop-color="#02298A"/>
<stop offset="1" stop-color="#144591"/>
</linearGradient>
<linearGradient id="paint9_linear" x1="57.8594" y1="288.184" x2="85.848" y2="288.184" gradientUnits="userSpaceOnUse">
<stop stop-color="#0A183D"/>
<stop offset="1" stop-color="#3B4664"/>
</linearGradient>
<linearGradient id="paint10_linear" x1="60.6722" y1="215.983" x2="60.6722" y2="278.538" gradientUnits="userSpaceOnUse">
<stop stop-color="#1C6FC4"/>
<stop offset="0.847875" stop-color="#02298A"/>
<stop offset="1" stop-color="#144591"/>
</linearGradient>
<linearGradient id="paint11_linear" x1="72.4539" y1="218.009" x2="72.4539" y2="275.025" gradientUnits="userSpaceOnUse">
<stop stop-color="#1C6FC4"/>
<stop offset="0.847875" stop-color="#02298A"/>
<stop offset="1" stop-color="#144591"/>
</linearGradient>
<linearGradient id="paint12_linear" x1="55.8379" y1="172.423" x2="79.5381" y2="172.423" gradientUnits="userSpaceOnUse">
<stop stop-color="#0A183D"/>
<stop offset="1" stop-color="#3B4664"/>
</linearGradient>
<linearGradient id="paint13_linear" x1="310.018" y1="250.644" x2="310.018" y2="283.396" gradientUnits="userSpaceOnUse">
<stop stop-color="#1C6FC4"/>
<stop offset="0.847875" stop-color="#02298A"/>
<stop offset="1" stop-color="#144591"/>
</linearGradient>
<linearGradient id="paint14_linear" x1="203.5" y1="26" x2="203.5" y2="46" gradientUnits="userSpaceOnUse">
<stop stop-color="#1C6FC4"/>
<stop offset="0.847875" stop-color="#02298A"/>
<stop offset="1" stop-color="#144591"/>
</linearGradient>
</defs>
</svg>
