<svg width="193" height="145" viewBox="0 0 193 145" fill="none" xmlns="http://www.w3.org/2000/svg">
<path d="M144.198 48.0661C139.744 43.6116 139.744 36.3894 144.198 31.9349C148.653 27.4804 155.875 27.4804 160.329 31.9349C164.784 36.3894 164.784 43.6116 160.329 48.0661C155.875 52.5206 148.653 52.5206 144.198 48.0661Z" fill="url(#paint0_linear_13_2193)"/>
<path d="M156.284 4.93799H157.016V50.6157H156.284V4.93799Z" fill="url(#paint1_linear_13_2193)"/>
<path d="M157.943 7.22803H123.782L129.131 12.6629L124.472 18.0974H157.944L157.943 7.22803Z" fill="url(#paint2_linear_13_2193)"/>
<path d="M155.821 4.2286C155.821 5.06135 156.192 5.73437 156.65 5.73437C157.108 5.73437 157.48 5.06022 157.48 4.2286C157.48 3.39698 157.108 0.901367 156.65 0.901367C156.192 0.901367 155.821 3.39622 155.821 4.2286Z" fill="url(#paint3_linear_13_2193)"/>
<path d="M157.016 6.40283L157.944 7.22612H157.016V6.40283Z" fill="url(#paint4_linear_13_2193)"/>
<path d="M25.642 139.788C16.4613 142.249 7.02352 136.802 4.56204 127.622C2.10056 118.441 7.54752 109.003 16.7282 106.542C25.9088 104.08 35.3466 109.527 37.8081 118.708C40.2696 127.889 34.8226 137.326 25.642 139.788Z" fill="url(#paint5_linear_13_2193)"/>
<path opacity="0.47" d="M174.186 63.6034C174.186 63.6034 140.282 22.4176 99.6413 58.7802C74.7614 81.0416 89.9016 158.459 128.646 125.873C155.655 103.158 165.73 113.81 177.142 119.746C186.561 124.645 207.199 98.3269 174.186 63.6034Z" fill="white"/>
<path d="M135.739 87.3353C135.739 87.3353 149.204 83.0027 146.675 64.1866C146.675 64.1866 129.388 63.3244 127.539 84.2522L135.739 87.3353Z" fill="#D5C9AA"/>
<path d="M119.357 83.1373C119.357 83.1373 114.755 73.2779 120.076 65.8232C120.076 65.8232 135.585 72.9066 130.732 85.4535L119.357 83.1373Z" fill="#EAE1BE"/>
<path d="M144.48 85.029C144.48 85.029 149.874 89.0118 155.457 83.9052C155.457 83.9052 149.793 80.0503 144.48 85.029Z" fill="#EAE1BE"/>
<path d="M149.793 76.9544C149.793 76.9544 154.449 81.7787 160.806 77.6736C160.806 77.6724 155.861 72.9284 149.793 76.9544Z" fill="#EAE1BE"/>
<path d="M145.368 71.1826C145.368 71.1826 141.344 76.5452 146.407 82.1697C146.408 82.1697 150.306 76.5342 145.368 71.1826Z" fill="#EAE1BE"/>
<path d="M154.99 68.407C154.99 68.407 157.985 71.5109 162.073 68.8688C162.073 68.8688 158.892 65.8175 154.99 68.407Z" fill="#EAE1BE"/>
<path d="M156.607 65.1358C156.607 65.1358 160.226 62.7889 158.416 58.272C158.416 58.272 154.813 60.81 156.607 65.1358Z" fill="#EAE1BE"/>
<path d="M152.82 72.612C152.82 72.612 154.713 68.1644 149.702 64.9307C149.702 64.9307 147.961 69.5539 152.82 72.612Z" fill="#EAE1BE"/>
<path d="M142.251 88.2736C142.798 87.5522 155.671 70.5307 156.948 64.6011L156.441 64.4917C155.19 70.3104 141.972 87.7853 141.839 87.9602L142.251 88.2736Z" fill="#EAE1BE"/>
<path d="M112.593 81.2305C87.4631 81.2305 86.7486 117.304 86.7486 137.23L192.207 134.296V110.018C192.207 110.018 184.559 102.743 165.552 106.266C136.843 111.589 130.285 81.2305 112.593 81.2305Z" fill="url(#paint6_linear_13_2193)"/>
<path d="M81.7893 27.0489C81.7893 27.0489 83.5923 22.9337 79.4257 20.042C79.4239 20.0406 77.7456 24.3145 81.7893 27.0489Z" fill="#D5C9AA"/>
<path d="M75.7185 24.7775C75.7185 24.7775 78.1797 21.0194 74.5538 17.475C74.5545 17.4751 72.1882 21.4104 75.7185 24.7775Z" fill="#D5C9AA"/>
<path d="M69.3635 22.6482C69.3635 22.6482 70.9466 20.2309 68.6143 17.9512C68.1902 18.7037 68.0335 19.5775 68.1696 20.4304C68.3056 21.2833 68.7265 22.065 69.3635 22.6482Z" fill="#D5C9AA"/>
<path d="M66.9842 22.0757C66.9842 22.0757 64.9146 20.0587 62.2307 21.9103C62.8879 22.4707 63.7155 22.7921 64.5786 22.8222C65.4418 22.8522 66.2896 22.5891 66.9842 22.0757Z" fill="#D5C9AA"/>
<path d="M84.242 28.0079L84.0847 28.3566C83.9503 28.2955 70.572 22.2533 66.5899 22.2984L66.5858 21.9165C70.6525 21.8696 83.6889 27.758 84.242 28.0079Z" fill="#D5C9AA"/>
<path d="M88.8413 32.158C88.8099 32.116 88.1842 31.3816 87.6301 30.5621C86.8912 29.4735 86.6122 28.7354 86.817 28.4386C86.8548 28.3837 86.9188 28.3629 87.0199 28.3731C87.5369 28.4295 88.7842 29.3573 90.1238 30.6821C91.2215 31.7681 92.5429 33.2996 92.9949 34.3689L90.9944 35.9811C90.9603 35.9474 90.9028 35.8944 90.8002 35.7918C87.8015 32.8859 87.3336 31.9471 87.4657 31.6659C87.4842 31.6193 87.5143 31.5783 87.5531 31.5467C87.592 31.5151 87.6382 31.4939 87.6876 31.4853C88.0983 31.4388 88.8413 32.158 88.8413 32.158Z" fill="url(#paint7_linear_13_2193)"/>
<g filter="url(#filter0_d_13_2193)">
<path d="M95.7557 35.6423C94.4249 34.3515 92.3318 34.2809 90.917 35.4792C90.6893 35.6722 90.6133 35.9801 90.746 36.2475C91.9491 38.6718 97.9395 49.6025 104.29 52.0896C104.885 52.3443 105.527 52.468 106.174 52.4523C106.821 52.4365 107.456 52.2817 108.038 51.9983C111.861 50.1337 123.894 40.3288 123.045 37.2684C122.421 35.0173 121.684 33.5646 121.052 32.6492C119.977 31.0945 122.663 34.9813 121.362 34.3458C121.056 34.1967 118.011 33.8513 117.68 33.9282C116.27 34.256 119.245 31.5383 118.055 32.6254L111.024 39.0468C108.951 40.94 107.915 41.8866 106.753 42.2545C105.612 42.6157 104.384 42.5973 103.254 42.2021C102.104 41.7994 101.096 40.8221 99.0809 38.8676L95.7557 35.6423Z" fill="#F0B50F"/>
</g>
<path d="M109.175 118.216L113.944 118.132L113.669 122.249C113.668 122.459 113.65 122.668 113.617 122.875C113.25 122.531 112.929 123.147 112.265 123.322C111.096 123.63 109.854 122.376 108.839 121.737C108.961 121.185 109.074 119.206 109.175 118.216Z" fill="url(#paint8_linear_13_2193)"/>
<path d="M114.213 121.544C114.213 121.544 114.037 121.052 113.678 121.4C113.18 121.884 112.147 122.834 111.18 121.669C109.514 119.665 109.382 118.89 106.733 120.811C104.084 122.731 102.655 122.797 101.448 123.696C101.009 124.025 100.093 125.513 102.516 125.615C104.939 125.716 113.304 125.687 113.304 125.687C113.304 125.687 114.824 125.766 114.213 121.544Z" fill="url(#paint9_linear_13_2193)"/>
<path d="M124.666 117.346L129.287 117.325L129.504 122.624C129.484 122.833 129.448 123.04 129.397 123.243C129.062 122.869 128.688 123.453 128.01 123.569C126.819 123.773 125.693 122.412 124.738 121.688C124.88 120.558 124.703 118.815 124.666 117.346Z" fill="url(#paint10_linear_13_2193)"/>
<path d="M130.097 121.753C130.097 121.753 129.926 121.258 129.564 121.601C129.06 122.08 128.017 123.018 127.062 121.842C125.42 119.82 125.295 119.044 122.624 120.934C119.954 122.824 118.525 122.875 117.308 123.761C116.865 124.084 115.933 125.564 118.354 125.692C120.776 125.82 129.142 125.884 129.142 125.884C129.142 125.884 130.66 125.981 130.097 121.753Z" fill="url(#paint11_linear_13_2193)"/>
<path d="M123.75 118.307H130.483L129.35 67.1368C124.73 67.1103 121.586 67.0547 117.346 67.0547L123.75 118.307Z" fill="url(#paint12_linear_13_2193)"/>
<path d="M115.243 118.307H108.561L112.727 67.0239C117.009 67.0239 122.541 67.0924 127.038 67.0924L115.243 118.307Z" fill="url(#paint13_linear_13_2193)"/>
<path d="M120.586 30.1406C118.556 31.1952 113.908 32.2982 113.367 32.539C113.367 32.539 113.022 42.2746 112.837 53.8749C112.769 58.1367 112.724 62.6494 112.724 67.0244L126.857 67.1206L129.348 67.1376C127.933 41.75 120.921 30.5373 120.586 30.1406Z" fill="url(#paint14_linear_13_2193)"/>
<path d="M128.718 67.1369C128.718 59.2928 124.238 42.3564 124.238 42.3564C124.238 42.3564 115.948 52.7731 112.841 56.8853C112.773 60.1785 112.728 63.6681 112.728 67.0499L128.718 67.1369Z" fill="url(#paint15_linear_13_2193)"/>
<path d="M111.448 21.5698C109.896 23.115 109.185 26.5592 110.01 28.5392C110.134 28.9161 110.373 29.2447 110.693 29.479C111.013 29.7133 111.398 29.8416 111.795 29.8459C112.508 29.8459 112.672 29.8395 113.184 29.808L114.168 32.3657L119.392 30.7324L117.699 25.5504C117.22 25.6448 116.731 25.6744 116.244 25.6386L116.149 25.6284L116.209 25.5496C116.456 25.2268 116.58 24.8266 116.559 24.4206C116.539 24.0147 116.374 23.6293 116.096 23.3334C115.12 22.2686 113.867 23.3568 113.811 23.4015L113.683 23.5185L113.721 23.3481C113.778 23.1868 113.801 23.0153 113.787 22.8446C113.774 22.674 113.724 22.5082 113.642 22.3579C113.331 21.8817 112.497 21.7424 111.448 21.5698Z" fill="url(#paint16_linear_13_2193)"/>
<path d="M119.345 28.1675L112.41 33.0209C113.555 32.6886 118.656 31.1548 121.14 30.3603L119.345 28.1675Z" fill="url(#paint17_linear_13_2193)"/>
<path d="M106.2 14.6846C105.857 14.6956 105.53 14.8368 105.286 15.0795C105.042 15.3223 104.9 15.6486 104.887 15.9924C104.73 17.7007 106.596 20.7334 108.658 21.3811C109.458 21.6175 110.273 21.7957 111.098 21.914C112.19 22.0931 113.055 22.2331 113.399 22.7521C113.561 23.0328 113.605 23.3658 113.523 23.6791C113.884 23.4206 114.97 22.7661 115.841 23.7132C116.126 24.0166 116.298 24.4088 116.329 24.824C116.36 25.2393 116.247 25.6526 116.01 25.9949C116.789 26.0362 117.568 25.9159 118.298 25.6414C120.335 24.8465 121.016 23.008 121.228 21.6082C121.4 20.4726 121.206 19.5422 120.654 18.8548C119.897 17.9119 118.542 17.4948 117.155 17.2847C116.371 17.1658 115.577 17.1113 114.879 17.0674C114.316 17.0296 113.779 16.9917 113.365 16.9304C112.389 16.73 111.455 16.3648 110.602 15.8505C109.317 15.1744 107.991 14.4757 106.2 14.6846Z" fill="#2F3B3B"/>
<path d="M98.4634 55.8764C98.4108 55.8745 97.4505 55.7787 96.4622 55.7908C95.1472 55.8041 94.3803 55.9952 94.2539 56.3325C94.2304 56.395 94.2509 56.4589 94.3163 56.5365C94.657 56.9291 96.1302 57.4257 97.9823 57.772C99.4998 58.0548 101.512 58.2687 102.648 58.0306L102.833 55.4676C102.786 55.4585 102.709 55.4414 102.568 55.415C98.471 54.6068 97.4327 54.7575 97.2786 55.0255C97.2508 55.0671 97.2342 55.1152 97.2304 55.1651C97.2265 55.215 97.2356 55.2651 97.2567 55.3105C97.4482 55.6773 98.4634 55.8764 98.4634 55.8764Z" fill="url(#paint18_linear_13_2193)"/>
<g filter="url(#filter1_d_13_2193)">
<path d="M106.164 54.4748C104.295 54.6057 102.807 56.0929 102.676 57.9622C102.655 58.2599 102.822 58.5369 103.099 58.6474C105.49 59.6008 116.044 63.4891 122.234 60.6929C122.832 60.4451 123.369 60.0717 123.809 59.5979C124.249 59.1241 124.582 58.561 124.785 57.9471C126.119 53.9097 124.598 40.5126 122.847 37.8626C120.239 33.9146 114.74 35.4676 114.668 40.3056L114.985 47.2787C115.034 48.3607 115.059 48.9017 115.003 49.36C114.724 51.6532 113.05 53.5319 110.804 54.073C110.355 54.1811 109.815 54.219 108.735 54.2947L106.164 54.4748Z" fill="#F0B50F"/>
</g>
<g filter="url(#filter2_d_13_2193)">
<path d="M62.9488 137.656C57.7666 136.794 54.2643 131.894 55.1263 126.712C55.9882 121.529 60.888 118.027 66.0702 118.889C71.2525 119.751 74.7547 124.651 73.8928 129.833C73.0308 135.015 68.1311 138.517 62.9488 137.656Z" fill="#F0B50F"/>
</g>
<path d="M68.674 126.96L65.069 127.515L64.5137 123.91L63.1888 124.114L63.7441 127.719L60.139 128.275L60.3431 129.599L63.9481 129.044L64.5034 132.649L65.8283 132.445L65.273 128.84L68.8781 128.285L68.674 126.96Z" fill="url(#paint19_linear_13_2193)"/>
<path d="M164.064 74.091C161.008 73.8797 158.701 71.2308 158.913 68.1745C159.124 65.1182 161.773 62.8118 164.829 63.0232C167.885 63.2345 170.192 65.8834 169.98 68.9397C169.769 71.996 167.12 74.3023 164.064 74.091Z" fill="url(#paint20_linear_13_2193)"/>
<path d="M166.996 68.5511L164.895 68.2259L165.22 66.1255L164.448 66.0059L164.123 68.1063L162.023 67.7811L161.903 68.5533L164.004 68.8785L163.679 70.9789L164.451 71.0985L164.776 68.9981L166.876 69.3232L166.996 68.5511Z" fill="white"/>
<g filter="url(#filter3_d_13_2193)">
<path d="M131.125 39.7855C130.007 35.3239 132.718 30.801 137.179 29.6833C141.641 28.5656 146.164 31.2764 147.282 35.738C148.399 40.1996 145.688 44.7225 141.227 45.8402C136.765 46.9579 132.242 44.2471 131.125 39.7855Z" fill="#F0B50F"/>
</g>
<path d="M142.929 36.9264L139.744 37.1411L139.529 33.9565L138.358 34.0353L138.573 37.2202L135.388 37.4348L135.467 38.606L138.652 38.3913L138.866 41.5762L140.037 41.4971L139.822 38.3122L143.007 38.0976L142.929 36.9264Z" fill="white"/>
<defs>
<filter id="filter0_d_13_2193" x="87.5177" y="32.2793" width="38.7331" height="26.5004" filterUnits="userSpaceOnUse" color-interpolation-filters="sRGB">
<feFlood flood-opacity="0" result="BackgroundImageFix"/>
<feColorMatrix in="SourceAlpha" type="matrix" values="0 0 0 0 0 0 0 0 0 0 0 0 0 0 0 0 0 0 127 0" result="hardAlpha"/>
<feOffset dy="3.16307"/>
<feGaussianBlur stdDeviation="1.58153"/>
<feComposite in2="hardAlpha" operator="out"/>
<feColorMatrix type="matrix" values="0 0 0 0 0 0 0 0 0 0 0 0 0 0 0 0 0 0 0.11 0"/>
<feBlend mode="normal" in2="BackgroundImageFix" result="effect1_dropShadow_13_2193"/>
<feBlend mode="normal" in="SourceGraphic" in2="effect1_dropShadow_13_2193" result="shape"/>
</filter>
<filter id="filter1_d_13_2193" x="99.5108" y="35.6221" width="28.9455" height="32.3916" filterUnits="userSpaceOnUse" color-interpolation-filters="sRGB">
<feFlood flood-opacity="0" result="BackgroundImageFix"/>
<feColorMatrix in="SourceAlpha" type="matrix" values="0 0 0 0 0 0 0 0 0 0 0 0 0 0 0 0 0 0 127 0" result="hardAlpha"/>
<feOffset dy="3.16307"/>
<feGaussianBlur stdDeviation="1.58153"/>
<feComposite in2="hardAlpha" operator="out"/>
<feColorMatrix type="matrix" values="0 0 0 0 0 0 0 0 0 0 0 0 0 0 0 0 0 0 0.11 0"/>
<feBlend mode="normal" in2="BackgroundImageFix" result="effect1_dropShadow_13_2193"/>
<feBlend mode="normal" in="SourceGraphic" in2="effect1_dropShadow_13_2193" result="shape"/>
</filter>
<filter id="filter2_d_13_2193" x="51.8328" y="118.759" width="25.3535" height="25.3535" filterUnits="userSpaceOnUse" color-interpolation-filters="sRGB">
<feFlood flood-opacity="0" result="BackgroundImageFix"/>
<feColorMatrix in="SourceAlpha" type="matrix" values="0 0 0 0 0 0 0 0 0 0 0 0 0 0 0 0 0 0 127 0" result="hardAlpha"/>
<feOffset dy="3.16307"/>
<feGaussianBlur stdDeviation="1.58153"/>
<feComposite in2="hardAlpha" operator="out"/>
<feColorMatrix type="matrix" values="0 0 0 0 0 0 0 0 0 0 0 0 0 0 0 0 0 0 0.11 0"/>
<feBlend mode="normal" in2="BackgroundImageFix" result="effect1_dropShadow_13_2193"/>
<feBlend mode="normal" in="SourceGraphic" in2="effect1_dropShadow_13_2193" result="shape"/>
</filter>
<filter id="filter3_d_13_2193" x="127.71" y="29.4316" width="22.9862" height="22.9863" filterUnits="userSpaceOnUse" color-interpolation-filters="sRGB">
<feFlood flood-opacity="0" result="BackgroundImageFix"/>
<feColorMatrix in="SourceAlpha" type="matrix" values="0 0 0 0 0 0 0 0 0 0 0 0 0 0 0 0 0 0 127 0" result="hardAlpha"/>
<feOffset dy="3.16307"/>
<feGaussianBlur stdDeviation="1.58153"/>
<feComposite in2="hardAlpha" operator="out"/>
<feColorMatrix type="matrix" values="0 0 0 0 0 0 0 0 0 0 0 0 0 0 0 0 0 0 0.11 0"/>
<feBlend mode="normal" in2="BackgroundImageFix" result="effect1_dropShadow_13_2193"/>
<feBlend mode="normal" in="SourceGraphic" in2="effect1_dropShadow_13_2193" result="shape"/>
</filter>
<linearGradient id="paint0_linear_13_2193" x1="71.5757" y1="-40.6876" x2="55.4445" y2="-56.8188" gradientUnits="userSpaceOnUse">
<stop stop-color="#DD902F" stop-opacity="0"/>
<stop offset="1" stop-color="#DC8F30"/>
</linearGradient>
<linearGradient id="paint1_linear_13_2193" x1="38.4705" y1="27.7768" x2="43.4833" y2="27.7768" gradientUnits="userSpaceOnUse">
<stop stop-color="#233838"/>
<stop offset="1" stop-color="#2A4647"/>
</linearGradient>
<linearGradient id="paint2_linear_13_2193" x1="129.068" y1="19.079" x2="132.002" y2="2.7571" gradientUnits="userSpaceOnUse">
<stop stop-color="#163179"/>
<stop offset="0.209" stop-color="#15347B"/>
<stop offset="0.387" stop-color="#153E84"/>
<stop offset="0.553" stop-color="#145092"/>
<stop offset="0.712" stop-color="#1469A6"/>
<stop offset="0.864" stop-color="#1388C0"/>
<stop offset="0.995" stop-color="#AADEEF"/>
</linearGradient>
<linearGradient id="paint3_linear_13_2193" x1="19.2789" y1="3.31787" x2="17.6198" y2="3.31787" gradientUnits="userSpaceOnUse">
<stop offset="0.396" stop-color="#E2AD32"/>
<stop offset="1" stop-color="#DC8F30"/>
</linearGradient>
<linearGradient id="paint4_linear_13_2193" x1="44.9107" y1="5.99448" x2="44.9107" y2="6.81036" gradientUnits="userSpaceOnUse">
<stop stop-color="#78B3FB"/>
<stop offset="1" stop-color="#5081C0"/>
</linearGradient>
<linearGradient id="paint5_linear_13_2193" x1="16.7282" y1="106.542" x2="25.642" y2="139.788" gradientUnits="userSpaceOnUse">
<stop stop-color="#DD902F" stop-opacity="0"/>
<stop offset="1" stop-color="#DC8F30"/>
</linearGradient>
<linearGradient id="paint6_linear_13_2193" x1="529.884" y1="127.822" x2="529.884" y2="57.9346" gradientUnits="userSpaceOnUse">
<stop stop-color="#DD902F" stop-opacity="0"/>
<stop offset="1" stop-color="#DC8F30"/>
</linearGradient>
<linearGradient id="paint7_linear_13_2193" x1="386.311" y1="326.694" x2="393.697" y2="330.031" gradientUnits="userSpaceOnUse">
<stop stop-color="#EFD6D4"/>
<stop offset="0.728" stop-color="#D7C1B9"/>
</linearGradient>
<linearGradient id="paint8_linear_13_2193" x1="87.0873" y1="120.751" x2="81.9814" y2="120.751" gradientUnits="userSpaceOnUse">
<stop stop-color="#EFD6D4"/>
<stop offset="0.728" stop-color="#D7C1B9"/>
</linearGradient>
<linearGradient id="paint9_linear_13_2193" x1="95.0843" y1="123.776" x2="81.6212" y2="123.776" gradientUnits="userSpaceOnUse">
<stop stop-color="#2A4647"/>
<stop offset="1" stop-color="#233838"/>
</linearGradient>
<linearGradient id="paint10_linear_13_2193" x1="53.6649" y1="34.8808" x2="48.3819" y2="34.8808" gradientUnits="userSpaceOnUse">
<stop stop-color="#EFD6D4"/>
<stop offset="0.728" stop-color="#D7C1B9"/>
</linearGradient>
<linearGradient id="paint11_linear_13_2193" x1="61.7753" y1="61.1591" x2="48.3094" y2="61.1591" gradientUnits="userSpaceOnUse">
<stop stop-color="#2A4647"/>
<stop offset="1" stop-color="#233838"/>
</linearGradient>
<linearGradient id="paint12_linear_13_2193" x1="119.379" y1="122.935" x2="149.274" y2="109.371" gradientUnits="userSpaceOnUse">
<stop stop-color="#163179"/>
<stop offset="0.209" stop-color="#15347B"/>
<stop offset="0.387" stop-color="#153E84"/>
<stop offset="0.553" stop-color="#145092"/>
<stop offset="0.712" stop-color="#1469A6"/>
<stop offset="0.864" stop-color="#1388C0"/>
<stop offset="0.995" stop-color="#AADEEF"/>
</linearGradient>
<linearGradient id="paint13_linear_13_2193" x1="111.42" y1="122.938" x2="147.462" y2="99.9511" gradientUnits="userSpaceOnUse">
<stop stop-color="#163179"/>
<stop offset="0.209" stop-color="#15347B"/>
<stop offset="0.387" stop-color="#153E84"/>
<stop offset="0.553" stop-color="#145092"/>
<stop offset="0.712" stop-color="#1469A6"/>
<stop offset="0.864" stop-color="#1388C0"/>
<stop offset="0.995" stop-color="#AADEEF"/>
</linearGradient>
<linearGradient id="paint14_linear_13_2193" x1="75.1683" y1="48.6391" x2="76.6438" y2="28.8223" gradientUnits="userSpaceOnUse">
<stop offset="0.396" stop-color="#E2AD32"/>
<stop offset="1" stop-color="#DC8F30"/>
</linearGradient>
<linearGradient id="paint15_linear_13_2193" x1="663.645" y1="67.1121" x2="664.87" y2="50.214" gradientUnits="userSpaceOnUse">
<stop offset="0.455" stop-color="#DD902F" stop-opacity="0"/>
<stop offset="1" stop-color="#DC8F30"/>
</linearGradient>
<linearGradient id="paint16_linear_13_2193" x1="86.2647" y1="26.9678" x2="76.5358" y2="26.9678" gradientUnits="userSpaceOnUse">
<stop stop-color="#EFD6D4"/>
<stop offset="0.728" stop-color="#D7C1B9"/>
</linearGradient>
<linearGradient id="paint17_linear_13_2193" x1="78.2673" y1="36.8649" x2="78.7289" y2="28.21" gradientUnits="userSpaceOnUse">
<stop offset="0.643" stop-color="#E2AD32"/>
<stop offset="1" stop-color="#DC8F30"/>
</linearGradient>
<linearGradient id="paint18_linear_13_2193" x1="618.198" y1="167.266" x2="619.493" y2="173.077" gradientUnits="userSpaceOnUse">
<stop stop-color="#EFD6D4"/>
<stop offset="0.728" stop-color="#D7C1B9"/>
</linearGradient>
<linearGradient id="paint19_linear_13_2193" x1="167.323" y1="165.062" x2="158.689" y2="165.062" gradientUnits="userSpaceOnUse">
<stop stop-color="#4B786C"/>
<stop offset="1" stop-color="#284646"/>
</linearGradient>
<linearGradient id="paint20_linear_13_2193" x1="20.3877" y1="58.5971" x2="9.31985" y2="57.8319" gradientUnits="userSpaceOnUse">
<stop offset="0.253" stop-color="#E2AD32"/>
<stop offset="1" stop-color="#DC8F30"/>
</linearGradient>
</defs>
</svg>
