<svg width="194" height="145" viewBox="0 0 194 145" fill="none" xmlns="http://www.w3.org/2000/svg">
<path d="M48.9754 48.0128C53.4299 43.5583 53.4299 36.3362 48.9754 31.8817C44.5209 27.4272 37.2988 27.4272 32.8443 31.8817C28.3898 36.3362 28.3898 43.5583 32.8443 48.0128C37.2988 52.4673 44.5209 52.4673 48.9754 48.0128Z" fill="url(#paint0_linear_13_1531)"/>
<path d="M36.8862 4.88477H36.1545V50.5624H36.8862V4.88477Z" fill="url(#paint1_linear_13_1531)"/>
<path d="M35.2268 7.1748H69.3879L64.0393 12.6096L68.6978 18.0441H35.2264L35.2268 7.1748Z" fill="url(#paint2_linear_13_1531)"/>
<path d="M37.3495 4.17538C37.3495 5.00813 36.9782 5.68115 36.5202 5.68115C36.0621 5.68115 35.6904 5.007 35.6904 4.17538C35.6904 3.34376 36.0618 0.848145 36.5202 0.848145C36.9786 0.848145 37.3495 3.343 37.3495 4.17538Z" fill="url(#paint3_linear_13_1531)"/>
<path d="M36.1538 6.34961L35.2264 7.1729H36.1538V6.34961Z" fill="url(#paint4_linear_13_1531)"/>
<path d="M167.531 139.737C176.712 142.198 186.15 136.751 188.611 127.571C191.073 118.39 185.626 108.952 176.445 106.491C167.265 104.029 157.827 109.476 155.365 118.657C152.904 127.837 158.351 137.275 167.531 139.737Z" fill="url(#paint5_linear_13_1531)"/>
<path opacity="0.47" d="M18.9879 63.5501C18.9879 63.5501 52.8918 22.3644 93.5322 58.727C118.412 80.9884 103.272 158.406 64.527 125.82C37.5183 103.105 27.443 113.757 16.0315 119.693C6.61238 124.592 -14.0258 98.2737 18.9879 63.5501Z" fill="white"/>
<path d="M57.4348 87.284C57.4348 87.284 43.9699 82.9514 46.4985 64.1354C46.4985 64.1354 63.7853 63.2731 65.6348 84.201L57.4348 87.284Z" fill="#D5C9AA"/>
<path d="M73.8167 83.0856C73.8167 83.0856 78.4188 73.2261 73.0975 65.7715C73.0975 65.7715 57.5882 72.8548 62.4421 85.4018L73.8167 83.0856Z" fill="#EAE1BE"/>
<path d="M48.6935 84.9792C48.6935 84.9792 43.2999 88.962 37.7163 83.8554C37.7163 83.8554 43.3802 80.0005 48.6935 84.9792Z" fill="#EAE1BE"/>
<path d="M43.3803 76.9046C43.3803 76.9046 38.7245 81.7289 32.3672 77.6238C32.3672 77.6226 37.313 72.8786 43.3803 76.9046Z" fill="#EAE1BE"/>
<path d="M47.806 71.1328C47.806 71.1328 51.8301 76.4954 46.7669 82.1199C46.7662 82.1199 42.8674 76.4844 47.806 71.1328Z" fill="#EAE1BE"/>
<path d="M38.1834 68.3572C38.1834 68.3572 35.1889 71.4611 31.1001 68.819C31.1005 68.819 34.2812 65.7677 38.1834 68.3572Z" fill="#EAE1BE"/>
<path d="M36.5667 65.0859C36.5667 65.0859 32.948 62.7391 34.7574 58.2222C34.7574 58.2222 38.3609 60.7602 36.5667 65.0859Z" fill="#EAE1BE"/>
<path d="M40.3534 72.5622C40.3534 72.5622 38.4608 68.1146 43.4714 64.8809C43.4714 64.8809 45.2129 69.5041 40.3534 72.5622Z" fill="#EAE1BE"/>
<path d="M50.9227 88.2238C50.3753 87.5024 37.5021 70.4809 36.2257 64.5513L36.7322 64.4419C37.984 70.2606 51.2013 87.7355 51.3349 87.9104L50.9227 88.2238Z" fill="#EAE1BE"/>
<path d="M80.5804 81.1772C105.71 81.1772 106.425 117.251 106.425 137.177L0.966553 134.243V109.965C0.966553 109.965 8.61492 102.69 27.6213 106.213C56.3305 111.535 62.8881 81.1772 80.5804 81.1772Z" fill="url(#paint6_linear_13_1531)"/>
<path d="M111.385 26.9956C111.385 26.9956 109.582 22.8804 113.748 19.9887C113.75 19.9874 115.428 24.2613 111.385 26.9956Z" fill="#D5C9AA"/>
<path d="M117.455 24.7238C117.455 24.7238 114.994 20.9657 118.62 17.4213C118.619 17.4214 120.985 21.3567 117.455 24.7238Z" fill="#D5C9AA"/>
<path d="M123.81 22.595C123.81 22.595 122.227 20.1777 124.559 17.898C124.983 18.6505 125.14 19.5243 125.004 20.3772C124.868 21.2301 124.447 22.0118 123.81 22.595Z" fill="#D5C9AA"/>
<path d="M126.19 22.0224C126.19 22.0224 128.259 20.0055 130.943 21.8571C130.286 22.4175 129.458 22.7389 128.595 22.7689C127.732 22.799 126.884 22.5359 126.19 22.0224Z" fill="#D5C9AA"/>
<path d="M108.932 27.9547L109.089 28.3034C109.223 28.2422 122.602 22.2 126.584 22.2452L126.588 21.8633C122.521 21.8164 109.485 27.7047 108.932 27.9547Z" fill="#D5C9AA"/>
<path d="M104.339 32.1062C104.371 32.0642 104.996 31.3299 105.55 30.5104C106.289 29.4217 106.568 28.6836 106.363 28.3868C106.326 28.332 106.262 28.3111 106.161 28.3214C105.644 28.3778 104.396 29.3055 103.057 30.6304C101.959 31.7163 100.638 33.2479 100.186 34.3172L102.186 35.9293C102.22 35.8956 102.278 35.8426 102.38 35.7401C105.379 32.8341 105.847 31.8954 105.715 31.6141C105.696 31.5676 105.666 31.5265 105.627 31.4949C105.588 31.4633 105.542 31.4422 105.493 31.4336C105.082 31.387 104.339 32.1062 104.339 32.1062Z" fill="url(#paint7_linear_13_1531)"/>
<g filter="url(#filter0_d_13_1531)">
<path d="M97.4211 35.5906C98.752 34.2997 100.845 34.2291 102.26 35.4274C102.488 35.6204 102.564 35.9284 102.431 36.1958C101.228 38.62 95.2373 49.5507 88.8866 52.0378C88.292 52.2925 87.6496 52.4163 87.0029 52.4005C86.3563 52.3848 85.7206 52.23 85.1392 51.9466C81.3161 50.082 69.2832 40.2771 70.1318 37.2167C70.756 34.9656 71.4926 33.5129 72.1252 32.5974C73.1997 31.0427 70.5135 34.9295 71.8151 34.294C72.1204 34.145 75.1655 33.7995 75.4964 33.8764C76.9073 34.2042 73.9318 31.4865 75.122 32.5736L82.1526 38.995C84.2254 40.8883 85.2618 41.8349 86.4242 42.2028C87.5653 42.564 88.7928 42.5456 89.9225 42.1503C91.0734 41.7477 92.0809 40.7704 94.096 38.8158L97.4211 35.5906Z" fill="#F0B50F"/>
</g>
<path d="M84.0053 118.168L79.2358 118.084L79.5114 122.2C79.5126 122.41 79.5301 122.62 79.5637 122.827C79.9301 122.483 80.2514 123.098 80.9157 123.274C82.0846 123.582 83.3262 122.327 84.3418 121.688C84.2195 121.137 84.106 119.158 84.0053 118.168Z" fill="url(#paint8_linear_13_1531)"/>
<path d="M78.9673 121.496C78.9673 121.496 79.1433 121.004 79.5022 121.352C79.9999 121.836 81.0329 122.785 82.0004 121.62C83.6659 119.617 83.7988 118.842 86.4477 120.762C89.0966 122.682 90.5251 122.749 91.7319 123.648C92.1717 123.976 93.087 125.465 90.6641 125.566C88.2412 125.668 79.8762 125.638 79.8762 125.638C79.8762 125.638 78.3568 125.718 78.9673 121.496Z" fill="url(#paint9_linear_13_1531)"/>
<path d="M68.5175 117.297L63.8968 117.276L63.6796 122.576C63.6994 122.785 63.7352 122.992 63.7867 123.195C64.1217 122.82 64.4957 123.405 65.1732 123.52C66.3645 123.725 67.4909 122.364 68.446 121.64C68.3033 120.509 68.4812 118.767 68.5175 117.297Z" fill="url(#paint10_linear_13_1531)"/>
<path d="M63.0833 121.704C63.0833 121.704 63.2541 121.21 63.6167 121.553C64.1201 122.031 65.1633 122.97 66.1184 121.794C67.7608 119.772 67.8853 118.996 70.5558 120.886C73.2263 122.775 74.6552 122.827 75.8722 123.713C76.3158 124.036 77.2474 125.515 74.8259 125.643C72.4045 125.771 64.038 125.835 64.038 125.835C64.038 125.835 62.5201 125.933 63.0833 121.704Z" fill="url(#paint11_linear_13_1531)"/>
<path d="M69.4301 118.258H62.6973L63.8302 67.0885C68.4509 67.062 71.5949 67.0063 75.8344 67.0063L69.4301 118.258Z" fill="url(#paint12_linear_13_1531)"/>
<path d="M77.9378 118.26H84.6195L80.4535 66.9775C76.1716 66.9775 70.6398 67.046 66.1426 67.046L77.9378 118.26Z" fill="url(#paint13_linear_13_1531)"/>
<path d="M72.5908 30.0923C74.6216 31.1469 79.2695 32.2499 79.81 32.4906C79.81 32.4906 80.1549 42.2263 80.34 53.8265C80.4081 58.0883 80.4535 62.6011 80.4535 66.9761L66.3198 67.0722L63.8287 67.0893C65.2444 41.7016 72.2558 30.489 72.5908 30.0923Z" fill="url(#paint14_linear_13_1531)"/>
<path d="M64.4656 67.0886C64.4656 59.2444 68.9458 42.3081 68.9458 42.3081C68.9458 42.3081 77.2355 52.7247 80.3424 56.837C80.4105 60.1302 80.456 63.6198 80.456 67.0015L64.4656 67.0886Z" fill="url(#paint15_linear_13_1531)"/>
<path d="M81.7284 21.5215C83.2803 23.0666 83.992 26.5108 83.1668 28.4909C83.0428 28.8677 82.804 29.1963 82.4839 29.4306C82.1638 29.665 81.7784 29.7933 81.3817 29.7975C80.6685 29.7975 80.505 29.7911 79.9928 29.7597L79.0087 32.3174L73.785 30.684L75.4782 25.502C75.9568 25.5964 76.446 25.6261 76.9325 25.5902L77.0279 25.58L76.9677 25.5013C76.7207 25.1784 76.5966 24.7783 76.6174 24.3723C76.6382 23.9663 76.8026 23.581 77.0812 23.285C78.0567 22.2202 79.31 23.3085 79.3656 23.3532L79.4936 23.4701L79.4557 23.2998C79.3986 23.1385 79.3761 22.9669 79.3896 22.7963C79.4032 22.6257 79.4526 22.4598 79.5345 22.3096C79.8456 21.8334 80.6795 21.6941 81.7284 21.5215Z" fill="url(#paint16_linear_13_1531)"/>
<path d="M73.8356 28.1191L80.7702 32.9726C79.6252 32.6402 74.5245 31.1065 72.0403 30.3119L73.8356 28.1191Z" fill="url(#paint17_linear_13_1531)"/>
<path d="M86.9801 14.6363C87.3239 14.6473 87.6508 14.7884 87.8946 15.0312C88.1383 15.274 88.2808 15.6003 88.2932 15.9441C88.451 17.6523 86.5842 20.6851 84.5224 21.3327C83.723 21.5692 82.9075 21.7473 82.0824 21.8657C80.9903 22.0447 80.1258 22.1848 79.7813 22.7038C79.6197 22.9844 79.5751 23.3174 79.6572 23.6308C79.2964 23.3722 78.2101 22.7178 77.3399 23.6648C77.0547 23.9683 76.8823 24.3604 76.8514 24.7757C76.8205 25.191 76.9331 25.6043 77.1703 25.9466C76.3913 25.9879 75.6122 25.8675 74.8821 25.593C72.8452 24.7981 72.165 22.9596 71.9523 21.5599C71.7801 20.4243 71.9742 19.4939 72.5265 18.8065C73.2836 17.8636 74.6383 17.4464 76.0252 17.2363C76.8092 17.1175 77.6033 17.063 78.3016 17.0191C78.8645 16.9812 79.4013 16.9434 79.8157 16.882C80.7915 16.6816 81.7259 16.3164 82.579 15.8021C83.8637 15.1261 85.1897 14.4273 86.9801 14.6363Z" fill="#2F3B3B"/>
<path d="M94.7133 55.8246C94.766 55.8227 95.7263 55.727 96.7146 55.7391C98.0296 55.7523 98.7965 55.9435 98.9229 56.2807C98.9464 56.3432 98.9259 56.4072 98.8604 56.4848C98.5198 56.8773 97.0466 57.3739 95.1944 57.7203C93.6769 58.003 91.6651 58.2169 90.5284 57.9788L90.344 55.4158C90.3909 55.4067 90.4674 55.3897 90.609 55.3632C94.7058 54.555 95.7441 54.7057 95.8981 54.9737C95.926 55.0153 95.9426 55.0634 95.9464 55.1133C95.9502 55.1633 95.9412 55.2133 95.9201 55.2587C95.7285 55.6255 94.7133 55.8246 94.7133 55.8246Z" fill="url(#paint18_linear_13_1531)"/>
<g filter="url(#filter1_d_13_1531)">
<path d="M87.0124 54.4264C88.8818 54.5574 90.3696 56.0445 90.5013 57.9139C90.5222 58.2116 90.3548 58.4885 90.0776 58.5991C87.6866 59.5525 77.1325 63.4408 70.9426 60.6445C70.3452 60.3968 69.8082 60.0233 69.3681 59.5495C68.9279 59.0757 68.5949 58.5127 68.3917 57.8987C67.0574 53.8614 68.5787 40.4643 70.3294 37.8142C72.9374 33.8662 78.4366 35.4193 78.5089 40.2572L78.1921 47.2303C78.143 48.3123 78.1184 48.8533 78.1741 49.3117C78.4531 51.6048 80.1268 53.4836 82.3725 54.0246C82.8215 54.1328 83.3617 54.1707 84.4422 54.2464L87.0124 54.4264Z" fill="#F0B50F"/>
</g>
<g filter="url(#filter2_d_13_1531)">
<path d="M130.225 137.602C135.407 136.74 138.909 131.841 138.047 126.658C137.185 121.476 132.285 117.974 127.103 118.836C121.921 119.698 118.419 124.598 119.281 129.78C120.143 134.962 125.042 138.464 130.225 137.602Z" fill="#F0B50F"/>
</g>
<path d="M124.499 126.907L128.104 127.462L128.66 123.857L129.985 124.061L129.429 127.666L133.034 128.221L132.83 129.546L129.225 128.991L128.67 132.596L127.345 132.392L127.9 128.787L124.295 128.232L124.499 126.907Z" fill="url(#paint19_linear_13_1531)"/>
<path d="M29.1095 74.0378C32.1658 73.8265 34.4722 71.1775 34.2609 68.1212C34.0496 65.0649 31.4006 62.7586 28.3443 62.9699C25.288 63.1812 22.9817 65.8302 23.193 68.8865C23.4043 71.9427 26.0533 74.2491 29.1095 74.0378Z" fill="url(#paint20_linear_13_1531)"/>
<path d="M26.1779 68.4978L28.2783 68.1727L27.9532 66.0722L28.7253 65.9526L29.0505 68.0531L31.1506 67.7279L31.2701 68.5001L29.1697 68.8253L29.4949 70.9257L28.7227 71.0453L28.3975 68.9449L26.2971 69.27L26.1779 68.4978Z" fill="white"/>
<g filter="url(#filter3_d_13_1531)">
<path d="M62.0457 39.7323C63.1634 35.2707 60.4526 30.7478 55.991 29.6301C51.5294 28.5124 47.0065 31.2231 45.8888 35.6847C44.7711 40.1463 47.4818 44.6693 51.9434 45.787C56.405 46.9047 60.928 44.1939 62.0457 39.7323Z" fill="#F0B50F"/>
</g>
<path d="M50.241 36.8732L53.426 37.0878L53.6406 33.9033L54.8118 33.9821L54.5971 37.167L57.782 37.3816L57.7033 38.5527L54.5184 38.3381L54.3038 41.523L53.133 41.4439L53.3476 38.259L50.1627 38.0444L50.241 36.8732Z" fill="white"/>
<defs>
<filter id="filter0_d_13_1531" x="66.926" y="32.2275" width="38.7331" height="26.5004" filterUnits="userSpaceOnUse" color-interpolation-filters="sRGB">
<feFlood flood-opacity="0" result="BackgroundImageFix"/>
<feColorMatrix in="SourceAlpha" type="matrix" values="0 0 0 0 0 0 0 0 0 0 0 0 0 0 0 0 0 0 127 0" result="hardAlpha"/>
<feOffset dy="3.16307"/>
<feGaussianBlur stdDeviation="1.58153"/>
<feComposite in2="hardAlpha" operator="out"/>
<feColorMatrix type="matrix" values="0 0 0 0 0 0 0 0 0 0 0 0 0 0 0 0 0 0 0.11 0"/>
<feBlend mode="normal" in2="BackgroundImageFix" result="effect1_dropShadow_13_1531"/>
<feBlend mode="normal" in="SourceGraphic" in2="effect1_dropShadow_13_1531" result="shape"/>
</filter>
<filter id="filter1_d_13_1531" x="64.7206" y="35.5737" width="28.9456" height="32.3916" filterUnits="userSpaceOnUse" color-interpolation-filters="sRGB">
<feFlood flood-opacity="0" result="BackgroundImageFix"/>
<feColorMatrix in="SourceAlpha" type="matrix" values="0 0 0 0 0 0 0 0 0 0 0 0 0 0 0 0 0 0 127 0" result="hardAlpha"/>
<feOffset dy="3.16307"/>
<feGaussianBlur stdDeviation="1.58153"/>
<feComposite in2="hardAlpha" operator="out"/>
<feColorMatrix type="matrix" values="0 0 0 0 0 0 0 0 0 0 0 0 0 0 0 0 0 0 0.11 0"/>
<feBlend mode="normal" in2="BackgroundImageFix" result="effect1_dropShadow_13_1531"/>
<feBlend mode="normal" in="SourceGraphic" in2="effect1_dropShadow_13_1531" result="shape"/>
</filter>
<filter id="filter2_d_13_1531" x="115.987" y="118.706" width="25.3532" height="25.3535" filterUnits="userSpaceOnUse" color-interpolation-filters="sRGB">
<feFlood flood-opacity="0" result="BackgroundImageFix"/>
<feColorMatrix in="SourceAlpha" type="matrix" values="0 0 0 0 0 0 0 0 0 0 0 0 0 0 0 0 0 0 127 0" result="hardAlpha"/>
<feOffset dy="3.16307"/>
<feGaussianBlur stdDeviation="1.58153"/>
<feComposite in2="hardAlpha" operator="out"/>
<feColorMatrix type="matrix" values="0 0 0 0 0 0 0 0 0 0 0 0 0 0 0 0 0 0 0.11 0"/>
<feBlend mode="normal" in2="BackgroundImageFix" result="effect1_dropShadow_13_1531"/>
<feBlend mode="normal" in="SourceGraphic" in2="effect1_dropShadow_13_1531" result="shape"/>
</filter>
<filter id="filter3_d_13_1531" x="42.4741" y="29.3784" width="22.9862" height="22.9863" filterUnits="userSpaceOnUse" color-interpolation-filters="sRGB">
<feFlood flood-opacity="0" result="BackgroundImageFix"/>
<feColorMatrix in="SourceAlpha" type="matrix" values="0 0 0 0 0 0 0 0 0 0 0 0 0 0 0 0 0 0 127 0" result="hardAlpha"/>
<feOffset dy="3.16307"/>
<feGaussianBlur stdDeviation="1.58153"/>
<feComposite in2="hardAlpha" operator="out"/>
<feColorMatrix type="matrix" values="0 0 0 0 0 0 0 0 0 0 0 0 0 0 0 0 0 0 0.11 0"/>
<feBlend mode="normal" in2="BackgroundImageFix" result="effect1_dropShadow_13_1531"/>
<feBlend mode="normal" in="SourceGraphic" in2="effect1_dropShadow_13_1531" result="shape"/>
</filter>
<linearGradient id="paint0_linear_13_1531" x1="121.598" y1="-40.7408" x2="137.729" y2="-56.872" gradientUnits="userSpaceOnUse">
<stop stop-color="#DD902F" stop-opacity="0"/>
<stop offset="1" stop-color="#DC8F30"/>
</linearGradient>
<linearGradient id="paint1_linear_13_1531" x1="154.7" y1="27.7236" x2="149.687" y2="27.7236" gradientUnits="userSpaceOnUse">
<stop stop-color="#233838"/>
<stop offset="1" stop-color="#2A4647"/>
</linearGradient>
<linearGradient id="paint2_linear_13_1531" x1="64.102" y1="19.0258" x2="61.1683" y2="2.70388" gradientUnits="userSpaceOnUse">
<stop stop-color="#163179"/>
<stop offset="0.209" stop-color="#15347B"/>
<stop offset="0.387" stop-color="#153E84"/>
<stop offset="0.553" stop-color="#145092"/>
<stop offset="0.712" stop-color="#1469A6"/>
<stop offset="0.864" stop-color="#1388C0"/>
<stop offset="0.995" stop-color="#AADEEF"/>
</linearGradient>
<linearGradient id="paint3_linear_13_1531" x1="173.891" y1="3.26465" x2="175.55" y2="3.26465" gradientUnits="userSpaceOnUse">
<stop offset="0.396" stop-color="#E2AD32"/>
<stop offset="1" stop-color="#DC8F30"/>
</linearGradient>
<linearGradient id="paint4_linear_13_1531" x1="148.259" y1="5.94126" x2="148.259" y2="6.75714" gradientUnits="userSpaceOnUse">
<stop stop-color="#78B3FB"/>
<stop offset="1" stop-color="#5081C0"/>
</linearGradient>
<linearGradient id="paint5_linear_13_1531" x1="176.445" y1="106.491" x2="167.531" y2="139.737" gradientUnits="userSpaceOnUse">
<stop stop-color="#DD902F" stop-opacity="0"/>
<stop offset="1" stop-color="#A5BDE0"/>
</linearGradient>
<linearGradient id="paint6_linear_13_1531" x1="-336.711" y1="127.769" x2="-336.711" y2="57.8814" gradientUnits="userSpaceOnUse">
<stop stop-color="#DD902F" stop-opacity="0"/>
<stop offset="1" stop-color="#DC8F30"/>
</linearGradient>
<linearGradient id="paint7_linear_13_1531" x1="-193.13" y1="326.642" x2="-200.516" y2="329.979" gradientUnits="userSpaceOnUse">
<stop stop-color="#EFD6D4"/>
<stop offset="0.728" stop-color="#D7C1B9"/>
</linearGradient>
<linearGradient id="paint8_linear_13_1531" x1="106.093" y1="120.703" x2="111.199" y2="120.703" gradientUnits="userSpaceOnUse">
<stop stop-color="#EFD6D4"/>
<stop offset="0.728" stop-color="#D7C1B9"/>
</linearGradient>
<linearGradient id="paint9_linear_13_1531" x1="98.096" y1="123.727" x2="111.559" y2="123.727" gradientUnits="userSpaceOnUse">
<stop stop-color="#2A4647"/>
<stop offset="1" stop-color="#233838"/>
</linearGradient>
<linearGradient id="paint10_linear_13_1531" x1="139.519" y1="34.8324" x2="144.802" y2="34.8324" gradientUnits="userSpaceOnUse">
<stop stop-color="#EFD6D4"/>
<stop offset="0.728" stop-color="#D7C1B9"/>
</linearGradient>
<linearGradient id="paint11_linear_13_1531" x1="131.405" y1="61.1107" x2="144.871" y2="61.1107" gradientUnits="userSpaceOnUse">
<stop stop-color="#2A4647"/>
<stop offset="1" stop-color="#233838"/>
</linearGradient>
<linearGradient id="paint12_linear_13_1531" x1="73.8016" y1="122.887" x2="43.907" y2="109.322" gradientUnits="userSpaceOnUse">
<stop stop-color="#163179"/>
<stop offset="0.209" stop-color="#15347B"/>
<stop offset="0.387" stop-color="#153E84"/>
<stop offset="0.553" stop-color="#145092"/>
<stop offset="0.712" stop-color="#1469A6"/>
<stop offset="0.864" stop-color="#1388C0"/>
<stop offset="0.995" stop-color="#AADEEF"/>
</linearGradient>
<linearGradient id="paint13_linear_13_1531" x1="81.7605" y1="122.892" x2="45.719" y2="99.9047" gradientUnits="userSpaceOnUse">
<stop stop-color="#163179"/>
<stop offset="0.209" stop-color="#15347B"/>
<stop offset="0.387" stop-color="#153E84"/>
<stop offset="0.553" stop-color="#145092"/>
<stop offset="0.712" stop-color="#1469A6"/>
<stop offset="0.864" stop-color="#1388C0"/>
<stop offset="0.995" stop-color="#AADEEF"/>
</linearGradient>
<linearGradient id="paint14_linear_13_1531" x1="118.009" y1="48.5908" x2="116.533" y2="28.774" gradientUnits="userSpaceOnUse">
<stop offset="0.396" stop-color="#E2AD32"/>
<stop offset="1" stop-color="#DC8F30"/>
</linearGradient>
<linearGradient id="paint15_linear_13_1531" x1="-470.461" y1="67.0638" x2="-471.686" y2="50.1657" gradientUnits="userSpaceOnUse">
<stop offset="0.455" stop-color="#DD902F" stop-opacity="0"/>
<stop offset="1" stop-color="#DC8F30"/>
</linearGradient>
<linearGradient id="paint16_linear_13_1531" x1="106.912" y1="26.9194" x2="116.641" y2="26.9194" gradientUnits="userSpaceOnUse">
<stop stop-color="#EFD6D4"/>
<stop offset="0.728" stop-color="#D7C1B9"/>
</linearGradient>
<linearGradient id="paint17_linear_13_1531" x1="114.913" y1="36.8165" x2="114.451" y2="28.1617" gradientUnits="userSpaceOnUse">
<stop offset="0.643" stop-color="#E2AD32"/>
<stop offset="1" stop-color="#DC8F30"/>
</linearGradient>
<linearGradient id="paint18_linear_13_1531" x1="-425.022" y1="167.214" x2="-426.316" y2="173.025" gradientUnits="userSpaceOnUse">
<stop stop-color="#EFD6D4"/>
<stop offset="0.728" stop-color="#D7C1B9"/>
</linearGradient>
<linearGradient id="paint19_linear_13_1531" x1="25.8505" y1="165.009" x2="34.4846" y2="165.009" gradientUnits="userSpaceOnUse">
<stop stop-color="#4B786C"/>
<stop offset="1" stop-color="#284646"/>
</linearGradient>
<linearGradient id="paint20_linear_13_1531" x1="172.786" y1="58.5439" x2="183.854" y2="57.7787" gradientUnits="userSpaceOnUse">
<stop offset="0.253" stop-color="#E2AD32"/>
<stop offset="1" stop-color="#DC8F30"/>
</linearGradient>
</defs>
</svg>
