<svg width="1069" height="922" viewBox="0 0 1069 922" fill="none" xmlns="http://www.w3.org/2000/svg">
<g clip-path="url(#clip0)">
<path d="M908.377 251.32H457.039V77.1343L463.361 71.9102L908.377 77.133L914.699 246.095L908.377 251.32Z" fill="url(#paint0_linear)"/>
<path d="M914.693 71.9102H463.355V246.096H914.693V71.9102Z" fill="url(#paint1_linear)"/>
<path d="M914.695 71.9102L589.852 246.097H914.695V71.9102Z" fill="url(#paint2_linear)"/>
<path d="M905.536 240.953H472.506C472.414 240.953 472.323 240.936 472.238 240.903C472.153 240.869 472.075 240.821 472.01 240.76C471.945 240.699 471.893 240.626 471.858 240.546C471.823 240.466 471.805 240.38 471.805 240.294V77.7137C471.805 77.6271 471.823 77.5414 471.858 77.4615C471.893 77.3815 471.945 77.3088 472.01 77.2476C472.075 77.1864 472.153 77.1379 472.238 77.1048C472.323 77.0717 472.414 77.0547 472.506 77.0547H905.536C905.722 77.0547 905.901 77.1241 906.032 77.2477C906.164 77.3713 906.238 77.5389 906.238 77.7137V240.294C906.238 240.469 906.164 240.636 906.032 240.76C905.9 240.883 905.722 240.953 905.536 240.953ZM473.208 239.635H904.834V78.3717H473.208V239.635Z" fill="white"/>
<path d="M545.86 287.9C546.51 280.484 555.95 254.686 554.843 245.486C553.777 236.624 553.104 234.974 549.918 235.503C547.619 235.884 545.125 253.044 542.484 251.351H513.001C512.562 257.627 512.374 265.037 512.579 273.77C513.243 302.118 513.615 319.516 514.631 319.127C515.647 318.738 553.089 313.438 553.089 313.438C553.089 313.438 545.211 295.316 545.86 287.9Z" fill="#FD8B66"/>
<path d="M842.113 251.351C839.473 253.045 836.978 235.884 834.68 235.503C831.494 234.974 830.82 236.624 829.754 245.486C828.647 254.686 838.087 280.484 838.737 287.9C839.387 295.316 831.51 313.437 831.51 313.437C831.51 313.437 868.95 318.739 869.967 319.127C870.984 319.516 871.357 302.118 872.02 273.77C872.224 265.037 872.037 257.627 871.597 251.351H842.113Z" fill="#FD8B66"/>
<path d="M831.039 295.697L877.883 305.743C880.884 329.105 869.97 433.249 858.05 439.64C807.86 466.548 725.034 422.011 725.034 422.011L719.066 373.481C719.066 373.481 737.002 363.169 768.027 370.401C793.914 376.436 821.214 385.092 821.214 385.092L831.039 295.697Z" fill="url(#paint3_linear)"/>
<path d="M792.785 885.648L791.632 879.15H723.824L725.72 889.787C725.72 889.787 736.898 914.178 738.095 913.97C739.293 913.762 794.781 910.763 794.781 910.763L792.785 885.648Z" fill="#FD8B66"/>
<path d="M744.322 506.691C744.322 506.691 755.985 528.682 756.288 548.281C756.417 556.626 762.844 617.838 770.182 685.388C780.08 776.503 791.636 879.15 791.636 879.15H715.794L698.003 715.156L671.545 534.825C671.545 520.55 629.474 510.553 642.425 506.689L744.322 506.691Z" fill="url(#paint4_linear)"/>
<path d="M731.311 923.336H850.271C845.181 913.972 842.521 906.39 812.447 900.393L792.787 885.648C792.787 885.648 782.124 897.277 764.527 899.222C738.096 902.142 725.723 889.788 725.723 889.788L731.311 923.336Z" fill="url(#paint5_linear)"/>
<path d="M589.988 885.648L591.14 879.15H659.441L657.053 889.787C657.053 889.787 645.876 914.178 644.68 913.97C643.484 913.762 587.994 910.763 587.994 910.763L589.988 885.648Z" fill="#FD8B66"/>
<path d="M728.3 506.691L687.348 710.441L664.471 879.152H589.852C589.852 879.152 618.81 538.763 623.808 506.691H728.3Z" fill="url(#paint6_linear)"/>
<path d="M652.35 923.334L547.748 924.183C547.748 924.183 547.551 906.825 578.676 898.47L589.99 885.646C589.99 885.646 600.654 897.275 618.25 899.22C644.681 902.14 657.055 889.786 657.055 889.786L655.162 903.286L652.35 923.334Z" fill="url(#paint7_linear)"/>
<path d="M718.349 330.419C717.155 334.034 714.168 336.377 711.677 335.652C709.186 334.926 708.135 331.407 709.328 327.792C710.522 324.176 713.51 321.834 716.001 322.56C718.492 323.285 719.543 326.805 718.349 330.419Z" fill="#FD8B66"/>
<path d="M752.824 517.863C753.167 522.631 753.339 525.015 752.517 526.851C751.794 528.465 750.558 529.794 749 530.631C747.227 531.583 744.837 531.583 740.057 531.583H635.242C630.276 531.583 627.793 531.583 625.986 530.582C624.398 529.703 623.156 528.311 622.464 526.633C621.676 524.723 621.96 522.256 622.526 517.323L634.46 413.383C634.46 386.954 657.277 365.529 685.422 365.529H696.717C724.862 365.529 747.678 386.954 747.678 413.383L748.916 463.623L752.824 517.863Z" fill="#F0B50F"/>
<path d="M681.607 344.48C681.866 350.951 680.996 361.667 676.642 366.291C674.706 370.225 685.601 380.993 697.988 385.094C706.46 379.196 706.513 368.987 705.121 365.982C705.121 365.982 698.219 353.12 699.322 344.48H681.607Z" fill="#FD8B66"/>
<path d="M712.005 317.077L713.956 342.983C713.956 342.983 711.213 352.114 703.818 352.918C694.298 353.952 683.721 353.815 681.646 346.897C680.575 343.218 680.025 339.422 680.013 335.607C675.169 336.283 668.045 332.339 671.57 325.157C674.635 318.91 679.676 325.542 679.676 325.542L679.344 314.397C683.104 309.587 706.326 300.045 712.005 317.077Z" fill="#FD8B66"/>
<path d="M681.146 320.872C681.146 320.872 685.658 319.569 687.132 313.306C687.132 313.306 723.46 325.541 733.507 302.427C722.082 291.698 717.945 283.929 704.746 285.8C693.343 287.417 682.289 293.363 682.289 293.363C682.289 293.363 677.635 290.681 671.653 297.803C667.122 305.942 670.631 311.676 676.658 320.254C678.603 323.024 678.763 325.686 680.041 329.103L681.146 320.872Z" fill="#251138"/>
<path d="M711.627 312.265C703.317 312.265 695.942 309.002 689.942 303.83C688.178 302.296 686.663 300.528 685.445 298.582C683.891 301.974 681.687 305.07 678.943 307.715C676.828 309.679 674.416 311.339 671.783 312.64C673.019 314.999 674.703 317.477 676.654 320.254C678.6 323.024 678.759 325.686 680.037 329.103L681.145 320.872C681.145 320.872 685.657 319.569 687.131 313.306C687.131 313.306 721.05 324.727 732.401 304.642C726.87 309.381 719.073 312.265 711.627 312.265Z" fill="#251138" fill-opacity="0.21"/>
<path d="M678.924 333.28C678.823 333.28 678.723 333.26 678.631 333.22C678.539 333.18 678.457 333.123 678.391 333.05L673.517 327.727C673.457 327.662 673.411 327.586 673.383 327.503C673.354 327.421 673.343 327.334 673.35 327.248C673.357 327.162 673.382 327.078 673.423 327C673.465 326.923 673.522 326.854 673.592 326.798C673.662 326.742 673.743 326.699 673.83 326.672C673.918 326.645 674.01 326.634 674.102 326.641C674.194 326.647 674.284 326.67 674.366 326.71C674.448 326.749 674.522 326.802 674.582 326.868L679.456 332.191C679.543 332.287 679.599 332.404 679.618 332.529C679.637 332.654 679.617 332.781 679.561 332.895C679.505 333.01 679.415 333.107 679.302 333.175C679.189 333.243 679.058 333.28 678.924 333.28Z" fill="#DD4B9B"/>
<path d="M676.418 365.529L697.989 385.093L689.943 394.178L667.418 368.603L676.418 365.529Z" fill="white"/>
<path d="M697.99 385.093L708.094 392.698L714.858 368.651L705.123 365.98L697.99 385.093Z" fill="white"/>
<path d="M711.63 319.899C698.059 319.899 686.599 312.537 686.465 312.45C686.312 312.351 686.208 312.198 686.175 312.026C686.142 311.854 686.183 311.676 686.29 311.533C686.396 311.389 686.559 311.291 686.742 311.26C686.925 311.229 687.114 311.268 687.267 311.368C687.418 311.466 702.517 321.153 718.274 317.924C718.365 317.905 718.459 317.902 718.55 317.916C718.642 317.931 718.73 317.962 718.809 318.009C718.887 318.056 718.955 318.117 719.009 318.188C719.062 318.26 719.1 318.34 719.12 318.426C719.139 318.511 719.141 318.599 719.124 318.685C719.107 318.771 719.072 318.853 719.022 318.926C718.971 319 718.905 319.063 718.828 319.112C718.751 319.161 718.664 319.195 718.573 319.212C716.291 319.674 713.964 319.904 711.63 319.899Z" fill="#993F00"/>
<path d="M682.288 294.024C682.15 294.024 682.016 293.986 681.901 293.915C681.787 293.844 681.697 293.743 681.642 293.625C681.589 293.514 680.409 291.101 676.465 291.34C676.372 291.347 676.279 291.337 676.19 291.31C676.101 291.283 676.019 291.239 675.949 291.182C675.878 291.125 675.82 291.055 675.779 290.977C675.737 290.898 675.713 290.813 675.707 290.726C675.7 290.638 675.713 290.551 675.743 290.468C675.774 290.385 675.821 290.309 675.884 290.244C675.946 290.178 676.021 290.125 676.105 290.088C676.189 290.05 676.281 290.029 676.374 290.025C681.362 289.716 682.871 292.97 682.934 293.108C682.979 293.208 682.997 293.317 682.986 293.425C682.975 293.534 682.936 293.638 682.872 293.728C682.808 293.819 682.721 293.893 682.619 293.945C682.517 293.996 682.403 294.023 682.288 294.024Z" fill="#B55100"/>
<path d="M697.177 354.162C683.928 354.162 681.115 347.435 680.994 347.128C680.932 346.965 680.941 346.786 681.019 346.629C681.096 346.472 681.237 346.35 681.41 346.29C681.582 346.229 681.773 346.235 681.942 346.306C682.11 346.376 682.242 346.506 682.309 346.667C682.427 346.959 685.379 353.786 700.155 352.734C700.247 352.728 700.339 352.738 700.427 352.765C700.514 352.792 700.595 352.835 700.665 352.891C700.735 352.948 700.793 353.017 700.834 353.094C700.876 353.171 700.901 353.255 700.908 353.341C700.915 353.428 700.904 353.514 700.875 353.597C700.847 353.679 700.801 353.755 700.741 353.821C700.681 353.886 700.608 353.94 700.526 353.979C700.443 354.018 700.354 354.042 700.262 354.048C699.176 354.126 698.147 354.164 697.177 354.162Z" fill="#DD4B9B"/>
<path d="M553.558 295.697L506.714 305.743C503.713 329.105 515.654 431.797 526.547 439.64C553.506 459.053 614.227 444.844 643.038 426.59C670.627 409.11 659.837 371.989 659.837 371.989C659.837 371.989 647.595 363.17 616.57 370.403C590.683 376.437 563.382 385.094 563.382 385.094L553.558 295.697Z" fill="url(#paint8_linear)"/>
<path d="M689.947 394.177L696.818 403.073H704.304L708.096 392.697L697.993 385.092L689.947 394.177Z" fill="url(#paint9_linear)"/>
<path d="M696.812 403.074L689.023 473.902L702.168 503.449L713.396 474.508L704.298 403.074L696.812 403.074Z" fill="url(#paint10_linear)"/>
<path d="M753.813 522.144H621.604C621.418 522.144 621.239 522.075 621.108 521.951C620.976 521.828 620.902 521.66 620.902 521.485C620.902 521.31 620.976 521.143 621.108 521.019C621.239 520.896 621.418 520.826 621.604 520.826H753.813C753.999 520.826 754.177 520.896 754.309 521.019C754.441 521.143 754.514 521.31 754.514 521.485C754.514 521.66 754.441 521.828 754.309 521.951C754.177 522.075 753.999 522.144 753.813 522.144Z" fill="white"/>
<path d="M709.062 532.242H686.014C685.828 532.242 685.65 532.172 685.518 532.049C685.387 531.925 685.313 531.758 685.312 531.583V521.485C685.312 521.399 685.331 521.313 685.366 521.233C685.401 521.153 685.453 521.08 685.518 521.019C685.583 520.958 685.661 520.909 685.746 520.876C685.831 520.843 685.922 520.826 686.014 520.826H709.062C709.155 520.826 709.246 520.843 709.331 520.876C709.416 520.909 709.494 520.958 709.559 521.019C709.624 521.08 709.676 521.153 709.711 521.233C709.746 521.313 709.764 521.399 709.764 521.485V531.583C709.764 531.758 709.69 531.925 709.558 532.049C709.427 532.172 709.249 532.242 709.062 532.242ZM686.716 530.924H708.361V522.144H686.716V530.924Z" fill="white"/>
<path d="M693.106 682.897C693.045 682.897 692.983 682.892 692.922 682.883C692.616 682.837 692.341 682.679 692.159 682.444C691.977 682.208 691.901 681.914 691.95 681.626L707.911 587.104C707.955 586.846 708.095 586.611 708.307 586.441C708.518 586.271 708.788 586.178 709.066 586.178H719.069C719.379 586.178 719.676 586.293 719.896 586.499C720.115 586.705 720.238 586.985 720.238 587.276C720.238 587.567 720.115 587.847 719.896 588.053C719.676 588.259 719.379 588.374 719.069 588.374H710.065L694.26 681.97C694.216 682.228 694.076 682.463 693.865 682.633C693.654 682.803 693.385 682.896 693.106 682.897Z" fill="#080867"/>
<path d="M620.885 879.809C620.862 879.809 620.838 879.809 620.815 879.806C620.63 879.789 620.46 879.704 620.342 879.569C620.223 879.434 620.167 879.26 620.185 879.086L656.35 531.517C656.368 531.343 656.459 531.183 656.603 531.072C656.746 530.961 656.931 530.908 657.117 530.925C657.302 530.942 657.472 531.027 657.591 531.162C657.709 531.297 657.765 531.471 657.747 531.645L621.582 879.214C621.565 879.377 621.484 879.528 621.356 879.638C621.227 879.748 621.059 879.809 620.885 879.809Z" fill="white"/>
<path d="M759.299 879.809C759.135 879.809 758.977 879.755 758.851 879.657C758.725 879.558 758.64 879.422 758.61 879.27L705.393 609.839C705.375 609.753 705.374 609.665 705.392 609.579C705.41 609.493 705.446 609.411 705.498 609.338C705.551 609.265 705.617 609.203 705.696 609.155C705.774 609.107 705.861 609.074 705.953 609.058C706.045 609.042 706.139 609.043 706.23 609.062C706.321 609.081 706.408 609.116 706.484 609.167C706.56 609.217 706.625 609.281 706.675 609.355C706.725 609.43 706.758 609.512 706.773 609.599L759.99 879.03C760.007 879.115 760.006 879.203 759.987 879.287C759.968 879.372 759.931 879.452 759.879 879.523C759.827 879.595 759.76 879.656 759.683 879.703C759.606 879.75 759.519 879.782 759.429 879.798C759.386 879.806 759.343 879.809 759.299 879.809Z" fill="url(#paint11_linear)"/>
<path d="M654.97 552.244C654.794 552.243 654.624 552.181 654.495 552.068C654.365 551.956 654.286 551.802 654.272 551.637C654.258 551.472 654.31 551.308 654.419 551.178C654.528 551.048 654.685 550.961 654.859 550.934C671.413 548.423 670.189 532.321 670.129 531.636C670.116 531.463 670.177 531.293 670.297 531.161C670.417 531.03 670.587 530.948 670.771 530.934C670.954 530.919 671.137 530.973 671.278 531.084C671.42 531.195 671.51 531.353 671.528 531.526C671.544 531.705 672.93 549.527 655.083 552.234C655.046 552.24 655.008 552.243 654.97 552.244Z" fill="white"/>
<path d="M756.455 552.242C756.436 552.243 756.418 552.242 756.4 552.24C742.459 551.231 741.466 531.804 741.458 531.608C741.45 531.433 741.517 531.263 741.643 531.134C741.769 531.006 741.945 530.929 742.131 530.922C742.317 530.915 742.498 530.978 742.635 531.096C742.772 531.215 742.853 531.38 742.86 531.554C742.868 531.739 743.809 550.007 756.508 550.928C756.689 550.94 756.858 551.018 756.98 551.146C757.101 551.273 757.165 551.439 757.158 551.61C757.151 551.781 757.074 551.942 756.943 552.06C756.811 552.178 756.636 552.244 756.455 552.244L756.455 552.242Z" fill="white"/>
<path d="M498.273 131.01H512.117L523.444 152.431L528.321 163.215H528.636C528.007 158.046 526.906 150.806 526.906 144.896V131.01H539.806V179.021H525.963L514.635 157.526L509.758 146.816H509.443C510.073 152.282 511.174 159.225 511.174 165.135V179.022H498.273V131.01Z" fill="#FFF7EE"/>
<path d="M551.131 131.01H584.169V141.645H564.66V149.179H581.337V159.816H564.66V168.384H584.956V179.021H551.131V131.01Z" fill="#FFF7EE"/>
<path d="M594.865 131.01H627.904V141.645H608.394V149.179H625.071V159.816H608.394V168.384H628.689V179.021H594.865V131.01Z" fill="#FFF7EE"/>
<path d="M638.607 131.01H653.711C669.286 131.01 679.984 137.806 679.984 154.795C679.984 171.784 669.286 179.023 654.497 179.023H638.607V131.01ZM652.924 168.828C660.318 168.828 666.14 166.021 666.14 154.794C666.14 143.566 660.318 141.202 652.924 141.202H652.137V168.828H652.924Z" fill="#FFF7EE"/>
<path d="M699.961 170.822L709.086 164.396C710.816 167.498 713.334 168.976 715.536 168.976C719.154 168.976 721.2 167.351 721.2 161.294V131.01H734.73V162.329C734.73 171.931 729.224 179.909 717.424 179.909C709.086 179.908 703.736 176.953 699.961 170.822Z" fill="#FFF7EE"/>
<path d="M743.537 154.792C743.537 138.985 753.134 130.121 767.293 130.121C781.452 130.121 791.049 139.059 791.049 154.792C791.049 170.6 781.452 179.907 767.293 179.907C753.133 179.907 743.537 170.6 743.537 154.792ZM777.204 154.792C777.204 146.076 773.429 141.053 767.293 141.053C761.157 141.053 757.381 146.076 757.381 154.792C757.381 163.509 761.157 168.975 767.293 168.975C773.429 168.975 777.204 163.509 777.204 154.792Z" fill="#FFF7EE"/>
<path d="M800.172 131.01H818.579C829.277 131.01 837.93 133.521 837.93 142.976C837.93 147.112 835.413 151.84 831.48 153.317V153.613C836.356 154.943 840.29 158.488 840.29 164.84C840.29 174.738 831.165 179.023 820.152 179.023H800.172V131.01ZM818.265 149.772C822.67 149.772 824.715 147.851 824.715 144.897C824.715 141.942 822.67 140.76 818.265 140.76H813.702V149.772H818.265ZM819.209 169.272C824.558 169.272 827.075 167.5 827.075 163.954C827.075 160.408 824.558 159.079 819.209 159.079H813.703V169.272H819.209Z" fill="#FFF7EE"/>
<path d="M843.6 173.04L851.309 164.324C854.927 167.057 859.489 168.977 863.265 168.977C867.356 168.977 869.086 167.723 869.086 165.58C869.086 163.29 866.491 162.551 862.165 160.926L855.793 158.416C850.287 156.347 845.488 151.989 845.488 145.046C845.488 136.847 853.354 130.125 864.524 130.125C870.345 130.125 876.796 132.193 881.515 136.551L874.75 144.529C871.289 142.239 868.3 141.057 864.524 141.057C861.22 141.057 859.175 142.165 859.175 144.307C859.175 146.597 862.086 147.41 866.727 149.109L872.941 151.398C879.313 153.762 882.931 157.898 882.931 164.547C882.931 172.672 875.694 179.911 862.951 179.911C856.5 179.91 849.106 177.694 843.6 173.04Z" fill="#FFF7EE"/>
<path d="M542.489 252.011H542.479L524.693 251.767C524.601 251.767 524.51 251.749 524.425 251.715C524.34 251.682 524.263 251.633 524.198 251.571C524.133 251.509 524.082 251.436 524.048 251.356C524.013 251.276 523.995 251.19 523.996 251.104C523.997 251.017 524.016 250.931 524.051 250.852C524.087 250.772 524.14 250.7 524.205 250.639C524.271 250.578 524.349 250.53 524.434 250.498C524.519 250.465 524.611 250.449 524.703 250.449H524.713L542.499 250.692C542.686 250.694 542.864 250.764 542.994 250.889C543.125 251.013 543.198 251.181 543.196 251.356C543.195 251.531 543.12 251.698 542.987 251.821C542.854 251.944 542.675 252.012 542.489 252.011Z" fill="#DD4B9B"/>
<path d="M868.503 252.009H842.116C841.93 252.009 841.751 251.94 841.62 251.816C841.488 251.693 841.414 251.525 841.414 251.35C841.414 251.176 841.488 251.008 841.62 250.884C841.751 250.761 841.93 250.691 842.116 250.691H868.503C868.689 250.691 868.868 250.761 868.999 250.884C869.131 251.008 869.205 251.176 869.205 251.35C869.205 251.525 869.131 251.693 868.999 251.816C868.868 251.94 868.689 252.009 868.503 252.009Z" fill="#DD4B9B"/>
<path d="M506.249 317.527C506.075 317.528 505.907 317.467 505.777 317.358C505.648 317.249 505.566 317.098 505.549 316.936C505.531 316.773 505.578 316.61 505.681 316.478C505.784 316.347 505.935 316.255 506.105 316.222L554.692 306.668C554.874 306.632 555.064 306.666 555.219 306.762C555.375 306.857 555.484 307.007 555.522 307.178C555.561 307.349 555.525 307.528 555.423 307.674C555.321 307.82 555.162 307.923 554.979 307.958L506.393 317.513C506.346 317.522 506.297 317.527 506.249 317.527Z" fill="white"/>
<path d="M551.588 389.692C551.308 389.692 551.038 389.598 550.826 389.427C550.614 389.256 550.474 389.02 550.432 388.761C550.389 388.501 550.447 388.236 550.594 388.014C550.742 387.791 550.969 387.625 551.236 387.546L563.028 384.046C563.323 383.961 563.641 383.989 563.914 384.124C564.187 384.259 564.392 384.489 564.485 384.765C564.578 385.041 564.551 385.341 564.41 385.598C564.27 385.856 564.026 386.051 563.733 386.141L551.941 389.641C551.827 389.674 551.708 389.692 551.588 389.692Z" fill="#080867"/>
<path d="M834.369 389.692C834.26 389.692 834.152 389.678 834.048 389.651L820.895 386.151C820.745 386.113 820.606 386.047 820.483 385.958C820.361 385.869 820.259 385.758 820.183 385.632C820.107 385.505 820.058 385.366 820.04 385.221C820.021 385.077 820.033 384.931 820.076 384.791C820.118 384.651 820.189 384.521 820.285 384.407C820.382 384.293 820.501 384.199 820.636 384.129C820.772 384.059 820.921 384.014 821.075 383.999C821.228 383.983 821.384 383.996 821.532 384.037L834.686 387.537C834.957 387.61 835.192 387.772 835.346 387.994C835.501 388.216 835.564 388.482 835.525 388.745C835.487 389.008 835.348 389.248 835.135 389.422C834.922 389.596 834.649 389.692 834.367 389.692H834.369Z" fill="#080867"/>
<path d="M878.368 319.791C878.313 319.791 878.258 319.785 878.205 319.773L829.496 308.876C829.406 308.856 829.322 308.82 829.247 308.769C829.173 308.718 829.109 308.654 829.061 308.58C829.013 308.507 828.98 308.425 828.966 308.339C828.951 308.254 828.955 308.167 828.976 308.082C828.998 307.998 829.036 307.919 829.09 307.849C829.144 307.779 829.213 307.719 829.291 307.674C829.37 307.628 829.457 307.598 829.548 307.584C829.639 307.571 829.732 307.574 829.822 307.594L878.53 318.491C878.697 318.529 878.844 318.623 878.942 318.755C879.041 318.887 879.084 319.049 879.064 319.209C879.044 319.369 878.962 319.517 878.834 319.624C878.706 319.732 878.54 319.791 878.368 319.791Z" fill="white"/>
<path d="M704.3 404.173H696.814C696.659 404.175 696.505 404.149 696.361 404.094C696.217 404.04 696.086 403.96 695.976 403.858C695.865 403.755 695.778 403.633 695.718 403.499C695.658 403.365 695.627 403.221 695.627 403.075C695.627 402.929 695.658 402.785 695.718 402.651C695.778 402.516 695.865 402.395 695.976 402.292C696.086 402.19 696.217 402.11 696.361 402.055C696.505 402.001 696.659 401.974 696.814 401.977H704.3C704.607 401.981 704.9 402.099 705.116 402.304C705.331 402.51 705.452 402.787 705.452 403.075C705.452 403.363 705.331 403.64 705.116 403.846C704.9 404.051 704.607 404.169 704.3 404.173Z" fill="#080867"/>
<path d="M259.375 580.098C259.375 580.098 258.788 599.245 256.571 606.39C251.528 622.64 235.794 637.069 237.05 641.459C242.928 642.042 244.755 636.551 247.689 637.749C250.118 638.74 247.753 647.413 244.947 650.888C237.06 660.655 240.154 663.908 244.207 662.672C248.26 661.435 250.886 658.498 250.886 658.498C250.886 658.498 251.591 663.344 258.392 658.958C258.392 658.958 261.934 661.826 267.107 656.49C272.281 651.154 272.431 657.367 282.431 630.612C292.431 603.858 298.601 587.448 297.504 587.477C296.407 587.505 259.375 580.098 259.375 580.098Z" fill="#FD8B66"/>
<path d="M335.5 372.32C335.5 372.32 306.786 372.32 288.082 407.216L273.987 479.741L246.508 584.069L308.672 590.644L335.5 372.32Z" fill="#F0B50F"/>
<path d="M189.946 664.307L194.828 673.182L342.607 601.503L337.725 592.628L189.946 664.307Z" fill="#0CAF88"/>
<path d="M143.143 585.449L64.0391 623.818C62.5483 624.541 61.9872 626.304 62.7858 627.756L152.971 791.705C153.769 793.157 155.625 793.747 157.116 793.024L236.22 754.656C237.71 753.933 238.272 752.17 237.473 750.718L147.288 586.769C146.489 585.317 144.634 584.726 143.143 585.449Z" fill="url(#paint12_linear)"/>
<path d="M141.767 748.933L138.041 742.16L146.878 730.852L151.55 725.563L151.465 725.409C148.766 727.109 145.045 729.596 141.766 731.186L134.06 734.924L130.588 728.612L157.23 715.689L160.956 722.463L152.078 733.791L147.447 739.061L147.532 739.215C150.396 737.436 153.952 735.028 157.231 733.438L164.937 729.7L168.409 736.012L141.767 748.933Z" fill="white"/>
<path d="M127.543 723.072L118.65 706.907L124.553 704.044L129.803 713.589L133.984 711.562L129.494 703.402L135.396 700.539L139.886 708.698L144.641 706.392L139.178 696.462L145.08 693.6L154.184 710.15L127.543 723.072Z" fill="white"/>
<path d="M115.767 701.672L106.875 685.507L112.778 682.644L118.028 692.189L122.209 690.161L117.721 682.001L123.623 679.138L128.111 687.298L132.866 684.992L127.404 675.062L133.306 672.199L142.41 688.749L115.767 701.672Z" fill="white"/>
<path d="M103.997 680.274L99.9315 672.884C95.7397 665.264 96.6313 658.2 106.059 653.627C115.486 649.055 122.382 652.341 126.362 659.577L130.638 667.352L103.997 680.274ZM121.129 663.09C119.139 659.472 116.015 657.38 109.785 660.402C103.554 663.424 103.81 666.908 105.8 670.526L106.011 670.911L121.341 663.475L121.129 663.09Z" fill="white"/>
<path d="M198.534 723.009L192.513 720.273C193.769 718.592 193.911 716.962 193.318 715.884C192.344 714.114 190.891 713.55 187.53 715.182L170.726 723.333L167.084 716.713L184.463 708.283C189.791 705.699 195.7 706.246 198.876 712.019C201.12 716.099 200.92 719.512 198.534 723.009Z" fill="white"/>
<path d="M177.908 706.003C169.136 710.258 161.635 707.948 157.824 701.02C154.013 694.091 156.39 686.991 165.12 682.756C173.891 678.502 181.638 680.692 185.449 687.62C189.26 694.548 186.679 701.749 177.908 706.003ZM168.846 689.53C164.009 691.876 162.239 695.076 163.89 698.077C165.541 701.079 169.345 701.575 174.182 699.229C179.018 696.883 181.035 693.564 179.384 690.563C177.732 687.561 173.683 687.184 168.846 689.53Z" fill="white"/>
<path d="M149.468 684.693L144.514 675.687C141.635 670.453 140.699 665.543 145.946 662.998C148.241 661.885 151.542 661.844 153.42 663.371L153.584 663.292C153.009 660.547 153.918 657.669 157.443 655.959C162.935 653.295 167.768 656.606 170.732 661.995L176.11 671.771L149.468 684.693ZM155.01 670.791C153.824 668.635 152.207 668.152 150.568 668.947C148.929 669.742 148.823 671.061 150.009 673.216L151.237 675.45L156.237 673.024L155.01 670.791ZM165.576 665.08C164.136 662.463 162.476 661.709 160.508 662.663C158.539 663.617 158.48 665.207 159.92 667.824L161.402 670.518L167.058 667.775L165.576 665.08Z" fill="white"/>
<path d="M161.098 652.139L154.187 650.713C154.729 648.207 154.567 645.458 153.55 643.61C152.45 641.609 151.287 641.101 150.099 641.677C148.828 642.293 149.117 643.762 149.379 646.316L149.7 650.11C150.034 653.361 148.908 656.882 145.055 658.751C140.505 660.958 134.659 658.917 131.651 653.452C129.95 650.351 129.589 646.753 130.644 643.409L136.892 644.572C136.553 646.881 136.701 648.662 137.718 650.509C138.607 652.126 139.772 652.829 140.961 652.252C142.232 651.636 141.899 649.994 141.593 647.265L141.19 643.608C140.787 639.854 142.109 636.97 145.798 635.181C150.306 632.994 156.271 634.587 159.701 640.822C161.438 643.978 162.198 648.192 161.098 652.139Z" fill="white"/>
<path d="M265.612 885.648L266.765 879.15H334.572L332.676 889.787C332.676 889.787 321.498 914.178 320.302 913.97C319.106 913.762 263.617 910.763 263.617 910.763L265.612 885.648Z" fill="#FD8B66"/>
<path d="M314.08 506.691C314.08 506.691 302.417 528.682 302.114 548.281C301.985 556.626 295.558 617.838 288.22 685.388C278.322 776.503 266.766 879.15 266.766 879.15H342.609L360.4 715.156L386.857 534.825C386.857 520.55 428.928 510.553 415.977 506.689L314.08 506.691Z" fill="url(#paint13_linear)"/>
<path d="M327.082 923.336H208.121C213.211 913.972 215.871 906.39 245.945 900.393L265.605 885.648C265.605 885.648 276.268 897.277 293.865 899.222C320.296 902.142 332.669 889.788 332.669 889.788L327.082 923.336Z" fill="url(#paint14_linear)"/>
<path d="M404.846 885.648L405.999 879.15H470.293L471.911 889.787C471.911 889.787 460.733 914.178 459.537 913.97C458.341 913.762 402.852 910.763 402.852 910.763L404.846 885.648Z" fill="#FD8B66"/>
<path d="M330.096 506.691L371.047 710.441L393.924 879.152H476.595C476.595 879.152 439.586 538.763 434.589 506.691H330.096Z" fill="url(#paint15_linear)"/>
<path d="M476.599 921.565L362.605 924.184C362.605 924.184 362.409 906.827 393.533 898.472L404.848 885.648C404.848 885.648 415.511 897.277 433.107 899.221C459.538 902.142 471.912 889.788 471.912 889.788L476.599 921.565Z" fill="url(#paint16_linear)"/>
<path d="M304.584 531.583H437.508L423.936 413.383C423.936 386.954 401.12 365.529 372.975 365.529H361.68C333.534 365.529 310.718 386.954 310.718 413.383L309.481 463.623L304.584 531.583Z" fill="url(#paint17_linear)"/>
<path d="M376.789 344.48C376.529 350.951 377.399 361.667 381.753 366.291C383.689 370.225 372.795 380.993 360.407 385.094C351.935 379.196 351.882 368.987 353.274 365.982C353.274 365.982 360.176 353.12 359.074 344.48H376.789Z" fill="#FD8B66"/>
<path d="M339.606 327.654L346.207 352.875C346.207 352.875 351.799 360.777 359.1 359.413C368.5 357.656 378.523 354.482 378.24 347.299C378.058 343.488 377.342 339.717 376.108 336.082C380.94 335.33 386.433 329.526 380.734 323.705C375.777 318.641 373.144 326.404 373.144 326.404L369.821 315.701C364.672 312.204 339.453 309.807 339.606 327.654Z" fill="#FD8B66"/>
<path d="M370.225 322.383C367.644 321.599 364.997 321.026 362.311 320.668C362.311 320.668 346.801 341.11 329.692 322.001C329.692 316.59 328.249 301.941 340.329 296.612C350.08 292.312 363.377 291.202 373.128 300.22C378.241 307.711 377.233 310.602 374.297 320.502C373.349 323.699 374.067 326.279 373.966 329.899L370.225 322.383Z" fill="#251138"/>
<path d="M376.064 314.251C371.072 316.728 365.409 318.13 359.919 318.13C350.641 318.13 342.406 314.487 335.706 308.713C334.331 307.52 333.093 306.196 332.011 304.762C329.079 311.004 329.692 318.47 329.692 322.002C346.801 341.111 362.311 320.669 362.311 320.669C364.996 321.027 367.644 321.601 370.225 322.384L373.966 329.901C374.067 326.28 373.35 323.7 374.298 320.504C375.027 318.046 375.636 316.022 376.064 314.251Z" fill="#251138"/>
<path d="M381.976 365.529L360.406 385.093L368.452 394.178L390.977 368.603L381.976 365.529Z" fill="white"/>
<path d="M360.407 385.093L350.303 392.698L343.539 368.651L353.274 365.98L360.407 385.093Z" fill="white"/>
<path d="M364.648 389.884C366.854 392.375 366.979 396.082 364.945 398.716L363.467 400.628C362.277 402.17 360.439 403.073 358.49 403.073C355.85 403.073 353.491 401.423 352.584 398.943L352.234 397.986C351.086 394.845 352.128 391.322 354.8 389.31L355.291 388.941C358.178 386.767 362.252 387.178 364.648 389.884Z" fill="#F0B50F"/>
<path d="M357.809 403.074C359.958 403.074 361.762 404.691 361.997 406.827L369.015 470.651C369.135 471.744 369.195 472.29 369.182 472.832C369.164 473.52 369.058 474.202 368.865 474.863C368.714 475.383 368.49 475.885 368.043 476.89L367.641 477.793C364.64 484.54 363.139 487.914 361.318 489.187C358.448 491.195 354.605 491.102 351.836 488.958C350.079 487.597 348.743 484.155 346.072 477.271C345.736 476.405 345.568 475.972 345.452 475.529C345.271 474.837 345.184 474.123 345.193 473.407C345.198 472.949 345.257 472.489 345.374 471.568L353.63 406.755C353.898 404.651 355.688 403.074 357.809 403.074Z" fill="#F0B50F"/>
<path d="M436.793 522.144H304.585C304.399 522.144 304.22 522.075 304.088 521.951C303.957 521.828 303.883 521.66 303.883 521.485C303.883 521.31 303.957 521.143 304.088 521.019C304.22 520.896 304.399 520.826 304.585 520.826H436.793C436.979 520.826 437.158 520.896 437.289 521.019C437.421 521.143 437.495 521.31 437.495 521.485C437.495 521.66 437.421 521.828 437.289 521.951C437.158 522.075 436.979 522.144 436.793 522.144Z" fill="white"/>
<path d="M372.375 532.242H349.327C349.235 532.242 349.143 532.225 349.058 532.192C348.973 532.159 348.896 532.11 348.831 532.049C348.765 531.988 348.714 531.915 348.678 531.835C348.643 531.755 348.625 531.669 348.625 531.583V521.485C348.625 521.399 348.643 521.313 348.678 521.233C348.714 521.153 348.765 521.08 348.831 521.019C348.896 520.958 348.973 520.909 349.058 520.876C349.143 520.843 349.235 520.826 349.327 520.826H372.375C372.467 520.826 372.558 520.843 372.643 520.876C372.728 520.909 372.806 520.958 372.871 521.019C372.936 521.08 372.988 521.153 373.023 521.233C373.058 521.313 373.077 521.399 373.077 521.485V531.583C373.076 531.758 373.002 531.925 372.871 532.049C372.739 532.172 372.561 532.242 372.375 532.242ZM350.029 530.924H371.673V522.144H350.029V530.924Z" fill="white"/>
<path d="M365.292 682.896C365.014 682.896 364.745 682.802 364.534 682.632C364.322 682.463 364.182 682.228 364.138 681.969L348.334 588.374H339.33C339.02 588.374 338.722 588.259 338.503 588.053C338.283 587.847 338.16 587.567 338.16 587.276C338.16 586.985 338.283 586.705 338.503 586.499C338.722 586.293 339.02 586.178 339.33 586.178H349.332C349.611 586.178 349.88 586.271 350.092 586.441C350.304 586.611 350.444 586.846 350.488 587.104L366.448 681.626C366.497 681.914 366.422 682.208 366.239 682.443C366.057 682.679 365.783 682.837 365.476 682.883C365.416 682.892 365.354 682.896 365.292 682.896Z" fill="#080867"/>
<path d="M437.512 879.809C437.338 879.809 437.17 879.748 437.041 879.638C436.912 879.528 436.832 879.377 436.815 879.214L400.65 531.645C400.641 531.558 400.65 531.472 400.677 531.389C400.704 531.306 400.748 531.229 400.806 531.162C400.865 531.095 400.937 531.04 401.018 530.999C401.099 530.959 401.188 530.933 401.28 530.925C401.372 530.917 401.464 530.925 401.553 530.95C401.641 530.976 401.723 531.017 401.794 531.072C401.865 531.127 401.924 531.194 401.967 531.271C402.011 531.347 402.038 531.431 402.046 531.517L438.213 879.086C438.231 879.26 438.174 879.434 438.056 879.569C437.938 879.704 437.768 879.789 437.582 879.806C437.558 879.808 437.535 879.809 437.512 879.809Z" fill="white"/>
<path d="M299.094 879.81C299.051 879.811 299.008 879.807 298.966 879.799C298.783 879.767 298.621 879.668 298.516 879.525C298.41 879.38 298.37 879.203 298.404 879.031L351.621 609.6C351.655 609.428 351.761 609.276 351.914 609.177C352.067 609.078 352.256 609.04 352.439 609.072C352.622 609.103 352.785 609.202 352.89 609.346C352.995 609.49 353.036 609.668 353.002 609.84L299.784 879.272C299.754 879.423 299.668 879.559 299.543 879.658C299.417 879.756 299.258 879.81 299.094 879.81Z" fill="white"/>
<path d="M403.425 552.243C403.388 552.243 403.35 552.24 403.313 552.234C385.465 549.527 386.85 531.706 386.867 531.526C386.885 531.353 386.975 531.195 387.116 531.084C387.258 530.973 387.44 530.919 387.624 530.934C387.808 530.948 387.978 531.03 388.098 531.161C388.218 531.293 388.278 531.463 388.266 531.636C388.205 532.32 386.983 548.422 403.537 550.934C403.71 550.961 403.867 551.048 403.976 551.178C404.085 551.308 404.138 551.472 404.124 551.637C404.11 551.802 404.03 551.956 403.901 552.069C403.771 552.181 403.602 552.244 403.425 552.244V552.243Z" fill="white"/>
<path d="M301.942 552.243C301.76 552.244 301.585 552.178 301.454 552.06C301.323 551.942 301.246 551.78 301.239 551.61C301.232 551.439 301.296 551.273 301.417 551.145C301.538 551.018 301.707 550.94 301.889 550.928C314.6 550.007 315.529 531.74 315.537 531.554C315.54 531.468 315.562 531.383 315.601 531.304C315.64 531.226 315.694 531.155 315.762 531.096C315.83 531.038 315.909 530.992 315.996 530.962C316.082 530.932 316.174 530.919 316.266 530.922C316.358 530.926 316.449 530.946 316.532 530.983C316.616 531.019 316.691 531.07 316.754 531.134C316.816 531.198 316.865 531.272 316.897 531.353C316.928 531.435 316.943 531.521 316.939 531.608C316.931 531.803 315.938 551.231 301.997 552.24C301.979 552.242 301.96 552.243 301.942 552.243Z" fill="white"/>
<path d="M431.998 575.631C431.998 575.631 436.205 594.801 434.119 601.979C432.493 607.576 423.45 623.235 419.195 634.242C417.3 639.656 428.373 632.298 431.484 632.997C434.059 633.575 433.052 643.818 430.934 647.699C424.981 658.608 428.632 661.304 432.393 659.423C436.155 657.542 438.195 654.22 438.195 654.22C438.195 654.22 439.789 658.877 445.671 653.444C445.671 653.444 449.692 655.689 453.795 649.587C457.899 643.486 459.2 649.579 464.08 621.597C468.959 593.616 471.989 576.448 470.914 576.655C469.839 576.863 431.998 575.631 431.998 575.631Z" fill="#FD8B66"/>
<path d="M445.67 654.104C445.559 654.103 445.449 654.078 445.35 654.03C445.251 653.983 445.166 653.913 445.101 653.828C445.036 653.744 444.993 653.645 444.977 653.542C444.96 653.439 444.97 653.333 445.005 653.234L449.629 640.371C449.69 640.207 449.817 640.073 449.983 639.996C450.149 639.92 450.34 639.909 450.515 639.964C450.69 640.02 450.835 640.138 450.918 640.293C451.001 640.448 451.016 640.627 450.959 640.792L446.335 653.655C446.288 653.786 446.199 653.899 446.079 653.98C445.96 654.06 445.817 654.104 445.67 654.104Z" fill="#DD4B9B"/>
<path d="M455.05 648.622C454.94 648.622 454.832 648.597 454.734 648.551C454.637 648.505 454.552 648.438 454.486 648.356C454.421 648.273 454.377 648.177 454.358 648.076C454.339 647.975 454.346 647.871 454.377 647.772L456.419 641.409C456.444 641.325 456.487 641.246 456.545 641.177C456.603 641.109 456.675 641.051 456.757 641.009C456.839 640.967 456.929 640.941 457.021 640.931C457.114 640.922 457.208 640.93 457.297 640.956C457.387 640.981 457.47 641.023 457.542 641.079C457.614 641.134 457.673 641.203 457.717 641.281C457.76 641.358 457.786 641.443 457.794 641.53C457.802 641.618 457.792 641.706 457.763 641.789L455.721 648.153C455.678 648.288 455.589 648.407 455.468 648.491C455.347 648.576 455.2 648.621 455.05 648.622Z" fill="#DD4B9B"/>
<path d="M407.843 371.071C432.294 368.811 457.707 401.559 468.839 448.039C472.746 464.542 474.694 481.401 474.646 498.307L476.174 569.174C476.321 576.025 476.395 579.45 475.108 582.074C473.976 584.38 472.134 586.263 469.852 587.444C467.257 588.788 463.831 588.788 456.978 588.788H429.069C423.492 588.788 418.966 584.277 418.947 578.7V578.7C418.905 566.449 387.943 385.589 396.106 376.453C398.771 373.469 402.595 371.556 407.843 371.071Z" fill="#F0B50F"/>
<path d="M438.197 654.878C438.086 654.878 437.977 654.853 437.878 654.806C437.779 654.759 437.694 654.691 437.628 654.607C437.563 654.523 437.52 654.425 437.503 654.322C437.485 654.22 437.494 654.115 437.528 654.016L442.243 640.377C442.27 640.293 442.315 640.216 442.375 640.149C442.434 640.082 442.507 640.026 442.59 639.986C442.673 639.946 442.763 639.922 442.855 639.914C442.948 639.907 443.041 639.917 443.13 639.944C443.218 639.971 443.3 640.014 443.371 640.071C443.441 640.128 443.499 640.198 443.541 640.276C443.582 640.354 443.607 640.439 443.613 640.526C443.62 640.613 443.608 640.701 443.578 640.784L438.863 654.422C438.818 654.555 438.728 654.67 438.609 654.752C438.489 654.834 438.345 654.878 438.197 654.878Z" fill="#DD4B9B"/>
<path d="M299.09 576.289C299.063 576.289 299.035 576.287 299.008 576.284L250.063 570.922C249.88 570.899 249.714 570.81 249.601 570.674C249.488 570.537 249.437 570.364 249.458 570.192C249.479 570.021 249.572 569.863 249.715 569.755C249.859 569.647 250.042 569.595 250.225 569.613L299.172 574.975C299.35 574.995 299.513 575.077 299.628 575.206C299.743 575.335 299.801 575.5 299.791 575.667C299.781 575.835 299.703 575.993 299.573 576.108C299.443 576.224 299.271 576.288 299.092 576.289H299.09Z" fill="#2C2CDB"/>
<path d="M476.256 573.609H418.981C418.795 573.609 418.616 573.54 418.485 573.416C418.353 573.292 418.279 573.125 418.279 572.95C418.279 572.775 418.353 572.608 418.485 572.484C418.616 572.36 418.795 572.291 418.981 572.291H476.256C476.442 572.291 476.62 572.36 476.752 572.484C476.883 572.608 476.957 572.775 476.957 572.95C476.957 573.125 476.883 573.292 476.752 573.416C476.62 573.54 476.442 573.609 476.256 573.609Z" fill="#2C2CDB"/>
<path d="M418.591 474.985C418.431 474.985 418.276 474.934 418.151 474.841C418.026 474.748 417.939 474.617 417.904 474.471C417.869 474.325 417.888 474.172 417.958 474.037C418.028 473.902 418.144 473.794 418.289 473.73L427.577 469.574C427.745 469.499 427.938 469.489 428.114 469.548C428.289 469.606 428.432 469.728 428.512 469.885C428.592 470.043 428.602 470.224 428.54 470.389C428.478 470.554 428.349 470.688 428.181 470.763L418.892 474.919C418.798 474.962 418.695 474.984 418.591 474.985Z" fill="#2C2CDB"/>
<path d="M361.578 403.734H354.092C353.906 403.734 353.728 403.664 353.596 403.541C353.465 403.417 353.391 403.25 353.391 403.075C353.391 402.9 353.465 402.733 353.596 402.609C353.728 402.485 353.906 402.416 354.092 402.416H361.578C361.764 402.416 361.943 402.485 362.074 402.609C362.206 402.733 362.28 402.9 362.28 403.075C362.28 403.25 362.206 403.417 362.074 403.541C361.943 403.664 361.764 403.734 361.578 403.734Z" fill="#2C2CDB"/>
<path d="M357.418 360.189C356.688 360.189 356.235 360.158 356.143 360.151C356.051 360.144 355.962 360.12 355.88 360.08C355.798 360.041 355.725 359.986 355.665 359.92C355.605 359.855 355.56 359.778 355.532 359.696C355.504 359.613 355.493 359.527 355.5 359.44C355.508 359.354 355.533 359.27 355.575 359.193C355.617 359.116 355.675 359.048 355.746 358.992C355.816 358.936 355.897 358.893 355.985 358.867C356.073 358.84 356.165 358.83 356.257 358.837C356.379 358.847 368.598 359.661 376.432 351.18C376.554 351.048 376.727 350.967 376.912 350.955C377.098 350.942 377.281 351 377.422 351.114C377.562 351.229 377.649 351.391 377.662 351.565C377.675 351.74 377.614 351.912 377.492 352.044C370.625 359.478 360.891 360.189 357.418 360.189Z" fill="#DD4B9B"/>
<path d="M375.69 332.372C375.57 332.372 375.452 332.343 375.347 332.288C375.243 332.233 375.155 332.153 375.092 332.057C375.029 331.962 374.994 331.852 374.989 331.74C374.984 331.627 375.01 331.515 375.064 331.415L378.199 325.588C378.24 325.509 378.297 325.439 378.367 325.38C378.437 325.322 378.518 325.278 378.607 325.25C378.695 325.222 378.788 325.21 378.882 325.216C378.975 325.223 379.065 325.246 379.149 325.286C379.232 325.325 379.306 325.38 379.367 325.447C379.427 325.514 379.473 325.591 379.501 325.674C379.529 325.758 379.54 325.846 379.531 325.933C379.523 326.021 379.496 326.105 379.452 326.183L376.316 332.01C376.258 332.118 376.168 332.21 376.058 332.274C375.947 332.338 375.82 332.372 375.69 332.372Z" fill="#DD4B9B"/>
</g>
<defs>
<linearGradient id="paint0_linear" x1="685.869" y1="71.9102" x2="685.869" y2="251.32" gradientUnits="userSpaceOnUse">
<stop stop-color="#1C6FC4"/>
<stop offset="0.847875" stop-color="#02298A"/>
<stop offset="1" stop-color="#144591"/>
</linearGradient>
<linearGradient id="paint1_linear" x1="689.024" y1="71.9102" x2="689.024" y2="246.096" gradientUnits="userSpaceOnUse">
<stop stop-color="#1C6FC4"/>
<stop offset="0.847875" stop-color="#02298A"/>
<stop offset="1" stop-color="#144591"/>
</linearGradient>
<linearGradient id="paint2_linear" x1="752.273" y1="71.9102" x2="752.273" y2="246.097" gradientUnits="userSpaceOnUse">
<stop stop-color="#1C6FC4"/>
<stop offset="0.847875" stop-color="#02298A"/>
<stop offset="1" stop-color="#144591"/>
</linearGradient>
<linearGradient id="paint3_linear" x1="798.726" y1="295.697" x2="798.726" y2="448.28" gradientUnits="userSpaceOnUse">
<stop stop-color="#1C6FC4"/>
<stop offset="0.847875" stop-color="#02298A"/>
<stop offset="1" stop-color="#144591"/>
</linearGradient>
<linearGradient id="paint4_linear" x1="715.793" y1="506.689" x2="715.793" y2="879.15" gradientUnits="userSpaceOnUse">
<stop stop-color="#1C6FC4"/>
<stop offset="0.847875" stop-color="#02298A"/>
<stop offset="1" stop-color="#144591"/>
</linearGradient>
<linearGradient id="paint5_linear" x1="787.997" y1="885.648" x2="787.997" y2="923.336" gradientUnits="userSpaceOnUse">
<stop stop-color="#1C6FC4"/>
<stop offset="0.847875" stop-color="#02298A"/>
<stop offset="1" stop-color="#144591"/>
</linearGradient>
<linearGradient id="paint6_linear" x1="659.076" y1="506.691" x2="659.076" y2="879.152" gradientUnits="userSpaceOnUse">
<stop stop-color="#1C6FC4"/>
<stop offset="0.847875" stop-color="#02298A"/>
<stop offset="1" stop-color="#144591"/>
</linearGradient>
<linearGradient id="paint7_linear" x1="602.401" y1="885.646" x2="602.401" y2="924.183" gradientUnits="userSpaceOnUse">
<stop stop-color="#1C6FC4"/>
<stop offset="0.847875" stop-color="#02298A"/>
<stop offset="1" stop-color="#144591"/>
</linearGradient>
<linearGradient id="paint8_linear" x1="584.08" y1="295.697" x2="584.08" y2="448.944" gradientUnits="userSpaceOnUse">
<stop stop-color="#1C6FC4"/>
<stop offset="0.847875" stop-color="#02298A"/>
<stop offset="1" stop-color="#144591"/>
</linearGradient>
<linearGradient id="paint9_linear" x1="699.022" y1="385.092" x2="699.022" y2="403.073" gradientUnits="userSpaceOnUse">
<stop stop-color="#1C6FC4"/>
<stop offset="0.847875" stop-color="#02298A"/>
<stop offset="1" stop-color="#144591"/>
</linearGradient>
<linearGradient id="paint10_linear" x1="701.21" y1="403.074" x2="701.21" y2="503.449" gradientUnits="userSpaceOnUse">
<stop stop-color="#1C6FC4"/>
<stop offset="0.847875" stop-color="#02298A"/>
<stop offset="1" stop-color="#144591"/>
</linearGradient>
<linearGradient id="paint11_linear" x1="732.69" y1="609.047" x2="732.69" y2="879.809" gradientUnits="userSpaceOnUse">
<stop stop-color="#1C6FC4"/>
<stop offset="0.847875" stop-color="#02298A"/>
<stop offset="1" stop-color="#144591"/>
</linearGradient>
<linearGradient id="paint12_linear" x1="103.591" y1="604.633" x2="187.759" y2="778.161" gradientUnits="userSpaceOnUse">
<stop stop-color="#1C6FC4"/>
<stop offset="0.847875" stop-color="#02298A"/>
<stop offset="1" stop-color="#144591"/>
</linearGradient>
<linearGradient id="paint13_linear" x1="342.61" y1="506.689" x2="342.61" y2="879.15" gradientUnits="userSpaceOnUse">
<stop stop-color="#1C6FC4"/>
<stop offset="0.847875" stop-color="#02298A"/>
<stop offset="1" stop-color="#144591"/>
</linearGradient>
<linearGradient id="paint14_linear" x1="270.395" y1="885.648" x2="270.395" y2="923.336" gradientUnits="userSpaceOnUse">
<stop stop-color="#1C6FC4"/>
<stop offset="0.847875" stop-color="#02298A"/>
<stop offset="1" stop-color="#144591"/>
</linearGradient>
<linearGradient id="paint15_linear" x1="403.346" y1="506.691" x2="403.346" y2="879.152" gradientUnits="userSpaceOnUse">
<stop stop-color="#1C6FC4"/>
<stop offset="0.847875" stop-color="#02298A"/>
<stop offset="1" stop-color="#144591"/>
</linearGradient>
<linearGradient id="paint16_linear" x1="419.602" y1="885.648" x2="419.602" y2="924.184" gradientUnits="userSpaceOnUse">
<stop stop-color="#1C6FC4"/>
<stop offset="0.847875" stop-color="#02298A"/>
<stop offset="1" stop-color="#144591"/>
</linearGradient>
<linearGradient id="paint17_linear" x1="371.046" y1="365.529" x2="371.046" y2="531.583" gradientUnits="userSpaceOnUse">
<stop stop-color="#1C6FC4"/>
<stop offset="0.847875" stop-color="#02298A"/>
<stop offset="1" stop-color="#144591"/>
</linearGradient>
<clipPath id="clip0">
<rect width="1069" height="922" fill="white"/>
</clipPath>
</defs>
</svg>
