<svg width="385" height="293" viewBox="0 0 385 293" fill="none" xmlns="http://www.w3.org/2000/svg">
<path d="M209.814 253.925H162.653C160.877 253.925 159.438 255.364 159.438 257.14V287.152C159.438 288.928 160.877 290.368 162.653 290.368H209.814C211.59 290.368 213.03 288.928 213.03 287.152V257.14C213.03 255.364 211.59 253.925 209.814 253.925Z" fill="#5F6386"/>
<path d="M231.251 279.65H143.628C141.852 279.65 140.412 281.09 140.412 282.866V287.957C140.412 289.733 141.852 291.172 143.628 291.172H231.251C233.027 291.172 234.467 289.733 234.467 287.957V282.866C234.467 281.09 233.027 279.65 231.251 279.65Z" fill="#5F6386"/>
<path d="M300.474 95.5576H56.0143C44.8658 95.5576 35.8281 104.595 35.8281 115.744V243.116C35.8281 254.265 44.8658 263.302 56.0143 263.302H300.474C311.622 263.302 320.66 254.265 320.66 243.116V115.744C320.66 104.595 311.622 95.5576 300.474 95.5576Z" fill="url(#paint0_linear)"/>
<path d="M383.589 290.302H0.937752C0.419846 290.302 0 290.721 0 291.239V291.306C0 291.824 0.419846 292.244 0.937752 292.244H383.589C384.107 292.244 384.526 291.824 384.526 291.306V291.239C384.526 290.721 384.107 290.302 383.589 290.302Z" fill="#5F6386"/>
<path d="M316.376 95.5576H71.9167C60.7681 95.5576 51.7305 104.595 51.7305 115.744V243.116C51.7305 254.265 60.7681 263.302 71.9167 263.302H316.376C327.525 263.302 336.562 254.265 336.562 243.116V115.744C336.562 104.595 327.525 95.5576 316.376 95.5576Z" fill="url(#paint1_linear)"/>
<path d="M300.434 109.737H88.8932C77.7447 109.737 68.707 118.774 68.707 129.923V229.07C68.707 240.219 77.7447 249.256 88.8932 249.256H300.434C311.583 249.256 320.621 240.219 320.621 229.07V129.923C320.621 118.774 311.583 109.737 300.434 109.737Z" fill="white" fill-opacity="0.93"/>
<path d="M112.719 212.9V153.434H154.845V165.495H127.052V178.31H149.95V189.449H127.052V212.901L112.719 212.9Z" fill="#C7C7E3"/>
<path d="M172.499 153.434H185.435L208.071 212.9H193.388L188.581 199.583H169.266L164.546 212.901H149.863L172.499 153.434ZM186.221 190.119L178.967 169.097L171.538 190.119H186.221Z" fill="#C7C7E3"/>
<path d="M254.216 209.551C251.955 210.742 249.565 211.669 247.093 212.315C244.482 212.995 241.794 213.333 239.096 213.32C234.493 213.32 230.298 212.469 226.511 210.766C222.864 209.162 219.568 206.857 216.81 203.982C214.139 201.177 212.019 197.896 210.561 194.308C209.089 190.749 208.332 186.935 208.332 183.084C208.328 179.197 209.116 175.35 210.648 171.777C212.168 168.183 214.364 164.913 217.115 162.145C219.937 159.317 223.275 157.057 226.948 155.487C230.735 153.841 234.872 153.017 239.358 153.016C243.96 153.016 248.155 153.896 251.944 155.655C255.591 157.314 258.885 159.66 261.645 162.564C264.306 165.384 266.411 168.68 267.85 172.28C269.283 175.79 270.025 179.544 270.035 183.335C270.048 187.067 269.336 190.765 267.938 194.224C266.552 197.666 264.537 200.818 261.995 203.521L270.91 212.901H257.451L254.216 209.551ZM239.184 201.092C241.514 201.092 243.553 200.729 245.301 200.003L235.338 189.45H248.797L252.643 193.554C253.576 191.987 254.282 190.295 254.74 188.529C255.779 184.544 255.658 180.345 254.391 176.426C253.726 174.339 252.657 172.404 251.244 170.73C249.829 169.07 248.089 167.717 246.132 166.752C244.121 165.747 241.805 165.245 239.183 165.245C236.444 165.245 234.07 165.761 232.06 166.794C230.099 167.788 228.371 169.187 226.991 170.898C225.615 172.614 224.577 174.575 223.933 176.677C223.266 178.805 222.927 181.022 222.928 183.252C222.923 185.513 223.277 187.761 223.976 189.911C224.637 191.99 225.69 193.923 227.079 195.606C228.481 197.28 230.224 198.636 232.192 199.584C234.23 200.589 236.561 201.092 239.184 201.092Z" fill="#C7C7E3"/>
<path d="M121.828 212.9V153.434H163.954V165.495H136.163V178.31H159.061V189.449H136.163V212.901L121.828 212.9Z" fill="url(#paint2_linear)"/>
<path d="M181.609 153.434H194.544L217.18 212.9H202.497L197.69 199.583H178.375L173.656 212.9H158.973L181.609 153.434ZM195.33 190.119L188.076 169.097L180.647 190.119H195.33Z" fill="url(#paint3_linear)"/>
<path d="M263.326 209.552C261.065 210.742 258.675 211.67 256.203 212.315C253.592 212.995 250.904 213.333 248.206 213.321C243.603 213.321 239.407 212.469 235.621 210.766C231.973 209.162 228.677 206.857 225.919 203.982C223.248 201.177 221.128 197.896 219.67 194.308C218.198 190.749 217.441 186.936 217.441 183.085C217.437 179.197 218.225 175.35 219.757 171.778C221.278 168.183 223.473 164.913 226.225 162.146C229.046 159.317 232.384 157.057 236.057 155.487C239.844 153.841 243.981 153.017 248.468 153.016C253.07 153.016 257.265 153.896 261.053 155.655C264.7 157.314 267.994 159.66 270.754 162.565C273.415 165.384 275.521 168.68 276.959 172.28C278.392 175.79 279.134 179.544 279.144 183.336C279.157 187.067 278.445 190.765 277.047 194.224C275.662 197.666 273.646 200.819 271.104 203.521L280.019 212.902H266.559L263.326 209.552ZM248.293 201.092C250.623 201.092 252.662 200.729 254.41 200.004L244.447 189.45H257.907L261.752 193.554C262.686 191.987 263.392 190.295 263.85 188.529C264.889 184.544 264.768 180.345 263.5 176.426C262.835 174.34 261.766 172.404 260.353 170.731C258.938 169.07 257.198 167.717 255.241 166.753C253.231 165.747 250.915 165.245 248.293 165.245C245.554 165.245 243.179 165.761 241.17 166.794C239.209 167.788 237.481 169.187 236.101 170.898C234.725 172.614 233.687 174.575 233.042 176.678C232.375 178.805 232.036 181.023 232.037 183.252C232.033 185.513 232.387 187.761 233.086 189.911C233.746 191.99 234.8 193.924 236.188 195.606C237.591 197.28 239.334 198.637 241.301 199.585C243.34 200.59 245.671 201.092 248.293 201.092Z" fill="url(#paint4_linear)"/>
<path d="M80.5327 165.029L83.2219 165.8C83.6473 165.929 84.1059 165.887 84.5014 165.685C84.8969 165.482 85.1985 165.134 85.3428 164.714L87.1937 158.849L81.2423 157.142L79.3915 163.007C79.3295 163.215 79.3101 163.433 79.3343 163.648C79.3585 163.863 79.4259 164.072 79.5325 164.26C79.639 164.449 79.7824 164.614 79.9543 164.746C80.1262 164.878 80.3229 164.974 80.5327 165.029Z" fill="url(#paint5_linear)"/>
<path d="M120.612 164.56L119.331 164.938C118.711 165.121 118.043 165.05 117.475 164.741C116.907 164.432 116.484 163.91 116.301 163.289L114.691 157.834L120.65 156.075L122.261 161.53C122.444 162.15 122.373 162.818 122.064 163.386C121.755 163.955 121.232 164.377 120.612 164.56Z" fill="url(#paint6_linear)"/>
<path d="M113.615 108.184L113.588 108.297C113.038 110.503 111.635 112.402 109.687 113.575C107.739 114.748 105.406 115.101 103.198 114.557C101.845 114.223 100.479 113.889 99.102 113.555C83.4792 109.754 66.4832 105.934 51.6172 103.004L55.915 84.7102C69.1592 87.3895 86.6794 91.8961 104.002 96.9109C105.232 97.2677 106.462 97.6264 107.69 97.9869C109.796 98.6043 111.584 100.006 112.687 101.903C113.789 103.801 114.121 106.049 113.615 108.184Z" fill="url(#paint7_linear)"/>
<path d="M125.889 154.867L111.943 158.983C109.358 148.393 103.283 128.125 99.1008 113.556C98.6266 111.907 98.1783 110.331 97.7602 108.849C97.1585 106.715 97.4096 104.43 98.4606 102.477C99.5116 100.525 101.28 99.0566 103.393 98.3832C103.453 98.3617 103.512 98.3436 103.573 98.3256C104.692 97.9959 105.866 97.8982 107.024 98.0386C108.181 98.179 109.298 98.5545 110.305 99.1421C111.312 99.7297 112.189 100.517 112.881 101.455C113.573 102.394 114.066 103.464 114.329 104.6C114.558 105.591 114.793 106.608 115.035 107.651C118.737 123.639 123.724 145.092 125.889 154.867Z" fill="url(#paint8_linear)"/>
<path d="M96.125 114.659C96.0527 114.936 95.9698 115.21 95.8762 115.481C95.502 116.553 94.9187 117.541 94.1602 118.386C93.4017 119.232 92.4831 119.918 91.4574 120.406C90.4318 120.894 89.3195 121.174 88.1851 121.229C87.0506 121.284 85.9164 121.114 84.8482 120.728C83.2463 120.149 81.627 119.568 79.9902 118.984C71.0435 115.794 61.6482 112.556 52.4943 109.527C50.1848 108.766 48.05 107.553 46.2148 105.958C44.3796 104.363 42.8807 102.418 41.8056 100.237C40.7306 98.0558 40.1009 95.6824 39.9536 93.2553C39.8062 90.8283 40.144 88.3961 40.9472 86.1011C53.4114 90.015 70.2558 95.6657 86.531 102.131C88.0959 102.751 89.6529 103.38 91.2019 104.018C91.3876 104.092 91.5749 104.167 91.7606 104.245C95.7067 105.87 97.1879 110.539 96.125 114.659Z" fill="url(#paint9_linear)"/>
<path d="M97.6442 112.996C97.6117 113.233 97.5793 113.468 97.5451 113.708C95.3792 129.392 92.3141 151.819 90.8438 161.733L76.3398 160.747C77.5436 151.147 78.8553 133.052 79.9913 118.978C80.2149 116.216 80.4311 113.608 80.6381 111.25C80.7653 109.92 81.2191 108.641 81.9591 107.529C82.699 106.416 83.7024 105.503 84.8799 104.872C86.3733 104.05 88.0722 103.677 89.7723 103.798C90.2542 103.831 90.7326 103.902 91.203 104.011C95.3611 104.98 98.2228 108.808 97.6442 112.996Z" fill="url(#paint10_linear)"/>
<path d="M65.8803 105.623L49.6339 105.41L49.3574 84.4429L61.9788 87.6644L65.8803 105.623Z" fill="url(#paint11_linear)"/>
<path d="M125.89 154.866L125.021 150.255L111.066 153.797L111.945 158.982L125.89 154.866Z" fill="url(#paint12_linear)"/>
<path d="M91.5869 156.411L90.8429 161.738L76.3398 160.751L77.1337 155.405L91.5869 156.411Z" fill="url(#paint13_linear)"/>
<path d="M121.827 160.859L136.84 159.505C137.311 159.463 137.783 159.585 138.175 159.851C138.567 160.117 138.854 160.511 138.988 160.965C139.142 161.486 139.082 162.047 138.823 162.524C138.563 163.002 138.124 163.356 137.603 163.51L117.446 169.459L115.889 162.689L121.827 160.859Z" fill="url(#paint14_linear)"/>
<path d="M85.5614 163.279L98.8658 170.033C99.2776 170.232 99.6046 170.572 99.7878 170.991C99.9709 171.41 99.9981 171.881 99.8645 172.319C99.6909 172.824 99.3281 173.243 98.8524 173.487C98.3766 173.731 97.8248 173.781 97.313 173.626L77.1875 167.854L79.5899 161.641L85.5614 163.279Z" fill="url(#paint15_linear)"/>
<path d="M61.6742 86.4435C61.9634 86.4435 62.1979 86.209 62.1979 85.9198C62.1979 85.6305 61.9634 85.396 61.6742 85.396C61.3849 85.396 61.1504 85.6305 61.1504 85.9198C61.1504 86.209 61.3849 86.4435 61.6742 86.4435Z" fill="#001065"/>
<path d="M70.1625 37.0571C70.1625 37.0571 78.0669 40.6682 86.1908 44.9636C95.1982 49.7259 104.413 55.4458 102.05 60.5343C96.8475 71.738 64.1687 47.5331 64.1687 47.5331C59.6715 42.9928 64.5758 36.098 70.1625 37.0571Z" fill="#EB8F90"/>
<path d="M83.8846 42.1981C82.4948 47.5527 79.8359 52.9029 75.9079 58.2487L59.1191 45.3874L65.5684 34.4409L83.8846 42.1981Z" fill="#F0B50F"/>
<path d="M119.695 38.0417C119.695 38.0417 87.2022 51.6118 91.1652 60.9279C95.6335 71.4331 123.542 42.9117 123.542 42.9117C123.542 42.9117 124.228 39.8125 119.695 38.0417Z" fill="#EB8F90"/>
<path d="M117.687 38.9186C117.687 38.9186 117.528 36.6241 118.391 34.9603C119.253 33.2965 120.024 32.2865 120.01 30.0809C119.995 27.8754 122.251 28.1789 122.183 30.0949C122.115 32.011 121.598 35.0409 123.776 34.305C125.955 33.569 128.252 27.7758 130.412 30.8271C130.412 30.8271 132.03 28.5035 132.885 29.357C133.74 30.2106 132.287 32.3277 132.287 32.3277C132.287 32.3277 135.471 32.4899 130.897 37.1775C130.897 37.1775 132.155 38.0472 131.377 39.0769C130.133 40.7239 126.226 42.9181 122.805 43.6507C117.246 44.8417 117.687 38.9186 117.687 38.9186Z" fill="#EB8F90"/>
<path d="M125.291 36.2241C129.91 32.5727 130.561 30.9603 130.587 30.8925L130.241 30.7593C130.234 30.7749 129.565 32.3716 125.061 35.9331L125.291 36.2241Z" fill="#D16B70"/>
<path d="M126.784 37.7933C129.373 36.0892 132.399 32.4821 132.429 32.4456L132.145 32.2085C132.115 32.2443 129.123 35.8101 126.58 37.4841L126.784 37.7933Z" fill="#D16B70"/>
<path d="M127.492 39.7123C129.05 38.7072 130.985 37.3412 131.004 37.3282L130.791 37.0254C130.771 37.0389 128.842 38.4006 127.291 39.4002L127.492 39.7123Z" fill="#D16B70"/>
<path d="M78.2298 90.315C78.2298 90.315 77.6793 41.1692 67.0434 35.1309C60.946 31.6691 48.3266 32.6092 41.8913 37.3919C35.3965 42.2186 40.5227 89.0057 40.5227 89.0057L78.2298 90.315Z" fill="#F0B50F"/>
<path d="M47.6776 44.4136C47.6776 44.4136 52.6846 51.5161 57.5367 59.3204C62.9164 67.9734 67.993 77.5579 63.3868 80.7619C53.2479 87.8162 37.2196 50.4411 37.2196 50.4411C35.6248 44.2529 43.3355 40.7696 47.6776 44.4136Z" fill="#EB8F90"/>
<path d="M54.7637 52.5503C50.5195 57.1302 45.3695 60.1429 39.7186 62.2915L34.6182 49.5997C33.8498 47.6877 33.8078 45.5605 34.5002 43.6196C35.1927 41.6788 36.5716 40.0585 38.3768 39.0647L44.6969 35.5835L54.7637 52.5503Z" fill="#F0B50F"/>
<path d="M94.6282 73.8838C94.6282 73.8838 57.1328 65.7414 55.6801 76.3312C54.0422 88.273 95.5114 80.5123 95.5114 80.5123C95.5114 80.5123 97.8471 78.2242 94.6282 73.8838Z" fill="#EB8F90"/>
<path d="M92.2912 73.4141C92.2912 73.4141 93.4039 71.3091 95.1153 70.3848C96.8268 69.4606 98.0939 69.0516 99.2917 67.1128C100.49 65.174 102.409 66.8299 101.294 68.4643C100.178 70.0986 98.0372 72.4308 100.456 73.1288C102.874 73.8269 108.18 70.1738 108.501 74.1738C108.501 74.1738 111.274 73.1362 111.596 74.4109C111.918 75.6856 109.411 76.6397 109.411 76.6397C109.411 76.6397 112.266 78.743 105.462 80.0258C105.462 80.0258 106.148 81.5617 104.863 81.9833C102.809 82.6581 97.9914 82.1701 94.4258 80.7048C88.6298 78.3233 92.2912 73.4141 92.2912 73.4141Z" fill="#EB8F90"/>
<path d="M100.784 75.726C107.06 75.376 108.548 74.3667 108.609 74.3238L108.395 74.0205C108.381 74.0307 106.883 75.0144 100.764 75.3556L100.784 75.726Z" fill="#D16B70"/>
<path d="M101.697 78.0244C104.996 78.0244 109.413 76.8305 109.459 76.818L109.361 76.46C109.314 76.4728 104.589 77.7493 101.316 77.6476L101.305 78.0185C101.434 78.0225 101.564 78.0244 101.697 78.0244Z" fill="#D16B70"/>
<path d="M105.432 80.2125H105.462V79.8417C105.439 79.8438 102.907 79.8438 100.921 79.7634L100.906 80.1343C102.78 80.2109 105.139 80.2125 105.432 80.2125Z" fill="#D16B70"/>
<path d="M75.6311 57.4775L76.3687 57.399C76.3595 57.3115 75.3935 48.5725 71.6107 41.1099L70.9492 41.4454C74.6675 48.7833 75.6207 57.3917 75.6311 57.4775Z" fill="#251138"/>
<path d="M57.7695 43.0603C58.4034 43.0582 59.0355 42.9947 59.6571 42.8706C65.0793 41.8074 66.2638 34.9591 66.3115 34.6682L65.5795 34.5477C65.5684 34.6139 64.4279 41.1791 59.5144 42.1424C54.9665 43.0347 51.1683 40.4441 48.2244 34.4446L47.5586 34.7713C50.2616 40.2807 53.6901 43.0603 57.7695 43.0603Z" fill="#251138"/>
<path d="M38.7381 59.7916C39.1945 59.5749 49.947 54.4375 53.0657 50.4613L52.4819 50.0034C49.4707 53.8426 38.5302 59.0691 38.4199 59.1213L38.7381 59.7916Z" fill="#251138"/>
<path d="M75.5736 53.6087C78.2448 50.1157 81.3443 41.5621 81.4747 41.1996L80.7771 40.948C80.7451 41.036 77.5859 49.756 74.9844 53.1589L75.5736 53.6087Z" fill="#251138"/>
<path d="M63.6728 71.6579L67.0318 71.2605L66.9451 70.5238L64.1256 70.8572L62.4533 67.1548L61.7773 67.4602L63.6728 71.6579Z" fill="#D16B70"/>
<path d="M57.4057 40.0239C61.5235 40.0239 63.4009 35.112 62.2945 33.982C61.9625 33.6235 61.6991 33.207 61.5175 32.7533H61.5145C61.2352 32.0696 61.0471 31.3521 60.9551 30.6193L60.952 30.6163L53.3393 23.6819C53.7504 28.0968 51.9003 31.1965 51.2291 33.4032C50.5578 35.6099 52.7226 40.0239 57.4057 40.0239Z" fill="#EB8F90"/>
<path d="M54.6742 28.903C56.8572 33.1671 61.3859 32.7441 61.513 32.7531C61.2338 32.0694 61.0457 31.3519 60.9537 30.6192L60.9506 30.6161C60.745 30.4961 52.628 24.9066 54.6742 28.903Z" fill="#D16B70"/>
<path d="M45.8086 15.7496C45.8086 15.7496 46.1358 19.7804 51.8737 23.9297C57.8893 28.2823 51.0417 14.9048 51.0417 14.9048L45.8086 15.7496Z" fill="#251138"/>
<path d="M61.4714 13.3293C61.4714 13.3293 62.2838 16.802 63.337 20.6995C64.8424 26.2715 64.9709 30.7765 59.4131 30.7765C50.0783 30.7765 50.7 14.9587 50.7 14.9587L61.4714 13.3293Z" fill="#EB8F90"/>
<path d="M53.7005 16.7439C53.7005 16.7439 67.698 16.4239 65.7691 6.75683C63.8403 -2.91019 58.3494 9.07145 55.5025 9.07145C52.1631 9.07145 43.0679 9.56819 46.4059 17.6848C47.2728 19.7926 48.6567 17.0735 53.7005 16.7439Z" fill="#251138"/>
<path d="M51.7072 28.1033C53.2627 28.1033 54.5238 26.8156 54.5238 25.2272C54.5238 23.6387 53.2627 22.3511 51.7072 22.3511C50.1516 22.3511 48.8906 23.6387 48.8906 25.2272C48.8906 26.8156 50.1516 28.1033 51.7072 28.1033Z" fill="#EB8F90"/>
<path d="M62.5438 25.1763L59.584 25.5661C59.584 25.5661 59.8704 28.2473 61.4934 28.0035C63.1164 27.7598 62.5438 25.1763 62.5438 25.1763Z" fill="white"/>
<path d="M57.807 19.8048C58.1039 19.8048 58.3446 19.5591 58.3446 19.2559C58.3446 18.9528 58.1039 18.707 57.807 18.707C57.5102 18.707 57.2695 18.9528 57.2695 19.2559C57.2695 19.5591 57.5102 19.8048 57.807 19.8048Z" fill="#251138"/>
<path d="M61.1586 19.0463C61.4555 19.0463 61.6961 18.8005 61.6961 18.4974C61.6961 18.1942 61.4555 17.9485 61.1586 17.9485C60.8617 17.9485 60.6211 18.1942 60.6211 18.4974C60.6211 18.8005 60.8617 19.0463 61.1586 19.0463Z" fill="#251138"/>
<path d="M60.6799 23.3323C60.3867 23.3298 60.0975 23.2636 59.8324 23.1384L60.042 22.6833C60.7617 23.0153 61.3698 22.7308 61.5358 22.3974C61.684 22.0965 61.4796 21.7634 60.9893 21.5059C59.2553 20.5963 59.5031 18.7045 59.5059 18.6843L60.002 18.7555L59.754 18.7201L60.002 18.7547C59.9501 19.2173 60.0388 19.6847 60.2563 20.0962C60.4739 20.5076 60.8104 20.844 61.2219 21.0615C62.1193 21.5322 62.194 22.1942 61.9854 22.6181C61.8544 22.8456 61.6632 23.0326 61.4329 23.1586C61.2026 23.2846 60.9421 23.3447 60.6799 23.3323Z" fill="#251138"/>
<path d="M56.2144 18.3232L55.7559 18.1211C55.9001 17.7745 56.1352 17.4731 56.4363 17.2489C56.7375 17.0247 57.0936 16.8859 57.4671 16.8472L57.4931 17.3477L57.4801 17.0973L57.4946 17.3477C57.2136 17.3814 56.9467 17.4896 56.7217 17.6611C56.4966 17.8326 56.3215 18.0612 56.2144 18.3232Z" fill="#251138"/>
<path d="M59.96 16.7891L59.666 16.3834C60.5625 15.7338 61.7369 16.0093 61.7867 16.0214L61.6681 16.5084C61.6589 16.5062 60.6664 16.2772 59.96 16.7891Z" fill="#251138"/>
<path d="M115.036 107.651C114.576 107.914 114.091 108.131 113.587 108.297C112.195 108.758 110.703 108.828 109.274 108.5C107.844 108.171 106.533 107.457 105.481 106.434C104.43 105.412 103.679 104.12 103.311 102.701C102.943 101.281 102.972 99.7876 103.394 98.3831C103.546 97.8731 103.749 97.3799 104.001 96.9109C105.232 97.2677 106.461 97.6263 107.69 97.9869C109.248 98.47 110.667 99.3241 111.823 100.476C112.98 101.628 113.839 103.043 114.328 104.6C114.558 105.591 114.794 106.608 115.036 107.651Z" fill="url(#paint16_linear)"/>
<path d="M97.6437 112.999C97.6112 113.236 97.5787 113.471 97.5446 113.71C95.9821 115.007 93.9852 115.662 91.958 115.542C89.9308 115.423 88.0247 114.538 86.6253 113.066C85.2259 111.595 84.4377 109.647 84.4202 107.616C84.4027 105.586 85.1572 103.624 86.5311 102.129C88.096 102.749 89.6529 103.378 91.202 104.015C95.3606 104.983 98.2222 108.81 97.6437 112.999Z" fill="url(#paint17_linear)"/>
<path d="M84.4916 162.064L81.9141 162.949L82.3581 164.242L84.9357 163.357L84.4916 162.064Z" fill="#30354F"/>
<path d="M84.9843 97.7484C78.3297 94.3103 71.4913 91.3764 71.3128 91.3167L70.8535 92.6041C74.784 94.1565 97.4005 104.538 97.5466 108.395L98.9126 108.344C98.8564 106.857 97.351 104.139 84.9843 97.7484Z" fill="#30354F"/>
<path d="M69.1934 115.165L79.4344 119.206L79.0138 123.837L80.375 123.961L80.8886 118.31L69.6953 113.893L69.1934 115.165Z" fill="#30354F"/>
<path d="M314.044 143.806C313.784 143.285 313.001 137.805 316.828 132.065C320.654 126.325 317.523 122.759 319.959 120.41C322.394 118.062 324.133 119.193 324.133 119.193C324.366 118.499 324.742 117.863 325.237 117.323C325.731 116.784 326.333 116.354 327.003 116.062C329.265 115.105 332.831 115.714 334.918 119.106C337.005 122.498 336.744 123.715 335.614 130.412C334.484 137.109 339.005 138.066 338.919 142.328C338.833 146.589 344.311 151.547 346.225 162.592C348.138 173.638 345.442 179.03 337.005 177.9C328.569 176.769 314.044 143.806 314.044 143.806Z" fill="#251138"/>
<path d="M352.772 280.089L340.693 287.584C340.313 287.82 340.027 288.179 339.883 288.602C339.739 289.025 339.745 289.484 339.902 289.903C340.082 290.383 340.444 290.771 340.911 290.984C341.377 291.196 341.909 291.214 342.388 291.035L360.951 284.086L358.284 278.101L352.772 280.089Z" fill="url(#paint18_linear)"/>
<path d="M350.947 275.818L356.435 273.763L358.266 278.653C358.493 279.26 358.47 279.932 358.201 280.522C357.933 281.112 357.441 281.571 356.834 281.798L355.923 282.139C355.316 282.366 354.644 282.343 354.054 282.075C353.464 281.806 353.005 281.314 352.778 280.707L350.947 275.818Z" fill="#FB855F"/>
<path d="M320.791 282.017L307.57 287.24C307.154 287.405 306.808 287.708 306.591 288.098C306.374 288.488 306.299 288.942 306.379 289.381C306.424 289.631 306.518 289.869 306.655 290.082C306.792 290.296 306.97 290.48 307.179 290.625C307.387 290.769 307.622 290.871 307.87 290.925C308.118 290.979 308.374 290.983 308.624 290.938L328.127 287.405L326.569 281.041L320.791 282.017Z" fill="url(#paint19_linear)"/>
<path d="M319.754 277.493L325.52 276.449L326.45 281.586C326.566 282.224 326.423 282.881 326.054 283.414C325.685 283.947 325.119 284.311 324.481 284.426L323.525 284.6C322.887 284.715 322.229 284.573 321.697 284.203C321.164 283.834 320.8 283.268 320.684 282.63L319.754 277.493L319.754 277.493Z" fill="#FB855F"/>
<path d="M275.54 124.94C275.54 124.94 284.305 132.44 290.275 139.889C292.055 142.106 293.587 144.323 294.567 146.331C296.082 149.454 296.264 152.08 293.961 153.465C293.611 153.677 293.228 153.827 292.828 153.91C292.825 153.909 292.822 153.908 292.821 153.91C292.476 153.981 292.123 154.006 291.771 153.985C291.762 153.986 291.753 153.986 291.745 153.984C291.006 153.924 290.284 153.737 289.609 153.432C287.919 152.711 286.087 151.334 284.243 149.594C276.934 142.705 269.398 130.151 269.398 130.151C270.552 125.72 275.54 124.94 275.54 124.94Z" fill="#F0B50F"/>
<path d="M319.494 153.679C319.494 153.679 304.785 156.544 294.823 154.988C291.495 154.47 288.699 153.459 287.154 151.685C287.154 151.682 287.155 151.679 287.151 151.68C286.92 151.414 286.715 151.127 286.54 150.822C286.535 150.814 286.531 150.806 286.527 150.798C286.163 150.149 285.945 149.429 285.887 148.688C285.865 148.458 285.857 148.227 285.863 147.996C285.911 145.966 287.61 144.579 290.214 143.653C292.291 142.913 294.944 142.464 297.799 142.21C307.3 141.372 319.02 142.707 319.02 142.707C323.601 144.156 324.649 152.009 319.494 153.679Z" fill="#F0B50F"/>
<path d="M292.181 142.653L290.223 147.305L290.815 147.555L292.774 142.902L292.181 142.653Z" fill="#251138"/>
<path d="M313.239 241.788C311.17 241.789 309.18 240.998 307.676 239.577C306.172 238.157 305.27 236.214 305.154 234.149C304.15 215.992 303.709 197.393 304.134 183.752H321.854C321.294 199.291 321.157 217.373 321.336 233.6C321.348 234.671 321.147 235.734 320.746 236.727C320.344 237.719 319.75 238.623 318.997 239.384C318.244 240.146 317.347 240.751 316.359 241.163C315.37 241.576 314.31 241.788 313.239 241.788Z" fill="url(#paint20_linear)"/>
<path d="M311.178 222.65C310.095 222.846 309.064 223.261 308.148 223.87C307.232 224.479 306.45 225.269 305.851 226.191C305.251 227.113 304.847 228.148 304.662 229.232C304.477 230.316 304.516 231.427 304.776 232.496C308.485 247.727 313.873 269.993 316.345 279.742L329.837 277.299C327.264 266.148 323.25 243.057 320.535 229.051C320.131 226.968 318.922 225.128 317.17 223.93C315.419 222.731 313.266 222.272 311.178 222.65Z" fill="url(#paint21_linear)"/>
<path d="M331.512 237.093C329.443 237.112 327.446 236.339 325.93 234.931C324.414 233.523 323.495 231.589 323.361 229.524C322.199 211.377 321.597 192.783 321.904 179.138L339.624 178.984C339.198 194.528 339.218 212.61 339.538 228.835C339.559 229.906 339.368 230.97 338.975 231.967C338.582 232.963 337.995 233.872 337.249 234.64C336.502 235.408 335.611 236.02 334.626 236.441C333.641 236.862 332.583 237.084 331.512 237.093Z" fill="url(#paint22_linear)"/>
<path d="M329.643 223.824C328.624 224.239 327.701 224.857 326.929 225.641C326.158 226.426 325.556 227.36 325.159 228.385C324.762 229.411 324.579 230.507 324.621 231.606C324.663 232.705 324.93 233.784 325.404 234.776C332.169 248.918 342.026 269.599 346.449 278.631L359.15 273.462C354.337 263.079 345.657 241.309 340.117 228.161C339.293 226.206 337.731 224.654 335.771 223.842C333.81 223.031 331.608 223.024 329.643 223.824Z" fill="url(#paint23_linear)"/>
<path d="M304.135 183.751C304.135 183.751 304.588 147.786 314.505 142.667C320.191 139.732 331.957 140.529 337.958 144.584C344.014 148.676 339.736 183.751 339.736 183.751H304.135Z" fill="#F0B50F"/>
<path d="M275.618 125.769C275.618 125.769 275.206 123.868 274.066 122.679C272.926 121.489 272.022 120.815 271.506 119.015C270.99 117.215 269.122 117.898 269.639 119.446C270.156 120.994 271.325 123.364 269.275 123.185C267.225 123.005 263.863 118.727 262.734 121.632C262.734 121.632 260.786 120.049 260.255 120.91C259.723 121.771 261.48 123.215 261.48 123.215C261.48 123.215 258.779 123.963 263.836 126.899C263.836 126.899 262.961 127.851 263.877 128.54C265.34 129.642 269.227 130.674 272.346 130.613C277.415 130.511 275.618 125.769 275.618 125.769Z" fill="#FD8B66"/>
<path d="M264.481 123.102C265.757 123.832 267.077 124.482 268.434 125.049L268.561 124.754C263.831 122.72 262.87 121.546 262.862 121.534L262.607 121.73C262.631 121.761 263.01 122.238 264.481 123.102Z" fill="#E56542"/>
<path d="M263.433 124.629C264.73 125.419 266.1 126.084 267.523 126.615L267.625 126.31C265.034 125.437 261.606 123.107 261.572 123.083L261.391 123.349C261.408 123.36 262.259 123.939 263.433 124.629Z" fill="#E56542"/>
<path d="M263.781 127.049C263.801 127.057 265.793 127.796 267.373 128.314L267.473 128.008C265.899 127.492 263.913 126.755 263.893 126.748L263.781 127.049Z" fill="#E56542"/>
<path d="M325.066 147.186C321.315 147.186 319.605 142.804 320.613 141.796C320.915 141.477 321.154 141.105 321.321 140.699H321.324C321.578 140.091 321.749 139.451 321.833 138.796L321.836 138.793L328.77 132.607C328.395 136.545 330.081 139.31 330.692 141.28C331.303 143.249 329.331 147.186 325.066 147.186Z" fill="#FB855F"/>
<path d="M327.552 137.263C325.563 141.066 321.438 140.689 321.322 140.697C321.576 140.088 321.748 139.448 321.832 138.794L321.834 138.791C322.022 138.684 329.416 133.697 327.552 137.263Z" fill="#E56542"/>
<path d="M335.629 125.531C335.629 125.531 335.331 129.126 330.105 132.829C324.625 136.712 330.864 124.778 330.864 124.778L335.629 125.531Z" fill="#251138"/>
<path d="M321.36 123.368C321.36 123.368 320.62 126.466 319.66 129.943C318.289 134.914 318.172 138.932 323.235 138.932C331.738 138.932 331.172 124.822 331.172 124.822L321.36 123.368Z" fill="#FB855F"/>
<path d="M307.93 152.618L306.619 157.957L307.243 158.11L308.554 152.772L307.93 152.618Z" fill="#251138"/>
<path d="M313.09 201.813L328.397 201.117L323.527 185.81L316.221 184.766L313.09 201.813Z" fill="url(#paint24_linear)"/>
<path d="M322.455 194.479L322.508 193.839L318.666 193.519L319.843 183.936L319.206 183.857L317.947 194.104L322.455 194.479Z" fill="#251138"/>
<path d="M330.028 136.105C331.601 136.105 332.876 134.83 332.876 133.257C332.876 131.683 331.601 130.408 330.028 130.408C328.455 130.408 327.18 131.683 327.18 133.257C327.18 134.83 328.455 136.105 330.028 136.105Z" fill="#FB855F"/>
<path d="M304.257 199.504L306.33 197.675L307.032 183.624L306.391 183.592L305.702 197.372L303.832 199.022L304.257 199.504Z" fill="#251138"/>
<path d="M339.12 201.063L339.438 200.505L336.952 199.085L336.519 184.589L335.877 184.609L336.32 199.464L339.12 201.063Z" fill="#251138"/>
<path d="M316.346 279.744L315.123 275.491L328.381 272.56L329.838 277.3L316.346 279.744Z" fill="#251138"/>
<path d="M344.148 273.837L346.449 278.63L359.15 273.461L356.799 268.665L344.148 273.837Z" fill="#251138"/>
<path d="M325.292 149.677C330.311 149.677 331.699 146.65 333.158 142.17L332.547 141.971C330.866 147.134 329.466 149.506 323.905 148.962C318.369 148.419 318.699 141.422 318.716 141.125L318.074 141.088C318.07 141.167 317.692 148.999 323.842 149.601C324.357 149.653 324.839 149.677 325.292 149.677Z" fill="#251138"/>
<path d="M331.065 126.988C331.065 126.988 330.37 124.553 327.936 125.133C325.501 125.713 324.341 126.873 323.065 126.293C321.789 125.713 321.363 123.37 321.363 123.37C321.363 123.37 323.645 115.972 330.951 118.059C338.256 120.145 335.357 126.292 335.357 126.292L332.806 127.452L331.065 126.988Z" fill="#251138"/>
<path d="M331.892 179.537C331.894 179.532 331.898 179.527 331.902 179.524C332.059 179.3 332.204 179.08 332.329 178.859C332.81 178.088 333.053 177.193 333.029 176.284C333.01 175.975 332.952 175.67 332.856 175.375C332.205 173.363 330.454 172.674 328.087 172.852C325.951 173.008 323.315 173.868 320.53 175.091C311.49 179.061 300.9 186.852 300.9 186.852C300.9 186.852 300.528 191.883 304.585 194.012C304.585 194.012 319.338 189.256 327.594 183.476C329.422 182.201 330.929 180.873 331.892 179.537Z" fill="#F0B50F"/>
<path d="M302.698 186.695C302.698 186.695 300.774 186.084 299.189 186.543C297.604 187.001 296.596 187.507 294.719 187.048C292.843 186.588 292.666 188.73 294.312 189.055C295.958 189.379 298.639 189.516 297.592 191.376C296.544 193.235 291.166 194.181 293.349 196.79C293.349 196.79 291.056 197.811 291.618 198.772C292.18 199.734 294.265 198.822 294.265 198.822C294.265 198.822 293.789 201.791 298.665 198.522C298.665 198.522 299.163 199.858 300.19 199.349C301.833 198.536 304.456 195.377 305.74 192.371C307.83 187.487 302.698 186.695 302.698 186.695Z" fill="#FD8B66"/>
<path d="M293.375 196.947C293.437 196.937 294.938 196.662 298.94 193.143L298.728 192.902C294.827 196.332 293.337 196.627 293.322 196.63L293.375 196.947Z" fill="#E56542"/>
<path d="M294.345 198.958C294.382 198.937 298.039 196.878 299.989 194.836L299.756 194.615C297.839 196.621 294.224 198.657 294.188 198.678L294.345 198.958Z" fill="#E56542"/>
<path d="M298.78 198.633C298.795 198.618 300.332 197.11 301.488 195.877L301.254 195.657C300.102 196.885 298.57 198.389 298.555 198.404L298.78 198.633Z" fill="#E56542"/>
<path d="M322.425 173.926L322.074 174.465L324.446 176.011L324.797 175.473L322.425 173.926Z" fill="#251138"/>
<path d="M326.005 130.729C326.333 130.729 326.599 130.463 326.599 130.135C326.599 129.806 326.333 129.54 326.005 129.54C325.676 129.54 325.41 129.806 325.41 130.135C325.41 130.463 325.676 130.729 326.005 130.729Z" fill="#8E3332"/>
<path d="M322.299 129.911C322.628 129.911 322.894 129.644 322.894 129.316C322.894 128.988 322.628 128.722 322.299 128.722C321.971 128.722 321.705 128.988 321.705 129.316C321.705 129.644 321.971 129.911 322.299 129.911Z" fill="#8E3332"/>
<path d="M323.172 134.063C323.441 134.061 323.706 134.002 323.95 133.889L323.686 133.303C323.121 133.559 322.637 133.348 322.52 133.104C322.382 132.818 322.815 132.568 322.951 132.498C323.405 132.267 323.777 131.903 324.018 131.453C324.258 131.004 324.355 130.493 324.296 129.987L323.66 130.077C323.7 130.451 323.626 130.828 323.447 131.158C323.268 131.489 322.992 131.757 322.657 131.927C321.818 132.358 321.747 132.981 321.941 133.383C322.063 133.599 322.243 133.778 322.46 133.898C322.678 134.018 322.924 134.075 323.172 134.063Z" fill="#8E3332"/>
<path d="M321.265 135.106L323.522 135.448C323.522 135.448 323.146 136.918 322.12 136.748C321.093 136.578 321.265 135.106 321.265 135.106Z" fill="white"/>
<path d="M327.726 129.147L328.312 128.884C328.145 128.499 327.878 128.165 327.539 127.918C327.2 127.671 326.801 127.518 326.383 127.477L326.35 128.119L326.366 127.798L326.348 128.119C326.648 128.154 326.933 128.267 327.175 128.448C327.417 128.628 327.607 128.87 327.726 129.147Z" fill="#8E3332"/>
<path d="M323.6 127.511L323.972 126.987C322.966 126.273 321.651 126.575 321.596 126.588L321.744 127.213C321.754 127.211 322.835 126.968 323.6 127.511Z" fill="#8E3332"/>
<path d="M331.298 134.113L331.933 134.015C331.765 132.921 330.679 132.552 330.129 132.509L330.079 133.149L330.104 132.829L330.078 133.149C330.122 133.153 331.165 133.252 331.298 134.113Z" fill="#8E3332"/>
<path d="M331.176 234.964C334.031 234.964 336.346 232.649 336.346 229.794C336.346 226.938 334.031 224.624 331.176 224.624C328.321 224.624 326.006 226.938 326.006 229.794C326.006 232.649 328.321 234.964 331.176 234.964Z" fill="#251138"/>
<path d="M312.118 239.198C315.095 239.198 317.508 236.785 317.508 233.808C317.508 230.832 315.095 228.418 312.118 228.418C309.142 228.418 306.729 230.832 306.729 233.808C306.729 236.785 309.142 239.198 312.118 239.198Z" fill="#251138"/>
<path d="M333.883 176.007C338.368 168.64 339.403 157.975 339.413 157.868L338.773 157.809C338.763 157.914 337.74 168.434 333.334 175.673L333.883 176.007Z" fill="#251138"/>
<path d="M311.27 179.425L304.523 183.601L304.862 184.148L311.609 179.971L311.27 179.425Z" fill="#251138"/>
<path d="M218.121 253.925H170.96C169.184 253.925 167.744 255.364 167.744 257.14V287.152C167.744 288.928 169.184 290.368 170.96 290.368H218.121C219.897 290.368 221.337 288.928 221.337 287.152V257.14C221.337 255.364 219.897 253.925 218.121 253.925Z" fill="url(#paint25_linear)"/>
<path d="M239.558 279.65H151.934C150.158 279.65 148.719 281.09 148.719 282.866V287.957C148.719 289.733 150.158 291.172 151.934 291.172H239.558C241.334 291.172 242.774 289.733 242.774 287.957V282.866C242.774 281.09 241.334 279.65 239.558 279.65Z" fill="url(#paint26_linear)"/>
<path d="M261.158 114.415C261.371 113.471 261.65 112.544 261.994 111.639C262.326 110.774 262.773 109.957 263.324 109.212C263.906 108.435 264.618 107.765 265.429 107.231C266.397 106.609 267.459 106.145 268.574 105.859C269.197 105.688 270.025 105.461 271.056 105.179C272.107 104.89 273.136 104.528 274.136 104.095C275.138 103.666 276.074 103.097 276.916 102.404C277.725 101.754 278.288 100.848 278.514 99.8355C278.836 98.4255 278.575 97.2083 277.73 96.1841C276.903 95.1701 275.755 94.4678 274.476 94.1924C273.694 93.998 272.879 93.9847 272.091 94.1535C271.377 94.3147 270.685 94.5645 270.033 94.897C269.396 95.2235 265.956 96.7519 264.576 98.6791L259.212 92.3899C260.918 90.0381 263.698 85.2111 266.57 84.8829C270.581 84.4246 273.715 85.3197 276.749 86.0127C278.397 86.3932 279.983 87.0051 281.459 87.8304C282.943 88.6443 284.25 89.7451 285.304 91.0687C286.382 92.4505 287.145 94.0517 287.537 95.7596C287.977 97.5692 287.934 99.6274 287.408 101.934C286.852 104.37 285.884 106.295 284.504 107.711C283.124 109.126 281.31 110.229 279.062 111.019C278.052 111.405 277.02 111.733 275.972 111.999C274.999 112.243 274.041 112.542 273.103 112.895C272.281 113.195 271.518 113.637 270.849 114.201C270.215 114.763 269.782 115.517 269.616 116.347L261.158 114.415ZM257.764 130.161L259.96 120.548L268.355 122.465L266.159 132.079L257.764 130.161Z" fill="#F0B50F"/>
<path d="M256.826 113.427C257.039 112.483 257.318 111.555 257.662 110.651C257.994 109.785 258.441 108.968 258.992 108.223C259.574 107.446 260.286 106.776 261.097 106.243C262.065 105.62 263.127 105.157 264.242 104.871C264.865 104.699 265.693 104.472 266.724 104.19C267.775 103.902 268.804 103.54 269.804 103.107C270.806 102.678 271.742 102.108 272.584 101.415C273.393 100.765 273.956 99.8593 274.182 98.8468C274.504 97.4368 274.243 96.2196 273.398 95.1953C272.571 94.1814 271.423 93.4791 270.144 93.2036C269.362 93.0094 268.547 92.9961 267.759 93.1648C267.045 93.326 266.353 93.5759 265.701 93.9086C265.076 94.2268 264.497 94.6275 263.979 95.0998C263.468 95.5678 263.013 95.9811 262.617 96.3396L257.069 90.2173C258.71 87.9124 261.052 86.2002 263.747 85.3365C266.552 84.4329 269.553 84.3248 272.416 85.024C274.064 85.4045 275.65 86.0164 277.126 86.8416C278.61 87.6557 279.917 88.7565 280.971 90.0803C282.049 91.4619 282.812 93.063 283.204 94.7709C283.644 96.5805 283.601 98.6387 283.075 100.945C282.519 103.381 281.551 105.306 280.171 106.722C278.791 108.137 276.977 109.241 274.729 110.031C273.719 110.417 272.687 110.744 271.639 111.011C270.667 111.254 269.709 111.554 268.77 111.907C267.948 112.206 267.185 112.648 266.517 113.213C265.883 113.775 265.45 114.528 265.284 115.359L256.826 113.427ZM253.432 129.173L255.627 119.559L264.023 121.477L261.827 131.09L253.432 129.173Z" fill="#F0B50F"/>
<path d="M129.1 31.0308C129.321 30.0493 129.612 29.0847 129.97 28.1443C130.314 27.2444 130.78 26.3953 131.352 25.6203C131.957 24.8123 132.698 24.1154 133.541 23.5608C134.548 22.9131 135.653 22.4314 136.813 22.1342C137.461 21.9555 138.321 21.7196 139.394 21.4264C140.486 21.1265 141.556 20.75 142.596 20.2997C143.638 19.8536 144.612 19.2614 145.487 18.5408C146.328 17.8647 146.914 16.9231 147.149 15.8703C147.484 14.404 147.212 13.1382 146.333 12.0728C145.473 11.0188 144.28 10.2887 142.95 10.0027C142.137 9.80065 141.289 9.78679 140.47 9.96212C139.727 10.1297 139.008 10.3895 138.33 10.7356C137.667 11.0751 134.091 12.6642 132.655 14.6682L127.078 8.12834C128.851 5.6826 131.742 0.663319 134.728 0.322125C138.899 -0.15422 142.158 0.776417 145.313 1.49722C147.027 1.89284 148.676 2.52915 150.211 3.38719C151.754 4.23342 153.113 5.3779 154.21 6.75408C155.33 8.19096 156.123 9.85599 156.531 11.6321C156.99 13.5131 156.945 15.6532 156.397 18.0524C155.819 20.5848 154.812 22.587 153.377 24.059C151.943 25.5309 150.056 26.6778 147.718 27.4996C146.668 27.9011 145.595 28.2415 144.505 28.5192C143.494 28.7722 142.498 29.0833 141.522 29.4508C140.667 29.7621 139.874 30.2218 139.178 30.8087C138.52 31.3932 138.07 32.1768 137.898 33.0403L129.1 31.0308ZM125.57 47.4041L127.854 37.4078L136.584 39.4018L134.301 49.3982L125.57 47.4041Z" fill="#DB8631"/>
<path d="M124.596 30.0031C124.817 29.0215 125.108 28.057 125.466 27.1166C125.81 26.2166 126.276 25.3675 126.849 24.5926C127.453 23.7845 128.194 23.0876 129.037 22.5331C130.044 21.8856 131.148 21.4039 132.308 21.1064C132.956 20.9278 133.816 20.6919 134.889 20.3987C135.981 20.0988 137.051 19.7223 138.091 19.2719C139.133 18.8259 140.107 18.2337 140.982 17.5131C141.823 16.837 142.409 15.8954 142.644 14.8426C142.979 13.3763 142.707 12.1105 141.829 11.0451C140.968 9.99106 139.775 9.26103 138.445 8.97494C137.632 8.77281 136.784 8.75894 135.965 8.93439C135.222 9.10205 134.503 9.36189 133.825 9.70783C133.175 10.0388 132.573 10.4554 132.034 10.9465C131.502 11.4332 131.03 11.863 130.618 12.2358L124.849 5.86956C126.556 3.47282 128.992 1.69244 131.794 0.794325C134.648 -0.142241 137.653 -0.250598 140.808 0.469253C142.522 0.864836 144.171 1.50115 145.706 2.35922C147.249 3.20562 148.608 4.35007 149.705 5.72612C150.825 7.16298 151.618 8.82791 152.026 10.6038C152.485 12.4849 152.44 14.6251 151.892 17.0244C151.314 19.5567 150.307 21.5589 148.872 23.031C147.437 24.5031 145.551 25.65 143.213 26.4716C142.163 26.8732 141.09 27.2136 140 27.4912C138.989 27.7443 137.993 28.0553 137.018 28.4225C136.163 28.7341 135.369 29.1938 134.674 29.7804C134.015 30.3652 133.566 31.1488 133.394 32.0123L124.596 30.0031ZM121.066 46.3764L123.35 36.3798L132.08 38.3741L129.797 48.3705L121.066 46.3764Z" fill="#FFAA40"/>
<path d="M202.182 62.3315H165.462C162.875 62.3315 160.777 64.4289 160.777 67.016V74.2608C160.777 76.848 162.875 78.9453 165.462 78.9453H202.182C204.769 78.9453 206.867 76.848 206.867 74.2608V67.016C206.867 64.4289 204.769 62.3315 202.182 62.3315Z" fill="#FFAA40"/>
<path d="M370.463 199.796H354.643C352.056 199.796 349.959 201.893 349.959 204.481V211.725C349.959 214.313 352.056 216.41 354.643 216.41H370.463C373.05 216.41 375.147 214.313 375.147 211.725V204.481C375.147 201.893 373.05 199.796 370.463 199.796Z" fill="#F0B50F"/>
<path d="M36.8496 261.697H21.0302C18.443 261.697 16.3457 263.794 16.3457 266.381V273.626C16.3457 276.213 18.443 278.311 21.0302 278.311H36.8496C39.4368 278.311 41.5341 276.213 41.5341 273.626V266.381C41.5341 263.794 39.4368 261.697 36.8496 261.697Z" stroke="#494E6D" stroke-width="5" stroke-miterlimit="10"/>
<path d="M289.137 62.198H273.317C270.73 62.198 268.633 64.2953 268.633 66.8825V67.9642C268.633 70.5513 270.73 72.6486 273.317 72.6486H289.137C291.724 72.6486 293.821 70.5513 293.821 67.9642V66.8825C293.821 64.2953 291.724 62.198 289.137 62.198Z" stroke="#494E6D" stroke-width="5" stroke-miterlimit="10"/>
<path d="M362.022 147.141H358.261C355.674 147.141 353.576 149.239 353.576 151.826V152.908C353.576 155.495 355.674 157.592 358.261 157.592H362.022C364.609 157.592 366.706 155.495 366.706 152.908V151.826C366.706 149.239 364.609 147.141 362.022 147.141Z" stroke="#494E6D" stroke-width="5" stroke-miterlimit="10"/>
<path d="M272.254 267.457H268.493C265.906 267.457 263.809 269.554 263.809 272.141V273.223C263.809 275.81 265.906 277.907 268.493 277.907H272.254C274.841 277.907 276.939 275.81 276.939 273.223V272.141C276.939 269.554 274.841 267.457 272.254 267.457Z" stroke="#494E6D" stroke-width="5" stroke-miterlimit="10"/>
<path d="M23.4525 164.424H13.5282C10.9411 164.424 8.84375 166.522 8.84375 169.109V176.354C8.84375 178.941 10.9411 181.038 13.5282 181.038H23.4525C26.0397 181.038 28.137 178.941 28.137 176.354V169.109C28.137 166.522 26.0397 164.424 23.4525 164.424Z" fill="#494E6D"/>
<path d="M361.888 71.4419H351.964C349.377 71.4419 347.279 73.5392 347.279 76.1264V83.3711C347.279 85.9583 349.377 88.0556 351.964 88.0556H361.888C364.475 88.0556 366.573 85.9583 366.573 83.3711V76.1264C366.573 73.5392 364.475 71.4419 361.888 71.4419Z" fill="#494E6D"/>
<defs>
<linearGradient id="paint0_linear" x1="178.244" y1="95.5576" x2="178.244" y2="263.302" gradientUnits="userSpaceOnUse">
<stop stop-color="#B0BECD"/>
<stop offset="0.847875" stop-color="#02298A"/>
<stop offset="1" stop-color="#144591"/>
</linearGradient>
<linearGradient id="paint1_linear" x1="194.146" y1="95.5576" x2="194.146" y2="263.302" gradientUnits="userSpaceOnUse">
<stop stop-color="#1C6FC4"/>
<stop offset="0.847875" stop-color="#02298A"/>
<stop offset="1" stop-color="#144591"/>
</linearGradient>
<linearGradient id="paint2_linear" x1="142.891" y1="153.434" x2="142.891" y2="212.901" gradientUnits="userSpaceOnUse">
<stop stop-color="#1C6FC4"/>
<stop offset="0.847875" stop-color="#02298A"/>
<stop offset="1" stop-color="#144591"/>
</linearGradient>
<linearGradient id="paint3_linear" x1="188.076" y1="153.434" x2="188.076" y2="212.9" gradientUnits="userSpaceOnUse">
<stop stop-color="#1C6FC4"/>
<stop offset="0.847875" stop-color="#02298A"/>
<stop offset="1" stop-color="#144591"/>
</linearGradient>
<linearGradient id="paint4_linear" x1="248.73" y1="153.016" x2="248.73" y2="213.321" gradientUnits="userSpaceOnUse">
<stop stop-color="#1C6FC4"/>
<stop offset="0.847875" stop-color="#02298A"/>
<stop offset="1" stop-color="#144591"/>
</linearGradient>
<linearGradient id="paint5_linear" x1="83.259" y1="157.142" x2="83.259" y2="165.874" gradientUnits="userSpaceOnUse">
<stop stop-color="#1C6FC4"/>
<stop offset="0.847875" stop-color="#02298A"/>
<stop offset="1" stop-color="#144591"/>
</linearGradient>
<linearGradient id="paint6_linear" x1="119.971" y1="164.749" x2="117.671" y2="156.954" gradientUnits="userSpaceOnUse">
<stop stop-color="#1C6FC4"/>
<stop offset="0.847875" stop-color="#02298A"/>
<stop offset="1" stop-color="#144591"/>
</linearGradient>
<linearGradient id="paint7_linear" x1="82.7317" y1="84.7102" x2="82.7317" y2="114.807" gradientUnits="userSpaceOnUse">
<stop stop-color="#1C6FC4"/>
<stop offset="0.847875" stop-color="#02298A"/>
<stop offset="1" stop-color="#144591"/>
</linearGradient>
<linearGradient id="paint8_linear" x1="111.664" y1="97.9763" x2="111.664" y2="158.983" gradientUnits="userSpaceOnUse">
<stop stop-color="#1C6FC4"/>
<stop offset="0.847875" stop-color="#02298A"/>
<stop offset="1" stop-color="#144591"/>
</linearGradient>
<linearGradient id="paint9_linear" x1="68.1893" y1="86.1011" x2="68.1893" y2="121.239" gradientUnits="userSpaceOnUse">
<stop stop-color="#1C6FC4"/>
<stop offset="0.847875" stop-color="#02298A"/>
<stop offset="1" stop-color="#144591"/>
</linearGradient>
<linearGradient id="paint10_linear" x1="87.0292" y1="103.776" x2="87.0292" y2="161.733" gradientUnits="userSpaceOnUse">
<stop stop-color="#1C6FC4"/>
<stop offset="0.847875" stop-color="#02298A"/>
<stop offset="1" stop-color="#144591"/>
</linearGradient>
<linearGradient id="paint11_linear" x1="57.6189" y1="84.4429" x2="57.6189" y2="105.623" gradientUnits="userSpaceOnUse">
<stop stop-color="#1C6FC4"/>
<stop offset="0.847875" stop-color="#02298A"/>
<stop offset="1" stop-color="#144591"/>
</linearGradient>
<linearGradient id="paint12_linear" x1="118.478" y1="150.255" x2="118.478" y2="158.982" gradientUnits="userSpaceOnUse">
<stop stop-color="#1C6FC4"/>
<stop offset="0.847875" stop-color="#02298A"/>
<stop offset="1" stop-color="#144591"/>
</linearGradient>
<linearGradient id="paint13_linear" x1="83.9634" y1="155.405" x2="83.9634" y2="161.738" gradientUnits="userSpaceOnUse">
<stop stop-color="#1C6FC4"/>
<stop offset="0.847875" stop-color="#02298A"/>
<stop offset="1" stop-color="#144591"/>
</linearGradient>
<linearGradient id="paint14_linear" x1="127.48" y1="159.497" x2="127.48" y2="169.459" gradientUnits="userSpaceOnUse">
<stop stop-color="#1C6FC4"/>
<stop offset="0.847875" stop-color="#02298A"/>
<stop offset="1" stop-color="#144591"/>
</linearGradient>
<linearGradient id="paint15_linear" x1="88.5678" y1="161.641" x2="88.5678" y2="173.714" gradientUnits="userSpaceOnUse">
<stop stop-color="#1C6FC4"/>
<stop offset="0.847875" stop-color="#02298A"/>
<stop offset="1" stop-color="#144591"/>
</linearGradient>
<linearGradient id="paint16_linear" x1="109.045" y1="96.9109" x2="109.045" y2="108.703" gradientUnits="userSpaceOnUse">
<stop stop-color="#1C6FC4"/>
<stop offset="0.847875" stop-color="#02298A"/>
<stop offset="1" stop-color="#144591"/>
</linearGradient>
<linearGradient id="paint17_linear" x1="91.069" y1="102.129" x2="91.069" y2="115.556" gradientUnits="userSpaceOnUse">
<stop stop-color="#1C6FC4"/>
<stop offset="0.847875" stop-color="#02298A"/>
<stop offset="1" stop-color="#144591"/>
</linearGradient>
<linearGradient id="paint18_linear" x1="350.365" y1="278.101" x2="350.365" y2="291.157" gradientUnits="userSpaceOnUse">
<stop stop-color="#B0BECD"/>
<stop offset="0.847875" stop-color="#02298A"/>
<stop offset="1" stop-color="#144591"/>
</linearGradient>
<linearGradient id="paint19_linear" x1="317.237" y1="281.041" x2="317.237" y2="290.969" gradientUnits="userSpaceOnUse">
<stop stop-color="#B0BECD"/>
<stop offset="0.847875" stop-color="#02298A"/>
<stop offset="1" stop-color="#144591"/>
</linearGradient>
<linearGradient id="paint20_linear" x1="312.914" y1="183.752" x2="312.914" y2="241.788" gradientUnits="userSpaceOnUse">
<stop stop-color="#B0BECD"/>
<stop offset="0.847875" stop-color="#02298A"/>
<stop offset="1" stop-color="#144591"/>
</linearGradient>
<linearGradient id="paint21_linear" x1="317.192" y1="222.521" x2="317.192" y2="279.742" gradientUnits="userSpaceOnUse">
<stop stop-color="#B0BECD"/>
<stop offset="0.847875" stop-color="#02298A"/>
<stop offset="1" stop-color="#144591"/>
</linearGradient>
<linearGradient id="paint22_linear" x1="330.724" y1="178.984" x2="330.724" y2="237.094" gradientUnits="userSpaceOnUse">
<stop stop-color="#B0BECD"/>
<stop offset="0.847875" stop-color="#02298A"/>
<stop offset="1" stop-color="#144591"/>
</linearGradient>
<linearGradient id="paint23_linear" x1="341.883" y1="223.229" x2="341.883" y2="278.631" gradientUnits="userSpaceOnUse">
<stop stop-color="#B0BECD"/>
<stop offset="0.847875" stop-color="#02298A"/>
<stop offset="1" stop-color="#144591"/>
</linearGradient>
<linearGradient id="paint24_linear" x1="320.743" y1="184.766" x2="320.743" y2="201.813" gradientUnits="userSpaceOnUse">
<stop stop-color="#B0BECD"/>
<stop offset="0.847875" stop-color="#02298A"/>
<stop offset="1" stop-color="#144591"/>
</linearGradient>
<linearGradient id="paint25_linear" x1="194.54" y1="253.925" x2="194.54" y2="290.368" gradientUnits="userSpaceOnUse">
<stop stop-color="#1C6FC4"/>
<stop offset="0.847875" stop-color="#02298A"/>
<stop offset="1" stop-color="#144591"/>
</linearGradient>
<linearGradient id="paint26_linear" x1="195.746" y1="279.65" x2="195.746" y2="291.172" gradientUnits="userSpaceOnUse">
<stop stop-color="#1C6FC4"/>
<stop offset="0.847875" stop-color="#02298A"/>
<stop offset="1" stop-color="#144591"/>
</linearGradient>
</defs>
</svg>
