<svg width="289" height="354" viewBox="0 0 289 354" fill="none" xmlns="http://www.w3.org/2000/svg">
<g clip-path="url(#clip0_44_304)">
<mask id="mask0_44_304" style="mask-type:alpha" maskUnits="userSpaceOnUse" x="58" y="320" width="78" height="18">
<path fill-rule="evenodd" clip-rule="evenodd" d="M58.8093 320.334H135.859V337.304H58.8093V320.334Z" fill="white"/>
</mask>
<g mask="url(#mask0_44_304)">
<path fill-rule="evenodd" clip-rule="evenodd" d="M63.5937 327.722C61.2748 328.847 58.7352 330.568 58.811 332.995C58.8738 335.013 60.873 336.607 62.9877 337.081C65.1024 337.555 67.3156 337.176 69.4615 336.845C79.4492 335.308 89.6311 334.86 99.7305 335.515C111.567 336.283 124.636 338.277 134.334 331.934C134.922 331.549 135.52 331.1 135.754 330.468C136.167 329.352 135.295 328.186 134.347 327.399C131.256 324.835 127.026 323.894 122.985 323.041C103.32 318.887 81.9093 318.836 63.5937 327.722" fill="#ECEDEF"/>
</g>
<path fill-rule="evenodd" clip-rule="evenodd" d="M136.67 117.615C135.701 118.448 135.162 119.62 134.752 120.784C131.255 130.699 135.384 141.576 141.176 150.518C145.916 157.836 153.7 164.644 163.351 159.953C169.789 156.824 170.536 151.652 168.934 145.539C166.842 137.554 149.882 106.267 136.67 117.615" fill="#ECEDEF"/>
<path fill-rule="evenodd" clip-rule="evenodd" d="M174.969 248.595C173.877 251.79 172.599 254.918 171.163 257.939C168.592 263.349 165.506 268.424 162.039 272.954C159.935 275.701 157.628 278.277 155.141 280.659C142.07 293.178 124.051 300.34 104.904 298.772C93.4233 297.832 81.8292 296.012 71.4841 291.3C63.5764 287.697 56.6582 282.515 50.556 276.583C49.155 275.224 47.7993 273.825 46.4869 272.397C45.4838 271.313 44.5075 270.21 43.5529 269.096C38.4822 263.171 34.301 256.982 30.9573 250.613C5.48533 202.114 28.5699 143.237 77.073 111.618C90.6264 102.782 120.594 96.1476 122.374 118.482C123.924 137.948 128.711 157.223 145.053 171.002C150.538 175.627 157.003 179.179 162.406 183.887C181.211 200.269 182.656 226.111 174.969 248.595" fill="#F4F4F5"/>
<path fill-rule="evenodd" clip-rule="evenodd" d="M174.969 248.595C173.877 251.791 172.599 254.918 171.163 257.939C168.592 263.349 165.506 268.424 162.038 272.954C159.935 275.701 157.628 278.277 155.141 280.659C142.07 293.178 124.051 300.34 104.904 298.772C93.4233 297.832 81.8292 296.012 71.484 291.3C63.5763 287.697 56.6581 282.515 50.5559 276.583C49.1549 275.224 47.7992 273.825 46.4869 272.397C45.4838 271.313 44.5074 270.21 43.5528 269.096C38.4821 263.171 34.3009 256.982 30.9572 250.613C44.3135 239.687 64.2952 235.667 82.1938 238.672C98.3737 241.387 113.245 248.857 129.351 251.924C144.491 254.804 160.497 253.622 174.969 248.595" fill="#ECEDEF"/>
<path fill-rule="evenodd" clip-rule="evenodd" d="M171.163 257.939C168.592 263.35 165.506 268.425 162.039 272.954C159.936 275.701 157.628 278.277 155.141 280.66C142.07 293.179 124.051 300.34 104.904 298.772C93.4235 297.832 81.8293 296.013 71.4841 291.3C63.5763 287.697 56.6583 282.515 50.5561 276.584C49.1551 275.225 47.7993 273.826 46.4869 272.397C49.8556 268.279 57.9289 265.27 62.3191 263.432C76.0281 257.69 91.5845 255.648 106.435 258.006C115.161 259.393 123.582 262.191 132.337 263.398C145.479 265.209 159.16 263.204 171.163 257.939" fill="#E1E3E6"/>
<path fill-rule="evenodd" clip-rule="evenodd" d="M36.0602 267.947C35.891 267.947 35.723 267.879 35.6073 267.748C28.2857 259.462 22.8391 249.285 19.4187 237.498C16.5535 227.624 15.1082 216.635 15 203.903C14.9973 203.603 15.2573 203.358 15.5805 203.356H15.5852C15.9062 203.356 16.1676 203.596 16.1701 203.895C16.2775 216.533 17.7097 227.432 20.5488 237.216C23.9257 248.853 29.2967 258.894 36.5124 267.06C36.7172 267.292 36.6808 267.634 36.4309 267.824C36.322 267.906 36.1908 267.947 36.0602 267.947" fill="#ECEDEF"/>
<path fill-rule="evenodd" clip-rule="evenodd" d="M42.0845 261.237C41.8973 261.237 41.7135 261.154 41.6002 260.999C36.6659 254.27 32.5399 247.016 29.3368 239.44C29.2188 239.16 29.3671 238.845 29.6678 238.736C29.9688 238.626 30.3083 238.764 30.4262 239.043C33.5975 246.545 37.6824 253.726 42.5678 260.388C42.7496 260.636 42.6803 260.974 42.4132 261.143C42.3124 261.206 42.1978 261.237 42.0845 261.237" fill="white"/>
<path fill-rule="evenodd" clip-rule="evenodd" d="M49.4717 270.445C49.3108 270.445 49.1507 270.384 49.0351 270.264C47.3541 268.518 45.8318 266.622 44.5103 264.627C44.3412 264.372 44.4271 264.037 44.7024 263.88C44.9778 263.723 45.3381 263.803 45.5073 264.059C46.7924 265.998 48.273 267.843 49.9078 269.54C50.1232 269.764 50.1023 270.107 49.8614 270.307C49.7497 270.399 49.6104 270.445 49.4717 270.445" fill="white"/>
<path fill-rule="evenodd" clip-rule="evenodd" d="M165.702 151.853H165.691C165.368 151.848 165.111 151.601 165.116 151.301C165.184 147.708 164.482 144.037 163.085 140.685C162.968 140.406 163.118 140.092 163.42 139.983C163.721 139.875 164.06 140.014 164.176 140.294C165.628 143.775 166.357 147.588 166.286 151.32C166.281 151.617 166.02 151.853 165.702 151.853" fill="white"/>
<path fill-rule="evenodd" clip-rule="evenodd" d="M155.141 280.66C142.07 293.178 124.051 300.34 104.904 298.772C93.4233 297.832 81.8293 296.012 71.4841 291.3C63.5763 287.697 56.6581 282.515 50.5559 276.583C55.9996 272.349 63.7 270.199 70.9608 270.26C81.9915 270.353 92.4787 274.331 103.021 277.348C116.221 281.123 130.08 283.456 143.842 282.384C147.638 282.088 151.429 281.517 155.141 280.66" fill="#D4D8DC"/>
<path fill-rule="evenodd" clip-rule="evenodd" d="M110.233 309.47C109.898 309.883 110.233 318.976 110.233 318.976H101.105L98.8113 304.923L110.233 309.47Z" fill="#6A8295"/>
<path fill-rule="evenodd" clip-rule="evenodd" d="M99.8632 318.056V323.53C99.8632 324.953 100.909 326.181 102.367 326.466L106.101 327.197L112.211 329.667C115.94 331.175 120.024 331.697 124.039 331.179L126.869 330.814C127.634 330.714 128.119 330.094 128.119 329.444C128.119 329.147 128.017 328.84 127.793 328.579C126.983 327.629 125.927 326.898 124.735 326.456L122.593 325.661C120.827 325.005 119.155 324.15 117.614 323.12C116.183 322.165 114.862 321.058 113.679 319.819L110.797 316.798C110.35 316.328 109.716 316.06 109.051 316.06H105.915C105.605 316.06 105.299 316.119 105.018 316.231C104.755 316.333 104.514 316.48 104.303 316.668L103.463 317.418C102.882 317.938 101.975 317.94 101.391 317.42C100.81 316.903 99.8632 317.297 99.8632 318.056" fill="#234662"/>
<path fill-rule="evenodd" clip-rule="evenodd" d="M104.303 316.668L110.052 322.037C111.192 323.101 112.77 323.623 114.353 323.457L117.615 323.12C116.184 322.165 114.862 321.058 113.679 319.819L110.797 316.798C110.35 316.328 109.717 316.06 109.051 316.06H105.916C105.605 316.06 105.299 316.119 105.019 316.231L104.303 316.668Z" fill="#011533"/>
<path fill-rule="evenodd" clip-rule="evenodd" d="M99.8632 322.547V323.53C99.8632 324.952 100.909 326.18 102.367 326.465L106.101 327.197L112.211 329.666C115.94 331.174 120.024 331.697 124.039 331.179L126.869 330.813C127.634 330.714 128.119 330.094 128.119 329.443C128.119 329.146 128.017 328.84 127.793 328.579C127.621 328.632 127.449 328.684 127.279 328.733C122.266 330.191 116.871 329.903 112.008 328.038C108.232 326.591 105.688 325.749 104.1 325.271C102.615 324.823 101.279 324.013 100.222 322.919L99.8632 322.547Z" fill="#060D16"/>
<path fill-rule="evenodd" clip-rule="evenodd" d="M83.2682 309.47C83.6035 309.883 83.2682 318.976 83.2682 318.976H92.3958L94.6895 304.923L83.2682 309.47Z" fill="#6A8295"/>
<path fill-rule="evenodd" clip-rule="evenodd" d="M122.599 215.026C122.12 244.428 117.287 273.758 113.34 303.052C112.947 305.96 112.556 308.868 112.163 311.777C112.021 312.831 111.163 313.643 110.097 313.795C109.966 313.813 109.832 313.822 109.695 313.821C107.813 313.791 105.932 313.768 104.048 313.763C104.001 313.763 103.956 313.763 103.909 313.765C103.627 313.767 103.342 313.779 103.06 313.795C102.542 313.822 102.032 313.855 101.56 313.847C101.517 313.847 101.473 313.846 101.43 313.844C101.209 313.838 100.997 313.821 100.798 313.787C100.768 313.782 100.738 313.777 100.708 313.771C100.666 313.763 100.624 313.756 100.584 313.745C100.559 313.739 100.534 313.734 100.51 313.726C100.46 313.714 100.412 313.7 100.365 313.685C100.322 313.671 100.28 313.657 100.239 313.64C100.238 313.64 100.236 313.638 100.234 313.638C100.206 313.627 100.179 313.616 100.154 313.604C100.124 313.591 100.096 313.577 100.067 313.563C100.062 313.56 100.057 313.559 100.054 313.556C100.025 313.542 99.9972 313.526 99.9705 313.511C99.9385 313.492 99.9085 313.473 99.8785 313.453C99.8433 313.428 99.8081 313.404 99.7747 313.377C99.7431 313.352 99.7113 313.326 99.6811 313.298L99.666 313.284C99.6376 313.256 99.6075 313.227 99.5808 313.196C99.5507 313.163 99.5206 313.128 99.4923 313.09C99.489 313.087 99.4871 313.086 99.4856 313.083C99.4606 313.048 99.4353 313.013 99.4121 312.976C99.3333 312.856 99.2665 312.72 99.2113 312.566C99.2014 312.54 99.1931 312.515 99.1845 312.487C99.1762 312.461 99.168 312.434 99.1595 312.406C99.1478 312.365 99.1361 312.321 99.1262 312.278C99.1143 312.234 99.106 312.189 99.0959 312.143C99.0959 312.138 99.0943 312.135 99.0943 312.132C99.0759 312.031 99.0592 311.926 99.0491 311.812C99.0426 311.757 99.0374 311.699 99.0341 311.64C98.9672 310.576 98.9438 309.509 98.9154 308.443C98.897 307.789 98.8803 307.134 98.8654 306.48C98.8569 306.072 98.8485 305.665 98.8402 305.259C98.8385 305.199 98.8368 305.14 98.8368 305.079V305.077C98.8351 305.029 98.8351 304.981 98.8336 304.933C98.8236 304.353 98.8134 303.774 98.8034 303.194C98.7967 302.741 98.79 302.289 98.7852 301.836C98.7716 300.804 98.7599 299.771 98.7482 298.74C98.6512 289.591 98.6412 280.443 98.6429 271.296C98.6462 261.876 98.673 252.458 98.7131 243.038C98.7367 237.793 98.7616 232.548 98.7967 227.304C98.7984 226.819 98.8 226.335 98.8034 225.851C98.805 225.444 98.8084 225.036 98.8117 224.628C98.8 224.866 98.79 225.103 98.7785 225.342C98.7298 226.391 98.6813 227.438 98.6328 228.486C98.4272 232.93 98.2232 237.375 98.0176 241.819C97.5746 251.392 97.1332 260.966 96.6902 270.539C96.2572 279.934 95.8243 289.329 95.3897 298.723C95.2374 302.02 95.0836 305.319 94.9333 308.617C94.8696 309.949 95.1705 311.642 94.9532 312.895C94.9264 313.05 94.8746 313.185 94.801 313.306C94.791 313.323 94.7794 313.34 94.7676 313.356C94.7559 313.374 94.7425 313.391 94.7291 313.408C94.6138 313.556 94.4616 313.677 94.2811 313.774C94.241 313.796 94.1992 313.818 94.1574 313.836C94.154 313.838 94.1507 313.84 94.1473 313.841C94.1007 313.863 94.0522 313.881 94.0019 313.9C93.9701 313.912 93.935 313.925 93.9017 313.936C93.6861 314.007 93.4468 314.06 93.1927 314.095H93.186C93.1125 314.106 93.0389 314.116 92.962 314.123C92.2465 314.196 91.4423 314.165 90.7301 314.123C90.2319 314.094 89.7805 314.058 89.4361 314.052C89.3376 314.05 89.2424 314.047 89.1435 314.044C87.2343 313.998 85.245 313.878 83.4027 313.875H83.3257C82.3394 313.875 81.5185 313.159 81.4282 312.222C81.368 311.611 81.3095 311.001 81.2508 310.39C80.8665 306.408 80.4818 302.425 80.0974 298.443C79.4887 292.129 78.8804 285.815 78.2701 279.5C77.5914 272.475 76.916 265.452 76.2372 258.427C75.6487 252.314 75.0569 246.199 74.4667 240.087C74.2542 237.88 74.0722 235.668 73.8298 233.463C73.3015 228.688 73.1125 223.902 72.8466 219.096C72.8183 218.575 72.7865 218.053 72.7563 217.532C72.7279 217.05 72.7013 216.581 72.676 216.124C72.4722 212.331 72.4137 209.307 72.616 205.575C72.6678 204.625 72.7347 203.63 72.8216 202.564C72.835 202.42 72.8451 202.279 72.8517 202.144C72.9454 200.549 72.83 199.515 73.8981 198.145C74.9781 196.76 77.0999 196.076 78.5627 195.351C79.4185 194.928 80.2795 194.54 81.144 194.187C84.9173 192.645 88.796 191.731 92.8701 191.057C93.0372 191.341 92.8084 191.393 93.1476 191.651C94.5018 192.677 105.104 189.237 106.753 189.285C113.221 189.471 121.973 186.746 122.306 194.877C122.448 198.362 122.547 201.846 122.599 205.323C122.614 206.386 122.625 207.447 122.632 208.508C122.647 210.681 122.635 212.852 122.599 215.026" fill="#1D2F49"/>
<path fill-rule="evenodd" clip-rule="evenodd" d="M93.6374 318.056V323.53C93.6374 324.953 92.5915 326.181 91.1331 326.466L87.3989 327.197L81.2897 329.667C77.5607 331.175 73.4763 331.697 69.4614 331.179L66.6316 330.814C65.8664 330.714 65.3819 330.094 65.3819 329.444C65.3819 329.147 65.4838 328.84 65.7074 328.579C66.5173 327.629 67.5732 326.898 68.7657 326.456L70.9073 325.661C72.6738 325.005 74.3458 324.15 75.8862 323.12C77.3171 322.165 78.6389 321.058 79.8215 319.819L82.7034 316.798C83.1506 316.328 83.7841 316.06 84.45 316.06H87.5853C87.8958 316.06 88.2014 316.119 88.4823 316.231C88.7456 316.333 88.9865 316.48 89.1976 316.668L90.0374 317.418C90.6189 317.938 91.5257 317.94 92.1095 317.42C92.6906 316.903 93.6374 317.297 93.6374 318.056" fill="#234662"/>
<path fill-rule="evenodd" clip-rule="evenodd" d="M89.1977 316.668L83.4488 322.037C82.3085 323.101 80.7308 323.623 79.1482 323.457L75.8861 323.12C77.3172 322.165 78.639 321.058 79.8215 319.819L82.7035 316.798C83.1507 316.328 83.7842 316.06 84.4501 316.06H87.5853C87.8959 316.06 88.2015 316.119 88.4822 316.231L89.1977 316.668Z" fill="#011533"/>
<path fill-rule="evenodd" clip-rule="evenodd" d="M93.6374 322.547V323.53C93.6374 324.952 92.5915 326.18 91.1331 326.465L87.3989 327.197L81.2897 329.666C77.5607 331.174 73.4763 331.697 69.4614 331.179L66.6316 330.813C65.8664 330.714 65.3819 330.094 65.3819 329.443C65.3819 329.146 65.4838 328.84 65.7074 328.579C65.8798 328.632 66.0512 328.684 66.2214 328.733C71.2343 330.191 76.6292 329.903 81.4924 328.038C85.2682 326.591 87.8125 325.749 89.4001 325.271C90.8859 324.823 92.2215 324.013 93.2782 322.919L93.6374 322.547Z" fill="#060D16"/>
<path fill-rule="evenodd" clip-rule="evenodd" d="M84.3575 310.236C84.1492 306.307 83.984 302.377 83.796 298.447L83.3048 286.656C83.1317 282.726 83.0067 278.795 82.8591 274.864L82.4309 263.071L82.0629 251.277C81.9464 247.345 81.8045 243.414 81.7127 239.482L81.4088 227.685C81.332 223.752 81.2322 219.82 81.1759 215.886C81.3847 219.815 81.5499 223.745 81.7383 227.675L82.2298 239.466C82.4033 243.396 82.5264 247.327 82.6748 251.258L83.1025 263.051L83.4698 274.845C83.5873 278.777 83.7273 282.708 83.8195 286.64L84.1236 298.437C84.2009 302.37 84.3007 306.302 84.3575 310.236" fill="#234662"/>
<path fill-rule="evenodd" clip-rule="evenodd" d="M109.368 310.236C109.576 306.307 109.741 302.377 109.929 298.447L110.42 286.656C110.593 282.726 110.719 278.795 110.866 274.864L111.294 263.071L111.662 251.277C111.779 247.345 111.921 243.414 112.013 239.482L112.316 227.685C112.393 223.752 112.493 219.82 112.55 215.886C112.341 219.815 112.175 223.745 111.987 227.675L111.495 239.466C111.322 243.396 111.199 247.327 111.05 251.258L110.623 263.051L110.256 274.845C110.138 278.777 109.998 282.708 109.906 286.64L109.602 298.437C109.524 302.37 109.425 306.302 109.368 310.236" fill="#234662"/>
<path fill-rule="evenodd" clip-rule="evenodd" d="M89.1434 314.045L98.6332 228.486C98.4274 232.93 98.2231 237.375 98.0173 241.819C97.5751 251.393 97.1329 260.966 96.6905 270.54C96.2564 279.935 95.8239 289.328 95.3897 298.722C95.2369 302.021 95.0839 305.32 94.9329 308.617C94.8701 309.95 95.1708 311.642 94.9538 312.895C94.8154 313.7 93.9777 314.019 92.9612 314.123H89.1354L89.1434 314.045Z" fill="#081A35"/>
<path fill-rule="evenodd" clip-rule="evenodd" d="M103.91 313.765C101.613 313.787 99.2155 314.455 99.0338 311.641C98.9663 310.577 98.9437 309.509 98.9149 308.443C98.8232 305.209 98.7829 301.973 98.7476 298.739C98.6511 289.591 98.6414 280.444 98.6431 271.296C98.6463 261.876 98.6737 252.458 98.7138 243.038C98.7364 237.793 98.762 232.549 98.7959 227.304L103.91 313.765Z" fill="#081A35"/>
<path fill-rule="evenodd" clip-rule="evenodd" d="M154.741 124.967C154.635 125.273 154.423 125.657 154.148 126.188C153.791 126.878 153.556 127.644 153.266 128.36C153.266 128.36 152.607 131.354 151.546 131.685V134.907L144.167 136.52L143.795 134.907V132.299C143.751 132.234 143.706 132.166 143.66 132.099C142.594 130.535 140.935 128.401 141.887 126.575C141.908 126.533 141.93 126.491 141.956 126.45C141.98 126.407 142.006 126.366 142.034 126.325C142.055 126.294 142.075 126.262 142.094 126.229C142.352 125.805 142.489 125.32 142.485 124.833C142.485 124.756 142.485 124.68 142.486 124.6C142.509 123.176 142.838 121.278 144.267 120.481C144.688 120.247 145.007 119.687 145.284 119.33C145.88 118.564 146.453 117.783 147.033 117.009C148.279 115.345 149.552 113.194 151.312 111.981C151.421 111.906 151.58 111.834 151.681 111.919C151.718 111.951 151.734 111.999 151.75 112.044C152.014 112.853 151.993 113.737 151.715 114.541C151.481 115.213 151.185 115.992 150.843 116.622C150.041 118.094 148.68 119.27 148.109 120.857C148.106 120.868 148.107 120.878 148.112 120.884C148.181 120.988 149 120.86 149.065 120.85C149.837 120.727 150.306 120.449 150.774 121.1C151.013 121.432 151.227 121.783 151.443 122.129C151.511 122.237 151.579 122.345 151.648 122.451C151.883 122.572 152.119 122.693 152.355 122.814C152.531 122.904 152.707 122.995 152.883 123.085C152.975 123.132 153.217 123.211 153.251 123.312C153.262 123.342 153.26 123.374 153.259 123.405C153.348 123.33 153.352 123.328 153.458 123.379C153.535 123.415 153.61 123.456 153.685 123.495C153.821 123.566 153.955 123.639 154.086 123.717C154.274 123.829 154.465 123.952 154.612 124.11C154.845 124.364 154.848 124.658 154.741 124.967" fill="#FFD5CC"/>
<path fill-rule="evenodd" clip-rule="evenodd" d="M151.472 122.457C151.466 122.9 151.229 123.365 151.046 123.734C150.762 124.304 150.471 124.872 150.164 125.432C149.771 126.151 149.365 126.882 148.849 127.533C148.57 127.886 148.351 128.071 148.186 128.114C147.653 128.251 146.879 127.352 146.879 127.352C146.879 127.352 146.286 125.453 147.306 124.183C148.257 123 148.158 121.122 148.141 120.873C148.209 120.977 149.028 120.854 149.093 120.845C149.867 120.726 150.337 120.451 150.801 121.105C151.001 121.387 151.235 121.691 151.379 122.001C151.447 122.147 151.474 122.3 151.472 122.457" fill="#FFD5CC"/>
<path fill-rule="evenodd" clip-rule="evenodd" d="M153.377 123.876C153.377 123.876 151.274 127.721 150.84 128.951C150.789 129.093 150.761 129.2 150.761 129.261C150.757 129.803 149.045 129.279 148.85 128.056C149.47 127.272 150.39 125.662 151.665 122.983L153.206 123.787L153.377 123.876Z" fill="#FFD5CC"/>
<path fill-rule="evenodd" clip-rule="evenodd" d="M153.367 123.333C154.684 123.988 154.978 124.282 154.743 124.964L154.741 124.967C154.67 125.15 152.64 128.837 152.334 128.95C152.064 129.05 150.981 129.03 150.84 128.429C151.274 127.199 153.377 123.354 153.377 123.354" fill="#FFD5CC"/>
<path fill-rule="evenodd" clip-rule="evenodd" d="M148.209 125.921C148.156 125.963 148.103 126.006 148.047 126.049C147.321 126.613 146.424 127.197 146.056 127.739C145.942 127.904 145.88 128.064 145.885 128.219C145.892 128.396 145.976 128.583 146.084 128.785C146.086 128.786 146.086 128.789 146.087 128.79C146.411 129.547 146.773 130.137 146.387 130.886C146.346 130.963 146.298 131.043 146.24 131.126C146.127 131.286 145.978 131.423 145.803 131.537C145.243 131.903 144.414 132.05 143.66 132.099C142.594 130.535 140.935 128.401 141.887 126.576C141.929 126.493 141.978 126.408 142.034 126.325C142.055 126.294 142.075 126.262 142.094 126.229C143.154 125.44 144.938 124.263 147.654 122.919C147.654 122.919 147.905 122.834 148.224 122.757C148.575 122.669 149.007 122.589 149.272 122.639C149.332 122.65 149.376 122.693 149.405 122.762C149.629 123.278 149.056 125.239 148.209 125.921" fill="#FFD5CC"/>
<path fill-rule="evenodd" clip-rule="evenodd" d="M146.387 130.886C146.773 130.137 146.411 129.547 146.087 128.79C146.383 129.343 146.853 130.008 146.387 130.886" fill="#FFD5CC"/>
<path fill-rule="evenodd" clip-rule="evenodd" d="M152.385 129.339C152.502 129.317 152.61 129.268 152.7 129.184C152.667 129.62 152.387 130.407 151.939 130.625C151.561 130.809 150.886 130.797 150.479 130.749C149.936 130.686 149.423 130.484 148.886 130.389C147.421 130.129 147.154 131.43 145.803 131.537C145.978 131.423 146.127 131.286 146.24 131.126C146.298 131.043 146.346 130.963 146.387 130.886C146.773 130.137 146.411 129.547 146.087 128.79C146.086 128.789 146.086 128.786 146.085 128.785C145.948 128.463 145.962 128.102 146.057 127.739C146.424 127.197 147.321 126.613 148.048 126.049C148.103 126.006 148.156 125.963 148.209 125.921C149.056 125.239 149.629 123.278 149.405 122.762C149.649 122.839 149.831 123.071 149.886 123.312C149.949 123.6 149.872 123.898 149.781 124.18C149.444 125.218 148.819 126.282 147.835 126.909C147.435 127.165 146.847 127.347 147.333 127.87C147.848 128.423 149.094 127.845 149.143 127.169C149.109 127.642 148.934 128.291 149.489 128.575C150.135 128.905 150.905 128.455 151.03 127.821C150.874 128.608 151.366 129.539 152.385 129.339" fill="#FF888A" fill-opacity="0.5"/>
<path fill-rule="evenodd" clip-rule="evenodd" d="M148.539 121.263C148.354 121.743 148.248 122.248 148.224 122.756C147.906 122.834 147.655 122.919 147.655 122.919C144.938 124.262 143.154 125.439 142.094 126.229C142.353 125.805 142.489 125.32 142.485 124.832C142.485 124.756 142.485 124.68 142.487 124.6C142.618 124.48 142.763 124.372 142.914 124.273C144.241 123.408 145.968 123.249 147.367 122.488C147.547 122.389 147.728 122.276 147.831 122.106C147.939 121.931 147.949 121.718 148.033 121.534C148.118 121.348 148.341 121.18 148.539 121.263" fill="#FF888A" fill-opacity="0.5"/>
<path fill-rule="evenodd" clip-rule="evenodd" d="M151.379 122.001C151.48 122.229 151.551 122.477 151.559 122.732C151.568 122.986 151.529 123.244 151.437 123.488C151.392 123.609 151.332 123.729 151.269 123.839L151.088 124.169C150.968 124.39 150.841 124.607 150.718 124.826L150.335 125.475C150.202 125.689 150.074 125.906 149.938 126.118C149.669 126.544 149.391 126.966 149.09 127.377C149.292 126.917 149.519 126.469 149.754 126.025C149.869 125.802 149.993 125.584 150.113 125.363L150.486 124.707C150.615 124.491 150.74 124.273 150.872 124.058L151.069 123.736C151.135 123.629 151.199 123.53 151.249 123.42C151.453 122.985 151.492 122.487 151.379 122.001" fill="#FF888A"/>
<path fill-rule="evenodd" clip-rule="evenodd" d="M153.304 123.393C153.376 123.611 153.395 123.848 153.359 124.081C153.322 124.315 153.231 124.539 153.122 124.746C152.897 125.159 152.656 125.546 152.416 125.944C152.17 126.336 151.922 126.727 151.66 127.111C151.4 127.496 151.131 127.876 150.84 128.244C151.035 127.825 151.254 127.418 151.481 127.015C151.706 126.612 151.944 126.216 152.186 125.821L152.558 125.234L152.94 124.656C153.06 124.464 153.169 124.268 153.232 124.056C153.3 123.846 153.318 123.621 153.304 123.393" fill="#FF888A"/>
<path fill-rule="evenodd" clip-rule="evenodd" d="M112.594 105.092L110.661 112.887L110.059 105.808L112.594 105.092Z" fill="#41211E"/>
<path fill-rule="evenodd" clip-rule="evenodd" d="M143.279 136.942V133.538C143.279 133.383 146.042 133.439 146.286 133.462C148.59 133.684 150.557 132.921 152.772 132.523C152.814 133.583 152.794 134.645 152.712 135.703C152.697 135.906 152.678 136.113 152.595 136.302C152.331 136.903 151.543 137.115 150.856 137.238C149.414 137.495 147.961 137.695 146.501 137.836C145.885 137.896 145.26 137.945 144.652 137.838C144.007 137.724 143.751 137.365 143.279 136.942" fill="#E0DBC4"/>
<path fill-rule="evenodd" clip-rule="evenodd" d="M110.67 115.394C111.22 116.14 111.401 117.034 111.394 117.95C111.391 118.527 111.315 119.114 111.211 119.675C110.743 122.217 109.894 127.034 106.791 127.958C106.37 128.085 104.867 128.136 103.844 128.375C103.578 128.436 103.344 128.51 103.172 128.603C102.998 128.695 102.886 128.803 102.859 128.934C102.858 128.94 102.443 131.277 102.663 133.409C102.682 133.581 102.704 133.752 102.73 133.92C102.892 134.929 103.223 135.842 103.845 136.368C105.855 138.071 100.061 144.853 100.061 144.853L88.6453 134.423C88.662 134.4 88.6787 134.377 88.6955 134.353C89.1953 133.674 89.6367 132.945 90.0277 132.207C90.6029 131.111 90.5126 130.204 90.5644 129.011C90.6062 128.067 90.5244 127.13 90.3939 126.199C90.1247 124.274 89.6518 122.371 89.6534 120.452C89.6551 119.854 89.7972 119.88 89.3742 119.314C89.0532 118.883 88.6303 118.509 88.2658 118.102C88.1989 118.028 88.1337 117.953 88.0719 117.876C87.373 117.017 86.5905 115.933 86.7979 114.797C86.9869 113.756 87.913 113.972 88.6453 113.659C88.881 113.558 89.0967 113.392 89.289 113.19C89.7303 112.733 90.0629 112.086 90.2986 111.569C90.8871 110.285 90.4039 108.923 90.9723 107.639C91.2214 107.077 91.7365 106.586 92.3817 106.488C92.763 106.43 93.1474 106.511 93.5286 106.564C94.8677 106.749 95.9895 106.375 97.2818 106.258C98.3219 106.167 99.4569 106.32 100.497 106.362C103.528 106.488 106.567 106.966 109.603 106.621C110.392 106.533 111.247 106.333 111.879 105.917C111.819 106.894 111.596 108.253 111.362 109.517C111.37 110.904 111.136 112.294 110.663 113.609C110.643 113.868 110.626 114.129 110.608 114.389C110.588 114.668 110.568 114.947 110.541 115.225C110.583 115.282 110.626 115.338 110.67 115.394" fill="#FFD5CC"/>
<path fill-rule="evenodd" clip-rule="evenodd" d="M96.8283 138.111C97.1602 138.296 97.5005 138.476 97.8207 138.679C98.2932 138.978 98.8972 139.01 99.4083 138.772C99.6167 138.674 99.8376 138.589 100.04 138.49C100.914 138.062 101.535 137.277 101.917 136.431C102.299 135.585 102.466 134.672 102.63 133.767C103.584 135.57 103.548 137.796 102.536 139.571C102.113 140.313 101.535 140.975 101.164 141.741C100.766 142.56 100.623 143.465 100.485 144.351C100.461 144.501 100.414 144.648 100.328 144.776C99.9073 145.396 99.0717 145.081 98.4928 144.741C97.2127 143.988 95.9531 143.179 94.9266 142.144C94.0511 141.262 93.3646 140.236 92.6837 139.216C91.5261 137.483 90.322 135.667 89.9481 133.624C89.6508 132.001 90.84 133.409 91.3497 133.931C92.0913 134.69 92.889 135.403 93.7349 136.062C94.7061 136.818 95.7413 137.505 96.8283 138.111" fill="#FF888A" fill-opacity="0.5"/>
<path fill-rule="evenodd" clip-rule="evenodd" d="M91.4612 110.048C91.5567 109.364 91.6931 108.507 92.0499 107.801C91.5908 109.126 91.9215 110.376 91.5316 111.767C91.51 111.843 91.402 112.159 91.2623 112.559C91.3759 111.745 91.3395 110.921 91.4612 110.048" fill="#FFD5CC"/>
<path fill-rule="evenodd" clip-rule="evenodd" d="M111.801 105.995C111.169 106.411 110.315 106.611 109.526 106.699C106.49 107.043 103.45 106.566 100.419 106.44C99.3795 106.398 98.2442 106.245 97.2054 106.337C95.8018 106.462 94.6245 107.001 93.1651 106.81C93.0879 106.8 93.0072 106.789 92.9287 106.786C92.9311 106.785 92.9334 106.783 92.9356 106.782C94.7711 105.647 99.7501 102.729 99.7501 102.729H109.185L111.631 104.675C111.804 104.813 111.843 105.309 111.801 105.995" fill="#FFD5CC"/>
<path fill-rule="evenodd" clip-rule="evenodd" d="M101.162 118.013C101.048 118.014 100.936 118.007 100.827 117.991L101.162 118.013Z" stroke="#234662"/>
<path fill-rule="evenodd" clip-rule="evenodd" d="M112.708 105.092C112.577 105.396 112.371 105.646 112.114 105.85C112.05 105.903 111.984 105.95 111.915 105.995C111.825 106.054 111.73 106.109 111.631 106.16C111.21 106.196 110.65 105.908 110.032 105.871C108.784 105.796 107.536 106.077 106.313 106.266C103.74 106.665 101.25 106.306 98.7192 106.327C98.5283 106.318 98.3384 106.312 98.1498 106.31C97.8679 106.305 97.5907 106.313 97.319 106.337C97.294 106.339 97.2679 106.341 97.2428 106.344C96.9201 106.377 96.6087 106.431 96.3019 106.491C96.2996 106.491 96.2984 106.492 96.2962 106.492C95.3063 106.687 94.3709 106.954 93.2787 106.81C93.2015 106.8 93.1207 106.789 93.0423 106.786C92.9843 106.783 92.9277 106.785 92.873 106.795C92.8275 106.802 92.7832 106.815 92.7412 106.836C92.6719 106.869 92.615 106.919 92.5685 106.977C92.5174 107.039 92.4753 107.11 92.4378 107.179C92.3241 107.389 92.2343 107.596 92.164 107.8C91.7047 109.126 92.0356 110.375 91.6457 111.767C91.6241 111.843 91.5161 112.158 91.3762 112.559C91.1786 113.129 90.9159 113.875 90.7534 114.353C90.6944 114.436 90.6227 114.51 90.5286 114.558C90.1171 114.768 89.4148 113.896 88.9885 113.786C88.0997 113.56 86.9883 114.032 86.8338 114.875C86.6269 116.01 87.4099 117.095 88.1078 117.954C88.5102 118.452 89.0306 118.883 89.4113 119.393C89.8341 119.958 89.6908 119.932 89.6898 120.53C89.6887 122.449 90.1614 124.353 90.4308 126.278C89.8374 125.435 89.2443 124.592 88.6509 123.748C87.8077 122.551 86.9644 121.353 86.2087 120.106C85.5654 119.048 84.987 117.956 84.4744 116.838C83.5958 115.694 83.281 114.078 83.1481 112.72C82.9823 111.011 83.1765 109.281 83.5856 107.612C83.5856 107.144 83.9152 106.591 84.0402 106.136C84.1084 105.891 84.1892 105.647 84.2778 105.407C84.3699 105.156 84.5346 104.941 84.3993 104.705C83.9675 103.948 83.4084 103.277 83.2606 102.405C83.1709 101.87 83.1095 101.208 83.5845 100.791C83.9447 100.474 84.4175 100.336 84.8847 100.226C87.4168 99.6212 89.4034 98.0492 91.8161 97.2636C94.8461 96.2767 97.6725 95.0936 100.92 95.0821C104.957 95.0694 108.493 96.9146 111.058 99.7467C112.075 100.87 113.339 103.631 112.708 105.092" fill="#653E37"/>
<path fill-rule="evenodd" clip-rule="evenodd" d="M104.507 96.1568C104.017 95.6851 103.375 95.3516 102.688 95.1461C102.002 94.9271 101.282 94.7991 100.556 94.7833C99.831 94.7673 99.1015 94.8559 98.3985 95.0423C97.6944 95.225 97.0129 95.4858 96.35 95.7823C95.0243 96.379 93.7674 97.1119 92.4381 97.7211C91.7736 98.0251 91.0891 98.2956 90.3803 98.4971C89.6721 98.6989 88.9387 98.8282 88.1992 98.856C88.938 98.815 89.6666 98.6728 90.3674 98.4594C91.0691 98.2463 91.7443 97.9649 92.3997 97.6505C93.7112 97.0204 94.9497 96.2664 96.2743 95.6407C96.9368 95.3296 97.6226 95.0522 98.3397 94.8525C99.0549 94.6488 99.8069 94.5429 100.56 94.546C101.313 94.5491 102.066 94.669 102.782 94.8832C103.503 95.0856 104.201 95.4262 104.751 95.9359L104.507 96.1568Z" fill="#653E37"/>
<path fill-rule="evenodd" clip-rule="evenodd" d="M91.0934 98.1122C90.6071 98.0819 90.1107 98.264 89.6267 98.4593C89.1385 98.6549 88.6514 98.8637 88.1491 99.042C87.6473 99.22 87.1278 99.3682 86.5935 99.4349C86.0612 99.5046 85.5123 99.4912 84.9971 99.3574C85.5193 99.4655 86.0607 99.4509 86.5796 99.3569C87.1006 99.2654 87.5999 99.0954 88.0841 98.8959C88.5684 98.6958 89.0391 98.4653 89.519 98.2442C89.7589 98.1336 90.0044 98.0233 90.2673 97.9377C90.5293 97.8525 90.8122 97.7925 91.1061 97.796L91.0934 98.1122Z" fill="#653E37"/>
<path fill-rule="evenodd" clip-rule="evenodd" d="M98.7588 117.858C98.5906 117.847 98.4281 117.821 98.2711 117.781L98.7588 117.858Z" stroke="#234662"/>
<path fill-rule="evenodd" clip-rule="evenodd" d="M122.599 215.026C119.332 215.835 115.928 216.16 112.547 216.003C112.546 216.004 112.544 216.004 112.543 216.003C108.02 215.797 103.541 214.731 99.5072 212.819C98.1831 212.19 96.854 211.461 95.3711 211.342C94.0788 211.238 92.8032 211.61 91.5677 211.978C89.3477 212.638 79.4051 216.149 72.676 216.124C72.4722 212.331 72.4137 209.307 72.616 205.575C75.3277 204.571 78.2867 203.952 80.0908 203.465C86.2765 201.793 92.5858 200.518 98.9605 199.656C101.96 199.251 105.013 198.936 108.013 199.333C110.961 199.724 113.758 200.791 116.421 202.027C118.546 203.014 120.609 204.115 122.599 205.324C122.614 206.386 122.625 207.447 122.632 208.508C122.647 210.681 122.635 212.853 122.599 215.026" fill="#081A35" fill-opacity="0.5"/>
<path fill-rule="evenodd" clip-rule="evenodd" d="M110.757 135.799C110.757 135.799 110.321 201.288 107.788 203.233C105.254 205.178 90.8389 202.504 91.0144 202.099C91.1883 201.692 83.1351 135.079 83.1351 135.079L84.8404 134.769L85.9087 134.574L85.9973 134.645L88.2241 136.426L92.2365 139.635L99.8467 144.836L99.9838 144.93L100.029 144.83L100.031 144.825L103.769 136.447L103.916 136.433L105.337 136.301L110.757 135.799Z" fill="white"/>
<path fill-rule="evenodd" clip-rule="evenodd" d="M83.1351 135.079C83.1351 135.079 90.7703 150.988 91.956 155.892C92.649 158.758 93.0233 161.699 93.4031 164.613C93.622 166.295 92.7735 170.504 94.3392 171.708C95.2067 172.375 98.2511 171.771 99.2858 171.734C102.286 171.627 102.198 169.802 102.187 167.538C102.177 165.695 102.169 163.89 102.555 162.095C103.035 159.868 103.953 157.64 104.104 155.363C104.24 153.32 104.314 151.273 104.374 149.226C104.45 146.607 104.498 143.985 104.51 141.365L107.438 134.508C107.438 134.508 109.694 184.635 109.685 184.856C109.675 185.077 103.845 203.931 103.844 203.934C103.988 203.47 102.815 201.54 102.635 200.99C102.267 199.87 101.984 198.727 101.717 197.583C101.556 196.897 101.517 193.245 100.549 193.06C99.9988 192.957 99.2912 194.29 99.085 194.613C98.2122 195.982 97.6926 197.526 97.2828 199.061C97.0267 200.02 96.7505 201.296 95.8823 201.964C95.6666 202.13 93.8164 202.687 93.8413 202.845C93.8069 202.627 83.1351 135.079 83.1351 135.079" fill="#081A35" fill-opacity="0.2"/>
<path fill-rule="evenodd" clip-rule="evenodd" d="M108.278 177.899L107.601 179.233L107.062 180.295L106.384 181.634L102.092 190.096L93.3764 178.668L93.5673 177.174L93.8447 175.012L93.8606 174.89L93.9537 174.172L94.2571 171.81L94.2765 171.659L94.4414 170.386L94.747 168.015V168.014L94.7675 167.853L95.1084 165.195L95.3323 163.456V163.455L95.3335 163.448V163.447L95.3597 163.246L95.821 159.658L95.9825 158.399V158.396L96.0119 158.169L96.3677 155.406L96.47 154.612L96.471 154.6L96.5041 154.341L97.2211 148.778L97.2348 148.668L97.2756 148.351L97.4338 147.121L97.4416 147.063L97.4189 147.047L97.3973 147.033L97.4018 147.001L97.4303 146.801L96.8677 146.465L96.7734 146.409L96.6983 146.364L96.5903 146.298L98.8008 144.354L98.9396 144.425L99.0657 144.451H99.0668L99.4861 144.541L99.5055 144.545L100.31 144.716L100.347 144.696L102.258 145.704L102.117 145.975L102.095 146.019L101.993 146.098L101.93 146.148L101.491 146.49L101.507 146.559L101.531 146.658L101.538 146.689L101.5 146.722L101.501 146.729L101.51 146.769L101.561 147.003L102.662 152.064L102.738 152.413L102.817 152.783L103.219 154.63L103.299 154.995L103.418 155.546L104.43 160.202L104.744 161.648L105.04 163.01V163.011L105.404 164.677L108.174 177.421L108.278 177.899Z" fill="#FDAC2A"/>
<path fill-rule="evenodd" clip-rule="evenodd" d="M102.117 145.974L102.094 146.019L101.993 146.098L101.929 146.147L101.491 146.49L101.507 146.558L101.53 146.658L101.42 146.747L101.4 146.764L101.444 146.962L101.455 147.019C101.443 147.027 101.43 147.034 101.418 147.041C100.224 147.755 98.6996 148.32 97.3835 148.621C97.3608 148.625 97.338 148.63 97.3153 148.636L97.5027 147.312L97.5323 147.099L97.5346 147.083L97.4686 147.042L97.4015 147L96.839 146.65L96.7357 146.586L96.8676 146.465L99.0655 144.451H99.0665L99.486 144.54L99.5052 144.545L102.117 145.974Z" fill="#FD922A"/>
<path fill-rule="evenodd" clip-rule="evenodd" d="M103.299 154.995C100.942 156.187 98.3712 157.201 95.9824 158.398C95.9641 158.407 95.9471 158.416 95.929 158.425L96.2905 155.684L96.4291 154.629C96.4426 154.624 96.4563 154.617 96.4699 154.612C98.4792 153.785 100.593 153.037 102.738 152.413L102.817 152.783L103.22 154.63L103.299 154.995Z" fill="#FD922A"/>
<path fill-rule="evenodd" clip-rule="evenodd" d="M105.036 163.233V163.234C101.517 164.748 97.9599 166.206 94.721 168.03L95.0616 165.394L95.3114 163.462C98.3479 162.457 101.384 161.452 104.421 160.448L104.737 161.881L105.036 163.233Z" fill="#FD922A"/>
<path fill-rule="evenodd" clip-rule="evenodd" d="M107.554 177.96L106.906 179.285C102.631 177.664 98.2692 176.237 93.8414 175.011L93.9318 174.298L94.2446 171.806C98.8662 173.33 103.454 175.061 107.456 177.486L107.554 177.96Z" fill="#FD922A"/>
<path fill-rule="evenodd" clip-rule="evenodd" d="M104.51 141.365L103.911 142.518L102.258 145.704L102.117 145.975L102.095 146.019L102.04 146.123L101.93 146.148L97.9633 147.006L97.5327 147.1L97.4339 147.121L97.3076 147.148L97.1871 147.072L96.511 146.649L92.8139 144.336L92.5127 144.147L94.721 142.283L94.9176 142.884L95.1107 143.471L98.8009 144.354L98.9397 144.425L99.0657 144.451H99.0669L99.4862 144.541L99.5056 144.545L100.31 144.716L100.347 144.696L103.483 142.326L103.827 142.067L104.51 141.365Z" fill="#FD922A"/>
<path fill-rule="evenodd" clip-rule="evenodd" d="M105.243 143.728C105.056 144.209 104.978 145.026 104.424 145.283C104.193 145.39 102.811 145.231 102.811 144.949C102.583 146.457 101.692 147.294 99.9537 147.212C99.1932 147.176 98.0294 147.299 97.2971 147.08C97.16 147.038 94.7209 146.543 94.7209 146.543C94.2996 147.124 93.8632 147.721 93.4753 148.302C91.6413 147.541 91.5878 146.253 90.8823 144.797C90.1334 143.255 89.0701 141.786 88.1807 140.31C87.9132 139.866 85.3018 134.769 84.847 134.769L85.9972 134.645L88.6956 134.354C88.6789 134.377 88.6621 134.4 88.6454 134.423L100.031 144.825L100.061 144.853C100.061 144.853 105.713 138.237 103.916 136.434L105.337 136.302C105.969 137.172 106.46 138.099 106.529 138.937C106.671 140.632 105.847 142.183 105.243 143.728" fill="#081A35" fill-opacity="0.2"/>
<path fill-rule="evenodd" clip-rule="evenodd" d="M101.343 182.352C101.325 182.611 101.295 182.872 101.253 183.131C101.248 183.157 101.244 183.182 101.239 183.208C101.225 183.301 101.208 183.396 101.156 183.477C101.072 183.605 100.917 183.674 100.768 183.739C100.758 183.744 100.746 183.748 100.735 183.754C99.8919 184.13 99.4706 184.856 98.6648 185.274C98.5177 185.35 98.073 185.501 97.6784 185.676C97.3892 185.805 97.125 185.948 97.0231 186.084C96.993 186.121 96.9762 186.159 96.9746 186.194C96.9746 186.194 96.9445 187.055 96.8726 188.434C96.8224 189.408 96.7505 190.641 96.6536 192.012C96.2423 197.817 95.383 206.103 93.7513 207.754C91.812 209.717 80.8046 211.617 75.2592 211.631C73.4754 211.634 72.2566 211.443 72.0861 210.996C71.3053 208.943 71.837 206.078 71.9406 203.957C71.9874 203.002 72.0275 202.035 72.0861 201.072C72.1295 200.368 72.1814 199.664 72.2549 198.967C72.2783 198.744 72.3034 198.521 72.3318 198.297C71.5243 198.435 70.7436 198.721 69.9745 199.045C69.9612 199.051 69.9461 199.056 69.9327 199.062C69.157 199.389 68.393 199.754 67.6223 200.041C65.2683 200.917 62.9746 201.466 60.4485 201.657C58.3603 201.815 56.9242 200.579 55.8058 198.984C54.5703 197.221 54.689 194.651 54.6439 192.644C54.4583 184.052 55.7072 175.374 56.854 166.868C57.394 162.875 57.72 158.442 58.9304 154.594C59.9302 151.417 60.6825 147.75 62.8693 145.033C64.9089 142.497 68.3178 140.573 71.3805 139.306C73.9986 138.222 76.6184 137.139 79.2381 136.055C80.1677 140.53 81.5302 145.867 80.925 150.373C80.5238 153.375 79.9721 154.794 81.878 157.156C83.4562 159.117 84.9474 161.139 86.3367 163.219C88.7977 166.906 91.1984 170.956 92.5125 175.219C92.5141 175.295 92.5158 175.333 92.5158 175.333L92.5442 175.326L93.8717 174.971C95.164 174.626 96.4546 174.282 97.7453 173.936C99.2733 173.528 100.098 173.649 100.551 174.161C101.056 174.733 101.092 175.797 101.126 177.156C101.126 178.907 101.465 180.626 101.343 182.352" fill="#234662"/>
<path fill-rule="evenodd" clip-rule="evenodd" d="M92.5126 175.219C91.1989 170.957 88.7975 166.907 86.3359 163.22C84.9471 161.139 83.456 159.117 81.8774 157.157C79.9727 154.794 80.5239 153.374 80.925 150.373C81.5295 145.867 80.167 140.529 79.2373 136.055C80.4841 135.539 81.7297 135.023 82.9763 134.508C91.7683 148.249 92.4718 173.316 92.5126 175.219" fill="#234662"/>
<path fill-rule="evenodd" clip-rule="evenodd" d="M151.118 171.713C151.118 171.713 150.389 175.036 146.502 175.154C145.726 175.18 144.825 175.076 143.779 174.792C137.015 172.964 126.49 170.89 121.584 165.445C121.217 165.04 120.885 164.619 120.586 164.175C119.997 168.551 120.009 172.937 120.363 177.319C120.963 184.761 122.557 192.192 123.889 199.538C123.899 199.596 123.909 199.652 123.919 199.709C124.493 202.909 124.911 206.272 123.703 209.31C119.711 209.448 115.886 209.447 111.907 209.742C110.035 209.88 105.133 210.728 103.769 208.997C103.056 208.094 103.436 196.162 104.182 182.014C104.182 182.01 104.183 182.003 104.183 181.997C104.185 181.972 104.187 181.947 104.188 181.923C105.185 163.08 106.833 140.35 107.438 134.507L112.623 136.026L115.851 136.972C117.789 137.54 119.562 138.504 121.042 139.796L126.78 144.806L131.819 149.207L139.586 155.99L139.934 153.871L140.176 152.391L142.906 135.726C142.906 135.726 150.506 137.18 154.786 134.507C154.786 134.507 155.224 161.986 151.118 171.713" fill="#234662"/>
<path fill-rule="evenodd" clip-rule="evenodd" d="M107.985 115.185C108.202 115.776 108.373 116.376 108.529 116.978C108.687 117.579 108.818 118.186 108.943 118.793L109.029 119.25C109.043 119.332 109.058 119.389 109.072 119.491C109.083 119.589 109.083 119.689 109.058 119.785C109.014 119.978 108.906 120.155 108.753 120.286C108.608 120.421 108.389 120.503 108.214 120.525C107.558 120.64 106.899 120.74 106.228 120.798C106.853 120.564 107.488 120.372 108.128 120.195C108.215 120.172 108.257 120.154 108.317 120.122C108.372 120.094 108.422 120.058 108.464 120.015C108.55 119.93 108.604 119.821 108.621 119.71C108.63 119.654 108.63 119.598 108.622 119.543C108.615 119.491 108.592 119.398 108.578 119.327L108.482 118.872C108.366 118.263 108.254 117.654 108.17 117.039C108.082 116.425 108.011 115.809 107.985 115.185" fill="#FF888A"/>
<path fill-rule="evenodd" clip-rule="evenodd" d="M82.9763 134.508C91.7681 148.249 92.4717 173.316 92.5126 175.219C91.1987 170.957 88.7975 166.907 86.3357 163.219C84.9469 161.139 83.4558 159.117 81.8773 157.157C79.9726 154.794 80.5238 153.374 80.9248 150.373C81.5295 145.867 80.167 140.529 79.2373 136.055C80.484 135.539 81.7295 135.023 82.9763 134.508" fill="#1D2F49"/>
<path fill-rule="evenodd" clip-rule="evenodd" d="M92.5438 175.324L92.5144 175.333C92.5144 175.333 92.5132 175.294 92.5121 175.219C92.5233 175.254 92.5335 175.289 92.5438 175.324" fill="#1D2F49"/>
<path fill-rule="evenodd" clip-rule="evenodd" d="M103.874 142.44L102.274 145.648L102.138 145.921L102.116 145.966L102.063 146.071L101.953 146.097C101.785 146.232 101.535 146.361 101.502 146.559C101.317 146.535 101.213 146.417 101.103 146.28C100.69 145.763 100.125 144.914 99.3101 145.156C98.8718 145.285 98.5287 145.634 98.2313 145.943C97.9675 146.217 97.7724 147.064 97.2974 147.08C97.062 147.088 96.7437 146.796 96.5433 146.675L92.8086 144.414C92.9013 144.246 93.0523 144.097 93.2013 143.964C93.6898 143.528 94.2492 143.124 94.8882 142.933L95.0909 143.517L98.7952 144.348L98.9351 144.416C98.9351 144.416 99.0615 144.441 99.0627 144.441L99.4835 144.524L99.5029 144.528L100.31 144.688L100.346 144.667L103.444 142.254C103.598 142.288 103.743 142.353 103.874 142.44" fill="#081A35" fill-opacity="0.5"/>
<path fill-rule="evenodd" clip-rule="evenodd" d="M114.179 148.814C114.249 149.507 114.217 150.223 113.962 151.04C112.985 154.171 111.766 157.253 110.697 160.359C108.403 167.025 105.548 173.907 104.339 180.838C104.276 181.198 104.207 181.557 104.188 181.921C105.184 163.08 106.833 140.35 107.438 134.508L112.623 136.026C112.757 139.161 113.239 142.321 113.58 145.442C113.719 146.712 114.071 147.737 114.179 148.814" fill="#1D2F49"/>
<path fill-rule="evenodd" clip-rule="evenodd" d="M69.9738 199.045C69.9605 199.051 69.9456 199.055 69.9323 199.061C69.9339 199.055 69.9356 199.049 69.9372 199.043C69.9489 199.043 69.9622 199.045 69.9738 199.045" fill="#081A35"/>
<path fill-rule="evenodd" clip-rule="evenodd" d="M114.733 178.634C114.696 180.024 113.778 181.256 112.778 182.292C109.737 185.445 105.583 188.17 101.467 189.977C99.8702 190.677 98.1297 191.116 96.6534 192.012C96.63 192.026 96.6066 192.04 96.5832 192.054C94.1256 193.579 92.7631 196.193 90.792 198.237C88.403 200.716 85.1161 202.36 82.8491 204.935C80.9817 207.056 79.7479 209.845 77.1148 211.083C76.528 211.361 75.9027 211.538 75.259 211.631C73.4752 211.634 72.2564 211.443 72.0859 210.996C71.3052 208.943 71.8368 206.078 71.9405 203.957C71.9874 203.002 72.0274 202.036 72.0859 201.072C72.1294 200.368 72.1812 199.664 72.2548 198.968C75.239 198.619 78.103 197.356 80.6943 195.876C85.4789 193.143 89.4965 189.359 94.6339 187.165C95.3845 186.844 96.1535 186.553 96.8691 186.168C96.9209 186.14 96.9727 186.112 97.0229 186.084C97.2469 185.955 97.4643 185.82 97.6783 185.676C99.0241 184.763 100.168 183.528 101.343 182.352C102.918 180.775 104.549 179.303 106.803 178.856C107.569 178.704 114.761 177.62 114.733 178.634" fill="#081A35" fill-opacity="0.5"/>
<path fill-rule="evenodd" clip-rule="evenodd" d="M72.922 181.278C72.7909 180.866 73.1173 179.977 73.1644 179.745C73.391 178.634 73.6001 177.52 73.787 176.403C74.1759 174.078 74.6799 171.558 74.3825 169.199C74.3589 169.013 74.3036 168.826 74.2849 168.641C74.2849 168.641 75.2542 178.217 75.2542 178.217C78.0841 177.183 80.9555 176.237 83.8392 175.341C88.5093 173.889 93.3711 172.368 98.2937 171.891C99.0791 171.814 99.8807 171.764 100.67 171.832C101.98 171.944 102.861 172.295 104.129 171.62C105.183 171.06 106.19 170.425 107.14 169.723C107.935 169.135 108.711 168.489 109.661 168.155C110.468 167.872 111.346 167.834 112.208 167.799C113.027 167.765 114.258 167.492 115.025 167.791C115.491 167.972 115.45 168.521 115.275 168.9C115.135 169.202 114.888 169.453 114.609 169.655C114.361 169.836 114.053 170.037 114.068 170.329C114.081 170.601 114.368 170.777 114.614 170.925C115.032 171.176 115.433 171.491 115.618 171.92C115.996 172.794 115.182 174.476 114.951 175.329C114.727 176.15 114.502 176.972 114.274 177.793C114.214 178.01 110.22 178.136 109.925 178.161C108.366 178.294 106.806 178.426 105.247 178.558C104.378 178.631 103.422 178.612 102.574 178.8C101.888 178.951 101.365 179.099 101.09 178.247C100.948 177.81 101.018 177.343 101.037 176.887C101.067 176.162 100.964 175.433 100.735 174.739C100.627 174.413 100.473 174.074 100.166 173.887C99.9 173.725 99.5638 173.705 99.2458 173.71C97.8398 173.733 96.6305 174.264 95.3031 174.64C93.815 175.062 92.3146 175.445 90.8037 175.789C89.6764 176.047 88.5917 176.23 87.4669 176.529C84.9732 177.19 82.4715 177.855 80.0878 178.804C78.5131 179.431 76.9916 180.182 75.3649 180.682C74.794 180.857 74.2038 181.005 73.6924 181.299C73.5533 181.378 73.4135 181.471 73.251 181.487C73.0668 181.505 72.9673 181.42 72.922 181.278" fill="#081A35" fill-opacity="0.5"/>
<path fill-rule="evenodd" clip-rule="evenodd" d="M112.66 179.875C111.743 181.372 109.913 182.169 108.127 182.642C106.343 183.115 104.463 183.37 102.838 184.201C101.11 185.085 99.8599 186.517 98.4073 187.717C97.0798 188.814 95.7424 189.217 94.2242 189.929C91.5728 191.172 89.0668 192.8 86.4955 194.187C82.1053 196.554 77.1048 199.985 72.086 201.072C72.1295 200.368 72.1813 199.664 72.2549 198.967C75.2391 198.618 78.1029 197.356 80.6942 195.876C83.5832 194.227 86.2564 192.307 88.8829 190.328C89.6569 189.96 90.426 189.583 91.185 189.191C92.5141 188.505 93.8599 187.789 95.077 186.94C95.5886 186.583 96.167 186.309 96.7622 186.058C97.6148 185.696 98.6311 185.316 99.2933 184.674C99.4505 184.522 99.5842 184.35 99.7379 184.195C100.089 183.844 100.554 183.692 100.932 183.393C101.271 183.123 101.38 182.802 101.592 182.424C102.563 180.691 104.19 180.036 106.203 179.887C107.275 179.808 108.351 179.852 109.423 179.886C109.824 179.898 112.474 180.177 112.66 179.875" fill="#081A35" fill-opacity="0.5"/>
<path fill-rule="evenodd" clip-rule="evenodd" d="M99.9827 144.931L95.5278 143.535L98.0029 140.086L99.9827 144.931Z" fill="#E0DBC4"/>
<path fill-rule="evenodd" clip-rule="evenodd" d="M99.7501 139.635L99.9831 144.931L102.782 143.093L99.7501 139.635Z" fill="#E0DBC4"/>
<path fill-rule="evenodd" clip-rule="evenodd" d="M102.782 133.943C102.782 133.943 103.681 136.987 99.7501 139.635L104.176 144.66C104.176 144.66 106.943 138.365 105.283 136.393C105.283 136.393 102.956 134.454 102.782 133.943" fill="white"/>
<path fill-rule="evenodd" clip-rule="evenodd" d="M98.003 140.086L95.5276 143.535L93.4012 146.498L85.9084 134.575C85.9084 134.575 88.4359 133.646 89.9578 132.282C89.968 132.282 92.3 136.45 98.003 140.086" fill="white"/>
<path fill-rule="evenodd" clip-rule="evenodd" d="M115.933 172.234L115.627 172.978L115.629 172.98L115.51 173.269L115.577 173.858V173.861L115.612 174.16C115.645 174.44 115.562 174.72 115.381 174.945L115.303 175.043V175.045C115.259 175.097 115.222 175.156 115.194 175.217C115.194 175.218 115.194 175.22 115.192 175.221C115.192 175.223 115.192 175.224 115.191 175.226C115.172 175.262 115.157 175.301 115.147 175.341C115.137 175.369 115.129 175.398 115.125 175.428C115.114 175.485 115.109 175.546 115.11 175.604V175.606L115.112 175.699L115.132 176.577C115.137 176.817 115.062 177.053 114.92 177.255L114.534 177.793L114.462 177.892C114.365 178.026 114.306 178.179 114.286 178.339L114.276 178.434L114.186 179.228C114.131 179.693 113.842 180.101 113.404 180.332C112.135 181.002 109.408 182.235 107.448 181.673L106.531 181.455C106.216 181.381 105.89 181.378 105.576 181.446L103.209 181.697C102.838 179.336 102.677 176.948 102.731 174.561C103.055 174.423 103.349 174.227 103.583 173.974L103.59 173.968L106.663 170.646C106.818 170.478 106.999 170.329 107.198 170.207L109.456 168.795C110.284 168.277 111.225 167.939 112.213 167.804L114.714 167.464C115.084 167.415 115.406 167.716 115.339 168.057C115.241 168.578 114.985 169.096 114.54 169.442C113.703 170.092 112.509 169.839 111.591 170.28C111.498 170.323 111.406 170.377 111.32 170.435C111.287 170.458 111.252 170.48 111.218 170.505C110.869 170.744 110.038 171.108 109.928 171.538C109.824 171.939 110.187 172.124 110.187 172.124C110.824 171.967 111.459 171.811 112.094 171.652C112.693 171.505 113.32 171.269 113.944 171.117C114.244 171.046 114.545 170.993 114.843 170.979C115.373 170.958 115.462 171.044 115.788 171.415C115.988 171.645 116.045 171.956 115.933 172.234" fill="#FFD5CC"/>
<path fill-rule="evenodd" clip-rule="evenodd" d="M108.975 175.633L112.914 175.099L115.577 173.861L115.576 173.858L115.51 173.268L115.628 172.98C115.497 173.274 112.654 174.692 112.654 174.692L108.975 175.633Z" fill="#FF888A"/>
<path fill-rule="evenodd" clip-rule="evenodd" d="M109.037 172.856C110.423 172.639 111.782 172.237 113.041 171.659C113.344 171.52 113.775 171.373 113.943 171.117C113.319 171.269 112.693 171.505 112.094 171.653C111.459 171.81 110.824 171.967 110.187 172.124C110.187 172.124 109.824 171.94 109.928 171.538C110.037 171.108 110.868 170.743 111.218 170.504C111.252 170.481 111.287 170.459 111.32 170.435C110.957 170.559 110.616 170.727 110.32 170.955C110.135 171.099 109.971 171.263 109.807 171.425L108.471 172.753C108.595 172.901 108.838 172.887 109.037 172.856" fill="#FF888A"/>
<path fill-rule="evenodd" clip-rule="evenodd" d="M114.191 176.12C114.227 176.09 114.264 176.059 114.3 176.027C114.315 176.019 114.329 176.01 114.346 176L114.191 176.12ZM114.403 175.684L113.442 176.431C113.32 176.526 113.178 176.59 113.025 176.626L112.306 176.784L110.895 177.108C111.302 177.048 111.707 176.992 112.115 176.935C112.547 176.875 113.008 176.86 113.407 176.678C114.042 176.386 114.396 175.812 115.113 175.699L115.109 175.605C115.109 175.546 115.113 175.485 115.125 175.428C115.115 175.427 115.103 175.427 115.093 175.433C115.11 175.407 115.126 175.38 115.147 175.341C115.165 175.308 115.176 175.266 115.19 175.226C115.192 175.222 115.194 175.219 115.193 175.217C115.218 175.149 115.248 175.082 115.302 175.044L114.403 175.684Z" fill="#FF888A"/>
<path fill-rule="evenodd" clip-rule="evenodd" d="M113.546 176.305C113.546 176.305 113.548 176.305 113.55 176.304C113.556 176.303 113.564 176.301 113.573 176.294C113.554 176.3 113.546 176.305 113.546 176.305" fill="#FF888A"/>
<path fill-rule="evenodd" clip-rule="evenodd" d="M114.258 178.435C114.264 178.434 114.27 178.435 114.276 178.434L114.286 178.339C114.306 178.18 114.364 178.026 114.461 177.893L114.534 177.793C114.257 177.884 113.829 178.172 113.767 178.213C113.376 178.463 112.986 178.724 112.537 178.879C113.134 178.861 113.661 178.481 114.258 178.435" fill="#FF888A"/>
<path fill-rule="evenodd" clip-rule="evenodd" d="M92.8728 106.585C92.8274 106.591 92.7831 106.605 92.7409 106.625C92.5966 106.695 92.5104 106.835 92.4375 106.969C92.324 107.179 92.2342 107.385 92.1636 107.59C92.0421 107.94 91.9762 108.284 91.9386 108.627C91.8283 109.585 91.9319 110.532 91.6454 111.557C91.6238 111.632 91.5158 111.948 91.376 112.348C91.3602 112.395 91.3431 112.442 91.3261 112.491C91.1363 113.038 90.9021 113.703 90.7533 114.142C90.6941 114.225 90.6225 114.299 90.5283 114.348C90.1168 114.557 89.4145 113.685 88.9883 113.576C88.0996 113.349 86.9882 113.821 86.8335 114.665C86.6267 115.799 87.4098 116.884 88.1076 117.744C88.5099 118.242 89.0303 118.673 89.411 119.182C89.8339 119.747 89.6907 119.722 89.6895 120.32C89.6883 122.239 90.1611 124.142 90.4306 126.067C89.8373 125.225 89.244 124.381 88.6508 123.538C87.8075 122.341 86.9643 121.142 86.2084 119.896C85.5653 118.837 84.9868 117.746 84.4742 116.627C84.4742 116.627 81.3589 112.57 84.4742 104.627C86.28 106.791 91.833 106.635 92.8728 106.585" fill="#41211E"/>
<path fill-rule="evenodd" clip-rule="evenodd" d="M111.393 117.951C109.246 119.006 106.857 119.174 104.306 119.593C103.035 119.803 101.745 120.013 100.461 119.902C99.4303 119.815 98.4326 119.523 97.4517 119.215C96.3858 118.881 95.3265 118.524 94.2764 118.149C93.5286 117.881 92.7694 117.6 91.9683 117.556C90.7453 117.491 89.5702 117.986 88.3508 118.097C88.3224 118.099 88.2939 118.101 88.2655 118.103C88.1985 118.029 88.1338 117.954 88.0711 117.877C87.3734 117.017 86.5903 115.932 86.7971 114.798C86.9869 113.757 87.9133 113.972 88.6452 113.659C88.8816 113.558 89.0962 113.392 89.2883 113.191C89.7407 113.089 90.201 113.016 90.6544 112.968C93.8263 112.626 97.0232 113.127 100.212 113.281C102.426 113.387 104.651 113.326 106.852 113.57C108.129 113.71 109.411 113.962 110.608 114.39C110.589 114.669 110.568 114.949 110.541 115.226C110.583 115.283 110.627 115.339 110.669 115.395C111.22 116.14 111.4 117.034 111.393 117.951" fill="#FF888A" fill-opacity="0.5"/>
<path fill-rule="evenodd" clip-rule="evenodd" d="M96.1881 106.491C96.4392 106.423 96.7745 106.371 97.2053 106.337C96.8552 106.369 96.5188 106.425 96.1881 106.491" fill="#41211E"/>
<path fill-rule="evenodd" clip-rule="evenodd" d="M111.379 108.855C110.508 109.408 109.175 109.208 108.177 109.333C106.979 109.483 105.783 109.646 104.59 109.823C102.203 110.176 99.8259 110.583 97.4598 111.042C96.9143 111.147 92.9775 112.214 91.326 112.49C91.3431 112.442 91.3601 112.394 91.376 112.348C91.5159 111.947 91.6239 111.632 91.6453 111.556C91.9319 110.531 91.8284 109.584 91.9386 108.627C92.3239 108.503 92.7171 108.396 93.0978 108.262C94.2606 107.852 95.3162 107.185 96.5187 106.891C98.0018 106.53 99.5656 106.766 101.09 106.919C102.474 107.057 103.866 107.125 105.257 107.12C106.148 107.118 107.031 106.922 107.919 106.925C108.728 106.927 109.525 107.127 110.35 107.1C110.811 107.085 111.332 107.049 111.672 107.339C112.14 107.737 111.905 108.521 111.379 108.855" fill="#FF888A" fill-opacity="0.5"/>
<path fill-rule="evenodd" clip-rule="evenodd" d="M112.093 105.658C112.065 105.732 112.033 105.795 112 105.85C111.975 105.891 111.948 105.928 111.92 105.959C111.807 106.089 111.671 106.146 111.517 106.16C111.096 106.196 110.536 105.908 109.918 105.871C108.67 105.796 107.422 106.077 106.199 106.266C103.626 106.665 101.136 106.306 98.6053 106.327C98.4144 106.318 98.2245 106.312 98.0359 106.309C97.754 106.305 97.4767 106.313 97.2052 106.337C97.1801 106.339 97.154 106.341 97.1289 106.344C97.0368 106.328 96.947 106.304 96.8596 106.27C97.2573 106.25 97.6552 106.218 98.0506 106.172C99.5372 106.002 100.966 105.662 102.318 105.083C103.684 104.499 104.972 103.772 106.269 103.068C106.735 102.815 107.209 102.562 107.729 102.428C109.151 102.062 110.701 102.66 111.762 103.613C112.269 104.069 112.325 105.057 112.093 105.658" fill="#41211E"/>
<path fill-rule="evenodd" clip-rule="evenodd" d="M119.78 110.326L119.499 115.495C119.438 116.595 118.463 117.461 117.274 117.467L101.162 118.013L100.827 117.991C99.7294 117.846 98.8906 116.961 98.91 115.9L99.0316 109.24C99.0498 108.268 99.7816 107.473 100.742 107.257C100.976 107.203 101.224 107.184 101.478 107.206L117.75 108.152C118.945 108.255 119.841 109.213 119.78 110.326" fill="#FECE62"/>
<path fill-rule="evenodd" clip-rule="evenodd" d="M119.083 110.643L118.825 115.092C118.77 116.04 117.878 116.784 116.789 116.789L115.056 116.844L112.381 116.929L111.044 116.973L110.57 116.987L109.863 117.011L107.787 117.077L107.008 117.101L106.284 117.125L105.244 117.157L104.337 117.187L103.299 117.219L102.616 117.242L102.045 117.259L101.738 117.241C100.733 117.115 99.966 116.354 99.9829 115.441L100.094 109.709C100.111 108.872 100.781 108.187 101.661 108.002C101.874 107.955 102.101 107.94 102.334 107.959L105.328 108.122L106.035 108.161L107.055 108.217L108.104 108.274L109.686 108.36L109.88 108.371L110.44 108.401L112.599 108.52L113.175 108.551L113.48 108.568L114.911 108.646L116.984 108.759L117.225 108.773C118.319 108.861 119.139 109.686 119.083 110.643" fill="#9E3A02"/>
<path fill-rule="evenodd" clip-rule="evenodd" d="M100.827 117.991L98.7588 117.857L98.2713 117.781C97.1564 117.5 96.3631 116.535 96.4109 115.425L96.6563 109.655C96.6951 108.753 97.3702 107.982 98.3135 107.762L100.74 107.197L100.742 107.256C99.7818 107.473 99.0499 108.268 99.0317 109.24L98.9101 115.9C98.8907 116.961 99.7295 117.846 100.827 117.991" fill="#FD922A"/>
<path fill-rule="evenodd" clip-rule="evenodd" d="M98.2708 117.799L94.9195 117.274C93.8057 117.099 92.9089 116.394 92.5146 115.465C92.3793 115.146 92.3021 114.803 92.2952 114.444L92.236 111.299C92.235 111.241 92.236 111.184 92.2395 111.127C92.2975 109.983 93.1544 108.998 94.3636 108.713L98.313 107.781C97.3697 108.001 96.6946 108.771 96.6558 109.674L96.4106 115.444C96.3626 116.554 97.156 117.519 98.2708 117.799" fill="#F07222"/>
<path fill-rule="evenodd" clip-rule="evenodd" d="M92.5148 115.465C89.5088 115.599 83.0365 115.725 83.0365 115.725C81.7124 115.54 82.6274 110.769 82.6274 110.769C83.1592 111.242 89.3236 111.182 92.2397 111.128C92.2362 111.184 92.2352 111.242 92.2362 111.299L92.2954 114.445C92.3023 114.803 92.3795 115.147 92.5148 115.465" fill="#9E3A02"/>
<path fill-rule="evenodd" clip-rule="evenodd" d="M114.91 108.646C114.193 111.38 113.348 114.241 112.381 116.929L111.044 116.972L110.57 116.987L109.862 117.01L107.787 117.077L107.007 117.101C107.884 114.265 108.815 111.229 109.686 108.36L109.879 108.371L110.439 108.401L112.599 108.519L113.175 108.551L113.48 108.568L114.91 108.646Z" fill="#FECE62"/>
<path fill-rule="evenodd" clip-rule="evenodd" d="M107.055 108.217C106.193 111.246 105.257 114.384 104.337 117.187L103.299 117.22L102.616 117.242C103.464 114.397 104.415 111.2 105.327 108.122L106.034 108.161L107.055 108.217Z" fill="#FECE62"/>
<path fill-rule="evenodd" clip-rule="evenodd" d="M109.921 121.996C109.849 122.486 109.61 123.435 108.817 124.187L108.807 124.196C108.772 124.231 108.735 124.263 108.699 124.294C108.239 124.696 107.676 124.939 107.084 124.989L105.547 125.121H105.546L105.529 125.123C105.109 125.158 104.691 125.033 104.357 124.772C104.317 124.743 104.278 124.71 104.242 124.676C104.006 124.474 103.829 124.203 103.735 123.894L103.633 123.564L103.402 122.813C103.354 122.652 103.449 122.481 103.606 122.453C103.678 122.442 103.76 122.427 103.852 122.411C105.031 122.216 107.823 121.763 109.235 121.67C109.391 121.659 109.528 121.654 109.647 121.653C109.817 121.653 109.948 121.816 109.921 121.996" fill="#B52A2D"/>
<path fill-rule="evenodd" clip-rule="evenodd" d="M108.734 124.192C108.732 124.228 108.719 124.262 108.699 124.295C108.608 124.45 108.343 124.581 108.073 124.729C107.816 124.87 107.532 124.951 107.244 124.975C106.689 125.023 106.117 125.117 105.561 125.121H105.546C105.106 125.121 104.708 124.988 104.357 124.772C104.317 124.743 104.278 124.71 104.242 124.676C104.006 124.474 103.829 124.203 103.735 123.894L103.633 123.564C104.28 123.665 104.936 123.735 105.591 123.707C106.148 123.683 106.701 123.59 107.259 123.597C107.636 123.601 108.192 123.637 108.503 123.865C108.672 123.989 108.739 124.096 108.734 124.192" fill="#FA8887"/>
<path fill-rule="evenodd" clip-rule="evenodd" d="M109.236 121.669C108.925 122.107 108.638 122.384 108.519 122.492C108.482 122.524 108.443 122.549 108.398 122.565C107.099 123.033 104.6 122.866 103.98 122.815C103.9 122.809 103.841 122.736 103.844 122.65L103.853 122.412C105.031 122.216 107.824 121.764 109.236 121.669" fill="white"/>
<path fill-rule="evenodd" clip-rule="evenodd" d="M103.844 128.375C103.313 128.499 102.912 128.674 102.859 128.934C102.858 128.941 102.373 131.671 102.731 133.921C102.413 133.69 102.257 133.273 102.091 132.913C101.64 131.936 100.832 131.105 99.8317 130.59C99.2203 130.275 98.5441 130.076 97.9498 129.736C97.4042 129.424 96.944 129.002 96.4894 128.583C95.7073 127.864 94.9268 127.146 94.1447 126.427C94.9507 126.738 95.6201 126.954 96.4087 127.299C99.368 128.592 103.747 128.381 103.844 128.375" fill="#FF888A" fill-opacity="0.5"/>
<path fill-rule="evenodd" clip-rule="evenodd" d="M74.0327 175.131C74.057 175.155 74.0511 175.193 74.056 175.225L74.0593 175.323L74.0577 175.519C74.055 175.65 74.0458 175.78 74.0381 175.911C74.0227 176.172 73.998 176.431 73.9739 176.691C73.9246 177.211 73.8637 177.729 73.7975 178.246C73.7291 178.763 73.6613 179.28 73.5804 179.796C73.5033 180.311 73.4237 180.826 73.3336 181.341L73.0001 181.094L74.0164 180.703L75.0377 180.323C75.7169 180.066 76.4039 179.826 77.0873 179.579C77.7748 179.341 78.4619 179.101 79.1539 178.873C79.846 178.646 80.5395 178.421 81.2422 178.217C80.5866 178.528 79.9218 178.818 79.2555 179.104C78.5893 179.391 77.9182 179.666 77.2472 179.942C76.5724 180.209 75.901 180.484 75.2221 180.742L74.2058 181.133L73.1848 181.514L72.7804 181.665L72.8513 181.267C72.9427 180.755 73.0415 180.242 73.1407 179.731C73.236 179.218 73.3418 178.708 73.4431 178.196L73.7587 176.663L73.9174 175.897L73.9928 175.513L74.0267 175.321L74.0396 175.224C74.0403 175.193 74.0516 175.156 74.0327 175.131" fill="#182841"/>
<path fill-rule="evenodd" clip-rule="evenodd" d="M74.2946 163.9C74.501 161.945 74.5714 159.976 74.5356 158.009C74.501 156.043 74.3537 154.074 74.0535 152.122C73.7392 150.174 73.2886 148.226 72.4681 146.392C72.0595 145.478 71.5482 144.593 70.876 143.817C70.2018 143.051 69.3475 142.388 68.3387 142.068C68.8222 142.269 69.2654 142.54 69.6618 142.857C70.0576 143.176 70.4045 143.543 70.7097 143.936C71.3257 144.72 71.7843 145.601 72.1583 146.507C72.5296 147.416 72.8222 148.353 73.0572 149.302C73.2941 150.251 73.4826 151.212 73.6307 152.179C73.7857 153.145 73.9003 154.116 73.9925 155.091C74.0889 156.064 74.1506 157.041 74.2034 158.019C74.2509 158.997 74.2842 159.977 74.2977 160.957C74.3205 161.937 74.3118 162.918 74.2946 163.9" fill="#182841"/>
<path fill-rule="evenodd" clip-rule="evenodd" d="M119.645 160.448C120.218 158.557 120.66 156.63 120.997 154.688C121.335 152.746 121.562 150.785 121.637 148.813C121.696 146.845 121.621 144.854 121.16 142.915C120.931 141.948 120.595 140.994 120.08 140.12C119.561 139.256 118.845 138.464 117.913 137.985C118.351 138.262 118.736 138.601 119.066 138.978C119.395 139.356 119.667 139.773 119.894 140.21C120.352 141.082 120.636 142.024 120.833 142.977C121.027 143.932 121.137 144.902 121.189 145.875C121.243 146.848 121.246 147.825 121.209 148.801C121.179 149.777 121.108 150.752 121.014 151.726C120.925 152.701 120.801 153.672 120.668 154.644C120.53 155.614 120.377 156.584 120.205 157.551C120.042 158.52 119.848 159.484 119.645 160.448" fill="#182841"/>
<path fill-rule="evenodd" clip-rule="evenodd" d="M139.756 155.892C139.811 156.39 139.788 156.892 139.753 157.387C139.719 157.882 139.666 158.372 139.653 158.859C139.632 159.346 139.654 159.83 139.731 160.309C139.809 160.789 139.952 161.26 140.134 161.731C139.828 161.32 139.606 160.85 139.475 160.357C139.34 159.864 139.303 159.352 139.319 158.849C139.34 158.345 139.408 157.849 139.495 157.36L139.756 155.892Z" fill="#182841"/>
<path fill-rule="evenodd" clip-rule="evenodd" d="M103.046 182.743C102.832 182.944 102.496 182.966 102.192 182.993C101.876 183.02 101.562 183.067 101.253 183.131C101.319 182.718 101.353 182.306 101.364 181.893C101.408 180.32 101.125 178.752 101.125 177.156C101.105 176.31 101.082 175.578 100.946 175.009C100.865 174.663 100.741 174.378 100.55 174.161C101.35 173.891 102.762 173.59 102.764 173.573C102.749 173.902 102.737 174.232 102.73 174.561C102.677 176.948 102.837 179.337 103.209 181.697C103.21 181.713 103.212 181.73 103.215 181.745C103.269 182.091 103.311 182.493 103.046 182.743" fill="#E0DBC4"/>
<path fill-rule="evenodd" clip-rule="evenodd" d="M120.585 164.175C119.997 168.55 120.008 172.937 120.363 177.319C119.811 176.141 119.226 174.956 118.954 173.732C118.683 172.512 118.725 171.251 118.798 170.005C118.985 166.827 119.241 163.534 119.977 160.419C120.393 162.141 121.072 163.776 121.583 165.445C121.217 165.04 120.885 164.618 120.585 164.175" fill="#081A35" fill-opacity="0.5"/>
<path fill-rule="evenodd" clip-rule="evenodd" d="M146.502 175.153C145.726 175.18 144.825 175.076 143.779 174.792C137.015 172.963 126.49 170.889 121.584 165.445C121.217 165.04 120.885 164.618 120.585 164.175C119.997 168.55 120.009 172.937 120.363 177.318C120.963 184.76 122.557 192.192 123.889 199.538C123.899 199.595 123.909 199.651 123.919 199.708C123.906 199.874 123.892 200.042 123.879 200.208C123.727 198.683 121.821 197.881 121.085 196.51C120.724 195.837 120.669 195.065 120.601 194.317C120.388 192 119.994 189.696 119.422 187.432C119.069 186.036 118.648 184.646 118.511 183.217C118.375 181.823 118.512 180.417 118.449 179.018C118.27 175.156 116.558 171.311 117.379 167.522C117.68 166.134 117.874 164.959 118.531 163.691C119.153 162.49 120.418 160.252 120.159 158.876C120.41 160.202 121.109 161.412 121.799 162.595C122.593 163.957 123.377 165.192 124.743 166.134C127.057 167.73 129.807 168.668 132.496 169.633C137.229 171.331 141.9 173.174 146.502 175.153" fill="#081A35" fill-opacity="0.5"/>
<path fill-rule="evenodd" clip-rule="evenodd" d="M140.176 152.391C139.786 155.082 139.96 157.744 139.778 160.427C138.84 159.943 138.261 158.253 137.681 157.387C136.937 156.281 136.122 155.214 135.165 154.257C134.266 153.357 133.236 152.54 132.597 151.465C132.179 150.761 131.957 149.998 131.818 149.207L139.586 155.989L140.176 152.391Z" fill="#081A35" fill-opacity="0.5"/>
<path fill-rule="evenodd" clip-rule="evenodd" d="M140.191 161.508C139.032 161.811 138.014 160.775 137.326 159.86C136.045 158.155 134.763 156.452 133.48 154.749C131.691 152.369 129.896 149.987 128.338 147.469C128.015 146.95 127.255 145.844 126.78 144.806L131.819 149.207L139.586 155.99L139.934 153.871C140.021 156.416 140.106 158.963 140.191 161.508" fill="#081A35" fill-opacity="0.5"/>
<path d="M160.803 25.2764L154.455 48H149.083L144.818 31.82L140.358 48L135.019 48.0326L128.899 25.2764H133.782L137.787 42.9214L142.409 25.2764H147.488L151.85 42.8237L155.887 25.2764H160.803ZM173.936 29.704C175.304 29.704 176.519 30.0078 177.583 30.6155C178.646 31.2015 179.471 32.0805 180.057 33.2525C180.664 34.4028 180.968 35.7918 180.968 37.4195V48H176.411V38.0381C176.411 36.6057 176.052 35.5096 175.336 34.75C174.62 33.9687 173.643 33.578 172.406 33.578C171.147 33.578 170.149 33.9687 169.411 34.75C168.695 35.5096 168.337 36.6057 168.337 38.0381V48H163.779V23.9091H168.337V32.2107C168.923 31.4294 169.704 30.8217 170.681 30.3876C171.657 29.9318 172.743 29.704 173.936 29.704ZM184.13 38.9171C184.13 37.094 184.489 35.4771 185.205 34.0664C185.943 32.6556 186.93 31.5705 188.167 30.8108C189.426 30.0512 190.826 29.6714 192.367 29.6714C193.713 29.6714 194.885 29.9427 195.883 30.4853C196.903 31.0279 197.717 31.7115 198.325 32.5363V29.9644H202.915V48H198.325V45.363C197.739 46.2095 196.925 46.9148 195.883 47.4791C194.863 48.0217 193.68 48.293 192.334 48.293C190.815 48.293 189.426 47.9023 188.167 47.121C186.93 46.3397 185.943 45.2437 185.205 43.8329C184.489 42.4005 184.13 40.7619 184.13 38.9171ZM198.325 38.9822C198.325 37.8753 198.108 36.9312 197.673 36.1499C197.239 35.3469 196.653 34.7392 195.915 34.3268C195.178 33.8927 194.385 33.6757 193.539 33.6757C192.692 33.6757 191.911 33.8819 191.195 34.2942C190.479 34.7066 189.893 35.3143 189.437 36.1173C189.003 36.8987 188.786 37.8319 188.786 38.9171C188.786 40.0023 189.003 40.9572 189.437 41.7819C189.893 42.585 190.479 43.2035 191.195 43.6376C191.933 44.0717 192.714 44.2887 193.539 44.2887C194.385 44.2887 195.178 44.0825 195.915 43.6702C196.653 43.2361 197.239 42.6284 197.673 41.8471C198.108 41.044 198.325 40.0891 198.325 38.9822ZM212.673 33.7082V42.4331C212.673 43.0408 212.814 43.4857 213.096 43.7678C213.4 44.0283 213.899 44.1585 214.594 44.1585H216.71V48H213.845C210.003 48 208.082 46.1335 208.082 42.4005V33.7082H205.934V29.9644H208.082V25.5043H212.673V29.9644H216.71V33.7082H212.673ZM252.748 29.9644L247.474 48H242.558L239.27 35.4011L235.982 48H231.033L225.727 29.9644H230.349L233.54 43.7027L236.991 29.9644H241.809L245.195 43.6702L248.385 29.9644H252.748ZM271.98 38.5915C271.98 39.2426 271.936 39.8286 271.849 40.3495H258.664C258.773 41.6517 259.229 42.6718 260.032 43.4097C260.835 44.1476 261.822 44.5166 262.994 44.5166C264.687 44.5166 265.892 43.7895 266.608 42.3354H271.524C271.003 44.0717 270.004 45.5041 268.529 46.6327C267.053 47.7396 265.241 48.293 263.092 48.293C261.356 48.293 259.793 47.9132 258.404 47.1536C257.037 46.3722 255.962 45.2762 255.181 43.8655C254.421 42.4548 254.042 40.827 254.042 38.9822C254.042 37.1157 254.421 35.4771 255.181 34.0664C255.941 32.6556 257.004 31.5705 258.371 30.8108C259.739 30.0512 261.312 29.6714 263.092 29.6714C264.807 29.6714 266.337 30.0404 267.682 30.7783C269.05 31.5162 270.102 32.5688 270.84 33.9361C271.6 35.2818 271.98 36.8336 271.98 38.5915ZM267.259 37.2893C267.237 36.1173 266.814 35.1841 265.989 34.4896C265.165 33.7734 264.155 33.4153 262.962 33.4153C261.833 33.4153 260.878 33.7625 260.097 34.457C259.337 35.1298 258.871 36.0739 258.697 37.2893H267.259ZM167.766 84.293C166.03 84.293 164.467 83.9132 163.078 83.1536C161.689 82.3722 160.593 81.2762 159.79 79.8655C159.009 78.4548 158.618 76.827 158.618 74.9822C158.618 73.1374 159.019 71.5096 159.823 70.0989C160.647 68.6882 161.765 67.603 163.176 66.8434C164.586 66.0621 166.16 65.6714 167.896 65.6714C169.632 65.6714 171.206 66.0621 172.617 66.8434C174.027 67.603 175.134 68.6882 175.937 70.0989C176.762 71.5096 177.174 73.1374 177.174 74.9822C177.174 76.827 176.751 78.4548 175.905 79.8655C175.08 81.2762 173.951 82.3722 172.519 83.1536C171.108 83.9132 169.524 84.293 167.766 84.293ZM167.766 80.3213C168.591 80.3213 169.361 80.1259 170.077 79.7353C170.815 79.3229 171.401 78.7152 171.835 77.9122C172.269 77.1091 172.487 76.1325 172.487 74.9822C172.487 73.2676 172.031 71.9546 171.119 71.043C170.229 70.1098 169.133 69.6431 167.831 69.6431C166.529 69.6431 165.433 70.1098 164.543 71.043C163.675 71.9546 163.241 73.2676 163.241 74.9822C163.241 76.6968 163.664 78.0207 164.51 78.9539C165.379 79.8655 166.464 80.3213 167.766 80.3213ZM188.787 69.7082H185.629V84H181.006V69.7082H178.955V65.9644H181.006V65.0528C181.006 62.8391 181.635 61.2113 182.894 60.1696C184.153 59.1278 186.052 58.6395 188.591 58.7046V62.5461C187.485 62.5244 186.714 62.7089 186.28 63.0995C185.846 63.4902 185.629 64.1956 185.629 65.2156V65.9644H188.787V69.7082ZM200.009 69.7082H196.852V84H192.229V69.7082H190.178V65.9644H192.229V65.0528C192.229 62.8391 192.858 61.2113 194.117 60.1696C195.376 59.1278 197.275 58.6395 199.814 58.7046V62.5461C198.707 62.5244 197.937 62.7089 197.503 63.0995C197.069 63.4902 196.852 64.1956 196.852 65.2156V65.9644H200.009V69.7082ZM219.729 74.5915C219.729 75.2426 219.686 75.8286 219.599 76.3495H206.414C206.522 77.6517 206.978 78.6718 207.781 79.4097C208.584 80.1476 209.572 80.5166 210.744 80.5166C212.437 80.5166 213.641 79.7895 214.357 78.3354H219.273C218.752 80.0717 217.754 81.5041 216.278 82.6327C214.802 83.7396 212.99 84.293 210.841 84.293C209.105 84.293 207.542 83.9132 206.153 83.1536C204.786 82.3722 203.712 81.2762 202.93 79.8655C202.171 78.4548 201.791 76.827 201.791 74.9822C201.791 73.1157 202.171 71.4771 202.93 70.0664C203.69 68.6556 204.754 67.5705 206.121 66.8108C207.488 66.0512 209.062 65.6714 210.841 65.6714C212.556 65.6714 214.086 66.0404 215.432 66.7783C216.799 67.5162 217.852 68.5688 218.59 69.9361C219.349 71.2818 219.729 72.8336 219.729 74.5915ZM215.008 73.2893C214.987 72.1173 214.564 71.1841 213.739 70.4896C212.914 69.7734 211.905 69.4153 210.711 69.4153C209.583 69.4153 208.628 69.7625 207.846 70.457C207.087 71.1298 206.62 72.0739 206.446 73.2893H215.008ZM227.613 68.7641C228.199 67.8092 228.959 67.0604 229.892 66.5178C230.847 65.9752 231.932 65.704 233.148 65.704V70.4896H231.943C230.511 70.4896 229.426 70.826 228.688 71.4988C227.972 72.1716 227.613 73.3436 227.613 75.0148V84H223.056V65.9644H227.613V68.7641ZM242.566 60.4951C244.823 60.4951 246.635 61.1137 248.003 62.3508C249.392 63.5662 250.086 65.2482 250.086 67.3968C250.086 69.5238 249.403 71.1515 248.035 72.2801C246.668 73.387 244.856 73.9404 242.599 73.9404L242.468 76.4472H238.464L238.301 70.9128H239.766C241.654 70.9128 243.109 70.6632 244.129 70.164C245.149 69.6648 245.659 68.7533 245.659 67.4294C245.659 66.4744 245.377 65.7148 244.812 65.1505C244.27 64.5862 243.521 64.3041 242.566 64.3041C241.568 64.3041 240.786 64.5754 240.222 65.118C239.679 65.6605 239.408 66.4093 239.408 67.3643H235.111C235.089 66.0404 235.371 64.8575 235.957 63.8158C236.543 62.774 237.401 61.9601 238.529 61.3741C239.679 60.7881 241.025 60.4951 242.566 60.4951ZM240.45 84.2279C239.625 84.2279 238.941 83.9783 238.399 83.4791C237.878 82.9582 237.618 82.318 237.618 81.5584C237.618 80.7987 237.878 80.1693 238.399 79.6702C238.941 79.1493 239.625 78.8888 240.45 78.8888C241.253 78.8888 241.915 79.1493 242.436 79.6702C242.957 80.1693 243.217 80.7987 243.217 81.5584C243.217 82.318 242.957 82.9582 242.436 83.4791C241.915 83.9783 241.253 84.2279 240.45 84.2279Z" fill="#26313F" fill-opacity="0.8"/>
</g>
<defs>
<clipPath id="clip0_44_304">
<rect width="289" height="354" fill="white"/>
</clipPath>
</defs>
</svg>
