<svg width="289" height="354" viewBox="0 0 289 354" fill="none" xmlns="http://www.w3.org/2000/svg">
<mask id="mask0_35_187" style="mask-type:alpha" maskUnits="userSpaceOnUse" x="44" y="336" width="78" height="18">
<path fill-rule="evenodd" clip-rule="evenodd" d="M44.7439 336.569H121.794V353.539H44.7439V336.569Z" fill="white"/>
</mask>
<g mask="url(#mask0_35_187)">
<path fill-rule="evenodd" clip-rule="evenodd" d="M49.5283 343.957C47.2093 345.082 44.6698 346.804 44.7456 349.23C44.8084 351.248 46.8076 352.843 48.9223 353.317C51.037 353.79 53.2501 353.411 55.3961 353.081C65.3838 351.543 75.5657 351.096 85.6651 351.751C97.5013 352.518 110.57 354.512 120.268 348.17C120.857 347.785 121.454 347.336 121.688 346.704C122.102 345.587 121.23 344.421 120.281 343.634C117.191 341.071 112.961 340.13 108.919 339.276C89.2543 335.123 67.8439 335.072 49.5283 343.957Z" fill="#ECEDEF"/>
</g>
<path fill-rule="evenodd" clip-rule="evenodd" d="M122.605 133.851C121.636 134.683 121.097 135.855 120.686 137.019C117.19 146.934 121.319 157.812 127.11 166.753C131.851 174.072 139.634 180.88 149.285 176.189C155.724 173.059 156.471 167.888 154.869 161.775C152.776 153.789 135.817 122.503 122.605 133.851Z" fill="#ECEDEF"/>
<path fill-rule="evenodd" clip-rule="evenodd" d="M160.903 264.831C159.811 268.026 158.534 271.153 157.098 274.174C154.527 279.585 151.441 284.66 147.973 289.189C145.87 291.936 143.563 294.512 141.075 296.895C128.005 309.414 109.986 316.575 90.8384 315.007C79.3579 314.067 67.7638 312.248 57.4187 307.535C49.5109 303.932 42.5927 298.75 36.4906 292.819C35.0896 291.46 33.7339 290.061 32.4215 288.632C31.4184 287.548 30.442 286.445 29.4874 285.331C24.4168 279.406 20.2355 273.217 16.8919 266.849C-8.5801 218.349 14.5045 159.473 63.0076 127.854C76.5609 119.017 106.528 112.383 108.309 134.717C109.859 154.183 114.645 173.459 130.988 187.237C136.473 191.863 142.938 195.415 148.341 200.122C167.146 216.505 168.59 242.346 160.903 264.831Z" fill="#F4F4F5"/>
<path fill-rule="evenodd" clip-rule="evenodd" d="M160.903 264.831C159.811 268.026 158.534 271.153 157.098 274.174C154.527 279.585 151.441 284.66 147.973 289.189C145.87 291.936 143.563 294.512 141.075 296.895C128.005 309.414 109.986 316.575 90.8383 315.007C79.3579 314.067 67.7638 312.248 57.4186 307.535C49.5109 303.932 42.5927 298.75 36.4905 292.819C35.0895 291.46 33.7338 290.061 32.4215 288.632C31.4184 287.548 30.442 286.445 29.4874 285.331C24.4167 279.406 20.2355 273.217 16.8918 266.849C30.2481 255.923 50.2298 251.902 68.1284 254.907C84.3083 257.623 99.1793 265.093 115.285 268.159C130.426 271.04 146.432 269.858 160.903 264.831Z" fill="#ECEDEF"/>
<path fill-rule="evenodd" clip-rule="evenodd" d="M157.098 274.175C154.527 279.585 151.441 284.66 147.973 289.189C145.87 291.936 143.563 294.513 141.075 296.895C128.005 309.414 109.986 316.575 90.8384 315.007C79.358 314.067 67.7638 312.248 57.4186 307.536C49.5108 303.932 42.5928 298.75 36.4906 292.819C35.0896 291.46 33.7338 290.061 32.4214 288.632C35.7901 284.514 43.8634 281.505 48.2536 279.667C61.9626 273.925 77.519 271.884 92.3698 274.241C101.095 275.628 109.516 278.426 118.272 279.633C131.414 281.445 145.094 279.439 157.098 274.175Z" fill="#E1E3E6"/>
<path fill-rule="evenodd" clip-rule="evenodd" d="M21.9948 284.182C21.8256 284.182 21.6576 284.114 21.5419 283.983C14.2203 275.697 8.77363 265.52 5.35323 253.733C2.48805 243.86 1.04276 232.871 0.934591 220.138C0.931916 219.839 1.19189 219.594 1.51505 219.591H1.51973C1.84072 219.591 2.1022 219.832 2.1047 220.13C2.21204 232.768 3.64429 243.668 6.48339 253.451C9.86032 265.088 15.2312 275.129 22.447 283.295C22.6518 283.527 22.6154 283.869 22.3654 284.059C22.2566 284.142 22.1254 284.182 21.9948 284.182Z" fill="#ECEDEF"/>
<path fill-rule="evenodd" clip-rule="evenodd" d="M28.0191 277.472C27.8319 277.472 27.6481 277.389 27.5348 277.235C22.6005 270.506 18.4745 263.252 15.2714 255.675C15.1534 255.396 15.3017 255.081 15.6024 254.971C15.9034 254.862 16.2429 254.999 16.3608 255.278C19.5321 262.78 23.617 269.962 28.5024 276.624C28.6842 276.872 28.6149 277.21 28.3478 277.378C28.247 277.442 28.1324 277.472 28.0191 277.472Z" fill="white"/>
<path fill-rule="evenodd" clip-rule="evenodd" d="M35.4062 286.68C35.2454 286.68 35.0852 286.619 34.9697 286.499C33.2886 284.753 31.7663 282.857 30.4449 280.862C30.2757 280.607 30.3616 280.273 30.637 280.116C30.9123 279.959 31.2726 280.038 31.4418 280.294C32.7269 282.233 34.2075 284.078 35.8424 285.776C36.0577 285.999 36.0368 286.342 35.7959 286.542C35.6842 286.635 35.545 286.68 35.4062 286.68Z" fill="white"/>
<path fill-rule="evenodd" clip-rule="evenodd" d="M151.636 168.089H151.626C151.302 168.083 151.045 167.836 151.051 167.536C151.119 163.943 150.417 160.273 149.02 156.921C148.903 156.641 149.053 156.327 149.354 156.219C149.656 156.111 149.995 156.25 150.111 156.529C151.562 160.011 152.292 163.823 152.221 167.555C152.215 167.852 151.954 168.089 151.636 168.089Z" fill="white"/>
<path fill-rule="evenodd" clip-rule="evenodd" d="M141.075 296.895C128.005 309.414 109.986 316.575 90.8383 315.007C79.3578 314.067 67.7639 312.248 57.4186 307.536C49.5108 303.932 42.5927 298.75 36.4905 292.819C41.9341 288.584 49.6346 286.435 56.8953 286.495C67.926 286.588 78.4133 290.567 88.956 293.583C102.155 297.359 116.015 299.692 129.777 298.62C133.572 298.324 137.364 297.753 141.075 296.895Z" fill="#D4D8DC"/>
<path fill-rule="evenodd" clip-rule="evenodd" d="M96.1671 325.705C95.8321 326.118 96.1671 335.212 96.1671 335.212H87.0396L84.7458 321.159L96.1671 325.705Z" fill="#6A8295"/>
<path fill-rule="evenodd" clip-rule="evenodd" d="M85.7977 334.291V339.766C85.7977 341.188 86.8436 342.416 88.302 342.701L92.036 343.433L98.1454 345.902C101.875 347.41 105.959 347.933 109.974 347.415L112.803 347.049C113.569 346.949 114.053 346.33 114.053 345.679C114.053 345.382 113.951 345.076 113.728 344.815C112.918 343.865 111.862 343.133 110.669 342.691L108.528 341.896C106.761 341.241 105.089 340.386 103.549 339.355C102.118 338.4 100.796 337.294 99.6136 336.054L96.7317 333.034C96.2844 332.563 95.651 332.295 94.9851 332.295H91.8497C91.5391 332.295 91.2337 332.354 90.9528 332.466C90.6895 332.568 90.4486 332.715 90.2374 332.903L89.3977 333.653C88.8162 334.173 87.9094 334.176 87.3256 333.656C86.7445 333.139 85.7977 333.532 85.7977 334.291Z" fill="#234662"/>
<path fill-rule="evenodd" clip-rule="evenodd" d="M90.2375 332.903L95.9865 338.272C97.1268 339.336 98.7045 339.859 100.287 339.692L103.549 339.355C102.118 338.4 100.796 337.294 99.6137 336.054L96.7318 333.034C96.2846 332.563 95.6511 332.295 94.9852 332.295H91.85C91.5394 332.295 91.2338 332.354 90.9531 332.466L90.2375 332.903Z" fill="#011533"/>
<path fill-rule="evenodd" clip-rule="evenodd" d="M85.7977 338.782V339.765C85.7977 341.188 86.8436 342.416 88.302 342.701L92.036 343.432L98.1454 345.902C101.875 347.41 105.959 347.932 109.974 347.414L112.803 347.049C113.569 346.949 114.053 346.329 114.053 345.679C114.053 345.382 113.951 345.075 113.728 344.814C113.555 344.868 113.384 344.919 113.214 344.969C108.201 346.426 102.806 346.138 97.9429 344.274C94.1669 342.826 91.6225 341.984 90.035 341.506C88.5492 341.059 87.2136 340.248 86.1568 339.154L85.7977 338.782Z" fill="#060D16"/>
<path fill-rule="evenodd" clip-rule="evenodd" d="M69.2029 325.705C69.5381 326.118 69.2029 335.212 69.2029 335.212H78.3304L80.6241 321.159L69.2029 325.705Z" fill="#6A8295"/>
<path fill-rule="evenodd" clip-rule="evenodd" d="M108.533 231.261C108.055 260.664 103.222 289.993 99.2744 319.287C98.8817 322.195 98.4903 325.104 98.0975 328.012C97.9554 329.067 97.0979 329.878 96.0311 330.03C95.9007 330.049 95.7669 330.058 95.6298 330.056C93.7475 330.027 91.8667 330.004 89.9826 329.999C89.9356 329.999 89.8905 329.999 89.8436 330C89.5613 330.002 89.2769 330.014 88.9944 330.03C88.4761 330.058 87.9662 330.09 87.4947 330.083C87.4514 330.083 87.4078 330.081 87.3643 330.08C87.1438 330.073 86.9315 330.056 86.7325 330.022C86.7023 330.017 86.6722 330.013 86.6423 330.007C86.6005 329.999 86.5587 329.991 86.5184 329.98C86.4933 329.974 86.4684 329.97 86.4448 329.962C86.3947 329.949 86.3463 329.935 86.2994 329.92C86.2561 329.906 86.2143 329.892 86.174 329.875C86.1725 329.875 86.1706 329.873 86.169 329.873C86.1407 329.862 86.114 329.851 86.0889 329.839C86.0586 329.827 86.0304 329.813 86.0018 329.799C85.9968 329.796 85.9918 329.794 85.9886 329.791C85.96 329.777 85.9317 329.762 85.905 329.746C85.8731 329.727 85.843 329.709 85.813 329.689C85.7778 329.664 85.7427 329.639 85.7092 329.613C85.6776 329.588 85.6459 329.561 85.6156 329.534L85.6005 329.52C85.5721 329.492 85.542 329.462 85.5153 329.431C85.4852 329.399 85.4551 329.363 85.4268 329.326C85.4235 329.323 85.4217 329.321 85.4202 329.318C85.3951 329.284 85.3698 329.248 85.3466 329.211C85.2679 329.092 85.201 328.955 85.1458 328.802C85.1359 328.775 85.1276 328.75 85.1191 328.722C85.1107 328.696 85.1025 328.67 85.094 328.642C85.0823 328.6 85.0706 328.556 85.0607 328.513C85.0488 328.469 85.0405 328.424 85.0305 328.378C85.0305 328.373 85.0288 328.37 85.0288 328.367C85.0104 328.266 84.9937 328.161 84.9836 328.048C84.9771 327.992 84.9719 327.934 84.9686 327.876C84.9017 326.811 84.8783 325.744 84.8499 324.679C84.8315 324.024 84.8148 323.369 84.7999 322.715C84.7914 322.307 84.783 321.901 84.7747 321.494C84.773 321.434 84.7713 321.375 84.7713 321.314V321.313C84.7696 321.265 84.7696 321.217 84.7681 321.169C84.7581 320.588 84.7479 320.01 84.7379 319.43C84.7312 318.977 84.7245 318.524 84.7197 318.071C84.7061 317.04 84.6944 316.006 84.6827 314.975C84.5857 305.827 84.5757 296.678 84.5774 287.531C84.5807 278.112 84.6075 268.693 84.6476 259.274C84.6712 254.028 84.6961 248.784 84.7312 243.539C84.7329 243.054 84.7345 242.57 84.7379 242.086C84.7396 241.68 84.7429 241.272 84.7462 240.864C84.7345 241.101 84.7245 241.339 84.713 241.577C84.6643 242.626 84.6158 243.673 84.5674 244.721C84.3617 249.165 84.1578 253.611 83.9521 258.054C83.5091 267.628 83.0677 277.201 82.6247 286.775C82.1917 296.17 81.7589 305.564 81.3242 314.958C81.1719 318.256 81.0181 321.555 80.8678 324.852C80.8041 326.185 81.105 327.877 80.8877 329.13C80.8609 329.285 80.8091 329.42 80.7355 329.541C80.7255 329.558 80.714 329.576 80.7021 329.591C80.6904 329.61 80.677 329.627 80.6636 329.644C80.5483 329.791 80.3961 329.912 80.2156 330.01C80.1755 330.031 80.1337 330.053 80.0919 330.072C80.0885 330.073 80.0852 330.075 80.0818 330.076C80.0352 330.098 79.9867 330.117 79.9364 330.135C79.9046 330.148 79.8695 330.16 79.8362 330.171C79.6206 330.243 79.3813 330.295 79.1272 330.331H79.1205C79.047 330.342 78.9734 330.351 78.8965 330.359C78.181 330.432 77.3768 330.401 76.6646 330.359C76.1664 330.329 75.715 330.294 75.3706 330.287C75.2722 330.286 75.1769 330.283 75.0781 330.28C73.1688 330.233 71.1795 330.114 69.3372 330.111H69.2603C68.2739 330.111 67.453 329.394 67.3627 328.457C67.3025 327.846 67.244 327.236 67.1854 326.625C66.801 322.644 66.4163 318.66 66.032 314.679C65.4232 308.364 64.8149 302.05 64.2046 295.735C63.5259 288.71 62.8505 281.687 62.1717 274.662C61.5832 268.549 60.9914 262.435 60.4012 256.322C60.1887 254.115 60.0067 251.903 59.7643 249.699C59.236 244.923 59.0471 240.138 58.7811 235.331C58.7528 234.81 58.721 234.289 58.6908 233.767C58.6624 233.285 58.6358 232.817 58.6105 232.359C58.4067 228.567 58.3482 225.542 58.5505 221.81C58.6023 220.861 58.6692 219.865 58.7562 218.799C58.7695 218.655 58.7796 218.514 58.7863 218.379C58.8799 216.785 58.7645 215.75 59.8326 214.38C60.9126 212.995 63.0344 212.311 64.4972 211.587C65.353 211.164 66.214 210.776 67.0785 210.422C70.8518 208.88 74.7305 207.967 78.8046 207.292C78.9717 207.576 78.7429 207.629 79.0821 207.886C80.4363 208.913 91.039 205.472 92.6874 205.521C99.1557 205.707 107.908 202.982 108.241 211.112C108.383 214.598 108.481 218.081 108.533 221.559C108.548 222.621 108.56 223.682 108.566 224.743C108.582 226.916 108.57 229.088 108.533 231.261Z" fill="#1D2F49"/>
<path fill-rule="evenodd" clip-rule="evenodd" d="M79.5719 334.291V339.766C79.5719 341.188 78.526 342.416 77.0677 342.701L73.3335 343.433L67.2243 345.902C63.4953 347.41 59.4109 347.933 55.396 347.415L52.5662 347.049C51.801 346.949 51.3165 346.33 51.3165 345.679C51.3165 345.382 51.4183 345.076 51.642 344.815C52.4519 343.865 53.5078 343.133 54.7003 342.691L56.8419 341.896C58.6084 341.241 60.2804 340.386 61.8208 339.355C63.2517 338.4 64.5735 337.294 65.7561 336.054L68.638 333.034C69.0852 332.563 69.7187 332.295 70.3846 332.295H73.5199C73.8304 332.295 74.136 332.354 74.4169 332.466C74.6802 332.568 74.9211 332.715 75.1322 332.903L75.972 333.653C76.5534 334.173 77.4603 334.176 78.0441 333.656C78.6252 333.139 79.5719 333.532 79.5719 334.291Z" fill="#234662"/>
<path fill-rule="evenodd" clip-rule="evenodd" d="M75.1323 332.903L69.3834 338.272C68.243 339.336 66.6653 339.859 65.0828 339.692L61.8207 339.355C63.2518 338.4 64.5735 337.294 65.756 336.054L68.6381 333.034C69.0853 332.563 69.7187 332.295 70.3846 332.295H73.5198C73.8304 332.295 74.136 332.354 74.4167 332.466L75.1323 332.903Z" fill="#011533"/>
<path fill-rule="evenodd" clip-rule="evenodd" d="M79.5719 338.782V339.765C79.5719 341.188 78.526 342.416 77.0677 342.701L73.3335 343.432L67.2243 345.902C63.4953 347.41 59.4109 347.932 55.396 347.414L52.5662 347.049C51.801 346.949 51.3165 346.329 51.3165 345.679C51.3165 345.382 51.4183 345.075 51.642 344.814C51.8144 344.868 51.9858 344.919 52.156 344.969C57.1689 346.426 62.5638 346.138 67.4269 344.274C71.2028 342.826 73.7471 341.984 75.3347 341.506C76.8204 341.059 78.1561 340.248 79.2128 339.154L79.5719 338.782Z" fill="#060D16"/>
<path fill-rule="evenodd" clip-rule="evenodd" d="M70.2921 326.471C70.0838 322.542 69.9186 318.612 69.7306 314.683L69.2394 302.892C69.0663 298.962 68.9413 295.03 68.7937 291.099L68.3655 279.307L67.9975 267.512C67.881 263.58 67.7391 259.649 67.6473 255.717L67.3434 243.92C67.2666 239.987 67.1668 236.055 67.1105 232.122C67.3193 236.051 67.4845 239.981 67.6729 243.91L68.1644 255.701C68.3379 259.631 68.461 263.563 68.6094 267.493L69.0371 279.286L69.4044 291.081C69.5219 295.012 69.6619 298.943 69.7541 302.876L70.0582 314.672C70.1355 318.605 70.2353 322.538 70.2921 326.471Z" fill="#234662"/>
<path fill-rule="evenodd" clip-rule="evenodd" d="M95.3022 326.471C95.5106 322.542 95.6757 318.612 95.8638 314.683L96.355 302.892C96.528 298.962 96.6533 295.03 96.8007 291.099L97.2289 279.307L97.5968 267.512C97.7134 263.58 97.8553 259.649 97.9471 255.717L98.251 243.92C98.3279 239.987 98.4276 236.055 98.4841 232.122C98.2753 236.051 98.1099 239.981 97.9215 243.91L97.43 255.701C97.2566 259.631 97.1334 263.563 96.9849 267.493L96.5573 279.286L96.1902 291.081C96.0725 295.012 95.9325 298.943 95.8402 302.876L95.5361 314.672C95.4589 318.605 95.3591 322.538 95.3022 326.471Z" fill="#234662"/>
<path fill-rule="evenodd" clip-rule="evenodd" d="M75.078 330.28L84.5678 244.721C84.362 249.165 84.1577 253.611 83.9519 258.054C83.5097 267.628 83.0675 277.202 82.6251 286.775C82.1909 296.17 81.7584 305.564 81.3243 314.957C81.1715 318.256 81.0185 321.555 80.8675 324.852C80.8047 326.185 81.1054 327.877 80.8884 329.13C80.75 329.936 79.9122 330.254 78.8958 330.358H75.0699L75.078 330.28Z" fill="#081A35"/>
<path fill-rule="evenodd" clip-rule="evenodd" d="M89.8444 330C87.548 330.022 85.1501 330.69 84.9684 327.876C84.9008 326.812 84.8783 325.744 84.8495 324.679C84.7577 321.444 84.7174 318.209 84.6822 314.974C84.5857 305.827 84.576 296.679 84.5777 287.531C84.5809 278.112 84.6083 268.693 84.6484 259.274C84.671 254.029 84.6965 248.784 84.7305 243.539L89.8444 330Z" fill="#081A35"/>
<path fill-rule="evenodd" clip-rule="evenodd" d="M140.676 141.202C140.57 141.509 140.357 141.893 140.083 142.423C139.726 143.113 139.491 143.879 139.2 144.596C139.2 144.596 138.542 147.589 137.48 147.92V151.142L130.101 152.755L129.73 151.142V148.534C129.686 148.469 129.641 148.401 129.594 148.334C128.529 146.77 126.87 144.636 127.821 142.81C127.842 142.768 127.865 142.726 127.89 142.686C127.914 142.643 127.941 142.601 127.968 142.56C127.99 142.529 128.01 142.497 128.028 142.464C128.287 142.04 128.424 141.555 128.42 141.068C128.42 140.992 128.42 140.915 128.421 140.835C128.444 139.412 128.773 137.513 130.202 136.716C130.623 136.482 130.941 135.922 131.219 135.565C131.814 134.799 132.388 134.019 132.968 133.244C134.214 131.581 135.487 129.43 137.247 128.217C137.355 128.142 137.515 128.069 137.615 128.154C137.653 128.186 137.669 128.234 137.684 128.279C137.949 129.088 137.927 129.973 137.65 130.777C137.415 131.449 137.119 132.227 136.778 132.858C135.975 134.329 134.615 135.505 134.044 137.092C134.04 137.103 134.041 137.113 134.047 137.119C134.116 137.224 134.935 137.096 135 137.086C135.772 136.963 136.24 136.684 136.709 137.336C136.948 137.667 137.162 138.018 137.378 138.364C137.446 138.472 137.513 138.581 137.582 138.686C137.818 138.808 138.054 138.928 138.289 139.049C138.465 139.14 138.642 139.23 138.817 139.32C138.91 139.368 139.151 139.447 139.186 139.547C139.196 139.577 139.195 139.609 139.194 139.641C139.282 139.565 139.287 139.564 139.393 139.614C139.47 139.65 139.545 139.691 139.62 139.73C139.755 139.801 139.89 139.874 140.021 139.952C140.209 140.065 140.4 140.187 140.546 140.346C140.78 140.599 140.783 140.893 140.676 141.202Z" fill="#FFD5CC"/>
<path fill-rule="evenodd" clip-rule="evenodd" d="M137.406 138.692C137.401 139.136 137.164 139.6 136.98 139.969C136.696 140.54 136.405 141.107 136.099 141.667C135.706 142.386 135.3 143.117 134.784 143.769C134.504 144.121 134.286 144.307 134.121 144.35C133.587 144.486 132.813 143.588 132.813 143.588C132.813 143.588 132.22 141.688 133.24 140.418C134.191 139.235 134.092 137.357 134.075 137.108C134.144 137.213 134.962 137.09 135.027 137.08C135.802 136.961 136.272 136.687 136.736 137.34C136.936 137.622 137.169 137.926 137.314 138.236C137.381 138.382 137.408 138.536 137.406 138.692Z" fill="#FFD5CC"/>
<path fill-rule="evenodd" clip-rule="evenodd" d="M139.312 140.111C139.312 140.111 137.208 143.956 136.774 145.187C136.724 145.328 136.696 145.435 136.696 145.497C136.692 146.039 134.98 145.514 134.785 144.291C135.405 143.507 136.324 141.898 137.6 139.218L139.141 140.022L139.312 140.111Z" fill="#FFD5CC"/>
<path fill-rule="evenodd" clip-rule="evenodd" d="M139.301 139.568C140.619 140.223 140.912 140.518 140.677 141.2L140.676 141.202C140.604 141.386 138.575 145.072 138.269 145.185C137.999 145.285 136.916 145.266 136.774 144.665C137.208 143.435 139.312 139.589 139.312 139.589" fill="#FFD5CC"/>
<path fill-rule="evenodd" clip-rule="evenodd" d="M134.144 142.156C134.091 142.199 134.038 142.241 133.982 142.285C133.256 142.849 132.359 143.432 131.991 143.974C131.877 144.139 131.814 144.299 131.82 144.454C131.827 144.631 131.91 144.819 132.019 145.021C132.02 145.022 132.02 145.024 132.022 145.026C132.345 145.783 132.708 146.373 132.322 147.121C132.28 147.199 132.233 147.279 132.174 147.361C132.061 147.521 131.913 147.658 131.738 147.773C131.178 148.138 130.348 148.285 129.594 148.334C128.529 146.77 126.87 144.636 127.821 142.812C127.864 142.728 127.913 142.643 127.968 142.56C127.99 142.53 128.01 142.498 128.028 142.464C129.089 141.675 130.872 140.498 133.589 139.155C133.589 139.155 133.84 139.07 134.158 138.992C134.51 138.905 134.941 138.825 135.207 138.874C135.266 138.885 135.31 138.928 135.339 138.997C135.564 139.513 134.99 141.474 134.144 142.156Z" fill="#FFD5CC"/>
<path fill-rule="evenodd" clip-rule="evenodd" d="M132.322 147.121C132.708 146.372 132.346 145.783 132.022 145.025C132.318 145.578 132.788 146.243 132.322 147.121Z" fill="#FFD5CC"/>
<path fill-rule="evenodd" clip-rule="evenodd" d="M138.32 145.575C138.436 145.552 138.544 145.503 138.635 145.419C138.602 145.856 138.322 146.642 137.874 146.86C137.496 147.044 136.821 147.033 136.413 146.985C135.871 146.921 135.358 146.719 134.821 146.624C133.356 146.364 133.088 147.666 131.738 147.773C131.913 147.658 132.062 147.521 132.174 147.361C132.233 147.279 132.281 147.199 132.322 147.121C132.708 146.373 132.346 145.783 132.022 145.026C132.02 145.024 132.02 145.022 132.019 145.021C131.883 144.698 131.897 144.337 131.991 143.974C132.359 143.432 133.256 142.849 133.982 142.285C134.038 142.241 134.091 142.198 134.144 142.156C134.991 141.474 135.564 139.513 135.34 138.997C135.584 139.075 135.766 139.306 135.82 139.548C135.884 139.835 135.807 140.134 135.715 140.415C135.378 141.453 134.753 142.517 133.77 143.144C133.369 143.4 132.781 143.583 133.267 144.105C133.783 144.658 135.029 144.08 135.077 143.404C135.043 143.877 134.869 144.526 135.424 144.81C136.07 145.14 136.839 144.69 136.964 144.056C136.809 144.843 137.3 145.774 138.32 145.575Z" fill="#FF888A" fill-opacity="0.5"/>
<path fill-rule="evenodd" clip-rule="evenodd" d="M134.473 137.498C134.289 137.978 134.182 138.483 134.159 138.992C133.84 139.069 133.589 139.154 133.589 139.154C130.873 140.498 129.089 141.675 128.029 142.464C128.287 142.04 128.424 141.555 128.42 141.068C128.42 140.991 128.42 140.915 128.421 140.835C128.553 140.716 128.697 140.607 128.849 140.509C130.176 139.643 131.903 139.484 133.301 138.723C133.482 138.625 133.662 138.511 133.766 138.341C133.873 138.167 133.884 137.954 133.968 137.769C134.052 137.583 134.275 137.416 134.473 137.498Z" fill="#FF888A" fill-opacity="0.5"/>
<path fill-rule="evenodd" clip-rule="evenodd" d="M137.314 138.236C137.415 138.465 137.485 138.713 137.493 138.967C137.502 139.221 137.464 139.48 137.371 139.723C137.326 139.845 137.266 139.965 137.204 140.074L137.023 140.405C136.903 140.625 136.776 140.842 136.652 141.061L136.27 141.711C136.137 141.925 136.009 142.141 135.872 142.353C135.603 142.78 135.326 143.202 135.024 143.612C135.227 143.153 135.453 142.704 135.688 142.26C135.804 142.038 135.928 141.819 136.047 141.598L136.421 140.943C136.55 140.726 136.675 140.508 136.807 140.293L137.004 139.971C137.07 139.865 137.134 139.765 137.183 139.656C137.388 139.221 137.426 138.722 137.314 138.236Z" fill="#FF888A"/>
<path fill-rule="evenodd" clip-rule="evenodd" d="M139.239 139.628C139.311 139.846 139.33 140.084 139.294 140.317C139.257 140.55 139.166 140.774 139.057 140.982C138.832 141.394 138.591 141.781 138.351 142.179C138.105 142.572 137.857 142.963 137.595 143.347C137.334 143.731 137.066 144.112 136.774 144.48C136.97 144.06 137.188 143.653 137.415 143.251C137.64 142.848 137.879 142.451 138.121 142.057L138.492 141.47L138.874 140.892C138.995 140.7 139.104 140.504 139.167 140.292C139.235 140.081 139.253 139.856 139.239 139.628Z" fill="#FF888A"/>
<path fill-rule="evenodd" clip-rule="evenodd" d="M98.529 121.327L96.5959 129.122L95.9932 122.043L98.529 121.327Z" fill="#41211E"/>
<path fill-rule="evenodd" clip-rule="evenodd" d="M129.214 153.178V149.773C129.214 149.618 131.976 149.674 132.22 149.698C134.525 149.919 136.492 149.156 138.706 148.759C138.749 149.819 138.729 150.881 138.647 151.939C138.631 152.142 138.612 152.348 138.529 152.537C138.265 153.139 137.478 153.35 136.79 153.473C135.349 153.73 133.895 153.93 132.435 154.072C131.82 154.131 131.194 154.18 130.587 154.073C129.942 153.96 129.686 153.6 129.214 153.178Z" fill="#E0DBC4"/>
<path fill-rule="evenodd" clip-rule="evenodd" d="M96.6046 131.63C97.1546 132.376 97.3352 133.269 97.3285 134.186C97.3252 134.763 97.2498 135.349 97.1461 135.911C96.678 138.453 95.8287 143.269 92.7258 144.193C92.3045 144.321 90.8017 144.372 89.7784 144.611C89.5127 144.671 89.2785 144.746 89.1065 144.839C88.9324 144.93 88.8204 145.039 88.7937 145.169C88.7922 145.175 88.3775 147.513 88.5981 149.644C88.6164 149.816 88.6383 149.987 88.6649 150.156C88.8271 151.164 89.1581 152.078 89.78 152.604C91.7897 154.306 85.9952 161.088 85.9952 161.088L74.5799 150.658C74.5967 150.635 74.6134 150.612 74.6301 150.589C75.13 149.909 75.5713 149.18 75.9624 148.442C76.5375 147.347 76.4472 146.439 76.499 145.247C76.5408 144.302 76.4591 143.365 76.3285 142.434C76.0593 140.51 75.5864 138.606 75.5881 136.688C75.5897 136.089 75.7318 136.115 75.3089 135.549C74.9879 135.118 74.5649 134.744 74.2004 134.338C74.1336 134.263 74.0684 134.189 74.0065 134.111C73.3077 133.252 72.5251 132.168 72.7326 131.032C72.9215 129.992 73.8477 130.207 74.5799 129.894C74.8157 129.793 75.0313 129.627 75.2236 129.425C75.665 128.968 75.9975 128.321 76.2332 127.805C76.8217 126.52 76.3385 125.158 76.907 123.874C77.1561 123.313 77.6712 122.821 78.3163 122.723C78.6977 122.666 79.082 122.746 79.4632 122.799C80.8023 122.984 81.9241 122.61 83.2164 122.494C84.2565 122.402 85.3915 122.556 86.4315 122.598C89.4624 122.723 92.5018 123.201 95.538 122.857C96.3269 122.768 97.1814 122.568 97.8132 122.152C97.7532 123.13 97.5308 124.488 97.2967 125.752C97.3049 127.139 97.0711 128.529 96.5978 129.844C96.5777 130.103 96.561 130.364 96.5426 130.625C96.5225 130.904 96.5026 131.183 96.4757 131.46C96.5175 131.518 96.561 131.574 96.6046 131.63Z" fill="#FFD5CC"/>
<path fill-rule="evenodd" clip-rule="evenodd" d="M82.7628 154.346C83.0947 154.531 83.4351 154.712 83.7552 154.914C84.2277 155.214 84.8317 155.246 85.3428 155.007C85.5513 154.91 85.7721 154.824 85.9743 154.725C86.8483 154.297 87.4697 153.512 87.8514 152.666C88.2332 151.821 88.4006 150.907 88.5649 150.003C89.5184 151.806 89.4821 154.031 88.4705 155.807C88.0478 156.548 87.4692 157.211 87.0984 157.976C86.701 158.795 86.5574 159.7 86.4193 160.587C86.3959 160.736 86.3489 160.883 86.2621 161.011C85.8418 161.631 85.0063 161.316 84.4273 160.976C83.1472 160.223 81.8876 159.414 80.8611 158.38C79.9856 157.497 79.2991 156.471 78.6182 155.452C77.4606 153.718 76.2566 151.902 75.8826 149.859C75.5853 148.237 76.7745 149.644 77.2843 150.166C78.0259 150.926 78.8235 151.638 79.6695 152.297C80.6406 153.054 81.6758 153.74 82.7628 154.346Z" fill="#FF888A" fill-opacity="0.5"/>
<path fill-rule="evenodd" clip-rule="evenodd" d="M77.3957 126.283C77.4912 125.6 77.6276 124.743 77.9844 124.036C77.5253 125.362 77.856 126.611 77.4661 128.003C77.4445 128.079 77.3365 128.394 77.1968 128.795C77.3105 127.981 77.274 127.156 77.3957 126.283Z" fill="#FFD5CC"/>
<path fill-rule="evenodd" clip-rule="evenodd" d="M97.7359 122.23C97.1039 122.646 96.2493 122.846 95.4607 122.935C92.425 123.279 89.3849 122.801 86.3539 122.675C85.314 122.633 84.1787 122.48 83.14 122.572C81.7363 122.698 80.559 123.236 79.0997 123.045C79.0224 123.035 78.9417 123.024 78.8633 123.021C78.8656 123.02 78.868 123.018 78.8701 123.017C80.7056 121.882 85.6847 118.965 85.6847 118.965H95.1198L97.5654 120.91C97.7382 121.048 97.7778 121.544 97.7359 122.23Z" fill="#FFD5CC"/>
<path fill-rule="evenodd" clip-rule="evenodd" d="M87.0962 134.248C86.9828 134.25 86.8706 134.242 86.762 134.226L87.0962 134.248Z" stroke="#234662"/>
<path fill-rule="evenodd" clip-rule="evenodd" d="M98.6427 121.327C98.512 121.632 98.3052 121.881 98.0484 122.085C97.9847 122.138 97.9187 122.185 97.8495 122.23C97.7597 122.29 97.6642 122.344 97.5654 122.395C97.1448 122.431 96.5845 122.143 95.9663 122.106C94.7185 122.031 93.4706 122.313 92.2477 122.501C89.6747 122.9 87.1845 122.542 84.6537 122.563C84.4628 122.553 84.2729 122.547 84.0843 122.545C83.8024 122.541 83.5252 122.548 83.2536 122.572C83.2285 122.574 83.2024 122.577 83.1773 122.58C82.8547 122.612 82.5432 122.666 82.2364 122.726C82.2341 122.726 82.2329 122.727 82.2307 122.727C81.2408 122.922 80.3055 123.189 79.2132 123.046C79.136 123.035 79.0553 123.024 78.9768 123.021C78.9188 123.018 78.8622 123.02 78.8075 123.031C78.762 123.037 78.7177 123.051 78.6758 123.071C78.6064 123.105 78.5495 123.154 78.5031 123.212C78.4519 123.275 78.4098 123.345 78.3723 123.415C78.2586 123.625 78.1689 123.831 78.0985 124.036C77.6392 125.361 77.9701 126.611 77.5802 128.002C77.5586 128.078 77.4506 128.394 77.3107 128.794C77.1131 129.365 76.8504 130.11 76.6879 130.588C76.6289 130.671 76.5572 130.745 76.4631 130.793C76.0516 131.003 75.3493 130.131 74.923 130.022C74.0343 129.795 72.9228 130.267 72.7683 131.111C72.5614 132.245 73.3445 133.33 74.0423 134.19C74.4447 134.687 74.9651 135.119 75.3458 135.628C75.7686 136.193 75.6253 136.168 75.6243 136.766C75.6232 138.685 76.096 140.588 76.3653 142.513C75.772 141.671 75.1788 140.827 74.5855 139.984C73.7422 138.787 72.8989 137.588 72.1432 136.342C71.4999 135.283 70.9215 134.192 70.4089 133.073C69.5303 131.929 69.2155 130.314 69.0826 128.956C68.9168 127.246 69.1111 125.516 69.5201 123.847C69.5201 123.379 69.8497 122.826 69.9747 122.372C70.0429 122.126 70.1237 121.883 70.2123 121.642C70.3044 121.391 70.4691 121.176 70.3338 120.94C69.902 120.183 69.3429 119.512 69.1951 118.64C69.1054 118.106 69.044 117.443 69.519 117.026C69.8793 116.71 70.3521 116.571 70.8192 116.461C73.3513 115.857 75.3379 114.285 77.7506 113.499C80.7806 112.512 83.607 111.329 86.855 111.317C90.8918 111.305 94.4276 113.15 96.9925 115.982C98.0096 117.105 99.2733 119.867 98.6427 121.327Z" fill="#653E37"/>
<path fill-rule="evenodd" clip-rule="evenodd" d="M90.4416 112.392C89.9518 111.92 89.3096 111.587 88.6229 111.381C87.9364 111.162 87.2165 111.034 86.4908 111.019C85.7655 111.003 85.0361 111.091 84.3331 111.278C83.6289 111.46 82.9475 111.721 82.2846 112.018C80.9589 112.614 79.702 113.347 78.3727 113.956C77.7082 114.26 77.0237 114.531 76.3149 114.732C75.6067 114.934 74.8732 115.064 74.1338 115.091C74.8726 115.05 75.6012 114.908 76.302 114.695C77.0036 114.482 77.6789 114.2 78.3343 113.886C79.6458 113.256 80.8843 112.502 82.2089 111.876C82.8714 111.565 83.5572 111.288 84.2743 111.088C84.9895 110.884 85.7415 110.778 86.4946 110.781C87.2479 110.784 88.0001 110.904 88.7163 111.119C89.4372 111.321 90.1359 111.662 90.6857 112.171L90.4416 112.392Z" fill="#653E37"/>
<path fill-rule="evenodd" clip-rule="evenodd" d="M77.028 114.348C76.5416 114.317 76.0453 114.499 75.5613 114.695C75.0731 114.89 74.5859 115.099 74.0837 115.277C73.5818 115.455 73.0624 115.604 72.5281 115.67C71.9958 115.74 71.4469 115.727 70.9316 115.593C71.4539 115.701 71.9953 115.686 72.5142 115.592C73.0351 115.501 73.5345 115.331 74.0187 115.131C74.503 114.931 74.9736 114.701 75.4536 114.48C75.6935 114.369 75.9389 114.259 76.2019 114.173C76.4639 114.088 76.7468 114.028 77.0407 114.031L77.028 114.348Z" fill="#653E37"/>
<path fill-rule="evenodd" clip-rule="evenodd" d="M84.6934 134.093C84.5252 134.083 84.3627 134.056 84.2057 134.016L84.6934 134.093Z" stroke="#234662"/>
<path fill-rule="evenodd" clip-rule="evenodd" d="M108.533 231.261C105.266 232.071 101.863 232.395 98.482 232.238C98.4803 232.24 98.4786 232.24 98.4771 232.238C93.9548 232.032 89.4758 230.966 85.4417 229.054C84.1176 228.426 82.7885 227.697 81.3056 227.577C80.0133 227.473 78.7377 227.845 77.5022 228.213C75.2822 228.874 65.3397 232.384 58.6105 232.359C58.4067 228.567 58.3482 225.542 58.5505 221.81C61.2622 220.807 64.2212 220.188 66.0253 219.701C72.211 218.029 78.5203 216.754 84.895 215.891C87.8945 215.486 90.9472 215.172 93.948 215.569C96.8954 215.96 99.6924 217.027 102.356 218.263C104.481 219.249 106.544 220.351 108.533 221.559C108.548 222.622 108.56 223.682 108.566 224.743C108.582 226.916 108.57 229.088 108.533 231.261Z" fill="#081A35" fill-opacity="0.5"/>
<path fill-rule="evenodd" clip-rule="evenodd" d="M96.6917 152.034C96.6917 152.034 96.2553 217.523 93.7225 219.468C91.1882 221.413 76.7735 218.739 76.949 218.334C77.1229 217.928 69.0697 151.315 69.0697 151.315L70.775 151.004L71.8433 150.809L71.9319 150.88L74.1587 152.661L78.1711 155.87L85.7813 161.071L85.9184 161.166L85.9637 161.065L85.9652 161.06L89.7034 152.683L89.8507 152.669L91.2718 152.537L96.6917 152.034Z" fill="white"/>
<path fill-rule="evenodd" clip-rule="evenodd" d="M69.0697 151.315C69.0697 151.315 76.7049 167.223 77.8906 172.127C78.5836 174.994 78.9579 177.935 79.3377 180.848C79.5566 182.53 78.7081 186.739 80.2738 187.943C81.1413 188.61 84.1857 188.006 85.2204 187.969C88.2202 187.862 88.1331 186.038 88.1212 183.773C88.1115 181.931 88.1031 180.125 88.4898 178.33C88.9696 176.103 89.8873 173.875 90.0386 171.598C90.1744 169.555 90.2488 167.508 90.3083 165.462C90.3843 162.842 90.433 160.221 90.4442 157.6L93.3729 150.743C93.3729 150.743 95.629 200.87 95.6192 201.091C95.6095 201.312 89.7798 220.167 89.7788 220.17C89.9224 219.706 88.7493 217.775 88.5692 217.226C88.2019 216.105 87.9191 214.962 87.6512 213.818C87.4907 213.132 87.452 209.48 86.4835 209.296C85.9334 209.192 85.2258 210.525 85.0196 210.849C84.1468 212.217 83.6272 213.762 83.2174 215.297C82.9613 216.256 82.6851 217.532 81.8169 218.199C81.6012 218.365 79.751 218.923 79.7759 219.08C79.7415 218.862 69.0697 151.315 69.0697 151.315Z" fill="#081A35" fill-opacity="0.2"/>
<path fill-rule="evenodd" clip-rule="evenodd" d="M94.2127 194.135L93.5353 195.468L92.9966 196.53L92.3182 197.869L88.0268 206.331L79.311 194.903L79.502 193.409L79.7793 191.248L79.7952 191.125L79.8883 190.407L80.1918 188.045L80.2111 187.895L80.376 186.622L80.6816 184.25V184.249L80.7022 184.088L81.043 181.43L81.2669 179.691V179.69L81.2681 179.684V179.683L81.2943 179.481L81.7556 175.893L81.9171 174.634V174.631L81.9465 174.404L82.3023 171.642L82.4046 170.848L82.4056 170.835L82.4387 170.577L83.1557 165.014L83.1694 164.903L83.2102 164.587L83.3684 163.356L83.3763 163.298L83.3535 163.282L83.332 163.269L83.3365 163.236L83.3649 163.037L82.8023 162.7L82.708 162.644L82.633 162.599L82.525 162.534L84.7355 160.589L84.8742 160.66L85.0003 160.686H85.0014L85.4207 160.776L85.4401 160.78L86.2448 160.951L86.2812 160.931L88.1926 161.939L88.0517 162.21L88.0291 162.254L87.9278 162.333L87.8643 162.383L87.4256 162.726L87.4415 162.794L87.4654 162.893L87.4722 162.925L87.4346 162.958L87.4358 162.964L87.4448 163.004L87.496 163.238L88.5962 168.299L88.6723 168.648L88.7519 169.018L89.1541 170.866L89.2337 171.231L89.353 171.781L90.3645 176.437L90.6781 177.883L90.9749 179.245V179.246L91.3385 180.912L94.1082 193.656L94.2127 194.135Z" fill="#FDAC2A"/>
<path fill-rule="evenodd" clip-rule="evenodd" d="M88.0514 162.21L88.0287 162.254L87.9276 162.333L87.8639 162.383L87.4252 162.725L87.4412 162.794L87.465 162.893L87.3548 162.982L87.3342 162.999L87.3787 163.198L87.3899 163.254C87.3775 163.262 87.365 163.269 87.3525 163.277C86.1581 163.99 84.6341 164.556 83.318 164.856C83.2953 164.86 83.2725 164.866 83.2498 164.871L83.4372 163.548L83.4668 163.335L83.4691 163.318L83.4031 163.278L83.3361 163.236L82.7735 162.885L82.6702 162.821L82.8021 162.7L85 160.686H85.001L85.4205 160.776L85.4397 160.78L88.0514 162.21Z" fill="#FD922A"/>
<path fill-rule="evenodd" clip-rule="evenodd" d="M89.2337 171.23C86.8766 172.423 84.3059 173.436 81.917 174.634C81.8988 174.642 81.8817 174.652 81.8636 174.66L82.2251 171.92L82.3637 170.864C82.3772 170.859 82.3909 170.853 82.4045 170.847C84.4139 170.021 86.5277 169.272 88.6723 168.648L88.7519 169.018L89.1542 170.865L89.2337 171.23Z" fill="#FD922A"/>
<path fill-rule="evenodd" clip-rule="evenodd" d="M90.971 179.469V179.47C87.4513 180.983 83.8945 182.441 80.6556 184.265L80.9962 181.63L81.246 179.697C84.2825 178.692 87.319 177.687 90.3554 176.683L90.6719 178.116L90.971 179.469Z" fill="#FD922A"/>
<path fill-rule="evenodd" clip-rule="evenodd" d="M93.489 194.195L92.841 195.52C88.5658 193.899 84.2038 192.472 79.776 191.246L79.8664 190.533L80.1792 188.041C84.8008 189.565 89.3885 191.297 93.391 193.721L93.489 194.195Z" fill="#FD922A"/>
<path fill-rule="evenodd" clip-rule="evenodd" d="M90.4441 157.6L89.8451 158.754L88.1927 161.939L88.0518 162.21L88.0292 162.254L87.9745 162.359L87.8643 162.383L83.8979 163.241L83.4673 163.335L83.3685 163.356L83.2422 163.384L83.1217 163.308L82.4456 162.885L78.7485 160.571L78.4473 160.383L80.6556 158.518L80.8522 159.12L81.0453 159.707L84.7355 160.589L84.8743 160.66L85.0003 160.686H85.0015L85.4208 160.776L85.4402 160.78L86.2448 160.951L86.2813 160.931L89.418 158.562L89.7612 158.302L90.4441 157.6Z" fill="#FD922A"/>
<path fill-rule="evenodd" clip-rule="evenodd" d="M91.1779 159.964C90.9907 160.445 90.9123 161.262 90.3587 161.518C90.128 161.625 88.7454 161.467 88.7454 161.184C88.518 162.692 87.627 163.529 85.8883 163.447C85.1277 163.412 83.964 163.534 83.2317 163.315C83.0946 163.274 80.6554 162.779 80.6554 162.779C80.2341 163.359 79.7978 163.956 79.4099 164.538C77.5759 163.776 77.5224 162.489 76.8169 161.032C76.0679 159.49 75.0047 158.022 74.1152 156.545C73.8477 156.101 71.2364 151.004 70.7816 151.004L71.9318 150.88L74.6302 150.589C74.6134 150.612 74.5967 150.635 74.58 150.659L85.9652 161.06L85.9953 161.088C85.9953 161.088 91.6479 154.473 89.8507 152.669L91.2717 152.537C91.9035 153.407 92.395 154.335 92.4636 155.172C92.6057 156.868 91.7815 158.419 91.1779 159.964Z" fill="#081A35" fill-opacity="0.2"/>
<path fill-rule="evenodd" clip-rule="evenodd" d="M87.2777 198.588C87.2595 198.847 87.2292 199.107 87.1874 199.366C87.1824 199.392 87.1791 199.417 87.174 199.444C87.1592 199.537 87.1423 199.631 87.0905 199.712C87.0069 199.841 86.8514 199.909 86.7026 199.974C86.6926 199.979 86.6809 199.984 86.6691 199.99C85.8265 200.365 85.4052 201.091 84.5994 201.51C84.4523 201.586 84.0076 201.736 83.613 201.912C83.3238 202.04 83.0597 202.183 82.9577 202.319C82.9276 202.357 82.9109 202.394 82.9092 202.43C82.9092 202.43 82.8791 203.29 82.8072 204.669C82.7571 205.643 82.6852 206.876 82.5882 208.248C82.1769 214.052 81.3176 222.338 79.6859 223.99C77.7466 225.952 66.7393 227.852 61.1938 227.866C59.41 227.869 58.1912 227.678 58.0207 227.232C57.2399 225.178 57.7716 222.313 57.8752 220.193C57.9221 219.237 57.9622 218.271 58.0207 217.308C58.0642 216.603 58.116 215.899 58.1895 215.203C58.213 214.979 58.238 214.756 58.2665 214.533C57.459 214.671 56.6782 214.956 55.9092 215.28C55.8958 215.287 55.8808 215.291 55.8674 215.297C55.0916 215.625 54.3276 215.989 53.5569 216.276C51.203 217.152 48.9092 217.701 46.3831 217.892C44.295 218.05 42.8589 216.814 41.7404 215.22C40.5049 213.456 40.6236 210.886 40.5785 208.879C40.3929 200.288 41.6418 191.609 42.7887 183.103C43.3287 179.11 43.6547 174.677 44.8651 170.829C45.8648 167.653 46.6171 163.986 48.8039 161.268C50.8435 158.732 54.2524 156.809 57.3152 155.542C59.9333 154.457 62.553 153.375 65.1728 152.291C66.1023 156.765 67.4649 162.103 66.8597 166.609C66.4584 169.61 65.9067 171.029 67.8126 173.392C69.3908 175.352 70.8821 177.375 72.2714 179.455C74.7323 183.142 77.133 187.192 78.4471 191.454C78.4488 191.53 78.4504 191.569 78.4504 191.569L78.4789 191.561L79.8063 191.206C81.0986 190.862 82.3893 190.517 83.6799 190.171C85.208 189.763 86.0322 189.884 86.4852 190.396C86.9901 190.969 87.0269 192.033 87.0604 193.391C87.0604 195.143 87.3997 196.861 87.2777 198.588Z" fill="#234662"/>
<path fill-rule="evenodd" clip-rule="evenodd" d="M78.4472 191.454C77.1335 187.192 74.7321 183.142 72.2705 179.455C70.8817 177.375 69.3906 175.352 67.812 173.392C65.9073 171.029 66.4585 169.61 66.8596 166.609C67.4641 162.102 66.1016 156.765 65.1719 152.29C66.4187 151.774 67.6642 151.259 68.9109 150.743C77.7029 164.484 78.4064 189.551 78.4472 191.454Z" fill="#234662"/>
<path fill-rule="evenodd" clip-rule="evenodd" d="M137.053 187.949C137.053 187.949 136.324 191.271 132.437 191.389C131.661 191.415 130.76 191.312 129.713 191.028C122.949 189.199 112.425 187.125 107.518 181.681C107.152 181.276 106.82 180.854 106.52 180.41C105.932 184.786 105.943 189.173 106.298 193.554C106.898 200.996 108.491 208.428 109.824 215.774C109.834 215.831 109.844 215.887 109.854 215.944C110.427 219.144 110.845 222.507 109.638 225.546C105.646 225.684 101.821 225.682 97.8416 225.977C95.9693 226.115 91.0674 226.963 89.7032 225.232C88.991 224.33 89.3705 212.397 90.1161 198.249C90.1161 198.245 90.1179 198.239 90.1179 198.232C90.1194 198.208 90.1211 198.183 90.1228 198.158C91.1192 179.315 92.7676 156.586 93.3728 150.743L98.5572 152.261L101.785 153.207C103.723 153.775 105.497 154.74 106.976 156.032L112.714 161.042L117.753 165.442L125.52 172.225L125.868 170.107L126.111 168.627L128.841 151.962C128.841 151.962 136.441 153.415 140.721 150.743C140.721 150.743 141.159 178.222 137.053 187.949Z" fill="#234662"/>
<path fill-rule="evenodd" clip-rule="evenodd" d="M93.9199 131.42C94.1367 132.011 94.3079 132.611 94.4631 133.213C94.6212 133.815 94.7523 134.421 94.878 135.028L94.9638 135.485C94.978 135.567 94.9927 135.624 95.0063 135.727C95.0171 135.824 95.0171 135.925 94.9927 136.021C94.9484 136.213 94.8404 136.39 94.6871 136.522C94.5427 136.656 94.3235 136.738 94.1486 136.761C93.4929 136.876 92.8332 136.976 92.1625 137.033C92.7871 136.8 93.4227 136.607 94.0622 136.431C94.1499 136.408 94.1919 136.39 94.2516 136.358C94.3066 136.329 94.3568 136.293 94.3985 136.25C94.4845 136.165 94.5388 136.057 94.5557 135.945C94.5646 135.89 94.5642 135.833 94.5565 135.778C94.5493 135.727 94.5268 135.633 94.5127 135.563L94.4168 135.107C94.3001 134.499 94.1886 133.889 94.1043 133.275C94.017 132.661 93.9456 132.044 93.9199 131.42Z" fill="#FF888A"/>
<path fill-rule="evenodd" clip-rule="evenodd" d="M68.9109 150.743C77.7027 164.484 78.4062 189.551 78.4472 191.454C77.1333 187.192 74.7321 183.142 72.2703 179.455C70.8815 177.374 69.3904 175.352 67.8119 173.392C65.9071 171.029 66.4583 169.61 66.8594 166.609C67.4641 162.102 66.1016 156.765 65.1719 152.29C66.4186 151.774 67.6641 151.259 68.9109 150.743Z" fill="#1D2F49"/>
<path fill-rule="evenodd" clip-rule="evenodd" d="M78.4783 191.56L78.4489 191.568C78.4489 191.568 78.4478 191.529 78.4466 191.454C78.4579 191.49 78.468 191.524 78.4783 191.56Z" fill="#1D2F49"/>
<path fill-rule="evenodd" clip-rule="evenodd" d="M89.8087 158.675L88.2089 161.884L88.0725 162.156L88.0504 162.201L87.9976 162.306L87.8877 162.332C87.7194 162.468 87.4698 162.596 87.4367 162.794C87.2514 162.77 87.1474 162.653 87.0373 162.515C86.6242 161.998 86.0596 161.15 85.2447 161.391C84.8064 161.521 84.4633 161.87 84.1659 162.179C83.9021 162.453 83.707 163.299 83.232 163.315C82.9966 163.323 82.6783 163.032 82.4779 162.911L78.7432 160.65C78.836 160.482 78.9869 160.332 79.1359 160.199C79.6244 159.763 80.1838 159.36 80.8228 159.168L81.0255 159.753L84.7298 160.583L84.8697 160.651C84.8697 160.651 84.9961 160.676 84.9973 160.676L85.4181 160.76L85.4375 160.764L86.2448 160.923L86.2809 160.903L89.3783 158.489C89.5323 158.524 89.6776 158.588 89.8087 158.675Z" fill="#081A35" fill-opacity="0.5"/>
<path fill-rule="evenodd" clip-rule="evenodd" d="M100.114 165.049C100.184 165.743 100.152 166.458 99.8969 167.275C98.9195 170.407 97.7008 173.488 96.632 176.594C94.338 183.26 91.4831 190.142 90.2737 197.073C90.211 197.433 90.1416 197.792 90.1222 198.157C91.1189 179.316 92.768 156.586 93.3726 150.743L98.5572 152.262C98.6915 155.397 99.1738 158.556 99.5149 161.677C99.6538 162.948 100.006 163.972 100.114 165.049Z" fill="#1D2F49"/>
<path fill-rule="evenodd" clip-rule="evenodd" d="M55.9084 215.28C55.8951 215.286 55.8802 215.291 55.8669 215.297C55.8685 215.291 55.8702 215.284 55.8718 215.278C55.8835 215.278 55.8968 215.28 55.9084 215.28Z" fill="#081A35"/>
<path fill-rule="evenodd" clip-rule="evenodd" d="M100.667 194.87C100.63 196.259 99.7126 197.491 98.7128 198.527C95.6717 201.68 91.5173 204.406 87.4014 206.213C85.8048 206.912 84.0642 207.351 82.588 208.248C82.5646 208.262 82.5412 208.276 82.5178 208.29C80.0602 209.814 78.6977 212.428 76.7266 214.472C74.3375 216.951 71.0507 218.595 68.7837 221.17C66.9163 223.292 65.6825 226.081 63.0493 227.318C62.4625 227.596 61.8373 227.773 61.1936 227.866C59.4098 227.869 58.191 227.678 58.0205 227.232C57.2397 225.178 57.7714 222.313 57.875 220.193C57.922 219.237 57.962 218.271 58.0205 217.308C58.064 216.603 58.1158 215.899 58.1893 215.203C61.1736 214.854 64.0376 213.591 66.6289 212.111C71.4135 209.378 75.4311 205.594 80.5684 203.401C81.3191 203.08 82.0881 202.788 82.8037 202.403C82.8555 202.375 82.9073 202.347 82.9575 202.319C83.1815 202.191 83.3988 202.056 83.6128 201.911C84.9587 200.998 86.1022 199.763 87.2775 198.588C88.8524 197.01 90.4841 195.538 92.7377 195.091C93.5036 194.939 100.696 193.855 100.667 194.87Z" fill="#081A35" fill-opacity="0.5"/>
<path fill-rule="evenodd" clip-rule="evenodd" d="M58.8566 197.513C58.7256 197.101 59.0519 196.212 59.0991 195.981C59.3256 194.87 59.5347 193.756 59.7216 192.638C60.1105 190.313 60.6146 187.793 60.3171 185.434C60.2936 185.248 60.2382 185.062 60.2195 184.876C60.2195 184.877 61.1888 194.453 61.1888 194.453C64.0187 193.418 66.8901 192.472 69.7738 191.576C74.4439 190.125 79.3058 188.604 84.2283 188.126C85.0137 188.05 85.8154 187.999 86.6041 188.067C87.9149 188.179 88.7961 188.53 90.064 187.856C91.1172 187.295 92.1247 186.66 93.0745 185.958C93.8692 185.371 94.6451 184.724 95.5956 184.391C96.4022 184.107 97.2809 184.069 98.1426 184.034C98.9616 184.001 100.192 183.727 100.96 184.026C101.426 184.207 101.385 184.756 101.209 185.135C101.069 185.437 100.822 185.688 100.544 185.891C100.296 186.071 99.988 186.273 100.002 186.565C100.016 186.836 100.303 187.013 100.549 187.16C100.966 187.411 101.368 187.727 101.553 188.155C101.931 189.029 101.117 190.712 100.885 191.564C100.662 192.386 100.437 193.207 100.209 194.028C100.148 194.246 96.155 194.372 95.8601 194.397C94.3006 194.529 92.7409 194.661 91.1813 194.793C90.3129 194.867 89.3565 194.847 88.5085 195.035C87.8224 195.187 87.3 195.335 87.0243 194.482C86.883 194.046 86.9526 193.578 86.9714 193.122C87.0017 192.398 86.8991 191.668 86.6695 190.974C86.5615 190.648 86.408 190.309 86.1006 190.122C85.8346 189.96 85.4984 189.941 85.1804 189.946C83.7744 189.969 82.5652 190.5 81.2377 190.876C79.7496 191.297 78.2492 191.68 76.7383 192.025C75.611 192.282 74.5264 192.466 73.4015 192.764C70.9078 193.426 68.4061 194.09 66.0224 195.039C64.4477 195.666 62.9262 196.417 61.2995 196.917C60.7286 197.093 60.1384 197.24 59.627 197.534C59.4879 197.614 59.3482 197.707 59.1857 197.722C59.0014 197.74 58.9019 197.655 58.8566 197.513Z" fill="#081A35" fill-opacity="0.5"/>
<path fill-rule="evenodd" clip-rule="evenodd" d="M98.5941 196.11C97.678 197.607 95.8471 198.404 94.0618 198.878C92.278 199.351 90.3971 199.605 88.7721 200.436C87.045 201.321 85.7944 202.752 84.3418 203.953C83.0143 205.049 81.6769 205.452 80.1587 206.164C77.5073 207.407 75.0013 209.036 72.43 210.422C68.0398 212.789 63.0393 216.22 58.0205 217.308C58.064 216.603 58.1158 215.899 58.1894 215.203C61.1736 214.854 64.0374 213.591 66.6288 212.111C69.5177 210.463 72.1909 208.542 74.8174 206.563C75.5914 206.196 76.3605 205.819 77.1195 205.426C78.4486 204.741 79.7944 204.024 81.0115 203.176C81.5231 202.819 82.1015 202.544 82.6967 202.293C83.5493 201.932 84.5656 201.552 85.2278 200.909C85.385 200.757 85.5187 200.585 85.6724 200.43C86.0236 200.08 86.4882 199.928 86.8662 199.628C87.2055 199.358 87.3141 199.037 87.5266 198.659C88.4978 196.926 90.1245 196.272 92.1373 196.123C93.2092 196.044 94.2856 196.087 95.3575 196.121C95.7587 196.134 98.4085 196.413 98.5941 196.11Z" fill="#081A35" fill-opacity="0.5"/>
<path fill-rule="evenodd" clip-rule="evenodd" d="M85.9173 161.166L81.4624 159.77L83.9375 156.321L85.9173 161.166Z" fill="#E0DBC4"/>
<path fill-rule="evenodd" clip-rule="evenodd" d="M85.6847 155.871L85.9177 161.166L88.7162 159.329L85.6847 155.871Z" fill="#E0DBC4"/>
<path fill-rule="evenodd" clip-rule="evenodd" d="M88.7162 150.179C88.7162 150.179 89.6158 153.223 85.6847 155.87L90.1109 160.896C90.1109 160.896 92.8772 154.601 91.2174 152.628C91.2174 152.628 88.8909 150.689 88.7162 150.179Z" fill="white"/>
<path fill-rule="evenodd" clip-rule="evenodd" d="M83.9375 156.321L81.4622 159.77L79.3358 162.733L71.843 150.81C71.843 150.81 74.3705 149.881 75.8924 148.518C75.9026 148.518 78.2346 152.686 83.9375 156.321Z" fill="white"/>
<path fill-rule="evenodd" clip-rule="evenodd" d="M101.867 188.469L101.562 189.214L101.563 189.216L101.445 189.504L101.512 190.093V190.096L101.547 190.396C101.58 190.675 101.496 190.956 101.316 191.181L101.237 191.278V191.28C101.194 191.333 101.157 191.392 101.129 191.452C101.129 191.454 101.129 191.455 101.127 191.457C101.127 191.458 101.127 191.46 101.125 191.461C101.107 191.497 101.092 191.536 101.082 191.576C101.072 191.604 101.063 191.634 101.06 191.663C101.048 191.72 101.043 191.781 101.045 191.84V191.841L101.047 191.934L101.067 192.812C101.072 193.053 100.996 193.289 100.854 193.49L100.468 194.028L100.396 194.128C100.299 194.261 100.241 194.415 100.221 194.574L100.211 194.669L100.12 195.463C100.065 195.929 99.776 196.337 99.3382 196.568C98.0691 197.238 95.3425 198.471 93.383 197.908L92.4651 197.691C92.1508 197.616 91.8248 197.613 91.5105 197.681L89.1432 197.933C88.7721 195.572 88.6116 193.183 88.6651 190.796C88.9896 190.658 89.2836 190.463 89.5177 190.21L89.5244 190.204L92.5972 186.881C92.7527 186.714 92.9332 186.565 93.1322 186.442L95.3908 185.031C96.2184 184.512 97.1596 184.174 98.1477 184.039L100.649 183.7C101.018 183.65 101.341 183.951 101.274 184.292C101.175 184.814 100.92 185.332 100.475 185.677C99.6373 186.327 98.4438 186.075 97.5258 186.515C97.4323 186.559 97.3402 186.613 97.2549 186.67C97.2215 186.693 97.1864 186.715 97.1529 186.74C96.8035 186.979 95.9726 187.343 95.8623 187.773C95.7586 188.175 96.1214 188.359 96.1214 188.359C96.7584 188.203 97.3937 188.046 98.029 187.888C98.6277 187.74 99.2546 187.505 99.878 187.353C100.179 187.281 100.48 187.228 100.777 187.214C101.307 187.193 101.396 187.28 101.722 187.65C101.923 187.88 101.98 188.192 101.867 188.469Z" fill="#FFD5CC"/>
<path fill-rule="evenodd" clip-rule="evenodd" d="M94.9092 191.869L98.8482 191.334L101.512 190.097L101.511 190.093L101.445 189.503L101.562 189.216C101.431 189.509 98.5882 190.928 98.5882 190.928L94.9092 191.869Z" fill="#FF888A"/>
<path fill-rule="evenodd" clip-rule="evenodd" d="M94.972 189.092C96.3578 188.875 97.7166 188.472 98.9753 187.894C99.2791 187.755 99.7094 187.609 99.8773 187.353C99.254 187.504 98.6276 187.74 98.0284 187.889C97.3936 188.046 96.7588 188.203 96.122 188.36C96.122 188.36 95.7591 188.176 95.8627 187.773C95.9721 187.344 96.8028 186.978 97.1527 186.74C97.1861 186.716 97.2218 186.694 97.255 186.67C96.8912 186.794 96.551 186.963 96.2551 187.19C96.0695 187.334 95.9057 187.498 95.7417 187.66L94.4054 188.989C94.5296 189.136 94.7729 189.122 94.972 189.092Z" fill="#FF888A"/>
<path fill-rule="evenodd" clip-rule="evenodd" d="M100.125 192.355C100.162 192.326 100.199 192.294 100.234 192.262C100.25 192.254 100.264 192.245 100.28 192.235L100.125 192.355ZM100.338 191.919L99.3762 192.667C99.2547 192.761 99.1122 192.826 98.9591 192.861L98.2407 193.019L96.8298 193.343C97.2363 193.284 97.6412 193.227 98.0499 193.171C98.4811 193.111 98.9422 193.096 99.3414 192.914C99.9762 192.622 100.331 192.047 101.048 191.935L101.044 191.84C101.044 191.781 101.048 191.72 101.06 191.664C101.049 191.662 101.038 191.662 101.027 191.668C101.045 191.643 101.061 191.616 101.082 191.577C101.1 191.543 101.111 191.502 101.124 191.461C101.127 191.457 101.128 191.455 101.127 191.452C101.153 191.384 101.183 191.317 101.236 191.279L100.338 191.919Z" fill="#FF888A"/>
<path fill-rule="evenodd" clip-rule="evenodd" d="M99.4811 192.54C99.4811 192.54 99.4831 192.54 99.4851 192.54C99.4911 192.539 99.4987 192.536 99.508 192.529C99.4884 192.535 99.4811 192.54 99.4811 192.54Z" fill="#FF888A"/>
<path fill-rule="evenodd" clip-rule="evenodd" d="M100.192 194.67C100.198 194.669 100.205 194.67 100.211 194.67L100.221 194.575C100.241 194.415 100.299 194.262 100.395 194.128L100.468 194.028C100.192 194.12 99.7634 194.407 99.7017 194.448C99.3105 194.698 98.921 194.959 98.4714 195.114C99.0683 195.096 99.5959 194.717 100.192 194.67Z" fill="#FF888A"/>
<path fill-rule="evenodd" clip-rule="evenodd" d="M78.8073 122.82C78.7619 122.827 78.7176 122.84 78.6754 122.86C78.5312 122.93 78.4449 123.07 78.372 123.204C78.2585 123.414 78.1687 123.621 78.0982 123.825C77.9766 124.175 77.9107 124.519 77.8731 124.863C77.7628 125.82 77.8664 126.767 77.5799 127.792C77.5583 127.868 77.4503 128.183 77.3106 128.584C77.2947 128.63 77.2776 128.678 77.2606 128.726C77.0708 129.273 76.8366 129.939 76.6878 130.377C76.6286 130.461 76.5571 130.534 76.4628 130.583C76.0513 130.793 75.349 129.921 74.9228 129.811C74.0341 129.584 72.9227 130.057 72.768 130.9C72.5612 132.035 73.3443 133.12 74.0421 133.979C74.4444 134.477 74.9648 134.908 75.3455 135.417C75.7685 135.983 75.6252 135.957 75.624 136.555C75.6228 138.474 76.0956 140.377 76.3651 142.303C75.7718 141.46 75.1785 140.617 74.5853 139.773C73.742 138.576 72.8988 137.378 72.1429 136.131C71.4998 135.073 70.9213 133.981 70.4087 132.862C70.4087 132.862 67.2935 128.805 70.4087 120.862C72.2145 123.026 77.7675 122.87 78.8073 122.82Z" fill="#41211E"/>
<path fill-rule="evenodd" clip-rule="evenodd" d="M97.3277 134.186C95.1809 135.242 92.792 135.409 90.2405 135.829C88.9701 136.039 87.6801 136.248 86.3958 136.138C85.3649 136.05 84.3672 135.758 83.3863 135.45C82.3204 135.116 81.2611 134.759 80.211 134.384C79.4632 134.116 78.704 133.835 77.9029 133.792C76.6799 133.726 75.5048 134.222 74.2854 134.332C74.257 134.335 74.2285 134.337 74.2001 134.338C74.1331 134.264 74.0684 134.189 74.0057 134.112C73.308 133.253 72.5249 132.168 72.7317 131.033C72.9215 129.993 73.8479 130.208 74.5798 129.894C74.8162 129.793 75.0308 129.628 75.2229 129.426C75.6753 129.324 76.1356 129.251 76.589 129.203C79.7609 128.861 82.9578 129.362 86.147 129.516C88.3608 129.622 90.586 129.561 92.7862 129.805C94.0638 129.945 95.3457 130.197 96.5424 130.625C96.5232 130.905 96.5026 131.184 96.4752 131.461C96.5174 131.518 96.5617 131.574 96.6038 131.63C97.155 132.375 97.3345 133.27 97.3277 134.186Z" fill="#FF888A" fill-opacity="0.5"/>
<path fill-rule="evenodd" clip-rule="evenodd" d="M82.1227 122.726C82.3738 122.658 82.709 122.606 83.1398 122.572C82.7897 122.604 82.4534 122.661 82.1227 122.726Z" fill="#41211E"/>
<path fill-rule="evenodd" clip-rule="evenodd" d="M97.314 125.09C96.4423 125.644 95.1092 125.443 94.1115 125.569C92.9136 125.719 91.7179 125.882 90.5246 126.058C88.138 126.411 85.7605 126.818 83.3944 127.277C82.8489 127.382 78.9121 128.449 77.2606 128.726C77.2777 128.677 77.2947 128.63 77.3106 128.583C77.4505 128.183 77.5585 127.867 77.5799 127.792C77.8665 126.767 77.763 125.82 77.8732 124.862C78.2585 124.738 78.6517 124.631 79.0324 124.498C80.1952 124.087 81.2508 123.421 82.4533 123.127C83.9364 122.765 85.5002 123.001 87.0243 123.154C88.4084 123.292 89.8007 123.36 91.1918 123.356C92.0827 123.354 92.9658 123.157 93.8534 123.161C94.6627 123.163 95.4593 123.362 96.2844 123.336C96.7458 123.321 97.2664 123.285 97.6061 123.574C98.0744 123.972 97.8392 124.756 97.314 125.09Z" fill="#FF888A" fill-opacity="0.5"/>
<path fill-rule="evenodd" clip-rule="evenodd" d="M98.0277 121.893C97.9993 121.967 97.9675 122.03 97.9346 122.085C97.9095 122.126 97.8823 122.163 97.855 122.195C97.7413 122.324 97.6061 122.381 97.4516 122.395C97.031 122.431 96.4708 122.143 95.8525 122.106C94.6047 122.031 93.3568 122.313 92.1339 122.501C89.5609 122.9 87.0707 122.542 84.5399 122.563C84.349 122.553 84.1591 122.547 83.9705 122.545C83.6886 122.541 83.4113 122.548 83.1398 122.572C83.1147 122.574 83.0886 122.576 83.0635 122.58C82.9714 122.564 82.8816 122.539 82.7942 122.506C83.1919 122.486 83.5898 122.453 83.9852 122.408C85.4718 122.237 86.9004 121.897 88.2527 121.318C89.6189 120.734 90.9064 120.007 92.2032 119.304C92.6692 119.05 93.1431 118.797 93.6636 118.663C95.0853 118.298 96.6354 118.896 97.6969 119.848C98.2039 120.304 98.2596 121.292 98.0277 121.893Z" fill="#41211E"/>
<path fill-rule="evenodd" clip-rule="evenodd" d="M105.715 126.561L105.433 131.73C105.373 132.831 104.398 133.697 103.209 133.703L87.097 134.249L86.7618 134.227C85.6639 134.081 84.8252 133.197 84.8446 132.136L84.9661 125.475C84.9843 124.503 85.7161 123.708 86.6766 123.492C86.9106 123.438 87.1584 123.419 87.413 123.441L103.684 124.387C104.88 124.49 105.775 125.449 105.715 126.561Z" fill="#FECE62"/>
<path fill-rule="evenodd" clip-rule="evenodd" d="M105.017 126.878L104.76 131.327C104.705 132.275 103.813 133.019 102.724 133.025L100.991 133.079L98.3156 133.165L96.979 133.208L96.505 133.223L95.7972 133.246L93.7219 133.312L92.9422 133.337L92.2183 133.36L91.1784 133.393L90.2715 133.422L89.2339 133.455L88.5508 133.477L87.9792 133.495L87.6723 133.476C86.6677 133.35 85.9006 132.589 85.9175 131.676L86.029 125.944C86.0459 125.107 86.7155 124.423 87.5952 124.237C87.8087 124.191 88.0361 124.175 88.2689 124.194L91.2625 124.357L91.9694 124.396L92.99 124.452L94.0389 124.509L95.621 124.596L95.8142 124.606L96.3745 124.637L98.5338 124.755L99.1101 124.787L99.4145 124.803L100.845 124.881L102.918 124.994L103.159 125.008C104.254 125.096 105.073 125.921 105.017 126.878Z" fill="#9E3A02"/>
<path fill-rule="evenodd" clip-rule="evenodd" d="M86.762 134.227L84.6935 134.093L84.206 134.016C83.091 133.735 82.2977 132.771 82.3456 131.66L82.591 125.89C82.6298 124.988 83.3049 124.217 84.2481 123.998L86.6746 123.433L86.6768 123.492C85.7165 123.708 84.9845 124.503 84.9663 125.475L84.8448 132.136C84.8254 133.196 85.6641 134.081 86.762 134.227Z" fill="#FD922A"/>
<path fill-rule="evenodd" clip-rule="evenodd" d="M84.2053 134.035L80.854 133.51C79.7402 133.334 78.8434 132.629 78.4491 131.7C78.3138 131.382 78.2366 131.038 78.2297 130.679L78.1705 127.534C78.1695 127.476 78.1705 127.419 78.174 127.362C78.2321 126.218 79.0889 125.233 80.2981 124.949L84.2475 124.017C83.3042 124.236 82.6291 125.007 82.5903 125.909L82.3451 131.679C82.2971 132.789 83.0906 133.754 84.2053 134.035Z" fill="#F07222"/>
<path fill-rule="evenodd" clip-rule="evenodd" d="M78.4493 131.701C75.4433 131.834 68.971 131.96 68.971 131.96C67.6469 131.776 68.5619 127.004 68.5619 127.004C69.0937 127.477 75.2581 127.418 78.1743 127.363C78.1708 127.42 78.1698 127.477 78.1708 127.535L78.2299 130.68C78.2368 131.038 78.314 131.382 78.4493 131.701Z" fill="#9E3A02"/>
<path fill-rule="evenodd" clip-rule="evenodd" d="M100.845 124.881C100.128 127.615 99.2824 130.477 98.3153 133.164L96.9788 133.208L96.5049 133.222L95.7968 133.246L93.7216 133.312L92.942 133.336C93.8182 130.5 94.7501 127.464 95.6206 124.595L95.8139 124.606L96.3741 124.636L98.5334 124.755L99.1097 124.786L99.4142 124.803L100.845 124.881Z" fill="#FECE62"/>
<path fill-rule="evenodd" clip-rule="evenodd" d="M92.9896 124.452C92.1281 127.481 91.1917 130.619 90.2712 133.422L89.2335 133.455L88.5505 133.477C89.3983 130.632 90.3494 127.435 91.2621 124.357L91.9691 124.396L92.9896 124.452Z" fill="#FECE62"/>
<path fill-rule="evenodd" clip-rule="evenodd" d="M95.8554 138.231C95.7835 138.721 95.5444 139.67 94.752 140.423L94.7419 140.432C94.7068 140.466 94.67 140.499 94.6333 140.53C94.1735 140.931 93.6101 141.175 93.0183 141.225L91.4819 141.356H91.4804L91.4635 141.358C91.0438 141.394 90.6259 141.268 90.2915 141.007C90.2514 140.978 90.2129 140.945 90.1762 140.911C89.9404 140.709 89.7632 140.438 89.6696 140.13L89.5676 139.799L89.3369 139.048C89.2884 138.887 89.3837 138.716 89.5409 138.689C89.6128 138.678 89.6947 138.662 89.7866 138.647C90.9653 138.451 93.7572 137.998 95.1699 137.905C95.3256 137.894 95.4625 137.89 95.5812 137.888C95.7517 137.888 95.8821 138.051 95.8554 138.231Z" fill="#B52A2D"/>
<path fill-rule="evenodd" clip-rule="evenodd" d="M94.6684 140.428C94.6667 140.463 94.6533 140.497 94.6333 140.53C94.543 140.685 94.2772 140.817 94.008 140.964C93.7505 141.105 93.4663 141.186 93.1788 141.211C92.6237 141.259 92.052 141.352 91.4952 141.356H91.4804C91.0405 141.356 90.6426 141.223 90.2915 141.007C90.2516 140.978 90.213 140.946 90.1762 140.911C89.9404 140.71 89.7632 140.438 89.6696 140.13L89.5676 139.799C90.2146 139.9 90.8701 139.97 91.5253 139.942C92.0822 139.919 92.6354 139.826 93.194 139.832C93.5702 139.836 94.1267 139.872 94.4377 140.1C94.6065 140.224 94.6736 140.331 94.6684 140.428Z" fill="#FA8887"/>
<path fill-rule="evenodd" clip-rule="evenodd" d="M95.1706 137.905C94.86 138.343 94.5722 138.62 94.4532 138.727C94.4169 138.76 94.3775 138.784 94.3325 138.8C93.0336 139.268 90.5346 139.101 89.915 139.051C89.8349 139.044 89.7758 138.971 89.7789 138.885L89.7871 138.647C90.9654 138.452 93.7582 137.999 95.1706 137.905Z" fill="white"/>
<path fill-rule="evenodd" clip-rule="evenodd" d="M89.7782 144.611C89.2474 144.734 88.8463 144.909 88.794 145.17C88.7928 145.176 88.3076 147.906 88.6656 150.156C88.3473 149.925 88.1916 149.508 88.0258 149.148C87.5745 148.172 86.7664 147.341 85.7663 146.825C85.1549 146.511 84.4786 146.312 83.8843 145.971C83.3388 145.659 82.8785 145.237 82.424 144.819C81.6419 144.099 80.8613 143.381 80.0792 142.662C80.8852 142.973 81.5546 143.189 82.3432 143.534C85.3025 144.827 89.6815 144.616 89.7782 144.611Z" fill="#FF888A" fill-opacity="0.5"/>
<path fill-rule="evenodd" clip-rule="evenodd" d="M59.9673 191.366C59.9916 191.39 59.9857 191.429 59.9906 191.46L59.9939 191.558L59.9922 191.755C59.9896 191.886 59.9804 192.016 59.9727 192.146C59.9573 192.407 59.9326 192.667 59.9085 192.927C59.8592 193.446 59.7983 193.964 59.7321 194.482C59.6637 194.999 59.5959 195.516 59.5149 196.031C59.4379 196.547 59.3583 197.062 59.2682 197.576L58.9346 197.329L59.9509 196.938L60.9723 196.558C61.6515 196.301 62.3385 196.062 63.0219 195.814C63.7094 195.576 64.3965 195.337 65.0885 195.109C65.7806 194.881 66.4741 194.656 67.1768 194.453C66.5212 194.763 65.8563 195.053 65.1901 195.34C64.5239 195.626 63.8528 195.902 63.1818 196.177C62.507 196.445 61.8356 196.72 61.1567 196.977L60.1404 197.369L59.1194 197.749L58.715 197.9L58.7859 197.502C58.8773 196.99 58.9761 196.478 59.0752 195.966C59.1705 195.454 59.2764 194.943 59.3777 194.431L59.6933 192.899L59.852 192.132L59.9274 191.749L59.9613 191.556L59.9742 191.46C59.9749 191.429 59.9862 191.392 59.9673 191.366Z" fill="#182841"/>
<path fill-rule="evenodd" clip-rule="evenodd" d="M60.2291 180.135C60.4356 178.18 60.5059 176.212 60.4702 174.245C60.4356 172.278 60.2883 170.31 59.988 168.357C59.6737 166.409 59.2231 164.462 58.4026 162.628C57.994 161.713 57.4828 160.828 56.8105 160.053C56.1363 159.287 55.282 158.623 54.2732 158.304C54.7567 158.504 55.1999 158.776 55.5963 159.093C55.9922 159.411 56.3391 159.778 56.6442 160.171C57.2602 160.955 57.7188 161.836 58.0928 162.742C58.4641 163.651 58.7567 164.588 58.9918 165.537C59.2287 166.487 59.4171 167.447 59.5652 168.414C59.7202 169.38 59.8349 170.352 59.927 171.326C60.0234 172.3 60.0851 173.277 60.138 174.255C60.1854 175.233 60.2187 176.212 60.2323 177.192C60.255 178.173 60.2463 179.153 60.2291 180.135Z" fill="#182841"/>
<path fill-rule="evenodd" clip-rule="evenodd" d="M105.58 176.683C106.153 174.792 106.595 172.866 106.931 170.924C107.27 168.982 107.497 167.02 107.571 165.049C107.63 163.08 107.555 161.089 107.094 159.15C106.865 158.183 106.529 157.229 106.014 156.356C105.496 155.492 104.78 154.699 103.847 154.221C104.285 154.497 104.67 154.836 105.001 155.213C105.33 155.591 105.602 156.009 105.828 156.445C106.286 157.317 106.571 158.26 106.768 159.213C106.961 160.167 107.072 161.137 107.124 162.11C107.177 163.084 107.181 164.06 107.144 165.036C107.114 166.012 107.043 166.987 106.949 167.962C106.86 168.936 106.736 169.908 106.603 170.879C106.464 171.85 106.312 172.819 106.14 173.786C105.977 174.755 105.782 175.719 105.58 176.683Z" fill="#182841"/>
<path fill-rule="evenodd" clip-rule="evenodd" d="M125.69 172.127C125.746 172.625 125.723 173.127 125.687 173.622C125.654 174.117 125.601 174.607 125.587 175.095C125.567 175.581 125.588 176.066 125.665 176.545C125.744 177.024 125.886 177.496 126.068 177.967C125.762 177.555 125.54 177.085 125.41 176.593C125.275 176.1 125.238 175.588 125.253 175.084C125.274 174.58 125.343 174.084 125.429 173.595L125.69 172.127Z" fill="#182841"/>
<path fill-rule="evenodd" clip-rule="evenodd" d="M88.9809 198.978C88.767 199.18 88.4307 199.202 88.1266 199.228C87.8107 199.256 87.4964 199.302 87.1871 199.366C87.2538 198.953 87.2874 198.541 87.2989 198.128C87.3426 196.555 87.06 194.987 87.06 193.391C87.04 192.546 87.0165 191.814 86.881 191.245C86.7992 190.899 86.6753 190.613 86.4847 190.396C87.284 190.126 88.6967 189.825 88.6984 189.808C88.6834 190.137 88.6715 190.467 88.6648 190.796C88.6115 193.183 88.772 195.572 89.1431 197.933C89.1446 197.948 89.1465 197.965 89.1498 197.981C89.2033 198.327 89.2451 198.729 88.9809 198.978Z" fill="#E0DBC4"/>
<path fill-rule="evenodd" clip-rule="evenodd" d="M106.52 180.41C105.931 184.786 105.943 189.172 106.297 193.554C105.746 192.377 105.161 191.192 104.888 189.968C104.617 188.747 104.659 187.486 104.733 186.241C104.92 183.063 105.176 179.769 105.911 176.655C106.328 178.377 107.006 180.012 107.518 181.68C107.152 181.275 106.819 180.854 106.52 180.41Z" fill="#081A35" fill-opacity="0.5"/>
<path fill-rule="evenodd" clip-rule="evenodd" d="M132.437 191.388C131.661 191.415 130.76 191.311 129.713 191.027C122.949 189.198 112.425 187.125 107.518 181.68C107.152 181.275 106.82 180.853 106.52 180.41C105.932 184.785 105.943 189.172 106.298 193.554C106.898 200.996 108.491 208.427 109.824 215.773C109.834 215.831 109.844 215.886 109.854 215.944C109.84 216.11 109.827 216.277 109.814 216.443C109.662 214.919 107.756 214.117 107.02 212.745C106.659 212.072 106.604 211.3 106.535 210.552C106.323 208.235 105.928 205.932 105.357 203.667C105.004 202.271 104.582 200.881 104.445 199.453C104.31 198.058 104.447 196.653 104.384 195.254C104.205 191.392 102.493 187.546 103.314 183.757C103.614 182.369 103.808 181.195 104.465 179.926C105.087 178.725 106.353 176.487 106.094 175.111C106.345 176.438 107.043 177.647 107.734 178.831C108.528 180.193 109.312 181.427 110.678 182.369C112.992 183.965 115.742 184.903 118.43 185.868C123.163 187.567 127.834 189.409 132.437 191.388Z" fill="#081A35" fill-opacity="0.5"/>
<path fill-rule="evenodd" clip-rule="evenodd" d="M126.11 168.626C125.721 171.317 125.895 173.979 125.712 176.663C124.775 176.178 124.196 174.488 123.616 173.622C122.872 172.516 122.056 171.449 121.1 170.492C120.2 169.592 119.17 168.775 118.532 167.7C118.114 166.996 117.892 166.233 117.753 165.442L125.52 172.225L126.11 168.626Z" fill="#081A35" fill-opacity="0.5"/>
<path fill-rule="evenodd" clip-rule="evenodd" d="M126.126 177.744C124.967 178.046 123.949 177.01 123.26 176.095C121.98 174.39 120.697 172.687 119.415 170.984C117.626 168.605 115.831 166.222 114.272 163.705C113.95 163.185 113.189 162.079 112.714 161.042L117.753 165.442L125.52 172.225L125.868 170.106C125.955 172.652 126.04 175.198 126.126 177.744Z" fill="#081A35" fill-opacity="0.5"/>
<g opacity="0.79" filter="url(#filter0_d_35_187)">
<g filter="url(#filter1_d_35_187)">
<path d="M104.695 30.7715L256.338 30.7715L254.064 101.648L157.975 98.283L116.472 139.928L134.003 98.283L104.695 97.4615V30.7715Z" fill="white"/>
<path d="M105.676 96.5081V31.7519L255.326 31.7519L253.115 100.634L158.009 97.3032L157.582 97.2882L157.281 97.5909L119.326 135.676L134.907 98.6634L135.463 97.3431L134.031 97.3029L105.676 96.5081Z" stroke="black" stroke-width="1.9609"/>
</g>
<path d="M144.282 67.106H144.411L144.964 65.0823L146.094 60.3879L147.423 60.5997L146.141 65.2706L145.353 68.4825L143.2 68.6355L142.529 65.4941L142.129 63.9411L141.776 65.2706L140.988 68.4825L138.87 68.6355L138.164 65.4941L136.94 60.6821L138.47 60.3879L139.423 64.9294L139.952 67.106H140.082L140.705 64.9294L141.564 61.7527L141.294 60.6821L142.847 60.3879L143.776 64.9294L144.282 67.106ZM154.798 60.3997L154.633 65.5176L154.775 68.5767H153.127L153.269 65.7177L153.245 65.0941H150.08L150.068 65.5176L150.21 68.5767H148.562L148.704 65.7177L148.562 60.6938L150.233 60.3997L150.115 63.847H153.21L153.127 60.6938L154.798 60.3997ZM161.439 68.6355L160.862 66.3412H158.05L157.427 68.5767L155.921 68.459L156.956 65.6L158.533 60.5409L160.639 60.3879L162.157 65.4235L163.133 68.3766L161.439 68.6355ZM159.58 61.9174H159.427L158.415 65.0941H160.509L159.58 61.9174ZM163.305 61.8115L163.434 60.4585H169.023L168.893 61.8115L166.846 61.6351L166.799 65.5176L166.94 68.5767H165.293L165.434 65.7177L165.387 61.6468L163.305 61.8115ZM178.383 67.106H178.513L179.066 65.0823L180.195 60.3879L181.525 60.5997L180.242 65.2706L179.454 68.4825L177.301 68.6355L176.63 65.4941L176.23 63.9411L175.877 65.2706L175.089 68.4825L172.971 68.6355L172.265 65.4941L171.042 60.6821L172.571 60.3879L173.524 64.9294L174.054 67.106H174.183L174.807 64.9294L175.666 61.7527L175.395 60.6821L176.948 60.3879L177.878 64.9294L178.383 67.106ZM182.664 68.5767L182.805 65.7177L182.664 60.4585H187.076L186.946 61.7174H184.299L184.229 63.7999H186.582L186.452 65.047H184.181L184.17 65.5176L184.252 67.3295H187.099L186.97 68.5767H182.664ZM193.564 60.3409C194.49 60.3409 195.251 60.6938 195.847 61.3997C196.451 62.1057 196.753 63.0038 196.753 64.094C196.753 65.4745 196.396 66.5883 195.682 67.4354C194.968 68.2825 194.031 68.7061 192.87 68.7061C191.968 68.7061 191.211 68.3453 190.599 67.6237C189.988 66.8942 189.682 65.9961 189.682 64.9294C189.682 63.596 190.046 62.4979 190.776 61.6351C191.505 60.7723 192.435 60.3409 193.564 60.3409ZM195.153 64.7529C195.153 62.7685 194.502 61.7762 193.199 61.7762C192.603 61.7762 192.133 61.9998 191.788 62.4469C191.45 62.8861 191.282 63.5489 191.282 64.4352C191.282 65.3137 191.462 66.0392 191.823 66.6118C192.192 67.1766 192.674 67.4589 193.27 67.4589C193.874 67.4589 194.337 67.2197 194.658 66.7413C194.988 66.2549 195.153 65.5922 195.153 64.7529ZM202.178 61.7174H199.672L199.601 63.8823H201.849L201.719 65.1294H199.566L199.554 65.5176L199.696 68.5767H198.048L198.19 65.7177L198.048 60.4585H202.307L202.178 61.7174ZM207.383 61.7174H204.877L204.806 63.8823H207.053L206.924 65.1294H204.771L204.759 65.5176L204.9 68.5767H203.253L203.394 65.7177L203.253 60.4585H207.512L207.383 61.7174ZM208.458 68.5767L208.599 65.7177L208.458 60.4585H212.87L212.741 61.7174H210.093L210.023 63.7999H212.376L212.247 65.047H209.976L209.964 65.5176L210.046 67.3295H212.894L212.764 68.5767H208.458ZM216.355 65.4471H215.684V65.5176L215.825 68.5767H214.249L214.39 65.7177L214.249 60.4585H216.802C217.555 60.4585 218.155 60.6624 218.602 61.0703C219.049 61.4782 219.273 62.0194 219.273 62.6939C219.273 63.2038 219.139 63.6705 218.873 64.094C218.614 64.5097 218.261 64.8392 217.814 65.0823L219.861 67.9766L218.437 68.7061L216.602 65.4353C216.547 65.4431 216.465 65.4471 216.355 65.4471ZM216.378 61.6468H215.802L215.72 64.3058H216.52C216.912 64.3058 217.214 64.1764 217.426 63.9176C217.645 63.6587 217.755 63.2901 217.755 62.8116C217.755 62.0351 217.296 61.6468 216.378 61.6468ZM220.474 67.7884C220.474 67.5374 220.564 67.3178 220.745 67.1295C220.933 66.9334 221.156 66.8354 221.415 66.8354C221.925 66.8354 222.18 67.0942 222.18 67.6119C222.18 67.91 222.086 68.157 221.898 68.3531C221.717 68.5492 221.501 68.6473 221.25 68.6473C221.007 68.6473 220.815 68.5688 220.674 68.4119C220.541 68.2472 220.474 68.0394 220.474 67.7884ZM222.887 67.7884C222.887 67.5374 222.977 67.3178 223.157 67.1295C223.346 66.9334 223.569 66.8354 223.828 66.8354C224.338 66.8354 224.593 67.0942 224.593 67.6119C224.593 67.91 224.499 68.157 224.31 68.3531C224.13 68.5492 223.914 68.6473 223.663 68.6473C223.42 68.6473 223.228 68.5688 223.087 68.4119C222.953 68.2472 222.887 68.0394 222.887 67.7884Z" fill="black"/>
</g>
<defs>
<filter id="filter0_d_35_187" x="71.2998" y="0.842098" width="217.127" height="177.255" filterUnits="userSpaceOnUse" color-interpolation-filters="sRGB">
<feFlood flood-opacity="0" result="BackgroundImageFix"/>
<feColorMatrix in="SourceAlpha" type="matrix" values="0 0 0 0 0 0 0 0 0 0 0 0 0 0 0 0 0 0 127 0" result="hardAlpha"/>
<feOffset dy="3.46567"/>
<feGaussianBlur stdDeviation="13.4295"/>
<feComposite in2="hardAlpha" operator="out"/>
<feColorMatrix type="matrix" values="0 0 0 0 0 0 0 0 0 0 0 0 0 0 0 0 0 0 0.23 0"/>
<feBlend mode="normal" in2="BackgroundImageFix" result="effect1_dropShadow_35_187"/>
<feBlend mode="normal" in="SourceGraphic" in2="effect1_dropShadow_35_187" result="shape"/>
</filter>
<filter id="filter1_d_35_187" x="102.081" y="30.7715" width="156.872" height="114.386" filterUnits="userSpaceOnUse" color-interpolation-filters="sRGB">
<feFlood flood-opacity="0" result="BackgroundImageFix"/>
<feColorMatrix in="SourceAlpha" type="matrix" values="0 0 0 0 0 0 0 0 0 0 0 0 0 0 0 0 0 0 127 0" result="hardAlpha"/>
<feOffset dy="2.61454"/>
<feGaussianBlur stdDeviation="1.30727"/>
<feComposite in2="hardAlpha" operator="out"/>
<feColorMatrix type="matrix" values="0 0 0 0 0 0 0 0 0 0 0 0 0 0 0 0 0 0 0.25 0"/>
<feBlend mode="normal" in2="BackgroundImageFix" result="effect1_dropShadow_35_187"/>
<feBlend mode="normal" in="SourceGraphic" in2="effect1_dropShadow_35_187" result="shape"/>
</filter>
</defs>
</svg>
