<svg width="503" height="457" viewBox="0 0 503 457" fill="none" xmlns="http://www.w3.org/2000/svg">
<path d="M354.847 344.372C349.528 347.443 349.499 352.424 354.786 355.497L416.903 391.595C422.19 394.667 430.787 394.667 436.107 391.595L498.629 355.498C503.951 352.425 503.981 347.445 498.694 344.373L436.577 308.275C431.291 305.203 422.691 305.203 417.37 308.275L354.847 344.372Z" fill="#175EB1"/>
<path d="M5.20556 380.288C1.36935 382.502 1.34901 386.095 5.16128 388.31L49.9565 414.342C53.7692 416.558 59.9692 416.557 63.8054 414.342L108.893 388.311C112.731 386.095 112.753 382.504 108.94 380.288L64.1447 354.256C60.332 352.04 54.1306 352.04 50.2931 354.256L5.20556 380.288Z" fill="#175EB1"/>
<path d="M259.097 310.077C256.129 311.791 256.113 314.571 259.063 316.285L293.724 336.428C296.674 338.142 301.471 338.141 304.439 336.428L339.327 316.285C342.296 314.571 342.313 311.792 339.363 310.077L304.702 289.935C301.752 288.221 296.954 288.221 293.984 289.935L259.097 310.077Z" fill="#E0E5F8"/>
<path d="M366.729 407.055C365.428 407.806 365.421 409.024 366.714 409.775L381.906 418.604C383.199 419.355 385.302 419.355 386.603 418.604L401.894 409.775C403.195 409.024 403.202 407.806 401.909 407.055L386.718 398.226C385.425 397.475 383.322 397.475 382.02 398.226L366.729 407.055Z" fill="#175EB1"/>
<path d="M245.968 215.362C243.031 217.057 243.016 219.808 245.934 221.504L280.228 241.433C283.146 243.129 287.894 243.128 290.83 241.433L325.348 221.504C328.286 219.808 328.303 217.058 325.384 215.362L291.09 195.433C288.172 193.737 283.424 193.737 280.486 195.433L245.968 215.362Z" fill="#E0E5F8"/>
<path d="M70.3827 432.103C68.6794 433.086 68.6703 434.681 70.3632 435.664L90.2504 447.221C91.9428 448.205 94.6956 448.204 96.3989 447.221L116.416 435.664C118.12 434.681 118.129 433.086 116.437 432.103L96.5498 420.546C94.8574 419.562 92.1041 419.562 90.4004 420.546L70.3827 432.103Z" fill="#175EB1"/>
<path d="M140.634 226.514C138.931 227.497 138.922 229.092 140.615 230.076L160.502 241.633C162.194 242.616 164.947 242.616 166.65 241.633L186.668 230.076C188.371 229.092 188.381 227.498 186.688 226.514L166.801 214.957C165.109 213.974 162.355 213.974 160.652 214.957L140.634 226.514Z" fill="#E0E5F8"/>
<path d="M449.077 343.826L376.555 385.971C373.343 387.838 368.117 387.838 364.884 385.971L224.135 304.71C222.508 303.771 221.695 302.537 221.699 301.306L221.685 306.163C221.681 307.394 222.494 308.627 224.121 309.566L364.87 390.827C368.103 392.694 373.329 392.694 376.542 390.827L449.063 348.682C450.659 347.755 451.458 346.541 451.462 345.326L451.475 340.469C451.472 341.685 450.673 342.899 449.077 343.826Z" fill="url(#paint0_linear_13_2632)"/>
<path d="M449.039 337.065C452.272 338.932 452.291 341.958 449.077 343.826L376.555 385.971C373.343 387.838 368.116 387.838 364.883 385.971L224.135 304.71C220.902 302.843 220.885 299.816 224.097 297.949L296.618 255.804C299.832 253.937 305.057 253.937 308.29 255.804L449.039 337.065Z" fill="url(#paint1_linear_13_2632)"/>
<path d="M436.464 339.537C438.351 340.627 438.359 342.393 436.485 343.483C434.61 344.572 431.561 344.573 429.674 343.483L386.104 318.329C384.216 317.239 384.208 315.472 386.082 314.383C387.957 313.293 391.006 313.293 392.895 314.383L436.464 339.537Z" fill="#B5EAFF"/>
<path d="M319.565 345.811C320.591 346.402 320.596 347.362 319.579 347.953C318.56 348.545 316.904 348.545 315.878 347.953L285.609 330.477C284.585 329.886 284.58 328.927 285.598 328.335C286.616 327.743 288.272 327.743 289.296 328.335L319.565 345.811Z" fill="#B5EAFF"/>
<path d="M357.339 344.134C358.76 344.954 358.769 346.285 357.356 347.107L349.09 351.91C347.677 352.732 345.379 352.731 343.958 351.91L319.434 337.751C318.013 336.931 318.004 335.6 319.418 334.779L327.683 329.975C329.097 329.154 331.394 329.155 332.815 329.975L357.339 344.134Z" fill="#B5EAFF"/>
<path d="M393.775 365.168C395.196 365.989 395.203 367.319 393.79 368.14L385.524 372.944C384.111 373.765 381.815 373.765 380.394 372.945L355.87 358.786C354.447 357.965 354.44 356.634 355.853 355.813L364.119 351.01C365.532 350.188 367.828 350.188 369.251 351.01L393.775 365.168Z" fill="#B5EAFF"/>
<path d="M374.219 377.365C375.243 377.956 375.248 378.915 374.231 379.506C373.212 380.098 371.556 380.098 370.532 379.507L323.972 352.625C322.948 352.034 322.942 351.074 323.961 350.483C324.979 349.891 326.634 349.891 327.659 350.483L374.219 377.365Z" fill="#B5EAFF"/>
<path d="M320.904 323.098C322.326 323.92 322.334 325.25 320.92 326.071L312.655 330.875C311.242 331.696 308.945 331.696 307.523 330.875L282.999 316.716C281.578 315.895 281.57 314.565 282.984 313.744L291.249 308.94C292.662 308.119 294.959 308.119 296.38 308.939L320.904 323.098Z" fill="#B5EAFF"/>
<path d="M380.564 307.268C382.451 308.357 382.46 310.123 380.585 311.213C378.711 312.302 375.661 312.303 373.774 311.214L347.717 296.169C345.83 295.08 345.821 293.313 347.696 292.224C349.57 291.135 352.62 291.134 354.507 292.223L380.564 307.268Z" fill="#B5EAFF"/>
<path d="M418.361 354.013L412.239 357.57L399.731 350.349L405.853 346.791L418.361 354.013Z" fill="url(#paint2_linear_13_2632)"/>
<path d="M391.314 338.397L385.192 341.955L372.682 334.733L378.804 331.175L391.314 338.397Z" fill="url(#paint3_linear_13_2632)"/>
<path d="M383.852 342.737L377.057 346.685L368.661 341.838C366.388 340.525 366.376 338.4 368.634 337.087L371.342 335.514L383.852 342.737Z" fill="url(#paint4_linear_13_2632)"/>
<path d="M404.502 346.011L398.379 349.569L386.545 342.737L392.667 339.179L404.502 346.011Z" fill="url(#paint5_linear_13_2632)"/>
<path d="M422.387 346.909C424.66 348.221 424.672 350.347 422.415 351.659L419.706 353.233L407.198 346.011L413.993 342.062L422.387 346.909Z" fill="url(#paint6_linear_13_2632)"/>
<path d="M397.037 350.35L390.242 354.298L378.407 347.466L385.202 343.517L397.037 350.35Z" fill="url(#paint7_linear_13_2632)"/>
<path d="M410.896 358.352L408.189 359.925C405.931 361.238 402.261 361.238 399.987 359.925L391.593 355.079L398.388 351.13L410.896 358.352Z" fill="url(#paint8_linear_13_2632)"/>
<path d="M412.639 341.282L405.844 345.231L394.009 338.398L400.804 334.449L412.639 341.282Z" fill="url(#paint9_linear_13_2632)"/>
<path d="M399.457 333.669L392.662 337.617L380.152 330.395L382.861 328.82C385.117 327.509 388.788 327.509 391.061 328.821L399.457 333.669Z" fill="url(#paint10_linear_13_2632)"/>
<path d="M284.474 302.062C285.894 302.883 285.902 304.213 284.489 305.034L276.223 309.838C274.81 310.659 272.514 310.659 271.093 309.839L246.569 295.68C245.146 294.859 245.139 293.528 246.552 292.707L254.817 287.903C256.23 287.082 258.527 287.082 259.949 287.903L284.474 302.062Z" fill="#B5EAFF"/>
<path d="M338.056 188.24L343.454 191.377L348.887 188.24L343.489 185.103L338.056 188.24Z" fill="#E6F9FF"/>
<path d="M338.057 188.241L338.132 264.657L343.53 267.794L343.455 191.378L338.057 188.241Z" fill="url(#paint11_linear_13_2632)"/>
<path d="M343.457 191.378L343.531 267.794L348.964 264.657L348.89 188.241L343.457 191.378Z" fill="url(#paint12_linear_13_2632)"/>
<path d="M357.53 212.172L362.928 215.309L368.361 212.172L362.963 209.036L357.53 212.172Z" fill="#E6F9FF"/>
<path d="M357.532 212.174L357.606 274.028L363.004 277.165L362.93 215.311L357.532 212.174Z" fill="url(#paint13_linear_13_2632)"/>
<path d="M362.931 215.311L363.005 277.165L368.438 274.028L368.364 212.174L362.931 215.311Z" fill="url(#paint14_linear_13_2632)"/>
<path d="M320.572 191.338L325.97 194.475L331.403 191.338L326.005 188.201L320.572 191.338Z" fill="#E6F9FF"/>
<path d="M320.577 191.339L320.651 253.193L326.049 256.33L325.974 194.476L320.577 191.339Z" fill="url(#paint15_linear_13_2632)"/>
<path d="M325.973 194.476L326.048 256.33L331.48 253.193L331.406 191.339L325.973 194.476Z" fill="url(#paint16_linear_13_2632)"/>
<path d="M376.119 239.3L381.517 242.437L386.95 239.3L381.552 236.164L376.119 239.3Z" fill="#E6F9FF"/>
<path d="M376.121 239.302L376.195 284.218L381.593 287.354L381.518 242.439L376.121 239.302Z" fill="url(#paint17_linear_13_2632)"/>
<path d="M381.52 242.439L381.594 287.354L387.027 284.218L386.953 239.302L381.52 242.439Z" fill="url(#paint18_linear_13_2632)"/>
<path d="M107.951 361.153L269.766 456.835L341.741 414.294L173.425 321.348L107.951 361.153Z" fill="#94A0AF"/>
<path d="M64.9587 62.336L171.164 1.01815C173.041 -0.0657079 174.726 -0.0390519 175.839 0.878999L184.804 7.83531L177.222 32.2364V302.816C177.222 306.664 174.496 311.386 171.164 313.309L72.1282 370.485L68.7782 381.267L61.033 375.206C59.7314 374.672 58.9001 373.247 58.9001 371.126V72.829C58.9005 68.9815 61.6267 64.2597 64.9587 62.336Z" fill="url(#paint19_linear_13_2632)"/>
<path d="M67.5562 79.4879V377.781C67.5562 381.629 70.2774 383.203 73.6144 381.279L140.176 342.853L153.125 335.375L161.464 330.562L179.82 319.963C183.15 318.04 185.878 313.318 185.878 309.47V11.1704C185.878 7.3229 183.15 5.74884 179.82 7.67259L102.135 52.5274L73.6144 68.9945C70.2774 70.9183 67.5562 75.6404 67.5562 79.4879Z" fill="#1D1C1A"/>
<path d="M174.01 26.7224C177.342 24.7986 180.068 26.3727 180.068 30.2202V278.965C180.068 282.812 177.342 287.534 174.01 289.458L79.4247 344.064C76.0927 345.988 73.3665 344.414 73.3665 340.566V91.8249C73.3665 87.9774 76.0927 83.2557 79.4247 81.332L174.01 26.7224Z" fill="url(#paint20_linear_13_2632)"/>
<path d="M143.383 323.547C143.383 318.28 139.65 316.125 135.089 318.758C130.528 321.39 126.795 327.854 126.795 333.121C126.795 338.389 130.527 340.544 135.089 337.911C139.651 335.278 143.383 328.814 143.383 323.547Z" fill="#64645C"/>
<path d="M142.176 324.244C142.176 319.742 138.986 317.899 135.086 320.15C131.187 322.4 127.996 327.926 127.996 332.429C127.996 336.932 131.187 338.774 135.086 336.523C138.985 334.272 142.176 328.747 142.176 324.244Z" fill="#3D3D39"/>
<path d="M165.378 24.5888C165.378 25.7463 166.036 26.3557 166.944 26.1737C167.165 26.1303 167.4 26.039 167.645 25.8999C168.893 25.1797 169.917 23.4123 169.917 21.9715C169.917 20.5307 168.894 19.9452 167.645 20.6604C167.285 20.8718 166.939 21.1696 166.637 21.5247C165.892 22.3844 165.378 23.5709 165.378 24.5888Z" fill="#64645C"/>
<path d="M179.223 16.1366C179.223 14.0385 177.737 13.1801 175.92 14.2287C174.103 15.2773 172.616 17.8521 172.616 19.9502C172.616 22.0484 174.103 22.9068 175.92 21.8582C177.737 20.8096 179.223 18.2343 179.223 16.1366Z" fill="#64645C"/>
<path d="M92.9082 67.039C93.0863 67.039 93.2665 66.9934 93.4319 66.898L161.044 27.8592C161.546 27.5696 161.718 26.9276 161.428 26.4261C161.138 25.9242 160.497 25.7525 159.995 26.0421L92.3828 65.0809C91.8809 65.3705 91.7087 66.0125 91.9988 66.514C92.193 66.8511 92.5454 67.039 92.9082 67.039Z" fill="#64645C"/>
<path opacity="0.2" d="M67.5566 79.4854V161.731L161.463 330.559L179.82 319.961C183.15 318.037 185.878 313.315 185.878 309.468V266.229L102.135 52.5249L73.6143 68.992C70.2778 70.9157 67.5566 75.6379 67.5566 79.4854Z" fill="url(#paint21_linear_13_2632)"/>
<g opacity="0.4">
<path d="M83.5463 211.687C81.5286 212.852 79.8981 215.675 79.9048 217.995L79.9423 231.158C79.9491 233.477 81.59 234.412 83.6078 233.247L177.442 179.072C179.46 177.906 181.09 175.082 181.083 172.764L181.046 159.601C181.039 157.282 179.399 156.347 177.38 157.512L83.5463 211.687Z" fill="#686868"/>
</g>
<g opacity="0.4">
<path d="M83.5463 245.437C81.5286 246.602 79.8981 249.425 79.9048 251.745L79.9423 264.908C79.9491 267.226 81.59 268.162 83.6078 266.997L177.442 212.822C179.46 211.656 181.09 208.832 181.083 206.514L181.046 193.351C181.039 191.032 179.399 190.097 177.38 191.262L83.5463 245.437Z" fill="#686868"/>
</g>
<g opacity="0.4">
<path d="M83.5463 279.61C81.5286 280.774 79.8981 283.598 79.9048 285.917L79.9423 299.08C79.9491 301.398 81.59 302.334 83.6078 301.169L177.442 246.994C179.46 245.828 181.09 243.005 181.083 240.687L181.046 227.523C181.039 225.204 179.399 224.269 177.38 225.435L83.5463 279.61Z" fill="#686868"/>
</g>
<path d="M88.6893 150.872C82.8431 154.247 78.1019 162.458 78.1209 169.177C78.1399 175.895 82.9122 178.615 88.7585 175.239L164.777 131.35C170.623 127.975 175.364 119.762 175.345 113.045C175.326 106.325 170.554 103.607 164.708 106.982L88.6893 150.872Z" fill="#66665F"/>
<path d="M88.6994 154.62C84.6459 156.96 81.3694 162.634 81.3825 167.293C81.3956 171.951 84.6938 173.831 88.7473 171.49L164.766 127.6C168.82 125.26 172.096 119.585 172.083 114.927C172.07 110.267 168.772 108.39 164.718 110.73L88.6994 154.62Z" fill="#2B2B28"/>
<path opacity="0.1" d="M108.109 361.867L181.004 319.785L181.133 216.9C181.172 185.62 174.985 154.645 162.932 125.779L160.309 119.497L87.4138 161.578C100.89 191.725 107.882 224.366 107.937 257.388L108.109 361.867Z" fill="black"/>
<path d="M180.048 396.313C180.035 396.321 180.022 396.327 180.009 396.335C179.945 396.371 179.88 396.406 179.816 396.442C179.754 396.476 179.692 396.51 179.629 396.543C179.564 396.577 179.497 396.609 179.431 396.642C179.367 396.674 179.304 396.706 179.24 396.736C179.174 396.767 179.105 396.797 179.037 396.828C178.973 396.856 178.908 396.885 178.843 396.913C178.775 396.942 178.705 396.969 178.635 396.997C178.57 397.023 178.504 397.049 178.438 397.074C178.368 397.1 178.296 397.125 178.226 397.15C178.158 397.173 178.092 397.198 178.024 397.22C177.952 397.243 177.88 397.265 177.808 397.287C177.739 397.308 177.671 397.33 177.602 397.349C177.529 397.37 177.455 397.389 177.382 397.408C177.312 397.427 177.243 397.446 177.172 397.463C177.098 397.481 177.024 397.497 176.949 397.513C176.877 397.529 176.807 397.546 176.735 397.56C176.659 397.576 176.583 397.589 176.507 397.603C176.434 397.616 176.363 397.63 176.29 397.642C176.213 397.654 176.136 397.664 176.058 397.676C175.985 397.686 175.912 397.697 175.838 397.707C175.76 397.716 175.681 397.724 175.603 397.732C175.528 397.74 175.454 397.748 175.379 397.755C175.299 397.762 175.219 397.767 175.139 397.772C175.063 397.777 174.988 397.783 174.912 397.787C174.831 397.791 174.75 397.793 174.668 397.795C174.592 397.797 174.516 397.801 174.439 397.802C174.357 397.803 174.274 397.802 174.192 397.801C174.114 397.801 174.037 397.802 173.959 397.8C173.876 397.798 173.793 397.794 173.71 397.791C173.631 397.788 173.552 397.786 173.472 397.781C173.389 397.777 173.304 397.77 173.22 397.764C173.14 397.758 173.06 397.753 172.98 397.746C172.895 397.738 172.809 397.728 172.723 397.719C172.642 397.711 172.562 397.704 172.481 397.694C172.394 397.683 172.306 397.67 172.219 397.658C172.138 397.647 172.057 397.637 171.976 397.624C171.888 397.611 171.799 397.594 171.71 397.579C171.629 397.565 171.547 397.553 171.466 397.537C171.376 397.521 171.286 397.501 171.196 397.483C171.114 397.466 171.032 397.451 170.949 397.433C170.859 397.414 170.769 397.391 170.679 397.37C170.595 397.351 170.512 397.332 170.428 397.311C170.337 397.289 170.247 397.264 170.156 397.24C170.071 397.217 169.986 397.196 169.901 397.172C169.809 397.146 169.716 397.118 169.624 397.09C169.539 397.065 169.455 397.042 169.369 397.015C169.276 396.986 169.181 396.954 169.087 396.923C169.002 396.896 168.917 396.869 168.832 396.84C168.736 396.807 168.639 396.772 168.542 396.737C168.459 396.707 168.375 396.679 168.291 396.648C168.195 396.612 168.097 396.573 168 396.536C167.915 396.503 167.83 396.472 167.745 396.437C167.647 396.398 167.549 396.356 167.451 396.316C167.366 396.28 167.281 396.246 167.195 396.209C167.096 396.167 166.996 396.121 166.897 396.077C166.812 396.039 166.726 396.002 166.64 395.962C166.536 395.915 166.432 395.864 166.328 395.815C166.246 395.776 166.164 395.738 166.082 395.698C165.971 395.643 165.86 395.586 165.749 395.53C165.673 395.491 165.596 395.454 165.519 395.414C165.397 395.351 165.274 395.284 165.152 395.218C165.086 395.183 165.02 395.149 164.954 395.113C164.764 395.009 164.575 394.902 164.385 394.792C152.241 387.781 142.394 370.725 142.434 356.772L142.797 228.463C142.851 209.703 129.611 186.772 113.285 177.347L87.4296 162.232L160.361 119.849L186.217 134.776C202.634 144.255 215.945 167.312 215.891 186.175L215.527 314.484C215.488 328.332 225.262 345.262 237.316 352.221C237.389 352.263 237.461 352.302 237.533 352.343L259.246 339.725C259.246 339.789 259.245 339.851 259.244 339.915L259.41 339.819C259.39 346.773 256.917 351.664 252.939 353.953C252.952 353.946 252.966 353.939 252.978 353.932L180.048 396.313Z" fill="url(#paint22_linear_13_2632)" fill-opacity="0.91"/>
<path d="M181.15 255.243C180.562 255.583 180.088 256.404 180.09 257.08L180.094 258.424C180.095 259.099 180.573 259.371 181.161 259.032L207.538 243.803C208.125 243.464 208.601 242.642 208.598 241.967L208.595 240.622C208.593 239.947 208.115 239.675 207.527 240.015L181.15 255.243Z" fill="#A6A6A6"/>
<path d="M197.873 253.055C197.286 253.394 196.81 254.216 196.813 254.891L196.816 256.235C196.818 256.911 197.296 257.182 197.883 256.844L207.562 251.256C208.15 250.916 208.625 250.095 208.623 249.419L208.619 248.075C208.618 247.4 208.139 247.128 207.551 247.467L197.873 253.055Z" fill="#A6A6A6"/>
<path d="M159.565 344.336C158.977 344.676 158.503 345.498 158.505 346.173C158.507 346.847 158.984 347.121 159.572 346.782L199.138 323.938C199.726 323.599 200.201 322.776 200.199 322.102C200.197 321.426 199.718 321.154 199.131 321.493L159.565 344.336Z" fill="#A6A6A6"/>
<path d="M196.962 270.475C196.375 270.814 195.901 271.636 195.902 272.311L195.906 273.655C195.908 274.331 196.386 274.602 196.973 274.263L207.609 268.122C208.197 267.783 208.672 266.961 208.67 266.286L208.666 264.942C208.664 264.266 208.186 263.995 207.598 264.334L196.962 270.475Z" fill="#A6A6A6"/>
<path d="M183.683 285.606C183.096 285.945 182.621 286.767 182.623 287.442L182.627 288.786C182.629 289.462 183.107 289.733 183.694 289.395L188.055 286.877C188.643 286.537 189.117 285.716 189.115 285.041L189.111 283.697C189.11 283.021 188.632 282.749 188.044 283.088L183.683 285.606Z" fill="#A6A6A6"/>
<path d="M163.673 328.742C163.086 329.081 162.611 329.904 162.613 330.579L162.626 335.223C162.628 335.897 163.106 336.17 163.693 335.831L194.963 317.777C195.551 317.438 196.025 316.615 196.023 315.941L196.01 311.297C196.008 310.622 195.531 310.349 194.943 310.688L163.673 328.742Z" fill="#A6A6A6"/>
<path d="M151.682 344.604C151.094 344.943 150.62 345.765 150.622 346.44C150.624 347.114 151.101 347.387 151.689 347.048L206.997 315.116C207.584 314.778 208.058 313.955 208.057 313.28C208.055 312.605 207.576 312.333 206.989 312.672L151.682 344.604Z" fill="#A6A6A6"/>
<path d="M150.842 312.034C150.255 312.374 149.781 313.195 149.782 313.871L149.795 318.27C149.797 318.944 150.274 319.218 150.862 318.878L163.625 311.509C164.213 311.17 164.688 310.347 164.686 309.673L164.673 305.273C164.671 304.598 164.193 304.326 163.605 304.666L150.842 312.034Z" fill="#A6A6A6"/>
<path d="M144.499 328.918L144.501 329.651L214.061 289.491L214.059 288.758L144.499 328.918Z" fill="#A6A6A6"/>
<path d="M150.821 304.578C150.234 304.918 149.76 305.739 149.761 306.415L149.765 307.759C149.767 308.434 150.244 308.706 150.832 308.367L156.575 305.051C157.163 304.711 157.638 303.89 157.635 303.214L157.632 301.87C157.63 301.195 157.152 300.923 156.565 301.262L150.821 304.578Z" fill="#A6A6A6"/>
<path d="M150.802 297.126C150.215 297.466 149.741 298.287 149.743 298.962L149.746 300.306C149.748 300.982 150.226 301.254 150.813 300.915L161.769 294.589C162.356 294.251 162.831 293.429 162.829 292.753L162.825 291.409C162.823 290.734 162.345 290.462 161.758 290.801L150.802 297.126Z" fill="#A6A6A6"/>
<path d="M189.026 289.99L207.638 279.244C208.226 278.905 208.704 279.177 208.706 279.852L208.719 284.252C208.721 284.926 208.246 285.749 207.658 286.088L189.046 296.834C188.458 297.173 187.981 296.9 187.978 296.226L187.966 291.826C187.963 291.151 188.438 290.33 189.026 289.99Z" fill="#A6A6A6"/>
<path d="M144.4 293.477L144.403 294.211L213.962 254.05L213.96 253.316L144.4 293.477Z" fill="#A6A6A6"/>
<path d="M150.753 280.259C150.166 280.598 149.692 281.42 149.693 282.095L149.697 283.439C149.699 284.115 150.176 284.387 150.764 284.047L156.507 280.731C157.095 280.392 157.569 279.571 157.567 278.895L157.564 277.551C157.562 276.876 157.084 276.604 156.497 276.943L150.753 280.259Z" fill="#A6A6A6"/>
<path d="M188.787 206.272C188.199 206.612 187.725 207.434 187.727 208.109L187.731 209.453C187.733 210.127 188.21 210.401 188.798 210.062L207.411 199.316C207.998 198.976 208.474 198.153 208.471 197.479L208.468 196.135C208.466 195.459 207.988 195.187 207.4 195.526L188.787 206.272Z" fill="#A6A6A6"/>
<path d="M192.301 280.632C191.714 280.971 191.238 281.793 191.241 282.468L191.244 283.812C191.246 284.488 191.724 284.759 192.311 284.421L207.627 275.578C208.215 275.239 208.69 274.417 208.688 273.741L208.684 272.397C208.683 271.722 208.204 271.45 207.616 271.79L192.301 280.632Z" fill="#A6A6A6"/>
<path d="M179.307 280.666C178.72 281.006 178.246 281.827 178.247 282.502L178.251 283.846C178.253 284.522 178.73 284.794 179.318 284.455L192.719 276.717C193.307 276.378 193.781 275.556 193.779 274.881L193.776 273.537C193.774 272.861 193.296 272.589 192.709 272.929L179.307 280.666Z" fill="#A6A6A6"/>
<path d="M150.713 265.593C150.125 265.933 149.651 266.755 149.653 267.429L149.657 268.774C149.659 269.449 150.136 269.722 150.724 269.383L156.467 266.066C157.055 265.727 157.529 264.904 157.527 264.23L157.523 262.885C157.522 262.211 157.044 261.938 156.456 262.277L150.713 265.593Z" fill="#A6A6A6"/>
<path d="M150.729 272.805C150.141 273.144 149.667 273.966 149.669 274.641L149.672 275.985C149.674 276.661 150.152 276.933 150.739 276.593L156.483 273.277C157.07 272.938 157.545 272.116 157.543 271.441L157.539 270.097C157.537 269.421 157.06 269.15 156.472 269.489L150.729 272.805Z" fill="#A6A6A6"/>
<path d="M192.192 241.645C191.605 241.984 191.13 242.807 191.132 243.481L191.136 244.827C191.138 245.501 191.616 245.774 192.203 245.435L207.519 236.592C208.107 236.253 208.582 235.43 208.58 234.756L208.576 233.411C208.575 232.737 208.096 232.464 207.508 232.803L192.192 241.645Z" fill="#A6A6A6"/>
<path d="M196.851 231.49C196.264 231.828 195.788 232.65 195.791 233.326L195.794 234.67C195.796 235.345 196.275 235.617 196.861 235.278L207.497 229.137C208.085 228.798 208.56 227.976 208.558 227.301L208.554 225.956C208.553 225.281 208.074 225.009 207.486 225.349L196.851 231.49Z" fill="#A6A6A6"/>
<path d="M183.578 246.62C182.991 246.959 182.516 247.782 182.518 248.456L182.521 249.802C182.523 250.476 183.002 250.749 183.589 250.41L187.95 247.892C188.538 247.553 189.011 246.73 189.01 246.056L189.006 244.711C189.004 244.037 188.527 243.764 187.939 244.103L183.578 246.62Z" fill="#A6A6A6"/>
<path d="M188.852 228.637C188.264 228.977 187.79 229.798 187.792 230.473L187.796 231.817C187.798 232.493 188.275 232.765 188.863 232.426L207.476 221.68C208.063 221.34 208.539 220.518 208.536 219.843L208.533 218.499C208.531 217.823 208.053 217.552 207.465 217.891L188.852 228.637Z" fill="#A6A6A6"/>
<path d="M179.193 241.681C178.605 242.02 178.131 242.842 178.133 243.517L178.137 244.861C178.138 245.537 178.616 245.808 179.204 245.469L192.605 237.732C193.193 237.392 193.667 236.571 193.665 235.896L193.661 234.552C193.659 233.876 193.182 233.604 192.594 233.943L179.193 241.681Z" fill="#A6A6A6"/>
<path d="M196.786 209.12C196.199 209.459 195.724 210.281 195.726 210.956L195.729 212.301C195.731 212.975 196.21 213.248 196.797 212.909L207.432 206.769C208.02 206.429 208.495 205.606 208.493 204.932L208.49 203.587C208.488 202.912 208.009 202.64 207.421 202.979L196.786 209.12Z" fill="#A6A6A6"/>
<path d="M183.513 224.253C182.926 224.592 182.451 225.413 182.453 226.089L182.457 227.433C182.458 228.108 182.937 228.38 183.524 228.041L187.885 225.523C188.473 225.184 188.947 224.363 188.945 223.687L188.941 222.343C188.939 221.668 188.462 221.396 187.874 221.735L183.513 224.253Z" fill="#A6A6A6"/>
<path d="M179.134 219.316C178.546 219.655 178.072 220.477 178.074 221.152L178.078 222.497C178.08 223.172 178.557 223.445 179.145 223.106L192.546 215.368C193.134 215.029 193.608 214.206 193.606 213.532L193.602 212.187C193.601 211.512 193.123 211.239 192.535 211.578L179.134 219.316Z" fill="#A6A6A6"/>
<path d="M150.691 258.138C150.104 258.477 149.63 259.298 149.632 259.974L149.635 261.318C149.637 261.993 150.115 262.265 150.702 261.926L156.446 258.61C157.033 258.27 157.508 257.449 157.505 256.774L157.502 255.429C157.5 254.754 157.023 254.482 156.435 254.821L150.691 258.138Z" fill="#A6A6A6"/>
<path d="M150.67 250.682C150.082 251.022 149.608 251.843 149.61 252.519L149.614 253.863C149.615 254.538 150.093 254.81 150.681 254.471L156.424 251.155C157.012 250.816 157.486 249.994 157.484 249.319L157.48 247.975C157.478 247.299 157.001 247.027 156.413 247.367L150.67 250.682Z" fill="#A6A6A6"/>
<path d="M150.648 243.227C150.06 243.566 149.586 244.388 149.588 245.063L149.591 246.407C149.593 247.083 150.071 247.354 150.658 247.015L156.402 243.699C156.99 243.36 157.464 242.538 157.462 241.863L157.458 240.519C157.457 239.843 156.979 239.571 156.391 239.911L150.648 243.227Z" fill="#A6A6A6"/>
<path d="M150.629 235.773C150.042 236.112 149.568 236.934 149.57 237.609L149.573 238.954C149.575 239.628 150.053 239.901 150.64 239.562L156.384 236.246C156.971 235.907 157.446 235.084 157.443 234.41L157.44 233.064C157.438 232.39 156.961 232.117 156.373 232.456L150.629 235.773Z" fill="#A6A6A6"/>
<path d="M150.604 228.317C150.016 228.656 149.543 229.478 149.544 230.154L149.548 231.498C149.55 232.172 150.027 232.445 150.615 232.106L156.359 228.79C156.947 228.45 157.421 227.628 157.419 226.953L157.415 225.609C157.413 224.934 156.936 224.661 156.348 225L150.604 228.317Z" fill="#A6A6A6"/>
<path d="M192.124 219.278L207.44 210.435C208.028 210.096 208.506 210.367 208.508 211.043L208.512 212.387C208.514 213.062 208.039 213.884 207.451 214.224L192.135 223.066C191.548 223.405 191.07 223.133 191.068 222.458L191.064 221.114C191.062 220.438 191.537 219.617 192.124 219.278Z" fill="#A6A6A6"/>
<path d="M163.333 207.26C162.746 207.599 162.271 208.421 162.273 209.096C162.275 209.771 162.753 210.043 163.34 209.704L194.61 191.65C195.198 191.311 195.673 190.49 195.67 189.814C195.668 189.139 195.191 188.867 194.603 189.206L163.333 207.26Z" fill="#A6A6A6"/>
<path d="M163.304 198.339C162.718 198.677 162.243 199.499 162.245 200.175L162.258 204.819C162.259 205.494 162.738 205.766 163.325 205.427L194.595 187.373C195.183 187.034 195.657 186.212 195.655 185.537L195.642 180.893C195.64 180.217 195.162 179.945 194.575 180.285L163.304 198.339Z" fill="#A6A6A6"/>
<path d="M144.208 226.626L144.21 227.358L213.77 187.198L213.768 186.465L144.208 226.626Z" fill="#A6A6A6"/>
<path d="M252.514 354.045C252.514 354.045 258.953 351.055 258.953 339.788C258.953 328.52 258.679 324.857 267.698 321.475L195.263 363.786C186.245 367.168 186.518 370.831 186.518 382.099C186.518 393.367 180.079 396.356 180.079 396.356L252.514 354.045Z" fill="#B5B5B5"/>
<path d="M320.534 382.443C319.13 384.486 319.031 387.657 318.862 389.764C318.525 393.979 313.912 399.807 307.013 394.748C290.089 382.336 293.676 374.282 293.676 354.046C293.676 333.81 273.21 319.323 267.469 321.477L195.034 363.788C200.776 361.635 221.241 376.122 221.241 396.357C221.241 416.593 217.654 424.648 234.578 437.059C241.477 442.118 246.09 436.29 246.428 432.076C246.648 429.332 246.749 424.787 249.764 423.273L320.534 382.443Z" fill="url(#paint23_linear_13_2632)"/>
<path d="M314.026 396.474L242.812 438.072L242.844 438.123C244.973 436.791 246.255 434.225 246.427 432.077C246.647 429.334 246.748 424.788 249.764 423.275L320.534 382.444C319.13 384.487 319.031 387.658 318.862 389.765C318.661 392.282 316.935 395.373 314.109 396.379L314.026 396.474Z" fill="#B5B5B5"/>
<path d="M249.996 423.275C251.613 422.463 254.07 422.524 257.833 424.203C268.612 429.012 270.222 444.419 268.842 456.837L341.277 414.525C342.657 402.108 341.047 386.701 330.268 381.892C324.878 379.487 322.169 380.402 320.765 382.445L249.996 423.275Z" fill="url(#paint24_linear_13_2632)"/>
<path d="M275.508 365.649C274.921 365.988 274.446 366.809 274.448 367.485L274.452 368.829C274.454 369.504 274.932 369.776 275.519 369.437L286.155 363.296C286.742 362.957 287.218 362.135 287.215 361.46L287.212 360.116C287.21 359.44 286.732 359.169 286.144 359.508L275.508 365.649Z" fill="#A6A6A6"/>
<path d="M262.232 380.78C261.645 381.119 261.17 381.941 261.172 382.616L261.176 383.96C261.177 384.636 261.656 384.907 262.243 384.568L266.604 382.051C267.192 381.711 267.666 380.89 267.664 380.214L267.66 378.87C267.658 378.195 267.181 377.923 266.593 378.262L262.232 380.78Z" fill="#A6A6A6"/>
<path d="M229.388 407.208C228.8 407.548 228.326 408.369 228.328 409.044L228.341 413.444C228.343 414.118 228.82 414.391 229.408 414.052L242.171 406.683C242.759 406.344 243.234 405.521 243.232 404.847L243.219 400.447C243.217 399.772 242.739 399.5 242.151 399.839L229.388 407.208Z" fill="#A6A6A6"/>
<path d="M223.045 424.092L223.047 424.825L292.607 384.664L292.605 383.932L223.045 424.092Z" fill="#A6A6A6"/>
<path d="M229.367 399.754C228.779 400.094 228.306 400.915 228.307 401.59L228.311 402.934C228.313 403.61 228.79 403.882 229.378 403.543L235.121 400.226C235.709 399.887 236.184 399.066 236.181 398.39L236.178 397.046C236.176 396.371 235.698 396.099 235.111 396.438L229.367 399.754Z" fill="#A6A6A6"/>
<path d="M229.348 392.297C228.761 392.636 228.287 393.458 228.288 394.133L228.292 395.477C228.294 396.153 228.771 396.425 229.359 396.085L240.315 389.76C240.902 389.421 241.377 388.6 241.375 387.924L241.371 386.58C241.369 385.905 240.891 385.633 240.304 385.972L229.348 392.297Z" fill="#A6A6A6"/>
<path d="M267.572 385.164L286.184 374.418C286.772 374.079 287.25 374.35 287.252 375.026L287.265 379.425C287.267 380.099 286.792 380.923 286.204 381.262L267.592 392.008C267.004 392.347 266.527 392.074 266.524 391.4L266.512 387C266.51 386.325 266.984 385.503 267.572 385.164Z" fill="#A6A6A6"/>
<path d="M222.946 388.649L222.948 389.383L292.508 349.222L292.506 348.489L222.946 388.649Z" fill="#A6A6A6"/>
<path d="M270.847 375.807C270.26 376.145 269.784 376.967 269.787 377.643L269.79 378.987C269.792 379.662 270.271 379.934 270.857 379.595L286.173 370.752C286.761 370.413 287.236 369.591 287.234 368.916L287.231 367.572C287.229 366.896 286.75 366.625 286.162 366.964L270.847 375.807Z" fill="#A6A6A6"/>
<path d="M257.853 375.842C257.265 376.181 256.792 377.003 256.793 377.678L256.797 379.022C256.799 379.698 257.276 379.97 257.864 379.63L271.265 371.893C271.853 371.554 272.327 370.732 272.325 370.057L272.322 368.713C272.32 368.037 271.842 367.765 271.254 368.105L257.853 375.842Z" fill="#A6A6A6"/>
<path d="M93.0862 104.537L157.83 67.1569C161.561 65.0027 164.941 64.803 167.382 66.2212L172.368 69.1191C169.927 67.7004 166.547 67.9006 162.816 70.0547L98.0722 107.435C90.6578 111.715 84.6665 122.093 84.6905 130.613C84.7027 134.845 86.1967 137.823 88.6066 139.224L83.6206 136.326C81.2107 134.925 79.7162 131.947 79.7044 127.715C79.6805 119.195 85.6718 108.818 93.0862 104.537Z" fill="url(#paint25_linear_13_2632)"/>
<path d="M98.0739 107.436C90.6594 111.716 84.6681 122.094 84.6921 130.614C84.716 139.134 90.7466 142.57 98.1615 138.289L162.905 100.909C170.32 96.6285 176.31 86.2517 176.286 77.7317C176.262 69.2117 170.233 65.7744 162.818 70.0552L98.0739 107.436Z" fill="url(#paint26_linear_13_2632)"/>
<path d="M241.71 104.053L268.114 88.8081C269.543 87.9831 270.837 87.9068 271.772 88.4503L276.03 90.9248C275.095 90.3817 273.801 90.4581 272.372 91.2826L245.968 106.527C243.129 108.166 240.834 112.14 240.844 115.402L240.93 145.743C240.934 147.364 241.507 148.504 242.429 149.04L238.172 146.566C237.249 146.03 236.677 144.889 236.672 143.269L236.586 112.928C236.577 109.666 238.871 105.692 241.71 104.053Z" fill="url(#paint27_linear_13_2632)"/>
<path d="M245.96 106.535C243.122 108.176 240.83 112.151 240.84 115.413L240.943 145.754C240.954 149.016 243.264 150.33 246.102 148.69L272.498 133.431C275.337 131.79 277.628 127.815 277.618 124.553L277.515 94.2123C277.504 90.9503 275.194 89.6356 272.356 91.2761L245.96 106.535Z" fill="url(#paint28_linear_13_2632)"/>
<path d="M241.71 164.225L268.114 148.98C269.543 148.155 270.837 148.079 271.772 148.622L276.03 151.097C275.095 150.554 273.801 150.63 272.372 151.454L245.968 166.699C243.129 168.338 240.834 172.312 240.844 175.574L240.93 205.915C240.934 207.536 241.507 208.676 242.429 209.212L238.172 206.738C237.249 206.201 236.677 205.061 236.672 203.44L236.586 173.1C236.577 169.838 238.871 165.864 241.71 164.225Z" fill="url(#paint29_linear_13_2632)"/>
<path d="M245.96 166.707C243.122 168.347 240.83 172.323 240.84 175.585L240.943 205.926C240.954 209.188 243.264 210.502 246.102 208.862L272.498 193.603C275.337 191.962 277.628 187.987 277.618 184.725L277.515 154.384C277.504 151.122 275.194 149.807 272.356 151.448L245.96 166.707Z" fill="url(#paint30_linear_13_2632)"/>
<path d="M241.71 224.64L268.114 209.396C269.543 208.571 270.837 208.494 271.772 209.038L276.03 211.512C275.095 210.969 273.801 211.045 272.372 211.87L245.968 227.115C243.129 228.754 240.834 232.728 240.844 235.99L240.93 266.33C240.934 267.951 241.507 269.091 242.429 269.628L238.172 267.153C237.249 266.617 236.677 265.477 236.672 263.856L236.586 233.515C236.577 230.253 238.871 226.279 241.71 224.64Z" fill="url(#paint31_linear_13_2632)"/>
<path d="M245.96 227.123C243.122 228.763 240.83 232.739 240.84 236.001L240.943 266.342C240.954 269.604 243.264 270.918 246.102 269.278L272.498 254.019C275.337 252.378 277.628 248.403 277.618 245.141L277.515 214.8C277.504 211.538 275.194 210.223 272.356 211.863L245.96 227.123Z" fill="url(#paint32_linear_13_2632)"/>
<path opacity="0.8" d="M77.4147 186.702L20.0388 219.739C18.6116 220.561 17.7346 222.086 17.7419 223.733L17.989 279.114C18.0048 282.615 21.78 284.808 24.8283 283.086L82.0741 250.745C83.5162 249.93 84.4072 248.4 84.4036 246.744L84.2861 190.666C84.2793 187.143 80.4675 184.945 77.4147 186.702Z" fill="url(#paint33_linear_13_2632)"/>
<path d="M77.3467 234.731C77.3467 230.75 74.3133 229.243 70.6059 231.384L33.9331 252.557C30.2256 254.697 27.1923 259.74 27.1923 263.764C27.1923 267.787 30.2216 269.321 33.924 267.172L70.6145 245.877C74.3174 243.728 77.3467 238.713 77.3467 234.731Z" fill="url(#paint34_linear_13_2632)"/>
<path d="M66.8701 240.031L65.4863 240.829L64.6527 239.401L64.4399 241.434L62.8785 242.335L64.3979 242.606L64.4245 244.641L65.3376 242.764L66.6569 243.655L65.9412 241.929L66.8701 240.031Z" fill="url(#paint35_linear_13_2632)"/>
<path d="M60.389 243.774L59.0052 244.573L58.1716 243.145L57.9588 245.178L56.397 246.079L57.9168 246.35L57.9435 248.384L58.8565 246.508L60.1758 247.399L59.4601 245.673L60.389 243.774Z" fill="url(#paint36_linear_13_2632)"/>
<path d="M53.657 247.606L52.2731 248.405L51.44 246.976L51.2268 249.009L49.6654 249.91L51.1852 250.181L51.2114 252.216L52.1249 250.339L53.4437 251.231L52.7281 249.504L53.657 247.606Z" fill="url(#paint37_linear_13_2632)"/>
<path d="M48.2998 250.736L46.916 251.535L46.0828 250.106L45.8696 252.14L44.3082 253.041L45.828 253.311L45.8542 255.346L46.7673 253.469L48.0866 254.361L47.3709 252.634L48.2998 250.736Z" fill="url(#paint38_linear_13_2632)"/>
<path d="M42.5428 254.087L41.159 254.886L40.3259 253.457L40.1126 255.49L38.5512 256.391L40.0711 256.662L40.0977 258.697L41.0108 256.82L42.3296 257.712L41.6144 255.985L42.5428 254.087Z" fill="url(#paint39_linear_13_2632)"/>
<path d="M52.8626 235.894C57.1827 233.4 59.8442 228.79 59.8442 223.801V213.31C57.8974 215.563 54.3328 215.317 52.7144 212.817L51.3803 210.756L50.6195 213.264C49.522 216.881 46.5912 219.647 42.9163 220.533L42.9556 230.192C42.9692 235.269 48.4662 238.433 52.8626 235.894Z" fill="#EFDBFF"/>
<path opacity="0.8" d="M5.38885 325.988L100.007 271.3C102.862 269.651 106.431 271.712 106.431 275.009V301.517C106.431 304.565 104.805 307.381 102.165 308.905L6.8992 363.966C4.36056 365.432 1.18352 363.618 1.15506 360.687L0.893921 333.861C0.862747 330.618 2.58047 327.61 5.38885 325.988Z" fill="url(#paint40_linear_13_2632)"/>
<path d="M7.07171 345.152C7.07216 336.855 12.9514 326.671 20.1372 322.522C27.323 318.373 33.2023 321.767 33.2023 330.065C33.2023 338.363 27.3226 348.547 20.1368 352.696C12.9509 356.844 7.07171 353.45 7.07171 345.152Z" fill="url(#paint41_linear_13_2632)"/>
<path opacity="0.8" d="M16.9724 333.558C16.9724 330.875 18.874 327.581 21.1985 326.239C23.5226 324.897 25.4242 325.995 25.4242 328.678C25.4242 331.362 23.5226 334.656 21.1981 335.998C18.874 337.34 16.9724 336.242 16.9724 333.558Z" fill="url(#paint42_linear_13_2632)"/>
<path opacity="0.8" d="M13.8945 351.804L26.5724 344.484V341.392C26.5724 338.429 23.3646 336.577 20.798 338.058L19.8641 338.597C16.1698 340.73 13.8941 344.672 13.8941 348.938V351.804H13.8945Z" fill="url(#paint43_linear_13_2632)"/>
<path opacity="0.5" d="M99.7853 283.003L38.547 318.122C38.1648 318.341 37.929 318.749 37.929 319.189C37.929 320.135 38.9509 320.727 39.7709 320.257L101.009 285.138C101.391 284.919 101.627 284.512 101.627 284.071V284.07C101.627 283.125 100.605 282.533 99.7853 283.003Z" fill="url(#paint44_linear_13_2632)"/>
<path opacity="0.5" d="M99.7853 288.582L38.547 323.701C38.1648 323.92 37.929 324.327 37.929 324.768C37.929 325.713 38.9509 326.305 39.7709 325.835L101.009 290.717C101.391 290.498 101.627 290.091 101.627 289.65V289.648C101.627 288.704 100.605 288.112 99.7853 288.582Z" fill="url(#paint45_linear_13_2632)"/>
<path opacity="0.5" d="M99.7853 294.158L38.547 329.277C38.1648 329.496 37.929 329.903 37.929 330.344C37.929 331.289 38.9509 331.882 39.7709 331.411L101.009 296.293C101.391 296.074 101.627 295.667 101.627 295.226V295.225C101.627 294.28 100.605 293.688 99.7853 294.158Z" fill="url(#paint46_linear_13_2632)"/>
<path opacity="0.5" d="M99.7853 299.712L38.547 334.831C38.1648 335.05 37.929 335.457 37.929 335.898C37.929 336.843 38.9509 337.435 39.7709 336.965L101.009 301.847C101.391 301.628 101.627 301.221 101.627 300.78V300.778C101.627 299.834 100.605 299.241 99.7853 299.712Z" fill="url(#paint47_linear_13_2632)"/>
<path d="M243.807 245.843L244.661 243.745C244.7 243.652 244.763 243.564 244.836 243.5C244.91 243.437 244.988 243.403 245.054 243.405L246.882 243.498L249.704 233.485C249.853 232.899 250.146 232.293 250.54 231.756C250.935 231.219 251.41 230.778 251.899 230.496L267.516 221.48C268.766 220.758 269.876 220.985 270.262 222.046L272.951 228.451L274.782 226.246C274.848 226.167 274.926 226.111 274.999 226.089C275.073 226.068 275.136 226.083 275.174 226.132L276.029 227.24C276.108 227.342 276.061 227.555 275.924 227.719L273.747 230.341L274.27 231.591C274.313 231.69 274.335 231.809 274.335 231.941L274.335 245.443C274.335 246.052 273.909 246.79 273.387 247.092L270.95 248.499C270.507 248.754 270.121 248.617 270.028 248.167L269.75 246.865L250.086 258.218L249.808 259.84C249.711 260.4 249.329 260.982 248.886 261.238L246.449 262.644C245.927 262.946 245.501 262.699 245.501 262.09L245.501 248.588C245.501 248.456 245.523 248.312 245.566 248.163L246.089 246.31L243.915 246.2C243.85 246.197 243.802 246.158 243.782 246.091C243.762 246.024 243.771 245.935 243.807 245.843ZM268.856 239.431C269.653 238.972 270.298 237.905 270.298 237.048C270.298 236.191 269.653 235.869 268.856 236.329C268.06 236.789 267.415 237.856 267.415 238.713C267.415 239.57 268.06 239.891 268.856 239.431ZM254.872 250.414C254.872 250.584 255.002 250.649 255.16 250.557L264.675 245.064C264.834 244.972 264.964 244.758 264.964 244.587L264.964 241.33C264.964 241.159 264.834 241.094 264.675 241.186L263.234 242.018C263.075 242.11 262.945 242.324 262.945 242.495L262.945 243.891L256.89 247.387L256.89 245.991C256.89 245.82 256.761 245.756 256.602 245.847L255.16 246.68C255.002 246.771 254.872 246.986 254.872 247.156L254.872 250.414ZM250.98 249.753C251.776 249.293 252.421 248.226 252.421 247.369C252.421 246.512 251.776 246.19 250.98 246.65C250.183 247.11 249.538 248.177 249.538 249.034C249.538 249.891 250.183 250.212 250.98 249.753ZM270.442 230.644L267.822 224.405L267.804 224.365L267.789 224.323C267.75 224.218 267.642 224.195 267.516 224.268L252.104 233.166L249.387 242.8L270.442 230.644Z" fill="#F3F3F3"/>
<path fill-rule="evenodd" clip-rule="evenodd" d="M259.412 168.193L247.38 189.202L247.38 199.062C247.38 199.994 247.697 200.705 248.261 201.039C248.825 201.372 249.59 201.301 250.388 200.84L268.435 190.421C269.233 189.96 269.998 189.148 270.562 188.163C271.126 187.178 271.443 186.101 271.443 185.169L271.443 175.309L259.412 168.193ZM249.385 172.123L249.385 180.326L253.396 173.323L253.396 169.808C253.396 169.497 253.29 169.26 253.102 169.149C252.914 169.037 252.659 169.061 252.393 169.215L250.388 170.372C250.122 170.526 249.867 170.797 249.679 171.125C249.491 171.453 249.385 171.812 249.385 172.123Z" fill="#F3F3F3"/>
<path fill-rule="evenodd" clip-rule="evenodd" d="M260.829 163.173C260.452 162.951 259.943 162.998 259.411 163.305C258.879 163.612 258.369 164.154 257.993 164.81L244.664 188.082C244.476 188.41 244.37 188.77 244.37 189.081C244.37 189.392 244.476 189.63 244.664 189.741C244.852 189.852 245.108 189.829 245.374 189.675C245.64 189.521 245.896 189.25 246.084 188.921L259.411 165.648L272.738 173.533C272.926 173.644 273.181 173.62 273.448 173.467C273.714 173.313 273.969 173.042 274.157 172.713C274.346 172.384 274.451 172.025 274.451 171.714C274.451 171.402 274.346 171.165 274.157 171.054L260.829 163.173Z" fill="#F3F3F3"/>
<path d="M270.114 127.367C270.114 127.367 272.291 126.111 272.291 123.597C272.291 121.084 270.114 114.802 259.232 121.084C248.35 127.367 246.174 136.163 246.174 138.676C246.174 141.189 248.35 139.933 248.35 139.933L270.114 127.367ZM259.232 118.571C257.501 119.571 255.84 119.735 254.615 119.029C253.391 118.322 252.703 116.801 252.703 114.802C252.703 112.802 253.391 110.487 254.615 108.366C255.84 106.245 257.501 104.492 259.232 103.492C260.964 102.493 262.625 102.328 263.849 103.035C265.074 103.742 265.762 105.263 265.762 107.262C265.762 109.262 265.074 111.577 263.849 113.697C262.625 115.818 260.964 117.571 259.232 118.571Z" fill="#F3F3F3"/>
<path d="M100.372 117.974L97.3283 130.191L95.194 131.423L99.184 116.788L100.548 116L100.372 117.974ZM102.917 126.964L99.8588 118.27L99.6754 116.504L101.047 115.712L105.059 125.727L102.917 126.964ZM102.778 122.462L102.778 124.3L97.0496 127.607L97.0496 125.77L102.778 122.462ZM110.267 118.224L107.516 119.812L107.516 117.982L110.267 116.394C110.716 116.134 111.081 115.839 111.359 115.509C111.643 115.17 111.851 114.813 111.983 114.438C112.115 114.057 112.181 113.671 112.181 113.282C112.181 112.903 112.115 112.589 111.983 112.337C111.851 112.086 111.643 111.941 111.359 111.901C111.081 111.859 110.716 111.968 110.267 112.227L108.176 113.434L108.176 123.928L106.159 125.092L106.159 112.761L110.267 110.389C111.098 109.91 111.807 109.672 112.394 109.678C112.985 109.675 113.435 109.887 113.743 110.313C114.056 110.731 114.213 111.324 114.213 112.092C114.213 112.888 114.056 113.664 113.743 114.421C113.435 115.175 112.985 115.878 112.394 116.53C111.807 117.179 111.098 117.744 110.267 118.224ZM119.904 112.659L117.154 114.247L117.154 112.418L119.904 110.83C120.354 110.57 120.718 110.275 120.997 109.945C121.281 109.606 121.488 109.249 121.62 108.873C121.752 108.492 121.818 108.107 121.818 107.717C121.818 107.339 121.752 107.024 121.62 106.773C121.488 106.522 121.281 106.376 120.997 106.337C120.718 106.295 120.354 106.403 119.904 106.663L117.814 107.87L117.814 118.363L115.797 119.528L115.797 107.197L119.904 104.825C120.735 104.345 121.444 104.108 122.031 104.114C122.623 104.111 123.073 104.323 123.381 104.749C123.694 105.167 123.85 105.76 123.85 106.528C123.85 107.324 123.694 108.1 123.381 108.857C123.073 109.61 122.623 110.313 122.031 110.965C121.444 111.615 120.735 112.179 119.904 112.659ZM125.434 101.632L129.314 99.3922C130.126 98.9236 130.823 98.6624 131.405 98.6088C131.987 98.5551 132.434 98.7146 132.747 99.0873C133.06 99.4599 133.216 100.05 133.216 100.857C133.216 101.495 133.119 102.105 132.923 102.687C132.727 103.268 132.451 103.82 132.094 104.342C131.742 104.862 131.327 105.35 130.847 105.808L130.217 106.544L126.791 108.522L126.777 106.693L129.336 105.215C129.752 104.975 130.097 104.691 130.371 104.364C130.644 104.036 130.85 103.683 130.987 103.305C131.128 102.924 131.199 102.541 131.199 102.157C131.199 101.745 131.131 101.429 130.994 101.209C130.857 100.983 130.649 100.869 130.371 100.866C130.092 100.863 129.74 100.984 129.314 101.23L127.451 102.306L127.451 112.799L125.434 113.963L125.434 101.632ZM131.463 110.483L128.992 106.388L131.126 105.147L133.627 109.115L133.627 109.233L131.463 110.483ZM143.631 96.9785L143.631 97.6136C143.631 98.5453 143.524 99.4458 143.309 100.315C143.094 101.179 142.788 101.985 142.392 102.733C141.996 103.481 141.524 104.152 140.976 104.745C140.429 105.338 139.82 105.827 139.15 106.214C138.49 106.595 137.884 106.807 137.331 106.849C136.783 106.889 136.309 106.765 135.908 106.477C135.507 106.189 135.197 105.738 134.977 105.126C134.757 104.508 134.647 103.733 134.647 102.801L134.647 102.166C134.647 101.229 134.757 100.327 134.977 99.4599C135.197 98.5933 135.505 97.7859 135.901 97.0377C136.297 96.284 136.769 95.6107 137.316 95.0178C137.869 94.4222 138.475 93.9338 139.135 93.5526C139.805 93.1659 140.414 92.9527 140.962 92.9132C141.509 92.8737 141.981 93.0021 142.377 93.2986C142.778 93.5865 143.086 94.0382 143.301 94.6536C143.521 95.2663 143.631 96.0412 143.631 96.9785ZM141.592 98.7909L141.592 98.1387C141.592 97.4668 141.539 96.9079 141.431 96.4618C141.324 96.0101 141.165 95.67 140.954 95.4413C140.744 95.2126 140.485 95.0997 140.177 95.1025C139.869 95.0997 139.522 95.2098 139.135 95.4328C138.744 95.6587 138.397 95.9494 138.094 96.3051C137.796 96.6524 137.541 97.0617 137.331 97.5332C137.121 98.0046 136.959 98.5297 136.847 99.1085C136.739 99.6787 136.686 100.3 136.686 100.972L136.686 101.624C136.686 102.29 136.739 102.849 136.847 103.301C136.959 103.75 137.121 104.091 137.331 104.326C137.546 104.551 137.805 104.667 138.109 104.673C138.412 104.678 138.759 104.568 139.15 104.342C139.541 104.117 139.888 103.826 140.192 103.47C140.495 103.114 140.749 102.702 140.954 102.234C141.165 101.757 141.324 101.23 141.431 100.654C141.539 100.078 141.592 99.4571 141.592 98.7909ZM148.934 97.9821L151.597 86.5274L153.834 85.2359L150.064 99.7437L148.575 100.603L148.934 97.9821ZM146.477 89.4832L149.125 97.872L149.506 100.065L148.003 100.934L144.248 90.7705L146.477 89.4832ZM162.012 91.0161L162.012 92.8455L156.335 96.1231L156.335 94.2937L162.012 91.0161ZM156.951 83.4362L156.951 95.7674L154.934 96.9319L154.934 84.6007L156.951 83.4362ZM161.271 86.032L161.271 87.819L156.335 90.6689L156.335 88.8819L161.271 86.032ZM161.99 80.527L161.99 82.3648L156.335 85.6297L156.335 83.7919L161.99 80.527ZM166.603 90.1946L164.3 91.5243L164.315 89.6864L166.603 88.3652C167.224 88.0067 167.745 87.548 168.166 86.989C168.586 86.4244 168.904 85.7807 169.119 85.058C169.334 84.3297 169.442 83.5448 169.442 82.7036L169.442 82.0684C169.442 81.4191 169.381 80.8813 169.258 80.455C169.136 80.0287 168.955 79.7153 168.716 79.5149C168.481 79.3116 168.19 79.2227 167.843 79.2481C167.496 79.2735 167.097 79.4161 166.647 79.6758L164.256 81.0563L164.256 79.2185L166.647 77.838C167.361 77.4258 168.012 77.1887 168.598 77.1266C169.19 77.0616 169.701 77.1647 170.131 77.4357C170.566 77.6982 170.899 78.1217 171.129 78.7061C171.363 79.2876 171.481 80.0216 171.481 80.9081L171.481 81.5263C171.481 82.4071 171.363 83.2766 171.129 84.1349C170.899 84.9846 170.566 85.792 170.131 86.5571C169.701 87.3193 169.188 88.0109 168.591 88.632C167.994 89.2531 167.332 89.774 166.603 90.1946ZM165.43 78.5409L165.43 90.8721L163.413 92.0367L163.413 79.7055L165.43 78.5409Z" fill="white"/>
<defs>
<linearGradient id="paint0_linear_13_2632" x1="451.475" y1="392.227" x2="221.685" y2="392.227" gradientUnits="userSpaceOnUse">
<stop stop-color="#00ADFF"/>
<stop offset="0.4864" stop-color="#00A3F7"/>
<stop offset="1" stop-color="#1D9FE0"/>
</linearGradient>
<linearGradient id="paint1_linear_13_2632" x1="425.76" y1="232.838" x2="450.181" y2="381.899" gradientUnits="userSpaceOnUse">
<stop stop-color="#92D5F7"/>
<stop offset="1" stop-color="#59C2F7"/>
</linearGradient>
<linearGradient id="paint2_linear_13_2632" x1="413.722" y1="317.997" x2="422.198" y2="351.314" gradientUnits="userSpaceOnUse">
<stop stop-color="#FFBC00"/>
<stop offset="1" stop-color="#FFA000"/>
<stop offset="1" stop-color="#FFEBB3"/>
</linearGradient>
<linearGradient id="paint3_linear_13_2632" x1="404.099" y1="325.31" x2="412.576" y2="358.627" gradientUnits="userSpaceOnUse">
<stop stop-color="#FFBC00"/>
<stop offset="1" stop-color="#FFA000"/>
<stop offset="1" stop-color="#FFEBB3"/>
</linearGradient>
<linearGradient id="paint4_linear_13_2632" x1="394.367" y1="329.349" x2="405.497" y2="362.879" gradientUnits="userSpaceOnUse">
<stop stop-color="#FFBC00"/>
<stop offset="1" stop-color="#FFA000"/>
<stop offset="1" stop-color="#FFEBB3"/>
</linearGradient>
<linearGradient id="paint5_linear_13_2632" x1="408.91" y1="321.654" x2="417.388" y2="354.971" gradientUnits="userSpaceOnUse">
<stop stop-color="#FFBC00"/>
<stop offset="1" stop-color="#FFA000"/>
<stop offset="1" stop-color="#FFEBB3"/>
</linearGradient>
<linearGradient id="paint6_linear_13_2632" x1="417.06" y1="312.1" x2="428.191" y2="345.63" gradientUnits="userSpaceOnUse">
<stop stop-color="#FFBC00"/>
<stop offset="1" stop-color="#FFA000"/>
<stop offset="1" stop-color="#FFEBB3"/>
</linearGradient>
<linearGradient id="paint7_linear_13_2632" x1="401.776" y1="327.071" x2="410.257" y2="360.389" gradientUnits="userSpaceOnUse">
<stop stop-color="#FFBC00"/>
<stop offset="1" stop-color="#FFA000"/>
<stop offset="1" stop-color="#FFEBB3"/>
</linearGradient>
<linearGradient id="paint8_linear_13_2632" x1="410.242" y1="324.23" x2="416.656" y2="357.111" gradientUnits="userSpaceOnUse">
<stop stop-color="#FFBC00"/>
<stop offset="1" stop-color="#FFA000"/>
<stop offset="1" stop-color="#FFEBB3"/>
</linearGradient>
<linearGradient id="paint9_linear_13_2632" x1="416.034" y1="316.234" x2="424.515" y2="349.552" gradientUnits="userSpaceOnUse">
<stop stop-color="#FFBC00"/>
<stop offset="1" stop-color="#FFA000"/>
<stop offset="1" stop-color="#FFEBB3"/>
</linearGradient>
<linearGradient id="paint10_linear_13_2632" x1="414.883" y1="320.705" x2="421.297" y2="353.586" gradientUnits="userSpaceOnUse">
<stop stop-color="#FFBC00"/>
<stop offset="1" stop-color="#FFA000"/>
<stop offset="1" stop-color="#FFEBB3"/>
</linearGradient>
<linearGradient id="paint11_linear_13_2632" x1="344.107" y1="214.432" x2="338.041" y2="214.934" gradientUnits="userSpaceOnUse">
<stop stop-color="#C7FFF5"/>
<stop offset="1" stop-color="#77BBF7"/>
</linearGradient>
<linearGradient id="paint12_linear_13_2632" x1="348.926" y1="192.655" x2="348.926" y2="271.097" gradientUnits="userSpaceOnUse">
<stop stop-color="#C7FFF5"/>
<stop offset="0.3249" stop-color="#77BBF7"/>
<stop offset="1" stop-color="#3B8DEB"/>
</linearGradient>
<linearGradient id="paint13_linear_13_2632" x1="363.247" y1="230.871" x2="356.889" y2="231.66" gradientUnits="userSpaceOnUse">
<stop stop-color="#C7FFF5"/>
<stop offset="1" stop-color="#77BBF7"/>
</linearGradient>
<linearGradient id="paint14_linear_13_2632" x1="368.4" y1="215.78" x2="368.4" y2="279.863" gradientUnits="userSpaceOnUse">
<stop stop-color="#C7FFF5"/>
<stop offset="0.3249" stop-color="#77BBF7"/>
<stop offset="1" stop-color="#3B8DEB"/>
</linearGradient>
<linearGradient id="paint15_linear_13_2632" x1="326.292" y1="210.037" x2="319.934" y2="210.826" gradientUnits="userSpaceOnUse">
<stop stop-color="#C7FFF5"/>
<stop offset="1" stop-color="#77BBF7"/>
</linearGradient>
<linearGradient id="paint16_linear_13_2632" x1="331.442" y1="194.945" x2="331.442" y2="259.029" gradientUnits="userSpaceOnUse">
<stop stop-color="#C7FFF5"/>
<stop offset="0.3249" stop-color="#77BBF7"/>
<stop offset="1" stop-color="#3B8DEB"/>
</linearGradient>
<linearGradient id="paint17_linear_13_2632" x1="381.446" y1="250.819" x2="374.342" y2="252.43" gradientUnits="userSpaceOnUse">
<stop stop-color="#C7FFF5"/>
<stop offset="1" stop-color="#77BBF7"/>
</linearGradient>
<linearGradient id="paint18_linear_13_2632" x1="386.989" y1="241.968" x2="386.989" y2="289.35" gradientUnits="userSpaceOnUse">
<stop stop-color="#C7FFF5"/>
<stop offset="0.3249" stop-color="#77BBF7"/>
<stop offset="1" stop-color="#3B8DEB"/>
</linearGradient>
<linearGradient id="paint19_linear_13_2632" x1="263.557" y1="268.729" x2="130.713" y2="280.87" gradientUnits="userSpaceOnUse">
<stop stop-color="#1D1C1A"/>
<stop offset="0.2414" stop-color="#61605F"/>
<stop offset="0.6651" stop-color="#1D1C1A"/>
<stop offset="0.9245" stop-color="#807A72"/>
</linearGradient>
<linearGradient id="paint20_linear_13_2632" x1="177.882" y1="80.0421" x2="367.757" y2="259.925" gradientUnits="userSpaceOnUse">
<stop stop-color="#92D5F7"/>
<stop offset="1" stop-color="#4F39E3"/>
</linearGradient>
<linearGradient id="paint21_linear_13_2632" x1="19.1483" y1="-1045.33" x2="870.282" y2="-818.451" gradientUnits="userSpaceOnUse">
<stop stop-color="#F5F5F5"/>
<stop offset="1" stop-color="white"/>
</linearGradient>
<linearGradient id="paint22_linear_13_2632" x1="199.094" y1="87.7438" x2="350.943" y2="230.708" gradientUnits="userSpaceOnUse">
<stop offset="0.0078" stop-color="white"/>
<stop offset="0.1452" stop-color="#E8E7E7"/>
<stop offset="0.2793" stop-color="white"/>
<stop offset="0.8672" stop-color="#EDEDED"/>
<stop offset="0.9701" stop-color="#E6E6E6"/>
</linearGradient>
<linearGradient id="paint23_linear_13_2632" x1="283.536" y1="316.89" x2="318.598" y2="401.106" gradientUnits="userSpaceOnUse">
<stop offset="0.0078" stop-color="white"/>
<stop offset="0.1452" stop-color="#F2F1F1"/>
<stop offset="0.2793" stop-color="white"/>
<stop offset="0.7658" stop-color="#EDEDED"/>
<stop offset="0.8613" stop-color="#E6E6E6"/>
</linearGradient>
<linearGradient id="paint24_linear_13_2632" x1="308.438" y1="392" x2="322.134" y2="425.357" gradientUnits="userSpaceOnUse">
<stop offset="0.0078" stop-color="white"/>
<stop offset="0.7658" stop-color="#EDEDED"/>
<stop offset="0.8613" stop-color="#E6E6E6"/>
</linearGradient>
<linearGradient id="paint25_linear_13_2632" x1="172.368" y1="139.224" x2="79.7045" y2="139.224" gradientUnits="userSpaceOnUse">
<stop offset="0.0013" stop-color="#487FFF"/>
<stop offset="0.4515" stop-color="#2B49E0"/>
<stop offset="1" stop-color="#202FA3"/>
</linearGradient>
<linearGradient id="paint26_linear_13_2632" x1="176.286" y1="140.131" x2="84.6919" y2="140.131" gradientUnits="userSpaceOnUse">
<stop stop-color="#619FFF"/>
<stop offset="0.3878" stop-color="#4879F7"/>
<stop offset="1" stop-color="#304ED9"/>
</linearGradient>
<linearGradient id="paint27_linear_13_2632" x1="277.117" y1="99.162" x2="251.663" y2="148.871" gradientUnits="userSpaceOnUse">
<stop stop-color="#FFE148"/>
<stop offset="0.4515" stop-color="#CF8C29"/>
<stop offset="1" stop-color="#C48527"/>
</linearGradient>
<linearGradient id="paint28_linear_13_2632" x1="279.705" y1="97.1105" x2="265.441" y2="151.343" gradientUnits="userSpaceOnUse">
<stop stop-color="#FFF0C7"/>
<stop offset="0.3249" stop-color="#F7D377"/>
<stop offset="1" stop-color="#EBA43B"/>
</linearGradient>
<linearGradient id="paint29_linear_13_2632" x1="277.117" y1="159.334" x2="251.663" y2="209.043" gradientUnits="userSpaceOnUse">
<stop offset="0.0013" stop-color="#48E4FF"/>
<stop offset="0.4515" stop-color="#2B98E0"/>
<stop offset="1" stop-color="#2064A3"/>
</linearGradient>
<linearGradient id="paint30_linear_13_2632" x1="279.705" y1="157.282" x2="265.441" y2="211.514" gradientUnits="userSpaceOnUse">
<stop stop-color="#C7FFF5"/>
<stop offset="0.3249" stop-color="#77BBF7"/>
<stop offset="1" stop-color="#3B8DEB"/>
</linearGradient>
<linearGradient id="paint31_linear_13_2632" x1="277.117" y1="219.749" x2="251.663" y2="269.458" gradientUnits="userSpaceOnUse">
<stop offset="0.0013" stop-color="#AD91FF"/>
<stop offset="0.4515" stop-color="#7145E0"/>
<stop offset="1" stop-color="#4920A3"/>
</linearGradient>
<linearGradient id="paint32_linear_13_2632" x1="279.705" y1="217.698" x2="265.441" y2="271.93" gradientUnits="userSpaceOnUse">
<stop stop-color="#C7C8FF"/>
<stop offset="0.3249" stop-color="#A477F7"/>
<stop offset="1" stop-color="#763BEB"/>
</linearGradient>
<linearGradient id="paint33_linear_13_2632" x1="-4.91007" y1="242.869" x2="65.0925" y2="193.886" gradientUnits="userSpaceOnUse">
<stop stop-color="#C7C8FF"/>
<stop offset="0.3249" stop-color="#A477F7"/>
<stop offset="1" stop-color="#763BEB"/>
</linearGradient>
<linearGradient id="paint34_linear_13_2632" x1="5.73923" y1="247.051" x2="43.7043" y2="209.088" gradientUnits="userSpaceOnUse">
<stop stop-color="#C7FFF5"/>
<stop offset="0.3249" stop-color="#77BBF7"/>
<stop offset="1" stop-color="#3B8DEB"/>
</linearGradient>
<linearGradient id="paint35_linear_13_2632" x1="71.0805" y1="269.551" x2="72.1434" y2="282.092" gradientUnits="userSpaceOnUse">
<stop stop-color="#F6F6F6"/>
<stop offset="1" stop-color="#C9D6FF"/>
</linearGradient>
<linearGradient id="paint36_linear_13_2632" x1="64.4319" y1="269.879" x2="65.4945" y2="282.42" gradientUnits="userSpaceOnUse">
<stop stop-color="#F6F6F6"/>
<stop offset="1" stop-color="#C9D6FF"/>
</linearGradient>
<linearGradient id="paint37_linear_13_2632" x1="57.5277" y1="270.217" x2="58.5906" y2="282.759" gradientUnits="userSpaceOnUse">
<stop stop-color="#F6F6F6"/>
<stop offset="1" stop-color="#C9D6FF"/>
</linearGradient>
<linearGradient id="paint38_linear_13_2632" x1="52.0299" y1="270.489" x2="53.0928" y2="283.031" gradientUnits="userSpaceOnUse">
<stop stop-color="#F6F6F6"/>
<stop offset="1" stop-color="#C9D6FF"/>
</linearGradient>
<linearGradient id="paint39_linear_13_2632" x1="46.1225" y1="270.779" x2="47.1854" y2="283.32" gradientUnits="userSpaceOnUse">
<stop stop-color="#F6F6F6"/>
<stop offset="1" stop-color="#C9D6FF"/>
</linearGradient>
<linearGradient id="paint40_linear_13_2632" x1="-52.9355" y1="321.529" x2="36.7273" y2="215.596" gradientUnits="userSpaceOnUse">
<stop stop-color="#C7C8FF"/>
<stop offset="0.3249" stop-color="#A477F7"/>
<stop offset="1" stop-color="#763BEB"/>
</linearGradient>
<linearGradient id="paint41_linear_13_2632" x1="28.7442" y1="331.14" x2="31.7808" y2="354.268" gradientUnits="userSpaceOnUse">
<stop stop-color="#F6F6F6"/>
<stop offset="1" stop-color="#C9D6FF"/>
</linearGradient>
<linearGradient id="paint42_linear_13_2632" x1="32.0511" y1="328.797" x2="32.6051" y2="356.862" gradientUnits="userSpaceOnUse">
<stop stop-color="#C7C8FF"/>
<stop offset="0.3249" stop-color="#A477F7"/>
<stop offset="1" stop-color="#763BEB"/>
</linearGradient>
<linearGradient id="paint43_linear_13_2632" x1="32.5083" y1="329.793" x2="32.9298" y2="357.861" gradientUnits="userSpaceOnUse">
<stop stop-color="#C7C8FF"/>
<stop offset="0.3249" stop-color="#A477F7"/>
<stop offset="1" stop-color="#763BEB"/>
</linearGradient>
<linearGradient id="paint44_linear_13_2632" x1="47.749" y1="285.077" x2="53.8784" y2="293.88" gradientUnits="userSpaceOnUse">
<stop stop-color="#1D4891"/>
<stop offset="1" stop-color="white"/>
</linearGradient>
<linearGradient id="paint45_linear_13_2632" x1="43.8734" y1="288.718" x2="50.0028" y2="297.521" gradientUnits="userSpaceOnUse">
<stop stop-color="#1D4891"/>
<stop offset="1" stop-color="white"/>
</linearGradient>
<linearGradient id="paint46_linear_13_2632" x1="39.9977" y1="292.356" x2="46.1272" y2="301.16" gradientUnits="userSpaceOnUse">
<stop stop-color="#1D4891"/>
<stop offset="1" stop-color="white"/>
</linearGradient>
<linearGradient id="paint47_linear_13_2632" x1="39.9977" y1="297.91" x2="46.1271" y2="306.713" gradientUnits="userSpaceOnUse">
<stop stop-color="#1D4891"/>
<stop offset="1" stop-color="white"/>
</linearGradient>
</defs>
</svg>
