<svg width="202" height="173" viewBox="0 0 202 173" fill="none" xmlns="http://www.w3.org/2000/svg">
<g opacity="0.9">
<path d="M123.979 70.6242L106.719 100.532L123.979 130.44H158.501L175.763 100.532L158.501 70.6242H123.979Z" fill="url(#paint0_linear)"/>
<path d="M124.42 71.3833L107.598 100.531L124.42 129.679H158.064L174.887 100.531L158.064 71.3833H124.42Z" fill="url(#paint1_linear)"/>
<path d="M126.646 75.7506L112.146 100.873L126.646 125.996H155.645L170.144 100.873L155.645 75.7506H126.646Z" fill="url(#paint2_linear)"/>
<path d="M127.016 76.3893L112.885 100.874L127.016 125.358H155.277L169.407 100.874L155.277 76.3893H127.016Z" fill="url(#paint3_linear)"/>
<path d="M127.936 77.9858L114.727 100.874L127.936 123.762H154.355L167.565 100.874L154.355 77.9858H127.936Z" fill="url(#paint4_linear)"/>
<path d="M159.691 66.225H120.781C120.576 66.2244 120.389 66.3332 120.287 66.5099L100.832 100.219C100.73 100.395 100.73 100.613 100.832 100.789L120.287 134.497C120.445 134.77 120.793 134.863 121.066 134.706C121.339 134.549 121.431 134.2 121.275 133.928L101.984 100.504L121.11 67.365H159.691C160.006 67.365 160.26 67.11 160.26 66.7947C160.26 66.4806 160.006 66.225 159.692 66.225C159.691 66.225 159.691 66.225 159.691 66.225Z" fill="url(#paint5_linear)"/>
<path d="M40.0188 70.4669L22.7578 100.376L40.0188 130.283H74.5408L91.8018 100.376L74.5408 70.4669H40.0188Z" fill="url(#paint6_linear)"/>
<path d="M40.4595 71.2267L23.6367 100.375L40.4595 129.521H74.104L90.9268 100.375L74.104 71.2267H40.4595Z" fill="url(#paint7_linear)"/>
<path d="M42.683 75.5943L28.1836 100.718L42.683 125.84H71.6813L86.1813 100.718L71.6813 75.5943H42.683Z" fill="url(#paint8_linear)"/>
<path d="M43.0512 76.2319L28.9199 100.716L43.0512 125.198H71.3128L85.4435 100.716L71.3128 76.2319H43.0512Z" fill="url(#paint9_linear)"/>
<path d="M43.9734 123.604L30.7637 100.717L43.9734 77.8292H70.3922L83.6019 100.717L70.3922 123.604H43.9734Z" fill="url(#paint10_linear)"/>
<path d="M36.9547 134.498L17.5006 100.79C17.3985 100.614 17.398 100.396 17.5006 100.22L36.9553 66.5112C37.1126 66.2379 37.4608 66.1446 37.7334 66.302C38.0066 66.4599 38.0993 66.8077 37.9426 67.081L18.6524 100.505L37.7776 133.644H76.358C76.6726 133.644 76.9281 133.899 76.9276 134.212C76.9281 134.528 76.6726 134.784 76.358 134.784H37.4492C37.245 134.784 37.0568 134.674 36.9547 134.498Z" fill="url(#paint11_linear)"/>
<path d="M131.469 61.8516L140.689 45.8751L149.91 61.8516H131.469Z" fill="url(#paint12_linear)"/>
<path d="M48.1367 61.8506L57.3575 45.8741L66.5777 61.8506H48.1367Z" fill="url(#paint13_linear)"/>
<path d="M50.1122 16.1662L42.709 28.9937L50.1122 41.8203H64.9182L72.3214 28.9937L64.9182 16.1662H50.1122Z" fill="url(#paint14_linear)"/>
<path d="M133.276 16.1663L125.818 28.8687L133.276 41.5703H148.189L155.646 28.8687L148.189 16.1663H133.276Z" fill="url(#paint15_linear)"/>
<g clip-path="url(#clip0)">
<path d="M63.7485 24.6832H63.0541V23.9886C63.0539 23.8044 62.9807 23.6278 62.8505 23.4976C62.7203 23.3674 62.5438 23.2941 62.3597 23.2939H54.2257C54.0416 23.2941 53.8651 23.3674 53.7349 23.4976C53.6047 23.6278 53.5315 23.8044 53.5313 23.9886V24.6832H52.8369C52.6529 24.6834 52.4764 24.7566 52.3462 24.8869C52.216 25.0171 52.1428 25.1936 52.1426 25.3778V32.9194C52.1428 33.1036 52.216 33.2801 52.3462 33.4103C52.4764 33.5406 52.6529 33.6138 52.8369 33.614H56.6409L56.3576 34.6063H55.5152C55.4626 34.6063 55.4122 34.6272 55.3749 34.6645C55.3377 34.7017 55.3168 34.7522 55.3168 34.8048V35.4002C55.3168 35.4528 55.3377 35.5033 55.3749 35.5405C55.4122 35.5777 55.4626 35.5986 55.5152 35.5986H61.0702C61.1228 35.5986 61.1733 35.5777 61.2105 35.5405C61.2477 35.5033 61.2686 35.4528 61.2686 35.4002V34.8048C61.2686 34.7522 61.2477 34.7017 61.2105 34.6645C61.1733 34.6272 61.1228 34.6063 61.0702 34.6063H60.2278L59.9446 33.614H63.7485C63.9326 33.6138 64.1091 33.5406 64.2392 33.4103C64.3694 33.2801 64.4426 33.1036 64.4428 32.9194V25.3778C64.4426 25.1936 64.3694 25.0171 64.2392 24.8869C64.1091 24.7566 63.9326 24.6834 63.7485 24.6832ZM53.9281 23.9886C53.9282 23.9096 53.9595 23.834 54.0153 23.7781C54.0711 23.7223 54.1468 23.6909 54.2257 23.6909H62.3597C62.4386 23.6909 62.5143 23.7223 62.5701 23.7781C62.6259 23.834 62.6573 23.9096 62.6573 23.9886V30.9348C62.6573 31.0137 62.6259 31.0894 62.5701 31.1452C62.5143 31.201 62.4386 31.2324 62.3597 31.2325H54.2257C54.1468 31.2324 54.0711 31.201 54.0153 31.1452C53.9595 31.0894 53.9282 31.0137 53.9281 30.9348V23.9886ZM60.8718 35.0033V35.2017H55.7136V35.0033H60.8718ZM56.7703 34.6063L57.0535 33.614H59.5319L59.8151 34.6063H56.7703ZM64.0461 32.9194C64.046 32.9983 64.0146 33.074 63.9588 33.1298C63.903 33.1856 63.8274 33.217 63.7485 33.2171H52.8369C52.758 33.217 52.6824 33.1856 52.6266 33.1298C52.5708 33.074 52.5394 32.9983 52.5394 32.9194V32.4232H64.0461V32.9194ZM64.0461 32.0263H52.5394V25.3778C52.5394 25.2989 52.5708 25.2232 52.6266 25.1674C52.6824 25.1116 52.758 25.0802 52.8369 25.0801H53.5313V30.9348C53.5315 31.1189 53.6047 31.2955 53.7349 31.4257C53.8651 31.5559 54.0416 31.6292 54.2257 31.6294H62.3597C62.5438 31.6292 62.7203 31.5559 62.8505 31.4257C62.9807 31.2955 63.0539 31.1189 63.0541 30.9348V25.0801H63.7485C63.8274 25.0802 63.903 25.1116 63.9588 25.1674C64.0146 25.2232 64.046 25.2989 64.0461 25.3778V32.0263Z" fill="url(#paint16_linear)"/>
<path d="M60.0788 28.4541C60.5104 28.4541 60.9323 28.326 61.2912 28.0862C61.6501 27.8463 61.9298 27.5053 62.095 27.1064C62.2601 26.7075 62.3034 26.2686 62.2192 25.8451C62.135 25.4216 61.9271 25.0326 61.6219 24.7273C61.3167 24.422 60.9279 24.2141 60.5045 24.1298C60.0812 24.0456 59.6424 24.0888 59.2437 24.2541C58.8449 24.4193 58.5041 24.6991 58.2643 25.0581C58.0245 25.4171 57.8965 25.8392 57.8965 26.271C57.8971 26.8498 58.1273 27.4047 58.5364 27.8139C58.9455 28.2232 59.5002 28.4534 60.0788 28.4541ZM58.39 26.8497L60.0155 26.4883L61.1924 27.6657C60.9689 27.8446 60.7057 27.9672 60.425 28.0229C60.1442 28.0787 59.8542 28.066 59.5793 27.986C59.3045 27.906 59.053 27.7609 58.846 27.5632C58.639 27.3654 58.4826 27.1207 58.3901 26.8497H58.39ZM61.8643 26.271C61.8646 26.6761 61.7265 27.0691 61.473 27.385L60.2772 26.1888V24.4961C60.7134 24.5454 61.1162 24.7536 61.4089 25.0809C61.7016 25.4082 61.8637 25.8318 61.8643 26.271ZM59.8804 24.4961V26.1118L58.3036 26.4623C58.2528 25.9925 58.3902 25.5218 58.6858 25.1532C58.9814 24.7846 59.411 24.5483 59.8804 24.4961Z" fill="url(#paint17_linear)"/>
<path d="M62.0615 30.2399H59.0856V28.8506C59.0856 28.798 59.0647 28.7475 59.0275 28.7103C58.9903 28.6731 58.9398 28.6522 58.8872 28.6522H58.0937C58.041 28.6522 57.9906 28.6731 57.9534 28.7103C57.9162 28.7475 57.8953 28.798 57.8953 28.8506V30.2399H57.4985V28.0568C57.4985 28.0041 57.4776 27.9537 57.4404 27.9164C57.4032 27.8792 57.3527 27.8583 57.3001 27.8583H56.5065C56.4539 27.8583 56.4034 27.8792 56.3662 27.9164C56.329 27.9537 56.3081 28.0041 56.3081 28.0568V30.2399H55.9113V27.2629C55.9113 27.2103 55.8904 27.1598 55.8532 27.1226C55.816 27.0854 55.7656 27.0645 55.713 27.0645H54.9194C54.8668 27.0645 54.8163 27.0854 54.7791 27.1226C54.7419 27.1598 54.721 27.2103 54.721 27.2629V30.2399H54.5226C54.47 30.2399 54.4195 30.2608 54.3823 30.298C54.3451 30.3352 54.3242 30.3857 54.3242 30.4383C54.3242 30.491 54.3451 30.5414 54.3823 30.5787C54.4195 30.6159 54.47 30.6368 54.5226 30.6368H62.0615C62.1141 30.6368 62.1646 30.6159 62.2018 30.5787C62.239 30.5414 62.2599 30.491 62.2599 30.4383C62.2599 30.3857 62.239 30.3352 62.2018 30.298C62.1646 30.2608 62.1141 30.2399 62.0615 30.2399ZM55.5146 30.2399H55.1178V27.4614H55.5146V30.2399ZM57.1017 30.2399H56.7049V28.2552H57.1017V30.2399ZM58.6888 30.2399H58.292V29.0491H58.6888V30.2399Z" fill="url(#paint18_linear)"/>
<path d="M54.5226 25.0795H57.1017C57.1543 25.0795 57.2048 25.0586 57.242 25.0214C57.2792 24.9842 57.3001 24.9337 57.3001 24.8811C57.3001 24.8284 57.2792 24.778 57.242 24.7407C57.2048 24.7035 57.1543 24.6826 57.1017 24.6826H54.5226C54.47 24.6826 54.4195 24.7035 54.3823 24.7407C54.3451 24.778 54.3242 24.8284 54.3242 24.8811C54.3242 24.9337 54.3451 24.9842 54.3823 25.0214C54.4195 25.0586 54.47 25.0795 54.5226 25.0795Z" fill="url(#paint19_linear)"/>
<path d="M54.5226 24.4848H57.1017C57.1543 24.4848 57.2048 24.4639 57.242 24.4267C57.2792 24.3895 57.3001 24.339 57.3001 24.2864C57.3001 24.2337 57.2792 24.1832 57.242 24.146C57.2048 24.1088 57.1543 24.0879 57.1017 24.0879H54.5226C54.47 24.0879 54.4195 24.1088 54.3823 24.146C54.3451 24.1832 54.3242 24.2337 54.3242 24.2864C54.3242 24.339 54.3451 24.3895 54.3823 24.4267C54.4195 24.4639 54.47 24.4848 54.5226 24.4848Z" fill="url(#paint20_linear)"/>
<path d="M54.5226 25.6752H55.5146C55.5672 25.6752 55.6176 25.6543 55.6549 25.6171C55.6921 25.5799 55.713 25.5294 55.713 25.4768C55.713 25.4241 55.6921 25.3737 55.6549 25.3364C55.6176 25.2992 55.5672 25.2783 55.5146 25.2783H54.5226C54.47 25.2783 54.4195 25.2992 54.3823 25.3364C54.3451 25.3737 54.3242 25.4241 54.3242 25.4768C54.3242 25.5294 54.3451 25.5799 54.3823 25.6171C54.4195 25.6543 54.47 25.6752 54.5226 25.6752Z" fill="url(#paint21_linear)"/>
</g>
<path d="M137.799 21.2308C137.161 21.2308 136.65 21.7469 136.65 22.3799V35.0945C136.65 35.7279 137.161 36.2436 137.799 36.2436H143.447C144.08 36.2436 144.595 35.7279 144.595 35.0945V22.3799C144.595 21.7469 144.08 21.2308 143.447 21.2308H137.799ZM143.447 36.6846H137.799C136.921 36.6846 136.205 35.9727 136.205 35.0945V22.3799C136.205 21.5021 136.921 20.7855 137.799 20.7855H143.447C144.325 20.7855 145.036 21.5021 145.036 22.3799V35.0945C145.036 35.9727 144.325 36.6846 143.447 36.6846Z" fill="url(#paint22_linear)"/>
<path d="M137.28 34.1417H143.966V22.8568H137.28V34.1417ZM144.412 34.5879H136.834V22.4154H144.412V34.5879Z" fill="url(#paint23_linear)"/>
<path d="M140.62 35.0253C140.423 35.0253 140.261 35.186 140.261 35.3831C140.261 35.5845 140.423 35.7461 140.62 35.7461C140.821 35.7461 140.983 35.5845 140.983 35.3831C140.983 35.186 140.821 35.0253 140.62 35.0253ZM140.62 36.1914C140.178 36.1914 139.816 35.8289 139.816 35.3831C139.816 34.9411 140.178 34.5795 140.62 34.5795C141.065 34.5795 141.428 34.9411 141.428 35.3831C141.428 35.8289 141.065 36.1914 140.62 36.1914Z" fill="url(#paint24_linear)"/>
<path d="M138.05 25.8085H140.553V23.7333H138.05V25.8085ZM140.994 26.25H137.605V23.2871H140.994V26.25Z" fill="url(#paint25_linear)"/>
<path d="M143.451 23.7334H141.381C141.258 23.7334 141.162 23.6327 141.162 23.5099C141.162 23.388 141.258 23.2878 141.381 23.2878H143.451C143.573 23.2878 143.669 23.388 143.669 23.5099C143.669 23.6327 143.573 23.7334 143.451 23.7334Z" fill="url(#paint26_linear)"/>
<path d="M143.451 24.5732H141.381C141.258 24.5732 141.162 24.473 141.162 24.3506C141.162 24.2286 141.258 24.1284 141.381 24.1284H143.451C143.573 24.1284 143.669 24.2286 143.669 24.3506C143.669 24.473 143.573 24.5732 143.451 24.5732Z" fill="url(#paint27_linear)"/>
<path d="M143.451 25.4121H141.381C141.258 25.4121 141.162 25.3119 141.162 25.1895C141.162 25.0676 141.258 24.9712 141.381 24.9712H143.451C143.573 24.9712 143.669 25.0676 143.669 25.1895C143.669 25.3119 143.573 25.4121 143.451 25.4121Z" fill="url(#paint28_linear)"/>
<path d="M143.451 26.252H141.381C141.258 26.252 141.162 26.1513 141.162 26.0288C141.162 25.9064 141.258 25.81 141.381 25.81H143.451C143.573 25.81 143.669 25.9064 143.669 26.0288C143.669 26.1513 143.573 26.252 143.451 26.252Z" fill="url(#paint29_linear)"/>
<path d="M143.452 27.0898H137.783C137.661 27.0898 137.564 26.9939 137.564 26.8715C137.564 26.7491 137.661 26.6489 137.783 26.6489H143.452C143.575 26.6489 143.671 26.7491 143.671 26.8715C143.671 26.9939 143.575 27.0898 143.452 27.0898Z" fill="url(#paint30_linear)"/>
<path d="M143.452 27.9287H137.783C137.661 27.9287 137.564 27.8332 137.564 27.7103C137.564 27.5879 137.661 27.4867 137.783 27.4867H143.452C143.575 27.4867 143.671 27.5879 143.671 27.7103C143.671 27.8332 143.575 27.9287 143.452 27.9287Z" fill="url(#paint31_linear)"/>
<path d="M143.452 28.7715H137.783C137.661 28.7715 137.564 28.6708 137.564 28.5475C137.564 28.4265 137.661 28.3253 137.783 28.3253H143.452C143.575 28.3253 143.671 28.4265 143.671 28.5475C143.671 28.6708 143.575 28.7715 143.452 28.7715Z" fill="url(#paint32_linear)"/>
<path d="M143.452 29.6113H137.783C137.661 29.6113 137.564 29.5102 137.564 29.3877C137.564 29.2658 137.661 29.1655 137.783 29.1655H143.452C143.575 29.1655 143.671 29.2658 143.671 29.3877C143.671 29.5102 143.575 29.6113 143.452 29.6113Z" fill="url(#paint33_linear)"/>
<path d="M143.452 30.4492H137.783C137.661 30.4492 137.564 30.3495 137.564 30.2266C137.564 30.1046 137.661 30.0034 137.783 30.0034H143.452C143.575 30.0034 143.671 30.1046 143.671 30.2266C143.671 30.3495 143.575 30.4492 143.452 30.4492Z" fill="url(#paint34_linear)"/>
<path d="M143.452 31.29H137.783C137.661 31.29 137.564 31.1894 137.564 31.066C137.564 30.944 137.661 30.8485 137.783 30.8485H143.452C143.575 30.8485 143.671 30.944 143.671 31.066C143.671 31.1894 143.575 31.29 143.452 31.29Z" fill="url(#paint35_linear)"/>
<path d="M143.452 32.127H137.783C137.661 32.127 137.564 32.031 137.564 31.9086C137.564 31.7814 137.661 31.685 137.783 31.685H143.452C143.575 31.685 143.671 31.7814 143.671 31.9086C143.671 32.031 143.575 32.127 143.452 32.127Z" fill="url(#paint36_linear)"/>
<path d="M143.452 32.9668H137.783C137.661 32.9668 137.564 32.8708 137.564 32.7484C137.564 32.626 137.661 32.5258 137.783 32.5258H143.452C143.575 32.5258 143.671 32.626 143.671 32.7484C143.671 32.8708 143.575 32.9668 143.452 32.9668Z" fill="url(#paint37_linear)"/>
<path d="M143.452 33.8057H137.783C137.661 33.8057 137.564 33.7092 137.564 33.5868C137.564 33.4644 137.661 33.3642 137.783 33.3642H143.452C143.575 33.3642 143.671 33.4644 143.671 33.5868C143.671 33.7092 143.575 33.8057 143.452 33.8057Z" fill="url(#paint38_linear)"/>
<path d="M48.6771 97.0162L46.8451 102.616H45.4531L44.2211 98.8242L42.9491 102.616H41.5651L39.7251 97.0162H41.0691L42.3331 100.952L43.6531 97.0162H44.8531L46.1331 100.984L47.4371 97.0162H48.6771ZM53.2082 100.48C53.2082 100.496 53.2002 100.608 53.1842 100.816H49.9282C49.9869 101.083 50.1256 101.294 50.3442 101.448C50.5629 101.603 50.8349 101.68 51.1602 101.68C51.3842 101.68 51.5816 101.648 51.7522 101.584C51.9282 101.515 52.0909 101.408 52.2402 101.264L52.9042 101.984C52.4989 102.448 51.9069 102.68 51.1282 102.68C50.6429 102.68 50.2136 102.587 49.8402 102.4C49.4669 102.208 49.1789 101.944 48.9762 101.608C48.7736 101.272 48.6722 100.891 48.6722 100.464C48.6722 100.043 48.7709 99.6642 48.9682 99.3282C49.1709 98.9869 49.4456 98.7229 49.7922 98.5362C50.1442 98.3442 50.5362 98.2482 50.9682 98.2482C51.3896 98.2482 51.7709 98.3389 52.1122 98.5202C52.4536 98.7015 52.7202 98.9629 52.9122 99.3042C53.1096 99.6402 53.2082 100.032 53.2082 100.48ZM50.9762 99.1922C50.6936 99.1922 50.4562 99.2722 50.2642 99.4322C50.0722 99.5922 49.9549 99.8109 49.9122 100.088H52.0322C51.9896 99.8162 51.8722 99.6002 51.6802 99.4402C51.4882 99.2749 51.2536 99.1922 50.9762 99.1922ZM56.5831 98.2482C56.9831 98.2482 57.3458 98.3415 57.6711 98.5282C58.0018 98.7095 58.2604 98.9682 58.4471 99.3042C58.6338 99.6349 58.7271 100.022 58.7271 100.464C58.7271 100.907 58.6338 101.296 58.4471 101.632C58.2604 101.963 58.0018 102.222 57.6711 102.408C57.3458 102.59 56.9831 102.68 56.5831 102.68C55.9911 102.68 55.5404 102.494 55.2311 102.12V102.616H54.0391V96.6802H55.2871V98.7682C55.6018 98.4215 56.0338 98.2482 56.5831 98.2482ZM56.3671 101.656C56.6871 101.656 56.9484 101.55 57.1511 101.336C57.3591 101.118 57.4631 100.827 57.4631 100.464C57.4631 100.102 57.3591 99.8135 57.1511 99.6002C56.9484 99.3815 56.6871 99.2722 56.3671 99.2722C56.0471 99.2722 55.7831 99.3815 55.5751 99.6002C55.3724 99.8135 55.2711 100.102 55.2711 100.464C55.2711 100.827 55.3724 101.118 55.5751 101.336C55.7831 101.55 56.0471 101.656 56.3671 101.656ZM61.0105 102.68C60.6532 102.68 60.3039 102.638 59.9625 102.552C59.6212 102.462 59.3492 102.35 59.1465 102.216L59.5625 101.32C59.7545 101.443 59.9865 101.544 60.2585 101.624C60.5305 101.699 60.7972 101.736 61.0585 101.736C61.5865 101.736 61.8505 101.606 61.8505 101.344C61.8505 101.222 61.7785 101.134 61.6345 101.08C61.4905 101.027 61.2692 100.982 60.9705 100.944C60.6185 100.891 60.3279 100.83 60.0985 100.76C59.8692 100.691 59.6692 100.568 59.4985 100.392C59.3332 100.216 59.2505 99.9655 59.2505 99.6402C59.2505 99.3682 59.3279 99.1282 59.4825 98.9202C59.6425 98.7069 59.8719 98.5415 60.1705 98.4242C60.4745 98.3069 60.8319 98.2482 61.2425 98.2482C61.5465 98.2482 61.8479 98.2829 62.1465 98.3522C62.4505 98.4162 62.7012 98.5069 62.8985 98.6242L62.4825 99.5122C62.1039 99.2989 61.6905 99.1922 61.2425 99.1922C60.9759 99.1922 60.7759 99.2295 60.6425 99.3042C60.5092 99.3789 60.4425 99.4749 60.4425 99.5922C60.4425 99.7255 60.5145 99.8189 60.6585 99.8722C60.8025 99.9255 61.0319 99.9762 61.3465 100.024C61.6985 100.083 61.9865 100.147 62.2105 100.216C62.4345 100.28 62.6292 100.4 62.7945 100.576C62.9599 100.752 63.0425 100.998 63.0425 101.312C63.0425 101.579 62.9625 101.816 62.8025 102.024C62.6425 102.232 62.4079 102.395 62.0985 102.512C61.7945 102.624 61.4319 102.68 61.0105 102.68ZM63.8125 98.3122H65.0605V102.616H63.8125V98.3122ZM64.4365 97.7122C64.2072 97.7122 64.0205 97.6455 63.8765 97.5122C63.7325 97.3789 63.6605 97.2135 63.6605 97.0162C63.6605 96.8189 63.7325 96.6535 63.8765 96.5202C64.0205 96.3869 64.2072 96.3202 64.4365 96.3202C64.6659 96.3202 64.8525 96.3842 64.9965 96.5122C65.1405 96.6402 65.2125 96.8002 65.2125 96.9922C65.2125 97.2002 65.1405 97.3735 64.9965 97.5122C64.8525 97.6455 64.6659 97.7122 64.4365 97.7122ZM68.9948 102.408C68.8721 102.499 68.7201 102.568 68.5388 102.616C68.3628 102.659 68.1761 102.68 67.9788 102.68C67.4668 102.68 67.0695 102.55 66.7868 102.288C66.5095 102.027 66.3708 101.643 66.3708 101.136V99.3682H65.7068V98.4082H66.3708V97.3602H67.6188V98.4082H68.6908V99.3682H67.6188V101.12C67.6188 101.302 67.6641 101.443 67.7548 101.544C67.8508 101.64 67.9841 101.688 68.1548 101.688C68.3521 101.688 68.5201 101.635 68.6588 101.528L68.9948 102.408ZM73.7785 100.48C73.7785 100.496 73.7705 100.608 73.7545 100.816H70.4985C70.5572 101.083 70.6959 101.294 70.9145 101.448C71.1332 101.603 71.4052 101.68 71.7305 101.68C71.9545 101.68 72.1519 101.648 72.3225 101.584C72.4985 101.515 72.6612 101.408 72.8105 101.264L73.4745 101.984C73.0692 102.448 72.4772 102.68 71.6985 102.68C71.2132 102.68 70.7839 102.587 70.4105 102.4C70.0372 102.208 69.7492 101.944 69.5465 101.608C69.3439 101.272 69.2425 100.891 69.2425 100.464C69.2425 100.043 69.3412 99.6642 69.5385 99.3282C69.7412 98.9869 70.0159 98.7229 70.3625 98.5362C70.7145 98.3442 71.1065 98.2482 71.5385 98.2482C71.9599 98.2482 72.3412 98.3389 72.6825 98.5202C73.0239 98.7015 73.2905 98.9629 73.4825 99.3042C73.6799 99.6402 73.7785 100.032 73.7785 100.48ZM71.5465 99.1922C71.2639 99.1922 71.0265 99.2722 70.8345 99.4322C70.6425 99.5922 70.5252 99.8109 70.4825 100.088H72.6025C72.5599 99.8162 72.4425 99.6002 72.2505 99.4402C72.0585 99.2749 71.8239 99.1922 71.5465 99.1922Z" fill="#DCEAFF"/>
<path d="M132.317 102.896L132.309 99.5365L130.661 102.304H130.077L128.437 99.6085V102.896H127.221V97.2965H128.293L130.389 100.776L132.453 97.2965H133.517L133.533 102.896H132.317ZM136.821 102.96C136.368 102.96 135.96 102.867 135.597 102.68C135.24 102.488 134.96 102.224 134.757 101.888C134.555 101.552 134.453 101.171 134.453 100.744C134.453 100.318 134.555 99.9365 134.757 99.6005C134.96 99.2645 135.24 99.0032 135.597 98.8165C135.96 98.6245 136.368 98.5285 136.821 98.5285C137.275 98.5285 137.68 98.6245 138.037 98.8165C138.395 99.0032 138.675 99.2645 138.877 99.6005C139.08 99.9365 139.181 100.318 139.181 100.744C139.181 101.171 139.08 101.552 138.877 101.888C138.675 102.224 138.395 102.488 138.037 102.68C137.68 102.867 137.275 102.96 136.821 102.96ZM136.821 101.936C137.141 101.936 137.403 101.83 137.605 101.616C137.813 101.398 137.917 101.107 137.917 100.744C137.917 100.382 137.813 100.094 137.605 99.8805C137.403 99.6618 137.141 99.5525 136.821 99.5525C136.501 99.5525 136.237 99.6618 136.029 99.8805C135.821 100.094 135.717 100.382 135.717 100.744C135.717 101.107 135.821 101.398 136.029 101.616C136.237 101.83 136.501 101.936 136.821 101.936ZM142.56 98.5285C142.96 98.5285 143.322 98.6218 143.648 98.8085C143.978 98.9898 144.237 99.2485 144.424 99.5845C144.61 99.9152 144.704 100.302 144.704 100.744C144.704 101.187 144.61 101.576 144.424 101.912C144.237 102.243 143.978 102.502 143.648 102.688C143.322 102.87 142.96 102.96 142.56 102.96C141.968 102.96 141.517 102.774 141.208 102.4V102.896H140.016V96.9605H141.264V99.0485C141.578 98.7018 142.01 98.5285 142.56 98.5285ZM142.344 101.936C142.664 101.936 142.925 101.83 143.128 101.616C143.336 101.398 143.44 101.107 143.44 100.744C143.44 100.382 143.336 100.094 143.128 99.8805C142.925 99.6618 142.664 99.5525 142.344 99.5525C142.024 99.5525 141.76 99.6618 141.552 99.8805C141.349 100.094 141.248 100.382 141.248 100.744C141.248 101.107 141.349 101.398 141.552 101.616C141.76 101.83 142.024 101.936 142.344 101.936ZM145.539 98.5925H146.787V102.896H145.539V98.5925ZM146.163 97.9925C145.934 97.9925 145.747 97.9258 145.603 97.7925C145.459 97.6592 145.387 97.4938 145.387 97.2965C145.387 97.0992 145.459 96.9338 145.603 96.8005C145.747 96.6672 145.934 96.6005 146.163 96.6005C146.392 96.6005 146.579 96.6645 146.723 96.7925C146.867 96.9205 146.939 97.0805 146.939 97.2725C146.939 97.4805 146.867 97.6538 146.723 97.7925C146.579 97.9258 146.392 97.9925 146.163 97.9925ZM147.945 96.9605H149.193V102.896H147.945V96.9605ZM154.568 100.76C154.568 100.776 154.56 100.888 154.544 101.096H151.288C151.346 101.363 151.485 101.574 151.704 101.728C151.922 101.883 152.194 101.96 152.52 101.96C152.744 101.96 152.941 101.928 153.112 101.864C153.288 101.795 153.45 101.688 153.6 101.544L154.264 102.264C153.858 102.728 153.266 102.96 152.488 102.96C152.002 102.96 151.573 102.867 151.2 102.68C150.826 102.488 150.538 102.224 150.336 101.888C150.133 101.552 150.032 101.171 150.032 100.744C150.032 100.323 150.13 99.9445 150.328 99.6085C150.53 99.2672 150.805 99.0032 151.152 98.8165C151.504 98.6245 151.896 98.5285 152.328 98.5285C152.749 98.5285 153.13 98.6192 153.472 98.8005C153.813 98.9818 154.08 99.2432 154.272 99.5845C154.469 99.9205 154.568 100.312 154.568 100.76ZM152.336 99.4725C152.053 99.4725 151.816 99.5525 151.624 99.7125C151.432 99.8725 151.314 100.091 151.272 100.368H153.392C153.349 100.096 153.232 99.8805 153.04 99.7205C152.848 99.5552 152.613 99.4725 152.336 99.4725Z" fill="#DCEAFF"/>
</g>
<path d="M71.8028 145.933C72.6088 145.933 73.3065 146.068 73.8958 146.336C74.4938 146.605 74.9531 146.986 75.2738 147.48C75.5945 147.974 75.7548 148.559 75.7548 149.235C75.7548 149.903 75.5945 150.488 75.2738 150.99C74.9531 151.484 74.4938 151.866 73.8958 152.134C73.3065 152.394 72.6088 152.524 71.8028 152.524H69.9698V155.033H67.8638V145.933H71.8028ZM71.6858 150.808C72.3185 150.808 72.7995 150.674 73.1288 150.405C73.4581 150.128 73.6228 149.738 73.6228 149.235C73.6228 148.724 73.4581 148.334 73.1288 148.065C72.7995 147.788 72.3185 147.649 71.6858 147.649H69.9698V150.808H71.6858ZM77.2423 145.387H79.2703V155.033H77.2423V145.387ZM83.9734 147.935C85.0568 147.935 85.8888 148.195 86.4694 148.715C87.0501 149.227 87.3404 150.002 87.3404 151.042V155.033H85.4424V154.162C85.0611 154.812 84.3504 155.137 83.3104 155.137C82.7731 155.137 82.3051 155.046 81.9064 154.864C81.5164 154.682 81.2174 154.431 81.0094 154.11C80.8014 153.79 80.6974 153.426 80.6974 153.018C80.6974 152.368 80.9401 151.857 81.4254 151.484C81.9194 151.112 82.6778 150.925 83.7004 150.925H85.3124C85.3124 150.483 85.1781 150.145 84.9094 149.911C84.6408 149.669 84.2378 149.547 83.7004 149.547C83.3278 149.547 82.9594 149.608 82.5954 149.729C82.2401 149.842 81.9368 149.998 81.6854 150.197L80.9574 148.78C81.3388 148.512 81.7938 148.304 82.3224 148.156C82.8598 148.009 83.4101 147.935 83.9734 147.935ZM83.8174 153.772C84.1641 153.772 84.4718 153.694 84.7404 153.538C85.0091 153.374 85.1998 153.135 85.3124 152.823V152.108H83.9214C83.0894 152.108 82.6734 152.381 82.6734 152.927C82.6734 153.187 82.7731 153.395 82.9724 153.551C83.1804 153.699 83.4621 153.772 83.8174 153.772ZM93.6869 154.695C93.4875 154.843 93.2405 154.955 92.9459 155.033C92.6599 155.103 92.3565 155.137 92.0359 155.137C91.2039 155.137 90.5582 154.925 90.0989 154.5C89.6482 154.076 89.4229 153.452 89.4229 152.628V149.755H88.3439V148.195H89.4229V146.492H91.4509V148.195H93.1929V149.755H91.4509V152.602C91.4509 152.897 91.5245 153.127 91.6719 153.291C91.8279 153.447 92.0445 153.525 92.3219 153.525C92.6425 153.525 92.9155 153.439 93.1409 153.265L93.6869 154.695ZM97.0483 148.195H98.8423V149.755H97.1003V155.033H95.0723V149.755H93.9933V148.195H95.0723V147.883C95.0723 147.086 95.3063 146.453 95.7743 145.985C96.2509 145.517 96.9183 145.283 97.7763 145.283C98.0796 145.283 98.3656 145.318 98.6343 145.387C98.9116 145.448 99.1413 145.539 99.3233 145.66L98.7903 147.129C98.5563 146.965 98.2833 146.882 97.9713 146.882C97.3559 146.882 97.0483 147.22 97.0483 147.896V148.195ZM103.092 155.137C102.355 155.137 101.692 154.986 101.103 154.682C100.522 154.37 100.067 153.941 99.7378 153.395C99.4084 152.849 99.2438 152.23 99.2438 151.536C99.2438 150.843 99.4084 150.223 99.7378 149.677C100.067 149.131 100.522 148.707 101.103 148.403C101.692 148.091 102.355 147.935 103.092 147.935C103.828 147.935 104.487 148.091 105.068 148.403C105.648 148.707 106.103 149.131 106.433 149.677C106.762 150.223 106.927 150.843 106.927 151.536C106.927 152.23 106.762 152.849 106.433 153.395C106.103 153.941 105.648 154.37 105.068 154.682C104.487 154.986 103.828 155.137 103.092 155.137ZM103.092 153.473C103.612 153.473 104.036 153.3 104.366 152.953C104.704 152.598 104.873 152.126 104.873 151.536C104.873 150.947 104.704 150.479 104.366 150.132C104.036 149.777 103.612 149.599 103.092 149.599C102.572 149.599 102.143 149.777 101.805 150.132C101.467 150.479 101.298 150.947 101.298 151.536C101.298 152.126 101.467 152.598 101.805 152.953C102.143 153.3 102.572 153.473 103.092 153.473ZM110.219 148.962C110.462 148.624 110.787 148.369 111.194 148.195C111.61 148.022 112.087 147.935 112.624 147.935V149.807C112.399 149.79 112.247 149.781 112.169 149.781C111.589 149.781 111.134 149.946 110.804 150.275C110.475 150.596 110.31 151.081 110.31 151.731V155.033H108.282V148.039H110.219V148.962ZM122.787 147.935C123.662 147.935 124.356 148.195 124.867 148.715C125.387 149.227 125.647 149.998 125.647 151.029V155.033H123.619V151.341C123.619 150.787 123.502 150.375 123.268 150.106C123.043 149.829 122.718 149.69 122.293 149.69C121.816 149.69 121.439 149.846 121.162 150.158C120.885 150.462 120.746 150.917 120.746 151.523V155.033H118.718V151.341C118.718 150.241 118.276 149.69 117.392 149.69C116.924 149.69 116.551 149.846 116.274 150.158C115.997 150.462 115.858 150.917 115.858 151.523V155.033H113.83V148.039H115.767V148.845C116.027 148.551 116.343 148.325 116.716 148.169C117.097 148.013 117.513 147.935 117.964 147.935C118.458 147.935 118.904 148.035 119.303 148.234C119.702 148.425 120.022 148.707 120.265 149.079C120.551 148.715 120.911 148.434 121.344 148.234C121.786 148.035 122.267 147.935 122.787 147.935ZM129.818 155.137C129.237 155.137 128.67 155.068 128.115 154.929C127.56 154.782 127.118 154.6 126.789 154.383L127.465 152.927C127.777 153.127 128.154 153.291 128.596 153.421C129.038 153.543 129.471 153.603 129.896 153.603C130.754 153.603 131.183 153.391 131.183 152.966C131.183 152.767 131.066 152.624 130.832 152.537C130.598 152.451 130.238 152.377 129.753 152.316C129.181 152.23 128.709 152.13 128.336 152.017C127.963 151.905 127.638 151.705 127.361 151.419C127.092 151.133 126.958 150.726 126.958 150.197C126.958 149.755 127.084 149.365 127.335 149.027C127.595 148.681 127.968 148.412 128.453 148.221C128.947 148.031 129.528 147.935 130.195 147.935C130.689 147.935 131.179 147.992 131.664 148.104C132.158 148.208 132.565 148.356 132.886 148.546L132.21 149.989C131.595 149.643 130.923 149.469 130.195 149.469C129.762 149.469 129.437 149.53 129.22 149.651C129.003 149.773 128.895 149.929 128.895 150.119C128.895 150.336 129.012 150.488 129.246 150.574C129.48 150.661 129.853 150.743 130.364 150.821C130.936 150.917 131.404 151.021 131.768 151.133C132.132 151.237 132.448 151.432 132.717 151.718C132.986 152.004 133.12 152.403 133.12 152.914C133.12 153.348 132.99 153.733 132.73 154.071C132.47 154.409 132.089 154.674 131.586 154.864C131.092 155.046 130.503 155.137 129.818 155.137Z" fill="#DCEAFF"/>
<defs>
<linearGradient id="paint0_linear" x1="118.535" y1="80.4145" x2="164.036" y2="120.7" gradientUnits="userSpaceOnUse">
<stop stop-color="white"/>
<stop offset="1" stop-color="#F2F2F2"/>
</linearGradient>
<linearGradient id="paint1_linear" x1="125.384" y1="147.907" x2="218.944" y2="61.4716" gradientUnits="userSpaceOnUse">
<stop stop-color="#115ED5"/>
<stop offset="1" stop-color="#3FD9E3"/>
</linearGradient>
<linearGradient id="paint2_linear" x1="122.073" y1="83.9742" x2="160.293" y2="117.814" gradientUnits="userSpaceOnUse">
<stop stop-color="white"/>
<stop offset="1" stop-color="#F2F2F2"/>
</linearGradient>
<linearGradient id="paint3_linear" x1="122.559" y1="84.4047" x2="159.807" y2="117.384" gradientUnits="userSpaceOnUse">
<stop stop-color="#F2F2F2"/>
<stop offset="1" stop-color="white"/>
</linearGradient>
<linearGradient id="paint4_linear" x1="128.693" y1="138.075" x2="202.16" y2="70.2031" gradientUnits="userSpaceOnUse">
<stop stop-color="#115ED5"/>
<stop offset="1" stop-color="#3FD9E3"/>
</linearGradient>
<linearGradient id="paint5_linear" x1="116.485" y1="156.22" x2="219.919" y2="84.3654" gradientUnits="userSpaceOnUse">
<stop stop-color="#115ED5"/>
<stop offset="1" stop-color="#3FD9E3"/>
</linearGradient>
<linearGradient id="paint6_linear" x1="34.5752" y1="80.2576" x2="80.075" y2="120.543" gradientUnits="userSpaceOnUse">
<stop stop-color="white"/>
<stop offset="1" stop-color="#F2F2F2"/>
</linearGradient>
<linearGradient id="paint7_linear" x1="41.4236" y1="147.75" x2="134.982" y2="61.3133" gradientUnits="userSpaceOnUse">
<stop stop-color="#115ED5"/>
<stop offset="1" stop-color="#3FD9E3"/>
</linearGradient>
<linearGradient id="paint8_linear" x1="38.1098" y1="83.8181" x2="76.3297" y2="117.658" gradientUnits="userSpaceOnUse">
<stop stop-color="white"/>
<stop offset="1" stop-color="#F2F2F2"/>
</linearGradient>
<linearGradient id="paint9_linear" x1="38.5947" y1="84.2461" x2="75.8425" y2="117.225" gradientUnits="userSpaceOnUse">
<stop stop-color="#F2F2F2"/>
<stop offset="1" stop-color="white"/>
</linearGradient>
<linearGradient id="paint10_linear" x1="44.7305" y1="137.918" x2="118.196" y2="70.0456" gradientUnits="userSpaceOnUse">
<stop stop-color="#115ED5"/>
<stop offset="1" stop-color="#3FD9E3"/>
</linearGradient>
<linearGradient id="paint11_linear" x1="33.1525" y1="156.222" x2="136.588" y2="84.3692" gradientUnits="userSpaceOnUse">
<stop stop-color="#115ED5"/>
<stop offset="1" stop-color="#3FD9E3"/>
</linearGradient>
<linearGradient id="paint12_linear" x1="136.343" y1="66.8473" x2="161.984" y2="43.1588" gradientUnits="userSpaceOnUse">
<stop stop-color="#115ED5"/>
<stop offset="1" stop-color="#3FD9E3"/>
</linearGradient>
<linearGradient id="paint13_linear" x1="53.0112" y1="66.8463" x2="78.6521" y2="43.1583" gradientUnits="userSpaceOnUse">
<stop stop-color="#115ED5"/>
<stop offset="1" stop-color="#3FD9E3"/>
</linearGradient>
<linearGradient id="paint14_linear" x1="47.7774" y1="20.3651" x2="67.2918" y2="37.643" gradientUnits="userSpaceOnUse">
<stop stop-color="white"/>
<stop offset="1" stop-color="#F2F2F2"/>
</linearGradient>
<linearGradient id="paint15_linear" x1="130.924" y1="20.3242" x2="150.285" y2="37.7607" gradientUnits="userSpaceOnUse">
<stop stop-color="white"/>
<stop offset="1" stop-color="#F2F2F2"/>
</linearGradient>
<linearGradient id="paint16_linear" x1="55.3939" y1="19.4464" x2="74.7212" y2="34.9098" gradientUnits="userSpaceOnUse">
<stop stop-color="#115ED5"/>
<stop offset="1" stop-color="#3FD9E3"/>
</linearGradient>
<linearGradient id="paint17_linear" x1="59.0502" y1="22.7226" x2="65.9082" y2="28.2097" gradientUnits="userSpaceOnUse">
<stop stop-color="#115ED5"/>
<stop offset="1" stop-color="#3FD9E3"/>
</linearGradient>
<linearGradient id="paint18_linear" x1="56.4219" y1="25.9474" x2="61.3366" y2="34.6857" gradientUnits="userSpaceOnUse">
<stop stop-color="#115ED5"/>
<stop offset="1" stop-color="#3FD9E3"/>
</linearGradient>
<linearGradient id="paint19_linear" x1="55.1108" y1="24.5585" x2="55.3181" y2="25.802" gradientUnits="userSpaceOnUse">
<stop stop-color="#115ED5"/>
<stop offset="1" stop-color="#3FD9E3"/>
</linearGradient>
<linearGradient id="paint20_linear" x1="55.1108" y1="23.9638" x2="55.3181" y2="25.2073" gradientUnits="userSpaceOnUse">
<stop stop-color="#115ED5"/>
<stop offset="1" stop-color="#3FD9E3"/>
</linearGradient>
<linearGradient id="paint21_linear" x1="54.6913" y1="25.1542" x2="55.0961" y2="26.2877" gradientUnits="userSpaceOnUse">
<stop stop-color="#115ED5"/>
<stop offset="1" stop-color="#3FD9E3"/>
</linearGradient>
<linearGradient id="paint22_linear" x1="138.539" y1="41.6561" x2="157.542" y2="33.2086" gradientUnits="userSpaceOnUse">
<stop stop-color="#115ED5"/>
<stop offset="1" stop-color="#3FD9E3"/>
</linearGradient>
<linearGradient id="paint23_linear" x1="138.837" y1="38.3941" x2="154.482" y2="30.5992" gradientUnits="userSpaceOnUse">
<stop stop-color="#115ED5"/>
<stop offset="1" stop-color="#3FD9E3"/>
</linearGradient>
<linearGradient id="paint24_linear" x1="140.242" y1="36.6954" x2="142.774" y2="34.6699" gradientUnits="userSpaceOnUse">
<stop stop-color="#115ED5"/>
<stop offset="1" stop-color="#3FD9E3"/>
</linearGradient>
<linearGradient id="paint25_linear" x1="138.501" y1="27.1765" x2="143.253" y2="22.8266" gradientUnits="userSpaceOnUse">
<stop stop-color="#115ED5"/>
<stop offset="1" stop-color="#3FD9E3"/>
</linearGradient>
<linearGradient id="paint26_linear" x1="141.825" y1="23.8727" x2="142.128" y2="22.5053" gradientUnits="userSpaceOnUse">
<stop stop-color="#115ED5"/>
<stop offset="1" stop-color="#3FD9E3"/>
</linearGradient>
<linearGradient id="paint27_linear" x1="141.825" y1="24.7123" x2="142.128" y2="23.347" gradientUnits="userSpaceOnUse">
<stop stop-color="#115ED5"/>
<stop offset="1" stop-color="#3FD9E3"/>
</linearGradient>
<linearGradient id="paint28_linear" x1="141.825" y1="25.55" x2="142.122" y2="24.1957" gradientUnits="userSpaceOnUse">
<stop stop-color="#115ED5"/>
<stop offset="1" stop-color="#3FD9E3"/>
</linearGradient>
<linearGradient id="paint29_linear" x1="141.825" y1="26.3902" x2="142.124" y2="25.0329" gradientUnits="userSpaceOnUse">
<stop stop-color="#115ED5"/>
<stop offset="1" stop-color="#3FD9E3"/>
</linearGradient>
<linearGradient id="paint30_linear" x1="139.179" y1="27.2277" x2="139.306" y2="25.8193" gradientUnits="userSpaceOnUse">
<stop stop-color="#115ED5"/>
<stop offset="1" stop-color="#3FD9E3"/>
</linearGradient>
<linearGradient id="paint31_linear" x1="139.179" y1="28.0669" x2="139.306" y2="26.6554" gradientUnits="userSpaceOnUse">
<stop stop-color="#115ED5"/>
<stop offset="1" stop-color="#3FD9E3"/>
</linearGradient>
<linearGradient id="paint32_linear" x1="139.179" y1="28.911" x2="139.309" y2="27.4863" gradientUnits="userSpaceOnUse">
<stop stop-color="#115ED5"/>
<stop offset="1" stop-color="#3FD9E3"/>
</linearGradient>
<linearGradient id="paint33_linear" x1="139.179" y1="29.7507" x2="139.308" y2="28.3272" gradientUnits="userSpaceOnUse">
<stop stop-color="#115ED5"/>
<stop offset="1" stop-color="#3FD9E3"/>
</linearGradient>
<linearGradient id="paint34_linear" x1="139.179" y1="30.5886" x2="139.308" y2="29.1651" gradientUnits="userSpaceOnUse">
<stop stop-color="#115ED5"/>
<stop offset="1" stop-color="#3FD9E3"/>
</linearGradient>
<linearGradient id="paint35_linear" x1="139.179" y1="31.4281" x2="139.306" y2="30.018" gradientUnits="userSpaceOnUse">
<stop stop-color="#115ED5"/>
<stop offset="1" stop-color="#3FD9E3"/>
</linearGradient>
<linearGradient id="paint36_linear" x1="139.179" y1="32.2652" x2="139.306" y2="30.8536" gradientUnits="userSpaceOnUse">
<stop stop-color="#115ED5"/>
<stop offset="1" stop-color="#3FD9E3"/>
</linearGradient>
<linearGradient id="paint37_linear" x1="139.179" y1="33.1047" x2="139.306" y2="31.6962" gradientUnits="userSpaceOnUse">
<stop stop-color="#115ED5"/>
<stop offset="1" stop-color="#3FD9E3"/>
</linearGradient>
<linearGradient id="paint38_linear" x1="139.179" y1="33.9437" x2="139.306" y2="32.5336" gradientUnits="userSpaceOnUse">
<stop stop-color="#115ED5"/>
<stop offset="1" stop-color="#3FD9E3"/>
</linearGradient>
<clipPath id="clip0">
<rect width="12.697" height="12.7016" fill="white" transform="translate(51.9434 23.0947)"/>
</clipPath>
</defs>
</svg>
