<svg width="4087" height="2874" viewBox="0 0 4087 2874" fill="none" xmlns="http://www.w3.org/2000/svg">
<g clip-path="url(#clip0)">
<path d="M4178.54 237.059C4233.9 237.059 4278.78 196.426 4278.78 146.302C4278.78 96.1783 4233.9 55.5449 4178.54 55.5449C4123.19 55.5449 4078.31 96.1783 4078.31 146.302C4078.31 196.426 4123.19 237.059 4178.54 237.059Z" fill="#D9E8FF" fill-opacity="0.3"/>
<path d="M540.035 162.166C540.035 162.166 655.589 222.538 749.5 402.189C843.411 581.852 888.602 598.43 888.602 598.43" stroke="#FFF0D6" stroke-width="1.4" stroke-miterlimit="10" stroke-linecap="round"/>
<path d="M141.84 332.9C141.84 332.9 315.849 358.7 524.636 541.158C733.422 723.616 797.873 725.032 797.873 725.032" stroke="#FFF0D6" stroke-width="1.4" stroke-miterlimit="10" stroke-linecap="round"/>
<path d="M3382.51 460.101V1974.03C3382.51 2031.37 3333.33 2077.87 3272.66 2077.87H921.625C860.967 2077.87 811.8 2031.39 811.8 1974.03V460.125C811.8 402.791 860.967 356.287 921.625 356.287H3272.7C3333.34 356.287 3382.51 402.779 3382.51 460.101Z" fill="#F5F8FF"/>
<path d="M924.009 356.287H3270.3C3285.04 356.287 3299.63 358.925 3313.24 364.032C3326.86 369.126 3339.23 376.617 3349.64 386.056C3360.07 395.482 3368.33 406.688 3373.97 419.006C3379.61 431.337 3382.51 444.552 3382.51 457.887V488.829H811.8V457.887C811.8 430.95 823.622 405.102 844.666 386.056C865.708 366.997 894.25 356.287 924.009 356.287Z" fill="url(#paint0_linear)"/>
<path d="M986.536 439.47C996.842 439.47 1005.2 431.907 1005.2 422.565C1005.2 413.235 996.842 405.672 986.536 405.672C976.228 405.672 967.872 413.235 967.872 422.565C967.872 431.907 976.228 439.47 986.536 439.47Z" fill="white"/>
<path opacity="0.5" d="M1058.54 439.47C1068.85 439.47 1077.2 431.907 1077.2 422.565C1077.2 413.235 1068.85 405.672 1058.54 405.672C1048.23 405.672 1039.88 413.235 1039.88 422.565C1039.88 431.907 1048.23 439.47 1058.54 439.47Z" fill="white"/>
<path opacity="0.5" d="M1130.54 439.47C1140.85 439.47 1149.21 431.907 1149.21 422.565C1149.21 413.235 1140.85 405.672 1130.54 405.672C1120.24 405.672 1111.88 413.235 1111.88 422.565C1111.88 431.907 1120.24 439.47 1130.54 439.47Z" fill="white"/>
<path d="M2474.34 1141.29V1897.11C2474.33 1909.26 2469 1920.91 2459.51 1929.49C2450.02 1938.08 2437.15 1942.91 2423.73 1942.91H1055.79C1042.37 1942.91 1029.51 1938.08 1020.02 1929.49C1010.53 1920.91 1005.2 1909.26 1005.2 1897.11V1141.29C1005.2 1129.14 1010.53 1117.5 1020.02 1108.91C1029.51 1100.32 1042.37 1095.49 1055.79 1095.49H2423.73C2437.15 1095.49 2450.02 1100.32 2459.51 1108.91C2469 1117.49 2474.33 1129.14 2474.34 1141.29Z" fill="url(#paint1_linear)"/>
<path d="M1571.42 1241.44H1159.18C1154.92 1241.44 1151.47 1243.8 1151.47 1246.71V1284.58C1151.47 1287.49 1154.92 1289.85 1159.18 1289.85H1571.42C1575.68 1289.85 1579.13 1287.49 1579.13 1284.58V1246.71C1579.13 1243.8 1575.68 1241.44 1571.42 1241.44Z" fill="#0A69EE"/>
<path opacity="0.5" d="M1754.65 1328.3H1161.83C1158.72 1328.3 1156.21 1330.57 1156.21 1333.38V1346.58C1156.21 1349.39 1158.72 1351.66 1161.83 1351.66H1754.65C1757.75 1351.66 1760.26 1349.39 1760.26 1346.58V1333.38C1760.26 1330.57 1757.75 1328.3 1754.65 1328.3Z" fill="#5398ED"/>
<path d="M2323.33 1289.2C2323.33 1302.38 2319.01 1315.27 2310.92 1326.23C2302.84 1337.19 2291.33 1345.74 2277.87 1350.78C2264.43 1355.83 2249.62 1357.15 2235.33 1354.58C2221.06 1352 2207.94 1345.65 2197.65 1336.33C2187.34 1327 2180.34 1315.12 2177.49 1302.2C2174.66 1289.26 2176.12 1275.85 2181.69 1263.68C2187.26 1251.49 2196.71 1241.09 2208.82 1233.77C2220.93 1226.43 2235.16 1222.52 2249.73 1222.54C2259.4 1222.5 2269 1224.19 2277.94 1227.53C2286.89 1230.86 2295.03 1235.77 2301.88 1241.97C2308.72 1248.18 2314.13 1255.54 2317.82 1263.64C2321.5 1271.75 2323.38 1280.43 2323.33 1289.2Z" fill="#0A69EE"/>
<path d="M2265.91 1281.23C2274.84 1273.13 2274.84 1260.01 2265.91 1251.92C2256.97 1243.82 2242.48 1243.82 2233.54 1251.92C2224.6 1260.01 2224.6 1273.13 2233.54 1281.23C2242.48 1289.32 2256.97 1289.32 2265.91 1281.23Z" fill="#F5F8FF"/>
<path d="M2304.48 1333.67C2297.59 1340.62 2289.14 1346.19 2279.7 1350C2270.27 1353.81 2260.04 1355.79 2249.71 1355.79C2239.38 1355.79 2229.16 1353.81 2219.72 1350C2210.29 1346.19 2201.84 1340.62 2194.95 1333.67C2199.64 1324.04 2207.31 1315.88 2217.02 1310.14C2226.75 1304.4 2238.11 1301.36 2249.71 1301.36C2261.31 1301.36 2272.67 1304.4 2282.39 1310.14C2292.12 1315.88 2299.79 1324.04 2304.48 1333.67Z" fill="#F5F8FF"/>
<path d="M1527.47 1561.78L1490.89 1581.74C1503.56 1607.65 1506.38 1636.62 1498.91 1664.13C1491.42 1691.64 1474.09 1716.12 1449.59 1733.74L1471.79 1766.84C1505.87 1743.78 1530.03 1710.73 1540.19 1673.34C1550.35 1635.93 1545.84 1596.51 1527.47 1561.78Z" fill="#0A69EE"/>
<path d="M1361.58 1467.08C1336.98 1467.06 1312.63 1471.53 1289.97 1480.24L1310.34 1514.25C1338.55 1504.33 1369.53 1502.85 1398.74 1510.07C1427.92 1517.28 1453.8 1532.78 1472.54 1554.31L1509.14 1534.32C1492.05 1513.47 1469.8 1496.53 1444.18 1484.85C1418.56 1473.17 1390.26 1467.08 1361.58 1467.08Z" fill="#F5F8FF"/>
<path d="M1361.58 1761.64C1331.65 1761.64 1302.48 1753.05 1278.29 1737.08C1254.1 1721.11 1236.14 1698.62 1226.97 1672.8C1217.82 1647 1217.95 1619.23 1227.35 1593.49C1234.72 1573.3 1247.5 1555.17 1264.42 1540.68C1270.05 1535.86 1272.86 1533.45 1273.96 1531.14C1275.01 1528.9 1275.32 1527.04 1275.03 1524.59C1274.72 1522.05 1273.07 1519.27 1269.75 1513.72L1268.8 1512.13C1265.38 1506.4 1263.67 1503.53 1260.99 1501.98C1258.8 1500.7 1255.74 1500.1 1253.22 1500.47C1250.16 1500.91 1247.75 1502.74 1242.93 1506.4C1212.61 1529.41 1191.14 1560.79 1182.04 1595.97C1171.4 1637.07 1178.4 1680.27 1201.61 1716.86C1224.82 1753.46 1262.52 1780.7 1307.08 1793.08C1344.18 1803.39 1383.74 1802.74 1420.13 1791.55C1426.86 1789.48 1430.22 1788.44 1432.47 1785.84C1434.32 1783.7 1435.48 1780.41 1435.39 1777.59C1435.28 1774.15 1433.12 1770.94 1428.8 1764.52L1428.09 1763.46C1425.01 1758.89 1423.47 1756.6 1421.58 1755.3C1419.77 1754.06 1418.14 1753.47 1415.96 1753.26C1413.67 1753.03 1410.68 1753.9 1404.69 1755.62C1390.78 1759.63 1376.24 1761.66 1361.58 1761.64Z" fill="#F5F8FF"/>
<path d="M1799.55 1514.39H1766.01C1762.91 1514.39 1760.4 1516.66 1760.4 1519.47V1534.74C1760.4 1537.55 1762.91 1539.82 1766.01 1539.82H1799.55C1802.66 1539.82 1805.17 1537.55 1805.17 1534.74V1519.47C1805.17 1516.66 1802.66 1514.39 1799.55 1514.39Z" fill="#F5F8FF"/>
<path d="M2159.23 1510.28H1873C1869.9 1510.28 1867.39 1512.55 1867.39 1515.36V1538.85C1867.39 1541.65 1869.9 1543.93 1873 1543.93H2159.23C2162.33 1543.93 2164.85 1541.65 2164.85 1538.85V1515.36C2164.85 1512.55 2162.33 1510.28 2159.23 1510.28Z" fill="#0A69EE"/>
<path d="M1799.55 1620.9H1766.01C1762.91 1620.9 1760.4 1623.17 1760.4 1625.98V1641.24C1760.4 1644.05 1762.91 1646.32 1766.01 1646.32H1799.55C1802.66 1646.32 1805.17 1644.05 1805.17 1641.24V1625.98C1805.17 1623.17 1802.66 1620.9 1799.55 1620.9Z" fill="#F5F8FF"/>
<path d="M2250.3 1616.78H1873C1869.9 1616.78 1867.39 1619.05 1867.39 1621.86V1645.36C1867.39 1648.17 1869.9 1650.44 1873 1650.44H2250.3C2253.4 1650.44 2255.91 1648.17 2255.91 1645.36V1621.86C2255.91 1619.05 2253.4 1616.78 2250.3 1616.78Z" fill="#0A69EE"/>
<path d="M1799.55 1727.39H1766.01C1762.91 1727.39 1760.4 1729.67 1760.4 1732.48V1747.74C1760.4 1750.54 1762.91 1752.82 1766.01 1752.82H1799.55C1802.66 1752.82 1805.17 1750.54 1805.17 1747.74V1732.48C1805.17 1729.67 1802.66 1727.39 1799.55 1727.39Z" fill="#F5F8FF"/>
<path d="M2045.42 1723.28H1873C1869.9 1723.28 1867.39 1725.55 1867.39 1728.36V1751.86C1867.39 1754.67 1869.9 1756.94 1873 1756.94H2045.42C2048.52 1756.94 2051.03 1754.67 2051.03 1751.86V1728.36C2051.03 1725.55 2048.52 1723.28 2045.42 1723.28Z" fill="#0A69EE"/>
<path d="M4086.75 1417.45C4086.75 1417.45 3922.48 1455.83 3739.86 1647.07C3557.24 1838.3 3495.65 1844.73 3495.65 1844.73" stroke="#FFF0D6" stroke-width="1.4" stroke-miterlimit="10" stroke-linecap="round"/>
<path d="M872.621 1032.22L863.943 1031.79L914.534 1216.82L923.227 1217.08C923.695 1217.09 924.16 1216.99 924.569 1216.79C924.961 1216.58 925.282 1216.28 925.497 1215.92C925.743 1215.52 925.89 1215.07 925.927 1214.62C925.975 1214.06 925.919 1213.51 925.761 1212.98L877.44 1036.55C877.276 1035.99 877.025 1035.44 876.695 1034.92C876.38 1034.44 875.996 1033.98 875.552 1033.58C875.142 1033.19 874.666 1032.88 874.145 1032.63C873.673 1032.4 873.154 1032.27 872.621 1032.22Z" fill="#5574D8"/>
<path d="M1286.04 2198.84C1243.3 2185.12 1228.75 2203.44 1205.75 2211.64L799.117 724.46C797.222 717.647 794.279 711.124 790.374 705.05C786.561 699.035 781.897 693.493 776.496 688.556C771.442 683.897 765.669 679.916 759.357 676.746C753.604 673.841 747.273 671.978 740.727 671.288L180.012 619.871C180.012 619.871 178.903 594.749 170.075 550.182C68.6303 561.218 56.4752 618.104 56.6743 645.622C56.4498 650.462 56.9109 655.303 58.0495 660.046C58.0495 660.385 58.1645 660.567 58.1645 660.567L97.892 824.825L112.017 883.309L127.07 945.46L156.596 1067.28L167.608 1112.84L197.516 1236.42L461.049 2325.28C463.031 2333.5 466.411 2341.39 471.067 2348.68C475.412 2355.51 480.916 2361.68 487.379 2366.97C493.333 2371.86 500.231 2375.71 507.73 2378.33C514.761 2380.78 522.33 2381.69 529.822 2380.99L1186.47 2312.97C1189.35 2312.68 1192.18 2312.02 1194.86 2311.04C1215.56 2306.03 1287.27 2266.52 1286.04 2198.84ZM519.952 700.645L520.067 700.802C520.218 701.02 520.345 701.262 520.448 701.504C520.34 701.262 520.206 701.02 520.051 700.802L519.952 700.645ZM520.647 709.914L520.349 709.987L520.647 709.902V709.914ZM560.821 714.924C560.67 715.106 560.504 715.287 560.324 715.456C560.507 715.299 560.669 715.106 560.805 714.912L560.888 714.803C560.856 714.839 560.833 714.876 560.821 714.924Z" fill="url(#paint2_linear)"/>
<path d="M1283.57 2190.35L865.763 662.448C863.872 655.647 860.929 649.112 857.02 643.062C853.213 637.036 848.552 631.493 843.16 626.568C838.099 621.897 832.321 617.916 826.004 614.758C820.25 611.841 813.919 609.99 807.373 609.3L164.538 550.453C157.976 549.763 151.326 550.538 145.18 552.74C139.626 554.798 134.798 558.186 131.219 562.542C127.446 567.225 124.97 572.658 124 578.394C122.852 585.147 123.144 592.044 124.86 598.688L164.604 762.898L178.73 821.369L193.783 883.52L223.26 1005.35L234.272 1050.79L264.162 1174.37L527.694 2263.32C529.678 2271.54 533.057 2279.43 537.714 2286.71C542.062 2293.55 547.573 2299.72 554.041 2305.01C559.986 2309.9 566.882 2313.76 574.377 2316.37C581.406 2318.81 588.977 2319.72 596.468 2319.01L1253.11 2251C1259.21 2250.38 1264.99 2248.21 1269.78 2244.73C1274.64 2241.09 1278.49 2236.47 1281.02 2231.23C1283.92 2225.3 1285.59 2218.93 1285.99 2212.46C1286.43 2205.02 1285.62 2197.56 1283.57 2190.35ZM608.937 640.472C609.083 639.395 609.497 638.367 610.146 637.471C610.758 636.636 611.612 635.971 612.614 635.547C613.725 635.124 614.941 634.954 616.141 635.087C617.52 635.208 618.855 635.596 620.065 636.213C621.4 636.842 622.617 637.665 623.676 638.633C624.808 639.649 625.782 640.799 626.573 642.057C627.39 643.304 627.993 644.659 628.362 646.075C628.716 647.346 628.817 648.665 628.66 649.971C628.531 651.073 628.124 652.126 627.467 653.045C626.853 653.868 626.007 654.521 625.016 654.957C623.911 655.393 622.694 655.574 621.489 655.441C620.109 655.308 618.771 654.921 617.548 654.316C616.216 653.687 615 652.864 613.938 651.896C612.809 650.867 611.83 649.717 611.024 648.471C610.212 647.212 609.61 645.857 609.236 644.441C608.881 643.146 608.781 641.791 608.937 640.472ZM433.403 625.673C433.451 625.273 433.605 624.886 433.851 624.56C434.091 624.257 434.417 624.015 434.794 623.858C435.215 623.7 435.67 623.652 436.119 623.688L582.873 636.358C583.37 636.418 583.853 636.552 584.296 636.769C584.781 636.999 585.223 637.29 585.604 637.653C586.007 638.016 586.357 638.415 586.648 638.863C586.947 639.335 587.165 639.831 587.294 640.363L588.452 644.865C588.595 645.313 588.634 645.785 588.568 646.257C588.516 646.644 588.369 647.031 588.138 647.37C587.904 647.66 587.59 647.902 587.227 648.06C586.827 648.217 586.387 648.277 585.952 648.229L439.166 635.741C438.658 635.692 438.165 635.547 437.709 635.341C437.208 635.099 436.75 634.797 436.351 634.434C435.94 634.071 435.584 633.647 435.291 633.199C434.992 632.728 434.774 632.219 434.645 631.699L433.47 627.198C433.367 626.689 433.367 626.169 433.47 625.673H433.403Z" fill="url(#paint3_linear)"/>
<path d="M1240.24 2162.39C1239.75 2171.04 1237.5 2179.54 1233.63 2187.48C1230.19 2194.49 1224.97 2200.66 1218.38 2205.48C1211.88 2210.14 1204.05 2213.02 1195.82 2213.78L927.367 2240.18L926.324 2240.29L639.74 2268.47C629.804 2269.37 619.777 2268.11 610.478 2264.82C600.516 2261.3 591.359 2256.13 583.47 2249.59C574.864 2242.54 567.538 2234.3 561.76 2225.19C555.559 2215.51 551.051 2205.02 548.396 2194.08L174.525 659.204C172.217 650.261 171.802 641.004 173.3 631.916C174.564 624.232 177.828 616.935 182.822 610.618C187.533 604.749 193.923 600.163 201.303 597.356C209.43 594.367 218.256 593.278 226.969 594.173L313.313 601.676C313.933 601.736 314.534 601.906 315.085 602.172C315.693 602.462 316.251 602.825 316.741 603.261C317.76 604.144 318.474 605.282 318.795 606.516L327.24 640.241C327.891 642.758 328.952 645.179 330.386 647.417C331.817 649.644 333.572 651.689 335.602 653.492C337.561 655.235 339.794 656.699 342.227 657.848C344.46 658.913 346.899 659.591 349.413 659.833L521.636 673.858L522.678 673.943L688.41 687.447C690.445 687.641 692.502 687.338 694.37 686.588C696.075 685.862 697.522 684.712 698.544 683.272C699.636 681.687 700.321 679.884 700.547 678.021C700.789 675.782 700.605 673.519 700.001 671.341L691.374 638.935C691.231 638.402 691.192 637.845 691.258 637.301C691.303 636.853 691.467 636.418 691.737 636.03C691.993 635.655 692.364 635.365 692.802 635.183C693.242 635.002 693.73 634.953 694.204 635.026L772.036 641.827C780.887 642.722 789.454 645.203 797.24 649.111C805.776 653.359 813.586 658.695 820.424 664.964C827.695 671.583 833.986 679.025 839.137 687.108C844.378 695.337 848.303 704.195 850.795 713.428L1237.2 2132.82C1239.88 2142.48 1240.91 2152.45 1240.24 2162.39Z" fill="#F5F8FF"/>
<path d="M582.943 636.352L436.173 623.682C435.728 623.634 435.278 623.694 434.865 623.852C434.485 623.997 434.158 624.239 433.921 624.554C433.674 624.88 433.515 625.268 433.457 625.667C433.393 626.139 433.427 626.623 433.556 627.083L434.716 631.584C434.843 632.117 435.061 632.613 435.362 633.085C435.655 633.545 436.017 633.968 436.438 634.343C436.832 634.706 437.285 635.009 437.78 635.239C438.231 635.457 438.726 635.602 439.236 635.65L586.04 648.138C586.469 648.175 586.902 648.114 587.297 647.957C587.662 647.812 587.972 647.57 588.193 647.267C588.436 646.941 588.59 646.553 588.639 646.154C588.695 645.694 588.66 645.222 588.54 644.762L587.364 640.261C587.238 639.741 587.021 639.232 586.719 638.76C586.437 638.312 586.085 637.913 585.675 637.55C585.289 637.199 584.849 636.897 584.366 636.667C583.925 636.449 583.442 636.316 582.943 636.267" fill="#DCE3FF"/>
<path d="M616.21 635.025C615.01 634.892 613.794 635.061 612.683 635.485C611.681 635.908 610.827 636.574 610.215 637.409C609.567 638.304 609.154 639.333 609.007 640.41C608.849 641.717 608.951 643.036 609.305 644.318C609.684 645.734 610.286 647.09 611.093 648.348C611.899 649.595 612.878 650.744 614.008 651.773C615.071 652.741 616.288 653.551 617.617 654.205C618.839 654.798 620.178 655.185 621.559 655.318C622.756 655.439 623.967 655.27 625.069 654.834C626.078 654.423 626.935 653.745 627.537 652.91C628.183 652.003 628.591 650.986 628.729 649.909C628.894 648.602 628.794 647.283 628.431 646.013C628.062 644.597 627.459 643.241 626.642 641.995C625.847 640.749 624.873 639.599 623.745 638.57C622.676 637.614 621.461 636.792 620.135 636.126C618.92 635.533 617.587 635.146 616.21 635.025Z" fill="#DCE3FF"/>
<path d="M1035.82 2175.44L785.299 2198.47C784.818 2198.51 784.361 2198.67 783.974 2198.93C783.582 2199.19 783.268 2199.53 783.064 2199.93C782.823 2200.38 782.672 2200.85 782.616 2201.33C782.564 2201.88 782.608 2202.43 782.75 2202.98L784.041 2208.1C784.182 2208.65 784.417 2209.19 784.735 2209.68C785.028 2210.16 785.402 2210.58 785.846 2210.94C786.247 2211.28 786.712 2211.55 787.22 2211.74C787.689 2211.9 788.193 2211.97 788.694 2211.93L1039.26 2188.49C1039.71 2188.46 1040.14 2188.3 1040.5 2188.05C1040.86 2187.79 1041.15 2187.47 1041.35 2187.09C1041.57 2186.67 1041.7 2186.21 1041.74 2185.74C1041.78 2185.2 1041.73 2184.66 1041.59 2184.13L1040.29 2179.19C1040.14 2178.66 1039.91 2178.16 1039.61 2177.69C1039.32 2177.23 1038.96 2176.82 1038.53 2176.47C1038.15 2176.14 1037.71 2175.87 1037.22 2175.69C1036.78 2175.52 1036.3 2175.45 1035.82 2175.5" fill="#0A69EE"/>
<g style="mix-blend-mode:multiply" opacity="0.8">
<g style="mix-blend-mode:multiply" opacity="0.8">
<path d="M2474.33 1141.29V1568.84C2218.64 1442.13 2223.16 1162.86 2228.21 1095.49H2423.73C2437.15 1095.49 2450.02 1100.32 2459.51 1108.91C2469 1117.49 2474.33 1129.14 2474.33 1141.29Z" fill="#77AFF4"/>
</g>
</g>
<path d="M1592.55 576.285H1032.23C1006.27 576.285 985.229 595.344 985.229 618.844V971.757C985.229 995.257 1006.27 1014.32 1032.23 1014.32H1592.55C1618.5 1014.32 1639.54 995.257 1639.54 971.757V618.844C1639.54 595.344 1618.5 576.285 1592.55 576.285Z" fill="url(#paint4_linear)"/>
<path d="M1049.68 865.331C1068.51 826.184 1099.56 772.553 1133.46 774.501C1188.43 777.647 1205.84 924.444 1248.96 923.972C1300.43 923.343 1319.99 713.742 1380.12 711.286C1421.78 709.567 1450.24 808.747 1480.97 802.587C1517.4 795.339 1500.84 652.076 1554.39 638.716C1561.24 637.179 1568.43 637.494 1575.07 639.636" stroke="#0A69EE" stroke-width="2" stroke-miterlimit="10" stroke-linecap="round"/>
<path opacity="0.4" d="M1436.16 719.57C1441.18 691.593 1420.19 665.225 1389.29 660.687C1358.39 656.137 1329.27 675.135 1324.25 703.125C1319.24 731.102 1340.23 757.458 1371.12 762.008C1402.02 766.546 1431.14 747.547 1436.16 719.57Z" fill="#F5F8FF"/>
<path d="M1380.13 737.898C1396.37 737.898 1409.52 725.979 1409.52 711.288C1409.52 696.585 1396.37 684.666 1380.13 684.666C1363.9 684.666 1350.75 696.585 1350.75 711.288C1350.75 725.979 1363.9 737.898 1380.13 737.898Z" fill="#F5F8FF"/>
<path d="M427.913 1921.6C427.913 1921.6 490.169 1934.68 487.663 1855.07" stroke="#D7C2FF" stroke-miterlimit="10"/>
<path d="M859.078 1915.46C846.994 1919.43 833.66 1918.9 822.01 1913.97C810.359 1909.05 801.347 1900.14 796.955 1889.2L703.473 1656.16L794.62 1626.19L888.102 1859.22C890.279 1864.62 891.254 1870.39 890.972 1876.15C890.692 1881.91 889.16 1887.56 886.464 1892.78C883.769 1898.01 879.963 1902.69 875.264 1906.59C870.565 1910.48 865.064 1913.49 859.078 1915.46Z" fill="#004DBA"/>
<path d="M1238.54 1063.3L1484.9 1677.45L1385.04 1681.38C1234.41 1648.07 1078.48 1639.03 924.399 1654.71C829.49 1664.38 735.962 1683.03 645.352 1710.36C634.359 1710.75 623.511 1708 614.338 1702.51C605.191 1696.96 598.235 1688.91 594.479 1679.53L554.185 1579.06C550.431 1569.68 550.076 1559.46 553.172 1549.89C556.269 1540.32 562.656 1531.9 571.405 1525.84C663.113 1493.14 750.643 1451.54 832.468 1401.79C958.599 1325.01 1069.13 1229.08 1159.19 1118.24L1238.54 1063.3Z" fill="url(#paint5_linear)"/>
<path d="M1484.83 1677.61C1551.67 1655.64 1550.7 1500.33 1482.68 1330.72C1414.65 1161.12 1305.32 1041.44 1238.48 1063.43C1171.63 1085.4 1172.6 1240.72 1240.63 1410.32C1308.66 1579.92 1417.99 1699.6 1484.83 1677.61Z" fill="#77AFF4"/>
<path d="M1461.83 1337.46C1522.08 1487.65 1528.43 1623.3 1476.02 1640.63C1456.89 1646.95 1432.36 1636.47 1406.13 1613.21C1360.82 1573.12 1310.24 1495.02 1272.09 1399.94C1233.94 1304.85 1217.38 1215.49 1223.69 1158.43C1227.34 1125.39 1238.64 1103.12 1257.86 1096.81C1310.26 1079.52 1401.58 1187.21 1461.83 1337.46Z" fill="#0A69EE"/>
<path d="M1272.15 1399.88C1280.58 1420.93 1289.66 1441.13 1299.12 1460.31C1332.44 1527.67 1370.93 1581.95 1406.26 1613.17C1408.37 1612.95 1410.43 1612.5 1412.42 1611.85C1456.43 1597.39 1451.03 1483.65 1400.53 1357.68C1350.01 1231.71 1273.43 1141.34 1229.46 1155.81C1227.48 1156.46 1225.59 1157.32 1223.82 1158.38C1218.9 1202.81 1227.86 1266.8 1250.08 1337.86C1256.27 1358.05 1263.63 1378.81 1272.15 1399.88Z" fill="#004DBA"/>
<path d="M545.288 1560.88L598.86 1543.28L654.206 1681.25L600.634 1698.87C589.778 1702.44 577.802 1701.96 567.337 1697.53C556.874 1693.11 548.781 1685.1 544.838 1675.27L519.217 1611.39C515.28 1601.57 515.816 1590.72 520.704 1581.25C525.593 1571.79 534.436 1564.45 545.288 1560.88Z" fill="#B7C5FF"/>
<path d="M924.399 1654.72C829.49 1664.39 735.964 1683.03 645.352 1710.36C634.359 1710.74 623.511 1708 614.338 1702.5C605.191 1696.95 598.235 1688.9 594.479 1679.52L554.185 1579.05C550.431 1569.67 550.076 1559.46 553.172 1549.89C556.269 1540.31 562.656 1531.89 571.405 1525.83C663.113 1493.13 750.643 1451.53 832.468 1401.78C849.389 1489.68 880.377 1574.89 924.456 1654.71L924.399 1654.72Z" fill="#0A69EE"/>
<path d="M1272.15 1399.88C1280.59 1420.93 1289.66 1441.13 1299.13 1460.31L1352.16 1442.86C1366.58 1438.11 1378.32 1428.37 1384.81 1415.79C1391.29 1403.2 1392 1388.8 1386.75 1375.75L1377.19 1351.75C1371.95 1338.7 1361.21 1328.07 1347.31 1322.2C1333.42 1316.32 1317.52 1315.68 1303.11 1320.42L1249.96 1337.92C1256.27 1358.05 1263.63 1378.82 1272.15 1399.88Z" fill="#9CC7FB"/>
<path d="M1374.97 1403.74C1386.12 1400.07 1389.19 1382.22 1381.83 1363.88C1374.48 1345.53 1359.47 1333.64 1348.32 1337.3C1337.19 1340.96 1334.12 1358.81 1341.48 1377.15C1348.83 1395.5 1363.83 1407.39 1374.97 1403.74Z" fill="white"/>
<path d="M614.873 2313.08C600.941 2312.89 587.565 2308.11 577.235 2299.65C566.906 2291.18 560.329 2279.6 558.732 2267.07C557.135 2254.54 560.626 2241.9 568.555 2231.53C576.484 2221.16 588.308 2213.76 601.823 2210.7C607.391 2245.41 611.658 2279.8 614.873 2313.08Z" fill="#B485FF"/>
<path d="M3753.24 1346.85C3865.48 1346.85 3956.47 1278.97 3956.47 1195.23C3956.47 1111.5 3865.48 1043.61 3753.24 1043.61C3641.01 1043.61 3550.02 1111.5 3550.02 1195.23C3550.02 1278.97 3641.01 1346.85 3753.24 1346.85Z" fill="#F5F8FF"/>
<path d="M3753.25 1216.15C3766.01 1216.15 3776.37 1206.79 3776.37 1195.23C3776.37 1183.66 3766.01 1174.3 3753.25 1174.3C3740.48 1174.3 3730.13 1183.66 3730.13 1195.23C3730.13 1206.79 3740.48 1216.15 3753.25 1216.15Z" fill="url(#paint6_linear)"/>
<path d="M3672.71 1216.15C3685.49 1216.15 3695.83 1206.79 3695.83 1195.23C3695.83 1183.66 3685.49 1174.3 3672.71 1174.3C3659.95 1174.3 3649.6 1183.66 3649.6 1195.23C3649.6 1206.79 3659.95 1216.15 3672.71 1216.15Z" fill="url(#paint7_linear)"/>
<path d="M3833.77 1216.15C3846.53 1216.15 3856.87 1206.79 3856.87 1195.23C3856.87 1183.66 3846.53 1174.3 3833.77 1174.3C3820.99 1174.3 3810.65 1183.66 3810.65 1195.23C3810.65 1206.79 3820.99 1216.15 3833.77 1216.15Z" fill="url(#paint8_linear)"/>
<path d="M3598.44 1273.15C3595.95 1272.36 3594.71 1271.97 3591.46 1272.75C3589.34 1273.26 3585.7 1275.74 3584.44 1277.53C3582.53 1280.27 3582.37 1282.57 3582.06 1287.17L3579.74 1321.05C3579.02 1331.68 3578.66 1336.99 3580.68 1340.27C3582.44 1343.12 3585.32 1345.11 3588.62 1345.75C3592.41 1346.48 3597.24 1344.25 3606.92 1339.8L3629.95 1329.21C3636.45 1326.22 3639.7 1324.73 3641.59 1321.91C3643.1 1319.64 3643.88 1316.21 3643.48 1313.5C3642.99 1310.15 3640.93 1307.69 3636.81 1302.76C3627.35 1291.44 3613.52 1277.92 3598.44 1273.15Z" fill="#F5F8FF"/>
<path d="M3503.79 262.076H3109.12C3085.39 262.076 3066.16 279.502 3066.16 300.981V658.334C3066.16 679.825 3085.39 697.251 3109.12 697.251H3503.79C3527.53 697.251 3546.76 679.825 3546.76 658.334V300.981C3546.76 279.502 3527.53 262.076 3503.79 262.076Z" fill="url(#paint9_linear)"/>
<path d="M3226.86 455.291H3184.03C3175.92 455.291 3169.35 461.233 3169.35 468.578V577.983C3169.35 585.328 3175.92 591.269 3184.03 591.269H3226.86C3234.96 591.269 3241.54 585.328 3241.54 577.983V468.578C3241.54 461.233 3234.96 455.291 3226.86 455.291Z" fill="#0A69EE"/>
<path d="M3363.87 464.385L3425.14 463.841C3428.56 463.816 3431.93 464.676 3434.83 466.321C3437.75 467.967 3440.07 470.327 3441.54 473.122C3443.93 477.745 3444.23 483.021 3442.37 487.825C3440.51 492.629 3436.65 496.598 3431.61 498.861C3435.11 500.361 3438.09 502.721 3440.19 505.674C3442.3 508.626 3443.45 512.051 3443.52 515.56C3443.64 522.881 3434.81 529.646 3427.46 532.792C3431.06 534.256 3434.1 536.701 3436.12 539.786C3438.13 542.884 3439.06 546.454 3438.75 550.036C3438.13 556.026 3429.23 563.226 3420.92 564.037C3424.22 565.501 3426.88 567.933 3428.47 570.946C3430.05 573.959 3430.46 577.372 3429.63 580.615C3428.81 583.87 3426.79 586.762 3423.9 588.844C3421.01 590.913 3417.45 592.038 3413.76 592.05H3297.54C3295.65 592.038 3293.77 591.82 3291.95 591.385L3260.65 583.882C3259.36 583.58 3258.21 582.89 3257.39 581.934C3256.58 580.966 3256.13 579.792 3256.12 578.582V469.322C3256.12 467.87 3256.76 466.479 3257.9 465.45C3259.03 464.422 3260.57 463.841 3262.18 463.841H3293.64C3295.96 463.853 3298.25 463.32 3300.28 462.292C3302.3 461.275 3304.01 459.799 3305.22 458.008C3311.66 448.533 3321.07 433.733 3333.6 421.633C3350.84 404.933 3356.06 370.663 3369.75 367.432C3383.42 364.214 3398.31 407.825 3382.24 432.076C3366.18 456.314 3363.87 464.385 3363.87 464.385Z" fill="#0A69EE"/>
<path d="M3205.44 573.974C3212.29 573.974 3217.83 568.952 3217.83 562.768C3217.83 556.573 3212.29 551.551 3205.44 551.551C3198.6 551.551 3193.05 556.573 3193.05 562.768C3193.05 568.952 3198.6 573.974 3205.44 573.974Z" fill="white"/>
<path d="M2190.55 575.93H1811.86C1782.74 575.93 1759.14 597.3 1759.14 623.668V966.549C1759.14 992.917 1782.74 1014.29 1811.86 1014.29H2190.55C2219.67 1014.29 2243.28 992.917 2243.28 966.549V623.668C2243.28 597.3 2219.67 575.93 2190.55 575.93Z" stroke="#0A69EE" stroke-width="3" stroke-miterlimit="10"/>
<path d="M2474.34 336.843V763.886C2474.34 779.653 2467.42 794.779 2455.1 805.924C2442.79 817.081 2426.09 823.35 2408.67 823.35H1937.05C1919.63 823.325 1902.96 817.057 1890.65 805.912C1878.35 794.755 1871.44 779.641 1871.46 763.886V336.843C1871.46 321.075 1878.36 305.961 1890.69 294.804C1903 283.659 1919.7 277.391 1937.12 277.391H2408.74C2426.14 277.415 2442.82 283.683 2455.13 294.828C2467.42 305.973 2474.33 321.087 2474.34 336.843Z" fill="url(#paint10_linear)"/>
<path d="M2340.75 550.368C2340.75 580.439 2330.9 609.832 2312.46 634.821C2294 659.821 2267.78 679.316 2237.11 690.824C2206.42 702.32 2172.67 705.333 2140.1 699.476C2107.53 693.607 2077.62 679.134 2054.14 657.873C2030.65 636.612 2014.66 609.53 2008.17 580.04C2001.69 550.55 2005.02 519.983 2017.73 492.199C2030.43 464.415 2051.94 440.673 2079.55 423.974C2107.17 407.262 2139.63 398.344 2172.84 398.344V457.638C2152.58 457.638 2132.77 463.084 2115.93 473.273C2099.08 483.462 2085.96 497.947 2078.2 514.9C2070.45 531.842 2068.42 550.489 2072.38 568.483C2076.33 586.465 2086.09 602.995 2100.42 615.967C2114.74 628.927 2133 637.761 2152.86 641.343C2172.73 644.913 2193.33 643.073 2212.04 636.055C2230.76 629.036 2246.75 617.141 2258 601.894C2269.25 586.647 2275.27 568.713 2275.25 550.368H2340.75Z" fill="#F5F8FF"/>
<path d="M2340.75 550.368H2275.26C2275.26 538.195 2272.62 526.13 2267.46 514.876C2262.31 503.622 2254.76 493.409 2245.26 484.793C2235.75 476.189 2224.45 469.352 2212.02 464.693C2199.59 460.034 2186.28 457.638 2172.83 457.638V398.344C2217.36 398.344 2260.07 414.353 2291.56 442.863C2323.04 471.373 2340.74 510.048 2340.75 550.368Z" fill="#F5F8FF"/>
<path d="M3464.55 1605.35C3464.55 1605.35 3430.14 1842.41 3425.73 1848.9C3421.33 1855.38 3312.06 1782.32 3312.06 1782.32C3312.06 1782.32 3318.89 1760.86 3331.24 1732.48C3341.64 1708.54 3355.97 1679.75 3373.42 1654.51C3399.68 1616.63 3433.05 1607.58 3451.24 1605.61C3455.65 1605.1 3460.12 1605.01 3464.55 1605.35Z" fill="url(#paint11_linear)"/>
<path d="M3464.55 1605.35C3464.55 1605.35 3430.14 1842.41 3425.73 1848.9C3421.33 1855.38 3312.06 1782.32 3312.06 1782.32C3312.06 1782.32 3318.89 1760.86 3331.24 1732.48C3344.42 1741.44 3373.5 1754.35 3388.32 1707.67C3406.28 1651.15 3445.01 1611.72 3451.24 1605.61C3455.65 1605.1 3460.12 1605.01 3464.55 1605.35Z" fill="url(#paint12_linear)"/>
<path d="M3799.19 2874.09C3753.88 2874.09 3731.88 2837.85 3731.88 2837.85C3708.12 2845.81 3691.4 2826.7 3691.4 2826.7C3695.81 2815.16 3698.89 2781.6 3698.89 2781.6L3728.17 2779.65L3757.29 2777.72C3760.81 2804.09 3815.8 2829.89 3834.71 2838.25C3846.26 2854.98 3844.49 2874.09 3799.19 2874.09Z" fill="url(#paint13_linear)"/>
<path d="M3799.19 2874.09C3753.87 2874.09 3731.88 2837.85 3731.88 2837.85C3708.12 2845.81 3691.4 2826.71 3691.4 2826.71C3695.81 2815.16 3698.89 2781.61 3698.89 2781.61L3728.17 2779.66L3727.21 2782.62C3727.21 2782.62 3734.41 2836.68 3779.33 2847.22C3824.25 2857.77 3834.8 2838.25 3834.8 2838.25C3846.26 2854.99 3844.49 2874.09 3799.19 2874.09Z" fill="#421511"/>
<path d="M3558.59 2840.8H3519.42L3510.96 2822.25L3486.9 2842.41C3486.9 2842.41 3382.23 2854.91 3382.23 2819.02C3399.16 2812.97 3481.99 2789.57 3490.01 2773.87C3496.08 2772.49 3508.55 2772.28 3520.83 2772.49C3537.42 2772.79 3553.7 2773.87 3553.7 2773.87C3553.7 2773.87 3571.11 2810.94 3558.59 2840.8Z" fill="url(#paint14_linear)"/>
<path d="M3558.59 2840.81H3519.42L3510.96 2822.26L3486.9 2842.43C3486.9 2842.43 3382.23 2854.92 3382.23 2819.02C3382.23 2819.02 3422.67 2833.65 3472.67 2817.58C3521.21 2802 3520.9 2774.15 3520.83 2772.5C3537.42 2772.8 3553.7 2773.88 3553.7 2773.88C3553.7 2773.88 3571.11 2810.96 3558.59 2840.81Z" fill="#421511"/>
<path d="M3617.56 2220.97L3610.15 2341.65C3610.15 2341.65 3581.03 2402.61 3567.93 2516.78C3564.88 2543.45 3562.72 2573.02 3562.1 2605.37L3558.4 2776.36C3558.4 2776.36 3516.7 2793.61 3487.1 2770.77C3487.1 2770.77 3449.79 2512.62 3451.03 2357.29C3451.46 2301.5 3452.38 2245.81 3453.39 2197.34C3455.16 2110.85 3457.27 2047.36 3457.27 2047.36C3457.27 2047.36 3491.18 2054.25 3514.04 2060.01C3532.69 2086.84 3540.38 2096.77 3540.38 2096.77L3617.56 2220.97Z" fill="url(#paint15_linear)"/>
<path d="M3617.56 2220.97L3610.15 2341.66C3610.15 2341.66 3581.02 2402.61 3567.93 2516.78C3560.28 2495.48 3550.93 2459.89 3543.51 2402.26C3531.86 2311.65 3477.5 2230 3453.31 2197.36C3455.09 2110.87 3457.2 2047.38 3457.2 2047.38C3457.2 2047.38 3491.09 2054.27 3513.96 2060.04C3532.62 2086.86 3540.3 2096.79 3540.3 2096.79L3617.56 2220.97Z" fill="#1B3BAF"/>
<path d="M3761.56 2047.38C3761.56 2047.38 3766.49 2252.25 3769.78 2340.92C3773.08 2429.57 3775.6 2738.72 3763.96 2782.69C3763.96 2782.69 3724.47 2794.61 3693.2 2782.69C3693.2 2782.69 3663.73 2591.81 3623.69 2431.05C3569.33 2213.1 3513.83 2060.04 3513.83 2060.04C3513.83 2060.04 3589.66 2090.59 3761.56 2047.38Z" fill="url(#paint16_linear)"/>
<path d="M3761.54 2047.38C3761.54 2047.38 3593.63 2113.1 3457.12 2047.38C3457.12 2047.38 3476.25 1812.2 3503.38 1592.14C3503.38 1592.14 3581.91 1571.17 3633.19 1590.39C3657.59 1603.67 3761.7 1651.73 3760.46 1784.7C3759.22 1917.69 3761.54 2047.38 3761.54 2047.38Z" fill="#E3D2FF"/>
<path d="M3878.6 2083.44C3878.6 2083.44 3817.72 2142.55 3722.19 2163.98C3690.68 2171.15 3658.02 2173.3 3625.67 2170.32C3625.67 2170.32 3637.08 2116.75 3625.88 2071.69C3614.86 2027.53 3603.98 1962.92 3603.98 1880.09C3603.98 1733.64 3633.09 1590.29 3633.09 1590.29C3637.84 1590.93 3642.54 1591.79 3647.19 1592.88C3682.77 1602.1 3716.67 1615.98 3747.83 1634.08C3781.37 1653.56 3799.13 1670.83 3799.13 1670.83C3799.13 1670.83 3790.77 1680.44 3782.83 1701.63C3772.73 1728.48 3763.29 1773.96 3772.37 1842.06C3788.75 1963.92 3842.01 2070.68 3878.6 2083.44Z" fill="url(#paint17_linear)"/>
<path d="M3878.6 2083.45C3878.6 2083.45 3817.73 2142.56 3722.2 2164C3829.18 2114.01 3774.1 2039.63 3760.79 1991.96C3747.32 1943.61 3687.54 1990.96 3687.54 1990.96L3633.19 1783.3C3633.19 1783.3 3638.45 1698.7 3674.06 1662.54C3708.88 1627.18 3746.31 1633.83 3747.92 1634.12L3782.86 1701.67C3772.77 1728.53 3763.33 1774.01 3772.39 1842.11C3788.74 1963.93 3842.01 2070.7 3878.6 2083.45Z" fill="url(#paint18_linear)"/>
<path d="M3670.21 1856.9C3670.21 1856.9 3637.85 1912.03 3632.92 1982.06C3629.99 2023.53 3627.45 2053.84 3625.88 2071.7C3614.86 2027.55 3603.98 1962.94 3603.98 1880.12C3603.98 1733.66 3633.09 1590.33 3633.09 1590.33C3637.88 1591.09 3642.57 1591.96 3647.19 1592.92C3649.12 1643.49 3658.11 1693.65 3673.96 1742.17L3627.37 1795.83C3627.37 1795.83 3645 1841.51 3670.21 1856.9Z" fill="url(#paint19_linear)"/>
<path d="M3555.02 1576.66L3535.9 1604.49L3533.65 1611.71C3533.65 1611.71 3525.28 1687.48 3502.38 1826.88C3489.59 1904.63 3482.96 1976.28 3479.63 2029.32C3479.47 2031.85 3479.39 2034.45 3479.39 2037.06C3479.71 2053.36 3481.89 2069.59 3485.9 2085.49C3492.7 2112.98 3502.07 2139.91 3513.88 2165.97C3513.88 2165.97 3454.56 2152.73 3403.85 2141.54C3374.75 2135.09 3348.36 2129.32 3337.86 2127.16C3337.86 2127.16 3353.64 2097.44 3369.25 2038.26C3371.83 2028.28 3374.42 2017.45 3377.02 2005.76C3388.35 1953.82 3398.05 1885.27 3399.35 1800.23C3400.74 1710.31 3425.46 1653.61 3436.06 1629.11C3439.11 1622.11 3443.81 1615.8 3449.85 1610.65C3455.9 1605.48 3463.11 1601.58 3471.01 1599.22L3546.95 1576.66H3555.02Z" fill="url(#paint20_linear)"/>
<path d="M3403.86 2141.52C3432.16 2095.22 3369.22 2038.24 3369.22 2038.24C3371.82 2028.25 3374.41 2017.42 3376.99 2005.75L3485.84 2085.47C3492.65 2112.96 3502.01 2139.89 3513.83 2165.95C3513.83 2165.95 3454.57 2152.72 3403.86 2141.52Z" fill="#2B02C1"/>
<path d="M3535.89 1604.47L3533.65 1611.69C3533.65 1611.69 3525.28 1687.47 3502.37 1826.87C3489.58 1904.61 3482.96 1976.27 3479.63 2029.3C3478.83 1987.61 3440.39 1865.41 3440.39 1865.41C3440.39 1865.41 3474.38 1835.05 3475.49 1823.23C3476.59 1811.39 3446.36 1781.05 3446.36 1781.05L3471.05 1739.83C3495.73 1698.61 3524.4 1594.47 3524.4 1594.47L3534.41 1599.22L3535.89 1604.47Z" fill="url(#paint21_linear)"/>
<path d="M3617.57 1583.26C3596.21 1600.83 3575.19 1618.26 3575.19 1618.26L3550.72 1608.67L3547.63 1607.46L3541.46 1582.13V1558.67L3614.68 1528.5C3614.68 1528.5 3614.39 1538.75 3614.56 1550.64C3614.77 1562.86 3615.49 1576.84 3617.57 1583.26Z" fill="url(#paint22_linear)"/>
<path d="M3614.56 1550.64C3571.7 1567.29 3554.02 1608.65 3554.02 1608.65H3550.72L3547.63 1607.43L3541.46 1582.1V1558.64L3614.68 1528.48C3614.68 1528.48 3614.39 1538.75 3614.56 1550.64Z" fill="#C1581E"/>
<path d="M3486.77 1455.85C3486.77 1455.85 3469.86 1565.71 3493.37 1571.33C3536.96 1581.75 3616.78 1533.34 3616.78 1533.34L3626.65 1527.01L3641.87 1498.69L3615.96 1460.32C3615.96 1460.32 3575.19 1427.54 3486.77 1455.85Z" fill="url(#paint23_linear)"/>
<path d="M3641.83 1524.88C3634.34 1529.48 3625.74 1532.37 3616.75 1533.31C3616.75 1533.31 3630.74 1517.68 3627.45 1497.93C3624.15 1478.19 3595.37 1484.52 3587.13 1508.48C3587.13 1508.48 3592.47 1469.81 3579.37 1457.26C3579.37 1457.26 3502.98 1481.87 3419.59 1465.95C3358.8 1454.37 3352.26 1371.69 3387.23 1326.46C3400.19 1309.68 3418.89 1298.04 3442.65 1297.09C3530.4 1293.57 3517.78 1351.22 3518.89 1373.07C3520 1394.92 3544.67 1399.44 3571 1389.47C3597.32 1379.5 3649.99 1378.05 3635.71 1416.29C3621.45 1454.54 3651.63 1446.57 3664.25 1468.44C3673.72 1485.07 3664.11 1511.29 3641.83 1524.88Z" fill="url(#paint24_linear)"/>
<path d="M3579.5 1640.23C3579.5 1640.23 3573.13 1842.5 3592.87 1925.2L3551.74 2047.38C3551.74 2047.38 3500.72 1975.87 3494.14 1939.36C3508.12 1864.84 3557.5 1636.89 3557.5 1636.89L3579.5 1640.23Z" fill="url(#paint25_linear)"/>
<path d="M3603.97 1624.96C3603.97 1624.96 3583.02 1649.91 3564.91 1647.69C3546.79 1645.45 3541.46 1615.27 3541.46 1615.27L3561.36 1604.85L3574.79 1607.07L3587.95 1604.85L3603.97 1624.96Z" fill="url(#paint26_linear)"/>
<path d="M3574.79 1607.08C3574.79 1607.08 3596.99 1610.07 3606.03 1643.59L3633.22 1590.32C3633.22 1590.32 3630.52 1574.34 3616.23 1576.93L3574.79 1607.08Z" fill="url(#paint27_linear)"/>
<path d="M3574.78 1607.08C3574.78 1607.08 3549.69 1608.21 3530.75 1640.24L3523.77 1589.27C3523.77 1589.27 3527.47 1577.35 3541.45 1579.95L3574.78 1607.08Z" fill="url(#paint28_linear)"/>
<path d="M3908.77 2467.17C3908.77 2467.17 3892.55 2553.55 3777.66 2545.02L3677.01 2415.07L3222.47 1827.67L3074.33 1636.26L3205.44 1558.38L3250.33 1616.38L3894.95 2449.39L3908.77 2467.17Z" fill="url(#paint29_linear)"/>
<path d="M3222.49 1827.6L3074.36 1636.19L3205.47 1558.31L3250.35 1616.31C3207.85 1670.53 3214.27 1770.32 3222.49 1827.6Z" fill="#77AFF4"/>
<path d="M3255.05 1555.43L3051.47 1682.33C3039.11 1690.04 3021.31 1686.06 3011.7 1673.41L2976.15 1625.08L3227.32 1474.71L3260.05 1518.65C3269.66 1531.21 3267.41 1547.72 3255.05 1555.43Z" fill="#0A69EE"/>
<path d="M3226.21 1498.49C3440.86 1304.13 3440.86 989.023 3226.21 794.681C3011.56 600.328 2663.55 600.328 2448.91 794.681C2234.26 989.023 2234.26 1304.13 2448.91 1498.49C2663.55 1692.84 3011.56 1692.84 3226.21 1498.49Z" fill="url(#paint30_linear)"/>
<path d="M3119.33 1401.72C3274.95 1260.82 3274.95 1032.36 3119.33 891.46C2963.71 750.545 2711.4 750.545 2555.77 891.46C2400.16 1032.36 2400.16 1260.82 2555.77 1401.72C2711.4 1542.64 2963.71 1542.64 3119.33 1401.72Z" fill="#F5F8FF"/>
<path d="M3302.85 1877.94L3276.71 1916.07C3276.71 1916.07 3245.29 1912.56 3228.17 1897.64C3224.89 1894.93 3222.17 1891.69 3220.15 1888.09C3215.16 1878.29 3221.05 1870.22 3220.9 1856.46C3220.7 1838.61 3237.78 1840.25 3248.07 1846.15C3258.36 1852.06 3265.39 1843.43 3271.5 1851.43C3274.67 1855.57 3282.96 1862.49 3290.21 1868.21C3296.93 1873.69 3302.85 1877.94 3302.85 1877.94Z" fill="url(#paint31_linear)"/>
<path d="M3302.86 1877.96L3276.72 1916.1C3276.72 1916.1 3245.31 1912.58 3228.18 1897.66C3224.89 1894.95 3222.17 1891.7 3220.17 1888.11C3220.17 1888.11 3248.4 1911.68 3290.05 1868.3C3296.94 1873.72 3302.86 1877.96 3302.86 1877.96Z" fill="#C1581E"/>
<path d="M3324.43 1880.49L3299.77 1871.12C3299.77 1871.12 3271.13 1903.05 3270.65 1918.58L3302.01 1928.88L3324.43 1880.49Z" fill="#E3D2FF"/>
<path d="M3819.36 1787.46C3791.89 1878.22 3720.73 1981.58 3667.94 2001.58C3636.48 2010.37 3582.06 2009.19 3523.95 2002.6H3523.84C3429.48 1991.91 3325.43 1966.89 3294.13 1946.48C3292.66 1945.51 3291.92 1945.03 3290.61 1943.21C3289.78 1942.06 3288.64 1939.18 3288.45 1937.78C3288.16 1935.56 3288.46 1934.32 3289.06 1931.84C3296.06 1902.88 3309.86 1884.53 3317.22 1876.36C3318.5 1874.95 3319.13 1874.25 3320.39 1873.41C3321.33 1872.79 3322.96 1872.06 3324.04 1871.79C3325.51 1871.41 3326.67 1871.41 3328.99 1871.41C3365.14 1871.38 3533.36 1872.16 3574.87 1888.57C3642.67 1915.41 3621.95 1549.59 3799.37 1652.05C3836.6 1673.6 3837.41 1727.82 3819.36 1787.46Z" fill="#F5F8FF"/>
<path d="M3819.36 1787.47C3791.89 1878.23 3720.73 1981.58 3667.94 2001.58C3636.48 2010.37 3582.07 2009.2 3523.95 2002.6C3732.75 2017.13 3818.71 1789.19 3819.36 1787.47Z" fill="#2A00C4"/>
<path d="M3641.83 1524.89C3634.34 1529.48 3625.74 1532.38 3616.75 1533.32C3616.75 1533.32 3630.74 1517.69 3627.45 1497.94C3624.15 1478.2 3595.37 1484.53 3587.13 1508.49C3587.13 1508.49 3592.47 1469.81 3579.37 1457.27C3579.37 1457.27 3502.98 1481.88 3419.59 1465.95C3358.8 1454.37 3352.26 1371.71 3387.23 1326.47C3387.23 1326.47 3369.5 1438.96 3462.13 1433.96C3554.76 1428.97 3584.14 1419.74 3596.35 1434.14C3608.56 1448.53 3602.45 1466.09 3602.45 1466.09C3602.45 1466.09 3638.49 1462.34 3645.99 1482.54C3653.48 1502.75 3641.83 1524.89 3641.83 1524.89Z" fill="#7F2412"/>
<path d="M3908.77 2467.16C3908.77 2467.16 3892.55 2553.55 3777.66 2545.02L3677.01 2415.07C3800.43 2534.71 3894.91 2449.36 3894.91 2449.36L3908.77 2467.16Z" fill="#77AFF4"/>
<path d="M3071.07 999.52V1293.68C3071.07 1304.05 3066.52 1314.01 3058.42 1321.36C3050.32 1328.69 3039.32 1332.82 3027.87 1332.83H2647.23C2635.78 1332.82 2624.78 1328.69 2616.68 1321.34C2608.58 1314.01 2604.02 1304.05 2604.02 1293.68V999.52C2604.02 989.137 2608.57 979.178 2616.68 971.845C2624.78 964.499 2635.76 960.373 2647.23 960.373H3027.87C3039.32 960.373 3050.32 964.499 3058.42 971.845C3066.52 979.178 3071.07 989.137 3071.07 999.52Z" fill="#BFBFBF"/>
<path d="M2692.11 1245.34H2982.99L2919.68 1157.11L2870.2 1217.13L2791.54 1097.54L2692.11 1245.34Z" fill="#0A69EE"/>
<path d="M2904.33 1112.32C2924 1112.32 2939.96 1097.88 2939.96 1080.07C2939.96 1062.26 2924 1047.81 2904.33 1047.81C2884.65 1047.81 2868.71 1062.26 2868.71 1080.07C2868.71 1097.88 2884.65 1112.32 2904.33 1112.32Z" fill="white"/>
<path d="M240.832 1550.83C242.202 1535.74 262.11 1483.24 259.776 1464.51C257.527 1446.48 256.107 1443.12 249.388 1444.2C244.541 1444.97 239.281 1479.9 233.712 1476.45H171.535C170.608 1489.22 170.213 1504.3 170.644 1522.08C172.045 1579.77 172.83 1615.18 174.973 1614.39C177.116 1613.6 256.075 1602.81 256.075 1602.81C256.075 1602.81 239.461 1565.93 240.832 1550.83Z" fill="#FD8B66"/>
<path d="M835.983 1476.45C830.414 1479.9 825.153 1444.97 820.307 1444.2C813.588 1443.12 812.168 1446.48 809.92 1464.51C807.585 1483.24 827.493 1535.74 828.864 1550.83C830.234 1565.93 813.622 1602.81 813.622 1602.81C813.622 1602.81 892.578 1613.6 894.723 1614.39C896.867 1615.18 897.654 1579.77 899.051 1522.08C899.483 1504.3 899.087 1489.22 898.16 1476.45H835.983Z" fill="#FD8B66"/>
<path d="M815.755 1567.54L910.987 1587.74C917.089 1634.69 894.901 1844.03 870.667 1856.87C768.634 1910.96 600.25 1821.44 600.25 1821.44L588.118 1723.89C588.118 1723.89 624.58 1703.16 687.653 1717.7C740.281 1729.83 795.781 1747.23 795.781 1747.23L815.755 1567.54Z" fill="url(#paint32_linear)"/>
<path d="M737.585 2756.71L735.301 2743.2H600.904L604.662 2765.32C604.662 2765.32 626.816 2816.04 629.19 2815.61C631.564 2815.18 741.541 2808.94 741.541 2808.94L737.585 2756.71Z" fill="#FD8B66"/>
<path d="M641.568 1997.77C641.568 1997.77 665.16 2041.78 665.774 2081.01C666.036 2097.71 679.035 2220.22 693.879 2355.41C713.902 2537.77 737.279 2743.2 737.279 2743.2H583.858L547.87 2414.99L494.35 2054.07C494.35 2025.51 409.245 2005.5 435.443 1997.77L641.568 1997.77Z" fill="url(#paint33_linear)"/>
<path d="M612.187 2832.65H852.346C842.071 2814.66 836.7 2800.09 775.987 2788.57L736.296 2760.24C736.296 2760.24 714.769 2782.58 679.245 2786.32C625.885 2791.93 600.904 2768.19 600.904 2768.19L612.187 2832.65Z" fill="url(#paint34_linear)"/>
<path d="M327.935 2756.71L330.273 2743.2H468.791L463.95 2765.32C463.95 2765.32 441.281 2816.04 438.855 2815.61C436.429 2815.18 323.893 2808.94 323.893 2808.94L327.935 2756.71Z" fill="#FD8B66"/>
<path d="M605.166 1997.77L523.228 2405.55L477.456 2743.2H328.153C328.153 2743.2 386.095 2061.95 396.094 1997.77H605.166Z" fill="url(#paint35_linear)"/>
<path d="M454.806 2835.22L238.656 2836.91C238.656 2836.91 238.249 2802.38 302.565 2785.75L325.946 2760.24C325.946 2760.24 347.98 2783.38 384.342 2787.24C438.959 2793.05 464.528 2768.47 464.528 2768.47L460.616 2795.33L454.806 2835.22Z" fill="url(#paint36_linear)"/>
<path d="M587.28 1636.5C585.246 1644.57 580.156 1649.8 575.912 1648.18C571.668 1646.56 569.877 1638.71 571.911 1630.64C573.945 1622.56 579.035 1617.33 583.279 1618.95C587.523 1620.57 589.314 1628.43 587.28 1636.5Z" fill="#FD8B66"/>
<path d="M660.568 2044.62H392.079L419.492 1805.09C419.492 1751.53 465.578 1708.11 522.428 1708.11H545.242C602.092 1708.11 648.178 1751.53 648.178 1805.09L650.678 1906.9L660.568 2044.62Z" fill="url(#paint37_linear)"/>
<path d="M516.931 1665.52C517.42 1679.09 515.78 1701.57 507.569 1711.27C503.919 1719.52 524.463 1742.11 547.822 1750.71C563.798 1738.34 563.899 1716.92 561.273 1710.62C561.273 1710.62 548.258 1683.64 550.337 1665.52H516.931Z" fill="#FD8B66"/>
<path d="M571.688 1608.63L575.333 1661.37C575.333 1661.37 570.207 1679.96 556.388 1681.59C538.597 1683.7 518.833 1683.42 514.955 1669.34C512.953 1661.84 511.927 1654.12 511.903 1646.35C502.852 1647.73 489.54 1639.7 496.126 1625.08C501.854 1612.36 511.274 1625.86 511.274 1625.86L510.654 1603.17C517.679 1593.38 561.074 1573.95 571.688 1608.63Z" fill="#FD8B66"/>
<path d="M509.719 1619.61C509.719 1619.61 519.045 1617.06 522.093 1604.82C522.093 1604.82 597.184 1628.74 617.951 1583.55C594.334 1562.58 585.783 1547.4 558.501 1551.05C534.931 1554.21 512.083 1565.84 512.083 1565.84C512.083 1565.84 502.463 1560.59 490.097 1574.51C480.732 1590.42 487.984 1601.63 500.442 1618.4C504.464 1623.82 504.793 1629.02 507.435 1635.7L509.719 1619.61Z" fill="#251138"/>
<path d="M575.596 1600.44C558.654 1600.44 543.616 1593.61 531.382 1582.79C527.786 1579.58 524.697 1575.87 522.214 1571.8C519.046 1578.9 514.553 1585.38 508.958 1590.92C504.647 1595.03 499.728 1598.51 494.36 1601.23C496.88 1606.17 500.314 1611.36 504.292 1617.17C508.259 1622.97 508.584 1628.54 511.19 1635.7L513.448 1618.46C513.448 1618.46 522.646 1615.74 525.653 1602.62C525.653 1602.62 594.808 1626.53 617.951 1584.49C606.675 1594.41 590.776 1600.44 575.596 1600.44Z" fill="#251138" fill-opacity="0.21"/>
<path d="M509.98 1644.22C509.774 1644.22 509.571 1644.18 509.383 1644.1C509.196 1644.03 509.03 1643.92 508.895 1643.78L498.968 1633.53C498.846 1633.41 498.753 1633.26 498.694 1633.1C498.636 1632.95 498.613 1632.78 498.627 1632.61C498.641 1632.45 498.692 1632.28 498.777 1632.14C498.861 1631.99 498.978 1631.85 499.121 1631.75C499.263 1631.64 499.428 1631.55 499.606 1631.5C499.785 1631.45 499.973 1631.43 500.16 1631.44C500.347 1631.46 500.53 1631.5 500.697 1631.58C500.865 1631.65 501.014 1631.75 501.137 1631.88L511.063 1642.12C511.241 1642.31 511.356 1642.53 511.394 1642.77C511.432 1643.01 511.392 1643.26 511.278 1643.48C511.164 1643.7 510.981 1643.89 510.751 1644.02C510.521 1644.15 510.254 1644.22 509.98 1644.22V1644.22Z" fill="#DD4B9B"/>
<path d="M500.397 1708.11L545.502 1748.83L528.678 1767.74L481.576 1714.51L500.397 1708.11Z" fill="white"/>
<path d="M545.502 1744.67L568.477 1759.22L583.858 1713.22L561.721 1708.11L545.502 1744.67Z" fill="white"/>
<path d="M573.566 1614.4C547.255 1614.4 525.035 1599.9 524.776 1599.73C524.48 1599.53 524.278 1599.23 524.214 1598.89C524.15 1598.55 524.23 1598.2 524.436 1597.92C524.642 1597.64 524.958 1597.44 525.313 1597.38C525.668 1597.32 526.034 1597.4 526.331 1597.59C526.623 1597.79 555.898 1616.87 586.448 1610.51C586.623 1610.47 586.805 1610.47 586.983 1610.49C587.161 1610.52 587.332 1610.59 587.484 1610.68C587.637 1610.77 587.769 1610.89 587.872 1611.03C587.976 1611.17 588.049 1611.33 588.087 1611.5C588.126 1611.67 588.128 1611.84 588.096 1612.01C588.063 1612.18 587.995 1612.34 587.897 1612.48C587.798 1612.63 587.67 1612.75 587.521 1612.85C587.372 1612.95 587.204 1613.01 587.027 1613.05C582.604 1613.96 578.091 1614.41 573.566 1614.4V1614.4Z" fill="#993F00"/>
<path d="M514.029 1567.54C513.707 1567.54 513.393 1567.42 513.125 1567.2C512.856 1566.97 512.646 1566.65 512.519 1566.27C512.394 1565.92 509.631 1558.25 500.402 1559.01C500.184 1559.03 499.966 1559 499.758 1558.91C499.551 1558.83 499.359 1558.69 499.193 1558.51C499.028 1558.33 498.893 1558.11 498.795 1557.86C498.698 1557.61 498.641 1557.34 498.627 1557.06C498.612 1556.78 498.642 1556.5 498.713 1556.24C498.784 1555.98 498.895 1555.73 499.041 1555.53C499.186 1555.32 499.362 1555.15 499.559 1555.03C499.756 1554.91 499.97 1554.84 500.188 1554.83C511.863 1553.85 515.394 1564.19 515.541 1564.63C515.646 1564.95 515.688 1565.3 515.663 1565.64C515.638 1565.99 515.546 1566.32 515.396 1566.6C515.247 1566.89 515.044 1567.13 514.805 1567.29C514.566 1567.46 514.3 1567.54 514.029 1567.54V1567.54Z" fill="#B55100"/>
<path d="M546.053 1682.55C517.76 1682.55 511.754 1668.07 511.494 1667.41C511.362 1667.06 511.381 1666.67 511.547 1666.34C511.713 1666 512.013 1665.74 512.382 1665.61C512.751 1665.47 513.159 1665.49 513.518 1665.64C513.877 1665.79 514.159 1666.07 514.302 1666.42V1666.42C514.555 1667.05 520.858 1681.74 552.412 1679.48C552.608 1679.47 552.805 1679.49 552.992 1679.55C553.179 1679.6 553.353 1679.7 553.502 1679.82C553.651 1679.94 553.774 1680.09 553.863 1680.25C553.952 1680.42 554.005 1680.6 554.02 1680.79C554.035 1680.97 554.011 1681.16 553.95 1681.34C553.889 1681.51 553.792 1681.68 553.663 1681.82C553.535 1681.96 553.379 1682.08 553.203 1682.16C553.028 1682.24 552.836 1682.29 552.64 1682.31C550.321 1682.48 548.125 1682.56 546.053 1682.55Z" fill="#DD4B9B"/>
<path d="M254.829 1567.54L158.648 1587.93C152.486 1635.33 177.005 1843.7 199.37 1859.62C254.722 1899.01 379.397 1870.18 438.553 1833.14C495.2 1797.67 473.046 1722.35 473.046 1722.35C473.046 1722.35 447.91 1704.45 384.207 1719.13C331.056 1731.37 275.001 1748.94 275.001 1748.94L254.829 1567.54Z" fill="url(#paint38_linear)"/>
<path d="M528.455 1767.93L541.362 1784.79H555.424L562.549 1765.12L543.569 1750.71L528.455 1767.93Z" fill="url(#paint39_linear)"/>
<path d="M543.436 1784.79L528.455 1926.06L553.737 1984.99L575.334 1927.26L557.834 1784.79L543.436 1784.79Z" fill="url(#paint40_linear)"/>
<path d="M659.158 2027.58H393.489C393.115 2027.58 392.757 2027.13 392.492 2026.34C392.228 2025.54 392.079 2024.45 392.079 2023.32C392.079 2022.19 392.228 2021.11 392.492 2020.31C392.757 2019.51 393.115 2019.06 393.489 2019.06H659.158C659.532 2019.06 659.891 2019.51 660.155 2020.31C660.42 2021.11 660.568 2022.19 660.568 2023.32C660.568 2024.45 660.42 2025.54 660.155 2026.34C659.891 2027.13 659.532 2027.58 659.158 2027.58V2027.58Z" fill="white"/>
<path d="M569.726 2044.62H525.538C525.181 2044.62 524.839 2044.47 524.587 2044.19C524.334 2043.91 524.193 2043.54 524.192 2043.15V2020.54C524.192 2020.35 524.227 2020.15 524.295 2019.98C524.362 2019.8 524.461 2019.63 524.586 2019.5C524.711 2019.36 524.86 2019.25 525.023 2019.18C525.186 2019.1 525.361 2019.06 525.538 2019.06H569.726C569.903 2019.06 570.078 2019.1 570.241 2019.18C570.404 2019.25 570.552 2019.36 570.677 2019.5C570.802 2019.63 570.901 2019.8 570.969 2019.98C571.037 2020.15 571.071 2020.35 571.071 2020.54V2043.15C571.071 2043.54 570.929 2043.91 570.677 2044.19C570.425 2044.47 570.083 2044.62 569.726 2044.62V2044.62ZM526.883 2041.67H568.38V2022.02H526.883V2041.67Z" fill="white"/>
<path d="M539.27 2351.32C539.149 2351.32 539.029 2351.31 538.909 2351.29C538.31 2351.2 537.772 2350.88 537.416 2350.4C537.059 2349.92 536.912 2349.33 537.007 2348.74L568.25 2157.25C568.336 2156.73 568.61 2156.25 569.025 2155.91C569.439 2155.56 569.966 2155.37 570.511 2155.37H590.091C590.699 2155.37 591.281 2155.61 591.71 2156.02C592.14 2156.44 592.381 2157.01 592.381 2157.6C592.381 2158.19 592.14 2158.75 591.71 2159.17C591.281 2159.59 590.699 2159.82 590.091 2159.82H572.466L541.529 2349.44C541.443 2349.96 541.169 2350.44 540.755 2350.78C540.341 2351.13 539.815 2351.32 539.27 2351.32V2351.32Z" fill="#080867"/>
<path d="M389.254 2751.72C389.207 2751.72 389.159 2751.72 389.112 2751.71C388.734 2751.68 388.386 2751.5 388.145 2751.23C387.903 2750.96 387.788 2750.61 387.825 2750.25L461.67 2045.83C461.707 2045.47 461.892 2045.15 462.186 2044.92C462.479 2044.7 462.857 2044.59 463.235 2044.63C463.613 2044.66 463.962 2044.83 464.203 2045.11C464.445 2045.38 464.56 2045.73 464.523 2046.08L390.678 2750.51C390.643 2750.84 390.478 2751.15 390.215 2751.37C389.952 2751.59 389.609 2751.72 389.254 2751.72V2751.72Z" fill="white"/>
<path d="M667.666 2751.72C667.334 2751.72 667.012 2751.61 666.757 2751.41C666.501 2751.21 666.329 2750.93 666.268 2750.63L558.315 2203.83C558.277 2203.66 558.276 2203.48 558.313 2203.31C558.35 2203.13 558.423 2202.97 558.529 2202.82C558.634 2202.67 558.77 2202.54 558.928 2202.45C559.087 2202.35 559.264 2202.28 559.45 2202.25C559.637 2202.22 559.828 2202.22 560.013 2202.26C560.198 2202.3 560.373 2202.37 560.528 2202.47C560.683 2202.57 560.815 2202.7 560.915 2202.85C561.016 2203 561.084 2203.17 561.115 2203.35L669.067 2750.14C669.101 2750.31 669.099 2750.49 669.06 2750.66C669.022 2750.83 668.947 2750.99 668.842 2751.14C668.736 2751.28 668.601 2751.41 668.444 2751.5C668.287 2751.6 668.112 2751.66 667.929 2751.7C667.842 2751.71 667.754 2751.72 667.666 2751.72V2751.72Z" fill="url(#paint41_linear)"/>
<path d="M461.648 2082.96C461.3 2082.96 460.966 2082.84 460.711 2082.64C460.456 2082.44 460.299 2082.16 460.271 2081.86C460.243 2081.57 460.347 2081.27 460.562 2081.04C460.776 2080.8 461.086 2080.65 461.429 2080.6C494.073 2076.08 491.66 2047.12 491.541 2045.89C491.516 2045.58 491.635 2045.27 491.872 2045.03C492.109 2044.8 492.444 2044.65 492.806 2044.62C493.169 2044.6 493.528 2044.69 493.808 2044.89C494.087 2045.09 494.264 2045.38 494.3 2045.69C494.331 2046.01 497.064 2078.07 461.87 2082.94C461.797 2082.95 461.722 2082.96 461.648 2082.96Z" fill="white"/>
<path d="M663.493 2082.95C663.459 2082.95 663.424 2082.95 663.389 2082.95C636.901 2081.13 635.015 2046.2 634.999 2045.85C634.985 2045.54 635.112 2045.23 635.351 2045C635.591 2044.77 635.924 2044.63 636.278 2044.62C636.631 2044.61 636.976 2044.72 637.236 2044.93C637.496 2045.15 637.65 2045.44 637.664 2045.76C637.679 2046.09 639.467 2078.93 663.594 2080.59C663.939 2080.61 664.26 2080.75 664.491 2080.98C664.721 2081.21 664.842 2081.51 664.829 2081.82C664.816 2082.12 664.669 2082.41 664.42 2082.63C664.171 2082.84 663.838 2082.96 663.493 2082.96L663.493 2082.95Z" fill="white"/>
<path d="M159.123 1614.4C158.767 1614.4 158.424 1614.26 158.159 1614C157.894 1613.74 157.728 1613.39 157.691 1613.01C157.655 1612.62 157.751 1612.24 157.961 1611.93C158.172 1611.62 158.482 1611.41 158.83 1611.33L258.235 1588.87C258.608 1588.79 258.996 1588.87 259.315 1589.09C259.634 1589.32 259.857 1589.67 259.935 1590.07C260.013 1590.47 259.94 1590.89 259.731 1591.24C259.523 1591.58 259.196 1591.82 258.824 1591.91L159.419 1614.36C159.322 1614.38 159.223 1614.4 159.123 1614.4Z" fill="white"/>
<path d="M249.652 1754.97C249.062 1754.97 248.491 1754.76 248.043 1754.37C247.595 1753.99 247.299 1753.46 247.21 1752.88C247.12 1752.29 247.241 1751.7 247.553 1751.2C247.865 1750.7 248.345 1750.33 248.908 1750.15L273.819 1742.3C274.442 1742.11 275.115 1742.17 275.691 1742.47C276.268 1742.77 276.701 1743.29 276.898 1743.91C277.094 1744.53 277.037 1745.2 276.74 1745.78C276.443 1746.36 275.929 1746.79 275.31 1747L250.398 1754.85C250.157 1754.93 249.905 1754.97 249.652 1754.97V1754.97Z" fill="#080867"/>
<path d="M820.267 1754.97C820.058 1754.97 819.85 1754.93 819.65 1754.87L794.343 1747.03C794.056 1746.94 793.787 1746.79 793.552 1746.59C793.317 1746.39 793.12 1746.15 792.973 1745.86C792.827 1745.58 792.733 1745.27 792.698 1744.94C792.662 1744.62 792.686 1744.29 792.767 1743.98C792.848 1743.67 792.985 1743.37 793.17 1743.12C793.356 1742.86 793.585 1742.65 793.846 1742.49C794.106 1742.34 794.393 1742.24 794.689 1742.2C794.985 1742.17 795.284 1742.2 795.57 1742.29L820.877 1750.13C821.4 1750.3 821.851 1750.66 822.148 1751.16C822.445 1751.66 822.567 1752.25 822.492 1752.84C822.418 1753.43 822.151 1753.97 821.741 1754.36C821.332 1754.75 820.807 1754.97 820.264 1754.97H820.267Z" fill="#080867"/>
<path d="M910.581 1614.4C910.469 1614.4 910.357 1614.38 910.248 1614.36L810.83 1591.56C810.647 1591.52 810.474 1591.44 810.322 1591.34C810.17 1591.23 810.04 1591.1 809.942 1590.94C809.843 1590.79 809.777 1590.62 809.747 1590.44C809.718 1590.26 809.725 1590.08 809.769 1589.9C809.812 1589.72 809.891 1589.56 810.002 1589.41C810.112 1589.26 810.251 1589.14 810.411 1589.04C810.572 1588.95 810.75 1588.89 810.936 1588.86C811.121 1588.83 811.311 1588.84 811.494 1588.88L910.912 1611.68C911.253 1611.76 911.552 1611.95 911.753 1612.23C911.954 1612.51 912.042 1612.84 912.001 1613.18C911.96 1613.51 911.793 1613.82 911.531 1614.05C911.27 1614.27 910.931 1614.4 910.581 1614.4V1614.4Z" fill="white"/>
</g>
<defs>
<linearGradient id="paint0_linear" x1="1707.43" y1="487.946" x2="3384.02" y2="487.946" gradientUnits="userSpaceOnUse">
<stop stop-color="#2D7FEF"/>
<stop offset="1" stop-color="#2D7FEF" stop-opacity="0"/>
</linearGradient>
<linearGradient id="paint1_linear" x1="1739.77" y1="1095.49" x2="1739.77" y2="1942.91" gradientUnits="userSpaceOnUse">
<stop stop-color="#1C6FC4"/>
<stop offset="0.847875" stop-color="#02298A"/>
<stop offset="1" stop-color="#144591"/>
</linearGradient>
<linearGradient id="paint2_linear" x1="671.335" y1="550.182" x2="671.335" y2="2381.22" gradientUnits="userSpaceOnUse">
<stop stop-color="#1C6FC4"/>
<stop offset="0.847875" stop-color="#02298A"/>
<stop offset="1" stop-color="#144591"/>
</linearGradient>
<linearGradient id="paint3_linear" x1="704.709" y1="550.209" x2="704.709" y2="2319.25" gradientUnits="userSpaceOnUse">
<stop stop-color="#1C6FC4"/>
<stop offset="0.847875" stop-color="#02298A"/>
<stop offset="1" stop-color="#144591"/>
</linearGradient>
<linearGradient id="paint4_linear" x1="1312.38" y1="576.285" x2="1312.38" y2="1014.32" gradientUnits="userSpaceOnUse">
<stop stop-color="#1C6FC4"/>
<stop offset="0.847875" stop-color="#02298A"/>
<stop offset="1" stop-color="#144591"/>
</linearGradient>
<linearGradient id="paint5_linear" x1="1017.99" y1="1063.3" x2="1017.99" y2="1710.4" gradientUnits="userSpaceOnUse">
<stop stop-color="#1C6FC4"/>
<stop offset="0.847875" stop-color="#02298A"/>
<stop offset="1" stop-color="#144591"/>
</linearGradient>
<linearGradient id="paint6_linear" x1="3753.25" y1="1174.3" x2="3753.25" y2="1216.15" gradientUnits="userSpaceOnUse">
<stop stop-color="#1C6FC4"/>
<stop offset="0.847875" stop-color="#02298A"/>
<stop offset="1" stop-color="#144591"/>
</linearGradient>
<linearGradient id="paint7_linear" x1="3672.72" y1="1174.3" x2="3672.72" y2="1216.15" gradientUnits="userSpaceOnUse">
<stop stop-color="#1C6FC4"/>
<stop offset="0.847875" stop-color="#02298A"/>
<stop offset="1" stop-color="#144591"/>
</linearGradient>
<linearGradient id="paint8_linear" x1="3833.76" y1="1174.3" x2="3833.76" y2="1216.15" gradientUnits="userSpaceOnUse">
<stop stop-color="#1C6FC4"/>
<stop offset="0.847875" stop-color="#02298A"/>
<stop offset="1" stop-color="#144591"/>
</linearGradient>
<linearGradient id="paint9_linear" x1="3306.46" y1="262.076" x2="3306.46" y2="697.251" gradientUnits="userSpaceOnUse">
<stop stop-color="#1C6FC4"/>
<stop offset="0.847875" stop-color="#02298A"/>
<stop offset="1" stop-color="#144591"/>
</linearGradient>
<linearGradient id="paint10_linear" x1="2172.9" y1="277.391" x2="2172.9" y2="823.35" gradientUnits="userSpaceOnUse">
<stop stop-color="#1C6FC4"/>
<stop offset="0.847875" stop-color="#02298A"/>
<stop offset="1" stop-color="#144591"/>
</linearGradient>
<linearGradient id="paint11_linear" x1="3388.31" y1="1605.15" x2="3388.31" y2="1849.3" gradientUnits="userSpaceOnUse">
<stop stop-color="#1C6FC4"/>
<stop offset="0.847875" stop-color="#02298A"/>
<stop offset="1" stop-color="#144591"/>
</linearGradient>
<linearGradient id="paint12_linear" x1="3388.31" y1="1605.15" x2="3388.31" y2="1849.3" gradientUnits="userSpaceOnUse">
<stop stop-color="#1C6FC4"/>
<stop offset="0.847875" stop-color="#02298A"/>
<stop offset="1" stop-color="#144591"/>
</linearGradient>
<linearGradient id="paint13_linear" x1="3793.83" y1="2801.3" x2="3747.99" y2="2848.03" gradientUnits="userSpaceOnUse">
<stop stop-color="#8A3D28"/>
<stop offset="1" stop-color="#5B2015"/>
</linearGradient>
<linearGradient id="paint14_linear" x1="422119" y1="139545" x2="422431" y2="141617" gradientUnits="userSpaceOnUse">
<stop stop-color="#8A3D28"/>
<stop offset="1" stop-color="#5B2015"/>
</linearGradient>
<linearGradient id="paint15_linear" x1="3534.28" y1="2047.36" x2="3534.28" y2="2782.6" gradientUnits="userSpaceOnUse">
<stop stop-color="#1C6FC4"/>
<stop offset="0.847875" stop-color="#02298A"/>
<stop offset="1" stop-color="#144591"/>
</linearGradient>
<linearGradient id="paint16_linear" x1="3643.19" y1="2047.38" x2="3643.19" y2="2787.99" gradientUnits="userSpaceOnUse">
<stop stop-color="#1C6FC4"/>
<stop offset="0.847875" stop-color="#02298A"/>
<stop offset="1" stop-color="#144591"/>
</linearGradient>
<linearGradient id="paint17_linear" x1="3741.29" y1="1590.29" x2="3741.29" y2="2171.62" gradientUnits="userSpaceOnUse">
<stop stop-color="#1C6FC4"/>
<stop offset="0.847875" stop-color="#02298A"/>
<stop offset="1" stop-color="#144591"/>
</linearGradient>
<linearGradient id="paint18_linear" x1="3755.89" y1="1633.44" x2="3755.89" y2="2164" gradientUnits="userSpaceOnUse">
<stop stop-color="#1C6FC4"/>
<stop offset="0.847875" stop-color="#02298A"/>
<stop offset="1" stop-color="#144591"/>
</linearGradient>
<linearGradient id="paint19_linear" x1="3638.97" y1="1590.33" x2="3638.97" y2="2071.7" gradientUnits="userSpaceOnUse">
<stop stop-color="#1C6FC4"/>
<stop offset="0.847875" stop-color="#02298A"/>
<stop offset="1" stop-color="#144591"/>
</linearGradient>
<linearGradient id="paint20_linear" x1="3446.44" y1="1576.66" x2="3446.44" y2="2165.97" gradientUnits="userSpaceOnUse">
<stop stop-color="#1C6FC4"/>
<stop offset="0.847875" stop-color="#02298A"/>
<stop offset="1" stop-color="#144591"/>
</linearGradient>
<linearGradient id="paint21_linear" x1="3488.14" y1="1594.47" x2="3488.14" y2="2029.3" gradientUnits="userSpaceOnUse">
<stop stop-color="#1C6FC4"/>
<stop offset="0.847875" stop-color="#02298A"/>
<stop offset="1" stop-color="#144591"/>
</linearGradient>
<linearGradient id="paint22_linear" x1="3558.44" y1="1592.08" x2="3604.94" y2="1535.26" gradientUnits="userSpaceOnUse">
<stop stop-color="#FFAC7D"/>
<stop offset="1" stop-color="#EA7025"/>
</linearGradient>
<linearGradient id="paint23_linear" x1="377832" y1="153539" x2="384146" y2="147845" gradientUnits="userSpaceOnUse">
<stop stop-color="#FFAC7D"/>
<stop offset="1" stop-color="#EA7025"/>
</linearGradient>
<linearGradient id="paint24_linear" x1="3550.46" y1="1350.82" x2="3513.23" y2="1457.76" gradientUnits="userSpaceOnUse">
<stop stop-color="#C65842"/>
<stop offset="1" stop-color="#982E14"/>
</linearGradient>
<linearGradient id="paint25_linear" x1="233283" y1="559025" x2="237799" y2="558997" gradientUnits="userSpaceOnUse">
<stop stop-color="#FFAC7D"/>
<stop offset="1" stop-color="#EA7025"/>
</linearGradient>
<linearGradient id="paint26_linear" x1="150868" y1="54770.7" x2="152144" y2="54264" gradientUnits="userSpaceOnUse">
<stop stop-color="#FFAC7D"/>
<stop offset="1" stop-color="#EA7025"/>
</linearGradient>
<linearGradient id="paint27_linear" x1="3604" y1="1576.64" x2="3604" y2="1643.59" gradientUnits="userSpaceOnUse">
<stop stop-color="#1C6FC4"/>
<stop offset="0.847875" stop-color="#02298A"/>
<stop offset="1" stop-color="#144591"/>
</linearGradient>
<linearGradient id="paint28_linear" x1="3549.28" y1="1579.58" x2="3549.28" y2="1640.24" gradientUnits="userSpaceOnUse">
<stop stop-color="#1C6FC4"/>
<stop offset="0.847875" stop-color="#02298A"/>
<stop offset="1" stop-color="#144591"/>
</linearGradient>
<linearGradient id="paint29_linear" x1="3491.55" y1="1558.38" x2="3491.55" y2="2545.62" gradientUnits="userSpaceOnUse">
<stop stop-color="#1C6FC4"/>
<stop offset="0.847875" stop-color="#02298A"/>
<stop offset="1" stop-color="#144591"/>
</linearGradient>
<linearGradient id="paint30_linear" x1="2837.56" y1="648.916" x2="2837.56" y2="1644.25" gradientUnits="userSpaceOnUse">
<stop stop-color="#1C6FC4"/>
<stop offset="0.847875" stop-color="#02298A"/>
<stop offset="1" stop-color="#144591"/>
</linearGradient>
<linearGradient id="paint31_linear" x1="188546" y1="103798" x2="192244" y2="103798" gradientUnits="userSpaceOnUse">
<stop stop-color="#FFAC7D"/>
<stop offset="1" stop-color="#EA7025"/>
</linearGradient>
<linearGradient id="paint32_linear" x1="750.064" y1="1567.54" x2="750.064" y2="1874.24" gradientUnits="userSpaceOnUse">
<stop stop-color="#1C6FC4"/>
<stop offset="0.847875" stop-color="#02298A"/>
<stop offset="1" stop-color="#144591"/>
</linearGradient>
<linearGradient id="paint33_linear" x1="583.857" y1="1997.77" x2="583.857" y2="2743.2" gradientUnits="userSpaceOnUse">
<stop stop-color="#1C6FC4"/>
<stop offset="0.847875" stop-color="#02298A"/>
<stop offset="1" stop-color="#144591"/>
</linearGradient>
<linearGradient id="paint34_linear" x1="726.625" y1="2760.24" x2="726.625" y2="2832.65" gradientUnits="userSpaceOnUse">
<stop stop-color="#1C6FC4"/>
<stop offset="0.847875" stop-color="#02298A"/>
<stop offset="1" stop-color="#144591"/>
</linearGradient>
<linearGradient id="paint35_linear" x1="466.66" y1="1997.77" x2="466.66" y2="2743.2" gradientUnits="userSpaceOnUse">
<stop stop-color="#1C6FC4"/>
<stop offset="0.847875" stop-color="#02298A"/>
<stop offset="1" stop-color="#144591"/>
</linearGradient>
<linearGradient id="paint36_linear" x1="351.592" y1="2760.24" x2="351.592" y2="2836.91" gradientUnits="userSpaceOnUse">
<stop stop-color="#1C6FC4"/>
<stop offset="0.847875" stop-color="#02298A"/>
<stop offset="1" stop-color="#144591"/>
</linearGradient>
<linearGradient id="paint37_linear" x1="526.324" y1="1708.11" x2="526.324" y2="2044.62" gradientUnits="userSpaceOnUse">
<stop stop-color="#1C6FC4"/>
<stop offset="0.847875" stop-color="#02298A"/>
<stop offset="1" stop-color="#144591"/>
</linearGradient>
<linearGradient id="paint38_linear" x1="317.499" y1="1567.54" x2="317.499" y2="1878.5" gradientUnits="userSpaceOnUse">
<stop stop-color="#1C6FC4"/>
<stop offset="0.847875" stop-color="#02298A"/>
<stop offset="1" stop-color="#144591"/>
</linearGradient>
<linearGradient id="paint39_linear" x1="545.502" y1="1750.71" x2="545.502" y2="1784.79" gradientUnits="userSpaceOnUse">
<stop stop-color="#1C6FC4"/>
<stop offset="0.847875" stop-color="#02298A"/>
<stop offset="1" stop-color="#144591"/>
</linearGradient>
<linearGradient id="paint40_linear" x1="551.895" y1="1784.79" x2="551.895" y2="1984.99" gradientUnits="userSpaceOnUse">
<stop stop-color="#1C6FC4"/>
<stop offset="0.847875" stop-color="#02298A"/>
<stop offset="1" stop-color="#144591"/>
</linearGradient>
<linearGradient id="paint41_linear" x1="613.689" y1="2202.23" x2="613.689" y2="2751.72" gradientUnits="userSpaceOnUse">
<stop stop-color="#1C6FC4"/>
<stop offset="0.847875" stop-color="#02298A"/>
<stop offset="1" stop-color="#144591"/>
</linearGradient>
<clipPath id="clip0">
<rect width="4087" height="2874" fill="white"/>
</clipPath>
</defs>
</svg>
