<svg width="230" height="313" viewBox="0 0 230 313" fill="none" xmlns="http://www.w3.org/2000/svg">
<g filter="url(#filter0_d)">
<rect x="4" y="34" width="221.852" height="270.039" rx="8" fill="#F4F9FF"/>
</g>
<line x1="75" y1="209.8" x2="151.795" y2="209.8" stroke="#28303F" stroke-width="0.4"/>
<path d="M70.151 245.03C68.621 245.03 67.136 244.841 65.696 244.463C64.256 244.085 63.086 243.581 62.186 242.951L63.941 239.009C64.787 239.567 65.768 240.017 66.884 240.359C68 240.701 69.098 240.872 70.178 240.872C72.23 240.872 73.256 240.359 73.256 239.333C73.256 238.793 72.959 238.397 72.365 238.145C71.789 237.875 70.853 237.596 69.557 237.308C68.135 237.002 66.947 236.678 65.993 236.336C65.039 235.976 64.22 235.409 63.536 234.635C62.852 233.861 62.51 232.817 62.51 231.503C62.51 230.351 62.825 229.316 63.455 228.398C64.085 227.462 65.021 226.724 66.263 226.184C67.523 225.644 69.062 225.374 70.88 225.374C72.122 225.374 73.346 225.518 74.552 225.806C75.758 226.076 76.82 226.481 77.738 227.021L76.091 230.99C74.291 230.018 72.545 229.532 70.853 229.532C69.791 229.532 69.017 229.694 68.531 230.018C68.045 230.324 67.802 230.729 67.802 231.233C67.802 231.737 68.09 232.115 68.666 232.367C69.242 232.619 70.169 232.88 71.447 233.15C72.887 233.456 74.075 233.789 75.011 234.149C75.965 234.491 76.784 235.049 77.468 235.823C78.17 236.579 78.521 237.614 78.521 238.928C78.521 240.062 78.206 241.088 77.576 242.006C76.946 242.924 76.001 243.662 74.741 244.22C73.481 244.76 71.951 245.03 70.151 245.03ZM95.7054 237.362C95.7054 237.398 95.6784 237.821 95.6244 238.631H84.9864C85.2024 239.387 85.6164 239.972 86.2284 240.386C86.8584 240.782 87.6414 240.98 88.5774 240.98C89.2794 240.98 89.8824 240.881 90.3864 240.683C90.9084 240.485 91.4304 240.161 91.9524 239.711L94.6524 242.519C93.2304 244.103 91.1514 244.895 88.4154 244.895C86.7054 244.895 85.2024 244.571 83.9064 243.923C82.6104 243.275 81.6024 242.375 80.8824 241.223C80.1804 240.071 79.8294 238.766 79.8294 237.308C79.8294 235.868 80.1714 234.581 80.8554 233.447C81.5574 232.295 82.5204 231.395 83.7444 230.747C84.9684 230.099 86.3454 229.775 87.8754 229.775C89.3334 229.775 90.6564 230.081 91.8444 230.693C93.0324 231.287 93.9684 232.16 94.6524 233.312C95.3544 234.446 95.7054 235.796 95.7054 237.362ZM87.9024 233.42C87.1104 233.42 86.4444 233.645 85.9044 234.095C85.3824 234.545 85.0494 235.157 84.9054 235.931H90.8994C90.7554 235.157 90.4134 234.545 89.8734 234.095C89.3514 233.645 88.6944 233.42 87.9024 233.42ZM105.55 244.895C103.93 244.895 102.481 244.571 101.203 243.923C99.9247 243.275 98.9257 242.375 98.2057 241.223C97.5037 240.071 97.1527 238.766 97.1527 237.308C97.1527 235.85 97.5037 234.554 98.2057 233.42C98.9257 232.268 99.9247 231.377 101.203 230.747C102.481 230.099 103.93 229.775 105.55 229.775C107.206 229.775 108.637 230.135 109.843 230.855C111.049 231.557 111.904 232.538 112.408 233.798L108.439 235.823C107.773 234.509 106.801 233.852 105.523 233.852C104.605 233.852 103.84 234.158 103.228 234.77C102.634 235.382 102.337 236.228 102.337 237.308C102.337 238.406 102.634 239.27 103.228 239.9C103.84 240.512 104.605 240.818 105.523 240.818C106.801 240.818 107.773 240.161 108.439 238.847L112.408 240.872C111.904 242.132 111.049 243.122 109.843 243.842C108.637 244.544 107.206 244.895 105.55 244.895ZM129.729 230.018V244.652H124.842V243.086C124.302 243.68 123.654 244.13 122.898 244.436C122.142 244.742 121.341 244.895 120.495 244.895C118.605 244.895 117.093 244.337 115.959 243.221C114.843 242.105 114.285 240.431 114.285 238.199V230.018H119.415V237.362C119.415 238.46 119.622 239.261 120.036 239.765C120.45 240.269 121.053 240.521 121.845 240.521C122.655 240.521 123.312 240.242 123.816 239.684C124.338 239.108 124.599 238.235 124.599 237.065V230.018H129.729ZM137.921 231.773C138.443 231.107 139.118 230.612 139.946 230.288C140.792 229.946 141.755 229.775 142.835 229.775V234.392C142.367 234.338 141.98 234.311 141.674 234.311C140.576 234.311 139.712 234.608 139.082 235.202C138.47 235.796 138.164 236.705 138.164 237.929V244.652H133.034V230.018H137.921V231.773ZM159.778 237.362C159.778 237.398 159.751 237.821 159.697 238.631H149.059C149.275 239.387 149.689 239.972 150.301 240.386C150.931 240.782 151.714 240.98 152.65 240.98C153.352 240.98 153.955 240.881 154.459 240.683C154.981 240.485 155.503 240.161 156.025 239.711L158.725 242.519C157.303 244.103 155.224 244.895 152.488 244.895C150.778 244.895 149.275 244.571 147.979 243.923C146.683 243.275 145.675 242.375 144.955 241.223C144.253 240.071 143.902 238.766 143.902 237.308C143.902 235.868 144.244 234.581 144.928 233.447C145.63 232.295 146.593 231.395 147.817 230.747C149.041 230.099 150.418 229.775 151.948 229.775C153.406 229.775 154.729 230.081 155.917 230.693C157.105 231.287 158.041 232.16 158.725 233.312C159.427 234.446 159.778 235.796 159.778 237.362ZM151.975 233.42C151.183 233.42 150.517 233.645 149.977 234.095C149.455 234.545 149.122 235.157 148.978 235.931H154.972C154.828 235.157 154.486 234.545 153.946 234.095C153.424 233.645 152.767 233.42 151.975 233.42Z" fill="#0C5AAE"/>
<path d="M52.7944 276.195C52.215 276.195 51.654 276.107 51.1114 275.931C50.576 275.748 50.1544 275.513 49.8464 275.227L50.2534 274.369C50.5467 274.633 50.9207 274.849 51.3754 275.018C51.8374 275.179 52.3104 275.26 52.7944 275.26C53.4324 275.26 53.909 275.154 54.2244 274.941C54.5397 274.721 54.6974 274.431 54.6974 274.072C54.6974 273.808 54.6094 273.595 54.4334 273.434C54.2647 273.265 54.052 273.137 53.7954 273.049C53.546 272.961 53.1904 272.862 52.7284 272.752C52.149 272.613 51.6797 272.473 51.3204 272.334C50.9684 272.195 50.664 271.982 50.4074 271.696C50.158 271.403 50.0334 271.01 50.0334 270.519C50.0334 270.108 50.1397 269.738 50.3524 269.408C50.5724 269.078 50.9024 268.814 51.3424 268.616C51.7824 268.418 52.3287 268.319 52.9814 268.319C53.436 268.319 53.8834 268.378 54.3234 268.495C54.7634 268.612 55.141 268.781 55.4564 269.001L55.0934 269.881C54.7707 269.676 54.426 269.522 54.0594 269.419C53.6927 269.309 53.3334 269.254 52.9814 269.254C52.358 269.254 51.8887 269.368 51.5734 269.595C51.2654 269.822 51.1114 270.116 51.1114 270.475C51.1114 270.739 51.1994 270.955 51.3754 271.124C51.5514 271.285 51.7677 271.414 52.0244 271.509C52.2884 271.597 52.644 271.692 53.0914 271.795C53.6707 271.934 54.1364 272.074 54.4884 272.213C54.8404 272.352 55.141 272.565 55.3904 272.851C55.647 273.137 55.7754 273.522 55.7754 274.006C55.7754 274.409 55.6654 274.78 55.4454 275.117C55.2254 275.447 54.8917 275.711 54.4444 275.909C53.997 276.1 53.447 276.195 52.7944 276.195ZM59.7254 276.173C59.1461 276.173 58.6254 276.045 58.1634 275.788C57.7014 275.531 57.3384 275.179 57.0744 274.732C56.8177 274.277 56.6894 273.764 56.6894 273.192C56.6894 272.62 56.8177 272.11 57.0744 271.663C57.3384 271.208 57.7014 270.856 58.1634 270.607C58.6254 270.35 59.1461 270.222 59.7254 270.222C60.3047 270.222 60.8217 270.35 61.2764 270.607C61.7384 270.856 62.0977 271.208 62.3544 271.663C62.6184 272.11 62.7504 272.62 62.7504 273.192C62.7504 273.764 62.6184 274.277 62.3544 274.732C62.0977 275.179 61.7384 275.531 61.2764 275.788C60.8217 276.045 60.3047 276.173 59.7254 276.173ZM59.7254 275.249C60.0994 275.249 60.4331 275.165 60.7264 274.996C61.0271 274.82 61.2617 274.578 61.4304 274.27C61.5991 273.955 61.6834 273.595 61.6834 273.192C61.6834 272.789 61.5991 272.433 61.4304 272.125C61.2617 271.81 61.0271 271.568 60.7264 271.399C60.4331 271.23 60.0994 271.146 59.7254 271.146C59.3514 271.146 59.0141 271.23 58.7134 271.399C58.4201 271.568 58.1854 271.81 58.0094 272.125C57.8407 272.433 57.7564 272.789 57.7564 273.192C57.7564 273.595 57.8407 273.955 58.0094 274.27C58.1854 274.578 58.4201 274.82 58.7134 274.996C59.0141 275.165 59.3514 275.249 59.7254 275.249ZM71.5038 270.222C72.2371 270.222 72.8165 270.435 73.2418 270.86C73.6745 271.285 73.8908 271.916 73.8908 272.752V276.107H72.8348V272.873C72.8348 272.308 72.7028 271.883 72.4388 271.597C72.1821 271.311 71.8118 271.168 71.3278 271.168C70.7925 271.168 70.3671 271.337 70.0518 271.674C69.7365 272.004 69.5788 272.481 69.5788 273.104V276.107H68.5228V272.873C68.5228 272.308 68.3908 271.883 68.1268 271.597C67.8701 271.311 67.4998 271.168 67.0158 271.168C66.4805 271.168 66.0551 271.337 65.7398 271.674C65.4245 272.004 65.2668 272.481 65.2668 273.104V276.107H64.2108V270.277H65.2228V271.146C65.4355 270.845 65.7141 270.618 66.0588 270.464C66.4035 270.303 66.7958 270.222 67.2358 270.222C67.6905 270.222 68.0938 270.314 68.4458 270.497C68.7978 270.68 69.0691 270.948 69.2598 271.3C69.4798 270.963 69.7841 270.699 70.1728 270.508C70.5688 270.317 71.0125 270.222 71.5038 270.222ZM81.1351 273.225C81.1351 273.306 81.1277 273.412 81.1131 273.544H76.3831C76.4491 274.057 76.6727 274.472 77.0541 274.787C77.4427 275.095 77.9231 275.249 78.4951 275.249C79.1917 275.249 79.7527 275.014 80.1781 274.545L80.7611 275.227C80.4971 275.535 80.1671 275.77 79.7711 275.931C79.3824 276.092 78.9461 276.173 78.4621 276.173C77.8461 276.173 77.2997 276.048 76.8231 275.799C76.3464 275.542 75.9761 275.187 75.7121 274.732C75.4554 274.277 75.3271 273.764 75.3271 273.192C75.3271 272.627 75.4517 272.118 75.7011 271.663C75.9577 271.208 76.3061 270.856 76.7461 270.607C77.1934 270.35 77.6957 270.222 78.2531 270.222C78.8104 270.222 79.3054 270.35 79.7381 270.607C80.1781 270.856 80.5191 271.208 80.7611 271.663C81.0104 272.118 81.1351 272.638 81.1351 273.225ZM78.2531 271.113C77.7471 271.113 77.3217 271.267 76.9771 271.575C76.6397 271.883 76.4417 272.286 76.3831 272.785H80.1231C80.0644 272.294 79.8627 271.894 79.5181 271.586C79.1807 271.271 78.7591 271.113 78.2531 271.113ZM85.8794 275.766C85.7254 275.898 85.5348 276.001 85.3074 276.074C85.0801 276.14 84.8454 276.173 84.6034 276.173C84.0168 276.173 83.5621 276.015 83.2394 275.7C82.9168 275.385 82.7554 274.934 82.7554 274.347V271.146H81.7654V270.277H82.7554V269.001H83.8114V270.277H85.4834V271.146H83.8114V274.303C83.8114 274.618 83.8884 274.86 84.0424 275.029C84.2038 275.198 84.4311 275.282 84.7244 275.282C85.0471 275.282 85.3221 275.19 85.5494 275.007L85.8794 275.766ZM90.2691 270.222C91.0098 270.222 91.5965 270.438 92.0291 270.871C92.4691 271.296 92.6891 271.923 92.6891 272.752V276.107H91.6331V272.873C91.6331 272.308 91.4975 271.883 91.2261 271.597C90.9548 271.311 90.5661 271.168 90.0601 271.168C89.4881 271.168 89.0371 271.337 88.7071 271.674C88.3771 272.004 88.2121 272.481 88.2121 273.104V276.107H87.1561V267.945H88.2121V271.102C88.4321 270.823 88.7181 270.607 89.0701 270.453C89.4295 270.299 89.8291 270.222 90.2691 270.222ZM94.6434 270.277H95.6994V276.107H94.6434V270.277ZM95.1714 269.155C94.9661 269.155 94.7938 269.089 94.6544 268.957C94.5224 268.825 94.4564 268.664 94.4564 268.473C94.4564 268.282 94.5224 268.121 94.6544 267.989C94.7938 267.85 94.9661 267.78 95.1714 267.78C95.3768 267.78 95.5454 267.846 95.6774 267.978C95.8168 268.103 95.8864 268.26 95.8864 268.451C95.8864 268.649 95.8168 268.818 95.6774 268.957C95.5454 269.089 95.3768 269.155 95.1714 269.155ZM100.829 270.222C101.569 270.222 102.156 270.438 102.589 270.871C103.029 271.296 103.249 271.923 103.249 272.752V276.107H102.193V272.873C102.193 272.308 102.057 271.883 101.786 271.597C101.514 271.311 101.126 271.168 100.62 271.168C100.048 271.168 99.5967 271.337 99.2667 271.674C98.9367 272.004 98.7717 272.481 98.7717 273.104V276.107H97.7157V270.277H98.7277V271.157C98.9404 270.856 99.2264 270.625 99.5857 270.464C99.9524 270.303 100.367 270.222 100.829 270.222ZM110.812 270.277V275.315C110.812 276.334 110.559 277.086 110.053 277.57C109.547 278.061 108.792 278.307 107.787 278.307C107.237 278.307 106.713 278.23 106.214 278.076C105.716 277.929 105.312 277.717 105.004 277.438L105.51 276.624C105.782 276.859 106.115 277.042 106.511 277.174C106.915 277.313 107.329 277.383 107.754 277.383C108.436 277.383 108.939 277.222 109.261 276.899C109.591 276.576 109.756 276.085 109.756 275.425V274.963C109.507 275.264 109.199 275.491 108.832 275.645C108.473 275.792 108.081 275.865 107.655 275.865C107.098 275.865 106.592 275.748 106.137 275.513C105.69 275.271 105.338 274.937 105.081 274.512C104.825 274.079 104.696 273.588 104.696 273.038C104.696 272.488 104.825 272 105.081 271.575C105.338 271.142 105.69 270.809 106.137 270.574C106.592 270.339 107.098 270.222 107.655 270.222C108.095 270.222 108.502 270.303 108.876 270.464C109.258 270.625 109.569 270.864 109.811 271.179V270.277H110.812ZM107.776 274.941C108.158 274.941 108.499 274.86 108.799 274.699C109.107 274.538 109.346 274.314 109.514 274.028C109.69 273.735 109.778 273.405 109.778 273.038C109.778 272.473 109.591 272.019 109.217 271.674C108.843 271.322 108.363 271.146 107.776 271.146C107.182 271.146 106.698 271.322 106.324 271.674C105.95 272.019 105.763 272.473 105.763 273.038C105.763 273.405 105.848 273.735 106.016 274.028C106.192 274.314 106.431 274.538 106.731 274.699C107.039 274.86 107.388 274.941 107.776 274.941ZM118.897 270.222C119.638 270.222 120.224 270.438 120.657 270.871C121.097 271.296 121.317 271.923 121.317 272.752V276.107H120.261V272.873C120.261 272.308 120.125 271.883 119.854 271.597C119.583 271.311 119.194 271.168 118.688 271.168C118.116 271.168 117.665 271.337 117.335 271.674C117.005 272.004 116.84 272.481 116.84 273.104V276.107H115.784V267.945H116.84V271.102C117.06 270.823 117.346 270.607 117.698 270.453C118.057 270.299 118.457 270.222 118.897 270.222ZM128.573 273.225C128.573 273.306 128.565 273.412 128.551 273.544H123.821C123.887 274.057 124.11 274.472 124.492 274.787C124.88 275.095 125.361 275.249 125.933 275.249C126.629 275.249 127.19 275.014 127.616 274.545L128.199 275.227C127.935 275.535 127.605 275.77 127.209 275.931C126.82 276.092 126.384 276.173 125.9 276.173C125.284 276.173 124.737 276.048 124.261 275.799C123.784 275.542 123.414 275.187 123.15 274.732C122.893 274.277 122.765 273.764 122.765 273.192C122.765 272.627 122.889 272.118 123.139 271.663C123.395 271.208 123.744 270.856 124.184 270.607C124.631 270.35 125.133 270.222 125.691 270.222C126.248 270.222 126.743 270.35 127.176 270.607C127.616 270.856 127.957 271.208 128.199 271.663C128.448 272.118 128.573 272.638 128.573 273.225ZM125.691 271.113C125.185 271.113 124.759 271.267 124.415 271.575C124.077 271.883 123.879 272.286 123.821 272.785H127.561C127.502 272.294 127.3 271.894 126.956 271.586C126.618 271.271 126.197 271.113 125.691 271.113ZM131.051 271.256C131.234 270.919 131.506 270.662 131.865 270.486C132.224 270.31 132.661 270.222 133.174 270.222V271.245C133.115 271.238 133.035 271.234 132.932 271.234C132.36 271.234 131.909 271.406 131.579 271.751C131.256 272.088 131.095 272.572 131.095 273.203V276.107H130.039V270.277H131.051V271.256ZM139.691 273.225C139.691 273.306 139.683 273.412 139.669 273.544H134.939C135.005 274.057 135.228 274.472 135.61 274.787C135.998 275.095 136.479 275.249 137.051 275.249C137.747 275.249 138.308 275.014 138.734 274.545L139.317 275.227C139.053 275.535 138.723 275.77 138.327 275.931C137.938 276.092 137.502 276.173 137.018 276.173C136.402 276.173 135.855 276.048 135.379 275.799C134.902 275.542 134.532 275.187 134.268 274.732C134.011 274.277 133.883 273.764 133.883 273.192C133.883 272.627 134.007 272.118 134.257 271.663C134.513 271.208 134.862 270.856 135.302 270.607C135.749 270.35 136.251 270.222 136.809 270.222C137.366 270.222 137.861 270.35 138.294 270.607C138.734 270.856 139.075 271.208 139.317 271.663C139.566 272.118 139.691 272.638 139.691 273.225ZM136.809 271.113C136.303 271.113 135.877 271.267 135.533 271.575C135.195 271.883 134.997 272.286 134.939 272.785H138.679C138.62 272.294 138.418 271.894 138.074 271.586C137.736 271.271 137.315 271.113 136.809 271.113ZM146.234 270.222C147.041 270.222 147.657 270.42 148.082 270.816C148.515 271.212 148.731 271.802 148.731 272.587V276.107H147.73V275.337C147.554 275.608 147.301 275.817 146.971 275.964C146.649 276.103 146.264 276.173 145.816 276.173C145.164 276.173 144.639 276.015 144.243 275.7C143.855 275.385 143.66 274.97 143.66 274.457C143.66 273.944 143.847 273.533 144.221 273.225C144.595 272.91 145.189 272.752 146.003 272.752H147.675V272.543C147.675 272.088 147.543 271.74 147.279 271.498C147.015 271.256 146.627 271.135 146.113 271.135C145.769 271.135 145.431 271.194 145.101 271.311C144.771 271.421 144.493 271.571 144.265 271.762L143.825 270.97C144.126 270.728 144.485 270.545 144.903 270.42C145.321 270.288 145.765 270.222 146.234 270.222ZM145.992 275.359C146.396 275.359 146.744 275.271 147.037 275.095C147.331 274.912 147.543 274.655 147.675 274.325V273.511H146.047C145.153 273.511 144.705 273.812 144.705 274.413C144.705 274.706 144.819 274.937 145.046 275.106C145.274 275.275 145.589 275.359 145.992 275.359ZM153.776 270.222C154.341 270.222 154.847 270.347 155.294 270.596C155.742 270.845 156.09 271.194 156.339 271.641C156.596 272.088 156.724 272.605 156.724 273.192C156.724 273.779 156.596 274.299 156.339 274.754C156.09 275.201 155.742 275.55 155.294 275.799C154.847 276.048 154.341 276.173 153.776 276.173C153.344 276.173 152.948 276.089 152.588 275.92C152.229 275.751 151.932 275.506 151.697 275.183V276.107H150.685V267.945H151.741V271.157C151.976 270.849 152.269 270.618 152.621 270.464C152.973 270.303 153.358 270.222 153.776 270.222ZM153.688 275.249C154.062 275.249 154.396 275.165 154.689 274.996C154.99 274.82 155.225 274.578 155.393 274.27C155.569 273.955 155.657 273.595 155.657 273.192C155.657 272.789 155.569 272.433 155.393 272.125C155.225 271.81 154.99 271.568 154.689 271.399C154.396 271.23 154.062 271.146 153.688 271.146C153.322 271.146 152.988 271.23 152.687 271.399C152.387 271.568 152.152 271.81 151.983 272.125C151.815 272.433 151.73 272.789 151.73 273.192C151.73 273.595 151.815 273.955 151.983 274.27C152.152 274.578 152.387 274.82 152.687 274.996C152.988 275.165 153.322 275.249 153.688 275.249ZM160.68 276.173C160.101 276.173 159.58 276.045 159.118 275.788C158.656 275.531 158.293 275.179 158.029 274.732C157.773 274.277 157.644 273.764 157.644 273.192C157.644 272.62 157.773 272.11 158.029 271.663C158.293 271.208 158.656 270.856 159.118 270.607C159.58 270.35 160.101 270.222 160.68 270.222C161.26 270.222 161.777 270.35 162.231 270.607C162.693 270.856 163.053 271.208 163.309 271.663C163.573 272.11 163.705 272.62 163.705 273.192C163.705 273.764 163.573 274.277 163.309 274.732C163.053 275.179 162.693 275.531 162.231 275.788C161.777 276.045 161.26 276.173 160.68 276.173ZM160.68 275.249C161.054 275.249 161.388 275.165 161.681 274.996C161.982 274.82 162.217 274.578 162.385 274.27C162.554 273.955 162.638 273.595 162.638 273.192C162.638 272.789 162.554 272.433 162.385 272.125C162.217 271.81 161.982 271.568 161.681 271.399C161.388 271.23 161.054 271.146 160.68 271.146C160.306 271.146 159.969 271.23 159.668 271.399C159.375 271.568 159.14 271.81 158.964 272.125C158.796 272.433 158.711 272.789 158.711 273.192C158.711 273.595 158.796 273.955 158.964 274.27C159.14 274.578 159.375 274.82 159.668 274.996C159.969 275.165 160.306 275.249 160.68 275.249ZM170.6 270.277V276.107H169.599V275.227C169.386 275.528 169.104 275.762 168.752 275.931C168.407 276.092 168.03 276.173 167.619 276.173C166.842 276.173 166.229 275.96 165.782 275.535C165.335 275.102 165.111 274.468 165.111 273.632V270.277H166.167V273.511C166.167 274.076 166.303 274.505 166.574 274.798C166.845 275.084 167.234 275.227 167.74 275.227C168.297 275.227 168.737 275.058 169.06 274.721C169.383 274.384 169.544 273.907 169.544 273.291V270.277H170.6ZM175.888 275.766C175.734 275.898 175.544 276.001 175.316 276.074C175.089 276.14 174.854 276.173 174.612 276.173C174.026 276.173 173.571 276.015 173.248 275.7C172.926 275.385 172.764 274.934 172.764 274.347V271.146H171.774V270.277H172.764V269.001H173.82V270.277H175.492V271.146H173.82V274.303C173.82 274.618 173.897 274.86 174.051 275.029C174.213 275.198 174.44 275.282 174.733 275.282C175.056 275.282 175.331 275.19 175.558 275.007L175.888 275.766ZM84.7708 289.173C84.1915 289.173 83.6708 289.045 83.2088 288.788C82.7468 288.531 82.3838 288.179 82.1198 287.732C81.8631 287.277 81.7348 286.764 81.7348 286.192C81.7348 285.62 81.8631 285.11 82.1198 284.663C82.3838 284.208 82.7468 283.856 83.2088 283.607C83.6708 283.35 84.1915 283.222 84.7708 283.222C85.3501 283.222 85.8671 283.35 86.3218 283.607C86.7838 283.856 87.1431 284.208 87.3998 284.663C87.6638 285.11 87.7958 285.62 87.7958 286.192C87.7958 286.764 87.6638 287.277 87.3998 287.732C87.1431 288.179 86.7838 288.531 86.3218 288.788C85.8671 289.045 85.3501 289.173 84.7708 289.173ZM84.7708 288.249C85.1448 288.249 85.4785 288.165 85.7718 287.996C86.0725 287.82 86.3071 287.578 86.4758 287.27C86.6445 286.955 86.7288 286.595 86.7288 286.192C86.7288 285.789 86.6445 285.433 86.4758 285.125C86.3071 284.81 86.0725 284.568 85.7718 284.399C85.4785 284.23 85.1448 284.146 84.7708 284.146C84.3968 284.146 84.0595 284.23 83.7588 284.399C83.4655 284.568 83.2308 284.81 83.0548 285.125C82.8861 285.433 82.8018 285.789 82.8018 286.192C82.8018 286.595 82.8861 286.955 83.0548 287.27C83.2308 287.578 83.4655 287.82 83.7588 287.996C84.0595 288.165 84.3968 288.249 84.7708 288.249ZM94.6902 283.277V289.107H93.6892V288.227C93.4766 288.528 93.1942 288.762 92.8422 288.931C92.4976 289.092 92.1199 289.173 91.7092 289.173C90.9319 289.173 90.3196 288.96 89.8722 288.535C89.4249 288.102 89.2012 287.468 89.2012 286.632V283.277H90.2572V286.511C90.2572 287.076 90.3929 287.505 90.6642 287.798C90.9356 288.084 91.3242 288.227 91.8302 288.227C92.3876 288.227 92.8276 288.058 93.1502 287.721C93.4729 287.384 93.6342 286.907 93.6342 286.291V283.277H94.6902ZM97.7126 284.256C97.8959 283.919 98.1672 283.662 98.5266 283.486C98.8859 283.31 99.3222 283.222 99.8356 283.222V284.245C99.7769 284.238 99.6962 284.234 99.5936 284.234C99.0216 284.234 98.5706 284.406 98.2406 284.751C97.9179 285.088 97.7566 285.572 97.7566 286.203V289.107H96.7006V283.277H97.7126V284.256ZM105.838 289.173C105.362 289.173 104.903 289.111 104.463 288.986C104.023 288.854 103.679 288.689 103.429 288.491L103.869 287.655C104.126 287.838 104.438 287.985 104.804 288.095C105.171 288.205 105.541 288.26 105.915 288.26C106.839 288.26 107.301 287.996 107.301 287.468C107.301 287.292 107.239 287.153 107.114 287.05C106.99 286.947 106.832 286.874 106.641 286.83C106.458 286.779 106.194 286.724 105.849 286.665C105.38 286.592 104.995 286.507 104.694 286.412C104.401 286.317 104.148 286.155 103.935 285.928C103.723 285.701 103.616 285.382 103.616 284.971C103.616 284.443 103.836 284.021 104.276 283.706C104.716 283.383 105.307 283.222 106.047 283.222C106.436 283.222 106.825 283.27 107.213 283.365C107.602 283.46 107.921 283.589 108.17 283.75L107.719 284.586C107.243 284.278 106.682 284.124 106.036 284.124C105.589 284.124 105.248 284.197 105.013 284.344C104.779 284.491 104.661 284.685 104.661 284.927C104.661 285.118 104.727 285.268 104.859 285.378C104.991 285.488 105.153 285.569 105.343 285.62C105.541 285.671 105.816 285.73 106.168 285.796C106.638 285.877 107.015 285.965 107.301 286.06C107.595 286.148 107.844 286.302 108.049 286.522C108.255 286.742 108.357 287.05 108.357 287.446C108.357 287.974 108.13 288.396 107.675 288.711C107.228 289.019 106.616 289.173 105.838 289.173ZM114.946 286.225C114.946 286.306 114.939 286.412 114.924 286.544H110.194C110.26 287.057 110.484 287.472 110.865 287.787C111.254 288.095 111.734 288.249 112.306 288.249C113.003 288.249 113.564 288.014 113.989 287.545L114.572 288.227C114.308 288.535 113.978 288.77 113.582 288.931C113.193 289.092 112.757 289.173 112.273 289.173C111.657 289.173 111.111 289.048 110.634 288.799C110.157 288.542 109.787 288.187 109.523 287.732C109.266 287.277 109.138 286.764 109.138 286.192C109.138 285.627 109.263 285.118 109.512 284.663C109.769 284.208 110.117 283.856 110.557 283.607C111.004 283.35 111.507 283.222 112.064 283.222C112.621 283.222 113.116 283.35 113.549 283.607C113.989 283.856 114.33 284.208 114.572 284.663C114.821 285.118 114.946 285.638 114.946 286.225ZM112.064 284.113C111.558 284.113 111.133 284.267 110.788 284.575C110.451 284.883 110.253 285.286 110.194 285.785H113.934C113.875 285.294 113.674 284.894 113.329 284.586C112.992 284.271 112.57 284.113 112.064 284.113ZM118.953 289.173C118.359 289.173 117.828 289.045 117.358 288.788C116.896 288.531 116.533 288.179 116.269 287.732C116.005 287.277 115.873 286.764 115.873 286.192C115.873 285.62 116.005 285.11 116.269 284.663C116.533 284.208 116.896 283.856 117.358 283.607C117.828 283.35 118.359 283.222 118.953 283.222C119.481 283.222 119.951 283.328 120.361 283.541C120.779 283.754 121.102 284.062 121.329 284.465L120.526 284.982C120.343 284.703 120.116 284.494 119.844 284.355C119.573 284.216 119.272 284.146 118.942 284.146C118.561 284.146 118.216 284.23 117.908 284.399C117.608 284.568 117.369 284.81 117.193 285.125C117.025 285.433 116.94 285.789 116.94 286.192C116.94 286.603 117.025 286.966 117.193 287.281C117.369 287.589 117.608 287.827 117.908 287.996C118.216 288.165 118.561 288.249 118.942 288.249C119.272 288.249 119.573 288.179 119.844 288.04C120.116 287.901 120.343 287.692 120.526 287.413L121.329 287.919C121.102 288.322 120.779 288.634 120.361 288.854C119.951 289.067 119.481 289.173 118.953 289.173ZM128.131 283.277V289.107H127.13V288.227C126.917 288.528 126.635 288.762 126.283 288.931C125.938 289.092 125.56 289.173 125.15 289.173C124.372 289.173 123.76 288.96 123.313 288.535C122.865 288.102 122.642 287.468 122.642 286.632V283.277H123.698V286.511C123.698 287.076 123.833 287.505 124.105 287.798C124.376 288.084 124.765 288.227 125.271 288.227C125.828 288.227 126.268 288.058 126.591 287.721C126.913 287.384 127.075 286.907 127.075 286.291V283.277H128.131ZM131.153 284.256C131.336 283.919 131.608 283.662 131.967 283.486C132.326 283.31 132.763 283.222 133.276 283.222V284.245C133.217 284.238 133.137 284.234 133.034 284.234C132.462 284.234 132.011 284.406 131.681 284.751C131.358 285.088 131.197 285.572 131.197 286.203V289.107H130.141V283.277H131.153V284.256ZM134.578 283.277H135.634V289.107H134.578V283.277ZM135.106 282.155C134.9 282.155 134.728 282.089 134.589 281.957C134.457 281.825 134.391 281.664 134.391 281.473C134.391 281.282 134.457 281.121 134.589 280.989C134.728 280.85 134.9 280.78 135.106 280.78C135.311 280.78 135.48 280.846 135.612 280.978C135.751 281.103 135.821 281.26 135.821 281.451C135.821 281.649 135.751 281.818 135.612 281.957C135.48 282.089 135.311 282.155 135.106 282.155ZM140.928 288.766C140.774 288.898 140.583 289.001 140.356 289.074C140.128 289.14 139.894 289.173 139.652 289.173C139.065 289.173 138.61 289.015 138.288 288.7C137.965 288.385 137.804 287.934 137.804 287.347V284.146H136.814V283.277H137.804V282.001H138.86V283.277H140.532V284.146H138.86V287.303C138.86 287.618 138.937 287.86 139.091 288.029C139.252 288.198 139.479 288.282 139.773 288.282C140.095 288.282 140.37 288.19 140.598 288.007L140.928 288.766ZM147.256 283.277L144.429 289.69C144.18 290.284 143.886 290.702 143.549 290.944C143.219 291.186 142.819 291.307 142.35 291.307C142.064 291.307 141.785 291.259 141.514 291.164C141.25 291.076 141.03 290.944 140.854 290.768L141.305 289.976C141.606 290.262 141.954 290.405 142.35 290.405C142.607 290.405 142.819 290.335 142.988 290.196C143.164 290.064 143.322 289.833 143.461 289.503L143.648 289.096L141.074 283.277H142.174L144.209 287.941L146.222 283.277H147.256Z" fill="#0F3C78"/>
<path d="M122.744 200.028C132.677 194.142 149.457 182.162 164.49 161.664C166.051 162.469 167.804 162.92 169.658 162.92C176.189 162.92 181.484 157.311 181.484 150.392C181.484 146.568 179.867 143.144 177.317 140.846C177.599 140.295 177.878 139.742 178.156 139.182C179.746 141.213 182.145 142.506 184.829 142.506C189.615 142.506 193.494 138.396 193.494 133.326C193.494 128.257 189.615 124.147 184.829 124.147C184.781 124.147 184.732 124.148 184.684 124.149C192.643 102.95 197.511 76.7761 196.143 44.7278C200.688 51.1147 204.187 57.8429 206.375 64.6599C208.141 70.1632 208.751 74.7805 209.232 78.4283C214.895 121.308 190.481 154.744 185.098 161.742C177.149 172.076 161.783 192.05 135.827 198.237C131.477 199.273 127.101 199.857 122.744 200.028ZM104.944 198.497C76.5795 192.596 50.7214 170.886 36.8391 145.332C33.3938 138.991 13.8114 104.722 27.6747 64.9124C29.9462 58.3897 32.9683 51.936 36.6545 45.7789C37.4285 92.2612 38.8521 151.329 104.944 198.497V198.497ZM47.4368 30.8685C56.1962 20.7575 66.9606 12.3199 79.1812 6.99795C89.6606 2.43493 100.602 0.395261 111.49 0.395261C134.584 0.395261 157.448 9.56608 175.225 23.2683C158.085 20.9828 133.248 15.4766 116.517 2.23016C115.508 1.43088 114.128 0.793061 112.887 0.793061C112.132 0.793061 111.427 1.03014 110.89 1.61217C92.3427 21.7153 64.8647 30.6057 47.4368 30.8685" fill="#FEFEFF"/>
<path d="M114.407 203.871C113.389 203.871 112.375 203.573 111.486 202.987C109.237 201.503 107.056 200.006 104.942 198.497C38.8507 151.329 37.427 92.2612 36.6531 45.7789C36.6015 42.6771 36.5526 39.629 36.4878 36.6469C36.4516 34.9823 37.0843 33.3801 38.2312 32.2424C39.2571 31.2244 40.6062 30.6644 41.9997 30.6644C42.164 30.6644 42.3287 30.6725 42.4938 30.6879C43.7937 30.812 45.1811 30.8743 46.6438 30.8743C46.9049 30.8743 47.1696 30.8729 47.4353 30.8685C64.8633 30.6057 92.3413 21.7153 110.889 1.61216C111.426 1.03013 112.131 0.793049 112.886 0.793049C114.127 0.793049 115.506 1.43086 116.516 2.23015C133.247 15.4766 158.084 20.9828 175.223 23.2683C181.344 24.0845 186.484 24.4896 189.922 24.69C192.624 24.8478 194.817 27.068 195.096 29.9202C195.591 34.9882 195.936 39.927 196.141 44.7278C197.509 76.7761 192.642 102.95 184.682 124.149C179.964 124.231 176.163 128.309 176.163 133.326C176.163 135.552 176.911 137.593 178.155 139.182C177.877 139.742 177.598 140.295 177.316 140.846C175.253 138.986 172.578 137.864 169.656 137.864C169.597 137.864 169.538 137.864 169.479 137.866C184.569 109.094 190.547 74.5493 187.265 34.8766C187.187 33.9416 186.491 33.2127 185.609 33.1438C146.263 30.0721 124.412 18.3838 114.889 11.6901C114.586 11.4773 114.24 11.3731 113.896 11.3731C113.464 11.3731 113.035 11.5367 112.697 11.8582C103.46 20.6254 91.8154 27.8901 79.0211 32.867C67.8509 37.2121 56.3523 39.6055 46.6285 39.6055H46.6283C46.1376 39.6055 45.679 39.8081 45.3371 40.1773C44.9981 40.5428 44.8166 41.0265 44.8254 41.5395L44.8781 44.6691C45.2674 68.144 45.7085 94.7515 54.7182 120.88C64.8051 150.134 84.0997 174.098 113.703 194.145C113.997 194.345 114.336 194.445 114.675 194.445C114.956 194.445 115.237 194.376 115.493 194.237L115.336 193.914L115.493 194.237C123.077 190.107 142.286 178.126 158.75 155.246C159.864 158.052 161.915 160.338 164.488 161.664C149.455 182.162 132.676 194.142 122.742 200.028C120.29 201.48 118.253 202.563 116.764 203.31C116.018 203.685 115.211 203.871 114.407 203.871V203.871ZM114.675 193.719C114.465 193.719 114.255 193.656 114.072 193.533C84.6 173.575 65.3961 149.729 55.3622 120.632C46.3922 94.6172 45.9521 68.0743 45.5639 44.6559L45.5112 41.5256C45.5057 41.21 45.6177 40.912 45.8264 40.6866C46.0384 40.4576 46.3232 40.3314 46.6435 40.3314H46.6438C56.431 40.3314 68.0137 37.9233 79.2574 33.5489C92.1327 28.5411 103.854 21.2272 113.154 12.3991C113.364 12.201 113.629 12.0997 113.895 12.0997C114.109 12.0997 114.323 12.1643 114.51 12.2957C124.355 19.2154 137.068 24.6746 152.298 28.522C165.316 31.8109 177.57 33.245 185.558 33.8682C186.103 33.9115 186.533 34.3621 186.581 34.9405C189.866 74.644 183.846 109.185 168.671 137.907C162.6 138.437 157.83 143.825 157.83 150.392C157.83 151.811 158.052 153.175 158.463 154.446C142.027 177.442 122.762 189.462 115.18 193.591C115.021 193.677 114.848 193.719 114.675 193.719V193.719ZM142.936 124.498C139.29 124.498 136.334 127.63 136.334 131.492C136.334 135.355 139.29 138.486 142.936 138.486C146.583 138.486 149.539 135.355 149.539 131.492C149.539 127.63 146.583 124.498 142.936 124.498ZM161.729 111.023C155.382 111.023 150.236 116.474 150.236 123.198C150.236 129.923 155.382 135.373 161.729 135.373C168.077 135.373 173.223 129.923 173.223 123.198C173.223 116.474 168.077 111.023 161.729 111.023ZM152.142 72.0164V89.0567C152.142 89.2498 152.291 89.4068 152.474 89.4068H181.742C181.925 89.4068 182.073 89.2498 182.073 89.0567V45.4926C182.073 45.2988 181.925 45.1418 181.742 45.1418H152.474C152.291 45.1418 152.142 45.2988 152.142 45.4926V60.3333C148.111 63.8533 142.771 66.6563 137.352 68.4406C138 71.3632 139.491 76.3071 142.656 80.1927C146.552 77.8719 149.663 75.019 152.142 72.0164" fill="url(#paint0_linear)"/>
<path d="M118.304 196.095C118.304 196.095 117.752 199.408 117.481 202.688C117.375 203.969 118.307 205.082 119.521 205.136C123.644 205.317 132.463 205.671 135.628 205.522C136.103 205.499 136.414 204.983 136.238 204.514C136.09 204.122 135.806 203.805 135.443 203.628L120.877 196.536L118.304 196.095" fill="url(#paint1_linear)"/>
<path d="M117.852 194.149L118.295 198.111C118.295 198.111 120.847 199.37 122.59 197.953L121.533 193.537L117.852 194.149" fill="url(#paint2_linear)"/>
<path d="M118.188 119.647C117.997 120.682 117.159 171.289 122.265 193.967C122.349 194.337 122.172 194.719 121.839 194.863C121.056 195.202 119.521 195.693 117.681 195.758C117.111 195.779 116.6 195.386 116.439 194.807C114.979 189.545 107.985 163.182 107.072 137.998C106.053 109.857 107.072 137.04 107.072 137.04L107.67 119.645L118.188 119.647" fill="url(#paint3_linear)"/>
<path d="M101.548 197.824C101.548 197.824 100.669 199.496 99.8177 203.941C99.6638 204.744 100.193 205.511 100.963 205.591C102.324 205.733 104.42 205.916 106.098 205.903C106.872 205.898 107.476 205.184 107.383 204.37C107.197 202.748 106.618 200.087 104.828 198.012L101.548 197.824" fill="url(#paint4_linear)"/>
<path d="M100.777 192.726L101.815 198.719C101.815 198.719 102.84 199.527 104.869 198.941L104.373 192.494L100.777 192.726Z" fill="url(#paint5_linear)"/>
<path d="M97.9746 121.2C93.7988 147.9 98.8809 187.193 100.595 194.883C100.7 195.354 101.059 195.715 101.509 195.794C102.275 195.928 103.534 196.038 104.776 195.656C105.204 195.524 105.505 195.115 105.522 194.643C105.752 188.426 105.338 150.257 109.229 135.172C109.427 134.408 109.868 133.741 110.477 133.282L118.03 127.594L118.609 118.399L97.9746 121.2" fill="url(#paint6_linear)"/>
<path d="M124.588 70.6079C112.072 70.3885 98.2622 74.0891 98.2622 74.0891C94.5312 97.1493 97.6095 123.748 97.6095 123.748C107.299 126.44 118.23 122.102 118.23 122.102C119.84 112.463 127.354 85.337 127.354 85.337C133.47 84.5333 138.507 82.6639 142.656 80.1927C139.491 76.3071 138 71.3632 137.352 68.4405C132.926 69.8967 128.449 70.6754 124.588 70.6079" fill="url(#paint7_linear)"/>
<path d="M142.656 80.1926C139.491 76.3071 137.999 71.3631 137.352 68.4405C142.771 66.6562 148.111 63.8533 152.142 60.3332V72.0163C149.663 75.019 146.552 77.8719 142.656 80.1926" fill="url(#paint8_linear)"/>
<path d="M103.064 86.9277L98.2636 74.0892C98.2636 74.0892 86.5731 82.5033 84.6504 93.1722C86.8592 93.3447 90.8785 93.9531 94.8132 96.0581C95.6779 91.0202 103.064 86.9277 103.064 86.9277Z" fill="url(#paint9_linear)"/>
<path d="M111.912 59.8438L107.929 72.0437C107.864 72.2463 107.942 72.4701 108.119 72.5736C109.204 73.2092 113.115 75.0471 117.828 71.8815C118.319 71.5519 118.653 71.0139 118.728 70.4033L120.018 59.8438H111.912Z" fill="url(#paint10_linear)"/>
<path d="M120.577 48.5458C120.577 48.5458 124.95 57.266 124.39 60.789C123.829 64.3112 118.409 64.0588 113.676 61.1978L110.369 51.7818L120.577 48.5458" fill="url(#paint11_linear)"/>
<path d="M113.886 56.5734C114.078 56.4831 114.149 56.2343 114.034 56.0479C113.683 55.4805 113.027 54.3238 112.817 53.3109C112.817 53.3109 112.031 52.7781 114.818 52.0713C117.605 51.3645 121.761 50.2672 122.635 47.7549C123.487 45.3042 121.249 39.1426 117.678 44.052C117.542 44.2392 117.276 44.2429 117.141 44.0564C116.556 43.2491 115.017 41.5742 112.88 42.59C110.881 43.5397 110.656 45.0921 110.683 45.8737C110.691 46.1042 110.497 46.2833 110.284 46.24C109.273 46.0359 106.848 45.8605 105.715 48.4962C104.783 50.6672 105.389 51.8966 105.941 52.4977C106.119 52.6922 106.041 53.013 105.796 53.0922C105.131 53.308 104.274 53.9047 104.359 55.5532C104.479 57.8329 106.884 57.6317 107.569 57.5283C107.681 57.5114 107.795 57.5518 107.87 57.6406C108.458 58.329 111.104 61.2524 113.967 61.6047C114.215 61.6355 114.407 61.3764 114.326 61.1261L113.087 57.3095C113.029 57.1327 113.11 56.9382 113.271 56.8618L113.886 56.5734Z" fill="url(#paint12_linear)"/>
<path d="M114.382 57.115C114.382 57.115 111.269 54.8522 111.041 56.7583C110.814 58.6636 113.845 59.5187 115.347 58.8082L114.382 57.115Z" fill="url(#paint13_linear)"/>
<path d="M94.8113 96.0579C94.8113 96.0579 90.7249 115.586 94.4268 126.563C89.8886 128.792 90.727 128.373 90.727 128.373C90.727 128.373 81.7503 100.588 84.6485 93.1719C90.3618 92.5297 93.1963 94.1562 94.8113 96.0579Z" fill="url(#paint14_linear)"/>
<path d="M94.4257 126.563C94.4257 126.563 96.7634 129.769 96.5763 131.047C96.39 132.324 96.3449 132.844 96.3449 132.844C96.3449 132.844 95.1698 131.993 95.244 130.905C95.4075 134.357 96.498 138.283 95.5066 138.093C94.5144 137.905 89.3803 132.891 90.5409 127.547C93.1751 125.608 93.9137 125.819 94.4257 126.563" fill="url(#paint15_linear)"/>
<path d="M114.561 75.7699L118.477 103.979C118.549 104.501 118.48 105.039 118.278 105.511L115.408 112.238C115.133 112.884 114.363 112.88 114.092 112.231L111.244 105.391C111.079 104.993 111.006 104.55 111.033 104.107L112.73 76.0995L114.561 75.7699" fill="#FFFFFB"/>
<path d="M114.52 73.251L117.041 77.8309C117.284 78.3887 118.221 78.4254 118.526 77.8888L121.643 70.5852L118.768 70.0817L114.52 73.251" fill="url(#paint16_linear)"/>
<path d="M108.465 70.409L112.892 73.2509L111.674 77.7787C111.446 78.3996 110.378 78.4451 110.071 77.847L106.924 71.8806L108.465 70.409Z" fill="url(#paint17_linear)"/>
<path d="M112.554 73.2208L115.111 72.7085C115.227 72.6857 115.331 72.7892 115.316 72.9133L114.795 77.1981C114.786 77.2767 114.731 77.3391 114.658 77.3552L112.828 77.7604C112.723 77.7838 112.624 77.7024 112.619 77.5893L112.412 73.4116C112.408 73.3199 112.469 73.2384 112.554 73.2208" fill="url(#paint18_linear)"/>
<path d="M181.742 89.4067H152.474C152.291 89.4067 152.143 89.2497 152.143 89.0566V72.0163V60.3332V45.4925C152.143 45.2987 152.291 45.1417 152.474 45.1417H181.742C181.925 45.1417 182.073 45.2987 182.073 45.4925V89.0566C182.073 89.2497 181.925 89.4067 181.742 89.4067ZM154.476 46.5927C153.793 46.5927 153.238 47.1806 153.238 47.9036V86.4379C153.238 87.1608 153.793 87.7495 154.476 87.7495H179.706C180.388 87.7495 180.944 87.1608 180.944 86.4379V47.9036C180.944 47.1806 180.388 46.5927 179.706 46.5927H154.476ZM179.706 87.5007H154.476C153.923 87.5007 153.472 87.0243 153.472 86.4379V47.9036C153.472 47.3179 153.923 46.8408 154.476 46.8408H179.706C180.259 46.8408 180.709 47.3179 180.709 47.9036V86.4379C180.709 87.0243 180.259 87.5007 179.706 87.5007ZM155.183 78.4355C155.135 78.4355 155.096 78.4774 155.096 78.5273V79.3427C155.096 79.3933 155.135 79.4344 155.183 79.4344H178.989C179.036 79.4344 179.075 79.3933 179.075 79.3427V78.5273C179.075 78.4774 179.036 78.4355 178.989 78.4355H155.183V78.4355ZM155.205 73.6552C155.157 73.6552 155.118 73.6963 155.118 73.747V74.5624C155.118 74.6123 155.157 74.6542 155.205 74.6542H179.011C179.059 74.6542 179.097 74.6123 179.097 74.5624V73.747C179.097 73.6963 179.059 73.6552 179.011 73.6552H155.205ZM155.317 69.1597C155.27 69.1597 155.231 69.2008 155.231 69.2515V70.0669C155.231 70.1176 155.27 70.1587 155.317 70.1587H179.123C179.171 70.1587 179.21 70.1176 179.21 70.0669V69.2515C179.21 69.2008 179.171 69.1597 179.123 69.1597H155.317ZM155.317 64.7362C155.27 64.7362 155.231 64.7773 155.231 64.8279V65.6426C155.231 65.6933 155.27 65.7351 155.317 65.7351H179.123C179.171 65.7351 179.21 65.6933 179.21 65.6426V64.8279C179.21 64.7773 179.171 64.7362 179.123 64.7362H155.317ZM155.317 60.455C155.27 60.455 155.231 60.4961 155.231 60.5467V61.3614C155.231 61.4121 155.27 61.4539 155.317 61.4539H179.123C179.171 61.4539 179.21 61.4121 179.21 61.3614V60.5467C179.21 60.4961 179.171 60.455 179.123 60.455H155.317ZM155.317 56.1966C155.27 56.1966 155.231 56.2377 155.231 56.2883V57.1037C155.231 57.1544 155.27 57.1955 155.317 57.1955H179.123C179.171 57.1955 179.21 57.1544 179.21 57.1037V56.2883C179.21 56.2377 179.171 56.1966 179.123 56.1966H155.317ZM156.759 50.0739C156.616 50.0739 156.5 50.1965 156.5 50.3476V52.8167C156.5 52.9686 156.616 53.0912 156.759 53.0912H177.437C177.58 53.0912 177.696 52.9686 177.696 52.8167V50.3476C177.696 50.1965 177.58 50.0739 177.437 50.0739H156.759Z" fill="url(#paint19_linear)"/>
<path d="M179.123 57.1956H155.317C155.27 57.1956 155.23 57.1545 155.23 57.1038V56.2884C155.23 56.2377 155.27 56.1966 155.317 56.1966H179.123C179.171 56.1966 179.21 56.2377 179.21 56.2884V57.1038C179.21 57.1545 179.171 57.1956 179.123 57.1956Z" fill="url(#paint20_linear)"/>
<path d="M179.123 61.4541H155.317C155.27 61.4541 155.23 61.4123 155.23 61.3616V60.5469C155.23 60.4963 155.27 60.4552 155.317 60.4552H179.123C179.171 60.4552 179.21 60.4963 179.21 60.5469V61.3616C179.21 61.4123 179.171 61.4541 179.123 61.4541Z" fill="url(#paint21_linear)"/>
<path d="M179.123 65.7351H155.317C155.27 65.7351 155.23 65.6933 155.23 65.6426V64.8279C155.23 64.7773 155.27 64.7362 155.317 64.7362H179.123C179.171 64.7362 179.21 64.7773 179.21 64.8279V65.6426C179.21 65.6933 179.171 65.7351 179.123 65.7351Z" fill="url(#paint22_linear)"/>
<path d="M179.123 70.1589H155.317C155.27 70.1589 155.23 70.1178 155.23 70.0672V69.2518C155.23 69.2011 155.27 69.16 155.317 69.16H179.123C179.171 69.16 179.21 69.2011 179.21 69.2518V70.0672C179.21 70.1178 179.171 70.1589 179.123 70.1589Z" fill="url(#paint23_linear)"/>
<path d="M179.01 74.6543H155.204C155.156 74.6543 155.117 74.6125 155.117 74.5626V73.7471C155.117 73.6965 155.156 73.6554 155.204 73.6554H179.01C179.057 73.6554 179.096 73.6965 179.096 73.7471V74.5626C179.096 74.6125 179.057 74.6543 179.01 74.6543Z" fill="url(#paint24_linear)"/>
<path d="M178.988 79.4346H155.182C155.135 79.4346 155.096 79.3935 155.096 79.3428V78.5274C155.096 78.4775 155.135 78.4357 155.182 78.4357H178.988C179.036 78.4357 179.075 78.4775 179.075 78.5274V79.3428C179.075 79.3935 179.036 79.4346 178.988 79.4346Z" fill="url(#paint25_linear)"/>
<path d="M164.792 43.3436L165.552 47.0465C165.636 47.4523 165.417 47.8546 165.041 47.9896C164.641 48.132 164.199 47.9265 164.033 47.5206L162.559 43.9293C162.462 43.6901 162.473 43.4163 162.6 43.1961C162.851 42.7616 163.395 42.2031 164.397 42.7858C164.6 42.904 164.744 43.1088 164.792 43.3436" fill="url(#paint26_linear)"/>
<path d="M159.421 44.802L160.042 47.8244C160.11 48.1555 159.932 48.4843 159.624 48.5944C159.298 48.7111 158.937 48.543 158.801 48.2112L157.599 45.2798C157.518 45.0846 157.527 44.8615 157.631 44.6809C157.836 44.3264 158.28 43.8706 159.098 44.3462C159.264 44.4431 159.381 44.6097 159.421 44.802Z" fill="url(#paint27_linear)"/>
<path d="M160.93 44.3756L161.634 47.8091C161.712 48.1856 161.51 48.5584 161.16 48.6832C160.79 48.8153 160.38 48.6252 160.226 48.2487L158.859 44.9187C158.769 44.6964 158.779 44.4431 158.897 44.2384C159.13 43.8354 159.635 43.318 160.563 43.8582C160.752 43.9683 160.885 44.1576 160.93 44.3756" fill="url(#paint28_linear)"/>
<path d="M162.869 43.7392L163.653 47.7877C163.739 48.231 163.502 48.6736 163.1 48.8241C162.672 48.9841 162.201 48.7624 162.026 48.3191L160.48 44.3991C160.376 44.1378 160.391 43.8383 160.528 43.5961C160.8 43.1176 161.385 42.5018 162.451 43.1315C162.666 43.2592 162.819 43.4824 162.869 43.7392Z" fill="url(#paint29_linear)"/>
<path d="M177.437 53.0913H156.759C156.616 53.0913 156.5 52.9687 156.5 52.8168V50.3478C156.5 50.1966 156.616 50.074 156.759 50.074H177.437C177.58 50.074 177.696 50.1966 177.696 50.3478V52.8168C177.696 52.9687 177.58 53.0913 177.437 53.0913Z" fill="url(#paint30_linear)"/>
<path d="M142.936 138.486C139.29 138.486 136.334 135.355 136.334 131.492C136.334 127.63 139.29 124.498 142.936 124.498C146.583 124.498 149.538 127.63 149.538 131.492C149.538 135.355 146.583 138.486 142.936 138.486ZM142.936 124.731C139.412 124.731 136.554 127.759 136.554 131.492C136.554 135.227 139.412 138.253 142.936 138.253C146.461 138.253 149.319 135.227 149.319 131.492C149.319 127.759 146.461 124.731 142.936 124.731Z" fill="url(#paint31_linear)"/>
<path d="M142.937 138.253C139.413 138.253 136.555 135.226 136.555 131.492C136.555 127.758 139.413 124.731 142.937 124.731C146.463 124.731 149.32 127.758 149.32 131.492C149.32 135.226 146.463 138.253 142.937 138.253ZM143.077 125.917C140.093 125.917 137.674 128.479 137.674 131.639C137.674 134.8 140.093 137.362 143.077 137.362C146.06 137.362 148.479 134.8 148.479 131.639C148.479 128.479 146.06 125.917 143.077 125.917Z" fill="url(#paint32_linear)"/>
<path d="M143.074 137.362C140.091 137.362 137.672 134.8 137.672 131.64C137.672 128.479 140.091 125.917 143.074 125.917C146.057 125.917 148.476 128.479 148.476 131.64C148.476 134.8 146.057 137.362 143.074 137.362Z" fill="url(#paint33_linear)"/>
<path d="M142.547 135.894V135.271C141.934 135.245 141.328 135.092 140.898 134.892C140.744 134.821 140.666 134.638 140.709 134.467L140.859 133.887C140.914 133.674 141.132 133.565 141.324 133.65C141.751 133.839 142.278 133.989 142.847 133.989C143.437 133.989 143.877 133.778 143.877 133.343C143.877 132.951 143.537 132.718 142.716 132.485C141.546 132.146 140.706 131.605 140.706 130.514C140.706 129.529 141.386 128.776 142.567 128.575V127.952C142.567 127.752 142.72 127.59 142.909 127.59H143.254C143.443 127.59 143.596 127.752 143.596 127.952V128.511C144.164 128.536 144.576 128.638 144.904 128.76C145.071 128.823 145.164 129.014 145.117 129.195L144.979 129.732C144.927 129.939 144.718 130.052 144.529 129.976C144.227 129.856 143.801 129.73 143.246 129.73C142.547 129.73 142.346 130.037 142.346 130.312C142.346 130.652 142.766 130.885 143.677 131.182C144.977 131.595 145.517 132.166 145.517 133.195C145.517 134.138 144.857 134.985 143.577 135.197V135.894C143.577 136.094 143.423 136.257 143.234 136.257H142.889C142.7 136.257 142.547 136.094 142.547 135.894" fill="url(#paint34_linear)"/>
<path d="M161.731 135.373C155.384 135.373 150.238 129.923 150.238 123.198C150.238 116.475 155.384 111.023 161.731 111.023C168.079 111.023 173.225 116.475 173.225 123.198C173.225 129.923 168.079 135.373 161.731 135.373V135.373ZM161.731 111.429C155.595 111.429 150.621 116.698 150.621 123.198C150.621 129.699 155.595 134.969 161.731 134.969C167.868 134.969 172.843 129.699 172.843 123.198C172.843 116.698 167.868 111.429 161.731 111.429Z" fill="url(#paint35_linear)"/>
<path d="M161.728 134.969C155.592 134.969 150.617 129.699 150.617 123.198C150.617 116.698 155.592 111.429 161.728 111.429C167.864 111.429 172.839 116.698 172.839 123.198C172.839 129.699 167.864 134.969 161.728 134.969V134.969ZM161.97 113.493C156.777 113.493 152.566 117.953 152.566 123.455C152.566 128.957 156.777 133.417 161.97 133.417C167.164 133.417 171.374 128.957 171.374 123.455C171.374 117.953 167.164 113.493 161.97 113.493Z" fill="url(#paint36_linear)"/>
<path d="M161.971 133.417C156.777 133.417 152.566 128.957 152.566 123.455C152.566 117.953 156.777 113.493 161.971 113.493C167.164 113.493 171.375 117.953 171.375 123.455C171.375 128.957 167.164 133.417 161.971 133.417" fill="url(#paint37_linear)"/>
<path d="M161.05 130.861V129.777C159.983 129.732 158.928 129.465 158.178 129.118C157.911 128.994 157.774 128.676 157.851 128.377L158.111 127.367C158.207 126.997 158.587 126.806 158.921 126.954C159.665 127.284 160.583 127.545 161.572 127.545C162.599 127.545 163.365 127.177 163.365 126.42C163.365 125.738 162.773 125.332 161.345 124.926C159.308 124.336 157.846 123.395 157.846 121.496C157.846 119.78 159.03 118.47 161.084 118.12V117.036C161.084 116.687 161.351 116.405 161.681 116.405H162.281C162.611 116.405 162.878 116.687 162.878 117.036V118.009C163.865 118.051 164.583 118.23 165.153 118.442C165.445 118.551 165.605 118.884 165.524 119.201L165.285 120.134C165.193 120.495 164.83 120.691 164.5 120.56C163.975 120.349 163.233 120.13 162.268 120.13C161.05 120.13 160.701 120.666 160.701 121.145C160.701 121.735 161.433 122.141 163.017 122.658C165.281 123.377 166.221 124.373 166.221 126.162C166.221 127.803 165.072 129.279 162.843 129.648V130.861C162.843 131.21 162.576 131.492 162.247 131.492H161.645C161.316 131.492 161.05 131.21 161.05 130.861" fill="url(#paint38_linear)"/>
<path d="M169.656 162.92C167.803 162.92 166.049 162.469 164.488 161.664C161.915 160.338 159.864 158.052 158.75 155.246C158.646 154.984 158.55 154.717 158.463 154.446C158.052 153.175 157.83 151.811 157.83 150.392C157.83 143.825 162.6 138.438 168.671 137.907C168.938 137.883 169.207 137.869 169.479 137.866C169.538 137.864 169.597 137.864 169.656 137.864C172.578 137.864 175.253 138.987 177.316 140.846C179.866 143.144 181.483 146.568 181.483 150.392C181.483 157.311 176.188 162.92 169.656 162.92V162.92ZM169.656 138.281C163.342 138.281 158.223 143.703 158.223 150.392C158.223 157.081 163.342 162.503 169.656 162.503C175.97 162.503 181.089 157.081 181.089 150.392C181.089 143.703 175.97 138.281 169.656 138.281Z" fill="url(#paint39_linear)"/>
<path d="M169.654 162.503C163.34 162.503 158.221 157.081 158.221 150.392C158.221 143.703 163.34 138.28 169.654 138.28C175.968 138.28 181.087 143.703 181.087 150.392C181.087 157.081 175.968 162.503 169.654 162.503ZM169.903 140.405C164.559 140.405 160.227 144.995 160.227 150.656C160.227 156.317 164.559 160.907 169.903 160.907C175.248 160.907 179.58 156.317 179.58 150.656C179.58 144.995 175.248 140.405 169.903 140.405Z" fill="url(#paint40_linear)"/>
<path d="M169.905 160.907C164.561 160.907 160.229 156.318 160.229 150.656C160.229 144.995 164.561 140.405 169.905 140.405C175.25 140.405 179.582 144.995 179.582 150.656C179.582 156.318 175.25 160.907 169.905 160.907Z" fill="url(#paint41_linear)"/>
<path d="M168.953 158.276V157.162C167.856 157.115 166.77 156.841 165.999 156.483C165.724 156.356 165.583 156.028 165.662 155.721L165.93 154.682C166.028 154.301 166.42 154.104 166.763 154.257C167.528 154.596 168.473 154.865 169.491 154.865C170.548 154.865 171.336 154.486 171.336 153.707C171.336 153.005 170.727 152.588 169.258 152.17C167.162 151.563 165.657 150.595 165.657 148.64C165.657 146.874 166.875 145.527 168.989 145.167V144.051C168.989 143.692 169.264 143.401 169.603 143.401H170.221C170.56 143.401 170.835 143.692 170.835 144.051V145.053C171.85 145.095 172.59 145.28 173.176 145.498C173.476 145.61 173.641 145.953 173.557 146.278L173.312 147.239C173.217 147.61 172.842 147.812 172.504 147.677C171.964 147.46 171.2 147.236 170.208 147.236C168.953 147.236 168.595 147.785 168.595 148.279C168.595 148.886 169.348 149.304 170.978 149.835C173.307 150.576 174.275 151.6 174.275 153.441C174.275 155.131 173.092 156.649 170.799 157.029V158.276C170.799 158.635 170.524 158.927 170.185 158.927H169.567C169.228 158.927 168.953 158.635 168.953 158.276" fill="url(#paint42_linear)"/>
<path d="M184.825 142.506C182.141 142.506 179.742 141.213 178.152 139.182C176.908 137.593 176.16 135.552 176.16 133.326C176.16 128.309 179.961 124.231 184.68 124.149C184.728 124.148 184.777 124.147 184.825 124.147C189.611 124.147 193.49 128.257 193.49 133.326C193.49 138.396 189.611 142.506 184.825 142.506V142.506ZM184.825 124.453C180.199 124.453 176.448 128.426 176.448 133.326C176.448 138.228 180.199 142.201 184.825 142.201C189.452 142.201 193.202 138.228 193.202 133.326C193.202 128.426 189.452 124.453 184.825 124.453Z" fill="url(#paint43_linear)"/>
<path d="M184.83 142.2C180.204 142.2 176.453 138.228 176.453 133.326C176.453 128.426 180.204 124.453 184.83 124.453C189.457 124.453 193.207 128.426 193.207 133.326C193.207 138.228 189.457 142.2 184.83 142.2ZM185.013 126.009C181.097 126.009 177.922 129.372 177.922 133.52C177.922 137.668 181.097 141.031 185.013 141.031C188.928 141.031 192.103 137.668 192.103 133.52C192.103 129.372 188.928 126.009 185.013 126.009Z" fill="url(#paint44_linear)"/>
<path d="M185.011 141.031C181.095 141.031 177.92 137.668 177.92 133.52C177.92 129.372 181.095 126.009 185.011 126.009C188.926 126.009 192.101 129.372 192.101 133.52C192.101 137.668 188.926 141.031 185.011 141.031Z" fill="url(#paint45_linear)"/>
<path d="M184.311 139.103V138.286C183.508 138.253 182.712 138.051 182.147 137.789C181.945 137.696 181.843 137.456 181.901 137.231L182.096 136.47C182.168 136.19 182.455 136.046 182.707 136.158C183.267 136.407 183.959 136.603 184.706 136.603C185.48 136.603 186.057 136.325 186.057 135.756C186.057 135.241 185.611 134.935 184.534 134.629C182.999 134.184 181.896 133.475 181.896 132.043C181.896 130.749 182.789 129.762 184.338 129.498V128.68C184.338 128.418 184.539 128.205 184.787 128.205H185.241C185.489 128.205 185.69 128.418 185.69 128.68V129.414C186.434 129.446 186.975 129.581 187.406 129.741C187.626 129.822 187.746 130.074 187.685 130.313L187.505 131.017C187.435 131.288 187.162 131.436 186.913 131.337C186.517 131.179 185.958 131.014 185.231 131.014C184.311 131.014 184.049 131.417 184.049 131.778C184.049 132.223 184.6 132.529 185.795 132.919C187.502 133.461 188.211 134.212 188.211 135.56C188.211 136.799 187.344 137.911 185.664 138.189V139.103C185.664 139.367 185.463 139.58 185.214 139.58H184.761C184.513 139.58 184.311 139.367 184.311 139.103" fill="url(#paint46_linear)"/>
<path d="M145.249 21.093C145.249 29.1497 139.084 35.6804 131.478 35.6804C123.873 35.6804 117.707 29.1497 117.707 21.093C117.707 13.0363 123.873 6.50484 131.478 6.50484C139.084 6.50484 145.249 13.0363 145.249 21.093Z" fill="url(#paint47_linear)"/>
<path d="M93.145 33.4174C93.145 42.2521 86.3841 49.4141 78.0442 49.4141C69.7042 49.4141 62.9434 42.2521 62.9434 33.4174C62.9434 24.5828 69.7042 17.4208 78.0442 17.4208C86.3841 17.4208 93.145 24.5828 93.145 33.4174Z" fill="url(#paint48_linear)"/>
<path d="M63.4764 76.6874C63.4764 85.343 56.853 92.3589 48.6826 92.3589C40.5121 92.3589 33.8887 85.343 33.8887 76.6874C33.8887 68.0326 40.5121 61.0159 48.6826 61.0159C56.853 61.0159 63.4764 68.0326 63.4764 76.6874" fill="url(#paint49_linear)"/>
<path d="M43.9167 77.6289C43.9167 77.6289 43.4668 76.1992 42.9001 76.0759C42.3335 75.9518 39.9338 75.4226 39.8838 75.8637C39.8338 76.3049 39.3506 77.8234 40.7837 77.9643C42.2169 78.106 44.1476 78.222 43.9167 77.6289Z" fill="url(#paint50_linear)"/>
<path d="M53.683 77.6289C53.683 77.6289 54.1329 76.1992 54.6995 76.0759C55.2662 75.9518 57.6657 75.4226 57.7156 75.8637C57.7662 76.3049 58.2491 77.8234 56.8159 77.9643C55.3828 78.106 53.4521 78.222 53.683 77.6289" fill="url(#paint51_linear)"/>
<path d="M53.3579 76.4106C53.3113 76.335 53.2316 76.2902 53.1461 76.2902H44.4497C44.3611 76.2902 44.279 76.3379 44.2334 76.4187C44.1877 76.4987 44.1852 76.5978 44.2267 76.6807L44.7159 77.6738C44.8975 78.0364 45.2534 78.2793 45.6409 78.2793H52.0307C52.444 78.2793 52.8186 78.0055 52.9869 77.6055L53.3767 76.6726C53.4115 76.5897 53.4044 76.4869 53.3579 76.4106Z" fill="url(#paint52_linear)"/>
<path d="M55.7261 73.3719C55.6697 73.4629 55.5737 73.5562 55.4702 73.5562H42.1257C42.0212 73.5562 41.9237 73.4615 41.8678 73.3683C41.8118 73.2743 41.8048 73.1378 41.8497 73.0373C42.1527 72.3605 42.7211 71.0996 43.0397 70.3987C43.0541 70.3671 43.0701 70.3062 43.0881 70.2768C43.2421 70.0185 43.5125 69.8277 43.806 69.8277H53.8973C54.1938 69.8277 54.4653 70.0163 54.6188 70.2776C54.6403 70.315 54.6597 70.3664 54.6762 70.4067L55.7502 73.0402C55.7917 73.14 55.7827 73.2802 55.7261 73.3719" fill="url(#paint53_linear)"/>
<defs>
<filter id="filter0_d" x="0" y="34" width="229.852" height="278.039" filterUnits="userSpaceOnUse" color-interpolation-filters="sRGB">
<feFlood flood-opacity="0" result="BackgroundImageFix"/>
<feColorMatrix in="SourceAlpha" type="matrix" values="0 0 0 0 0 0 0 0 0 0 0 0 0 0 0 0 0 0 127 0" result="hardAlpha"/>
<feOffset dy="4"/>
<feGaussianBlur stdDeviation="2"/>
<feColorMatrix type="matrix" values="0 0 0 0 0 0 0 0 0 0 0 0 0 0 0 0 0 0 0.11 0"/>
<feBlend mode="normal" in2="BackgroundImageFix" result="effect1_dropShadow"/>
<feBlend mode="normal" in="SourceGraphic" in2="effect1_dropShadow" result="shape"/>
</filter>
<linearGradient id="paint0_linear" x1="206.306" y1="162.598" x2="16.3029" y2="115.225" gradientUnits="userSpaceOnUse">
<stop offset="0.101406" stop-color="#0C397F"/>
<stop offset="1" stop-color="#79BAFA"/>
</linearGradient>
<linearGradient id="paint1_linear" x1="135.166" y1="191.517" x2="78.4782" y2="249.725" gradientUnits="userSpaceOnUse">
<stop stop-color="#2B3582"/>
<stop offset="1" stop-color="#150E42"/>
</linearGradient>
<linearGradient id="paint2_linear" x1="117.852" y1="196.081" x2="122.59" y2="196.081" gradientUnits="userSpaceOnUse">
<stop stop-color="#F9B776"/>
<stop offset="1" stop-color="#F47960"/>
</linearGradient>
<linearGradient id="paint3_linear" x1="139.369" y1="122.006" x2="90.5365" y2="184.486" gradientUnits="userSpaceOnUse">
<stop stop-color="#2B3582"/>
<stop offset="1" stop-color="#150E42"/>
</linearGradient>
<linearGradient id="paint4_linear" x1="123.2" y1="179.862" x2="66.5122" y2="238.07" gradientUnits="userSpaceOnUse">
<stop stop-color="#2B3582"/>
<stop offset="1" stop-color="#150E42"/>
</linearGradient>
<linearGradient id="paint5_linear" x1="100.777" y1="195.824" x2="104.868" y2="195.824" gradientUnits="userSpaceOnUse">
<stop stop-color="#F9B776"/>
<stop offset="1" stop-color="#F47960"/>
</linearGradient>
<linearGradient id="paint6_linear" x1="131.278" y1="115.683" x2="82.4455" y2="178.163" gradientUnits="userSpaceOnUse">
<stop stop-color="#2B3582"/>
<stop offset="1" stop-color="#150E42"/>
</linearGradient>
<linearGradient id="paint7_linear" x1="110.507" y1="99.4858" x2="155.134" y2="69.2431" gradientUnits="userSpaceOnUse">
<stop stop-color="#6DB3C9"/>
<stop offset="1" stop-color="#4C246D"/>
</linearGradient>
<linearGradient id="paint8_linear" x1="157.825" y1="35.2568" x2="148.567" y2="60.2266" gradientUnits="userSpaceOnUse">
<stop stop-color="#F9B776"/>
<stop offset="1" stop-color="#F47960"/>
</linearGradient>
<linearGradient id="paint9_linear" x1="90.2616" y1="86.2275" x2="107.827" y2="74.1037" gradientUnits="userSpaceOnUse">
<stop stop-color="#6DB3C9"/>
<stop offset="1" stop-color="#4C246D"/>
</linearGradient>
<linearGradient id="paint10_linear" x1="107.906" y1="66.7636" x2="120.017" y2="66.7636" gradientUnits="userSpaceOnUse">
<stop stop-color="#F9B776"/>
<stop offset="1" stop-color="#F47960"/>
</linearGradient>
<linearGradient id="paint11_linear" x1="122.899" y1="58.601" x2="109.177" y2="50.7004" gradientUnits="userSpaceOnUse">
<stop stop-color="#F9B776"/>
<stop offset="1" stop-color="#F47960"/>
</linearGradient>
<linearGradient id="paint12_linear" x1="102.532" y1="40.9276" x2="120.487" y2="54.3146" gradientUnits="userSpaceOnUse">
<stop stop-color="#2B3582"/>
<stop offset="1" stop-color="#150E42"/>
</linearGradient>
<linearGradient id="paint13_linear" x1="119.399" y1="61.8101" x2="107.054" y2="54.7018" gradientUnits="userSpaceOnUse">
<stop stop-color="#F9B776"/>
<stop offset="1" stop-color="#F47960"/>
</linearGradient>
<linearGradient id="paint14_linear" x1="97.7629" y1="161.1" x2="86.7391" y2="86.362" gradientUnits="userSpaceOnUse">
<stop stop-color="#F9B776"/>
<stop offset="1" stop-color="#F47960"/>
</linearGradient>
<linearGradient id="paint15_linear" x1="96.5895" y1="153.894" x2="87.7925" y2="94.2531" gradientUnits="userSpaceOnUse">
<stop stop-color="#F9B776"/>
<stop offset="1" stop-color="#F47960"/>
</linearGradient>
<linearGradient id="paint16_linear" x1="116.048" y1="67.6112" x2="124.977" y2="84.4694" gradientUnits="userSpaceOnUse">
<stop stop-color="#53D8FF"/>
<stop offset="1" stop-color="#3840F7"/>
</linearGradient>
<linearGradient id="paint17_linear" x1="115.716" y1="64.7986" x2="100.184" y2="86.4638" gradientUnits="userSpaceOnUse">
<stop stop-color="#53D8FF"/>
<stop offset="1" stop-color="#3840F7"/>
</linearGradient>
<linearGradient id="paint18_linear" x1="110.264" y1="76.9868" x2="134.274" y2="66.1074" gradientUnits="userSpaceOnUse">
<stop stop-color="#FDF53F"/>
<stop offset="1" stop-color="#D93C65"/>
</linearGradient>
<linearGradient id="paint19_linear" x1="160.994" y1="51.3436" x2="199.62" y2="141.035" gradientUnits="userSpaceOnUse">
<stop stop-color="#53D8FF"/>
<stop offset="1" stop-color="#3840F7"/>
</linearGradient>
<linearGradient id="paint20_linear" x1="160.994" y1="51.3437" x2="199.621" y2="141.036" gradientUnits="userSpaceOnUse">
<stop stop-color="#C0F1FF"/>
<stop offset="1" stop-color="#B6B9FC"/>
</linearGradient>
<linearGradient id="paint21_linear" x1="160.994" y1="51.3437" x2="199.621" y2="141.036" gradientUnits="userSpaceOnUse">
<stop stop-color="#C0F1FF"/>
<stop offset="1" stop-color="#B6B9FC"/>
</linearGradient>
<linearGradient id="paint22_linear" x1="160.994" y1="51.3437" x2="199.62" y2="141.035" gradientUnits="userSpaceOnUse">
<stop stop-color="#C0F1FF"/>
<stop offset="1" stop-color="#B6B9FC"/>
</linearGradient>
<linearGradient id="paint23_linear" x1="160.994" y1="51.3438" x2="199.621" y2="141.036" gradientUnits="userSpaceOnUse">
<stop stop-color="#C0F1FF"/>
<stop offset="1" stop-color="#B6B9FC"/>
</linearGradient>
<linearGradient id="paint24_linear" x1="160.993" y1="51.3442" x2="199.618" y2="141.035" gradientUnits="userSpaceOnUse">
<stop stop-color="#C0F1FF"/>
<stop offset="1" stop-color="#B6B9FC"/>
</linearGradient>
<linearGradient id="paint25_linear" x1="160.993" y1="51.3442" x2="199.619" y2="141.035" gradientUnits="userSpaceOnUse">
<stop stop-color="#C0F1FF"/>
<stop offset="1" stop-color="#B6B9FC"/>
</linearGradient>
<linearGradient id="paint26_linear" x1="171.991" y1="39.999" x2="156.697" y2="49.1918" gradientUnits="userSpaceOnUse">
<stop stop-color="#F9B776"/>
<stop offset="1" stop-color="#F47960"/>
</linearGradient>
<linearGradient id="paint27_linear" x1="170.95" y1="38.2588" x2="155.656" y2="47.4517" gradientUnits="userSpaceOnUse">
<stop stop-color="#F9B776"/>
<stop offset="1" stop-color="#F47960"/>
</linearGradient>
<linearGradient id="paint28_linear" x1="171.274" y1="38.799" x2="155.98" y2="47.992" gradientUnits="userSpaceOnUse">
<stop stop-color="#F9B776"/>
<stop offset="1" stop-color="#F47960"/>
</linearGradient>
<linearGradient id="paint29_linear" x1="171.673" y1="39.4632" x2="156.378" y2="48.6558" gradientUnits="userSpaceOnUse">
<stop stop-color="#F9B776"/>
<stop offset="1" stop-color="#F47960"/>
</linearGradient>
<linearGradient id="paint30_linear" x1="160.994" y1="51.3437" x2="199.621" y2="141.036" gradientUnits="userSpaceOnUse">
<stop stop-color="#C0F1FF"/>
<stop offset="1" stop-color="#B6B9FC"/>
</linearGradient>
<linearGradient id="paint31_linear" x1="133.902" y1="142.601" x2="143.348" y2="132.251" gradientUnits="userSpaceOnUse">
<stop stop-color="#FDF53F"/>
<stop offset="1" stop-color="#D93C65"/>
</linearGradient>
<linearGradient id="paint32_linear" x1="147.762" y1="123.771" x2="119.431" y2="164.174" gradientUnits="userSpaceOnUse">
<stop stop-color="#FDF53F"/>
<stop offset="1" stop-color="#D93C65"/>
</linearGradient>
<linearGradient id="paint33_linear" x1="147.76" y1="123.771" x2="119.429" y2="164.174" gradientUnits="userSpaceOnUse">
<stop stop-color="#FFFDD5"/>
<stop offset="1" stop-color="#F7D4DD"/>
</linearGradient>
<linearGradient id="paint34_linear" x1="146.982" y1="124.971" x2="131.82" y2="149" gradientUnits="userSpaceOnUse">
<stop stop-color="#FDF53F"/>
<stop offset="1" stop-color="#D93C65"/>
</linearGradient>
<linearGradient id="paint35_linear" x1="146.004" y1="142.537" x2="162.448" y2="124.519" gradientUnits="userSpaceOnUse">
<stop stop-color="#FDF53F"/>
<stop offset="1" stop-color="#D93C65"/>
</linearGradient>
<linearGradient id="paint36_linear" x1="170.128" y1="109.756" x2="120.809" y2="180.09" gradientUnits="userSpaceOnUse">
<stop stop-color="#FDF53F"/>
<stop offset="1" stop-color="#D93C65"/>
</linearGradient>
<linearGradient id="paint37_linear" x1="170.128" y1="109.756" x2="120.809" y2="180.091" gradientUnits="userSpaceOnUse">
<stop stop-color="#FFFDD5"/>
<stop offset="1" stop-color="#F7D4DD"/>
</linearGradient>
<linearGradient id="paint38_linear" x1="168.77" y1="111.846" x2="142.375" y2="153.676" gradientUnits="userSpaceOnUse">
<stop stop-color="#FDF53F"/>
<stop offset="1" stop-color="#D93C65"/>
</linearGradient>
<linearGradient id="paint39_linear" x1="153.473" y1="170.291" x2="170.393" y2="151.751" gradientUnits="userSpaceOnUse">
<stop stop-color="#FDF53F"/>
<stop offset="1" stop-color="#D93C65"/>
</linearGradient>
<linearGradient id="paint40_linear" x1="178.297" y1="136.56" x2="127.548" y2="208.933" gradientUnits="userSpaceOnUse">
<stop stop-color="#FDF53F"/>
<stop offset="1" stop-color="#D93C65"/>
</linearGradient>
<linearGradient id="paint41_linear" x1="178.299" y1="136.56" x2="127.55" y2="208.933" gradientUnits="userSpaceOnUse">
<stop stop-color="#FFFDD5"/>
<stop offset="1" stop-color="#F7D4DD"/>
</linearGradient>
<linearGradient id="paint42_linear" x1="176.898" y1="138.711" x2="149.738" y2="181.754" gradientUnits="userSpaceOnUse">
<stop stop-color="#FDF53F"/>
<stop offset="1" stop-color="#D93C65"/>
</linearGradient>
<linearGradient id="paint43_linear" x1="172.967" y1="147.906" x2="185.365" y2="134.322" gradientUnits="userSpaceOnUse">
<stop stop-color="#FDF53F"/>
<stop offset="1" stop-color="#D93C65"/>
</linearGradient>
<linearGradient id="paint44_linear" x1="191.162" y1="123.192" x2="153.979" y2="176.219" gradientUnits="userSpaceOnUse">
<stop stop-color="#FDF53F"/>
<stop offset="1" stop-color="#D93C65"/>
</linearGradient>
<linearGradient id="paint45_linear" x1="191.16" y1="123.192" x2="153.977" y2="176.219" gradientUnits="userSpaceOnUse">
<stop stop-color="#FFFDD5"/>
<stop offset="1" stop-color="#F7D4DD"/>
</linearGradient>
<linearGradient id="paint46_linear" x1="190.133" y1="124.768" x2="170.233" y2="156.305" gradientUnits="userSpaceOnUse">
<stop stop-color="#FDF53F"/>
<stop offset="1" stop-color="#D93C65"/>
</linearGradient>
<linearGradient id="paint47_linear" x1="124.013" y1="5.58519" x2="149.265" y2="52.3337" gradientUnits="userSpaceOnUse">
<stop stop-color="#53D8FF"/>
<stop offset="1" stop-color="#3840F7"/>
</linearGradient>
<linearGradient id="paint48_linear" x1="67.1594" y1="12.5143" x2="108.695" y2="83.5981" gradientUnits="userSpaceOnUse">
<stop stop-color="#53D8FF"/>
<stop offset="1" stop-color="#3840F7"/>
</linearGradient>
<linearGradient id="paint49_linear" x1="41.5651" y1="91.9596" x2="68.2459" y2="40.9432" gradientUnits="userSpaceOnUse">
<stop stop-color="#53D8FF"/>
<stop offset="1" stop-color="#3840F7"/>
</linearGradient>
<linearGradient id="paint50_linear" x1="36.1639" y1="89.1345" x2="62.845" y2="38.1179" gradientUnits="userSpaceOnUse">
<stop stop-color="#53D8FF"/>
<stop offset="1" stop-color="#3840F7"/>
</linearGradient>
<linearGradient id="paint51_linear" x1="47.5019" y1="95.0642" x2="74.1831" y2="44.0474" gradientUnits="userSpaceOnUse">
<stop stop-color="#53D8FF"/>
<stop offset="1" stop-color="#3840F7"/>
</linearGradient>
<linearGradient id="paint52_linear" x1="41.5984" y1="92.0574" x2="68.3356" y2="40.9343" gradientUnits="userSpaceOnUse">
<stop stop-color="#53D8FF"/>
<stop offset="1" stop-color="#3840F7"/>
</linearGradient>
<linearGradient id="paint53_linear" x1="40.3512" y1="91.257" x2="67.0098" y2="40.2829" gradientUnits="userSpaceOnUse">
<stop stop-color="#53D8FF"/>
<stop offset="1" stop-color="#3840F7"/>
</linearGradient>
</defs>
</svg>
