<svg width="258" height="343" viewBox="0 0 258 343" fill="none" xmlns="http://www.w3.org/2000/svg">
<g filter="url(#filter0_d)">
<rect x="11" y="64" width="221.852" height="270.039" rx="8" fill="#F4F9FF"/>
</g>
<path d="M77.151 273.819C75.621 273.819 74.136 273.63 72.696 273.252C71.256 272.874 70.086 272.37 69.186 271.74L70.941 267.798C71.787 268.356 72.768 268.806 73.884 269.148C75 269.49 76.098 269.661 77.178 269.661C79.23 269.661 80.256 269.148 80.256 268.122C80.256 267.582 79.959 267.186 79.365 266.934C78.789 266.664 77.853 266.385 76.557 266.097C75.135 265.791 73.947 265.467 72.993 265.125C72.039 264.765 71.22 264.198 70.536 263.424C69.852 262.65 69.51 261.606 69.51 260.292C69.51 259.14 69.825 258.105 70.455 257.187C71.085 256.251 72.021 255.513 73.263 254.973C74.523 254.433 76.062 254.163 77.88 254.163C79.122 254.163 80.346 254.307 81.552 254.595C82.758 254.865 83.82 255.27 84.738 255.81L83.091 259.779C81.291 258.807 79.545 258.321 77.853 258.321C76.791 258.321 76.017 258.483 75.531 258.807C75.045 259.113 74.802 259.518 74.802 260.022C74.802 260.526 75.09 260.904 75.666 261.156C76.242 261.408 77.169 261.669 78.447 261.939C79.887 262.245 81.075 262.578 82.011 262.938C82.965 263.28 83.784 263.838 84.468 264.612C85.17 265.368 85.521 266.403 85.521 267.717C85.521 268.851 85.206 269.877 84.576 270.795C83.946 271.713 83.001 272.451 81.741 273.009C80.481 273.549 78.951 273.819 77.151 273.819ZM102.705 266.151C102.705 266.187 102.678 266.61 102.624 267.42H91.9864C92.2024 268.176 92.6164 268.761 93.2284 269.175C93.8584 269.571 94.6414 269.769 95.5774 269.769C96.2794 269.769 96.8824 269.67 97.3864 269.472C97.9084 269.274 98.4304 268.95 98.9524 268.5L101.652 271.308C100.23 272.892 98.1514 273.684 95.4154 273.684C93.7054 273.684 92.2024 273.36 90.9064 272.712C89.6104 272.064 88.6024 271.164 87.8824 270.012C87.1804 268.86 86.8294 267.555 86.8294 266.097C86.8294 264.657 87.1714 263.37 87.8554 262.236C88.5574 261.084 89.5204 260.184 90.7444 259.536C91.9684 258.888 93.3454 258.564 94.8754 258.564C96.3334 258.564 97.6564 258.87 98.8444 259.482C100.032 260.076 100.968 260.949 101.652 262.101C102.354 263.235 102.705 264.585 102.705 266.151ZM94.9024 262.209C94.1104 262.209 93.4444 262.434 92.9044 262.884C92.3824 263.334 92.0494 263.946 91.9054 264.72H97.8994C97.7554 263.946 97.4134 263.334 96.8734 262.884C96.3514 262.434 95.6944 262.209 94.9024 262.209ZM112.55 273.684C110.93 273.684 109.481 273.36 108.203 272.712C106.925 272.064 105.926 271.164 105.206 270.012C104.504 268.86 104.153 267.555 104.153 266.097C104.153 264.639 104.504 263.343 105.206 262.209C105.926 261.057 106.925 260.166 108.203 259.536C109.481 258.888 110.93 258.564 112.55 258.564C114.206 258.564 115.637 258.924 116.843 259.644C118.049 260.346 118.904 261.327 119.408 262.587L115.439 264.612C114.773 263.298 113.801 262.641 112.523 262.641C111.605 262.641 110.84 262.947 110.228 263.559C109.634 264.171 109.337 265.017 109.337 266.097C109.337 267.195 109.634 268.059 110.228 268.689C110.84 269.301 111.605 269.607 112.523 269.607C113.801 269.607 114.773 268.95 115.439 267.636L119.408 269.661C118.904 270.921 118.049 271.911 116.843 272.631C115.637 273.333 114.206 273.684 112.55 273.684ZM136.729 258.807V273.441H131.842V271.875C131.302 272.469 130.654 272.919 129.898 273.225C129.142 273.531 128.341 273.684 127.495 273.684C125.605 273.684 124.093 273.126 122.959 272.01C121.843 270.894 121.285 269.22 121.285 266.988V258.807H126.415V266.151C126.415 267.249 126.622 268.05 127.036 268.554C127.45 269.058 128.053 269.31 128.845 269.31C129.655 269.31 130.312 269.031 130.816 268.473C131.338 267.897 131.599 267.024 131.599 265.854V258.807H136.729ZM144.921 260.562C145.443 259.896 146.118 259.401 146.946 259.077C147.792 258.735 148.755 258.564 149.835 258.564V263.181C149.367 263.127 148.98 263.1 148.674 263.1C147.576 263.1 146.712 263.397 146.082 263.991C145.47 264.585 145.164 265.494 145.164 266.718V273.441H140.034V258.807H144.921V260.562ZM166.778 266.151C166.778 266.187 166.751 266.61 166.697 267.42H156.059C156.275 268.176 156.689 268.761 157.301 269.175C157.931 269.571 158.714 269.769 159.65 269.769C160.352 269.769 160.955 269.67 161.459 269.472C161.981 269.274 162.503 268.95 163.025 268.5L165.725 271.308C164.303 272.892 162.224 273.684 159.488 273.684C157.778 273.684 156.275 273.36 154.979 272.712C153.683 272.064 152.675 271.164 151.955 270.012C151.253 268.86 150.902 267.555 150.902 266.097C150.902 264.657 151.244 263.37 151.928 262.236C152.63 261.084 153.593 260.184 154.817 259.536C156.041 258.888 157.418 258.564 158.948 258.564C160.406 258.564 161.729 258.87 162.917 259.482C164.105 260.076 165.041 260.949 165.725 262.101C166.427 263.235 166.778 264.585 166.778 266.151ZM158.975 262.209C158.183 262.209 157.517 262.434 156.977 262.884C156.455 263.334 156.122 263.946 155.978 264.72H161.972C161.828 263.946 161.486 263.334 160.946 262.884C160.424 262.434 159.767 262.209 158.975 262.209Z" fill="#0C5AAE"/>
<path d="M59.7944 304.984C61.8294 304.984 62.7754 303.972 62.7754 302.795C62.7754 299.968 58.1114 301.145 58.1114 299.264C58.1114 298.593 58.6724 298.043 59.9814 298.043C60.6634 298.043 61.4224 298.241 62.0934 298.67L62.4564 297.79C61.8184 297.35 60.8834 297.108 59.9814 297.108C57.9574 297.108 57.0334 298.12 57.0334 299.308C57.0334 302.168 61.6974 300.98 61.6974 302.861C61.6974 303.532 61.1254 304.049 59.7944 304.049C58.8044 304.049 57.8254 303.675 57.2534 303.158L56.8464 304.016C57.4624 304.588 58.6174 304.984 59.7944 304.984ZM66.7254 304.962C68.4744 304.962 69.7504 303.719 69.7504 301.981C69.7504 300.243 68.4744 299.011 66.7254 299.011C64.9764 299.011 63.6894 300.243 63.6894 301.981C63.6894 303.719 64.9764 304.962 66.7254 304.962ZM66.7254 304.038C65.6034 304.038 64.7564 303.224 64.7564 301.981C64.7564 300.738 65.6034 299.935 66.7254 299.935C67.8474 299.935 68.6834 300.738 68.6834 301.981C68.6834 303.224 67.8474 304.038 66.7254 304.038ZM78.5038 299.011C77.5138 299.011 76.6998 299.429 76.2598 300.089C75.8748 299.363 75.1268 299.011 74.2358 299.011C73.3558 299.011 72.6408 299.341 72.2228 299.935V299.066H71.2108V304.896H72.2668V301.893C72.2668 300.628 72.9598 299.957 74.0158 299.957C74.9728 299.957 75.5228 300.518 75.5228 301.662V304.896H76.5788V301.893C76.5788 300.628 77.2718 299.957 78.3278 299.957C79.2848 299.957 79.8348 300.518 79.8348 301.662V304.896H80.8908V301.541C80.8908 299.825 79.9228 299.011 78.5038 299.011ZM88.1351 302.014C88.1351 300.221 86.9361 299.011 85.2531 299.011C83.5701 299.011 82.3271 300.254 82.3271 301.981C82.3271 303.719 83.5811 304.962 85.4621 304.962C86.4301 304.962 87.2331 304.632 87.7611 304.016L87.1781 303.334C86.7491 303.807 86.1771 304.038 85.4951 304.038C84.3401 304.038 83.5151 303.356 83.3831 302.333H88.1131C88.1241 302.234 88.1351 302.102 88.1351 302.014ZM85.2531 299.902C86.2761 299.902 87.0131 300.595 87.1231 301.574H83.3831C83.4931 300.584 84.2411 299.902 85.2531 299.902ZM92.5494 303.796C92.3294 303.972 92.0324 304.071 91.7244 304.071C91.1414 304.071 90.8114 303.719 90.8114 303.092V299.935H92.4834V299.066H90.8114V297.79H89.7554V299.066H88.7654V299.935H89.7554V303.136C89.7554 304.313 90.4264 304.962 91.6034 304.962C92.0764 304.962 92.5604 304.83 92.8794 304.555L92.5494 303.796ZM97.2691 299.011C96.3781 299.011 95.6521 299.33 95.2121 299.891V296.734H94.1561V304.896H95.2121V301.893C95.2121 300.628 95.9381 299.957 97.0601 299.957C98.0611 299.957 98.6331 300.518 98.6331 301.662V304.896H99.6891V301.541C99.6891 299.825 98.6881 299.011 97.2691 299.011ZM102.171 297.944C102.589 297.944 102.886 297.636 102.886 297.24C102.886 296.866 102.578 296.569 102.171 296.569C101.764 296.569 101.456 296.877 101.456 297.262C101.456 297.647 101.764 297.944 102.171 297.944ZM101.643 304.896H102.699V299.066H101.643V304.896ZM107.829 299.011C106.905 299.011 106.157 299.352 105.728 299.946V299.066H104.716V304.896H105.772V301.893C105.772 300.628 106.498 299.957 107.62 299.957C108.621 299.957 109.193 300.518 109.193 301.662V304.896H110.249V301.541C110.249 299.825 109.248 299.011 107.829 299.011ZM116.811 299.066V299.968C116.316 299.33 115.524 299.011 114.655 299.011C112.972 299.011 111.696 300.144 111.696 301.827C111.696 303.51 112.972 304.654 114.655 304.654C115.491 304.654 116.25 304.357 116.756 303.752V304.214C116.756 305.534 116.129 306.172 114.754 306.172C113.896 306.172 113.049 305.875 112.51 305.413L112.004 306.227C112.642 306.799 113.72 307.096 114.787 307.096C116.767 307.096 117.812 306.161 117.812 304.104V299.066H116.811ZM114.776 303.73C113.599 303.73 112.763 302.949 112.763 301.827C112.763 300.694 113.599 299.935 114.776 299.935C115.942 299.935 116.778 300.694 116.778 301.827C116.778 302.949 115.942 303.73 114.776 303.73ZM125.897 299.011C125.006 299.011 124.28 299.33 123.84 299.891V296.734H122.784V304.896H123.84V301.893C123.84 300.628 124.566 299.957 125.688 299.957C126.689 299.957 127.261 300.518 127.261 301.662V304.896H128.317V301.541C128.317 299.825 127.316 299.011 125.897 299.011ZM135.573 302.014C135.573 300.221 134.374 299.011 132.691 299.011C131.008 299.011 129.765 300.254 129.765 301.981C129.765 303.719 131.019 304.962 132.9 304.962C133.868 304.962 134.671 304.632 135.199 304.016L134.616 303.334C134.187 303.807 133.615 304.038 132.933 304.038C131.778 304.038 130.953 303.356 130.821 302.333H135.551C135.562 302.234 135.573 302.102 135.573 302.014ZM132.691 299.902C133.714 299.902 134.451 300.595 134.561 301.574H130.821C130.931 300.584 131.679 299.902 132.691 299.902ZM138.051 300.045V299.066H137.039V304.896H138.095V301.992C138.095 300.716 138.799 300.023 139.932 300.023C140.009 300.023 140.086 300.023 140.174 300.034V299.011C139.151 299.011 138.425 299.363 138.051 300.045ZM146.691 302.014C146.691 300.221 145.492 299.011 143.809 299.011C142.126 299.011 140.883 300.254 140.883 301.981C140.883 303.719 142.137 304.962 144.018 304.962C144.986 304.962 145.789 304.632 146.317 304.016L145.734 303.334C145.305 303.807 144.733 304.038 144.051 304.038C142.896 304.038 142.071 303.356 141.939 302.333H146.669C146.68 302.234 146.691 302.102 146.691 302.014ZM143.809 299.902C144.832 299.902 145.569 300.595 145.679 301.574H141.939C142.049 300.584 142.797 299.902 143.809 299.902ZM153.234 299.011C152.299 299.011 151.43 299.275 150.825 299.759L151.265 300.551C151.716 300.166 152.42 299.924 153.113 299.924C154.158 299.924 154.675 300.441 154.675 301.332V301.541H153.003C151.265 301.541 150.66 302.311 150.66 303.246C150.66 304.258 151.496 304.962 152.816 304.962C153.729 304.962 154.378 304.654 154.73 304.126V304.896H155.731V301.376C155.731 299.781 154.829 299.011 153.234 299.011ZM152.992 304.148C152.189 304.148 151.705 303.785 151.705 303.202C151.705 302.707 152.002 302.3 153.047 302.3H154.675V303.114C154.411 303.785 153.784 304.148 152.992 304.148ZM160.776 299.011C159.951 299.011 159.225 299.319 158.741 299.946V296.734H157.685V304.896H158.697V303.972C159.17 304.632 159.918 304.962 160.776 304.962C162.481 304.962 163.724 303.763 163.724 301.981C163.724 300.199 162.481 299.011 160.776 299.011ZM160.688 304.038C159.577 304.038 158.73 303.224 158.73 301.981C158.73 300.738 159.577 299.935 160.688 299.935C161.81 299.935 162.657 300.738 162.657 301.981C162.657 303.224 161.81 304.038 160.688 304.038ZM167.68 304.962C169.429 304.962 170.705 303.719 170.705 301.981C170.705 300.243 169.429 299.011 167.68 299.011C165.931 299.011 164.644 300.243 164.644 301.981C164.644 303.719 165.931 304.962 167.68 304.962ZM167.68 304.038C166.558 304.038 165.711 303.224 165.711 301.981C165.711 300.738 166.558 299.935 167.68 299.935C168.802 299.935 169.638 300.738 169.638 301.981C169.638 303.224 168.802 304.038 167.68 304.038ZM176.544 299.066V302.08C176.544 303.334 175.84 304.016 174.74 304.016C173.739 304.016 173.167 303.444 173.167 302.3V299.066H172.111V302.421C172.111 304.137 173.112 304.962 174.619 304.962C175.444 304.962 176.17 304.621 176.599 304.016V304.896H177.6V299.066H176.544ZM182.558 303.796C182.338 303.972 182.041 304.071 181.733 304.071C181.15 304.071 180.82 303.719 180.82 303.092V299.935H182.492V299.066H180.82V297.79H179.764V299.066H178.774V299.935H179.764V303.136C179.764 304.313 180.435 304.962 181.612 304.962C182.085 304.962 182.569 304.83 182.888 304.555L182.558 303.796ZM91.7708 317.962C93.5198 317.962 94.7958 316.719 94.7958 314.981C94.7958 313.243 93.5198 312.011 91.7708 312.011C90.0218 312.011 88.7348 313.243 88.7348 314.981C88.7348 316.719 90.0218 317.962 91.7708 317.962ZM91.7708 317.038C90.6488 317.038 89.8018 316.224 89.8018 314.981C89.8018 313.738 90.6488 312.935 91.7708 312.935C92.8928 312.935 93.7288 313.738 93.7288 314.981C93.7288 316.224 92.8928 317.038 91.7708 317.038ZM100.634 312.066V315.08C100.634 316.334 99.9302 317.016 98.8302 317.016C97.8292 317.016 97.2572 316.444 97.2572 315.3V312.066H96.2012V315.421C96.2012 317.137 97.2022 317.962 98.7092 317.962C99.5342 317.962 100.26 317.621 100.689 317.016V317.896H101.69V312.066H100.634ZM104.713 313.045V312.066H103.701V317.896H104.757V314.992C104.757 313.716 105.461 313.023 106.594 313.023C106.671 313.023 106.748 313.023 106.836 313.034V312.011C105.813 312.011 105.087 312.363 104.713 313.045ZM112.838 317.962C114.389 317.962 115.357 317.291 115.357 316.235C115.357 313.969 111.661 315.091 111.661 313.716C111.661 313.254 112.112 312.913 113.036 312.913C113.608 312.913 114.191 313.034 114.719 313.375L115.17 312.539C114.664 312.209 113.806 312.011 113.047 312.011C111.551 312.011 110.616 312.715 110.616 313.76C110.616 316.081 114.301 314.948 114.301 316.257C114.301 316.752 113.894 317.049 112.915 317.049C112.156 317.049 111.364 316.796 110.869 316.444L110.429 317.28C110.913 317.665 111.87 317.962 112.838 317.962ZM121.946 315.014C121.946 313.221 120.747 312.011 119.064 312.011C117.381 312.011 116.138 313.254 116.138 314.981C116.138 316.719 117.392 317.962 119.273 317.962C120.241 317.962 121.044 317.632 121.572 317.016L120.989 316.334C120.56 316.807 119.988 317.038 119.306 317.038C118.151 317.038 117.326 316.356 117.194 315.333H121.924C121.935 315.234 121.946 315.102 121.946 315.014ZM119.064 312.902C120.087 312.902 120.824 313.595 120.934 314.574H117.194C117.304 313.584 118.052 312.902 119.064 312.902ZM125.953 317.962C126.998 317.962 127.867 317.522 128.329 316.708L127.526 316.202C127.152 316.774 126.58 317.038 125.942 317.038C124.798 317.038 123.94 316.246 123.94 314.981C123.94 313.738 124.798 312.935 125.942 312.935C126.58 312.935 127.152 313.199 127.526 313.771L128.329 313.254C127.867 312.44 126.998 312.011 125.953 312.011C124.16 312.011 122.873 313.243 122.873 314.981C122.873 316.719 124.16 317.962 125.953 317.962ZM134.075 312.066V315.08C134.075 316.334 133.371 317.016 132.271 317.016C131.27 317.016 130.698 316.444 130.698 315.3V312.066H129.642V315.421C129.642 317.137 130.643 317.962 132.15 317.962C132.975 317.962 133.701 317.621 134.13 317.016V317.896H135.131V312.066H134.075ZM138.153 313.045V312.066H137.141V317.896H138.197V314.992C138.197 313.716 138.901 313.023 140.034 313.023C140.111 313.023 140.188 313.023 140.276 313.034V312.011C139.253 312.011 138.527 312.363 138.153 313.045ZM142.106 310.944C142.524 310.944 142.821 310.636 142.821 310.24C142.821 309.866 142.513 309.569 142.106 309.569C141.699 309.569 141.391 309.877 141.391 310.262C141.391 310.647 141.699 310.944 142.106 310.944ZM141.578 317.896H142.634V312.066H141.578V317.896ZM147.598 316.796C147.378 316.972 147.081 317.071 146.773 317.071C146.19 317.071 145.86 316.719 145.86 316.092V312.935H147.532V312.066H145.86V310.79H144.804V312.066H143.814V312.935H144.804V316.136C144.804 317.313 145.475 317.962 146.652 317.962C147.125 317.962 147.609 317.83 147.928 317.555L147.598 316.796ZM153.222 312.066L151.209 316.73L149.174 312.066H148.074L150.648 317.885L150.461 318.292C150.175 318.963 149.856 319.194 149.35 319.194C148.954 319.194 148.591 319.04 148.305 318.765L147.854 319.557C148.217 319.909 148.789 320.096 149.35 320.096C150.241 320.096 150.912 319.711 151.429 318.479L154.256 312.066H153.222Z" fill="#0F3C78"/>
<g clip-path="url(#clip0)">
<path d="M129.744 228.817C139.677 222.931 156.457 210.951 171.49 190.453C173.051 191.258 174.804 191.709 176.658 191.709C183.189 191.709 188.484 186.1 188.484 179.181C188.484 175.357 186.867 171.933 184.317 169.635C184.599 169.084 184.878 168.531 185.156 167.971C186.746 170.002 189.145 171.295 191.829 171.295C196.615 171.295 200.494 167.185 200.494 162.115C200.494 157.046 196.615 152.936 191.829 152.936C191.781 152.936 191.732 152.937 191.684 152.938C199.643 131.739 204.511 105.565 203.143 73.5169C207.688 79.9038 211.187 86.632 213.375 93.449C215.141 98.9522 215.751 103.57 216.232 107.217C221.895 150.097 197.481 183.533 192.098 190.531C184.149 200.865 168.783 220.839 142.827 227.026C138.477 228.062 134.101 228.646 129.744 228.817ZM111.944 227.286C83.5795 221.385 57.7214 199.676 43.8391 174.121C40.3938 167.78 20.8114 133.511 34.6747 93.7015C36.9462 87.1788 39.9683 80.7251 43.6545 74.5679C44.4285 121.05 45.8521 180.118 111.944 227.286V227.286ZM54.4368 59.6576C63.1962 49.5465 73.9606 41.1089 86.1812 35.787C96.6606 31.224 107.602 29.1843 118.49 29.1843C141.584 29.1843 164.448 38.3551 182.225 52.0574C165.085 49.7719 140.248 44.2657 123.517 31.0192C122.508 30.2199 121.128 29.5821 119.887 29.5821C119.132 29.5821 118.427 29.8192 117.89 30.4012C99.3427 50.5044 71.8647 59.3948 54.4368 59.6576" fill="#FEFEFF"/>
<path d="M121.407 232.66C120.389 232.66 119.375 232.362 118.486 231.776C116.237 230.292 114.056 228.795 111.942 227.286C45.8507 180.118 44.427 121.05 43.6531 74.5679C43.6015 71.4662 43.5526 68.4181 43.4878 65.436C43.4516 63.7714 44.0843 62.1691 45.2312 61.0315C46.2571 60.0135 47.6062 59.4535 48.9997 59.4535C49.164 59.4535 49.3287 59.4616 49.4938 59.477C50.7937 59.601 52.1811 59.6634 53.6438 59.6634C53.9049 59.6634 54.1696 59.6619 54.4353 59.6575C71.8633 59.3948 99.3413 50.5043 117.889 30.4012C118.426 29.8192 119.131 29.5821 119.886 29.5821C121.127 29.5821 122.506 30.2199 123.516 31.0192C140.247 44.2657 165.084 49.7719 182.223 52.0574C188.344 52.8736 193.484 53.2787 196.922 53.4791C199.624 53.6369 201.817 55.8571 202.096 58.7093C202.591 63.7772 202.936 68.7161 203.141 73.5169C204.509 105.565 199.642 131.739 191.682 152.938C186.964 153.02 183.163 157.098 183.163 162.115C183.163 164.341 183.911 166.382 185.155 167.971C184.877 168.531 184.598 169.084 184.316 169.635C182.253 167.776 179.578 166.653 176.656 166.653C176.597 166.653 176.538 166.653 176.479 166.655C191.569 137.883 197.547 103.338 194.265 63.6657C194.187 62.7306 193.491 62.0018 192.609 61.9328C153.263 58.8612 131.412 47.1729 121.889 40.4792C121.586 40.2664 121.24 40.1621 120.896 40.1621C120.464 40.1621 120.035 40.3258 119.697 40.6473C110.46 49.4144 98.8154 56.6791 86.0211 61.6561C74.8509 66.0011 63.3523 68.3946 53.6285 68.3946H53.6283C53.1376 68.3946 52.679 68.5972 52.3371 68.9663C51.9981 69.3318 51.8166 69.8155 51.8254 70.3286L51.8781 73.4582C52.2674 96.9331 52.7085 123.541 61.7182 149.669C71.8051 178.923 91.0997 202.887 120.703 222.934C120.997 223.134 121.336 223.234 121.675 223.234C121.956 223.234 122.237 223.165 122.493 223.026L122.336 222.703L122.493 223.026C130.077 218.896 149.286 206.915 165.75 184.035C166.864 186.841 168.915 189.127 171.488 190.453C156.455 210.951 139.676 222.931 129.742 228.817C127.29 230.269 125.253 231.352 123.764 232.099C123.018 232.474 122.211 232.66 121.407 232.66V232.66ZM121.675 222.508C121.465 222.508 121.255 222.445 121.072 222.322C91.6 202.364 72.3961 178.518 62.3622 149.421C53.3922 123.406 52.9521 96.8634 52.5639 73.445L52.5112 70.3146C52.5057 69.999 52.6177 69.701 52.8264 69.4757C53.0384 69.2467 53.3232 69.1205 53.6435 69.1205H53.6438C63.431 69.1205 75.0137 66.7123 86.2574 62.338C99.1327 57.3302 110.854 50.0163 120.154 41.1882C120.364 40.99 120.629 40.8887 120.895 40.8887C121.109 40.8887 121.323 40.9533 121.51 41.0847C131.355 48.0045 144.068 53.4637 159.298 57.3111C172.316 60.5999 184.57 62.0341 192.558 62.6572C193.103 62.7005 193.533 63.1512 193.581 63.7295C196.866 103.433 190.846 137.974 175.671 166.696C169.6 167.227 164.83 172.614 164.83 179.181C164.83 180.6 165.052 181.964 165.463 183.235C149.027 206.231 129.762 218.251 122.18 222.38C122.021 222.466 121.848 222.508 121.675 222.508V222.508ZM149.936 153.287C146.29 153.287 143.334 156.419 143.334 160.281C143.334 164.144 146.29 167.275 149.936 167.275C153.583 167.275 156.539 164.144 156.539 160.281C156.539 156.419 153.583 153.287 149.936 153.287ZM168.729 139.812C162.382 139.812 157.236 145.264 157.236 151.987C157.236 158.712 162.382 164.162 168.729 164.162C175.077 164.162 180.223 158.712 180.223 151.987C180.223 145.264 175.077 139.812 168.729 139.812ZM159.142 100.805V117.846C159.142 118.039 159.291 118.196 159.474 118.196H188.742C188.925 118.196 189.073 118.039 189.073 117.846V74.2817C189.073 74.0879 188.925 73.9308 188.742 73.9308H159.474C159.291 73.9308 159.142 74.0879 159.142 74.2817V89.1223C155.111 92.6424 149.771 95.4454 144.352 97.2296C145 100.152 146.491 105.096 149.656 108.982C153.552 106.661 156.663 103.808 159.142 100.805" fill="url(#paint0_linear)"/>
<path d="M125.304 224.884C125.304 224.884 124.752 228.197 124.481 231.477C124.375 232.758 125.307 233.872 126.521 233.925C130.644 234.106 139.463 234.46 142.628 234.311C143.103 234.288 143.414 233.772 143.238 233.303C143.09 232.911 142.806 232.594 142.443 232.417L127.877 225.325L125.304 224.884" fill="url(#paint1_linear)"/>
<path d="M124.852 222.938L125.295 226.901C125.295 226.901 127.847 228.159 129.59 226.742L128.533 222.326L124.852 222.938" fill="url(#paint2_linear)"/>
<path d="M125.188 148.437C124.997 149.471 124.159 200.078 129.265 222.756C129.349 223.126 129.172 223.508 128.839 223.652C128.056 223.991 126.521 224.482 124.681 224.547C124.111 224.568 123.6 224.175 123.439 223.596C121.979 218.334 114.985 191.971 114.072 166.787C113.053 138.646 114.072 165.829 114.072 165.829L114.67 148.434L125.188 148.437" fill="url(#paint3_linear)"/>
<path d="M108.548 226.613C108.548 226.613 107.669 228.286 106.818 232.73C106.664 233.533 107.193 234.3 107.963 234.38C109.324 234.522 111.42 234.705 113.098 234.692C113.872 234.687 114.476 233.973 114.383 233.159C114.197 231.537 113.618 228.876 111.828 226.801L108.548 226.613" fill="url(#paint4_linear)"/>
<path d="M107.777 221.515L108.815 227.508C108.815 227.508 109.84 228.316 111.869 227.73L111.373 221.283L107.777 221.515Z" fill="url(#paint5_linear)"/>
<path d="M104.975 149.989C100.799 176.689 105.881 215.982 107.595 223.672C107.7 224.143 108.059 224.504 108.509 224.583C109.275 224.717 110.534 224.827 111.776 224.445C112.204 224.313 112.505 223.904 112.522 223.432C112.752 217.215 112.338 179.046 116.229 163.961C116.427 163.197 116.868 162.53 117.477 162.071L125.03 156.383L125.609 147.188L104.975 149.989" fill="url(#paint6_linear)"/>
<path d="M131.588 99.397C119.072 99.1775 105.262 102.878 105.262 102.878C101.531 125.938 104.61 152.537 104.61 152.537C114.299 155.229 125.23 150.892 125.23 150.892C126.84 141.252 134.354 114.126 134.354 114.126C140.47 113.322 145.507 111.453 149.656 108.982C146.491 105.096 145 100.152 144.352 97.2296C139.926 98.6858 135.449 99.4645 131.588 99.397" fill="url(#paint7_linear)"/>
<path d="M149.656 108.982C146.491 105.096 144.999 100.152 144.352 97.2296C149.771 95.4453 155.111 92.6423 159.142 89.1223V100.805C156.663 103.808 153.552 106.661 149.656 108.982" fill="url(#paint8_linear)"/>
<path d="M110.064 115.717L105.264 102.878C105.264 102.878 93.5731 111.292 91.6504 121.961C93.8592 122.134 97.8785 122.742 101.813 124.847C102.678 119.809 110.064 115.717 110.064 115.717Z" fill="url(#paint9_linear)"/>
<path d="M118.912 88.6329L114.929 100.833C114.864 101.035 114.942 101.259 115.119 101.363C116.204 101.998 120.115 103.836 124.828 100.671C125.319 100.341 125.653 99.803 125.728 99.1924L127.018 88.6329H118.912Z" fill="url(#paint10_linear)"/>
<path d="M127.577 77.3349C127.577 77.3349 131.95 86.055 131.39 89.578C130.829 93.1003 125.409 92.8478 120.676 89.9868L117.369 80.5709L127.577 77.3349" fill="url(#paint11_linear)"/>
<path d="M120.886 85.3624C121.078 85.2722 121.149 85.0234 121.034 84.8369C120.683 84.2696 120.027 83.1129 119.817 82.1C119.817 82.1 119.031 81.5671 121.818 80.8603C124.605 80.1535 128.761 79.0563 129.635 76.5439C130.487 74.0932 128.249 67.9317 124.678 72.8411C124.542 73.0283 124.276 73.0319 124.141 72.8455C123.556 72.0381 122.017 70.3633 119.88 71.3791C117.881 72.3288 117.656 73.8811 117.683 74.6628C117.691 74.8933 117.497 75.0723 117.284 75.029C116.273 74.825 113.848 74.6496 112.715 77.2852C111.783 79.4563 112.389 80.6857 112.941 81.2868C113.119 81.4813 113.041 81.802 112.796 81.8813C112.131 82.0971 111.274 82.6938 111.359 84.3422C111.479 86.6219 113.884 86.4208 114.569 86.3173C114.681 86.3004 114.795 86.3408 114.87 86.4296C115.458 87.1181 118.104 90.0414 120.967 90.3937C121.215 90.4246 121.407 90.1655 121.326 89.9152L120.087 86.0986C120.029 85.9217 120.11 85.7272 120.271 85.6509L120.886 85.3624Z" fill="url(#paint12_linear)"/>
<path d="M121.382 85.904C121.382 85.904 118.269 83.6412 118.041 85.5473C117.814 87.4527 120.845 88.3077 122.347 87.5973L121.382 85.904Z" fill="url(#paint13_linear)"/>
<path d="M101.811 124.847C101.811 124.847 97.7249 144.375 101.427 155.352C96.8886 157.582 97.727 157.162 97.727 157.162C97.727 157.162 88.7503 129.377 91.6485 121.961C97.3618 121.319 100.196 122.945 101.811 124.847Z" fill="url(#paint14_linear)"/>
<path d="M101.426 155.353C101.426 155.353 103.763 158.558 103.576 159.836C103.39 161.113 103.345 161.633 103.345 161.633C103.345 161.633 102.17 160.782 102.244 159.694C102.407 163.146 103.498 167.072 102.507 166.882C101.514 166.694 96.3803 161.68 97.5409 156.336C100.175 154.397 100.914 154.608 101.426 155.353" fill="url(#paint15_linear)"/>
<path d="M121.561 104.559L125.477 132.768C125.549 133.291 125.48 133.828 125.278 134.3L122.408 141.027C122.133 141.673 121.363 141.669 121.092 141.02L118.244 134.18C118.079 133.782 118.006 133.339 118.033 132.896L119.73 104.889L121.561 104.559" fill="#FFFFFB"/>
<path d="M121.52 102.04L124.041 106.62C124.284 107.178 125.221 107.214 125.526 106.678L128.643 99.3743L125.768 98.8708L121.52 102.04" fill="url(#paint16_linear)"/>
<path d="M115.465 99.1981L119.892 102.04L118.674 106.568C118.446 107.189 117.378 107.234 117.071 106.636L113.924 100.67L115.465 99.1981Z" fill="url(#paint17_linear)"/>
<path d="M119.554 102.01L122.111 101.498C122.227 101.475 122.331 101.578 122.316 101.702L121.795 105.987C121.786 106.066 121.731 106.128 121.658 106.144L119.828 106.549C119.723 106.573 119.624 106.491 119.619 106.378L119.412 102.201C119.408 102.109 119.469 102.027 119.554 102.01" fill="url(#paint18_linear)"/>
<path d="M188.742 118.196H159.474C159.291 118.196 159.143 118.039 159.143 117.846V100.805V89.1222V74.2816C159.143 74.0878 159.291 73.9307 159.474 73.9307H188.742C188.925 73.9307 189.073 74.0878 189.073 74.2816V117.846C189.073 118.039 188.925 118.196 188.742 118.196ZM161.476 75.3818C160.793 75.3818 160.238 75.9697 160.238 76.6926V115.227C160.238 115.95 160.793 116.539 161.476 116.539H186.706C187.388 116.539 187.944 115.95 187.944 115.227V76.6926C187.944 75.9697 187.388 75.3818 186.706 75.3818H161.476ZM186.706 116.29H161.476C160.923 116.29 160.472 115.813 160.472 115.227V76.6926C160.472 76.1069 160.923 75.6298 161.476 75.6298H186.706C187.259 75.6298 187.709 76.1069 187.709 76.6926V115.227C187.709 115.813 187.259 116.29 186.706 116.29ZM162.183 107.225C162.135 107.225 162.096 107.266 162.096 107.316V108.132C162.096 108.182 162.135 108.224 162.183 108.224H185.989C186.036 108.224 186.075 108.182 186.075 108.132V107.316C186.075 107.266 186.036 107.225 185.989 107.225H162.183V107.225ZM162.205 102.444C162.157 102.444 162.118 102.485 162.118 102.536V103.351C162.118 103.401 162.157 103.443 162.205 103.443H186.011C186.059 103.443 186.097 103.401 186.097 103.351V102.536C186.097 102.485 186.059 102.444 186.011 102.444H162.205ZM162.317 97.9488C162.27 97.9488 162.231 97.9899 162.231 98.0406V98.856C162.231 98.9066 162.27 98.9477 162.317 98.9477H186.123C186.171 98.9477 186.21 98.9066 186.21 98.856V98.0406C186.21 97.9899 186.171 97.9488 186.123 97.9488H162.317ZM162.317 93.5252C162.27 93.5252 162.231 93.5663 162.231 93.617V94.4317C162.231 94.4823 162.27 94.5242 162.317 94.5242H186.123C186.171 94.5242 186.21 94.4823 186.21 94.4317V93.617C186.21 93.5663 186.171 93.5252 186.123 93.5252H162.317ZM162.317 89.2441C162.27 89.2441 162.231 89.2852 162.231 89.3358V90.1505C162.231 90.2011 162.27 90.243 162.317 90.243H186.123C186.171 90.243 186.21 90.2011 186.21 90.1505V89.3358C186.21 89.2852 186.171 89.2441 186.123 89.2441H162.317ZM162.317 84.9856C162.27 84.9856 162.231 85.0267 162.231 85.0774V85.8928C162.231 85.9434 162.27 85.9845 162.317 85.9845H186.123C186.171 85.9845 186.21 85.9434 186.21 85.8928V85.0774C186.21 85.0267 186.171 84.9856 186.123 84.9856H162.317ZM163.759 78.8629C163.616 78.8629 163.5 78.9855 163.5 79.1367V81.6058C163.5 81.7577 163.616 81.8802 163.759 81.8802H184.437C184.58 81.8802 184.696 81.7577 184.696 81.6058V79.1367C184.696 78.9855 184.58 78.8629 184.437 78.8629H163.759Z" fill="url(#paint19_linear)"/>
<path d="M186.123 85.9846H162.317C162.27 85.9846 162.23 85.9435 162.23 85.8929V85.0774C162.23 85.0268 162.27 84.9857 162.317 84.9857H186.123C186.171 84.9857 186.21 85.0268 186.21 85.0774V85.8929C186.21 85.9435 186.171 85.9846 186.123 85.9846Z" fill="url(#paint20_linear)"/>
<path d="M186.123 90.2432H162.317C162.27 90.2432 162.23 90.2013 162.23 90.1507V89.336C162.23 89.2853 162.27 89.2442 162.317 89.2442H186.123C186.171 89.2442 186.21 89.2853 186.21 89.336V90.1507C186.21 90.2013 186.171 90.2432 186.123 90.2432Z" fill="url(#paint21_linear)"/>
<path d="M186.123 94.5242H162.317C162.27 94.5242 162.23 94.4823 162.23 94.4317V93.617C162.23 93.5664 162.27 93.5253 162.317 93.5253H186.123C186.171 93.5253 186.21 93.5664 186.21 93.617V94.4317C186.21 94.4823 186.171 94.5242 186.123 94.5242Z" fill="url(#paint22_linear)"/>
<path d="M186.123 98.948H162.317C162.27 98.948 162.23 98.9069 162.23 98.8563V98.0408C162.23 97.9902 162.27 97.9491 162.317 97.9491H186.123C186.171 97.9491 186.21 97.9902 186.21 98.0408V98.8563C186.21 98.9069 186.171 98.948 186.123 98.948Z" fill="url(#paint23_linear)"/>
<path d="M186.01 103.443H162.204C162.156 103.443 162.117 103.402 162.117 103.352V102.536C162.117 102.486 162.156 102.444 162.204 102.444H186.01C186.057 102.444 186.096 102.486 186.096 102.536V103.352C186.096 103.402 186.057 103.443 186.01 103.443Z" fill="url(#paint24_linear)"/>
<path d="M185.988 108.224H162.182C162.135 108.224 162.096 108.183 162.096 108.132V107.316C162.096 107.267 162.135 107.225 162.182 107.225H185.988C186.036 107.225 186.075 107.267 186.075 107.316V108.132C186.075 108.183 186.036 108.224 185.988 108.224Z" fill="url(#paint25_linear)"/>
<path d="M171.792 72.1327L172.552 75.8355C172.636 76.2414 172.417 76.6436 172.041 76.7787C171.641 76.9211 171.199 76.7155 171.033 76.3097L169.559 72.7184C169.462 72.4791 169.473 72.2054 169.6 71.9852C169.851 71.5507 170.395 70.9921 171.397 71.5749C171.6 71.6931 171.744 71.8978 171.792 72.1327" fill="url(#paint26_linear)"/>
<path d="M166.421 73.5911L167.042 76.6135C167.11 76.9445 166.932 77.2733 166.624 77.3834C166.298 77.5001 165.937 77.3321 165.801 77.0003L164.599 74.0689C164.518 73.8736 164.527 73.6505 164.631 73.47C164.836 73.1155 165.28 72.6597 166.098 73.1353C166.264 73.2322 166.381 73.3988 166.421 73.5911Z" fill="url(#paint27_linear)"/>
<path d="M167.93 73.1647L168.634 76.5981C168.712 76.9747 168.51 77.3475 168.16 77.4723C167.79 77.6044 167.38 77.4143 167.226 77.0378L165.859 73.7078C165.769 73.4854 165.779 73.2322 165.897 73.0274C166.13 72.6245 166.635 72.107 167.563 72.6472C167.752 72.7573 167.885 72.9467 167.93 73.1647" fill="url(#paint28_linear)"/>
<path d="M169.869 72.5283L170.653 76.5768C170.739 77.0201 170.502 77.4627 170.1 77.6132C169.672 77.7732 169.201 77.5515 169.026 77.1082L167.48 73.1881C167.376 72.9268 167.391 72.6274 167.528 72.3852C167.8 71.9066 168.385 71.2908 169.451 71.9206C169.666 72.0483 169.819 72.2714 169.869 72.5283Z" fill="url(#paint29_linear)"/>
<path d="M184.437 81.8804H163.759C163.616 81.8804 163.5 81.7578 163.5 81.6059V79.1368C163.5 78.9856 163.616 78.8631 163.759 78.8631H184.437C184.58 78.8631 184.696 78.9856 184.696 79.1368V81.6059C184.696 81.7578 184.58 81.8804 184.437 81.8804Z" fill="url(#paint30_linear)"/>
<path d="M149.936 167.275C146.29 167.275 143.334 164.144 143.334 160.281C143.334 156.419 146.29 153.287 149.936 153.287C153.583 153.287 156.538 156.419 156.538 160.281C156.538 164.144 153.583 167.275 149.936 167.275ZM149.936 153.52C146.412 153.52 143.554 156.548 143.554 160.281C143.554 164.016 146.412 167.042 149.936 167.042C153.461 167.042 156.319 164.016 156.319 160.281C156.319 156.548 153.461 153.52 149.936 153.52Z" fill="url(#paint31_linear)"/>
<path d="M149.937 167.042C146.413 167.042 143.555 164.015 143.555 160.281C143.555 156.547 146.413 153.52 149.937 153.52C153.463 153.52 156.32 156.547 156.32 160.281C156.32 164.015 153.463 167.042 149.937 167.042ZM150.077 154.706C147.093 154.706 144.674 157.268 144.674 160.429C144.674 163.589 147.093 166.151 150.077 166.151C153.06 166.151 155.479 163.589 155.479 160.429C155.479 157.268 153.06 154.706 150.077 154.706Z" fill="url(#paint32_linear)"/>
<path d="M150.074 166.151C147.091 166.151 144.672 163.589 144.672 160.429C144.672 157.268 147.091 154.706 150.074 154.706C153.057 154.706 155.476 157.268 155.476 160.429C155.476 163.589 153.057 166.151 150.074 166.151Z" fill="url(#paint33_linear)"/>
<path d="M149.547 164.683V164.06C148.934 164.035 148.328 163.881 147.898 163.681C147.744 163.61 147.666 163.428 147.709 163.257L147.859 162.676C147.914 162.463 148.132 162.354 148.324 162.439C148.751 162.628 149.278 162.778 149.847 162.778C150.437 162.778 150.877 162.567 150.877 162.132C150.877 161.74 150.537 161.507 149.716 161.274C148.546 160.935 147.706 160.394 147.706 159.303C147.706 158.318 148.386 157.565 149.567 157.364V156.741C149.567 156.541 149.72 156.379 149.909 156.379H150.254C150.443 156.379 150.596 156.541 150.596 156.741V157.3C151.164 157.325 151.576 157.427 151.904 157.549C152.071 157.612 152.164 157.803 152.117 157.984L151.979 158.521C151.927 158.728 151.718 158.841 151.529 158.765C151.227 158.645 150.801 158.519 150.246 158.519C149.547 158.519 149.346 158.826 149.346 159.102C149.346 159.441 149.766 159.674 150.677 159.971C151.977 160.384 152.517 160.956 152.517 161.984C152.517 162.927 151.857 163.774 150.577 163.986V164.683C150.577 164.883 150.423 165.046 150.234 165.046H149.889C149.7 165.046 149.547 164.883 149.547 164.683" fill="url(#paint34_linear)"/>
<path d="M168.731 164.162C162.384 164.162 157.238 158.712 157.238 151.987C157.238 145.264 162.384 139.813 168.731 139.813C175.079 139.813 180.225 145.264 180.225 151.987C180.225 158.712 175.079 164.162 168.731 164.162V164.162ZM168.731 140.218C162.595 140.218 157.621 145.487 157.621 151.987C157.621 158.488 162.595 163.758 168.731 163.758C174.868 163.758 179.843 158.488 179.843 151.987C179.843 145.487 174.868 140.218 168.731 140.218Z" fill="url(#paint35_linear)"/>
<path d="M168.728 163.758C162.592 163.758 157.617 158.488 157.617 151.987C157.617 145.487 162.592 140.218 168.728 140.218C174.864 140.218 179.839 145.487 179.839 151.987C179.839 158.488 174.864 163.758 168.728 163.758V163.758ZM168.97 142.282C163.777 142.282 159.566 146.742 159.566 152.244C159.566 157.746 163.777 162.206 168.97 162.206C174.164 162.206 178.374 157.746 178.374 152.244C178.374 146.742 174.164 142.282 168.97 142.282Z" fill="url(#paint36_linear)"/>
<path d="M168.971 162.206C163.777 162.206 159.566 157.746 159.566 152.244C159.566 146.742 163.777 142.282 168.971 142.282C174.164 142.282 178.375 146.742 178.375 152.244C178.375 157.746 174.164 162.206 168.971 162.206" fill="url(#paint37_linear)"/>
<path d="M168.05 159.65V158.566C166.983 158.521 165.928 158.254 165.178 157.907C164.911 157.783 164.774 157.465 164.851 157.166L165.111 156.156C165.207 155.786 165.587 155.595 165.921 155.743C166.665 156.073 167.583 156.334 168.572 156.334C169.599 156.334 170.365 155.966 170.365 155.209C170.365 154.527 169.773 154.121 168.345 153.715C166.308 153.125 164.846 152.184 164.846 150.285C164.846 148.569 166.03 147.259 168.084 146.909V145.825C168.084 145.477 168.351 145.194 168.681 145.194H169.281C169.611 145.194 169.878 145.477 169.878 145.825V146.798C170.865 146.84 171.583 147.019 172.153 147.231C172.445 147.34 172.605 147.673 172.524 147.99L172.285 148.923C172.193 149.284 171.83 149.48 171.5 149.349C170.975 149.138 170.233 148.92 169.268 148.92C168.05 148.92 167.701 149.455 167.701 149.934C167.701 150.524 168.433 150.93 170.017 151.447C172.281 152.166 173.221 153.162 173.221 154.951C173.221 156.592 172.072 158.068 169.843 158.437V159.65C169.843 159.999 169.576 160.281 169.247 160.281H168.645C168.316 160.281 168.05 159.999 168.05 159.65" fill="url(#paint38_linear)"/>
<path d="M176.656 191.709C174.803 191.709 173.049 191.258 171.488 190.453C168.915 189.127 166.864 186.841 165.75 184.035C165.646 183.773 165.55 183.507 165.463 183.235C165.052 181.964 164.83 180.6 164.83 179.181C164.83 172.614 169.6 167.227 175.671 166.696C175.938 166.672 176.207 166.659 176.479 166.655C176.538 166.653 176.597 166.653 176.656 166.653C179.578 166.653 182.253 167.776 184.316 169.635C186.866 171.933 188.483 175.357 188.483 179.181C188.483 186.1 183.188 191.709 176.656 191.709V191.709ZM176.656 167.07C170.342 167.07 165.223 172.492 165.223 179.181C165.223 185.87 170.342 191.292 176.656 191.292C182.97 191.292 188.089 185.87 188.089 179.181C188.089 172.492 182.97 167.07 176.656 167.07Z" fill="url(#paint39_linear)"/>
<path d="M176.654 191.292C170.34 191.292 165.221 185.87 165.221 179.181C165.221 172.492 170.34 167.069 176.654 167.069C182.968 167.069 188.087 172.492 188.087 179.181C188.087 185.87 182.968 191.292 176.654 191.292ZM176.903 169.194C171.559 169.194 167.227 173.784 167.227 179.445C167.227 185.106 171.559 189.696 176.903 189.696C182.248 189.696 186.58 185.106 186.58 179.445C186.58 173.784 182.248 169.194 176.903 169.194Z" fill="url(#paint40_linear)"/>
<path d="M176.905 189.696C171.561 189.696 167.229 185.107 167.229 179.445C167.229 173.784 171.561 169.194 176.905 169.194C182.25 169.194 186.582 173.784 186.582 179.445C186.582 185.107 182.25 189.696 176.905 189.696Z" fill="url(#paint41_linear)"/>
<path d="M175.953 187.066V185.951C174.856 185.904 173.77 185.63 172.999 185.272C172.724 185.145 172.583 184.817 172.662 184.51L172.93 183.471C173.028 183.09 173.42 182.893 173.763 183.046C174.528 183.385 175.473 183.654 176.491 183.654C177.548 183.654 178.336 183.275 178.336 182.496C178.336 181.794 177.727 181.377 176.258 180.959C174.162 180.352 172.657 179.384 172.657 177.429C172.657 175.664 173.875 174.316 175.989 173.956V172.84C175.989 172.481 176.264 172.19 176.603 172.19H177.221C177.56 172.19 177.835 172.481 177.835 172.84V173.842C178.85 173.884 179.59 174.069 180.176 174.287C180.476 174.399 180.641 174.742 180.557 175.068L180.312 176.028C180.217 176.399 179.842 176.602 179.504 176.466C178.964 176.249 178.2 176.025 177.208 176.025C175.953 176.025 175.595 176.574 175.595 177.068C175.595 177.675 176.348 178.093 177.978 178.624C180.307 179.365 181.275 180.389 181.275 182.23C181.275 183.92 180.092 185.438 177.799 185.818V187.066C177.799 187.424 177.524 187.716 177.185 187.716H176.567C176.228 187.716 175.953 187.424 175.953 187.066" fill="url(#paint42_linear)"/>
<path d="M191.825 171.295C189.141 171.295 186.742 170.002 185.152 167.972C183.908 166.383 183.16 164.341 183.16 162.115C183.16 157.098 186.961 153.02 191.68 152.938C191.728 152.937 191.777 152.936 191.825 152.936C196.611 152.936 200.49 157.046 200.49 162.115C200.49 167.185 196.611 171.295 191.825 171.295V171.295ZM191.825 153.242C187.199 153.242 183.448 157.215 183.448 162.115C183.448 167.017 187.199 170.99 191.825 170.99C196.452 170.99 200.202 167.017 200.202 162.115C200.202 157.215 196.452 153.242 191.825 153.242Z" fill="url(#paint43_linear)"/>
<path d="M191.83 170.99C187.204 170.99 183.453 167.017 183.453 162.115C183.453 157.215 187.204 153.242 191.83 153.242C196.457 153.242 200.207 157.215 200.207 162.115C200.207 167.017 196.457 170.99 191.83 170.99ZM192.013 154.798C188.097 154.798 184.922 158.161 184.922 162.309C184.922 166.457 188.097 169.82 192.013 169.82C195.928 169.82 199.103 166.457 199.103 162.309C199.103 158.161 195.928 154.798 192.013 154.798Z" fill="url(#paint44_linear)"/>
<path d="M192.011 169.82C188.095 169.82 184.92 166.457 184.92 162.309C184.92 158.161 188.095 154.798 192.011 154.798C195.926 154.798 199.101 158.161 199.101 162.309C199.101 166.457 195.926 169.82 192.011 169.82Z" fill="url(#paint45_linear)"/>
<path d="M191.311 167.892V167.075C190.508 167.042 189.712 166.841 189.147 166.579C188.945 166.485 188.843 166.245 188.901 166.02L189.096 165.259C189.168 164.979 189.455 164.835 189.707 164.947C190.267 165.196 190.959 165.392 191.706 165.392C192.48 165.392 193.057 165.114 193.057 164.545C193.057 164.03 192.611 163.724 191.534 163.418C189.999 162.973 188.896 162.264 188.896 160.832C188.896 159.538 189.789 158.551 191.338 158.287V157.469C191.338 157.207 191.539 156.994 191.787 156.994H192.241C192.489 156.994 192.69 157.207 192.69 157.469V158.203C193.434 158.235 193.975 158.37 194.406 158.53C194.626 158.611 194.746 158.863 194.685 159.102L194.505 159.806C194.435 160.077 194.162 160.225 193.913 160.126C193.517 159.968 192.958 159.803 192.231 159.803C191.311 159.803 191.049 160.206 191.049 160.567C191.049 161.012 191.6 161.318 192.795 161.708C194.502 162.25 195.211 163.001 195.211 164.35C195.211 165.588 194.344 166.7 192.664 166.978V167.892C192.664 168.156 192.463 168.369 192.214 168.369H191.761C191.513 168.369 191.311 168.156 191.311 167.892" fill="url(#paint46_linear)"/>
<path d="M152.249 49.8821C152.249 57.9387 146.084 64.4695 138.478 64.4695C130.873 64.4695 124.707 57.9387 124.707 49.8821C124.707 41.8254 130.873 35.2939 138.478 35.2939C146.084 35.2939 152.249 41.8254 152.249 49.8821Z" fill="url(#paint47_linear)"/>
<path d="M100.145 62.2065C100.145 71.0412 93.3841 78.2031 85.0442 78.2031C76.7042 78.2031 69.9434 71.0412 69.9434 62.2065C69.9434 53.3718 76.7042 46.2099 85.0442 46.2099C93.3841 46.2099 100.145 53.3718 100.145 62.2065Z" fill="url(#paint48_linear)"/>
<path d="M70.4764 105.476C70.4764 114.132 63.853 121.148 55.6826 121.148C47.5121 121.148 40.8887 114.132 40.8887 105.476C40.8887 96.8216 47.5121 89.805 55.6826 89.805C63.853 89.805 70.4764 96.8216 70.4764 105.476" fill="url(#paint49_linear)"/>
<path d="M50.9167 106.418C50.9167 106.418 50.4668 104.988 49.9001 104.865C49.3335 104.741 46.9338 104.212 46.8838 104.653C46.8338 105.094 46.3506 106.612 47.7837 106.753C49.2169 106.895 51.1476 107.011 50.9167 106.418Z" fill="url(#paint50_linear)"/>
<path d="M60.683 106.418C60.683 106.418 61.1329 104.988 61.6995 104.865C62.2662 104.741 64.6657 104.212 64.7156 104.653C64.7662 105.094 65.2491 106.612 63.8159 106.753C62.3828 106.895 60.4521 107.011 60.683 106.418" fill="url(#paint51_linear)"/>
<path d="M60.3579 105.2C60.3113 105.124 60.2316 105.079 60.1461 105.079H51.4497C51.3611 105.079 51.279 105.127 51.2334 105.208C51.1877 105.288 51.1852 105.387 51.2267 105.47L51.7159 106.463C51.8975 106.825 52.2534 107.068 52.6409 107.068H59.0307C59.444 107.068 59.8186 106.795 59.9869 106.395L60.3767 105.462C60.4115 105.379 60.4044 105.276 60.3579 105.2Z" fill="url(#paint52_linear)"/>
<path d="M62.7261 102.161C62.6697 102.252 62.5737 102.345 62.4702 102.345H49.1257C49.0212 102.345 48.9237 102.251 48.8678 102.157C48.8118 102.063 48.8048 101.927 48.8497 101.826C49.1527 101.15 49.7211 99.8887 50.0397 99.1877C50.0541 99.1562 50.0701 99.0952 50.0881 99.0659C50.2421 98.8075 50.5125 98.6167 50.806 98.6167H60.8973C61.1938 98.6167 61.4653 98.8053 61.6188 99.0666C61.6403 99.1041 61.6597 99.1554 61.6762 99.1958L62.7502 101.829C62.7917 101.929 62.7827 102.069 62.7261 102.161" fill="url(#paint53_linear)"/>
<line x1="81" y1="239.8" x2="157.795" y2="239.8" stroke="#28303F" stroke-width="0.4"/>
</g>
<defs>
<filter id="filter0_d" x="7" y="64" width="229.852" height="278.039" filterUnits="userSpaceOnUse" color-interpolation-filters="sRGB">
<feFlood flood-opacity="0" result="BackgroundImageFix"/>
<feColorMatrix in="SourceAlpha" type="matrix" values="0 0 0 0 0 0 0 0 0 0 0 0 0 0 0 0 0 0 127 0" result="hardAlpha"/>
<feOffset dy="4"/>
<feGaussianBlur stdDeviation="2"/>
<feColorMatrix type="matrix" values="0 0 0 0 0 0 0 0 0 0 0 0 0 0 0 0 0 0 0.11 0"/>
<feBlend mode="normal" in2="BackgroundImageFix" result="effect1_dropShadow"/>
<feBlend mode="normal" in="SourceGraphic" in2="effect1_dropShadow" result="shape"/>
</filter>
<linearGradient id="paint0_linear" x1="213.306" y1="191.387" x2="23.3029" y2="144.014" gradientUnits="userSpaceOnUse">
<stop offset="0.101406" stop-color="#0C397F"/>
<stop offset="1" stop-color="#79BAFA"/>
</linearGradient>
<linearGradient id="paint1_linear" x1="142.166" y1="220.306" x2="85.4782" y2="278.514" gradientUnits="userSpaceOnUse">
<stop stop-color="#2B3582"/>
<stop offset="1" stop-color="#150E42"/>
</linearGradient>
<linearGradient id="paint2_linear" x1="124.852" y1="224.87" x2="129.59" y2="224.87" gradientUnits="userSpaceOnUse">
<stop stop-color="#F9B776"/>
<stop offset="1" stop-color="#F47960"/>
</linearGradient>
<linearGradient id="paint3_linear" x1="146.369" y1="150.795" x2="97.5365" y2="213.275" gradientUnits="userSpaceOnUse">
<stop stop-color="#2B3582"/>
<stop offset="1" stop-color="#150E42"/>
</linearGradient>
<linearGradient id="paint4_linear" x1="130.2" y1="208.651" x2="73.5122" y2="266.859" gradientUnits="userSpaceOnUse">
<stop stop-color="#2B3582"/>
<stop offset="1" stop-color="#150E42"/>
</linearGradient>
<linearGradient id="paint5_linear" x1="107.777" y1="224.613" x2="111.868" y2="224.613" gradientUnits="userSpaceOnUse">
<stop stop-color="#F9B776"/>
<stop offset="1" stop-color="#F47960"/>
</linearGradient>
<linearGradient id="paint6_linear" x1="138.278" y1="144.472" x2="89.4455" y2="206.952" gradientUnits="userSpaceOnUse">
<stop stop-color="#2B3582"/>
<stop offset="1" stop-color="#150E42"/>
</linearGradient>
<linearGradient id="paint7_linear" x1="117.507" y1="128.275" x2="162.134" y2="98.0322" gradientUnits="userSpaceOnUse">
<stop stop-color="#6DB3C9"/>
<stop offset="1" stop-color="#4C246D"/>
</linearGradient>
<linearGradient id="paint8_linear" x1="164.825" y1="64.0458" x2="155.567" y2="89.0157" gradientUnits="userSpaceOnUse">
<stop stop-color="#F9B776"/>
<stop offset="1" stop-color="#F47960"/>
</linearGradient>
<linearGradient id="paint9_linear" x1="97.2616" y1="115.017" x2="114.827" y2="102.893" gradientUnits="userSpaceOnUse">
<stop stop-color="#6DB3C9"/>
<stop offset="1" stop-color="#4C246D"/>
</linearGradient>
<linearGradient id="paint10_linear" x1="114.906" y1="95.5527" x2="127.017" y2="95.5527" gradientUnits="userSpaceOnUse">
<stop stop-color="#F9B776"/>
<stop offset="1" stop-color="#F47960"/>
</linearGradient>
<linearGradient id="paint11_linear" x1="129.899" y1="87.3901" x2="116.177" y2="79.4895" gradientUnits="userSpaceOnUse">
<stop stop-color="#F9B776"/>
<stop offset="1" stop-color="#F47960"/>
</linearGradient>
<linearGradient id="paint12_linear" x1="109.532" y1="69.7166" x2="127.487" y2="83.1036" gradientUnits="userSpaceOnUse">
<stop stop-color="#2B3582"/>
<stop offset="1" stop-color="#150E42"/>
</linearGradient>
<linearGradient id="paint13_linear" x1="126.399" y1="90.5991" x2="114.054" y2="83.4908" gradientUnits="userSpaceOnUse">
<stop stop-color="#F9B776"/>
<stop offset="1" stop-color="#F47960"/>
</linearGradient>
<linearGradient id="paint14_linear" x1="104.763" y1="189.889" x2="93.7391" y2="115.151" gradientUnits="userSpaceOnUse">
<stop stop-color="#F9B776"/>
<stop offset="1" stop-color="#F47960"/>
</linearGradient>
<linearGradient id="paint15_linear" x1="103.59" y1="182.683" x2="94.7925" y2="123.042" gradientUnits="userSpaceOnUse">
<stop stop-color="#F9B776"/>
<stop offset="1" stop-color="#F47960"/>
</linearGradient>
<linearGradient id="paint16_linear" x1="123.048" y1="96.4003" x2="131.977" y2="113.258" gradientUnits="userSpaceOnUse">
<stop stop-color="#53D8FF"/>
<stop offset="1" stop-color="#3840F7"/>
</linearGradient>
<linearGradient id="paint17_linear" x1="122.716" y1="93.5877" x2="107.184" y2="115.253" gradientUnits="userSpaceOnUse">
<stop stop-color="#53D8FF"/>
<stop offset="1" stop-color="#3840F7"/>
</linearGradient>
<linearGradient id="paint18_linear" x1="117.264" y1="105.776" x2="141.274" y2="94.8964" gradientUnits="userSpaceOnUse">
<stop stop-color="#FDF53F"/>
<stop offset="1" stop-color="#D93C65"/>
</linearGradient>
<linearGradient id="paint19_linear" x1="167.994" y1="80.1327" x2="206.62" y2="169.824" gradientUnits="userSpaceOnUse">
<stop stop-color="#53D8FF"/>
<stop offset="1" stop-color="#3840F7"/>
</linearGradient>
<linearGradient id="paint20_linear" x1="167.994" y1="80.1327" x2="206.621" y2="169.825" gradientUnits="userSpaceOnUse">
<stop stop-color="#C0F1FF"/>
<stop offset="1" stop-color="#B6B9FC"/>
</linearGradient>
<linearGradient id="paint21_linear" x1="167.994" y1="80.1327" x2="206.621" y2="169.825" gradientUnits="userSpaceOnUse">
<stop stop-color="#C0F1FF"/>
<stop offset="1" stop-color="#B6B9FC"/>
</linearGradient>
<linearGradient id="paint22_linear" x1="167.994" y1="80.1327" x2="206.62" y2="169.824" gradientUnits="userSpaceOnUse">
<stop stop-color="#C0F1FF"/>
<stop offset="1" stop-color="#B6B9FC"/>
</linearGradient>
<linearGradient id="paint23_linear" x1="167.994" y1="80.1328" x2="206.621" y2="169.825" gradientUnits="userSpaceOnUse">
<stop stop-color="#C0F1FF"/>
<stop offset="1" stop-color="#B6B9FC"/>
</linearGradient>
<linearGradient id="paint24_linear" x1="167.993" y1="80.1332" x2="206.618" y2="169.824" gradientUnits="userSpaceOnUse">
<stop stop-color="#C0F1FF"/>
<stop offset="1" stop-color="#B6B9FC"/>
</linearGradient>
<linearGradient id="paint25_linear" x1="167.993" y1="80.1333" x2="206.619" y2="169.824" gradientUnits="userSpaceOnUse">
<stop stop-color="#C0F1FF"/>
<stop offset="1" stop-color="#B6B9FC"/>
</linearGradient>
<linearGradient id="paint26_linear" x1="178.991" y1="68.7881" x2="163.697" y2="77.9808" gradientUnits="userSpaceOnUse">
<stop stop-color="#F9B776"/>
<stop offset="1" stop-color="#F47960"/>
</linearGradient>
<linearGradient id="paint27_linear" x1="177.95" y1="67.0478" x2="162.656" y2="76.2408" gradientUnits="userSpaceOnUse">
<stop stop-color="#F9B776"/>
<stop offset="1" stop-color="#F47960"/>
</linearGradient>
<linearGradient id="paint28_linear" x1="178.274" y1="67.5881" x2="162.98" y2="76.781" gradientUnits="userSpaceOnUse">
<stop stop-color="#F9B776"/>
<stop offset="1" stop-color="#F47960"/>
</linearGradient>
<linearGradient id="paint29_linear" x1="178.673" y1="68.2523" x2="163.378" y2="77.4449" gradientUnits="userSpaceOnUse">
<stop stop-color="#F9B776"/>
<stop offset="1" stop-color="#F47960"/>
</linearGradient>
<linearGradient id="paint30_linear" x1="167.994" y1="80.1328" x2="206.621" y2="169.825" gradientUnits="userSpaceOnUse">
<stop stop-color="#C0F1FF"/>
<stop offset="1" stop-color="#B6B9FC"/>
</linearGradient>
<linearGradient id="paint31_linear" x1="140.902" y1="171.39" x2="150.348" y2="161.04" gradientUnits="userSpaceOnUse">
<stop stop-color="#FDF53F"/>
<stop offset="1" stop-color="#D93C65"/>
</linearGradient>
<linearGradient id="paint32_linear" x1="154.762" y1="152.56" x2="126.431" y2="192.963" gradientUnits="userSpaceOnUse">
<stop stop-color="#FDF53F"/>
<stop offset="1" stop-color="#D93C65"/>
</linearGradient>
<linearGradient id="paint33_linear" x1="154.76" y1="152.56" x2="126.429" y2="192.963" gradientUnits="userSpaceOnUse">
<stop stop-color="#FFFDD5"/>
<stop offset="1" stop-color="#F7D4DD"/>
</linearGradient>
<linearGradient id="paint34_linear" x1="153.982" y1="153.761" x2="138.82" y2="177.789" gradientUnits="userSpaceOnUse">
<stop stop-color="#FDF53F"/>
<stop offset="1" stop-color="#D93C65"/>
</linearGradient>
<linearGradient id="paint35_linear" x1="153.004" y1="171.326" x2="169.448" y2="153.308" gradientUnits="userSpaceOnUse">
<stop stop-color="#FDF53F"/>
<stop offset="1" stop-color="#D93C65"/>
</linearGradient>
<linearGradient id="paint36_linear" x1="177.128" y1="138.545" x2="127.809" y2="208.88" gradientUnits="userSpaceOnUse">
<stop stop-color="#FDF53F"/>
<stop offset="1" stop-color="#D93C65"/>
</linearGradient>
<linearGradient id="paint37_linear" x1="177.128" y1="138.545" x2="127.809" y2="208.88" gradientUnits="userSpaceOnUse">
<stop stop-color="#FFFDD5"/>
<stop offset="1" stop-color="#F7D4DD"/>
</linearGradient>
<linearGradient id="paint38_linear" x1="175.77" y1="140.635" x2="149.375" y2="182.466" gradientUnits="userSpaceOnUse">
<stop stop-color="#FDF53F"/>
<stop offset="1" stop-color="#D93C65"/>
</linearGradient>
<linearGradient id="paint39_linear" x1="160.473" y1="199.08" x2="177.393" y2="180.54" gradientUnits="userSpaceOnUse">
<stop stop-color="#FDF53F"/>
<stop offset="1" stop-color="#D93C65"/>
</linearGradient>
<linearGradient id="paint40_linear" x1="185.297" y1="165.349" x2="134.548" y2="237.722" gradientUnits="userSpaceOnUse">
<stop stop-color="#FDF53F"/>
<stop offset="1" stop-color="#D93C65"/>
</linearGradient>
<linearGradient id="paint41_linear" x1="185.299" y1="165.349" x2="134.55" y2="237.722" gradientUnits="userSpaceOnUse">
<stop stop-color="#FFFDD5"/>
<stop offset="1" stop-color="#F7D4DD"/>
</linearGradient>
<linearGradient id="paint42_linear" x1="183.898" y1="167.5" x2="156.738" y2="210.543" gradientUnits="userSpaceOnUse">
<stop stop-color="#FDF53F"/>
<stop offset="1" stop-color="#D93C65"/>
</linearGradient>
<linearGradient id="paint43_linear" x1="179.967" y1="176.695" x2="192.365" y2="163.111" gradientUnits="userSpaceOnUse">
<stop stop-color="#FDF53F"/>
<stop offset="1" stop-color="#D93C65"/>
</linearGradient>
<linearGradient id="paint44_linear" x1="198.162" y1="151.981" x2="160.979" y2="205.008" gradientUnits="userSpaceOnUse">
<stop stop-color="#FDF53F"/>
<stop offset="1" stop-color="#D93C65"/>
</linearGradient>
<linearGradient id="paint45_linear" x1="198.16" y1="151.981" x2="160.977" y2="205.008" gradientUnits="userSpaceOnUse">
<stop stop-color="#FFFDD5"/>
<stop offset="1" stop-color="#F7D4DD"/>
</linearGradient>
<linearGradient id="paint46_linear" x1="197.133" y1="153.557" x2="177.233" y2="185.095" gradientUnits="userSpaceOnUse">
<stop stop-color="#FDF53F"/>
<stop offset="1" stop-color="#D93C65"/>
</linearGradient>
<linearGradient id="paint47_linear" x1="131.013" y1="34.3743" x2="156.265" y2="81.1228" gradientUnits="userSpaceOnUse">
<stop stop-color="#53D8FF"/>
<stop offset="1" stop-color="#3840F7"/>
</linearGradient>
<linearGradient id="paint48_linear" x1="74.1594" y1="41.3034" x2="115.695" y2="112.387" gradientUnits="userSpaceOnUse">
<stop stop-color="#53D8FF"/>
<stop offset="1" stop-color="#3840F7"/>
</linearGradient>
<linearGradient id="paint49_linear" x1="48.5651" y1="120.749" x2="75.2459" y2="69.7323" gradientUnits="userSpaceOnUse">
<stop stop-color="#53D8FF"/>
<stop offset="1" stop-color="#3840F7"/>
</linearGradient>
<linearGradient id="paint50_linear" x1="43.1639" y1="117.924" x2="69.845" y2="66.9069" gradientUnits="userSpaceOnUse">
<stop stop-color="#53D8FF"/>
<stop offset="1" stop-color="#3840F7"/>
</linearGradient>
<linearGradient id="paint51_linear" x1="54.5019" y1="123.853" x2="81.1831" y2="72.8365" gradientUnits="userSpaceOnUse">
<stop stop-color="#53D8FF"/>
<stop offset="1" stop-color="#3840F7"/>
</linearGradient>
<linearGradient id="paint52_linear" x1="48.5984" y1="120.847" x2="75.3356" y2="69.7234" gradientUnits="userSpaceOnUse">
<stop stop-color="#53D8FF"/>
<stop offset="1" stop-color="#3840F7"/>
</linearGradient>
<linearGradient id="paint53_linear" x1="47.3512" y1="120.046" x2="74.0098" y2="69.072" gradientUnits="userSpaceOnUse">
<stop stop-color="#53D8FF"/>
<stop offset="1" stop-color="#3840F7"/>
</linearGradient>
<clipPath id="clip0">
<rect width="257.049" height="272.299" fill="white" transform="translate(0.199219)"/>
</clipPath>
</defs>
</svg>
