<svg width="63" height="70" viewBox="0 0 63 70" fill="none" xmlns="http://www.w3.org/2000/svg">
<g filter="url(#filter0_d)">
<path d="M52.6696 51.5518C52.4022 51.5543 52.1378 51.6074 51.8917 51.7082C51.6456 51.8089 51.4225 51.9553 51.2352 52.1389C51.0479 52.3226 50.9 52.54 50.8 52.7786C50.7 53.0172 50.6499 53.2725 50.6524 53.5298C50.655 53.787 50.7102 54.0413 50.8149 54.2781C50.9197 54.5148 51.0718 54.7294 51.2628 54.9096C51.4537 55.0898 51.6797 55.232 51.9278 55.3282C52.1758 55.4244 52.4412 55.4726 52.7087 55.4702C52.9761 55.4677 53.2405 55.4146 53.4866 55.3138C53.7327 55.2131 53.9558 55.0667 54.1431 54.8831C54.3304 54.6994 54.4783 54.482 54.5783 54.2434C54.6783 54.0048 54.7284 53.7495 54.7259 53.4922C54.7233 53.235 54.6681 52.9807 54.5634 52.7439C54.4586 52.5072 54.3065 52.2926 54.1155 52.1124C53.9246 51.9322 53.6986 51.79 53.4505 51.6938C53.2025 51.5976 52.9371 51.5494 52.6696 51.5518ZM52.6651 55.1244C52.3351 55.1192 52.014 55.0205 51.7421 54.8406C51.4701 54.6607 51.2593 54.4077 51.1362 54.1132C51.013 53.8186 50.9828 53.4957 51.0495 53.1848C51.1162 52.8739 51.2767 52.5887 51.511 52.3651C51.7452 52.1415 52.0429 51.9894 52.3666 51.9277C52.6904 51.866 53.0258 51.8975 53.3311 52.0183C53.6363 52.1391 53.8977 52.3438 54.0825 52.6068C54.2674 52.8698 54.3675 53.1794 54.3703 53.4969C54.3749 53.713 54.3338 53.9278 54.2494 54.1282C54.1651 54.3286 54.0393 54.5104 53.8797 54.6626C53.7201 54.8148 53.53 54.9342 53.321 55.0136C53.1119 55.093 52.8883 55.1307 52.6637 55.1244H52.6651Z" fill="#C7D8EF"/>
<path d="M53.0957 53.6661C53.1403 53.6545 53.1834 53.6381 53.2242 53.6171C53.3157 53.5672 53.3901 53.4926 53.4381 53.4025C53.4896 53.3044 53.5148 53.1954 53.5115 53.0855C53.515 52.9739 53.4898 52.8632 53.4381 52.7632C53.3886 52.6753 53.3145 52.6024 53.2242 52.553C53.1264 52.4995 53.0153 52.4726 52.9029 52.4753H52.0078V54.5435H52.3594V53.6909H52.7064L53.1778 54.5435H53.6015L53.0957 53.6661ZM52.8951 53.365H52.3594V52.8007H52.8951C52.9421 52.7999 52.9883 52.813 53.0273 52.8382C53.0667 52.8612 53.0971 52.8962 53.1136 52.9376C53.137 52.9838 53.1488 53.0346 53.148 53.0859C53.1459 53.137 53.1342 53.1872 53.1136 53.2343C53.0921 53.2739 53.0605 53.3076 53.0218 53.3323C52.9833 53.3543 52.9394 53.3658 52.8946 53.3654L52.8951 53.365Z" fill="#C7D8EF"/>
<path d="M12.3096 52.4215V59.0125H13.3603V52.4215H12.3096ZM10.2031 51.8369V52.792H15.4691V51.8369H10.2031Z" fill="#C7D8EF"/>
<path d="M19.9663 54.6916C19.8024 54.4081 19.5509 54.1806 19.2465 54.0408C18.8913 53.8827 18.5031 53.8054 18.1118 53.8147C17.7346 53.8101 17.3603 53.8772 17.0101 54.0121C16.7013 54.1262 16.4273 54.3135 16.2137 54.5565L16.9803 55.059C17.1438 54.9438 17.3265 54.8561 17.5206 54.7998C17.7227 54.7372 17.9338 54.7052 18.1462 54.7049C18.2912 54.6969 18.4364 54.7178 18.5727 54.7661C18.709 54.8144 18.8335 54.8891 18.9385 54.9857C19.1351 55.2008 19.2352 55.4819 19.2171 55.7677V59.0148H20.2123V55.7226C20.223 55.3644 20.1383 55.0095 19.9663 54.6916ZM18.9211 58.145C18.6338 58.2415 18.3298 58.2835 18.026 58.2686C17.7397 58.2881 17.4541 58.2232 17.2071 58.0827C17.1159 58.0147 17.0436 57.9262 16.9966 57.8249C16.9496 57.7236 16.9294 57.6127 16.9376 57.5021C16.9302 57.4043 16.9442 57.306 16.9788 57.2138C17.0133 57.1215 17.0676 57.0373 17.1382 56.9665C17.3155 56.8393 17.5346 56.778 17.7551 56.7938H19.3314L19.264 55.9818H17.7492C17.2656 55.9469 16.7855 56.0832 16.3992 56.3651C16.2435 56.5121 16.123 56.6901 16.0462 56.8865C15.9693 57.083 15.938 57.2932 15.9544 57.5025C15.9363 57.7243 15.9709 57.9471 16.0554 58.1542C16.1399 58.3612 16.2722 58.5471 16.4423 58.6978C16.8714 58.9885 17.392 59.1269 17.9153 59.0894C18.1174 59.092 18.319 59.0697 18.5153 59.0232C18.6819 58.9827 18.8399 58.9144 18.9821 58.8214C19.071 58.7661 19.1503 58.6977 19.2171 58.6187C19.2578 58.5773 19.2938 58.5319 19.3245 58.4832L19.2171 57.7617C19.2161 57.8474 19.187 57.9306 19.1338 57.9994C19.0806 58.0682 19.0061 58.119 18.9211 58.1445V58.145Z" fill="#C7D8EF"/>
<path d="M28.5678 54.7745C28.4441 54.4799 28.2267 54.2305 27.9468 54.0619C27.6508 53.8907 27.3101 53.8048 26.9649 53.8142C26.6376 53.8128 26.3184 53.9111 26.0528 54.095C25.7771 54.2865 25.5574 54.543 25.4147 54.8399C25.4045 54.8529 25.3956 54.8668 25.3881 54.8814L25.5988 55.8621C25.5812 55.5719 25.6757 55.2857 25.8641 55.0585C25.961 54.9615 26.0786 54.8859 26.2088 54.8369C26.339 54.7879 26.4787 54.7666 26.6183 54.7745C26.7693 54.7656 26.9206 54.7875 27.0623 54.8386C27.2039 54.8897 27.3328 54.969 27.4404 55.0713C27.5439 55.1854 27.6229 55.3181 27.673 55.4617C27.7231 55.6052 27.7433 55.7569 27.7324 55.908V59.0143H28.7817V55.9036C28.7915 55.5171 28.7187 55.1329 28.5678 54.7745ZM25.4152 54.8395C25.4065 54.8191 25.3973 54.7953 25.3885 54.7745C25.2704 54.4831 25.0611 54.2341 24.7895 54.0619C24.5033 53.8909 24.171 53.8048 23.8343 53.8142C23.52 53.8126 23.2124 53.9015 22.9511 54.0694C22.7328 54.2065 22.5499 54.3897 22.4163 54.605C22.3773 54.6628 22.3428 54.7211 22.3089 54.7816L22.4163 55.7707C22.4083 55.636 22.4289 55.5012 22.4768 55.3744C22.5247 55.2476 22.5989 55.1316 22.6949 55.0333C22.9147 54.8496 23.2008 54.7565 23.4914 54.7741C23.6367 54.7655 23.7822 54.7876 23.9178 54.8389C24.0533 54.8901 24.1755 54.9693 24.2758 55.0708C24.4737 55.3065 24.5721 55.6053 24.5513 55.9076V59.0139H25.6006V55.8621C25.6048 55.5131 25.5418 55.1664 25.4147 54.8395H25.4152ZM21.3706 53.8888V59.0143H22.4167V53.8888H21.3706Z" fill="#C7D8EF"/>
<path d="M41.2254 53.8887L40.2789 57.5469L38.9509 53.8887H38.2211L36.8899 57.5469L35.948 53.8887H34.8555L36.496 59.0142H37.2883L38.5865 55.4747L39.8846 59.0142H40.6732L42.3184 53.8887H41.2254Z" fill="#C7D8EF"/>
<path d="M50.3504 58.0826C50.3049 58.0846 50.2596 58.0763 50.218 58.0586C50.1765 58.0408 50.1397 58.014 50.1108 57.9802C50.0494 57.8961 50.0193 57.7945 50.0254 57.6919V51.8369H48.9797V57.6795C48.9555 58.0419 49.0716 58.4 49.3056 58.6849C49.4228 58.8051 49.5661 58.899 49.7252 58.9601C49.8843 59.0211 50.0554 59.0478 50.2264 59.0382H50.8434V58.0822L50.3504 58.0826Z" fill="#C7D8EF"/>
<path d="M35.3153 47.2436C35.2864 47.8177 34.9246 48.0896 34.3155 48.1506C34.1362 48.1659 33.9561 48.1705 33.7762 48.1643C27.2644 48.1643 20.8889 48.1643 14.3702 48.1576C13.9943 48.1576 13.2355 48.178 13.051 47.9934C12.9798 49.3445 12.221 50.1702 10.7035 50.2184C9.69639 50.2524 8.78108 50.0272 8.27064 49.0703C8.03912 48.5389 7.96293 47.9568 8.0503 47.3867C8.13767 46.8167 8.38528 46.2805 8.76639 45.836C8.97295 45.9446 9.18457 46.0568 9.39113 46.1698C9.15202 46.5717 8.97249 47.0037 8.85774 47.4534C8.76952 47.7829 8.79456 48.131 8.92909 48.4457C9.06363 48.7604 9.30044 49.0248 9.60412 49.1993C9.93551 49.369 10.3097 49.4462 10.6843 49.4221C11.0589 49.3979 11.419 49.2735 11.7239 49.0628C11.8971 48.8958 12.0281 48.6927 12.1067 48.4692C12.1854 48.2457 12.2096 48.0078 12.1774 47.7739C12.1852 45.7539 12.1774 42.8321 12.1774 40.812V40.7983H13.0294V40.9211C13.0294 42.4224 13.0294 44.8266 13.0363 46.327C13.0363 47.1465 13.2415 47.3505 14.1003 47.3505H33.789C34.3568 47.3505 34.4844 47.2352 34.4913 46.6966C34.4991 45.8024 34.4913 44.9153 34.4913 43.9947H35.3212C35.3217 45.0937 35.3575 46.1716 35.3153 47.2436Z" fill="#C7D8EF"/>
<path d="M8.91458 40.6236C8.64675 40.6261 8.38205 40.6793 8.13559 40.7801C7.88913 40.881 7.66574 41.0276 7.47817 41.2115C7.2906 41.3954 7.14253 41.6131 7.0424 41.852C6.94228 42.091 6.89206 42.3466 6.89462 42.6042C6.89719 42.8618 6.95248 43.1164 7.05734 43.3535C7.1622 43.5906 7.31457 43.8055 7.50576 43.9859C7.69696 44.1663 7.92322 44.3088 8.17164 44.4051C8.42006 44.5014 8.68577 44.5497 8.95359 44.5472C9.49449 44.5423 10.0112 44.3308 10.39 43.9594C10.7688 43.5879 10.9787 43.087 10.9735 42.5667C10.9684 42.0464 10.7485 41.5493 10.3624 41.185C9.97627 40.8206 9.45547 40.6186 8.91458 40.6236ZM8.90998 44.2002C8.57915 44.1966 8.25678 44.0991 7.98333 43.92C7.70989 43.7408 7.49754 43.4879 7.37294 43.1931C7.24833 42.8983 7.21702 42.5746 7.28294 42.2628C7.34886 41.9509 7.50907 41.6647 7.74346 41.4401C7.97785 41.2154 8.27599 41.0624 8.60046 41.0002C8.92493 40.938 9.26127 40.9693 9.56729 41.0903C9.87331 41.2113 10.1354 41.4165 10.3206 41.6802C10.5058 41.9439 10.6059 42.2544 10.6084 42.5726C10.6139 42.7883 10.5737 43.0028 10.4902 43.2031C10.4068 43.4033 10.2818 43.5852 10.123 43.7375C9.96412 43.8898 9.7747 44.0094 9.56624 44.089C9.35778 44.1687 9.13465 44.2066 8.91045 44.2006L8.90998 44.2002Z" fill="#C7D8EF"/>
<path d="M28.7843 41.1436C28.5645 41.156 28.3575 41.2469 28.2038 41.3985C28.0501 41.5501 27.9608 41.7515 27.9534 41.9631C27.9504 42.072 27.9699 42.1805 28.0107 42.2821C28.0516 42.3837 28.113 42.4766 28.1914 42.5552C28.2699 42.6338 28.3638 42.6966 28.4677 42.7401C28.5716 42.7835 28.6834 42.8067 28.7967 42.8082C29.0262 42.8066 29.2456 42.7174 29.4067 42.5602C29.5678 42.403 29.6574 42.1907 29.6558 41.9699C29.6541 41.7492 29.5614 41.5381 29.398 41.3831C29.2345 41.2282 29.0138 41.142 28.7843 41.1436ZM29.3113 41.9759C29.3085 42.1014 29.2544 42.2207 29.1607 42.308C29.067 42.3953 28.9412 42.4435 28.8108 42.4422C28.6804 42.4408 28.5557 42.39 28.464 42.3008C28.3722 42.2116 28.3208 42.0912 28.3208 41.9657C28.3208 41.8403 28.3722 41.7199 28.464 41.6307C28.5557 41.5415 28.6804 41.4907 28.8108 41.4893C28.9412 41.488 29.067 41.5362 29.1607 41.6235C29.2544 41.7108 29.3085 41.8301 29.3113 41.9556V41.9759Z" fill="#C7D8EF"/>
<path d="M52.9857 42.0342V42.8696H52.1328V42.0342H52.9857Z" fill="#C7D8EF"/>
<path d="M33.6636 49.168H34.5101V50.0228H33.6636V49.168Z" fill="#C7D8EF"/>
<path d="M54.2863 42.0229V42.8703H53.4775V42.0229H54.2863Z" fill="#C7D8EF"/>
<path d="M35.0039 49.1597H35.7893V50.0092H35.0039V49.1597Z" fill="#C7D8EF"/>
<path d="M9.34545 42.7418C9.38874 42.7301 9.43048 42.7137 9.46985 42.6928C9.5626 42.6444 9.63737 42.5694 9.68375 42.4782C9.7373 42.3806 9.764 42.2715 9.76132 42.1612C9.764 42.0496 9.73731 41.9392 9.68375 41.8402C9.63483 41.7507 9.56069 41.6764 9.46985 41.6256C9.37319 41.5741 9.26403 41.5484 9.15359 41.551H8.25391V43.6218H8.60873V42.7666H8.95575L9.42716 43.6218H9.85083L9.34545 42.7418ZM9.14027 42.4407H8.60873V41.8764H9.14027C9.18756 41.8757 9.23396 41.8888 9.27339 41.9139C9.31462 41.9363 9.34692 41.9713 9.36519 42.0133C9.38688 42.0599 9.39708 42.1106 9.39503 42.1616C9.39455 42.2129 9.38282 42.2634 9.3606 42.31C9.34161 42.3493 9.31216 42.3831 9.27523 42.408C9.23405 42.4307 9.18724 42.4421 9.13981 42.4411L9.14027 42.4407Z" fill="#C7D8EF"/>
<path d="M40.2623 51.5718H36.7852V52.118H40.2623V51.5718Z" fill="#C7D8EF"/>
<path d="M53.4775 38.8804H50.2583V39.4266H53.4775V38.8804Z" fill="#C7D8EF"/>
<path d="M39.2037 49.4062C39.1119 49.4129 39.005 49.4201 38.8907 49.4201H37.0303V49.4062H39.2037Z" fill="#C7D8EF"/>
<path d="M39.9062 48.791V48.2051C39.9062 48.4303 39.9198 48.6263 39.9062 48.791Z" fill="#C7D8EF"/>
<path d="M53.6176 44.535V43.9967H52.7955C52.7813 44.0966 52.7727 44.1971 52.7698 44.2979C52.7698 44.7836 52.7698 45.2693 52.7652 45.755V47.1432C52.7651 47.2349 52.7272 47.3229 52.6598 47.3879C52.5925 47.4528 52.5011 47.4895 52.4058 47.4898H50.8506C50.8034 47.49 50.7566 47.4813 50.7128 47.4642H50.7083C50.6423 47.4371 50.5863 47.3916 50.5476 47.3336C50.5088 47.2756 50.489 47.2077 50.4907 47.1388C50.4907 46.7312 50.4907 45.8252 50.4861 45.6684C50.4131 44.4935 49.7108 43.802 48.5536 43.7848C47.7526 43.7689 46.5655 44.138 46.5655 45.536V46.6019C46.5655 47.0341 46.6986 47.3551 44.986 47.3551H40.8511C40.8511 46.7617 40.8345 46.2513 40.8001 45.732C40.7542 44.9659 40.5348 44.285 39.703 43.9521C39.4195 43.8207 39.1078 43.7553 38.7932 43.7611C38.4785 43.7669 38.1697 43.8439 37.8916 43.9857C37.6136 44.1275 37.3741 44.3303 37.1926 44.5776C37.011 44.8248 36.8925 45.1097 36.8465 45.4092C36.7694 45.8629 36.765 46.3253 36.8332 46.7802C36.8771 47.1037 37.0285 47.4049 37.2648 47.6389C37.5011 47.873 37.8097 48.0272 38.1446 48.0788C38.718 48.1672 39.3184 48.1672 39.9009 48.2069C39.9009 48.4277 39.9142 48.6264 39.9009 48.7915C39.8798 49.1372 39.7466 49.3518 39.1986 49.4097C39.1068 49.4141 39.0012 49.4225 38.8901 49.4225H37.0264V50.2336H39.558C39.9007 50.2337 40.2296 50.1034 40.4728 49.8711C40.716 49.6388 40.8538 49.3234 40.8561 48.9937V48.1654C42.3861 48.1654 43.8802 48.157 45.3711 48.1654C45.6493 48.1981 45.9314 48.1766 46.2007 48.1022C46.47 48.0278 46.721 47.9019 46.9387 47.7322C47.3655 48.0633 47.8918 48.2534 48.4397 48.2744C48.9876 48.2953 49.528 48.1459 49.9807 47.8484L49.9853 47.8514C50.0127 47.9488 50.0723 48.0349 50.1552 48.0967C50.238 48.1585 50.3395 48.1927 50.4443 48.1941H52.9846C53.5414 48.1941 53.5923 47.5967 53.6015 47.5145V47.5017L53.6148 46.8968C53.6309 46.1047 53.6176 45.3183 53.6176 44.535ZM38.505 47.3331C38.297 47.3311 38.0973 47.2543 37.9452 47.1178C37.793 46.9814 37.6995 46.7951 37.6829 46.5957C37.6397 46.1812 37.6614 45.7628 37.7471 45.3545C37.8066 45.1142 37.9563 44.9035 38.1674 44.7628C38.3786 44.6222 38.6362 44.5615 38.891 44.5924C39.014 44.5853 39.1372 44.6021 39.2534 44.6417C39.3695 44.6812 39.4763 44.7427 39.5673 44.8226C39.6583 44.9025 39.7317 44.9991 39.7833 45.1068C39.8348 45.2145 39.8634 45.331 39.8674 45.4494C39.9661 46.0429 39.9592 46.6575 40.0005 47.3415C39.4391 47.3415 38.9691 47.3746 38.505 47.3331ZM49.6341 46.1263C49.6429 47.1719 49.1806 47.6386 48.2598 47.5393C48.194 47.532 48.1293 47.5181 48.0665 47.4978C47.462 47.3291 47.1623 46.6005 47.3211 45.7104C47.4496 44.9187 47.8049 44.5844 48.4902 44.5932C49.1503 44.5977 49.5276 44.9646 49.6263 45.702C49.6394 45.8429 49.6418 45.9846 49.6337 46.1259L49.6341 46.1263Z" fill="#C7D8EF"/>
<path d="M47.5592 9.11094C47.5693 17.5519 47.5693 25.9936 47.5592 34.436C47.5481 34.597 47.4793 34.7493 47.3646 34.867C46.6412 35.5805 45.9095 36.2835 45.1613 36.9732C45.0204 37.0996 44.8377 37.1743 44.6453 37.1842C44.2428 37.1842 43.837 37.1877 43.4307 37.1842C40.0012 37.1904 36.5695 37.1833 33.1356 37.163C32.9716 37.1388 32.8217 37.0597 32.7124 36.9396C31.6952 35.9611 30.6885 34.9654 29.6713 33.9839C29.5978 33.9149 29.5403 33.8318 29.5027 33.7399C29.465 33.6481 29.448 33.5496 29.4528 33.4509C29.4602 28.3925 29.4626 23.3343 29.4602 18.2762C29.4602 17.9296 29.4602 17.8443 29.2591 17.824H22.7868C22.243 16.4957 22.243 15.0185 22.7868 13.6902H23.9775C24.0161 13.6867 24.0588 13.6867 24.0937 13.6867C28.9217 13.6796 33.7526 13.6902 38.5802 13.6735C38.7812 13.6735 38.9543 13.6761 39.1025 13.6902H40.2221C40.7718 15.0174 40.7718 16.4968 40.2221 17.824H33.7957C33.6217 17.8585 33.5662 17.9702 33.5662 18.2086C33.5699 22.1216 33.5662 26.0349 33.5552 29.9485C33.5478 30.9946 33.4946 32.0406 33.4455 33.0875C33.4317 33.3657 33.5267 33.4544 33.8168 33.4509C34.5687 33.4403 35.3178 33.4544 36.0661 33.4642C37.3091 33.4854 38.5517 33.5118 39.7948 33.5326C41.0066 33.5529 42.2212 33.5662 43.433 33.5931C43.5317 33.5966 43.6267 33.5966 43.7259 33.6002C43.9875 33.6072 44.0972 33.5489 44.0931 33.2739C44.0821 30.8352 44.0858 28.3956 44.0748 25.9569C44.0711 24.8222 44.0362 23.6909 44.0288 22.557C44.0004 18.3317 43.9802 14.1037 43.9683 9.87305C43.9655 9.57765 43.8558 9.52643 43.584 9.52643H43.4321C35.3226 9.53262 27.2152 9.53262 19.11 9.52643C18.8805 9.5229 18.7919 9.5803 18.7634 9.71983H18.7579C18.7475 9.77696 18.7428 9.83493 18.7441 9.89292C18.7515 12.9904 18.7551 16.0852 18.7368 19.184C18.712 24.1642 18.6702 29.1445 18.6381 34.1238C18.6344 34.4916 18.6344 34.855 18.6307 35.2215V37.1069L18.0556 36.5466L15.4492 34.0086L15.4455 34.0015C15.3093 33.8116 15.2425 33.5837 15.2555 33.3533C15.2693 31.0096 15.2628 28.6654 15.2628 26.3217C15.2628 20.7231 15.2616 15.1235 15.2592 9.5229C15.2457 9.37671 15.2669 9.22949 15.3212 9.09234C15.3755 8.95519 15.4615 8.8317 15.5727 8.7312C15.9615 8.39165 16.3429 8.0415 16.7239 7.69135C17.0595 7.38624 17.395 7.07981 17.7338 6.78176C17.8605 6.67463 18.0208 6.61124 18.1892 6.60161C19.1136 6.58483 20.0432 6.59101 20.9686 6.59101H42.6977C42.9419 6.59101 43.1851 6.58836 43.4294 6.5813C43.881 6.57423 44.3295 6.56364 44.7784 6.57777C44.9913 6.59232 45.1933 6.6736 45.3536 6.80914C46.0314 7.40641 46.6954 8.01987 47.3453 8.64952C47.4712 8.77408 47.547 8.9376 47.5592 9.11094Z" fill="#C7D8EF"/>
<path d="M47.2744 54.6911C47.1105 54.4076 46.859 54.1801 46.5546 54.0403C46.1994 53.8823 45.8112 53.8049 45.4199 53.8142C45.0428 53.8096 44.6684 53.8767 44.3182 54.0116C44.0094 54.1257 43.7354 54.313 43.5218 54.556L44.2884 55.0585C44.4519 54.9433 44.6346 54.8556 44.8287 54.7993C45.0309 54.7367 45.2419 54.7047 45.4543 54.7044C45.5994 54.6965 45.7445 54.7173 45.8808 54.7656C46.0171 54.8139 46.1416 54.8887 46.2466 54.9852C46.4432 55.2003 46.5433 55.4814 46.5253 55.7672V59.0144H47.5204V55.7222C47.5311 55.3639 47.4464 55.009 47.2744 54.6911ZM46.2292 58.1445C45.9419 58.241 45.6379 58.283 45.3341 58.2681C45.0478 58.2876 44.7622 58.2228 44.5152 58.0823C44.424 58.0143 44.3518 57.9257 44.3048 57.8244C44.2577 57.7231 44.2375 57.6123 44.2457 57.5016C44.2383 57.4038 44.2523 57.3056 44.2869 57.2133C44.3214 57.1211 44.3757 57.0368 44.4463 56.966C44.6236 56.8389 44.8427 56.7776 45.0632 56.7934H46.6395L46.5721 55.9814H45.0573C44.5737 55.9465 44.0936 56.0828 43.7073 56.3646C43.5516 56.5117 43.4311 56.6896 43.3543 56.8861C43.2775 57.0825 43.2461 57.2928 43.2625 57.5021C43.2444 57.7238 43.279 57.9466 43.3635 58.1537C43.448 58.3607 43.5803 58.5466 43.7504 58.6973C44.1795 58.988 44.7001 59.1264 45.2234 59.089C45.4255 59.0915 45.6271 59.0692 45.8234 59.0228C45.9901 58.9822 46.1481 58.9139 46.2902 58.821C46.3791 58.7657 46.4584 58.6973 46.5253 58.6183C46.5659 58.5769 46.6019 58.5314 46.6327 58.4827L46.5253 57.7612C46.5243 57.847 46.4951 57.9302 46.4419 57.9989C46.3887 58.0677 46.3142 58.1185 46.2292 58.1441V58.1445Z" fill="#C7D8EF"/>
<path d="M33.8374 54.6916C33.6735 54.4081 33.422 54.1806 33.1176 54.0408C32.7624 53.8827 32.3742 53.8054 31.9829 53.8147C31.6057 53.8101 31.2314 53.8772 30.8812 54.0121C30.5723 54.1262 30.2984 54.3135 30.0848 54.5565L30.8514 55.059C31.0149 54.9438 31.1976 54.8561 31.3917 54.7998C31.5938 54.7372 31.8049 54.7052 32.0173 54.7049C32.1623 54.6969 32.3075 54.7178 32.4438 54.7661C32.5801 54.8144 32.7046 54.8892 32.8096 54.9857C33.0062 55.2008 33.1063 55.4819 33.0882 55.7677V59.0149H34.0834V55.7227C34.0941 55.3644 34.0094 55.0095 33.8374 54.6916ZM32.7922 58.145C32.5049 58.2415 32.2009 58.2835 31.8971 58.2686C31.6108 58.2881 31.3252 58.2233 31.0781 58.0827C30.987 58.0148 30.9147 57.9262 30.8677 57.8249C30.8207 57.7236 30.8005 57.6127 30.8087 57.5021C30.8013 57.4043 30.8153 57.3061 30.8499 57.2138C30.8844 57.1215 30.9387 57.0373 31.0093 56.9665C31.1866 56.8394 31.4057 56.778 31.6262 56.7939H33.2025L33.1351 55.9818H31.6203C31.1367 55.947 30.6566 56.0833 30.2703 56.3651C30.1146 56.5122 29.9941 56.6901 29.9173 56.8866C29.8404 57.083 29.8091 57.2932 29.8255 57.5025C29.8074 57.7243 29.8419 57.9471 29.9265 58.1542C30.011 58.3612 30.1433 58.5471 30.3134 58.6978C30.7425 58.9885 31.2631 59.1269 31.7864 59.0895C31.9885 59.092 32.1901 59.0697 32.3864 59.0232C32.553 58.9827 32.711 58.9144 32.8532 58.8215C32.9421 58.7662 33.0214 58.6978 33.0882 58.6188C33.1289 58.5773 33.1649 58.5319 33.1956 58.4832L33.0882 57.7617C33.0872 57.8474 33.0581 57.9307 33.0049 57.9994C32.9517 58.0682 32.8772 58.119 32.7922 58.1446V58.145Z" fill="#C7D8EF"/>
<rect x="3.5" y="0.5" width="56" height="62" stroke="white" stroke-opacity="0.29"/>
</g>
<defs>
<filter id="filter0_d" x="0" y="0" width="63" height="70" filterUnits="userSpaceOnUse" color-interpolation-filters="sRGB">
<feFlood flood-opacity="0" result="BackgroundImageFix"/>
<feColorMatrix in="SourceAlpha" type="matrix" values="0 0 0 0 0 0 0 0 0 0 0 0 0 0 0 0 0 0 127 0"/>
<feOffset dy="4"/>
<feGaussianBlur stdDeviation="1.5"/>
<feColorMatrix type="matrix" values="0 0 0 0 0 0 0 0 0 0 0 0 0 0 0 0 0 0 0.33 0"/>
<feBlend mode="normal" in2="BackgroundImageFix" result="effect1_dropShadow"/>
<feBlend mode="normal" in="SourceGraphic" in2="effect1_dropShadow" result="shape"/>
</filter>
</defs>
</svg>
