<svg width="906" height="52" viewBox="0 0 906 52" fill="none" xmlns="http://www.w3.org/2000/svg">
<rect opacity="0.49" x="837.613" y="20.3433" width="5.00003" height="782.052" transform="rotate(90 837.613 20.3433)" fill="#CECECE" fill-opacity="0.91"/>
<g filter="url(#filter0_d)">
<rect x="4.63672" y="1" width="110.336" height="42" rx="8" fill="#F4F9FF"/>
</g>
<g filter="url(#filter1_d)">
<rect x="262.383" width="110.336" height="44" rx="8" fill="#F4F9FF"/>
</g>
<g filter="url(#filter2_d)">
<rect x="533.281" width="109.124" height="44" rx="8" fill="#F4F9FF"/>
</g>
<g filter="url(#filter3_d)">
<rect x="793.965" width="107.911" height="44" rx="8" fill="#F4F9FF"/>
</g>
<path d="M836 28.9999H860V31.9999H836V28.9999ZM860 16.0999V17.9999H857V23.9999H859V26.9999H837V23.9999H839V17.9999H836V16.0999C835.999 15.4862 836.163 14.8835 836.476 14.3554C836.789 13.8274 837.238 13.3936 837.777 13.0999L846.367 8.41588C846.868 8.14174 847.429 7.99805 848 7.99805C848.571 7.99805 849.132 8.14174 849.633 8.41588L858.224 13.0999C858.763 13.3938 859.212 13.8277 859.525 14.3557C859.837 14.8837 860.001 15.4863 860 16.0999ZM840.562 14.9999H855.437L848.2 11.0499C848.14 11.0166 848.073 10.9991 848.005 10.9991C847.937 10.9991 847.87 11.0166 847.81 11.0499L840.562 14.9999ZM847 17.9999V23.9999H849V17.9999H847ZM842 23.9999H844V17.9999H842V23.9999ZM854 17.9999H852V23.9999H854V17.9999Z" fill="#004080"/>
<path d="M67 15.849V15C67 13.1435 66.2625 11.363 64.9497 10.0503C63.637 8.7375 61.8565 8 60 8C58.1435 8 56.363 8.7375 55.0503 10.0503C53.7375 11.363 53 13.1435 53 15V15.849H50V28.849C50 29.6446 50.3161 30.4077 50.8787 30.9703C51.4413 31.5329 52.2044 31.849 53 31.849H67C67.7956 31.849 68.5587 31.5329 69.1213 30.9703C69.6839 30.4077 70 29.6446 70 28.849V15.849H67ZM56 15C56 13.9391 56.4214 12.9217 57.1716 12.1716C57.9217 11.4214 58.9391 11 60 11C61.0609 11 62.0783 11.4214 62.8284 12.1716C63.5786 12.9217 64 13.9391 64 15V15.849H56V15ZM53 28.849V18.849H67V28.849H53Z" fill="#004080"/>
<path d="M327.521 30.1117L326.46 29.0507C325.81 28.4006 325.038 27.8849 324.189 27.5331C323.34 27.1812 322.429 27.0002 321.51 27.0002C320.591 27.0002 319.68 27.1812 318.831 27.5331C317.982 27.8849 317.21 28.4006 316.56 29.0507L315.5 30.1117L313.379 27.9907L314.439 26.9297C316.314 25.0543 318.858 24.0008 321.51 24.0008C324.162 24.0008 326.706 25.0543 328.581 26.9297L329.642 27.9907L327.521 30.1117ZM326.106 31.5247L325.046 30.4647C324.107 29.529 322.836 29.0035 321.51 29.0035C320.185 29.0035 318.914 29.529 317.975 30.4647L316.914 31.5247L319.035 33.6467L320.096 32.5867C320.282 32.4009 320.502 32.2535 320.745 32.1529C320.988 32.0523 321.248 32.0006 321.51 32.0006C321.773 32.0006 322.033 32.0523 322.276 32.1529C322.519 32.2535 322.739 32.4009 322.925 32.5867L323.985 33.6467L326.106 31.5247ZM320.01 35.5007C320.01 35.7973 320.098 36.0873 320.263 36.334C320.428 36.5807 320.662 36.7729 320.936 36.8865C321.21 37 321.512 37.0297 321.803 36.9718C322.094 36.914 322.361 36.7711 322.571 36.5613C322.78 36.3515 322.923 36.0843 322.981 35.7933C323.039 35.5023 323.009 35.2007 322.896 34.9266C322.782 34.6525 322.59 34.4183 322.343 34.2535C322.097 34.0886 321.807 34.0007 321.51 34.0007C321.112 34.0007 320.731 34.1587 320.449 34.44C320.168 34.7213 320.01 35.1028 320.01 35.5007ZM315.5 34.3287L313.172 32.0007H311.8C311.061 32.0036 310.351 31.713 309.826 31.1926C309.301 30.6723 309.004 29.9648 309 29.2257C309.026 28.5853 309.255 27.9699 309.654 27.4681C310.053 26.9663 310.6 26.6041 311.218 26.4337L313.381 25.8777L312.048 24.0857C311.387 23.2043 311.029 22.1324 311.029 21.0307C311.016 20.3638 311.138 19.7012 311.388 19.0829C311.639 18.4647 312.011 17.9035 312.485 17.4334C312.958 16.9633 313.521 16.5939 314.141 16.3477C314.761 16.1014 315.424 15.9834 316.091 16.0007C317.341 16.0008 318.549 16.4528 319.491 17.2734C320.434 18.0939 321.048 19.2277 321.221 20.4657L321.291 20.9947C321.365 20.9947 321.436 20.9797 321.51 20.9797C324.326 20.9758 327.065 21.8939 329.31 23.5937C328.817 22.4804 328.083 21.4907 327.16 20.6963C326.238 19.9019 325.15 19.3227 323.976 19.0007C323.496 17.2774 322.466 15.7583 321.042 14.6751C319.619 13.5918 317.88 13.0038 316.091 13.0007C315.031 12.987 313.979 13.1852 312.997 13.5835C312.015 13.9818 311.122 14.5723 310.371 15.3202C309.62 16.0682 309.026 16.9586 308.624 17.9392C308.222 18.9198 308.02 19.9708 308.029 21.0307C308.028 22.157 308.263 23.2711 308.72 24.3007C307.896 24.8337 307.216 25.5623 306.741 26.4215C306.267 27.2808 306.012 28.2441 306 29.2257C306.005 30.7602 306.618 32.2303 307.705 33.3131C308.793 34.3958 310.265 35.0028 311.8 35.0007H316.176L315.5 34.3287Z" fill="#004080"/>
<path d="M590 11C587.627 11 585.307 11.7038 583.333 13.0224C581.36 14.3409 579.822 16.2151 578.913 18.4078C578.005 20.6005 577.768 23.0133 578.231 25.3411C578.694 27.6689 579.836 29.8071 581.515 31.4853C583.193 33.1635 585.331 34.3064 587.659 34.7694C589.987 35.2324 592.399 34.9948 594.592 34.0866C596.785 33.1783 598.659 31.6402 599.978 29.6668C601.296 27.6935 602 25.3734 602 23C601.997 19.8185 600.731 16.7682 598.481 14.5185C596.232 12.2688 593.182 11.0034 590 11ZM590 32V27.693C590 27.4609 589.908 27.2384 589.744 27.0743C589.58 26.9102 589.357 26.818 589.125 26.818H584.75L581 23.072C581 23.048 581 23.024 581 23C580.998 21.3064 581.475 19.6467 582.375 18.2121C583.275 16.7775 584.562 15.6264 586.088 14.8914C587.614 14.1564 589.316 13.8674 590.999 14.0577C592.682 14.248 594.277 14.9098 595.6 15.967L595.249 16.318H591.909V20.136H589.045V23.08C589.045 23.3121 589.137 23.5346 589.301 23.6987C589.465 23.8628 589.688 23.955 589.92 23.955H595.727V24.9C595.729 26.2486 596.187 27.5568 597.027 28.612C596.186 29.6687 595.117 30.522 593.9 31.1086C592.684 31.6952 591.351 31.9999 590 32Z" fill="#004080"/>
<defs>
<filter id="filter0_d" x="0.636719" y="1" width="118.336" height="50" filterUnits="userSpaceOnUse" color-interpolation-filters="sRGB">
<feFlood flood-opacity="0" result="BackgroundImageFix"/>
<feColorMatrix in="SourceAlpha" type="matrix" values="0 0 0 0 0 0 0 0 0 0 0 0 0 0 0 0 0 0 127 0" result="hardAlpha"/>
<feOffset dy="4"/>
<feGaussianBlur stdDeviation="2"/>
<feColorMatrix type="matrix" values="0 0 0 0 0 0 0 0 0 0 0 0 0 0 0 0 0 0 0.11 0"/>
<feBlend mode="normal" in2="BackgroundImageFix" result="effect1_dropShadow"/>
<feBlend mode="normal" in="SourceGraphic" in2="effect1_dropShadow" result="shape"/>
</filter>
<filter id="filter1_d" x="258.383" y="0" width="118.336" height="52" filterUnits="userSpaceOnUse" color-interpolation-filters="sRGB">
<feFlood flood-opacity="0" result="BackgroundImageFix"/>
<feColorMatrix in="SourceAlpha" type="matrix" values="0 0 0 0 0 0 0 0 0 0 0 0 0 0 0 0 0 0 127 0" result="hardAlpha"/>
<feOffset dy="4"/>
<feGaussianBlur stdDeviation="2"/>
<feColorMatrix type="matrix" values="0 0 0 0 0 0 0 0 0 0 0 0 0 0 0 0 0 0 0.11 0"/>
<feBlend mode="normal" in2="BackgroundImageFix" result="effect1_dropShadow"/>
<feBlend mode="normal" in="SourceGraphic" in2="effect1_dropShadow" result="shape"/>
</filter>
<filter id="filter2_d" x="529.281" y="0" width="117.124" height="52" filterUnits="userSpaceOnUse" color-interpolation-filters="sRGB">
<feFlood flood-opacity="0" result="BackgroundImageFix"/>
<feColorMatrix in="SourceAlpha" type="matrix" values="0 0 0 0 0 0 0 0 0 0 0 0 0 0 0 0 0 0 127 0" result="hardAlpha"/>
<feOffset dy="4"/>
<feGaussianBlur stdDeviation="2"/>
<feColorMatrix type="matrix" values="0 0 0 0 0 0 0 0 0 0 0 0 0 0 0 0 0 0 0.11 0"/>
<feBlend mode="normal" in2="BackgroundImageFix" result="effect1_dropShadow"/>
<feBlend mode="normal" in="SourceGraphic" in2="effect1_dropShadow" result="shape"/>
</filter>
<filter id="filter3_d" x="789.965" y="0" width="115.911" height="52" filterUnits="userSpaceOnUse" color-interpolation-filters="sRGB">
<feFlood flood-opacity="0" result="BackgroundImageFix"/>
<feColorMatrix in="SourceAlpha" type="matrix" values="0 0 0 0 0 0 0 0 0 0 0 0 0 0 0 0 0 0 127 0" result="hardAlpha"/>
<feOffset dy="4"/>
<feGaussianBlur stdDeviation="2"/>
<feColorMatrix type="matrix" values="0 0 0 0 0 0 0 0 0 0 0 0 0 0 0 0 0 0 0.11 0"/>
<feBlend mode="normal" in2="BackgroundImageFix" result="effect1_dropShadow"/>
<feBlend mode="normal" in="SourceGraphic" in2="effect1_dropShadow" result="shape"/>
</filter>
</defs>
</svg>
