<svg width="230" height="313" viewBox="0 0 230 313" fill="none" xmlns="http://www.w3.org/2000/svg">
<g filter="url(#filter0_d)">
<rect x="4" y="34" width="221.852" height="270.039" rx="8" fill="#F4F9FF"/>
</g>
<path d="M31.8968 223.131H26.0918V218.892H43.0208V223.131H37.2428V237.792H31.8968V223.131ZM49.3665 224.913C49.8885 224.247 50.5635 223.752 51.3915 223.428C52.2375 223.086 53.2005 222.915 54.2805 222.915V227.532C53.8125 227.478 53.4255 227.451 53.1195 227.451C52.0215 227.451 51.1575 227.748 50.5275 228.342C49.9155 228.936 49.6095 229.845 49.6095 231.069V237.792H44.4795V223.158H49.3665V224.913ZM71.8402 223.158V237.792H66.9532V236.226C66.4132 236.82 65.7652 237.27 65.0092 237.576C64.2532 237.882 63.4522 238.035 62.6062 238.035C60.7162 238.035 59.2042 237.477 58.0702 236.361C56.9542 235.245 56.3962 233.571 56.3962 231.339V223.158H61.5262V230.502C61.5262 231.6 61.7332 232.401 62.1472 232.905C62.5612 233.409 63.1642 233.661 63.9562 233.661C64.7662 233.661 65.4232 233.382 65.9272 232.824C66.4492 232.248 66.7102 231.375 66.7102 230.205V223.158H71.8402ZM80.4635 238.035C79.2395 238.035 78.0335 237.9 76.8455 237.63C75.6575 237.342 74.7035 236.973 73.9835 236.523L75.5225 233.013C76.1885 233.427 76.9805 233.76 77.8985 234.012C78.8165 234.246 79.7255 234.363 80.6255 234.363C81.4535 234.363 82.0385 234.282 82.3805 234.12C82.7405 233.94 82.9205 233.688 82.9205 233.364C82.9205 233.04 82.7045 232.815 82.2725 232.689C81.8585 232.545 81.1925 232.41 80.2745 232.284C79.1045 232.14 78.1055 231.951 77.2775 231.717C76.4675 231.483 75.7655 231.051 75.1715 230.421C74.5775 229.791 74.2805 228.909 74.2805 227.775C74.2805 226.839 74.5595 226.011 75.1175 225.291C75.6755 224.553 76.4855 223.977 77.5475 223.563C78.6275 223.131 79.9145 222.915 81.4085 222.915C82.4705 222.915 83.5235 223.023 84.5675 223.239C85.6115 223.455 86.4845 223.761 87.1865 224.157L85.6475 227.64C84.3515 226.92 82.9475 226.56 81.4355 226.56C80.6255 226.56 80.0315 226.659 79.6535 226.857C79.2755 227.037 79.0865 227.28 79.0865 227.586C79.0865 227.928 79.2935 228.171 79.7075 228.315C80.1215 228.441 80.8055 228.576 81.7595 228.72C82.9655 228.9 83.9645 229.107 84.7565 229.341C85.5485 229.575 86.2325 230.007 86.8085 230.637C87.4025 231.249 87.6995 232.113 87.6995 233.229C87.6995 234.147 87.4205 234.975 86.8625 235.713C86.3045 236.433 85.4765 237 84.3785 237.414C83.2985 237.828 81.9935 238.035 80.4635 238.035ZM100.008 237.198C99.5761 237.468 99.0451 237.675 98.4151 237.819C97.8031 237.963 97.1461 238.035 96.4441 238.035C94.5361 238.035 93.0691 237.567 92.0431 236.631C91.0171 235.695 90.5041 234.3 90.5041 232.446V227.532H88.3711V223.698H90.5041V219.891H95.6341V223.698H98.9821V227.532H95.6341V232.392C95.6341 232.914 95.7691 233.328 96.0391 233.634C96.3271 233.922 96.7051 234.066 97.1731 234.066C97.7671 234.066 98.2891 233.913 98.7391 233.607L100.008 237.198ZM125.969 223.158L120.758 237.792H115.79L113.036 229.827L110.174 237.792H105.206L99.9946 223.158H104.855L107.852 232.014L110.957 223.158H115.331L118.355 232.095L121.46 223.158H125.969ZM134.485 238.035C132.919 238.035 131.506 237.711 130.246 237.063C128.986 236.415 127.996 235.515 127.276 234.363C126.574 233.211 126.223 231.906 126.223 230.448C126.223 229.008 126.574 227.712 127.276 226.56C127.996 225.408 128.977 224.517 130.219 223.887C131.479 223.239 132.901 222.915 134.485 222.915C136.069 222.915 137.491 223.239 138.751 223.887C140.011 224.517 140.992 225.408 141.694 226.56C142.396 227.694 142.747 228.99 142.747 230.448C142.747 231.906 142.396 233.211 141.694 234.363C140.992 235.515 140.011 236.415 138.751 237.063C137.491 237.711 136.069 238.035 134.485 238.035ZM134.485 233.958C135.385 233.958 136.123 233.652 136.699 233.04C137.275 232.41 137.563 231.546 137.563 230.448C137.563 229.368 137.275 228.522 136.699 227.91C136.123 227.298 135.385 226.992 134.485 226.992C133.585 226.992 132.847 227.298 132.271 227.91C131.695 228.522 131.407 229.368 131.407 230.448C131.407 231.546 131.695 232.41 132.271 233.04C132.847 233.652 133.585 233.958 134.485 233.958ZM150.01 224.913C150.532 224.247 151.207 223.752 152.035 223.428C152.881 223.086 153.844 222.915 154.924 222.915V227.532C154.456 227.478 154.069 227.451 153.763 227.451C152.665 227.451 151.801 227.748 151.171 228.342C150.559 228.936 150.253 229.845 150.253 231.069V237.792H145.123V223.158H150.01V224.913ZM167.587 237.198C167.155 237.468 166.624 237.675 165.994 237.819C165.382 237.963 164.725 238.035 164.023 238.035C162.115 238.035 160.648 237.567 159.622 236.631C158.596 235.695 158.083 234.3 158.083 232.446V227.532H155.95V223.698H158.083V219.891H163.213V223.698H166.561V227.532H163.213V232.392C163.213 232.914 163.348 233.328 163.618 233.634C163.906 233.922 164.284 234.066 164.752 234.066C165.346 234.066 165.868 233.913 166.318 233.607L167.587 237.198ZM179.096 222.915C180.914 222.915 182.372 223.455 183.47 224.535C184.586 225.615 185.144 227.244 185.144 229.422V237.792H180.014V230.259C180.014 228.261 179.213 227.262 177.611 227.262C176.729 227.262 176.018 227.55 175.478 228.126C174.956 228.702 174.695 229.566 174.695 230.718V237.792H169.565V217.758H174.695V224.508C175.253 223.986 175.91 223.59 176.666 223.32C177.422 223.05 178.232 222.915 179.096 222.915ZM203.519 223.158L197.201 238.386C196.463 240.186 195.563 241.446 194.501 242.166C193.439 242.904 192.143 243.273 190.613 243.273C189.839 243.273 189.056 243.147 188.264 242.895C187.49 242.661 186.86 242.346 186.374 241.95L188.156 238.359C188.444 238.629 188.786 238.836 189.182 238.98C189.596 239.142 190.01 239.223 190.424 239.223C190.91 239.223 191.306 239.124 191.612 238.926C191.936 238.728 192.206 238.413 192.422 237.981L186.158 223.158H191.423L195.014 232.095L198.632 223.158H203.519Z" fill="#0C5AAE"/>
<path d="M54.7279 268.205C56.7629 268.205 57.7089 267.193 57.7089 266.016C57.7089 263.189 53.0449 264.366 53.0449 262.485C53.0449 261.814 53.6059 261.264 54.9149 261.264C55.5969 261.264 56.3559 261.462 57.0269 261.891L57.3899 261.011C56.7519 260.571 55.8169 260.329 54.9149 260.329C52.8909 260.329 51.9669 261.341 51.9669 262.529C51.9669 265.389 56.6309 264.201 56.6309 266.082C56.6309 266.753 56.0589 267.27 54.7279 267.27C53.7379 267.27 52.7589 266.896 52.1869 266.379L51.7799 267.237C52.3959 267.809 53.5509 268.205 54.7279 268.205ZM61.659 268.183C63.408 268.183 64.684 266.94 64.684 265.202C64.684 263.464 63.408 262.232 61.659 262.232C59.91 262.232 58.623 263.464 58.623 265.202C58.623 266.94 59.91 268.183 61.659 268.183ZM61.659 267.259C60.537 267.259 59.69 266.445 59.69 265.202C59.69 263.959 60.537 263.156 61.659 263.156C62.781 263.156 63.617 263.959 63.617 265.202C63.617 266.445 62.781 267.259 61.659 267.259ZM73.4374 262.232C72.4474 262.232 71.6334 262.65 71.1934 263.31C70.8084 262.584 70.0604 262.232 69.1694 262.232C68.2894 262.232 67.5744 262.562 67.1564 263.156V262.287H66.1444V268.117H67.2004V265.114C67.2004 263.849 67.8934 263.178 68.9494 263.178C69.9064 263.178 70.4564 263.739 70.4564 264.883V268.117H71.5124V265.114C71.5124 263.849 72.2054 263.178 73.2614 263.178C74.2184 263.178 74.7684 263.739 74.7684 264.883V268.117H75.8244V264.762C75.8244 263.046 74.8564 262.232 73.4374 262.232ZM83.0687 265.235C83.0687 263.442 81.8697 262.232 80.1867 262.232C78.5037 262.232 77.2607 263.475 77.2607 265.202C77.2607 266.94 78.5147 268.183 80.3957 268.183C81.3637 268.183 82.1667 267.853 82.6947 267.237L82.1117 266.555C81.6827 267.028 81.1107 267.259 80.4287 267.259C79.2737 267.259 78.4487 266.577 78.3167 265.554H83.0467C83.0577 265.455 83.0687 265.323 83.0687 265.235ZM80.1867 263.123C81.2097 263.123 81.9467 263.816 82.0567 264.795H78.3167C78.4267 263.805 79.1747 263.123 80.1867 263.123ZM87.483 267.017C87.263 267.193 86.966 267.292 86.658 267.292C86.075 267.292 85.745 266.94 85.745 266.313V263.156H87.417V262.287H85.745V261.011H84.689V262.287H83.699V263.156H84.689V266.357C84.689 267.534 85.36 268.183 86.537 268.183C87.01 268.183 87.494 268.051 87.813 267.776L87.483 267.017ZM92.2027 262.232C91.3117 262.232 90.5857 262.551 90.1457 263.112V259.955H89.0897V268.117H90.1457V265.114C90.1457 263.849 90.8717 263.178 91.9937 263.178C92.9947 263.178 93.5667 263.739 93.5667 264.883V268.117H94.6227V264.762C94.6227 263.046 93.6217 262.232 92.2027 262.232ZM97.105 261.165C97.523 261.165 97.82 260.857 97.82 260.461C97.82 260.087 97.512 259.79 97.105 259.79C96.698 259.79 96.39 260.098 96.39 260.483C96.39 260.868 96.698 261.165 97.105 261.165ZM96.577 268.117H97.633V262.287H96.577V268.117ZM102.762 262.232C101.838 262.232 101.09 262.573 100.661 263.167V262.287H99.6493V268.117H100.705V265.114C100.705 263.849 101.431 263.178 102.553 263.178C103.554 263.178 104.126 263.739 104.126 264.883V268.117H105.182V264.762C105.182 263.046 104.181 262.232 102.762 262.232ZM111.745 262.287V263.189C111.25 262.551 110.458 262.232 109.589 262.232C107.906 262.232 106.63 263.365 106.63 265.048C106.63 266.731 107.906 267.875 109.589 267.875C110.425 267.875 111.184 267.578 111.69 266.973V267.435C111.69 268.755 111.063 269.393 109.688 269.393C108.83 269.393 107.983 269.096 107.444 268.634L106.938 269.448C107.576 270.02 108.654 270.317 109.721 270.317C111.701 270.317 112.746 269.382 112.746 267.325V262.287H111.745ZM109.71 266.951C108.533 266.951 107.697 266.17 107.697 265.048C107.697 263.915 108.533 263.156 109.71 263.156C110.876 263.156 111.712 263.915 111.712 265.048C111.712 266.17 110.876 266.951 109.71 266.951ZM120.831 262.232C119.94 262.232 119.214 262.551 118.774 263.112V259.955H117.718V268.117H118.774V265.114C118.774 263.849 119.5 263.178 120.622 263.178C121.623 263.178 122.195 263.739 122.195 264.883V268.117H123.251V264.762C123.251 263.046 122.25 262.232 120.831 262.232ZM130.506 265.235C130.506 263.442 129.307 262.232 127.624 262.232C125.941 262.232 124.698 263.475 124.698 265.202C124.698 266.94 125.952 268.183 127.833 268.183C128.801 268.183 129.604 267.853 130.132 267.237L129.549 266.555C129.12 267.028 128.548 267.259 127.866 267.259C126.711 267.259 125.886 266.577 125.754 265.554H130.484C130.495 265.455 130.506 265.323 130.506 265.235ZM127.624 263.123C128.647 263.123 129.384 263.816 129.494 264.795H125.754C125.864 263.805 126.612 263.123 127.624 263.123ZM132.985 263.266V262.287H131.973V268.117H133.029V265.213C133.029 263.937 133.733 263.244 134.866 263.244C134.943 263.244 135.02 263.244 135.108 263.255V262.232C134.085 262.232 133.359 262.584 132.985 263.266ZM141.624 265.235C141.624 263.442 140.425 262.232 138.742 262.232C137.059 262.232 135.816 263.475 135.816 265.202C135.816 266.94 137.07 268.183 138.951 268.183C139.919 268.183 140.722 267.853 141.25 267.237L140.667 266.555C140.238 267.028 139.666 267.259 138.984 267.259C137.829 267.259 137.004 266.577 136.872 265.554H141.602C141.613 265.455 141.624 265.323 141.624 265.235ZM138.742 263.123C139.765 263.123 140.502 263.816 140.612 264.795H136.872C136.982 263.805 137.73 263.123 138.742 263.123ZM148.168 262.232C147.233 262.232 146.364 262.496 145.759 262.98L146.199 263.772C146.65 263.387 147.354 263.145 148.047 263.145C149.092 263.145 149.609 263.662 149.609 264.553V264.762H147.937C146.199 264.762 145.594 265.532 145.594 266.467C145.594 267.479 146.43 268.183 147.75 268.183C148.663 268.183 149.312 267.875 149.664 267.347V268.117H150.665V264.597C150.665 263.002 149.763 262.232 148.168 262.232ZM147.926 267.369C147.123 267.369 146.639 267.006 146.639 266.423C146.639 265.928 146.936 265.521 147.981 265.521H149.609V266.335C149.345 267.006 148.718 267.369 147.926 267.369ZM155.71 262.232C154.885 262.232 154.159 262.54 153.675 263.167V259.955H152.619V268.117H153.631V267.193C154.104 267.853 154.852 268.183 155.71 268.183C157.415 268.183 158.658 266.984 158.658 265.202C158.658 263.42 157.415 262.232 155.71 262.232ZM155.622 267.259C154.511 267.259 153.664 266.445 153.664 265.202C153.664 263.959 154.511 263.156 155.622 263.156C156.744 263.156 157.591 263.959 157.591 265.202C157.591 266.445 156.744 267.259 155.622 267.259ZM162.614 268.183C164.363 268.183 165.639 266.94 165.639 265.202C165.639 263.464 164.363 262.232 162.614 262.232C160.865 262.232 159.578 263.464 159.578 265.202C159.578 266.94 160.865 268.183 162.614 268.183ZM162.614 267.259C161.492 267.259 160.645 266.445 160.645 265.202C160.645 263.959 161.492 263.156 162.614 263.156C163.736 263.156 164.572 263.959 164.572 265.202C164.572 266.445 163.736 267.259 162.614 267.259ZM171.477 262.287V265.301C171.477 266.555 170.773 267.237 169.673 267.237C168.672 267.237 168.1 266.665 168.1 265.521V262.287H167.044V265.642C167.044 267.358 168.045 268.183 169.552 268.183C170.377 268.183 171.103 267.842 171.532 267.237V268.117H172.533V262.287H171.477ZM177.492 267.017C177.272 267.193 176.975 267.292 176.667 267.292C176.084 267.292 175.754 266.94 175.754 266.313V263.156H177.426V262.287H175.754V261.011H174.698V262.287H173.708V263.156H174.698V266.357C174.698 267.534 175.369 268.183 176.546 268.183C177.019 268.183 177.503 268.051 177.822 267.776L177.492 267.017ZM63.136 281.183C64.885 281.183 66.161 279.94 66.161 278.202C66.161 276.464 64.885 275.232 63.136 275.232C61.387 275.232 60.1 276.464 60.1 278.202C60.1 279.94 61.387 281.183 63.136 281.183ZM63.136 280.259C62.014 280.259 61.167 279.445 61.167 278.202C61.167 276.959 62.014 276.156 63.136 276.156C64.258 276.156 65.094 276.959 65.094 278.202C65.094 279.445 64.258 280.259 63.136 280.259ZM71.9995 275.287V278.301C71.9995 279.555 71.2955 280.237 70.1955 280.237C69.1945 280.237 68.6225 279.665 68.6225 278.521V275.287H67.5665V278.642C67.5665 280.358 68.5675 281.183 70.0745 281.183C70.8995 281.183 71.6255 280.842 72.0545 280.237V281.117H73.0555V275.287H71.9995ZM76.0778 276.266V275.287H75.0658V281.117H76.1218V278.213C76.1218 276.937 76.8258 276.244 77.9588 276.244C78.0358 276.244 78.1128 276.244 78.2008 276.255V275.232C77.1778 275.232 76.4518 275.584 76.0778 276.266ZM85.4796 280.017C85.2596 280.193 84.9626 280.292 84.6546 280.292C84.0716 280.292 83.7416 279.94 83.7416 279.313V276.156H85.4136V275.287H83.7416V274.011H82.6856V275.287H81.6956V276.156H82.6856V279.357C82.6856 280.534 83.3566 281.183 84.5336 281.183C85.0066 281.183 85.4906 281.051 85.8096 280.776L85.4796 280.017ZM88.0983 276.266V275.287H87.0863V281.117H88.1423V278.213C88.1423 276.937 88.8463 276.244 89.9793 276.244C90.0563 276.244 90.1333 276.244 90.2213 276.255V275.232C89.1983 275.232 88.4723 275.584 88.0983 276.266ZM95.976 275.287V278.301C95.976 279.555 95.272 280.237 94.172 280.237C93.171 280.237 92.599 279.665 92.599 278.521V275.287H91.543V278.642C91.543 280.358 92.544 281.183 94.051 281.183C94.876 281.183 95.602 280.842 96.031 280.237V281.117H97.032V275.287H95.976ZM100.714 281.183C102.265 281.183 103.233 280.512 103.233 279.456C103.233 277.19 99.5374 278.312 99.5374 276.937C99.5374 276.475 99.9884 276.134 100.912 276.134C101.484 276.134 102.067 276.255 102.595 276.596L103.046 275.76C102.54 275.43 101.682 275.232 100.923 275.232C99.4274 275.232 98.4924 275.936 98.4924 276.981C98.4924 279.302 102.177 278.169 102.177 279.478C102.177 279.973 101.77 280.27 100.791 280.27C100.032 280.27 99.2404 280.017 98.7454 279.665L98.3054 280.501C98.7894 280.886 99.7464 281.183 100.714 281.183ZM107.501 280.017C107.281 280.193 106.984 280.292 106.676 280.292C106.093 280.292 105.763 279.94 105.763 279.313V276.156H107.435V275.287H105.763V274.011H104.707V275.287H103.717V276.156H104.707V279.357C104.707 280.534 105.378 281.183 106.555 281.183C107.028 281.183 107.512 281.051 107.831 280.776L107.501 280.017ZM116.876 275.287L115.138 279.951L113.411 275.287H112.52L110.76 279.929L109.066 275.287H108.065L110.232 281.117H111.244L112.949 276.695L114.632 281.117H115.644L117.822 275.287H116.876ZM121.23 281.183C122.979 281.183 124.255 279.94 124.255 278.202C124.255 276.464 122.979 275.232 121.23 275.232C119.481 275.232 118.194 276.464 118.194 278.202C118.194 279.94 119.481 281.183 121.23 281.183ZM121.23 280.259C120.108 280.259 119.261 279.445 119.261 278.202C119.261 276.959 120.108 276.156 121.23 276.156C122.352 276.156 123.188 276.959 123.188 278.202C123.188 279.445 122.352 280.259 121.23 280.259ZM126.727 276.266V275.287H125.715V281.117H126.771V278.213C126.771 276.937 127.475 276.244 128.608 276.244C128.685 276.244 128.762 276.244 128.85 276.255V275.232C127.827 275.232 127.101 275.584 126.727 276.266ZM133.336 280.017C133.116 280.193 132.819 280.292 132.511 280.292C131.928 280.292 131.598 279.94 131.598 279.313V276.156H133.27V275.287H131.598V274.011H130.542V275.287H129.552V276.156H130.542V279.357C130.542 280.534 131.213 281.183 132.39 281.183C132.863 281.183 133.347 281.051 133.666 280.776L133.336 280.017ZM138.056 275.232C137.165 275.232 136.439 275.551 135.999 276.112V272.955H134.943V281.117H135.999V278.114C135.999 276.849 136.725 276.178 137.847 276.178C138.848 276.178 139.42 276.739 139.42 277.883V281.117H140.476V277.762C140.476 276.046 139.475 275.232 138.056 275.232ZM146.448 275.287L144.435 279.951L142.4 275.287H141.3L143.874 281.106L143.687 281.513C143.401 282.184 143.082 282.415 142.576 282.415C142.18 282.415 141.817 282.261 141.531 281.986L141.08 282.778C141.443 283.13 142.015 283.317 142.576 283.317C143.467 283.317 144.138 282.932 144.655 281.7L147.482 275.287H146.448ZM151.58 275.232C150.656 275.232 149.908 275.573 149.479 276.167V275.287H148.467V281.117H149.523V278.114C149.523 276.849 150.249 276.178 151.371 276.178C152.372 276.178 152.944 276.739 152.944 277.883V281.117H154V277.762C154 276.046 152.999 275.232 151.58 275.232ZM161.256 278.235C161.256 276.442 160.057 275.232 158.374 275.232C156.691 275.232 155.448 276.475 155.448 278.202C155.448 279.94 156.702 281.183 158.583 281.183C159.551 281.183 160.354 280.853 160.882 280.237L160.299 279.555C159.87 280.028 159.298 280.259 158.616 280.259C157.461 280.259 156.636 279.577 156.504 278.554H161.234C161.245 278.455 161.256 278.323 161.256 278.235ZM158.374 276.123C159.397 276.123 160.134 276.816 160.244 277.795H156.504C156.614 276.805 157.362 276.123 158.374 276.123ZM164.394 281.183C165.945 281.183 166.913 280.512 166.913 279.456C166.913 277.19 163.217 278.312 163.217 276.937C163.217 276.475 163.668 276.134 164.592 276.134C165.164 276.134 165.747 276.255 166.275 276.596L166.726 275.76C166.22 275.43 165.362 275.232 164.603 275.232C163.107 275.232 162.172 275.936 162.172 276.981C162.172 279.302 165.857 278.169 165.857 279.478C165.857 279.973 165.45 280.27 164.471 280.27C163.712 280.27 162.92 280.017 162.425 279.665L161.985 280.501C162.469 280.886 163.426 281.183 164.394 281.183ZM169.905 281.183C171.456 281.183 172.424 280.512 172.424 279.456C172.424 277.19 168.728 278.312 168.728 276.937C168.728 276.475 169.179 276.134 170.103 276.134C170.675 276.134 171.258 276.255 171.786 276.596L172.237 275.76C171.731 275.43 170.873 275.232 170.114 275.232C168.618 275.232 167.683 275.936 167.683 276.981C167.683 279.302 171.368 278.169 171.368 279.478C171.368 279.973 170.961 280.27 169.982 280.27C169.223 280.27 168.431 280.017 167.936 279.665L167.496 280.501C167.98 280.886 168.937 281.183 169.905 281.183Z" fill="#0F3C78"/>
<path d="M106.992 187.4C102.742 187.4 98.5246 187.065 94.3705 186.382C92.0447 185.999 88.206 185.333 83.5217 183.898L134.302 182.911C125.359 185.857 116.115 187.4 106.992 187.4V187.4ZM172.755 159.043L167.892 56.94H185.148C185.73 56.94 186.203 56.4352 186.203 55.812V50.5938V38.9534C186.955 40.0808 187.705 41.2633 188.445 42.5004C202.922 66.7026 204.166 100.421 193.367 127.606C188.551 139.726 181.407 150.298 172.755 159.043V159.043ZM31.0402 117.03C27.343 93.3668 31.3288 67.5244 44.093 46.4741C47.149 41.4343 50.6374 36.7862 54.4736 32.5527C54.4346 32.9525 54.4146 33.3577 54.4146 33.7683V71.6118C52.1149 64.1255 50.5422 57.2617 49.7038 53.2665C49.6071 52.8062 49.2806 52.576 48.9538 52.576C48.626 52.576 48.2979 52.8075 48.2008 53.2692C44.5971 70.4131 43.1529 85.0284 43.2363 97.4751C40.022 88.6252 37.8743 79.8849 36.8406 75.2591C36.7453 74.833 36.4364 74.621 36.1271 74.621C35.8114 74.621 35.4955 74.8418 35.4059 75.2786C32.0791 91.5126 30.8294 105.312 31.0402 117.03V117.03ZM79.3077 22.2086H74.0455C71.1675 21.8439 68.7203 21.51 66.7949 21.2374C82.1901 9.50281 100.738 3.08797 118.833 3.08797C119.531 3.08797 120.226 3.09741 120.922 3.11625C126.078 3.25759 143.243 4.00062 160.922 14.6106H139.7V14.7237V20.5126L131.516 20.5132L131.386 18.1993C131.298 16.6277 130.106 15.3853 128.634 15.3314L95.4597 14.1166C95.425 14.1152 95.391 14.1145 95.3571 14.1145C93.7434 14.1145 92.4231 15.5145 92.4231 17.253V20.5139L82.0283 20.5146C80.866 20.5146 79.8467 21.1944 79.3077 22.2086Z" fill="#FEFEFF"/>
<path d="M54.4184 175.04C44.3177 167.208 31.65 150.704 31.0441 117.03C30.8333 105.312 32.083 91.5124 35.4098 75.2784C35.4994 74.8416 35.8153 74.6208 36.1309 74.6208C36.4403 74.6208 36.7492 74.8328 36.8445 75.2589C37.8782 79.8847 40.0259 88.625 43.2401 97.4749C43.3868 119.367 48.2588 134.556 54.4184 145.029V153.734C54.2177 153.258 54.0188 152.781 53.8213 152.304C52.4087 148.885 51.1155 145.4 49.8909 141.885C48.6674 138.367 47.5703 134.793 46.4909 131.213C44.3578 124.039 42.5568 116.737 40.9307 109.385C40.1243 105.706 39.382 102.009 38.6965 98.2967C38.3512 96.4411 38.0206 94.5821 37.71 92.7178L37.2632 89.9186L37.0522 88.5166L36.9535 87.8153C36.9244 87.5851 36.8897 87.3381 36.8715 87.1355L36.8685 87.1019C36.8616 87.0251 36.8058 86.9686 36.7408 86.9686C36.7364 86.9686 36.7319 86.9686 36.7274 86.9693C36.6589 86.9773 36.6087 87.0467 36.6124 87.1254C36.6257 87.3966 36.6553 87.6194 36.6781 87.8597L36.7586 88.5684L36.9331 89.9812C37.0548 90.9221 37.1891 91.8603 37.3233 92.7985C37.5977 94.6743 37.8922 96.5454 38.2015 98.4131C38.8262 102.149 39.5382 105.863 40.2983 109.565C41.0539 113.269 41.8991 116.947 42.8113 120.604C43.7262 124.26 44.6863 127.901 45.7493 131.505C47.8628 138.715 50.3173 145.799 53.1945 152.655C53.5961 153.586 54.0035 154.515 54.4184 155.439V175.04" fill="url(#paint0_linear)"/>
<path d="M54.4137 155.439C53.9987 154.515 53.5913 153.586 53.1897 152.655C50.3125 145.799 47.858 138.715 45.7445 131.505C44.6815 127.902 43.7214 124.26 42.8065 120.604C41.8943 116.947 41.0491 113.269 40.2935 109.565C39.5334 105.863 38.8214 102.149 38.1967 98.4132C37.8874 96.5455 37.5929 94.6744 37.3186 92.7987C37.1843 91.8604 37.05 90.9222 36.9283 89.9813L36.7539 88.5685L36.6733 87.8598C36.6506 87.6195 36.621 87.3968 36.6076 87.1255C36.6039 87.0468 36.6541 86.9775 36.7226 86.9694C36.7271 86.9687 36.7316 86.9687 36.7361 86.9687C36.801 86.9687 36.8568 87.0252 36.8637 87.102L36.8667 87.1356C36.885 87.3382 36.9196 87.5852 36.9487 87.8154L37.0474 88.5167L37.2584 89.9187L37.7053 92.7179C38.0159 94.5822 38.3465 96.4412 38.6917 98.2968C39.3772 102.009 40.1196 105.706 40.9259 109.385C42.5521 116.737 44.353 124.04 46.4861 131.213C47.5655 134.793 48.6626 138.367 49.8862 141.885C51.1107 145.4 52.404 148.885 53.8165 152.304C54.014 152.782 54.2129 153.258 54.4137 153.734V155.439" fill="url(#paint1_linear)"/>
<path d="M54.4141 145.029C48.2545 134.556 43.3825 119.367 43.2358 97.4749C43.1525 85.0282 44.5967 70.413 48.2003 53.2691C48.2974 52.8073 48.6256 52.5758 48.9533 52.5758C49.2802 52.5758 49.6067 52.806 49.7033 53.2664C50.5418 57.2616 52.1144 64.1253 54.4141 71.6117V93.2785C54.1622 92.1094 53.9148 90.9396 53.6715 89.7685C52.8607 85.8292 52.1173 81.8696 51.4333 77.8966C51.0886 75.9104 50.7592 73.9202 50.4509 71.9253L50.0084 68.9296L49.8001 67.43L49.7031 66.6796C49.6748 66.4332 49.6407 66.1687 49.6234 65.9527L49.6204 65.9163C49.6137 65.8322 49.5541 65.7696 49.4842 65.7696C49.4799 65.7696 49.4755 65.7696 49.4711 65.7703C49.3981 65.7784 49.3439 65.8531 49.3471 65.9385C49.3585 66.2293 49.3874 66.4669 49.409 66.7247L49.4865 67.4818L49.6557 68.9935C49.7742 70.0004 49.9059 71.0039 50.0377 72.0081C50.3073 74.0151 50.5979 76.0175 50.9042 78.0171C51.523 82.015 52.2339 85.992 52.9951 89.9563C53.4375 92.275 53.912 94.5849 54.4141 96.8867V145.029" fill="url(#paint2_linear)"/>
<path d="M54.4129 96.887C53.9107 94.5851 53.4362 92.2752 52.9938 89.9566C52.2327 85.9923 51.5218 82.0153 50.9029 78.0173C50.5966 76.0177 50.3061 74.0154 50.0365 72.0083C49.9047 71.0042 49.773 70.0006 49.6544 68.9938L49.4852 67.4821L49.4077 66.7249C49.3861 66.4671 49.3572 66.2296 49.3458 65.9388C49.3426 65.8533 49.3968 65.7786 49.4699 65.7705C49.4743 65.7699 49.4786 65.7698 49.483 65.7698C49.5529 65.7698 49.6125 65.8324 49.6191 65.9166L49.6221 65.9529C49.6394 66.169 49.6735 66.4335 49.7019 66.6798L49.7988 67.4303L50.0072 68.9298L50.4497 71.9256C50.758 73.9205 51.0873 75.9107 51.432 77.8969C52.116 81.8699 52.8594 85.8294 53.6702 89.7688C53.9135 90.9399 54.161 92.1097 54.4129 93.2787V96.887Z" fill="url(#paint3_linear)"/>
<path d="M61.0819 184.333C57.4084 184.333 54.416 181.148 54.416 177.205V175.04V155.439V153.734V145.029V96.8871V93.2789V71.612V33.7685C54.416 33.358 54.436 32.9528 54.4751 32.553C54.9444 27.7488 58.1673 23.8195 62.4263 22.6013C62.1222 23.1202 61.9459 23.7367 61.9497 24.4024L62.777 174.765C62.7851 176.208 63.8038 177.416 65.1462 177.566C70.5299 178.169 78.2779 178.406 87.1421 178.406C114.596 178.406 152.708 176.132 164.059 175.414C165.894 175.298 167.296 173.619 167.199 171.657L161.496 56.9403H167.894L172.757 159.043L173.488 174.393C173.69 178.632 170.568 182.207 166.599 182.284L134.304 182.912L83.5232 183.898L61.2056 184.332C61.1644 184.332 61.123 184.333 61.0819 184.333V184.333ZM79.0567 22.8207C77.2705 22.6107 75.597 22.4054 74.0469 22.2089H79.3092C79.2072 22.4014 79.1222 22.6067 79.0567 22.8207" fill="url(#paint4_linear)"/>
<path d="M76.61 181.908H76.6062L64.8136 181.746C60.8702 181.691 57.6621 178.217 57.6621 174.001V154.968C57.6621 154.819 57.7748 154.698 57.9138 154.698C58.0528 154.698 58.1656 154.819 58.1656 154.968V174.001C58.1656 177.924 61.1506 181.157 64.8199 181.208L76.6125 181.371C76.7516 181.372 76.8631 181.495 76.8612 181.643C76.8593 181.791 76.7472 181.908 76.61 181.908" fill="url(#paint5_linear)"/>
<path d="M57.9138 149.341C57.7748 149.341 57.6621 149.22 57.6621 149.072V145.99C57.6621 145.841 57.7748 145.72 57.9138 145.72C58.0528 145.72 58.1656 145.841 58.1656 145.99V149.072C58.1656 149.22 58.0528 149.341 57.9138 149.341Z" fill="url(#paint6_linear)"/>
<path d="M87.1418 178.406C78.2775 178.406 70.5296 178.169 65.1458 177.566C63.8035 177.416 62.7848 176.208 62.7766 174.765L61.9493 24.402C61.9455 23.7363 62.1218 23.1198 62.4259 22.6009C62.9844 21.6478 63.976 21.0219 65.0835 21.0219C65.2245 21.0219 65.3674 21.0327 65.5116 21.0535C65.9095 21.1107 66.3383 21.1727 66.796 21.2373C68.7213 21.5099 71.1686 21.8437 74.0466 22.2085C75.5966 22.405 77.2701 22.6103 79.0563 22.8203C78.972 23.0976 78.9203 23.391 78.9071 23.6953L78.7881 26.3363C73.6361 25.7198 69.5266 25.1538 66.8564 24.7667C66.7179 24.7466 66.5807 24.7371 66.4447 24.7371C64.7976 24.7371 63.4181 26.1734 63.4282 27.9893L64.2247 172.69C64.2322 174.079 65.2132 175.241 66.5051 175.386C71.6855 175.966 79.142 176.194 87.6725 176.194C114.092 176.194 150.769 174.005 161.692 173.315C163.459 173.203 164.808 171.588 164.714 169.699L159.108 56.9399H161.495L167.198 171.656C167.296 173.619 165.894 175.298 164.058 175.413C152.708 176.132 114.595 178.406 87.1418 178.406V178.406ZM129.954 29.8954C127.573 29.8691 125.198 29.8187 122.841 29.748C122.819 29.5743 122.793 29.3994 122.765 29.225H130.38C130.23 29.4431 130.088 29.6665 129.954 29.8954" fill="url(#paint7_linear)"/>
<path d="M87.6721 176.194C79.1415 176.194 71.6851 175.966 66.5047 175.386C65.2127 175.241 64.2318 174.079 64.2242 172.69L63.4278 27.9893C63.4177 26.1734 64.7972 24.7371 66.4442 24.7371C66.5802 24.7371 66.7175 24.7466 66.856 24.7668C69.5262 25.1538 73.6356 25.7198 78.7877 26.3363L78.7783 26.5429C78.7128 28.0035 79.8026 29.225 81.1695 29.225H96.1945C95.8677 31.2361 95.9376 33.3542 96.4709 35.4541C96.6314 36.0881 96.8297 36.7006 97.0621 37.2902L76.5457 36.5229C76.5236 36.5222 76.501 36.5216 76.4789 36.5216C75.4193 36.5216 74.5656 37.4692 74.6147 38.6107L75.8984 68.1461C75.9412 69.1281 76.6835 69.9095 77.6028 69.9371C80.9088 70.0367 88.7349 70.2454 96.2876 70.2454C100.425 70.2454 104.481 70.1828 107.667 70.0051C108.685 69.9486 109.491 69.0682 109.525 67.9785C109.654 63.8272 109.897 53.7301 109.513 46.095C110.669 46.0917 111.842 45.9274 113.01 45.5889C115.671 44.8169 117.929 43.2453 119.618 41.1818H129.804C131.622 44.4884 134.968 46.5352 138.557 46.5352C138.937 46.5352 139.318 46.5123 139.701 46.4659V48.1808L134.404 48.0799C132.086 46.3111 129.274 45.3109 126.344 45.3109C125.143 45.3109 123.92 45.4792 122.705 45.8319C121.231 46.2593 119.877 46.9256 118.67 47.7803L116.96 47.7474C116.953 47.7474 116.947 47.7474 116.941 47.7474C116.417 47.7474 116.133 48.1774 116.309 48.7118L116.536 49.401C116.555 49.4589 116.579 49.5155 116.606 49.5707C113.156 53.2058 111.59 58.6709 112.949 64.025C114.625 70.629 120.22 74.9749 126.328 74.9749C127.53 74.9749 128.752 74.8066 129.968 74.454C136.049 72.6906 140.083 66.868 140.208 60.4599H150.384C150.921 60.4599 151.347 60.0137 151.332 59.4692C151.317 58.924 150.866 58.4697 150.331 58.4596L140.098 58.2644C140.017 57.5974 139.893 56.9284 139.724 56.2608C139.153 54.0128 138.128 52.0259 136.784 50.3837H139.701V55.8118C139.701 56.4351 140.173 56.9399 140.756 56.9399H159.108L164.714 169.698C164.808 171.588 163.459 173.203 161.692 173.315C150.769 174.005 114.092 176.194 87.6721 176.194ZM115.915 157.059C115.229 157.059 114.729 158.139 114.904 159.243C115.025 160.008 115.441 160.54 115.916 160.54C115.918 160.54 115.921 160.54 115.924 160.54L154.919 159.986C155.36 159.98 155.713 159.375 155.703 158.642C155.694 157.929 155.344 157.357 154.915 157.354L115.92 157.059C115.919 157.059 115.917 157.059 115.915 157.059V157.059ZM83.3152 137.992C83.3064 137.992 83.2976 137.992 83.2888 137.992C82.0742 138.009 79.916 138.205 78.1814 138.363C77.3579 138.438 76.5797 138.509 76.0275 138.549C75.6315 138.578 75.2657 138.771 75.0239 139.079C74.8079 139.353 74.7078 139.695 74.7412 140.04L75.3179 145.922C75.4067 146.826 76.1799 147.515 77.1167 147.524L83.6741 147.592C83.6804 147.592 83.6867 147.592 83.6923 147.592C84.599 147.592 85.3507 146.879 85.3715 145.994C85.4364 143.271 85.4666 140.716 85.1247 139.366C84.9194 138.554 84.1778 137.992 83.3152 137.992V137.992ZM91.026 141.501C89.9588 141.501 89.1794 142.581 89.452 143.686C89.6409 144.45 90.2875 144.983 91.026 144.983C91.031 144.983 91.0354 144.983 91.0405 144.983L151.713 144.43C152.4 144.423 152.949 143.818 152.934 143.085C152.919 142.371 152.376 141.801 151.708 141.797L91.0336 141.501C91.031 141.501 91.0285 141.501 91.026 141.501V141.501ZM83.3152 122.968C83.3064 122.968 83.2976 122.968 83.2888 122.968C82.0742 122.985 79.916 123.181 78.1814 123.339C77.3579 123.414 76.5797 123.485 76.0275 123.525C75.6315 123.554 75.2657 123.747 75.0239 124.054C74.8079 124.329 74.7078 124.67 74.7412 125.015L75.3179 130.897C75.4067 131.801 76.1799 132.49 77.1167 132.5L83.6741 132.567C83.6804 132.567 83.6867 132.567 83.6923 132.567C84.599 132.567 85.3507 131.854 85.3715 130.97C85.4364 128.247 85.4666 125.691 85.1247 124.341C84.9194 123.529 84.1778 122.968 83.3152 122.968V122.968ZM91.026 126.477C89.9588 126.477 89.1794 127.558 89.452 128.662C89.6409 129.427 90.2875 129.958 91.026 129.958C91.031 129.958 91.0354 129.958 91.0405 129.958L151.713 129.405C152.4 129.399 152.949 128.794 152.934 128.06C152.919 127.347 152.376 126.776 151.708 126.773L91.0336 126.477C91.031 126.477 91.0285 126.477 91.026 126.477V126.477ZM83.2995 107.944C83.2963 107.944 83.2925 107.944 83.2888 107.944C82.0742 107.96 79.916 108.157 78.1814 108.315C77.3579 108.39 76.5797 108.46 76.0275 108.501C75.6315 108.53 75.2657 108.723 75.0239 109.03C74.8079 109.305 74.7078 109.646 74.7412 109.991L75.3179 115.873C75.4067 116.777 76.1799 117.466 77.1167 117.476L83.6741 117.543C83.6804 117.543 83.6867 117.543 83.6923 117.543C84.599 117.543 85.3507 116.83 85.3715 115.945C85.4364 113.223 85.4666 110.667 85.1247 109.317C84.9182 108.5 84.1759 107.944 83.2995 107.944V107.944ZM91.026 111.453C89.9588 111.453 89.1794 112.533 89.452 113.638C89.6409 114.402 90.2875 114.934 91.026 114.934C91.031 114.934 91.0354 114.935 91.0405 114.934L151.713 114.381C152.4 114.375 152.949 113.77 152.934 113.037C152.919 112.323 152.376 111.752 151.708 111.749L91.0336 111.453C91.031 111.453 91.0285 111.453 91.026 111.453V111.453ZM82.8707 92.5475C82.8676 92.5475 82.8638 92.5475 82.86 92.5475C81.6455 92.5637 79.4866 92.7602 77.7526 92.9177C76.9285 92.9931 76.1509 93.0638 75.5981 93.1041C75.2021 93.1331 74.8363 93.3263 74.5951 93.6332C74.3792 93.9078 74.2784 94.249 74.3124 94.5943L74.8892 100.476C74.9779 101.38 75.7511 102.069 76.688 102.079L83.2453 102.146C83.2516 102.146 83.2573 102.146 83.2636 102.146C84.1702 102.146 84.922 101.433 84.9427 100.549C85.0076 97.8263 85.0378 95.2707 84.6959 93.9206C84.4894 93.1035 83.7471 92.5475 82.8707 92.5475ZM90.5972 96.0561C89.5301 96.0561 88.7506 97.1364 89.0232 98.2409C89.2115 99.0054 89.8587 99.5372 90.5972 99.5372C90.6017 99.5372 90.6067 99.5372 90.6111 99.5372L151.284 98.9846C151.971 98.9778 152.52 98.3728 152.505 97.6392C152.49 96.9264 151.947 96.355 151.279 96.3523L90.6048 96.0561C90.6023 96.0561 90.5998 96.0561 90.5972 96.0561V96.0561ZM75.5704 76.5667C75.0422 76.5667 74.881 76.9281 75.2128 77.3736L75.9759 78.398C76.3102 78.8463 77.0216 79.2131 77.5574 79.2131H153.606C154.142 79.2131 154.553 78.7669 154.519 78.2224C154.485 77.6772 154.019 77.2276 153.483 77.2229L75.5805 76.5667C75.5773 76.5667 75.5742 76.5667 75.5704 76.5667V76.5667ZM83.6923 147.053H83.6791L77.1218 146.986C76.4411 146.979 75.8808 146.497 75.8185 145.865L75.2424 139.983C75.2229 139.785 75.282 139.586 75.4092 139.425C75.5635 139.229 75.8015 139.105 76.0615 139.086C76.6181 139.046 77.3982 138.974 78.2242 138.9C79.9506 138.742 82.0988 138.546 83.2951 138.531C83.3045 138.53 83.3139 138.53 83.3234 138.53C83.9442 138.53 84.4957 138.941 84.6386 139.506C84.9629 140.786 84.932 143.299 84.8684 145.98C84.854 146.575 84.3276 147.053 83.6923 147.053ZM82.5767 139.248C82.571 139.248 82.5647 139.248 82.559 139.249C81.1387 139.268 78.1449 139.593 76.7673 139.693C76.2567 139.731 75.8783 140.161 75.9261 140.648L76.3864 145.348C76.4468 145.959 76.9814 146.429 77.6261 146.436L82.8663 146.49C82.8707 146.49 82.8745 146.49 82.8789 146.49C83.499 146.49 84.0053 146.015 84.0197 145.422C84.067 143.429 84.1035 141.27 83.8296 140.187C83.6898 139.635 83.171 139.248 82.5767 139.248ZM83.6923 132.029H83.6791L77.1218 131.961C76.4411 131.955 75.8808 131.473 75.8185 130.841L75.2424 124.959C75.2229 124.761 75.282 124.562 75.4092 124.401C75.5635 124.204 75.8015 124.081 76.0615 124.062C76.6181 124.021 77.3982 123.951 78.2242 123.875C79.9506 123.718 82.0988 123.523 83.2951 123.506C83.3032 123.506 83.3114 123.506 83.319 123.506C83.9417 123.506 84.4957 123.916 84.6386 124.482C84.9629 125.762 84.932 128.275 84.8684 130.956C84.854 131.55 84.3276 132.029 83.6923 132.029V132.029ZM82.5773 124.225C82.571 124.225 82.5647 124.225 82.559 124.225C81.1387 124.243 78.1449 124.569 76.7673 124.669C76.2567 124.707 75.8783 125.137 75.9261 125.623L76.3864 130.323C76.4468 130.935 76.9814 131.405 77.6261 131.411L82.8663 131.465C82.8707 131.465 82.8745 131.465 82.8789 131.465C83.499 131.465 84.0053 130.991 84.0197 130.398C84.067 128.406 84.1035 126.246 83.8296 125.163C83.6898 124.611 83.171 124.225 82.5773 124.225V124.225ZM83.6923 117.005H83.6791L77.1218 116.937C76.4411 116.93 75.8808 116.448 75.8185 115.817L75.2424 109.935C75.2229 109.737 75.282 109.538 75.4092 109.376C75.5635 109.181 75.8015 109.057 76.0615 109.038C76.6181 108.998 77.3982 108.926 78.2242 108.851C79.9506 108.694 82.0988 108.498 83.2951 108.483C83.9354 108.485 84.4938 108.884 84.6386 109.457C84.9629 110.738 84.932 113.251 84.8684 115.932C84.854 116.526 84.3276 117.005 83.6923 117.005ZM82.5773 109.2C82.571 109.2 82.5647 109.2 82.559 109.201C81.1387 109.22 78.1449 109.544 76.7673 109.645C76.2567 109.682 75.8783 110.113 75.9261 110.599L76.3864 115.299C76.4468 115.911 76.9814 116.381 77.6261 116.388L82.8663 116.441C82.8707 116.441 82.8745 116.441 82.8789 116.441C83.499 116.441 84.0053 115.967 84.0197 115.374C84.067 113.381 84.1035 111.222 83.8296 110.139C83.6898 109.586 83.171 109.2 82.5773 109.2ZM83.2636 101.608H83.2504L76.693 101.541C76.0118 101.533 75.452 101.052 75.3897 100.42L74.8136 94.5384C74.7941 94.3399 74.8533 94.1413 74.9805 93.9798C75.1347 93.7839 75.3721 93.6601 75.6327 93.6412C76.1893 93.6002 76.9694 93.5295 77.7954 93.4541C79.5212 93.2973 81.67 93.1014 82.8663 93.0853C83.5066 93.088 84.0651 93.4871 84.2099 94.0605C84.5341 95.3414 84.5033 97.8539 84.4391 100.535C84.4252 101.13 83.8988 101.608 83.2636 101.608V101.608ZM82.1479 93.8034C82.1422 93.8034 82.1359 93.8034 82.1297 93.8034C80.7099 93.8223 77.7155 94.1474 76.3379 94.2483C75.8273 94.2853 75.4495 94.7161 75.4967 95.202L75.9576 99.9026C76.0174 100.514 76.5526 100.984 77.1973 100.99L82.4375 101.044C82.4413 101.044 82.4457 101.044 82.4501 101.044C83.0703 101.044 83.5765 100.57 83.5903 99.9773C83.6382 97.9844 83.6747 95.8253 83.4002 94.7424C83.2604 94.1898 82.7423 93.8034 82.1479 93.8034ZM128.824 38.7722L121.291 38.6282C122.651 35.9865 123.242 32.8878 122.841 29.748C125.198 29.8187 127.573 29.8692 129.953 29.8954C128.5 32.3736 127.982 35.4669 128.755 38.5125C128.777 38.5993 128.8 38.6861 128.824 38.7722" fill="url(#paint8_linear)"/>
<path d="M96.2902 70.2456C88.7375 70.2456 80.9114 70.037 77.6054 69.9374C76.6861 69.9098 75.9438 69.1284 75.901 68.1464L74.6173 38.611C74.5681 37.4695 75.4219 36.5218 76.4815 36.5218C76.5036 36.5218 76.5262 36.5225 76.5483 36.5232L97.0646 37.2904C99.1814 42.6654 104.126 46.0953 109.475 46.0953C109.489 46.0953 109.503 46.0953 109.516 46.0953C109.899 53.7303 109.656 63.8274 109.527 67.9788C109.494 69.0685 108.688 69.9488 107.67 70.0053C104.483 70.183 100.428 70.2456 96.2902 70.2456V70.2456ZM90.6187 39.0451C89.9476 39.0451 89.2651 39.1386 88.587 39.3358C84.4593 40.5325 82.0208 45.0796 83.1409 49.4921C84.0765 53.1791 87.1993 55.6048 90.6093 55.6048C91.2804 55.6048 91.9629 55.5105 92.6416 55.314C96.7687 54.1173 99.2072 49.5695 98.0877 45.1577C97.1522 41.4707 94.0287 39.0451 90.6187 39.0451Z" fill="url(#paint9_linear)"/>
<path d="M129.804 41.1816H119.619C120.262 40.3962 120.823 39.5394 121.292 38.6281L128.825 38.7721C129.064 39.633 129.396 40.4393 129.804 41.1816Z" fill="url(#paint10_linear)"/>
<path d="M139.698 50.3838H136.781C136.071 49.5156 135.271 48.7436 134.401 48.08L139.698 48.1809V50.3838ZM116.604 49.5708C116.576 49.5156 116.552 49.459 116.533 49.4011L116.306 48.712C116.13 48.1776 116.414 47.7475 116.939 47.7475C116.944 47.7475 116.951 47.7475 116.957 47.7475L118.668 47.7805C117.921 48.3088 117.231 48.9098 116.604 49.5708" fill="url(#paint11_linear)"/>
<path d="M150.384 60.4602H140.208C140.222 59.734 140.186 59.001 140.098 58.2647L150.331 58.4599C150.866 58.47 151.317 58.9243 151.332 59.4695C151.347 60.014 150.921 60.4602 150.384 60.4602Z" fill="url(#paint12_linear)"/>
<path d="M153.607 79.2129H77.5583C77.0225 79.2129 76.311 78.8461 75.9767 78.3978L75.2136 77.3735C74.8818 76.9279 75.043 76.5665 75.5713 76.5665C75.575 76.5665 75.5782 76.5665 75.5813 76.5665L153.484 77.2227C154.02 77.2274 154.486 77.677 154.52 78.2222C154.554 78.7667 154.143 79.2129 153.607 79.2129Z" fill="url(#paint13_linear)"/>
<path d="M82.8787 116.442C82.8743 116.442 82.8705 116.442 82.8661 116.441L77.6259 116.388C76.9812 116.381 76.4466 115.911 76.3862 115.299L75.926 110.599C75.8781 110.113 76.2565 109.682 76.7671 109.645C78.1447 109.544 81.1385 109.22 82.5589 109.201C82.5645 109.2 82.5708 109.2 82.5771 109.2C83.1708 109.2 83.6896 109.587 83.8294 110.139C84.1033 111.222 84.0668 113.381 84.0196 115.374C84.0051 115.967 83.4989 116.442 82.8787 116.442Z" fill="url(#paint14_linear)"/>
<path d="M91.0253 114.935C90.2867 114.934 89.6401 114.402 89.4513 113.638C89.1786 112.533 89.9581 111.453 91.0253 111.453C91.0278 111.453 91.0303 111.453 91.0328 111.453L151.707 111.749C152.375 111.753 152.918 112.323 152.933 113.037C152.948 113.77 152.399 114.376 151.713 114.382L91.0398 114.934C91.0347 114.935 91.0303 114.935 91.0253 114.935" fill="url(#paint15_linear)"/>
<path d="M82.4515 101.044C82.4471 101.044 82.4427 101.044 82.4389 101.044L77.1987 100.99C76.554 100.984 76.0188 100.514 75.959 99.9025L75.4981 95.2019C75.4509 94.7159 75.8287 94.2852 76.3393 94.2481C77.7169 94.1472 80.7113 93.8221 82.131 93.8033C82.1373 93.8033 82.1436 93.8033 82.1493 93.8033C82.7437 93.8033 83.2618 94.1896 83.4016 94.7422C83.6761 95.8251 83.6396 97.9842 83.5917 99.9772C83.5779 100.57 83.0717 101.044 82.4515 101.044Z" fill="url(#paint16_linear)"/>
<path d="M90.5956 99.5371C89.8571 99.5371 89.2098 99.0054 89.0216 98.2408C88.749 97.1363 89.5284 96.0561 90.5956 96.0561C90.5981 96.0561 90.6006 96.0561 90.6031 96.0561L151.278 96.3522C151.945 96.3549 152.488 96.9263 152.503 97.6391C152.518 98.3727 151.969 98.9778 151.283 98.9845L90.6094 99.5371C90.605 99.5371 90.6 99.5371 90.5956 99.5371" fill="url(#paint17_linear)"/>
<path d="M82.8787 131.466C82.8743 131.466 82.8705 131.466 82.8661 131.466L77.6259 131.412C76.9812 131.405 76.4466 130.935 76.3862 130.323L75.926 125.624C75.8781 125.138 76.2565 124.707 76.7671 124.67C78.1447 124.569 81.1385 124.244 82.5589 124.225C82.5645 124.225 82.5708 124.225 82.5771 124.225C83.1708 124.225 83.6896 124.611 83.8294 125.163C84.1033 126.247 84.0668 128.406 84.0196 130.399C84.0051 130.992 83.4989 131.466 82.8787 131.466" fill="url(#paint18_linear)"/>
<path d="M91.0253 129.958C90.2867 129.958 89.6401 129.427 89.4513 128.662C89.1786 127.558 89.9581 126.477 91.0253 126.477C91.0278 126.477 91.0303 126.477 91.0328 126.477L151.707 126.773C152.375 126.776 152.918 127.347 152.933 128.06C152.948 128.794 152.399 129.399 151.713 129.405L91.0398 129.958C91.0347 129.958 91.0303 129.958 91.0253 129.958" fill="url(#paint19_linear)"/>
<path d="M82.8787 146.49C82.8743 146.49 82.8705 146.49 82.8661 146.49L77.6259 146.436C76.9812 146.429 76.4466 145.96 76.3862 145.348L75.926 140.648C75.8781 140.161 76.2565 139.731 76.7671 139.694C78.1447 139.593 81.1385 139.268 82.5589 139.249C82.5645 139.249 82.5708 139.249 82.5765 139.249C83.1708 139.249 83.6896 139.635 83.8294 140.188C84.1033 141.27 84.0668 143.43 84.0196 145.423C84.0051 146.015 83.4989 146.49 82.8787 146.49Z" fill="url(#paint20_linear)"/>
<path d="M91.0253 144.983C90.2867 144.983 89.6401 144.451 89.4513 143.686C89.1786 142.581 89.9581 141.501 91.0253 141.501C91.0278 141.501 91.0303 141.501 91.0328 141.501L151.707 141.797C152.375 141.801 152.918 142.371 152.933 143.085C152.948 143.819 152.399 144.424 151.713 144.43L91.0398 144.983C91.0347 144.983 91.0303 144.983 91.0253 144.983" fill="url(#paint21_linear)"/>
<path d="M115.916 160.54C115.441 160.54 115.025 160.008 114.904 159.243C114.729 158.139 115.23 157.059 115.915 157.059C115.917 157.059 115.919 157.059 115.92 157.059L154.916 157.354C155.345 157.357 155.694 157.929 155.703 158.642C155.713 159.375 155.36 159.98 154.919 159.986L115.925 160.54C115.922 160.54 115.919 160.54 115.916 160.54" fill="url(#paint22_linear)"/>
<path d="M112.322 11.0307C110.885 11.0307 109.72 9.78553 109.72 8.24964C109.72 6.71374 110.885 5.4686 112.322 5.4686C113.759 5.4686 114.924 6.71374 114.924 8.24964C114.924 9.78553 113.759 11.0307 112.322 11.0307ZM116.91 2.77707C113.588 0.306983 110.7 0.355442 108.667 0.996858C106.812 1.58241 105.61 3.49656 105.787 5.55474L106.664 15.7851L117.097 16.7751C117.097 16.7751 123.424 7.62168 116.91 2.77707" fill="url(#paint23_linear)"/>
<path d="M92.4258 20.5139V17.253C92.4258 15.5145 93.7461 14.1146 95.3597 14.1146C95.3937 14.1146 95.4277 14.1152 95.4624 14.1166L128.636 15.3314C130.108 15.3853 131.301 16.6277 131.389 18.1993L131.519 20.5132H118.004C115.632 18.4497 112.632 17.2671 109.491 17.2671C108.323 17.2671 107.135 17.4307 105.954 17.7733C104.065 18.3211 102.38 19.2715 100.958 20.5139H92.4258" fill="url(#paint24_linear)"/>
<path d="M130.381 29.2251H122.766C122.695 28.7863 122.604 28.3468 122.493 27.9079C121.726 24.886 120.114 22.3506 118.003 20.5131H131.519L139.703 20.5125V24.8691C139.329 24.824 138.952 24.8011 138.571 24.8011C137.691 24.8011 136.795 24.9243 135.904 25.1828C133.599 25.8511 131.695 27.3163 130.381 29.2251ZM96.1963 29.2251H81.1714C79.8045 29.2251 78.7147 28.0035 78.7801 26.543L78.7896 26.3364L78.9086 23.6953C78.9218 23.3911 78.9734 23.0977 79.0578 22.8204C79.1233 22.6063 79.2083 22.401 79.3103 22.2086C79.8492 21.1943 80.8686 20.5145 82.0308 20.5145L92.4256 20.5138H100.957C98.4453 22.708 96.7504 25.8134 96.1963 29.2251" fill="url(#paint25_linear)"/>
<path d="M129.656 129.497C129.075 129.497 128.455 129.702 127.921 130.101C126.923 130.847 126.32 132.095 125.953 132.969C124.725 135.891 124.249 139.13 123.917 142.196C123.392 147.038 123.167 151.958 123.248 156.834C125.16 154.447 126.955 151.945 128.449 149.241C130.587 145.368 132.972 139.39 132.192 132.901C132.005 131.34 131.589 130.376 130.883 129.87C130.536 129.62 130.108 129.497 129.656 129.497V129.497ZM128.062 170.131C127.426 170.131 126.784 169.804 126.101 169.133C123.436 166.516 122.813 162.427 122.658 158.595C121.378 160.136 120.062 161.633 118.763 163.113L118.299 162.648C119.746 160.999 121.212 159.329 122.626 157.602C122.507 152.448 122.728 147.239 123.283 142.118C123.622 138.997 124.109 135.696 125.372 132.69C125.769 131.743 126.429 130.385 127.556 129.543C128.714 128.678 130.229 128.58 131.239 129.305C132.38 130.125 132.69 131.7 132.824 132.814C133.628 139.494 131.186 145.622 128.997 149.586C127.36 152.552 125.374 155.267 123.27 157.849C123.375 161.74 123.871 166.019 126.532 168.632C127.111 169.2 127.627 169.47 128.111 169.449C128.909 169.418 129.533 168.623 130.038 167.85C132.253 164.458 133.975 160.78 135.179 156.879C135.316 155.722 135.618 154.587 136.078 153.528L136.676 153.752C136.425 154.86 136.133 155.954 135.803 157.03C135.677 158.15 135.714 159.293 135.922 160.401C136.035 161.003 136.512 162.99 137.918 163.276C138.976 163.49 140.021 162.697 141.204 160.775L145.396 153.962L144.994 155.818C144.778 156.808 144.423 159.177 145.769 159.769C146.54 160.108 147.355 159.618 148.217 159.099C149.057 158.594 149.925 158.072 150.89 158.207L151.218 158.254L151.162 158.603C150.94 159.976 151.05 161.667 152.089 161.913C152.769 162.075 153.327 161.522 153.973 160.884C154.521 160.343 155.087 159.783 155.814 159.595L155.964 160.257C155.398 160.403 154.893 160.902 154.406 161.384C153.693 162.088 152.957 162.816 151.951 162.578C150.583 162.254 150.29 160.515 150.481 158.869C149.839 158.905 149.2 159.289 148.529 159.693C147.573 160.268 146.585 160.863 145.527 160.399C144.548 159.968 144.075 158.84 144.156 157.217L141.737 161.149C140.892 162.521 139.565 164.305 137.799 163.945C136.586 163.698 135.651 162.423 135.297 160.535C135.208 160.057 135.148 159.573 135.117 159.087C133.954 162.314 132.43 165.378 130.56 168.239C129.965 169.151 129.212 170.088 128.133 170.129C128.109 170.131 128.085 170.131 128.062 170.131" fill="url(#paint26_linear)"/>
<path d="M185.149 56.9402H140.756C140.173 56.9402 139.701 56.4354 139.701 55.8121V50.384V48.1811V46.4662V50.594C139.701 51.2172 140.173 51.722 140.756 51.722H185.149C185.731 51.722 186.204 51.2172 186.204 50.594V55.8121C186.204 56.4354 185.731 56.9402 185.149 56.9402Z" fill="url(#paint27_linear)"/>
<path d="M185.149 51.7217H140.756C140.173 51.7217 139.701 51.2169 139.701 50.5937V46.4658C140.208 46.4039 140.717 46.3009 141.224 46.1535C142.37 45.8211 143.417 45.292 144.341 44.6102H148.072V39.5072C148.803 37.4416 148.955 35.1182 148.372 32.8238C148.219 32.2207 148.022 31.6439 147.785 31.0961V27.1439H144.866C143.388 25.8975 141.6 25.0979 139.701 24.869V14.7235V14.6104H160.923H186.204V38.9533V50.5937C186.204 51.2169 185.731 51.7217 185.149 51.7217" fill="url(#paint28_linear)"/>
<path d="M143.98 19.1428H142.379V16.2332H143.98V19.1428Z" fill="#0E60B9"/>
<path d="M147.581 19.1428H145.98V16.2332H147.581V19.1428Z" fill="#0E60B9"/>
<path d="M150.764 19.1428H149.164V16.2332H150.764V19.1428Z" fill="#0E60B9"/>
<path d="M154.365 19.1428H152.764V16.2332H154.365V19.1428Z" fill="#0E60B9"/>
<path d="M157.543 19.1428H155.941V16.2332H157.543V19.1428Z" fill="#0E60B9"/>
<path d="M161.152 19.1428H159.551V16.2332H161.152V19.1428Z" fill="#0E60B9"/>
<path d="M164.33 19.1428H162.729V16.2332H164.33V19.1428Z" fill="#0E60B9"/>
<path d="M167.939 19.1428H166.338V16.2332H167.939V19.1428Z" fill="#0E60B9"/>
<path d="M171.117 19.1428H169.516V16.2332H171.117V19.1428Z" fill="#0E60B9"/>
<path d="M174.716 19.1428H173.115V16.2332H174.716V19.1428Z" fill="#0E60B9"/>
<path d="M177.9 19.1428H176.299V16.2332H177.9V19.1428Z" fill="#0E60B9"/>
<path d="M181.499 19.1428H179.898V16.2332H181.499V19.1428Z" fill="#0E60B9"/>
<path d="M145.537 13.9172H143.482C143.008 13.9172 142.621 14.3312 142.621 14.8373V16.8813H143.243V15.5527C143.243 15.0466 143.63 14.6327 144.103 14.6327H146.159C146.236 14.6327 146.311 14.6448 146.382 14.6657C146.306 14.241 145.955 13.9172 145.537 13.9172Z" fill="url(#paint29_linear)"/>
<path d="M149.534 13.9172H147.478C147.004 13.9172 146.617 14.3312 146.617 14.8373V16.8813H147.239V15.5527C147.239 15.0466 147.626 14.6327 148.099 14.6327H150.155C150.232 14.6327 150.307 14.6448 150.378 14.6657C150.302 14.241 149.952 13.9172 149.534 13.9172" fill="url(#paint30_linear)"/>
<path d="M152.849 13.9172H150.794C150.321 13.9172 149.934 14.3312 149.934 14.8373V16.8813H150.555V15.5527C150.555 15.0466 150.942 14.6327 151.416 14.6327H153.471C153.548 14.6327 153.623 14.6448 153.694 14.6657C153.619 14.241 153.268 13.9172 152.849 13.9172Z" fill="url(#paint31_linear)"/>
<path d="M156.271 13.9172H154.216C153.743 13.9172 153.355 14.3312 153.355 14.8373V16.8813H153.977V15.5527C153.977 15.0466 154.364 14.6327 154.837 14.6327H156.893C156.97 14.6327 157.045 14.6448 157.116 14.6657C157.041 14.241 156.69 13.9172 156.271 13.9172Z" fill="url(#paint32_linear)"/>
<path d="M159.434 13.9172H157.378C156.905 13.9172 156.518 14.3312 156.518 14.8373V16.8813H157.139V15.5527C157.139 15.0466 157.526 14.6327 158 14.6327H160.055C160.133 14.6327 160.207 14.6448 160.279 14.6657C160.203 14.241 159.852 13.9172 159.434 13.9172Z" fill="url(#paint33_linear)"/>
<path d="M162.85 13.9172H160.794C160.321 13.9172 159.934 14.3312 159.934 14.8373V16.8813H160.555V15.5527C160.555 15.0466 160.942 14.6327 161.416 14.6327H163.471C163.549 14.6327 163.623 14.6448 163.695 14.6657C163.619 14.241 163.268 13.9172 162.85 13.9172Z" fill="url(#paint34_linear)"/>
<path d="M166.17 13.9172H164.115C163.641 13.9172 163.254 14.3312 163.254 14.8373V16.8813H163.875V15.5527C163.875 15.0466 164.263 14.6327 164.736 14.6327H166.792C166.869 14.6327 166.943 14.6448 167.015 14.6657C166.939 14.241 166.588 13.9172 166.17 13.9172Z" fill="url(#paint35_linear)"/>
<path d="M169.877 13.9172H167.822C167.348 13.9172 166.961 14.3312 166.961 14.8373V16.8813H167.582V15.5527C167.582 15.0466 167.97 14.6327 168.443 14.6327H170.499C170.576 14.6327 170.65 14.6448 170.722 14.6657C170.646 14.241 170.295 13.9172 169.877 13.9172" fill="url(#paint36_linear)"/>
<path d="M173.075 13.885H171.019C170.545 13.885 170.158 14.2989 170.158 14.8043V16.8484H170.78V15.5198C170.78 15.0143 171.167 14.6004 171.64 14.6004H173.696C173.773 14.6004 173.848 14.6119 173.919 14.6327C173.843 14.208 173.493 13.885 173.075 13.885Z" fill="url(#paint37_linear)"/>
<path d="M176.391 13.885H174.335C173.862 13.885 173.475 14.2989 173.475 14.8043V16.8484H174.096V15.5198C174.096 15.0143 174.483 14.6004 174.957 14.6004H177.012C177.089 14.6004 177.164 14.6119 177.235 14.6327C177.16 14.208 176.809 13.885 176.391 13.885" fill="url(#paint38_linear)"/>
<path d="M182.965 13.9678H180.909C180.436 13.9678 180.049 14.3817 180.049 14.8878V16.9319H180.67V15.6033C180.67 15.0971 181.057 14.6832 181.53 14.6832H183.586C183.663 14.6832 183.738 14.6953 183.809 14.7162C183.734 14.2915 183.383 13.9678 182.965 13.9678Z" fill="url(#paint39_linear)"/>
<path d="M180.098 13.885H178.042C177.569 13.885 177.182 14.2989 177.182 14.8043V16.8484H177.803V15.5198C177.803 15.0143 178.19 14.6004 178.664 14.6004H180.719C180.796 14.6004 180.871 14.6119 180.942 14.6327C180.867 14.208 180.516 13.885 180.098 13.885" fill="url(#paint40_linear)"/>
<path d="M90.6078 55.6045C87.1978 55.6045 84.075 53.1788 83.1394 49.4918C82.0193 45.0793 84.4578 40.5322 88.5855 39.3355C89.2636 39.1383 89.9461 39.0448 90.6172 39.0448C94.0272 39.0448 97.1507 41.4704 98.0863 45.1574C99.2057 49.5692 96.7672 54.117 92.6402 55.3137C91.9614 55.5103 91.279 55.6045 90.6078 55.6045ZM90.6172 39.32C89.9681 39.32 89.3089 39.4109 88.6529 39.6007C84.6624 40.7583 82.3051 45.154 83.3874 49.4198C84.2922 52.9843 87.3118 55.3292 90.6084 55.3292C91.2569 55.3292 91.9167 55.2383 92.5728 55.0479C96.5626 53.8909 98.9199 49.4945 97.8376 45.2294C96.9335 41.665 93.9139 39.32 90.6172 39.32" fill="url(#paint41_linear)"/>
<path d="M90.6089 55.3293C87.3123 55.3293 84.2927 52.9844 83.3879 49.42C82.3056 45.1542 84.6629 40.7585 88.6533 39.6008C89.3094 39.411 89.9686 39.3202 90.6177 39.3202C93.9143 39.3202 96.9339 41.6651 97.838 45.2296C98.9203 49.4947 96.5631 53.891 92.5733 55.048C91.9172 55.2385 91.2574 55.3293 90.6089 55.3293V55.3293ZM90.8173 40.6723C90.2683 40.6723 89.7098 40.7491 89.1545 40.9106C85.7773 41.8899 83.7821 45.6105 84.6981 49.2207C85.4637 52.2374 88.0193 54.2222 90.8097 54.2222C91.3588 54.2222 91.9166 54.1454 92.4719 53.9846C95.8491 53.0046 97.8443 49.284 96.9283 45.6738C96.1627 42.6572 93.6071 40.6723 90.8173 40.6723" fill="url(#paint42_linear)"/>
<path d="M90.8088 54.2222C88.0183 54.2222 85.4628 52.2373 84.6972 49.2207C83.7811 45.6105 85.7763 41.8899 89.1535 40.9106C89.7088 40.749 90.2673 40.6723 90.8163 40.6723C93.6061 40.6723 96.1617 42.6571 96.9273 45.6738C97.8434 49.284 95.8481 53.0046 92.4709 53.9846C91.9156 54.1454 91.3578 54.2222 90.8088 54.2222" fill="url(#paint43_linear)"/>
<path d="M91.4429 52.4809L91.2629 51.7695C90.5615 51.9411 89.8311 51.9653 89.2859 51.8785C89.0914 51.8476 88.9497 51.6645 88.9503 51.4538L88.951 50.7424C88.951 50.4819 89.1663 50.2841 89.4087 50.3184C89.947 50.3951 90.5873 50.3931 91.2308 50.2067C91.8988 50.0128 92.3351 49.6265 92.2092 49.1304C92.0958 48.6822 91.6432 48.5281 90.6471 48.5308C89.2242 48.5274 88.1167 48.1862 87.8 46.9397C87.5148 45.8137 88.0664 44.7314 89.3438 44.1135L89.1638 43.4028C89.1058 43.174 89.2318 42.9377 89.4458 42.8758L89.8368 42.7627C90.0509 42.7001 90.2719 42.8354 90.3298 43.0642L90.4916 43.703C91.1407 43.5441 91.6375 43.526 92.0436 43.5576C92.2514 43.5744 92.4107 43.7629 92.4107 43.9857V44.6432C92.4107 44.897 92.2073 45.0948 91.9712 45.0706C91.5953 45.0316 91.0759 45.0282 90.4488 45.2099C89.6561 45.4394 89.5189 45.8561 89.5988 46.1711C89.697 46.5581 90.2404 46.6866 91.3567 46.727C92.9483 46.7721 93.7253 47.2479 94.0231 48.4224C94.297 49.4993 93.7952 50.6845 92.4075 51.3468L92.609 52.143C92.6675 52.3719 92.541 52.6074 92.3269 52.6693L91.9359 52.7831C91.7219 52.845 91.5009 52.7097 91.4429 52.4809" fill="url(#paint44_linear)"/>
<path d="M109.472 46.0952C104.122 46.0952 99.1779 42.6654 97.0611 37.2904C96.8288 36.7008 96.6305 36.0883 96.4699 35.4543C95.9367 33.3544 95.8668 31.2363 96.1936 29.2252C96.7476 25.8136 98.4425 22.7081 100.955 20.514C102.378 19.2715 104.062 18.3212 105.951 17.7733C107.132 17.4307 108.32 17.2672 109.488 17.2672C112.629 17.2672 115.63 18.4497 118.001 20.5133C120.112 22.3507 121.723 24.8861 122.49 27.9081C122.601 28.3469 122.692 28.7864 122.764 29.2252C122.792 29.3996 122.818 29.5745 122.84 29.7482C123.241 32.888 122.65 35.9867 121.29 38.6284C120.821 39.5397 120.26 40.3965 119.617 41.182C117.928 43.2455 115.67 44.8171 113.009 45.5891C111.841 45.9276 110.668 46.0918 109.512 46.0952C109.499 46.0952 109.485 46.0952 109.472 46.0952V46.0952ZM109.488 17.7464C108.358 17.7464 107.21 17.9045 106.068 18.2357C99.1212 20.2508 95.0181 27.9034 96.9025 35.3285C98.4771 41.5333 103.733 45.616 109.472 45.616C110.601 45.616 111.75 45.4578 112.892 45.1267C119.838 43.1123 123.942 35.4597 122.057 28.0339C120.483 21.8291 115.227 17.7464 109.488 17.7464Z" fill="url(#paint45_linear)"/>
<path d="M109.473 45.616C103.734 45.616 98.4778 41.5332 96.9032 35.3284C95.0188 27.9033 99.1219 20.2507 106.068 18.2356C107.21 17.9045 108.359 17.7463 109.488 17.7463C115.227 17.7463 120.483 21.829 122.058 28.0339C123.942 35.4596 119.839 43.1122 112.893 45.1267C111.751 45.4578 110.602 45.616 109.473 45.616ZM109.835 20.1007C108.88 20.1007 107.908 20.2346 106.941 20.5146C101.062 22.2201 97.5888 28.6968 99.1836 34.9818C100.517 40.2336 104.965 43.689 109.822 43.689C110.778 43.689 111.75 43.5551 112.717 43.2744C118.596 41.5696 122.069 35.0928 120.474 28.8079C119.142 23.5561 114.693 20.1007 109.835 20.1007" fill="url(#paint46_linear)"/>
<path d="M109.823 43.6887C104.966 43.6887 100.517 40.2333 99.1844 34.9815C97.5896 28.6965 101.062 22.2198 106.942 20.5143C107.909 20.2343 108.88 20.1004 109.836 20.1004C114.693 20.1004 119.142 23.5558 120.475 28.8076C122.07 35.0925 118.597 41.5693 112.718 43.2741C111.751 43.5548 110.779 43.6887 109.823 43.6887Z" fill="url(#paint47_linear)"/>
<path d="M110.931 40.6575L110.617 39.4191C109.396 39.7179 108.125 39.7596 107.176 39.6089C106.837 39.555 106.591 39.236 106.591 38.8698L106.593 37.6314C106.593 37.1771 106.968 36.8332 107.389 36.8931C108.327 37.0264 109.441 37.023 110.561 36.6986C111.724 36.3614 112.484 35.6883 112.265 34.8242C112.067 34.0448 111.279 33.7755 109.545 33.7809C107.069 33.7755 105.14 33.1806 104.589 31.0107C104.092 29.0514 105.053 27.1662 107.277 26.092L106.963 24.8536C106.861 24.4552 107.082 24.0446 107.455 23.9362L108.135 23.739C108.508 23.6314 108.892 23.8662 108.993 24.2647L109.275 25.3766C110.404 25.1006 111.269 25.069 111.976 25.1242C112.338 25.1524 112.615 25.4809 112.616 25.8692V27.0141C112.616 27.4556 112.262 27.8002 111.85 27.7571C111.196 27.6892 110.292 27.6831 109.2 27.9994C107.82 28.3999 107.581 29.1248 107.72 29.6726C107.891 30.347 108.836 30.5705 110.78 30.6405C113.551 30.7192 114.904 31.5484 115.423 33.5918C115.898 35.4669 115.026 37.5298 112.61 38.6834L112.961 40.0685C113.062 40.467 112.842 40.8776 112.469 40.9859L111.789 41.1831C111.416 41.2915 111.032 41.0559 110.931 40.6575" fill="url(#paint48_linear)"/>
<path d="M126.324 74.9749C120.216 74.9749 114.62 70.629 112.944 64.025C111.586 58.6709 113.152 53.2058 116.602 49.5706C117.229 48.9097 117.92 48.3087 118.666 47.7803C119.873 46.9256 121.226 46.2592 122.7 45.8319C123.916 45.4792 125.138 45.3109 126.34 45.3109C129.269 45.3109 132.081 46.3111 134.4 48.0798C135.269 48.7435 136.069 49.5154 136.779 50.3837C138.124 52.0259 139.149 54.0128 139.719 56.2607C139.888 56.9284 140.012 57.5974 140.093 58.2644C140.182 59.0007 140.218 59.7337 140.203 60.4599C140.078 66.868 136.044 72.6905 129.963 74.4539C128.748 74.8066 127.525 74.9749 126.324 74.9749V74.9749ZM126.34 45.8043C125.178 45.8043 123.997 45.9671 122.821 46.3077C115.673 48.3807 111.451 56.2554 113.39 63.8958C115.01 70.2803 120.419 74.4815 126.324 74.4815C127.486 74.4815 128.668 74.3186 129.843 73.9781C136.99 71.9051 141.213 64.0304 139.274 56.3893C137.654 50.0054 132.245 45.8043 126.34 45.8043Z" fill="url(#paint49_linear)"/>
<path d="M126.329 74.4814C120.424 74.4814 115.015 70.2803 113.395 63.8957C111.456 56.2553 115.678 48.3806 122.826 46.3076C124.002 45.967 125.183 45.8041 126.345 45.8041C132.25 45.8041 137.659 50.0053 139.279 56.3892C141.218 64.0303 136.996 71.905 129.848 73.978C128.673 74.3186 127.491 74.4814 126.329 74.4814ZM126.702 48.2264C125.719 48.2264 124.719 48.3644 123.724 48.6525C117.674 50.4071 114.101 57.0717 115.742 63.539C117.113 68.9429 121.691 72.498 126.689 72.498C127.672 72.498 128.672 72.3607 129.667 72.0719C135.717 70.318 139.291 63.6528 137.65 57.1861C136.278 51.7822 131.7 48.2264 126.702 48.2264" fill="url(#paint50_linear)"/>
<path d="M126.686 72.498C121.688 72.498 117.11 68.943 115.739 63.5391C114.097 57.0718 117.671 50.4072 123.721 48.6526C124.716 48.3645 125.715 48.2265 126.699 48.2265C131.697 48.2265 136.275 51.7823 137.646 57.1862C139.287 63.6528 135.714 70.318 129.664 72.072C128.669 72.3607 127.669 72.498 126.686 72.498" fill="url(#paint51_linear)"/>
<path d="M127.827 69.3792L127.504 68.1058C126.248 68.4127 124.94 68.4558 123.963 68.3003C123.614 68.2444 123.361 67.9166 123.361 67.5397L123.363 66.2657C123.363 65.7979 123.749 65.4445 124.183 65.5058C125.147 65.6431 126.294 65.6397 127.447 65.3059C128.643 64.9586 129.426 64.266 129.2 63.3769C128.996 62.5753 128.186 62.298 126.402 62.3034C123.853 62.298 121.869 61.6862 121.302 59.453C120.79 57.4366 121.779 55.4975 124.067 54.3917L123.744 53.1176C123.64 52.7077 123.866 52.285 124.25 52.174L124.95 51.9707C125.334 51.8597 125.729 52.102 125.833 52.5119L126.123 53.6554C127.285 53.3714 128.175 53.339 128.903 53.3956C129.275 53.4245 129.56 53.7624 129.561 54.1622V55.34C129.561 55.795 129.197 56.149 128.773 56.1053C128.1 56.0353 127.17 56.0286 126.046 56.355C124.626 56.7662 124.38 57.5126 124.524 58.0766C124.699 58.7699 125.672 59.0001 127.672 59.0721C130.523 59.1529 131.915 60.0063 132.449 62.1089C132.939 64.0385 132.04 66.1613 129.554 67.3479L129.916 68.7734C130.02 69.1833 129.793 69.606 129.41 69.7171L128.71 69.9203C128.326 70.0314 127.931 69.7891 127.827 69.3792" fill="url(#paint52_linear)"/>
<path d="M138.558 46.5354C134.969 46.5354 131.623 44.4887 129.804 41.182C129.396 40.4396 129.064 39.6333 128.825 38.7725C128.801 38.6863 128.777 38.5995 128.755 38.5127C127.983 35.4671 128.501 32.3738 129.954 29.8956C130.088 29.6668 130.231 29.4433 130.38 29.2252C131.694 27.3165 133.598 25.8513 135.903 25.1829C136.794 24.9245 137.69 24.8013 138.57 24.8013C138.951 24.8013 139.328 24.8242 139.702 24.8693C141.601 25.0981 143.389 25.8977 144.866 27.1442C146.092 28.1773 147.103 29.5187 147.785 31.0963C148.023 31.6442 148.22 32.221 148.373 32.824C148.955 35.1185 148.804 37.4418 148.072 39.5074C147.348 41.5521 146.056 43.3445 144.342 44.6105C143.418 45.2923 142.371 45.8213 141.225 46.1538C140.718 46.3012 140.209 46.4042 139.702 46.4661C139.319 46.5125 138.937 46.5354 138.558 46.5354V46.5354ZM138.57 25.1627C137.718 25.1627 136.853 25.2819 135.991 25.5316C130.754 27.0499 127.661 32.82 129.082 38.4184C130.269 43.0961 134.232 46.174 138.558 46.174C139.41 46.174 140.275 46.0548 141.137 45.8051C146.374 44.2867 149.468 38.5167 148.047 32.9183C146.86 28.2406 142.896 25.1627 138.57 25.1627" fill="url(#paint53_linear)"/>
<path d="M138.558 46.1736C134.232 46.1736 130.269 43.0957 129.081 38.418C127.661 32.8196 130.754 27.0496 135.991 25.5312C136.853 25.2815 137.718 25.1623 138.57 25.1623C142.896 25.1623 146.86 28.2402 148.046 32.9179C149.467 38.5163 146.374 44.2864 141.137 45.8048C140.275 46.0545 139.409 46.1736 138.558 46.1736V46.1736ZM138.832 26.9372C138.111 26.9372 137.378 27.0381 136.649 27.2495C132.217 28.535 129.598 33.418 130.801 38.1562C131.806 42.1158 135.16 44.7205 138.821 44.7205C139.542 44.7205 140.275 44.6195 141.004 44.4082C145.437 43.1233 148.055 38.2397 146.853 33.5014C145.848 29.5419 142.493 26.9372 138.832 26.9372Z" fill="url(#paint54_linear)"/>
<path d="M138.823 44.7209C135.161 44.7209 131.807 42.1162 130.802 38.1567C129.599 33.4184 132.218 28.5354 136.65 27.2499C137.379 27.0386 138.112 26.9376 138.833 26.9376C142.494 26.9376 145.849 29.5423 146.854 33.5019C148.056 38.2402 145.438 43.1238 141.005 44.4086C140.276 44.62 139.543 44.7209 138.823 44.7209Z" fill="url(#paint55_linear)"/>
<path d="M139.659 42.4359L139.422 41.5023C138.502 41.7271 137.544 41.7588 136.828 41.645C136.573 41.6047 136.387 41.3644 136.387 41.0884L136.388 40.1542C136.389 39.8117 136.672 39.5525 136.989 39.5976C137.695 39.6979 138.536 39.6959 139.38 39.4509C140.257 39.1965 140.83 38.6897 140.665 38.0382C140.516 37.4506 139.922 37.2473 138.615 37.2514C136.747 37.2473 135.293 36.7991 134.878 35.1629C134.503 33.6855 135.227 32.2647 136.904 31.4544L136.667 30.5209C136.591 30.2207 136.757 29.9111 137.038 29.8297L137.551 29.6809C137.832 29.5995 138.122 29.7765 138.198 30.0773L138.411 30.9153C139.262 30.7066 139.914 30.6831 140.447 30.7248C140.721 30.7463 140.93 30.9933 140.93 31.2861V32.1497C140.93 32.4821 140.663 32.7426 140.353 32.7103C139.859 32.6592 139.177 32.6538 138.354 32.8927C137.314 33.1942 137.134 33.7414 137.239 34.154C137.367 34.6628 138.081 34.8311 139.546 34.8836C141.635 34.9428 142.655 35.5681 143.046 37.1094C143.405 38.5228 142.746 40.0782 140.925 40.9471L141.19 41.9917C141.266 42.2925 141.1 42.6021 140.819 42.6835L140.306 42.8323C140.025 42.9137 139.735 42.7361 139.659 42.4359" fill="url(#paint56_linear)"/>
<path d="M191.312 77.7208C190.606 80.0394 190.673 81.9967 191.734 82.3534C192.817 82.7175 193.796 81.2502 194.526 78.7674C195.202 76.4723 195.296 74.5346 194.148 74.1489C193.065 73.7848 191.987 75.4264 191.312 77.7208ZM196.596 79.2553C195.339 83.5305 192.98 85.1559 191.031 84.5004C189.082 83.8455 188.105 81.0988 189.27 77.1379C190.398 73.3029 192.694 71.242 194.838 71.9628C197.069 72.7133 197.678 75.5778 196.596 79.2553V79.2553ZM184.106 65.9714C183.391 68.3216 183.467 70.2472 184.528 70.604C185.59 70.9607 186.59 69.5008 187.321 67.0173C187.986 64.7538 188.089 62.7851 186.942 62.3995C185.859 62.0354 184.781 63.6763 184.106 65.9714V65.9714ZM181.344 81.3478L195.723 62.9682L197.239 63.4777L182.86 81.8573L181.344 81.3478ZM189.39 67.5059C188.123 71.8127 185.753 73.3991 183.825 72.751C181.854 72.0887 180.899 69.3494 182.033 65.4127C183.17 61.5461 185.457 59.5168 187.623 60.2451C189.854 60.9948 190.472 63.8284 189.39 67.5059Z" fill="#F8FBFF"/>
<path d="M175.318 74.9619H172.92V72.8727H175.318V69.1084H177.178V72.8727H179.576V74.9619H177.178V78.6758H175.318V74.9619Z" fill="#F8FBFF"/>
<path d="M95.5671 188.075C95.5684 188.012 95.564 187.948 95.5495 187.884C94.6586 184.109 90.2368 181.757 90.2368 181.757L88.4853 181.904C87.4779 185.231 87.607 187.272 87.7688 188.181C87.7732 188.206 87.7807 188.23 87.787 188.255C89.232 188.393 92.2069 188.484 95.5671 188.075" fill="url(#paint57_linear)"/>
<path d="M87.7891 188.255C87.8671 188.559 88.0768 188.795 88.345 188.856C90.4007 189.317 93.6683 188.946 95.0403 188.754C95.3431 188.712 95.5641 188.413 95.5691 188.075C92.2089 188.483 89.234 188.393 87.7891 188.255" fill="url(#paint58_linear)"/>
<path d="M87.7793 179.114L88.521 182.933C88.5757 183.213 88.7766 183.422 89.0203 183.446C89.3187 183.477 89.743 183.494 90.1699 183.427C90.5527 183.367 90.819 182.951 90.7517 182.505L90.2354 179.114H87.7793" fill="url(#paint59_linear)"/>
<path d="M103.155 188.207C101.22 188.149 100.219 187.905 99.7016 187.679C99.7004 187.885 99.7016 188.095 99.7079 188.311C99.7142 188.543 99.8747 188.728 100.072 188.727L110.696 188.653C111.035 188.651 111.233 188.231 111.087 187.898C109.693 188.021 106.146 188.296 103.155 188.207Z" fill="url(#paint60_linear)"/>
<path d="M111.086 187.898C111.073 187.869 111.062 187.84 111.044 187.812C110.106 186.411 107.716 183.621 102.994 182.41L100.729 182.334C100.729 182.334 99.7201 184.208 99.7012 187.679C100.219 187.905 101.219 188.149 103.155 188.207C106.145 188.296 109.693 188.021 111.086 187.898Z" fill="url(#paint61_linear)"/>
<path d="M100.209 178.776C100.245 178.954 100.716 181.671 100.898 182.725C100.942 182.976 101.124 183.159 101.342 183.172C101.729 183.195 102.355 183.198 102.893 183.042C103.183 182.957 103.378 182.641 103.358 182.29L103.104 177.992L100.209 178.776" fill="url(#paint62_linear)"/>
<path d="M98.4915 128.607C98.4915 128.607 101.607 151.498 103.856 178.737C103.898 179.244 103.52 179.686 103.054 179.791C102.367 179.946 101.357 180.129 100.521 180.104C100.075 180.09 99.7016 179.737 99.6267 179.267C98.8604 174.464 93.3942 148.689 91.9593 143.015C91.9593 143.015 90.311 167.113 90.838 179.615C90.8512 179.925 90.6378 180.195 90.3488 180.23C89.9099 180.285 89.2085 180.326 88.3158 180.224C87.9764 180.186 87.7032 179.912 87.6547 179.551C87.1088 175.487 83.9683 151.293 84.1018 133.864C84.1093 132.881 85.1803 124.806 85.1803 124.806L98.4915 128.607" fill="url(#paint63_linear)"/>
<path d="M125.206 106.724C125.206 106.724 124.334 104.269 123.316 104.494C122.296 104.719 121.182 105.555 121.182 105.555L119.545 107.922C119.545 107.922 124.14 109.857 125.756 108.748C125.756 108.748 130.45 109.615 136.377 108.575C135.519 106.639 135.007 104.7 134.707 103.195C131.705 105.011 128.471 106.368 125.206 106.724Z" fill="url(#paint64_linear)"/>
<path d="M150.063 88.9179C150.063 88.9179 143.343 97.9657 134.701 103.195C135.001 104.7 135.513 106.639 136.371 108.575C140.854 107.789 146.042 105.912 150.441 101.741L150.063 88.9179Z" fill="url(#paint65_linear)"/>
<path d="M99.7012 90.1146L100.118 102.092C101.303 102.528 102.431 102.868 103.505 103.121C104.178 100.808 105.657 97.9691 106.869 95.8591C102.417 94.1765 99.7012 90.1146 99.7012 90.1146" fill="url(#paint66_linear)"/>
<path d="M121.929 89.9105C115.822 96.9586 110.879 97.3732 106.871 95.8589C105.66 97.9689 104.18 100.808 103.508 103.12C119.815 106.964 123.655 90.9375 123.655 90.9375L121.929 89.9105" fill="url(#paint67_linear)"/>
<path d="M123.164 89.1621C123.164 89.1621 123.867 88.3545 125.169 88.6082C126.471 88.862 127.63 89.3452 128.441 88.6082C129.252 87.8706 129.538 88.8606 129.538 88.8606L127.109 90.834L123.164 89.1621Z" fill="url(#paint68_linear)"/>
<path d="M121.715 90.5429C121.715 90.5429 122.197 88.3884 123.65 88.6832C125.102 88.9787 128.399 90.8956 129.249 90.5429C130.099 90.1895 131.185 89.3442 131.743 89.643L130.761 90.9481C130.761 90.9481 133.286 89.3913 133.72 90.3477L129.519 92.875C129.519 92.875 123.374 92.2168 121.715 90.5429Z" fill="url(#paint69_linear)"/>
<path d="M84.7119 129.927C84.3914 129.806 84.1679 129.495 84.1332 129.133C83.719 124.836 81.7124 98.1885 94.3795 87.2265C94.3795 87.2265 95.106 85.1946 101.077 90.1893C107.048 95.1833 103.851 100.418 102.421 107.639C100.691 116.376 97.6566 123.517 98.9995 128.894C99.0921 129.265 98.9095 129.655 98.5726 129.787C93.9343 131.615 89.3137 131.675 84.7119 129.927Z" fill="url(#paint70_linear)"/>
<path d="M99.3198 79.2421C99.3154 79.6217 94.2578 87.3018 94.2578 87.3018C94.2578 87.3018 95.1657 89.2126 99.4999 90.7646L103.241 82.542L99.3198 79.2421Z" fill="url(#paint71_linear)"/>
<path d="M97.334 105.611C97.334 105.611 106.93 114.202 117.293 110.453C117.936 110.22 118.639 110.271 119.239 110.61L122.218 112.292C123.468 112.998 125.017 112.534 125.743 111.237C126.156 110.497 126.509 109.652 126.58 108.841L120.75 106.319L121.18 105.555C121.18 105.555 118.334 105.297 117.589 107.478C117.589 107.478 112.168 109.888 103.026 99.1386C103.026 99.1386 98.8772 102.909 97.334 105.611" fill="url(#paint72_linear)"/>
<path d="M96.8168 105.522C96.7853 105.522 96.7532 105.512 96.7249 105.492C92.6841 102.573 90.7833 97.8627 90.765 97.8155C90.7298 97.726 90.7682 97.6231 90.8519 97.5854C90.9357 97.547 91.032 97.5887 91.0672 97.6782C91.0855 97.7247 92.951 102.342 96.9087 105.201C96.9843 105.255 97.0038 105.364 96.9528 105.445C96.9213 105.494 96.8697 105.522 96.8168 105.522" fill="url(#paint73_linear)"/>
<path d="M102.834 98.9927C102.781 98.9927 102.728 98.9644 102.696 98.9119C102.684 98.8917 101.45 96.8376 99.0982 92.3369C98.3754 90.9531 97.4253 90.0768 96.2744 89.7329C94.3679 89.1635 92.5314 90.2558 92.5131 90.2666C92.4338 90.313 92.3343 90.2854 92.289 90.2006C92.2443 90.1165 92.272 90.0095 92.3507 89.9617C92.43 89.9132 94.3194 88.7832 96.36 89.3936C97.5997 89.7631 98.6178 90.696 99.3853 92.1659C101.731 96.6552 102.96 98.7019 102.973 98.7221C103.021 98.8035 103 98.9119 102.924 98.9644C102.896 98.9839 102.865 98.9927 102.834 98.9927" fill="url(#paint74_linear)"/>
<path d="M103.306 74.8417C103.306 74.8417 105.106 79.2609 105.226 81.5809C105.347 83.9002 105.815 85.4058 103.306 85.8729C100.797 86.34 98.6835 85.004 97.5383 82.6928C97.5383 82.6928 95.7439 79.1324 96.1469 77.6745C96.5492 76.216 103.306 74.8417 103.306 74.8417Z" fill="url(#paint75_linear)"/>
<path d="M98.3965 81.0317L98.5394 80.9644C98.7207 80.8789 98.7988 80.6474 98.7075 80.4589C98.3536 79.728 97.6636 78.0534 98.5551 77.6624C99.7035 77.1589 104.252 76.1675 105.233 74.4419C106.177 72.7841 105.341 70.6432 104.085 70.0347C104.001 69.9937 103.902 70.026 103.858 70.1135L103.754 70.3248C103.682 70.4702 103.482 70.448 103.44 70.2905C103.399 70.1397 103.21 70.1101 103.132 70.2434C102.831 70.7596 102.016 71.5969 99.8383 72.0263C96.7431 72.6367 94.6963 73.9761 94.6453 76.2624C94.6421 76.4078 94.4979 76.4886 94.3815 76.4132C94.1529 76.2645 93.7871 76.1945 93.2985 76.6333C92.4486 77.3979 92.7961 79.38 94.6597 81.0101C94.7485 81.0875 94.7479 81.2356 94.6515 81.3022C94.3141 81.5371 93.8104 82.0964 95.1156 82.8422C96.4648 83.6135 97.4728 83.5502 97.8613 83.4822C97.9576 83.4647 98.02 83.3651 97.9985 83.2628L97.5849 81.2531C97.561 81.1394 97.6422 81.0317 97.7511 81.0317H98.3965" fill="url(#paint76_linear)"/>
<path d="M98.4736 81.4558C98.4736 81.4558 97.7873 78.633 96.6031 79.4245C95.4194 80.216 97.2175 82.5879 98.1695 82.6929L98.4736 81.4558" fill="url(#paint77_linear)"/>
<path d="M119.238 110.61C119.238 110.61 121.677 113.16 122.148 112.789C122.315 112.656 122.738 112.177 123.148 111.643C123.437 111.266 123.467 110.734 123.219 110.324L122.643 109.375C122.095 108.471 120.922 108.282 120.162 108.989C119.778 109.346 119.43 109.863 119.238 110.61" fill="url(#paint78_linear)"/>
<path d="M157.941 129.024C156.627 122.351 155.312 118.488 150.912 105.839C149.527 101.858 148.27 97.8316 148.878 93.6345L149.56 88.9211C149.56 88.9211 158.112 85.8278 167.591 88.7905C167.591 88.7905 180.524 94.7968 171.739 124.458C167.78 129.194 163.146 130.543 157.941 129.024" fill="url(#paint79_linear)"/>
<path d="M151.521 82.9021L153.739 88.5968C153.879 88.9562 154.182 89.2127 154.541 89.2786C155.82 89.5128 158.912 89.879 160.942 88.4521C161.184 88.2818 161.246 87.9298 161.08 87.6761L156.983 81.3885L151.521 82.9021" fill="url(#paint80_linear)"/>
<path d="M156.992 109.665C156.687 109.752 156.535 110.118 156.681 110.417L163.096 123.567C163.204 123.789 163.444 123.899 163.669 123.83L184.653 117.353C184.915 117.272 185.066 116.98 184.99 116.701L181.375 103.324C181.301 103.049 181.035 102.888 180.777 102.961L156.992 109.665Z" fill="url(#paint81_linear)"/>
<path d="M158.346 108.12C158.045 108.197 157.875 108.536 157.981 108.846L163.116 123.758C163.21 124.029 163.483 124.177 163.743 124.097L184.664 117.639C184.924 117.559 185.082 117.277 185.025 116.994L182.125 102.642C182.065 102.34 181.783 102.151 181.503 102.223L158.346 108.12" fill="url(#paint82_linear)"/>
<path d="M160.167 106.615C159.8 106.674 159.558 107.055 159.642 107.442L163.13 123.54C163.212 123.92 163.576 124.148 163.927 124.04L184.531 117.681C184.862 117.578 185.057 117.213 184.971 116.856L181.803 103.716C181.721 103.378 181.413 103.16 181.09 103.213L160.167 106.615" fill="white"/>
<path d="M176.848 112.753C178.448 99.84 169.139 89.9105 169.139 89.9105L163.6 96.8133C167.805 102.416 169.804 107.55 170.717 111.583C171.928 111.207 174.844 110.611 176.848 112.753" fill="url(#paint83_linear)"/>
<path d="M170.714 111.95C170.559 111.95 170.418 111.838 170.381 111.67C169.255 106.699 166.883 101.777 163.33 97.0425C163.211 96.8851 163.235 96.6542 163.382 96.527C163.53 96.4011 163.746 96.426 163.864 96.5835C167.481 101.403 169.898 106.421 171.047 111.497C171.092 111.694 170.979 111.892 170.795 111.94C170.768 111.947 170.741 111.95 170.714 111.95" fill="url(#paint84_linear)"/>
<path d="M170.715 111.583C171.564 115.331 171.475 118.127 171.346 119.463C171.297 119.966 170.918 120.359 170.446 120.395C169.91 120.435 169.18 120.487 168.528 120.527C167.81 120.572 167.014 120.087 166.482 119.682C166.21 119.476 165.859 119.797 166.011 120.115C166.408 120.946 167.416 121.685 168.111 122.121C168.364 122.279 168.316 122.683 168.035 122.768L165.062 123.669C169.946 128.587 173.17 123.084 173.17 123.084C175.326 119.523 176.44 116.042 176.847 112.753C174.842 110.611 171.926 111.206 170.715 111.583" fill="url(#paint85_linear)"/>
<path d="M153.815 74.1888C153.722 74.2824 149.885 82.3381 149.885 82.3381L154.234 84.5828L158.932 77.5252C158.932 77.5252 155.374 72.62 153.815 74.1888Z" fill="url(#paint86_linear)"/>
<path d="M156.954 78.3718L154.785 82.2372C154.753 82.2964 154.713 82.3489 154.666 82.396C154.408 82.6524 153.525 83.4002 152.842 82.3825C152.259 81.515 151.714 80.7268 151.128 80.4018C150.786 80.212 150.366 80.3634 150.192 80.7309C149.835 81.4881 149.143 83.032 148.708 84.4953C148.599 84.8621 148.776 85.2565 149.11 85.4005C149.99 85.7821 151.731 86.472 153.276 86.7002C153.529 86.7372 153.781 86.6228 153.931 86.402C154.596 85.4288 156.468 82.709 157.108 82.0285C157.702 81.3959 158.798 81.6341 159.292 81.7862C159.479 81.8434 159.679 81.8158 159.846 81.7082C160.347 81.3858 161.221 80.5821 160.422 79.2219C160.223 78.884 160.324 78.4331 160.636 78.2137C161.195 77.8206 161.802 77.0823 161.224 75.8863C160.639 74.6755 159.593 74.5671 158.881 74.66C158.566 74.701 158.246 74.5247 158.126 74.2104C158.071 74.0711 157.965 73.9519 157.767 73.9095C157.394 73.8281 157.149 73.4633 157.223 73.0642C157.348 72.379 157.254 71.4892 156.23 70.8875C154.354 69.7851 152.71 71.5821 152.292 73.0992C151.874 74.6162 153.972 75.6884 155.292 75.8668C156.261 75.9987 156.793 77.1294 157.007 77.721C157.084 77.935 157.065 78.1746 156.954 78.3718Z" fill="url(#paint87_linear)"/>
<path d="M156.297 83.448C156.297 83.448 157.131 80.8379 158.2 80.9334C159.267 81.0297 160.108 82.1672 158.784 83.4459C157.137 85.0364 156.297 83.448 156.297 83.448" fill="url(#paint88_linear)"/>
<path d="M157.608 187.831C159.673 188.022 163.258 188.332 166.084 188.464C167.783 188.544 168.76 188.367 169.324 188.126C169.323 188.194 169.321 188.258 169.319 188.317C169.305 188.635 169.064 188.89 168.763 188.907C163.424 189.226 159.177 189.018 157.665 188.919C157.352 188.899 157.166 188.536 157.326 188.251C157.406 188.108 157.503 187.969 157.608 187.831Z" fill="url(#paint89_linear)"/>
<path d="M166.079 188.464C163.254 188.332 159.669 188.022 157.604 187.831C159.634 185.168 166.079 183.373 166.079 183.373H167.899C169.152 185.302 169.333 187.139 169.319 188.126C168.756 188.367 167.778 188.545 166.079 188.464Z" fill="url(#paint90_linear)"/>
<path d="M168.209 180.196L168.038 183.8C168.02 184.189 167.746 184.518 167.381 184.574C167.017 184.629 166.53 184.636 166.014 184.452C165.696 184.339 165.46 184.053 165.401 183.704L164.812 180.196H168.209" fill="url(#paint91_linear)"/>
<path d="M191.85 188.438C192.746 188.304 193.151 187.807 193.321 187.275L193.324 187.289C193.456 187.85 193.15 188.431 192.54 188.708C191.801 189.042 190.995 189.099 190.368 189.072C189.696 189.042 189.079 188.744 188.739 188.269L188.734 188.261C189.409 188.619 190.356 188.66 191.85 188.438" fill="url(#paint92_linear)"/>
<path d="M187.627 180.173H189.128C191.415 180.123 192.851 185.279 193.321 187.275C193.151 187.807 192.746 188.305 191.85 188.438C190.356 188.661 189.409 188.619 188.734 188.261C187.499 186.524 186.886 183.979 186.592 182.493C186.257 180.804 187.627 180.173 187.627 180.173" fill="url(#paint93_linear)"/>
<path d="M188.936 176.828L189.77 180.373C189.872 180.807 189.677 181.256 189.301 181.463C188.835 181.719 188.179 181.987 187.575 181.909C187.292 181.873 187.055 181.659 186.962 181.373L185.738 177.645L188.936 176.828Z" fill="url(#paint94_linear)"/>
<path d="M189.934 177.853C188.897 178.836 185.524 178.966 185.524 178.966C173.372 147.789 168.306 139.206 168.306 139.206C170.06 150.974 168.684 181.18 168.684 181.18C166.679 182.125 164.094 181.18 164.094 181.18C163.931 161.914 161.394 141.213 158.121 127.967C166.334 127.77 170.798 125.856 172.224 124.65C179.07 136.449 189.934 177.853 189.934 177.853" fill="url(#paint95_linear)"/>
<line x1="69" y1="201.8" x2="145.795" y2="201.8" stroke="#28303F" stroke-width="0.4"/>
<defs>
<filter id="filter0_d" x="0" y="34" width="229.852" height="278.039" filterUnits="userSpaceOnUse" color-interpolation-filters="sRGB">
<feFlood flood-opacity="0" result="BackgroundImageFix"/>
<feColorMatrix in="SourceAlpha" type="matrix" values="0 0 0 0 0 0 0 0 0 0 0 0 0 0 0 0 0 0 127 0" result="hardAlpha"/>
<feOffset dy="4"/>
<feGaussianBlur stdDeviation="2"/>
<feColorMatrix type="matrix" values="0 0 0 0 0 0 0 0 0 0 0 0 0 0 0 0 0 0 0.11 0"/>
<feBlend mode="normal" in2="BackgroundImageFix" result="effect1_dropShadow"/>
<feBlend mode="normal" in="SourceGraphic" in2="effect1_dropShadow" result="shape"/>
</filter>
<linearGradient id="paint0_linear" x1="55.8723" y1="154.631" x2="26.4994" y2="152.464" gradientUnits="userSpaceOnUse">
<stop offset="0.101406" stop-color="#0C397F"/>
<stop offset="1" stop-color="#79BAFA"/>
</linearGradient>
<linearGradient id="paint1_linear" x1="40.0456" y1="84.014" x2="66.9999" y2="212.169" gradientUnits="userSpaceOnUse">
<stop stop-color="#E182AC"/>
<stop offset="1" stop-color="#9982AC"/>
</linearGradient>
<linearGradient id="paint2_linear" x1="46.6398" y1="103.658" x2="62.2327" y2="102.105" gradientUnits="userSpaceOnUse">
<stop stop-color="#AEB09F"/>
<stop offset="1" stop-color="#4C246D"/>
</linearGradient>
<linearGradient id="paint3_linear" x1="52.8087" y1="62.6967" x2="80.0916" y2="199.85" gradientUnits="userSpaceOnUse">
<stop stop-color="#CD8DE7"/>
<stop offset="1" stop-color="#F698B3"/>
</linearGradient>
<linearGradient id="paint4_linear" x1="180.897" y1="151.384" x2="38.3016" y2="118.215" gradientUnits="userSpaceOnUse">
<stop offset="0.101406" stop-color="#0C397F"/>
<stop offset="1" stop-color="#79BAFA"/>
</linearGradient>
<linearGradient id="paint5_linear" x1="34.1688" y1="150.407" x2="133.593" y2="209.494" gradientUnits="userSpaceOnUse">
<stop stop-color="#A737D5"/>
<stop offset="1" stop-color="#EF497A"/>
</linearGradient>
<linearGradient id="paint6_linear" x1="42.2145" y1="136.868" x2="141.638" y2="195.954" gradientUnits="userSpaceOnUse">
<stop stop-color="#A737D5"/>
<stop offset="1" stop-color="#EF497A"/>
</linearGradient>
<linearGradient id="paint7_linear" x1="166.366" y1="18.4636" x2="34.182" y2="196.434" gradientUnits="userSpaceOnUse">
<stop stop-color="#53D8FF"/>
<stop offset="1" stop-color="#3840F7"/>
</linearGradient>
<linearGradient id="paint8_linear" x1="166.365" y1="18.4636" x2="34.1816" y2="196.434" gradientUnits="userSpaceOnUse">
<stop stop-color="#BAEFFF"/>
<stop offset="1" stop-color="#AFB3FC"/>
</linearGradient>
<linearGradient id="paint9_linear" x1="166.368" y1="18.4639" x2="34.1843" y2="196.434" gradientUnits="userSpaceOnUse">
<stop stop-color="#F0FBFF"/>
<stop offset="1" stop-color="#EDEEFE"/>
</linearGradient>
<linearGradient id="paint10_linear" x1="166.366" y1="18.4635" x2="34.1824" y2="196.434" gradientUnits="userSpaceOnUse">
<stop stop-color="#E3F9FF"/>
<stop offset="1" stop-color="#DFE1FE"/>
</linearGradient>
<linearGradient id="paint11_linear" x1="166.363" y1="18.4641" x2="34.1809" y2="196.434" gradientUnits="userSpaceOnUse">
<stop stop-color="#E3F9FF"/>
<stop offset="1" stop-color="#DFE1FE"/>
</linearGradient>
<linearGradient id="paint12_linear" x1="166.366" y1="18.4638" x2="34.1813" y2="196.434" gradientUnits="userSpaceOnUse">
<stop stop-color="#E3F9FF"/>
<stop offset="1" stop-color="#DFE1FE"/>
</linearGradient>
<linearGradient id="paint13_linear" x1="166.366" y1="18.4637" x2="34.1831" y2="196.433" gradientUnits="userSpaceOnUse">
<stop stop-color="#E3F9FF"/>
<stop offset="1" stop-color="#DFE1FE"/>
</linearGradient>
<linearGradient id="paint14_linear" x1="166.365" y1="18.4638" x2="34.1814" y2="196.434" gradientUnits="userSpaceOnUse">
<stop stop-color="#E3F9FF"/>
<stop offset="1" stop-color="#DFE1FE"/>
</linearGradient>
<linearGradient id="paint15_linear" x1="166.365" y1="18.4637" x2="34.1805" y2="196.434" gradientUnits="userSpaceOnUse">
<stop stop-color="#E3F9FF"/>
<stop offset="1" stop-color="#DFE1FE"/>
</linearGradient>
<linearGradient id="paint16_linear" x1="166.367" y1="18.4632" x2="34.1824" y2="196.433" gradientUnits="userSpaceOnUse">
<stop stop-color="#E3F9FF"/>
<stop offset="1" stop-color="#DFE1FE"/>
</linearGradient>
<linearGradient id="paint17_linear" x1="166.364" y1="18.4625" x2="34.1776" y2="196.433" gradientUnits="userSpaceOnUse">
<stop stop-color="#E3F9FF"/>
<stop offset="1" stop-color="#DFE1FE"/>
</linearGradient>
<linearGradient id="paint18_linear" x1="166.365" y1="18.4645" x2="34.1823" y2="196.434" gradientUnits="userSpaceOnUse">
<stop stop-color="#E3F9FF"/>
<stop offset="1" stop-color="#DFE1FE"/>
</linearGradient>
<linearGradient id="paint19_linear" x1="166.365" y1="18.4638" x2="34.1809" y2="196.434" gradientUnits="userSpaceOnUse">
<stop stop-color="#E3F9FF"/>
<stop offset="1" stop-color="#DFE1FE"/>
</linearGradient>
<linearGradient id="paint20_linear" x1="166.365" y1="18.4633" x2="34.1806" y2="196.433" gradientUnits="userSpaceOnUse">
<stop stop-color="#E3F9FF"/>
<stop offset="1" stop-color="#DFE1FE"/>
</linearGradient>
<linearGradient id="paint21_linear" x1="166.365" y1="18.4646" x2="34.182" y2="196.434" gradientUnits="userSpaceOnUse">
<stop stop-color="#E3F9FF"/>
<stop offset="1" stop-color="#DFE1FE"/>
</linearGradient>
<linearGradient id="paint22_linear" x1="166.366" y1="18.4648" x2="34.1834" y2="196.434" gradientUnits="userSpaceOnUse">
<stop stop-color="#E3F9FF"/>
<stop offset="1" stop-color="#DFE1FE"/>
</linearGradient>
<linearGradient id="paint23_linear" x1="127.169" y1="-11.8961" x2="81.2361" y2="44.6281" gradientUnits="userSpaceOnUse">
<stop stop-color="#2B3582"/>
<stop offset="1" stop-color="#150E42"/>
</linearGradient>
<linearGradient id="paint24_linear" x1="131.811" y1="-8.12563" x2="85.8776" y2="48.3985" gradientUnits="userSpaceOnUse">
<stop stop-color="#2B3582"/>
<stop offset="1" stop-color="#150E42"/>
</linearGradient>
<linearGradient id="paint25_linear" x1="126.481" y1="-4.48795" x2="94.1622" y2="51.0257" gradientUnits="userSpaceOnUse">
<stop stop-color="#53D8FF"/>
<stop offset="1" stop-color="#3840F7"/>
</linearGradient>
<linearGradient id="paint26_linear" x1="118.299" y1="149.475" x2="155.964" y2="149.475" gradientUnits="userSpaceOnUse">
<stop stop-color="#2B3582"/>
<stop offset="1" stop-color="#150E42"/>
</linearGradient>
<linearGradient id="paint27_linear" x1="164.53" y1="18.6921" x2="157.353" y2="84.7846" gradientUnits="userSpaceOnUse">
<stop stop-color="#8AC0FF"/>
<stop offset="1"/>
</linearGradient>
<linearGradient id="paint28_linear" x1="189.094" y1="44.1794" x2="138.381" y2="24.0554" gradientUnits="userSpaceOnUse">
<stop offset="0.101406" stop-color="#0C397F"/>
<stop offset="1" stop-color="#79BAFA"/>
</linearGradient>
<linearGradient id="paint29_linear" x1="192.002" y1="11.2385" x2="111.631" y2="17.2531" gradientUnits="userSpaceOnUse">
<stop stop-color="#FDF53F"/>
<stop offset="0.664524" stop-color="#E57A58"/>
<stop offset="1" stop-color="#D93C65"/>
</linearGradient>
<linearGradient id="paint30_linear" x1="192.031" y1="11.5777" x2="111.659" y2="17.5924" gradientUnits="userSpaceOnUse">
<stop stop-color="#FDF53F"/>
<stop offset="0.664524" stop-color="#E57A58"/>
<stop offset="1" stop-color="#D93C65"/>
</linearGradient>
<linearGradient id="paint31_linear" x1="192.049" y1="11.8597" x2="111.677" y2="17.8744" gradientUnits="userSpaceOnUse">
<stop stop-color="#FDF53F"/>
<stop offset="0.664524" stop-color="#E57A58"/>
<stop offset="1" stop-color="#D93C65"/>
</linearGradient>
<linearGradient id="paint32_linear" x1="192.073" y1="12.1505" x2="111.702" y2="18.1652" gradientUnits="userSpaceOnUse">
<stop stop-color="#FDF53F"/>
<stop offset="0.664524" stop-color="#E57A58"/>
<stop offset="1" stop-color="#D93C65"/>
</linearGradient>
<linearGradient id="paint33_linear" x1="192.094" y1="12.419" x2="111.722" y2="18.4337" gradientUnits="userSpaceOnUse">
<stop stop-color="#FDF53F"/>
<stop offset="0.664524" stop-color="#E57A58"/>
<stop offset="1" stop-color="#D93C65"/>
</linearGradient>
<linearGradient id="paint34_linear" x1="192.113" y1="12.7091" x2="111.741" y2="18.7238" gradientUnits="userSpaceOnUse">
<stop stop-color="#FDF53F"/>
<stop offset="0.664524" stop-color="#E57A58"/>
<stop offset="1" stop-color="#D93C65"/>
</linearGradient>
<linearGradient id="paint35_linear" x1="192.135" y1="12.9911" x2="111.764" y2="19.0058" gradientUnits="userSpaceOnUse">
<stop stop-color="#FDF53F"/>
<stop offset="0.664524" stop-color="#E57A58"/>
<stop offset="1" stop-color="#D93C65"/>
</linearGradient>
<linearGradient id="paint36_linear" x1="192.159" y1="13.3061" x2="111.787" y2="19.3208" gradientUnits="userSpaceOnUse">
<stop stop-color="#FDF53F"/>
<stop offset="0.664524" stop-color="#E57A58"/>
<stop offset="1" stop-color="#D93C65"/>
</linearGradient>
<linearGradient id="paint37_linear" x1="192.178" y1="13.5451" x2="111.807" y2="19.5597" gradientUnits="userSpaceOnUse">
<stop stop-color="#FDF53F"/>
<stop offset="0.664524" stop-color="#E57A58"/>
<stop offset="1" stop-color="#D93C65"/>
</linearGradient>
<linearGradient id="paint38_linear" x1="192.197" y1="13.8278" x2="111.825" y2="19.8426" gradientUnits="userSpaceOnUse">
<stop stop-color="#FDF53F"/>
<stop offset="0.664524" stop-color="#E57A58"/>
<stop offset="1" stop-color="#D93C65"/>
</linearGradient>
<linearGradient id="paint39_linear" x1="192.245" y1="14.4685" x2="111.873" y2="20.4832" gradientUnits="userSpaceOnUse">
<stop stop-color="#FDF53F"/>
<stop offset="0.664524" stop-color="#E57A58"/>
<stop offset="1" stop-color="#D93C65"/>
</linearGradient>
<linearGradient id="paint40_linear" x1="192.22" y1="14.1421" x2="111.849" y2="20.1568" gradientUnits="userSpaceOnUse">
<stop stop-color="#FDF53F"/>
<stop offset="0.664524" stop-color="#E57A58"/>
<stop offset="1" stop-color="#D93C65"/>
</linearGradient>
<linearGradient id="paint41_linear" x1="83.6059" y1="62.9798" x2="91.2512" y2="48.0321" gradientUnits="userSpaceOnUse">
<stop stop-color="#FDF53F"/>
<stop offset="1" stop-color="#D93C65"/>
</linearGradient>
<linearGradient id="paint42_linear" x1="93.8369" y1="36.9201" x2="74.1229" y2="92.6011" gradientUnits="userSpaceOnUse">
<stop stop-color="#FDF53F"/>
<stop offset="1" stop-color="#D93C65"/>
</linearGradient>
<linearGradient id="paint43_linear" x1="93.8359" y1="36.9201" x2="74.1219" y2="92.6012" gradientUnits="userSpaceOnUse">
<stop stop-color="#FFFDD5"/>
<stop offset="1" stop-color="#F7D4DD"/>
</linearGradient>
<linearGradient id="paint44_linear" x1="93.2971" y1="38.5481" x2="83.5748" y2="71.1155" gradientUnits="userSpaceOnUse">
<stop stop-color="#FDF53F"/>
<stop offset="1" stop-color="#D93C65"/>
</linearGradient>
<linearGradient id="paint45_linear" x1="97.2821" y1="58.9343" x2="110.591" y2="32.913" gradientUnits="userSpaceOnUse">
<stop stop-color="#FDF53F"/>
<stop offset="1" stop-color="#D93C65"/>
</linearGradient>
<linearGradient id="paint46_linear" x1="115.093" y1="13.5687" x2="80.774" y2="110.5" gradientUnits="userSpaceOnUse">
<stop stop-color="#FDF53F"/>
<stop offset="1" stop-color="#D93C65"/>
</linearGradient>
<linearGradient id="paint47_linear" x1="115.093" y1="13.5684" x2="80.7746" y2="110.499" gradientUnits="userSpaceOnUse">
<stop stop-color="#FFFDD5"/>
<stop offset="1" stop-color="#F7D4DD"/>
</linearGradient>
<linearGradient id="paint48_linear" x1="114.159" y1="16.4028" x2="97.2337" y2="73.0972" gradientUnits="userSpaceOnUse">
<stop stop-color="#FDF53F"/>
<stop offset="1" stop-color="#D93C65"/>
</linearGradient>
<linearGradient id="paint49_linear" x1="113.78" y1="88.1855" x2="127.475" y2="61.4099" gradientUnits="userSpaceOnUse">
<stop stop-color="#FDF53F"/>
<stop offset="1" stop-color="#D93C65"/>
</linearGradient>
<linearGradient id="paint50_linear" x1="132.112" y1="41.5047" x2="96.7983" y2="141.246" gradientUnits="userSpaceOnUse">
<stop stop-color="#FDF53F"/>
<stop offset="1" stop-color="#D93C65"/>
</linearGradient>
<linearGradient id="paint51_linear" x1="132.108" y1="41.5048" x2="96.7949" y2="141.246" gradientUnits="userSpaceOnUse">
<stop stop-color="#FFFDD5"/>
<stop offset="1" stop-color="#F7D4DD"/>
</linearGradient>
<linearGradient id="paint52_linear" x1="131.148" y1="44.4218" x2="113.733" y2="102.76" gradientUnits="userSpaceOnUse">
<stop stop-color="#FDF53F"/>
<stop offset="1" stop-color="#D93C65"/>
</linearGradient>
<linearGradient id="paint53_linear" x1="129.368" y1="56.2152" x2="139.402" y2="36.5969" gradientUnits="userSpaceOnUse">
<stop stop-color="#FDF53F"/>
<stop offset="1" stop-color="#D93C65"/>
</linearGradient>
<linearGradient id="paint54_linear" x1="142.795" y1="22.0125" x2="116.921" y2="95.092" gradientUnits="userSpaceOnUse">
<stop stop-color="#FDF53F"/>
<stop offset="1" stop-color="#D93C65"/>
</linearGradient>
<linearGradient id="paint55_linear" x1="142.796" y1="22.0129" x2="116.922" y2="95.0925" gradientUnits="userSpaceOnUse">
<stop stop-color="#FFFDD5"/>
<stop offset="1" stop-color="#F7D4DD"/>
</linearGradient>
<linearGradient id="paint56_linear" x1="142.092" y1="24.1491" x2="129.332" y2="66.8929" gradientUnits="userSpaceOnUse">
<stop stop-color="#FDF53F"/>
<stop offset="1" stop-color="#D93C65"/>
</linearGradient>
<linearGradient id="paint57_linear" x1="121.193" y1="84.2544" x2="112.014" y2="111.996" gradientUnits="userSpaceOnUse">
<stop stop-color="#53D8FF"/>
<stop offset="1" stop-color="#3840F7"/>
</linearGradient>
<linearGradient id="paint58_linear" x1="91.6574" y1="189.748" x2="92.134" y2="159.43" gradientUnits="userSpaceOnUse">
<stop stop-color="#2B3582"/>
<stop offset="1" stop-color="#150E42"/>
</linearGradient>
<linearGradient id="paint59_linear" x1="89.8564" y1="175.439" x2="88.1331" y2="189.508" gradientUnits="userSpaceOnUse">
<stop stop-color="#F9B776"/>
<stop offset="1" stop-color="#F47960"/>
</linearGradient>
<linearGradient id="paint60_linear" x1="105.39" y1="189.964" x2="105.867" y2="159.648" gradientUnits="userSpaceOnUse">
<stop stop-color="#2B3582"/>
<stop offset="1" stop-color="#150E42"/>
</linearGradient>
<linearGradient id="paint61_linear" x1="133.844" y1="88.4408" x2="124.665" y2="116.183" gradientUnits="userSpaceOnUse">
<stop stop-color="#53D8FF"/>
<stop offset="1" stop-color="#3840F7"/>
</linearGradient>
<linearGradient id="paint62_linear" x1="101.959" y1="176.927" x2="101.184" y2="191.09" gradientUnits="userSpaceOnUse">
<stop stop-color="#F9B776"/>
<stop offset="1" stop-color="#F47960"/>
</linearGradient>
<linearGradient id="paint63_linear" x1="100.436" y1="163.823" x2="7.33806" y2="56.994" gradientUnits="userSpaceOnUse">
<stop stop-color="#2B3582"/>
<stop offset="1" stop-color="#150E42"/>
</linearGradient>
<linearGradient id="paint64_linear" x1="119.545" y1="106.143" x2="136.377" y2="106.143" gradientUnits="userSpaceOnUse">
<stop stop-color="#F9B776"/>
<stop offset="1" stop-color="#F47960"/>
</linearGradient>
<linearGradient id="paint65_linear" x1="139.497" y1="99.7788" x2="154.947" y2="89.5919" gradientUnits="userSpaceOnUse">
<stop stop-color="#6DB3C9"/>
<stop offset="1" stop-color="#4C246D"/>
</linearGradient>
<linearGradient id="paint66_linear" x1="98.6755" y1="100.918" x2="65.295" y2="143.827" gradientUnits="userSpaceOnUse">
<stop stop-color="#FDF53F"/>
<stop offset="1" stop-color="#D93C65"/>
</linearGradient>
<linearGradient id="paint67_linear" x1="129.99" y1="88.9036" x2="102.913" y2="101.504" gradientUnits="userSpaceOnUse">
<stop stop-color="#F9B776"/>
<stop offset="1" stop-color="#F47960"/>
</linearGradient>
<linearGradient id="paint68_linear" x1="129.601" y1="85.3823" x2="125.435" y2="89.4527" gradientUnits="userSpaceOnUse">
<stop stop-color="#F9B776"/>
<stop offset="1" stop-color="#F47960"/>
</linearGradient>
<linearGradient id="paint69_linear" x1="130.117" y1="88.7378" x2="103.04" y2="101.338" gradientUnits="userSpaceOnUse">
<stop stop-color="#F9B776"/>
<stop offset="1" stop-color="#F47960"/>
</linearGradient>
<linearGradient id="paint70_linear" x1="100.382" y1="102.247" x2="67.0009" y2="145.156" gradientUnits="userSpaceOnUse">
<stop stop-color="#FDF53F"/>
<stop offset="1" stop-color="#D93C65"/>
</linearGradient>
<linearGradient id="paint71_linear" x1="95.8835" y1="93.2886" x2="99.8266" y2="83.2158" gradientUnits="userSpaceOnUse">
<stop stop-color="#F9B776"/>
<stop offset="1" stop-color="#F47960"/>
</linearGradient>
<linearGradient id="paint72_linear" x1="113.274" y1="105.2" x2="84.4863" y2="151.993" gradientUnits="userSpaceOnUse">
<stop stop-color="#F9B776"/>
<stop offset="1" stop-color="#F47960"/>
</linearGradient>
<linearGradient id="paint73_linear" x1="102.927" y1="78.3745" x2="84.4926" y2="119.631" gradientUnits="userSpaceOnUse">
<stop stop-color="#FDF53F"/>
<stop offset="1" stop-color="#D93C65"/>
</linearGradient>
<linearGradient id="paint74_linear" x1="103.776" y1="78.7541" x2="85.3417" y2="120.01" gradientUnits="userSpaceOnUse">
<stop stop-color="#FDF53F"/>
<stop offset="1" stop-color="#D93C65"/>
</linearGradient>
<linearGradient id="paint75_linear" x1="104.511" y1="77.9242" x2="82.5398" y2="94.2942" gradientUnits="userSpaceOnUse">
<stop stop-color="#F9B776"/>
<stop offset="1" stop-color="#F47960"/>
</linearGradient>
<linearGradient id="paint76_linear" x1="96.4415" y1="72.0687" x2="106.833" y2="84.5847" gradientUnits="userSpaceOnUse">
<stop stop-color="#2B3582"/>
<stop offset="1" stop-color="#150E42"/>
</linearGradient>
<linearGradient id="paint77_linear" x1="102.407" y1="76.949" x2="91.6213" y2="84.6692" gradientUnits="userSpaceOnUse">
<stop stop-color="#F9B776"/>
<stop offset="1" stop-color="#F47960"/>
</linearGradient>
<linearGradient id="paint78_linear" x1="119.238" y1="110.693" x2="123.386" y2="110.693" gradientUnits="userSpaceOnUse">
<stop stop-color="#F9B776"/>
<stop offset="1" stop-color="#F47960"/>
</linearGradient>
<linearGradient id="paint79_linear" x1="176.418" y1="121.06" x2="144.721" y2="114.844" gradientUnits="userSpaceOnUse">
<stop offset="0.101406" stop-color="#0C397F"/>
<stop offset="1" stop-color="#79BAFA"/>
</linearGradient>
<linearGradient id="paint80_linear" x1="157.203" y1="88.1459" x2="154.162" y2="79.6118" gradientUnits="userSpaceOnUse">
<stop stop-color="#F9B776"/>
<stop offset="1" stop-color="#F47960"/>
</linearGradient>
<linearGradient id="paint81_linear" x1="156.625" y1="113.397" x2="185.01" y2="113.397" gradientUnits="userSpaceOnUse">
<stop stop-color="#9CFFFB"/>
<stop offset="1" stop-color="#9BFFFA"/>
</linearGradient>
<linearGradient id="paint82_linear" x1="157.949" y1="113.163" x2="185.036" y2="113.163" gradientUnits="userSpaceOnUse">
<stop stop-color="#9CFFFB"/>
<stop offset="1" stop-color="#9BFFFA"/>
</linearGradient>
<linearGradient id="paint83_linear" x1="167.693" y1="102.532" x2="183.018" y2="95.1101" gradientUnits="userSpaceOnUse">
<stop stop-color="#6DB3C9"/>
<stop offset="1" stop-color="#4C246D"/>
</linearGradient>
<linearGradient id="paint84_linear" x1="165.632" y1="105.013" x2="175.01" y2="101.125" gradientUnits="userSpaceOnUse">
<stop stop-color="#6DB3C9"/>
<stop offset="1" stop-color="#4C246D"/>
</linearGradient>
<linearGradient id="paint85_linear" x1="173.592" y1="113.359" x2="163.864" y2="130.86" gradientUnits="userSpaceOnUse">
<stop stop-color="#F9B776"/>
<stop offset="1" stop-color="#F47960"/>
</linearGradient>
<linearGradient id="paint86_linear" x1="155.079" y1="75.712" x2="152.011" y2="92.5989" gradientUnits="userSpaceOnUse">
<stop stop-color="#F9B776"/>
<stop offset="1" stop-color="#F47960"/>
</linearGradient>
<linearGradient id="paint87_linear" x1="157.913" y1="83.7374" x2="149.407" y2="75.2845" gradientUnits="userSpaceOnUse">
<stop stop-color="#2B3582"/>
<stop offset="1" stop-color="#150E42"/>
</linearGradient>
<linearGradient id="paint88_linear" x1="157.42" y1="94.2181" x2="157.968" y2="82.3153" gradientUnits="userSpaceOnUse">
<stop stop-color="#F9B776"/>
<stop offset="1" stop-color="#F47960"/>
</linearGradient>
<linearGradient id="paint89_linear" x1="163.295" y1="164.995" x2="163.295" y2="191.15" gradientUnits="userSpaceOnUse">
<stop stop-color="#2B3582"/>
<stop offset="1" stop-color="#150E42"/>
</linearGradient>
<linearGradient id="paint90_linear" x1="169.32" y1="185.928" x2="157.603" y2="185.928" gradientUnits="userSpaceOnUse">
<stop stop-color="#CB236D"/>
<stop offset="1" stop-color="#4C246D"/>
</linearGradient>
<linearGradient id="paint91_linear" x1="168.209" y1="182.402" x2="164.813" y2="182.402" gradientUnits="userSpaceOnUse">
<stop stop-color="#F9B776"/>
<stop offset="1" stop-color="#F47960"/>
</linearGradient>
<linearGradient id="paint92_linear" x1="191.044" y1="164.994" x2="191.044" y2="191.151" gradientUnits="userSpaceOnUse">
<stop stop-color="#2B3582"/>
<stop offset="1" stop-color="#150E42"/>
</linearGradient>
<linearGradient id="paint93_linear" x1="193.321" y1="184.374" x2="186.54" y2="184.374" gradientUnits="userSpaceOnUse">
<stop stop-color="#CB236D"/>
<stop offset="1" stop-color="#4C246D"/>
</linearGradient>
<linearGradient id="paint94_linear" x1="189.797" y1="179.376" x2="185.738" y2="179.376" gradientUnits="userSpaceOnUse">
<stop stop-color="#F9B776"/>
<stop offset="1" stop-color="#F47960"/>
</linearGradient>
<linearGradient id="paint95_linear" x1="210.588" y1="51.4022" x2="160.049" y2="174.192" gradientUnits="userSpaceOnUse">
<stop stop-color="#53D8FF"/>
<stop offset="0.205701" stop-color="#4DB9FD"/>
<stop offset="1" stop-color="#0E60B9"/>
</linearGradient>
</defs>
</svg>
