<svg width="9" height="9" viewBox="0 0 9 9" fill="none" xmlns="http://www.w3.org/2000/svg">
<path d="M3.77097 6.02666L2.33121 4.63036L2.92551 4.03586L3.77097 4.83758L5.57632 2.98711L6.17062 3.5814L3.77097 6.02666ZM4.17095 0.494249C3.41159 0.494249 2.66928 0.719422 2.03789 1.1413C1.4065 1.56318 0.914394 2.16282 0.623798 2.86438C0.333202 3.56594 0.257175 4.3379 0.405319 5.08268C0.553464 5.82745 0.919131 6.51157 1.45608 7.04852C1.99303 7.58547 2.67715 7.95113 3.42192 8.09928C4.16669 8.24742 4.93867 8.1714 5.64023 7.8808C6.34179 7.5902 6.94142 7.0981 7.3633 6.46671C7.78518 5.83532 8.01036 5.09301 8.01036 4.33364C8.01036 3.31534 7.60584 2.33876 6.88579 1.61871C6.16574 0.898665 5.18916 0.494141 4.17086 0.494141L4.17095 0.494249Z" fill="white"/>
</svg>
