<svg width="2744" height="203" viewBox="0 0 2744 203" fill="none" xmlns="http://www.w3.org/2000/svg">
<g clip-path="url(#clip0)">
<path fill-rule="evenodd" clip-rule="evenodd" d="M4087.58 -3508.87C4210.05 -3599.64 4542.27 -3548.19 4490.85 -3446.42L2770.07 -40.2161C2766.01 -32.1724 2759.35 -24.3892 2750.28 -17.0798L2735.69 -5.3374C2728.21 0.695282 2719.14 6.36346 2708.62 11.5615L2413.76 157.495L2392.47 167.411C2350.57 186.941 2290.6 198.052 2227.89 197.908L-535.609 191.537C-701.412 191.155 -804.599 116.856 -723.157 56.4966L4087.58 -3508.87Z" fill="#F0B50F"/>
<path fill-rule="evenodd" clip-rule="evenodd" d="M1804.53 -2319.46C1866.58 -2375.87 2041.34 -2391.61 2150.02 -2350.58L5070.2 -1247.83C5157.94 -1214.7 5164.27 -1157.82 5084.41 -1120.25L2375.69 153.837C2332.94 173.944 2271.53 185.361 2207.67 185.068L-604.253 172.147C-760.659 171.429 -861.603 104.179 -795.912 44.4626L1804.53 -2319.46Z" fill="#FEFEFF"/>
</g>
<defs>
<clipPath id="clip0">
<rect width="2744" height="203" fill="white"/>
</clipPath>
</defs>
</svg>
