<svg width="127" height="127" viewBox="0 0 127 127" fill="none" xmlns="http://www.w3.org/2000/svg">
<circle cx="63.5" cy="63.5" r="58.5" stroke="white" stroke-width="10"/>
<path d="M60.582 42.3213C60.1484 42.9424 59.542 43.4082 58.7627 43.7188C57.9893 44.0234 57.0869 44.1758 56.0557 44.1758C55.0127 44.1758 54.0869 43.9326 53.2783 43.4463C52.4697 42.9541 51.8428 42.2568 51.3975 41.3545C50.958 40.4521 50.7324 39.4062 50.7207 38.2168V37.1006C50.7207 35.1729 51.1689 33.6787 52.0654 32.6182C52.9678 31.5576 54.2334 31.0273 55.8623 31.0273C57.1982 31.0273 58.2734 31.3701 59.0879 32.0557C59.9023 32.7354 60.4004 33.7021 60.582 34.9561H58.8945C58.5781 33.2627 57.5703 32.416 55.8711 32.416C54.7402 32.416 53.8818 32.8145 53.2959 33.6113C52.7158 34.4023 52.4229 35.5508 52.417 37.0566V38.1025C52.417 39.5381 52.7451 40.6807 53.4014 41.5303C54.0576 42.374 54.9453 42.7959 56.0645 42.7959C56.6973 42.7959 57.251 42.7256 57.7256 42.585C58.2002 42.4443 58.5928 42.207 58.9033 41.873V38.999H55.9414V37.6279H60.582V42.3213ZM67.0947 44.1758C65.8057 44.1758 64.7568 43.7539 63.9482 42.9102C63.1396 42.0605 62.7354 40.9268 62.7354 39.5088V39.21C62.7354 38.2666 62.9141 37.4258 63.2715 36.6875C63.6348 35.9434 64.1387 35.3633 64.7832 34.9473C65.4336 34.5254 66.1367 34.3145 66.8926 34.3145C68.1289 34.3145 69.0898 34.7217 69.7754 35.5361C70.4609 36.3506 70.8037 37.5166 70.8037 39.0342V39.7109H64.3613C64.3848 40.6484 64.6572 41.4072 65.1787 41.9873C65.7061 42.5615 66.374 42.8486 67.1826 42.8486C67.7568 42.8486 68.2432 42.7314 68.6416 42.4971C69.04 42.2627 69.3887 41.9521 69.6875 41.5654L70.6807 42.3389C69.8838 43.5635 68.6885 44.1758 67.0947 44.1758ZM66.8926 35.6504C66.2363 35.6504 65.6855 35.8906 65.2402 36.3711C64.7949 36.8457 64.5195 37.5137 64.4141 38.375H69.1777V38.252C69.1309 37.4258 68.9082 36.7871 68.5098 36.3359C68.1113 35.8789 67.5723 35.6504 66.8926 35.6504ZM74.8994 32.1875V34.4902H76.6748V35.7471H74.8994V41.6445C74.8994 42.0254 74.9785 42.3125 75.1367 42.5059C75.2949 42.6934 75.5645 42.7871 75.9453 42.7871C76.1328 42.7871 76.3906 42.752 76.7188 42.6816V44C76.291 44.1172 75.875 44.1758 75.4707 44.1758C74.7441 44.1758 74.1963 43.9561 73.8271 43.5166C73.458 43.0771 73.2734 42.4531 73.2734 41.6445V35.7471H71.542V34.4902H73.2734V32.1875H74.8994ZM41.7207 61.4775C41.7207 61.0381 41.5537 60.6982 41.2197 60.458C40.8916 60.2119 40.3145 60.001 39.4883 59.8252C38.668 59.6494 38.0146 59.4385 37.5283 59.1924C37.0479 58.9463 36.6904 58.6533 36.4561 58.3135C36.2275 57.9736 36.1133 57.5693 36.1133 57.1006C36.1133 56.3213 36.4414 55.6621 37.0977 55.123C37.7598 54.584 38.6035 54.3145 39.6289 54.3145C40.707 54.3145 41.5801 54.5928 42.248 55.1494C42.9219 55.7061 43.2588 56.418 43.2588 57.2852H41.624C41.624 56.8398 41.4336 56.4561 41.0527 56.1338C40.6777 55.8115 40.2031 55.6504 39.6289 55.6504C39.0371 55.6504 38.5742 55.7793 38.2402 56.0371C37.9062 56.2949 37.7393 56.6318 37.7393 57.0479C37.7393 57.4404 37.8945 57.7363 38.2051 57.9355C38.5156 58.1348 39.0752 58.3252 39.8838 58.5068C40.6982 58.6885 41.3574 58.9053 41.8613 59.1572C42.3652 59.4092 42.7373 59.7139 42.9775 60.0713C43.2236 60.4229 43.3467 60.8535 43.3467 61.3633C43.3467 62.2129 43.0068 62.8955 42.3271 63.4111C41.6475 63.9209 40.7656 64.1758 39.6816 64.1758C38.9199 64.1758 38.2461 64.041 37.6602 63.7715C37.0742 63.502 36.6143 63.127 36.2803 62.6465C35.9521 62.1602 35.7881 61.6357 35.7881 61.0732H37.4141C37.4434 61.6182 37.6602 62.0518 38.0645 62.374C38.4746 62.6904 39.0137 62.8486 39.6816 62.8486C40.2969 62.8486 40.7891 62.7256 41.1582 62.4795C41.5332 62.2275 41.7207 61.8936 41.7207 61.4775ZM47.6709 52.1875V54.4902H49.4463V55.7471H47.6709V61.6445C47.6709 62.0254 47.75 62.3125 47.9082 62.5059C48.0664 62.6934 48.3359 62.7871 48.7168 62.7871C48.9043 62.7871 49.1621 62.752 49.4902 62.6816V64C49.0625 64.1172 48.6465 64.1758 48.2422 64.1758C47.5156 64.1758 46.9678 63.9561 46.5986 63.5166C46.2295 63.0771 46.0449 62.4531 46.0449 61.6445V55.7471H44.3135V54.4902H46.0449V52.1875H47.6709ZM57.2246 64C57.1309 63.8125 57.0547 63.4785 56.9961 62.998C56.2402 63.7832 55.3379 64.1758 54.2891 64.1758C53.3516 64.1758 52.5811 63.9121 51.9775 63.3848C51.3799 62.8516 51.0811 62.1777 51.0811 61.3633C51.0811 60.373 51.4561 59.6055 52.2061 59.0605C52.9619 58.5098 54.0225 58.2344 55.3877 58.2344H56.9697V57.4873C56.9697 56.9189 56.7998 56.4678 56.46 56.1338C56.1201 55.7939 55.6191 55.624 54.957 55.624C54.377 55.624 53.8906 55.7705 53.498 56.0635C53.1055 56.3564 52.9092 56.7109 52.9092 57.127H51.2744C51.2744 56.6523 51.4414 56.1953 51.7754 55.7559C52.1152 55.3105 52.5723 54.959 53.1465 54.7012C53.7266 54.4434 54.3623 54.3145 55.0537 54.3145C56.1494 54.3145 57.0078 54.5898 57.6289 55.1406C58.25 55.6855 58.5723 56.4385 58.5957 57.3994V61.7764C58.5957 62.6494 58.707 63.3438 58.9297 63.8594V64H57.2246ZM54.5264 62.7607C55.0361 62.7607 55.5195 62.6289 55.9766 62.3652C56.4336 62.1016 56.7646 61.7588 56.9697 61.3369V59.3857H55.6953C53.7031 59.3857 52.707 59.9688 52.707 61.1348C52.707 61.6445 52.877 62.043 53.2168 62.3301C53.5566 62.6172 53.9932 62.7607 54.5264 62.7607ZM65.7412 55.9492C65.4951 55.9082 65.2285 55.8877 64.9414 55.8877C63.875 55.8877 63.1514 56.3418 62.7705 57.25V64H61.1445V54.4902H62.7266L62.7529 55.5889C63.2861 54.7393 64.042 54.3145 65.0205 54.3145C65.3369 54.3145 65.5771 54.3555 65.7412 54.4375V55.9492ZM69.8896 52.1875V54.4902H71.665V55.7471H69.8896V61.6445C69.8896 62.0254 69.9688 62.3125 70.127 62.5059C70.2852 62.6934 70.5547 62.7871 70.9355 62.7871C71.123 62.7871 71.3809 62.752 71.709 62.6816V64C71.2812 64.1172 70.8652 64.1758 70.4609 64.1758C69.7344 64.1758 69.1865 63.9561 68.8174 63.5166C68.4482 63.0771 68.2637 62.4531 68.2637 61.6445V55.7471H66.5322V54.4902H68.2637V52.1875H69.8896ZM77.5186 64.1758C76.2295 64.1758 75.1807 63.7539 74.3721 62.9102C73.5635 62.0605 73.1592 60.9268 73.1592 59.5088V59.21C73.1592 58.2666 73.3379 57.4258 73.6953 56.6875C74.0586 55.9434 74.5625 55.3633 75.207 54.9473C75.8574 54.5254 76.5605 54.3145 77.3164 54.3145C78.5527 54.3145 79.5137 54.7217 80.1992 55.5361C80.8848 56.3506 81.2275 57.5166 81.2275 59.0342V59.7109H74.7852C74.8086 60.6484 75.0811 61.4072 75.6025 61.9873C76.1299 62.5615 76.7979 62.8486 77.6064 62.8486C78.1807 62.8486 78.667 62.7314 79.0654 62.4971C79.4639 62.2627 79.8125 61.9521 80.1113 61.5654L81.1045 62.3389C80.3076 63.5635 79.1123 64.1758 77.5186 64.1758ZM77.3164 55.6504C76.6602 55.6504 76.1094 55.8906 75.6641 56.3711C75.2188 56.8457 74.9434 57.5137 74.8379 58.375H79.6016V58.252C79.5547 57.4258 79.332 56.7871 78.9336 56.3359C78.5352 55.8789 77.9961 55.6504 77.3164 55.6504ZM82.7217 59.166C82.7217 57.707 83.0674 56.5352 83.7588 55.6504C84.4502 54.7598 85.3555 54.3145 86.4746 54.3145C87.5879 54.3145 88.4697 54.6953 89.1201 55.457V50.5H90.7461V64H89.252L89.1729 62.9805C88.5225 63.7773 87.6172 64.1758 86.457 64.1758C85.3555 64.1758 84.4561 63.7246 83.7588 62.8223C83.0674 61.9199 82.7217 60.7422 82.7217 59.2891V59.166ZM84.3477 59.3506C84.3477 60.4287 84.5703 61.2725 85.0156 61.8818C85.4609 62.4912 86.0762 62.7959 86.8613 62.7959C87.8926 62.7959 88.6455 62.333 89.1201 61.4072V57.0391C88.6338 56.1426 87.8867 55.6943 86.8789 55.6943C86.082 55.6943 85.4609 56.002 85.0156 56.6172C84.5703 57.2324 84.3477 58.1436 84.3477 59.3506ZM26.9814 84H25.3555V74.4902H26.9814V84ZM25.2236 71.9678C25.2236 71.7041 25.3027 71.4814 25.4609 71.2998C25.625 71.1182 25.8652 71.0273 26.1816 71.0273C26.498 71.0273 26.7383 71.1182 26.9023 71.2998C27.0664 71.4814 27.1484 71.7041 27.1484 71.9678C27.1484 72.2314 27.0664 72.4512 26.9023 72.627C26.7383 72.8027 26.498 72.8906 26.1816 72.8906C25.8652 72.8906 25.625 72.8027 25.4609 72.627C25.3027 72.4512 25.2236 72.2314 25.2236 71.9678ZM31.1299 74.4902L31.1826 75.6855C31.9092 74.7715 32.8584 74.3145 34.0303 74.3145C36.04 74.3145 37.0537 75.4482 37.0713 77.7158V84H35.4453V77.707C35.4395 77.0215 35.2812 76.5146 34.9707 76.1865C34.666 75.8584 34.1885 75.6943 33.5381 75.6943C33.0107 75.6943 32.5479 75.835 32.1494 76.1162C31.751 76.3975 31.4404 76.7666 31.2178 77.2236V84H29.5918V74.4902H31.1299ZM45.5264 74.4902L45.5791 75.6855C46.3057 74.7715 47.2549 74.3145 48.4268 74.3145C50.4365 74.3145 51.4502 75.4482 51.4678 77.7158V84H49.8418V77.707C49.8359 77.0215 49.6777 76.5146 49.3672 76.1865C49.0625 75.8584 48.585 75.6943 47.9346 75.6943C47.4072 75.6943 46.9443 75.835 46.5459 76.1162C46.1475 76.3975 45.8369 76.7666 45.6143 77.2236V84H43.9883V74.4902H45.5264ZM53.4893 79.1572C53.4893 78.2256 53.6709 77.3877 54.0342 76.6436C54.4033 75.8994 54.9131 75.3252 55.5635 74.9209C56.2197 74.5166 56.9668 74.3145 57.8047 74.3145C59.0996 74.3145 60.1455 74.7627 60.9424 75.6592C61.7451 76.5557 62.1465 77.748 62.1465 79.2363V79.3506C62.1465 80.2764 61.9678 81.1084 61.6104 81.8467C61.2588 82.5791 60.752 83.1504 60.0898 83.5605C59.4336 83.9707 58.6777 84.1758 57.8223 84.1758C56.5332 84.1758 55.4873 83.7275 54.6846 82.8311C53.8877 81.9346 53.4893 80.748 53.4893 79.2715V79.1572ZM55.124 79.3506C55.124 80.4053 55.3672 81.252 55.8535 81.8906C56.3457 82.5293 57.002 82.8486 57.8223 82.8486C58.6484 82.8486 59.3047 82.5264 59.791 81.8818C60.2773 81.2314 60.5205 80.3232 60.5205 79.1572C60.5205 78.1143 60.2715 77.2705 59.7734 76.626C59.2812 75.9756 58.625 75.6504 57.8047 75.6504C57.002 75.6504 56.3545 75.9697 55.8623 76.6084C55.3701 77.2471 55.124 78.1611 55.124 79.3506ZM70.8564 72.1875V74.4902H72.6318V75.7471H70.8564V81.6445C70.8564 82.0254 70.9355 82.3125 71.0938 82.5059C71.252 82.6934 71.5215 82.7871 71.9023 82.7871C72.0898 82.7871 72.3477 82.752 72.6758 82.6816V84C72.248 84.1172 71.832 84.1758 71.4277 84.1758C70.7012 84.1758 70.1533 83.9561 69.7842 83.5166C69.415 83.0771 69.2305 82.4531 69.2305 81.6445V75.7471H67.499V74.4902H69.2305V72.1875H70.8564ZM76.3057 84H74.6797V74.4902H76.3057V84ZM74.5479 71.9678C74.5479 71.7041 74.627 71.4814 74.7852 71.2998C74.9492 71.1182 75.1895 71.0273 75.5059 71.0273C75.8223 71.0273 76.0625 71.1182 76.2266 71.2998C76.3906 71.4814 76.4727 71.7041 76.4727 71.9678C76.4727 72.2314 76.3906 72.4512 76.2266 72.627C76.0625 72.8027 75.8223 72.8906 75.5059 72.8906C75.1895 72.8906 74.9492 72.8027 74.7852 72.627C74.627 72.4512 74.5479 72.2314 74.5479 71.9678ZM80.4453 74.4902L80.4893 75.5449C81.1865 74.7246 82.127 74.3145 83.3105 74.3145C84.6406 74.3145 85.5459 74.8242 86.0264 75.8438C86.3428 75.3867 86.7529 75.0176 87.2568 74.7363C87.7666 74.4551 88.3672 74.3145 89.0586 74.3145C91.1445 74.3145 92.2051 75.4189 92.2402 77.6279V84H90.6143V77.7246C90.6143 77.0449 90.459 76.5381 90.1484 76.2041C89.8379 75.8643 89.3164 75.6943 88.584 75.6943C87.9805 75.6943 87.4795 75.876 87.0811 76.2393C86.6826 76.5967 86.4512 77.0801 86.3867 77.6895V84H84.752V77.7686C84.752 76.3857 84.0752 75.6943 82.7217 75.6943C81.6553 75.6943 80.9258 76.1484 80.5332 77.0566V84H78.9072V74.4902H80.4453ZM98.6475 84.1758C97.3584 84.1758 96.3096 83.7539 95.501 82.9102C94.6924 82.0605 94.2881 80.9268 94.2881 79.5088V79.21C94.2881 78.2666 94.4668 77.4258 94.8242 76.6875C95.1875 75.9434 95.6914 75.3633 96.3359 74.9473C96.9863 74.5254 97.6895 74.3145 98.4453 74.3145C99.6816 74.3145 100.643 74.7217 101.328 75.5361C102.014 76.3506 102.356 77.5166 102.356 79.0342V79.7109H95.9141C95.9375 80.6484 96.21 81.4072 96.7314 81.9873C97.2588 82.5615 97.9268 82.8486 98.7354 82.8486C99.3096 82.8486 99.7959 82.7314 100.194 82.4971C100.593 82.2627 100.941 81.9521 101.24 81.5654L102.233 82.3389C101.437 83.5635 100.241 84.1758 98.6475 84.1758ZM98.4453 75.6504C97.7891 75.6504 97.2383 75.8906 96.793 76.3711C96.3477 76.8457 96.0723 77.5137 95.9668 78.375H100.73V78.252C100.684 77.4258 100.461 76.7871 100.062 76.3359C99.6641 75.8789 99.125 75.6504 98.4453 75.6504Z" fill="white"/>
</svg>
