<svg width="568" height="518" viewBox="0 0 568 518" fill="none" xmlns="http://www.w3.org/2000/svg">
<rect x="42.5991" y="34.0239" width="119.258" height="29.1317" rx="14.5659" transform="rotate(45 42.5991 34.0239)" fill="#3A61F0"/>
<circle cx="423.462" cy="503.435" r="14.5659" fill="#3A61F0"/>
<circle cx="113.941" cy="470.664" r="7.28293" fill="#F0B50F"/>
<circle cx="457.148" cy="494.333" r="7.28293" fill="#F0B50F"/>
<circle cx="458.971" cy="19.118" r="3.64147" fill="#3A61F0"/>
<circle cx="99.3788" cy="457.006" r="3.64147" fill="#3A61F0"/>
<rect x="71.7593" y="424.234" width="30.0421" height="7.28293" rx="3.64147" transform="rotate(45 71.7593 424.234)" fill="#3A61F0"/>
<path d="M142.16 175.7H499.934C499.934 175.7 533.717 248.004 533.717 294.357C533.717 340.711 481.282 443.864 481.282 443.864C481.282 443.864 368.748 497.8 305.773 504.805C242.799 511.809 176.697 443.864 176.697 443.864C176.697 443.864 130.511 415.651 125.048 373.232C119.584 330.813 142.16 175.7 142.16 175.7Z" fill="url(#paint0_linear)"/>
<g filter="url(#filter0_d)">
<circle cx="473.527" cy="430.603" r="29.1317" fill="white" fill-opacity="0.5"/>
</g>
<path fill-rule="evenodd" clip-rule="evenodd" d="M473.522 419.678L484.446 427.871H462.598L473.522 419.678ZM468.968 438.795H465.326V428.781H468.968V438.795ZM475.348 428.781H471.707V438.795H475.348V428.781ZM478.077 428.781H481.718V438.795H478.077V428.781ZM483.542 439.707H463.514V441.528H483.542V439.707Z" fill="#3A61F0"/>
<mask id="mask0" mask-type="alpha" maskUnits="userSpaceOnUse" x="56" y="44" width="432" height="322">
<path d="M60.1575 188.62C86.1927 133.001 99.2102 105.192 106.402 96.1925C116.147 83.9986 115.866 84.255 128.911 75.6833C138.539 69.357 159.209 61.9308 200.55 47.0783C205.653 45.2449 211.233 44.2188 217.331 44.2188C257.558 44.2188 360.874 58.8854 418.662 67.592C424.796 68.5163 427.863 68.9784 441.92 76.1567C447.906 79.2138 469.759 97.1474 473.925 102.422C483.708 114.808 479.77 103.881 481.345 108.252C486.491 122.53 489.739 141.451 486.867 165.369C483.838 190.595 420.829 199.552 406.484 242.312C386.454 302.02 362.494 365.059 299.517 365.059H205.958C162.128 365.059 140.213 365.059 120.999 356.272C105.228 349.06 89.0326 335.001 79.6749 320.401C68.2742 302.613 65.5639 283.526 60.1434 245.351C57.9319 229.775 56.498 215.492 56.498 204.639C56.498 198.943 57.824 193.605 60.1575 188.62Z" fill="white"/>
</mask>
<g mask="url(#mask0)">
<path fill-rule="evenodd" clip-rule="evenodd" d="M-105.897 259.339C-107.319 260.761 -107.319 263.067 -105.897 264.489C-104.475 265.911 -102.169 265.911 -100.747 264.489L310.594 -146.852C312.016 -148.274 312.016 -150.58 310.594 -152.002C309.172 -153.424 306.866 -153.424 305.444 -152.002L-105.897 259.339ZM-90.4459 274.793C-91.868 276.215 -91.868 278.521 -90.4459 279.943C-89.0238 281.365 -86.7182 281.365 -85.2961 279.943L326.045 -131.398C327.467 -132.821 327.467 -135.126 326.045 -136.548C324.623 -137.97 322.317 -137.97 320.895 -136.548L-90.4459 274.793ZM-74.9846 295.393C-76.4067 293.971 -76.4067 291.665 -74.9846 290.243L336.357 -121.098C337.779 -122.52 340.084 -122.52 341.506 -121.098C342.929 -119.676 342.929 -117.371 341.506 -115.949L-69.8348 295.393C-71.2569 296.815 -73.5625 296.815 -74.9846 295.393ZM-59.5413 305.689C-60.9634 307.111 -60.9634 309.417 -59.5413 310.839C-58.1192 312.261 -55.8136 312.261 -54.3915 310.839L356.95 -100.502C358.372 -101.924 358.372 -104.23 356.95 -105.652C355.528 -107.074 353.222 -107.074 351.8 -105.652L-59.5413 305.689ZM-44.0838 326.291C-45.5059 324.869 -45.5059 322.563 -44.0838 321.141L367.258 -90.2004C368.68 -91.6224 370.985 -91.6224 372.407 -90.2003C373.829 -88.7783 373.829 -86.4726 372.407 -85.0506L-38.934 326.291C-40.356 327.713 -42.6617 327.713 -44.0838 326.291ZM-28.6433 336.595C-30.0654 338.017 -30.0654 340.322 -28.6433 341.744C-27.2212 343.167 -24.9155 343.167 -23.4935 341.744L387.848 -69.5968C389.27 -71.0189 389.27 -73.3245 387.848 -74.7466C386.426 -76.1687 384.12 -76.1687 382.698 -74.7466L-28.6433 336.595ZM-13.1895 357.189C-14.6116 355.767 -14.6116 353.461 -13.1895 352.039L398.152 -59.3024C399.574 -60.7244 401.879 -60.7244 403.301 -59.3023C404.724 -57.8802 404.724 -55.5746 403.302 -54.1525L-8.03974 357.189C-9.46182 358.611 -11.7675 358.611 -13.1895 357.189ZM2.25756 367.489C0.835483 368.911 0.835484 371.217 2.25756 372.639C3.67964 374.061 5.98529 374.061 7.40737 372.639L418.749 -38.7026C420.171 -40.1247 420.171 -42.4303 418.749 -43.8524C417.327 -45.2745 415.021 -45.2745 413.599 -43.8524L2.25756 367.489ZM17.7085 388.085C16.2864 386.663 16.2864 384.357 17.7085 382.935L429.05 -28.4062C430.472 -29.8283 432.777 -29.8283 434.2 -28.4062C435.622 -26.9841 435.622 -24.6785 434.2 -23.2564L22.8583 388.085C21.4362 389.507 19.1305 389.507 17.7085 388.085ZM33.1518 398.387C31.7297 399.809 31.7297 402.115 33.1518 403.537C34.5739 404.959 36.8795 404.959 38.3016 403.537L449.643 -7.80458C451.065 -9.22664 451.065 -11.5323 449.643 -12.9544C448.221 -14.3765 445.915 -14.3765 444.493 -12.9544L33.1518 398.387ZM48.6065 418.987C47.1844 417.565 47.1844 415.259 48.6065 413.837L459.948 2.49556C461.37 1.07349 463.675 1.07347 465.098 2.49555C466.52 3.91763 466.52 6.2233 465.098 7.64537L53.7563 418.987C52.3342 420.409 50.0285 420.409 48.6065 418.987ZM64.0574 429.287C62.6353 430.709 62.6353 433.015 64.0574 434.437C65.4794 435.859 67.7851 435.859 69.2072 434.437L480.548 23.0953C481.971 21.6733 481.971 19.3676 480.548 17.9455C479.126 16.5234 476.821 16.5234 475.399 17.9455L64.0574 429.287ZM79.5111 449.885C78.089 448.463 78.089 446.157 79.5111 444.735L490.852 33.3936C492.274 31.9715 494.58 31.9715 496.002 33.3936C497.424 34.8157 497.424 37.1213 496.002 38.5434L84.6609 449.885C83.2388 451.307 80.9332 451.307 79.5111 449.885ZM94.9582 460.187C93.5362 461.609 93.5362 463.914 94.9582 465.337C96.3803 466.759 98.686 466.759 100.108 465.337L511.449 53.9952C512.871 52.5732 512.871 50.2675 511.449 48.8455C510.027 47.4234 507.722 47.4234 506.3 48.8454L94.9582 460.187ZM110.405 480.783C108.983 479.361 108.983 477.055 110.405 475.633L521.747 64.2916C523.169 62.8695 525.474 62.8695 526.896 64.2916C528.318 65.7137 528.318 68.0193 526.896 69.4414L115.555 480.783C114.133 482.205 111.827 482.205 110.405 480.783ZM125.852 491.087C124.43 492.509 124.43 494.814 125.852 496.236C127.275 497.658 129.58 497.658 131.002 496.236L542.344 84.8951C543.766 83.4731 543.766 81.1674 542.344 79.7453C540.921 78.3232 538.616 78.3233 537.194 79.7453L125.852 491.087ZM141.3 511.681C139.878 510.259 139.878 507.953 141.3 506.531L552.641 95.1896C554.063 93.7676 556.369 93.7675 557.791 95.1896C559.213 96.6117 559.213 98.9174 557.791 100.339L146.449 511.681C145.027 513.103 142.722 513.103 141.3 511.681ZM156.75 521.983C155.328 523.405 155.328 525.71 156.75 527.133C158.173 528.555 160.478 528.555 161.9 527.133L573.242 115.791C574.664 114.369 574.664 112.064 573.242 110.641C571.819 109.219 569.514 109.219 568.092 110.641L156.75 521.983ZM172.201 542.582C170.779 541.16 170.779 538.855 172.201 537.433L583.543 126.091C584.965 124.669 587.27 124.669 588.692 126.091C590.115 127.513 590.115 129.819 588.692 131.241L177.351 542.582C175.929 544.005 173.623 544.005 172.201 542.582ZM187.655 552.886C186.233 554.308 186.233 556.614 187.655 558.036C189.077 559.458 191.383 559.458 192.805 558.036L604.146 146.695C605.568 145.273 605.568 142.967 604.146 141.545C602.724 140.123 600.418 140.123 598.996 141.545L187.655 552.886Z" fill="#373E68" fill-opacity="0.7"/>
</g>
<g opacity="0.91">
<ellipse cx="313.531" cy="272.848" rx="192.552" ry="172.707" fill="#E7F1FF" fill-opacity="0.69"/>
<mask id="mask1" mask-type="alpha" maskUnits="userSpaceOnUse" x="120" y="0" width="410" height="446">
<path fill-rule="evenodd" clip-rule="evenodd" d="M407.077 121.856C408.866 113.909 409.82 105.563 409.82 96.9541C409.82 43.4078 372.933 0 327.432 0C281.93 0 245.043 43.4078 245.043 96.9541C245.043 101.756 245.34 106.476 245.913 111.091C172.926 135.647 120.979 198.807 120.979 272.848C120.979 368.231 207.188 445.555 313.532 445.555C418.836 445.555 504.398 369.735 506.06 275.639C507.034 275.771 508.031 275.84 509.046 275.84C520.108 275.84 529.074 267.688 529.074 257.632C529.074 247.577 520.108 239.425 509.046 239.425C506.822 239.425 504.682 239.755 502.683 240.363C491.861 189.362 456.034 146.309 407.077 121.856Z" fill="white"/>
</mask>
<g mask="url(#mask1)">
</g>
</g>
<g filter="url(#filter1_bd)">
<rect x="24.7251" y="265.824" width="154.762" height="101.961" rx="13" fill="#3A61F0" fill-opacity="0.24"/>
<rect x="25.2251" y="266.324" width="153.762" height="100.961" rx="12.5" stroke="white" stroke-opacity="0.08"/>
</g>
<path d="M48.2154 279.721C49.453 279.007 50.9778 279.007 52.2154 279.721L57.6762 282.874C58.9138 283.588 59.6762 284.909 59.6762 286.338V292.644C59.6762 294.073 58.9138 295.393 57.6762 296.108L52.2154 299.261C50.9778 299.975 49.453 299.975 48.2154 299.261L42.7546 296.108C41.517 295.393 40.7546 294.073 40.7546 292.644V286.338C40.7546 284.909 41.517 283.588 42.7546 282.874L48.2154 279.721Z" fill="#F0B50F"/>
<rect x="39.291" y="324.998" width="25.4903" height="7.28293" rx="3.64147" fill="#B1C2FF"/>
<rect x="39.291" y="344.116" width="40.0561" height="7.28293" rx="3.64147" fill="#92ACD7"/>
<circle cx="161.279" cy="348.668" r="4.55183" fill="white"/>
<rect x="68.4189" y="324.998" width="25.4903" height="7.28293" rx="3.64147" fill="#B1C2FF"/>
<rect x="97.5586" y="324.998" width="25.4903" height="7.28293" rx="3.64147" fill="#B1C2FF"/>
<rect x="126.69" y="324.998" width="25.4903" height="7.28293" rx="3.64147" fill="#B1C2FF"/>
<g filter="url(#filter2_d)">
<rect x="388.873" y="153.853" width="154.762" height="72.8293" rx="36.4147" fill="#97B6E0"/>
</g>
<circle cx="424.363" cy="190.268" r="29.1317" fill="url(#paint1_linear)"/>
<path fill-rule="evenodd" clip-rule="evenodd" d="M413.446 190.268C413.446 184.235 418.338 179.343 424.371 179.343C430.404 179.343 435.295 184.235 435.295 190.268C435.295 196.301 430.404 201.192 424.371 201.192C418.338 201.192 413.446 196.301 413.446 190.268ZM417.31 196.016C418.981 198.064 421.522 199.376 424.365 199.376C427.21 199.376 429.752 198.063 431.423 196.012C431.185 195.478 430.705 195.11 429.72 194.882C429.693 194.876 429.667 194.87 429.64 194.864C427.583 194.389 425.701 193.955 426.631 192.201C429.494 186.792 427.389 183.899 424.365 183.899C421.281 183.899 419.227 186.903 422.099 192.201C423.049 193.951 421.136 194.392 419.138 194.852C419.096 194.862 419.053 194.872 419.01 194.882C418.023 195.11 417.546 195.481 417.31 196.016Z" fill="#97B6E0"/>
<rect x="461.694" y="168.418" width="47.3391" height="10.9244" rx="5.4622" fill="#F0B50F"/>
<rect x="465.336" y="189.88" width="54.622" height="7.28293" rx="3.64147" fill="#D7DFFF"/>
<rect x="461.694" y="202.624" width="40.0561" height="7.28293" rx="3.64147" fill="#D7DFFF"/>
<path d="M419.053 343.749C413.395 354.293 407.713 369.37 408.214 379.421L349.754 365.618C349.754 365.618 351.557 357.354 365.575 347.174C376.612 339.159 392.6 319.715 403.592 303.506C404.068 302.813 404.956 302.65 405.617 303.12L408.751 305.383C409.233 305.731 409.86 305.294 409.781 304.682L408.7 296.718C408.625 296.144 408.743 295.558 409.035 295.077C409.817 293.798 410.541 292.571 411.202 291.395C413.226 287.818 415.223 284.036 417.118 280.297C417.365 279.806 417.917 279.607 418.384 279.835L421.329 281.254C421.931 281.543 422.548 280.891 422.302 280.232L420.48 275.359C420.236 274.694 420.266 273.94 420.575 273.303C423.543 267.137 426.064 261.548 427.725 257.767C428.351 256.356 430.291 256.733 430.425 258.288C430.976 264.589 431.728 275.782 431.635 289.068C431.617 291.348 431.524 293.661 431.356 295.985C430.009 314.758 424.094 334.362 419.053 343.749Z" fill="#0D3A80"/>
<path d="M404.644 337.738C393.984 356.77 384.258 367.664 379.248 372.586L380.587 372.901C385.824 367.653 395.296 356.78 405.609 338.375C421.128 310.667 428.289 275.487 428.36 275.13L427.26 274.871C427.188 275.226 420.067 310.211 404.644 337.738Z" fill="url(#paint2_linear)"/>
<path d="M207.425 343.757C213.083 354.301 218.765 369.378 218.264 379.429L276.724 365.625C276.724 365.625 274.921 357.362 260.902 347.181C249.866 339.167 233.878 319.723 222.886 303.514C222.41 302.821 221.521 302.657 220.86 303.128L217.727 305.391C217.244 305.739 216.617 305.301 216.697 304.69L217.778 296.726C217.852 296.152 217.735 295.565 217.443 295.085C216.661 293.806 215.936 292.579 215.276 291.403C213.252 287.826 211.254 284.044 209.359 280.305C209.112 279.814 208.56 279.615 208.093 279.843L205.149 281.262C204.546 281.551 203.93 280.898 204.176 280.24L205.997 275.367C206.242 274.702 206.212 273.948 205.902 273.31C202.935 267.145 200.413 261.556 198.753 257.775C198.127 256.364 196.186 256.741 196.053 258.296C195.501 264.596 194.75 275.79 194.842 289.076C194.861 291.355 194.953 293.669 195.122 295.993C196.468 314.766 202.384 334.37 207.425 343.757Z" fill="#0D3A80"/>
<path d="M198.138 275.134C198.21 275.49 205.37 310.67 220.89 338.378C231.202 356.783 240.674 367.656 245.912 372.905L247.251 372.589C242.24 367.667 232.515 356.773 221.854 337.741C206.432 310.214 199.31 275.23 199.239 274.874L198.138 275.134Z" fill="url(#paint3_linear)"/>
<path d="M209.716 408.319L164.393 333.139L200.982 307.132L246.305 382.312L209.716 408.319Z" fill="#31219F"/>
<path d="M240.126 381.722L211.697 401.929L170.585 333.734L199.014 313.527L240.126 381.722Z" fill="#31219F"/>
<path d="M204.345 322.381C199.843 325.581 193.798 324.212 190.85 319.322L199.007 313.524L204.345 322.381Z" fill="#31219F"/>
<path d="M175.924 342.584L170.585 333.728L178.741 327.93C181.689 332.82 180.427 339.383 175.924 342.584Z" fill="#31219F"/>
<path d="M240.123 381.716L231.966 387.514C229.019 382.624 230.283 376.066 234.787 372.865L240.123 381.716Z" fill="#31219F"/>
<path d="M219.856 396.128L211.7 401.925L206.364 393.074C210.867 389.873 216.909 391.239 219.856 396.128Z" fill="#31219F"/>
<path d="M211.225 367.462C206.271 370.983 199.627 369.477 196.385 364.099C193.142 358.72 194.529 351.505 199.483 347.985C204.436 344.464 211.081 345.969 214.323 351.348C217.566 356.727 216.179 363.942 211.225 367.462Z" fill="#31219F"/>
<path d="M217.892 378.526C216.181 379.742 213.886 379.222 212.766 377.364C211.646 375.507 212.126 373.015 213.836 371.799C215.547 370.583 217.842 371.103 218.962 372.961C220.081 374.818 219.602 377.31 217.892 378.526Z" fill="#31219F"/>
<path d="M196.86 343.642C195.149 344.858 192.855 344.338 191.735 342.48C190.615 340.623 191.094 338.131 192.805 336.915C194.516 335.699 196.81 336.219 197.93 338.077C199.05 339.934 198.571 342.426 196.86 343.642Z" fill="#31219F"/>
<path d="M218.812 405.225L161.614 343.05L191.875 310.228L249.072 372.404L218.812 405.225Z" fill="#0D3A80"/>
<path d="M243.048 373.175L219.536 398.676L167.652 342.277L191.164 316.776L243.048 373.175Z" fill="url(#paint4_linear)"/>
<path d="M197.903 324.099C194.178 328.139 188.14 328.135 184.419 324.091L191.165 316.775L197.903 324.099Z" fill="#0D3A80"/>
<path d="M174.39 349.596L167.652 342.272L174.398 334.955C178.118 338.999 178.115 345.557 174.39 349.596Z" fill="#0D3A80"/>
<path d="M243.042 373.174L236.296 380.49C232.576 376.446 232.583 369.893 236.307 365.854L243.042 373.174Z" fill="#0D3A80"/>
<path d="M226.288 391.359L219.543 398.676L212.808 391.355C216.532 387.316 222.567 387.316 226.288 391.359Z" fill="#0D3A80"/>
<path d="M212.761 365.78C208.664 370.223 202.026 370.22 197.933 365.771C193.841 361.323 193.845 354.115 197.942 349.671C202.038 345.228 208.677 345.232 212.769 349.68C216.861 354.128 216.857 361.337 212.761 365.78Z" fill="#0D3A80"/>
<path d="M221.173 374.928C219.758 376.463 217.466 376.461 216.053 374.925C214.639 373.389 214.64 370.899 216.055 369.365C217.47 367.83 219.763 367.832 221.176 369.368C222.589 370.904 222.588 373.393 221.173 374.928Z" fill="#0D3A80"/>
<path d="M194.64 346.076C193.225 347.611 190.932 347.609 189.519 346.073C188.105 344.537 188.107 342.047 189.521 340.513C190.936 338.978 193.229 338.98 194.642 340.516C196.056 342.052 196.054 344.542 194.64 346.076Z" fill="#0D3A80"/>
<path d="M416.77 408.319L462.093 333.139L425.504 307.132L380.181 382.312L416.77 408.319Z" fill="#31219F"/>
<path d="M386.37 381.722L414.799 401.929L455.911 333.734L427.482 313.527L386.37 381.722Z" fill="#31219F"/>
<path d="M422.148 322.379C426.652 325.58 432.696 324.21 435.644 319.32L427.488 313.522L422.148 322.379Z" fill="#31219F"/>
<path d="M450.564 342.591L455.903 333.735L447.747 327.938C444.799 332.827 446.061 339.39 450.564 342.591Z" fill="#31219F"/>
<path d="M386.37 381.716L394.526 387.514C397.473 382.624 396.209 376.066 391.706 372.865L386.37 381.716Z" fill="#31219F"/>
<path d="M406.634 396.124L414.79 401.921L420.126 393.07C415.623 389.869 409.582 391.235 406.634 396.124Z" fill="#31219F"/>
<path d="M415.266 367.466C420.219 370.987 426.864 369.481 430.107 364.102C433.349 358.724 431.962 351.509 427.008 347.988C422.055 344.468 415.411 345.973 412.168 351.352C408.925 356.731 410.312 363.945 415.266 367.466Z" fill="#31219F"/>
<path d="M408.589 378.523C410.3 379.739 412.595 379.219 413.714 377.361C414.834 375.503 414.355 373.012 412.644 371.795C410.934 370.58 408.639 371.1 407.519 372.957C406.399 374.815 406.878 377.307 408.589 378.523Z" fill="#31219F"/>
<path d="M429.622 343.646C431.333 344.862 433.628 344.341 434.748 342.484C435.868 340.627 435.389 338.135 433.678 336.919C431.967 335.703 429.672 336.223 428.552 338.081C427.433 339.938 427.911 342.43 429.622 343.646Z" fill="#31219F"/>
<path d="M407.665 405.225L464.863 343.05L434.603 310.228L377.405 372.404L407.665 405.225Z" fill="#0D3A80"/>
<path d="M383.432 373.173L406.943 398.674L458.826 342.275L435.315 316.774L383.432 373.173Z" fill="url(#paint5_linear)"/>
<path d="M428.584 324.097C432.309 328.137 438.348 328.133 442.068 324.089L435.323 316.773L428.584 324.097Z" fill="#0D3A80"/>
<path d="M452.089 349.596L458.827 342.272L452.081 334.955C448.361 338.999 448.365 345.557 452.089 349.596Z" fill="#0D3A80"/>
<path d="M383.432 373.174L390.177 380.49C393.897 376.446 393.89 369.893 390.166 365.854L383.432 373.174Z" fill="#0D3A80"/>
<path d="M400.21 391.358L406.955 398.674L413.69 391.353C409.965 387.314 403.93 387.314 400.21 391.358Z" fill="#0D3A80"/>
<path d="M413.725 365.78C417.822 370.223 424.46 370.22 428.552 365.771C432.645 361.323 432.641 354.115 428.544 349.671C424.448 345.228 417.809 345.232 413.717 349.68C409.625 354.128 409.629 361.337 413.725 365.78Z" fill="#0D3A80"/>
<path d="M405.316 374.93C406.731 376.465 409.023 376.463 410.437 374.927C411.85 373.391 411.849 370.901 410.434 369.367C409.019 367.832 406.726 367.834 405.313 369.37C403.9 370.906 403.901 373.395 405.316 374.93Z" fill="#0D3A80"/>
<path d="M431.845 346.078C433.26 347.613 435.552 347.611 436.965 346.075C438.378 344.539 438.377 342.049 436.962 340.515C435.548 338.98 433.255 338.981 431.842 340.518C430.429 342.054 430.43 344.544 431.845 346.078Z" fill="#0D3A80"/>
<path d="M489.774 387.518C487.357 391.441 484.086 395.084 479.938 398.387C453.803 419.199 340.071 417.616 314.572 417.616C314.572 417.616 172.686 419.199 146.551 398.387C142.404 395.084 139.133 391.441 136.715 387.518H489.774Z" fill="url(#paint6_linear)"/>
<path d="M438.383 174.086H435.731C436.015 173.404 436.177 172.649 436.177 171.852C436.177 168.852 433.937 166.42 431.175 166.42C428.486 166.42 426.299 168.725 426.183 171.613C425.58 170.606 424.536 169.939 423.347 169.939C421.479 169.939 419.965 171.583 419.965 173.611C419.965 173.773 419.977 173.93 419.996 174.086H417.759C416.946 174.086 416.286 174.802 416.286 175.685C416.286 176.568 416.946 177.284 417.759 177.284H438.383C439.196 177.284 439.855 176.568 439.855 175.685C439.855 174.802 439.196 174.086 438.383 174.086Z" fill="white"/>
<path d="M270.378 159.703L224.803 183.016H315.954H407.104L361.529 159.703L315.954 136.391L270.378 159.703Z" fill="url(#paint7_linear)"/>
<path d="M315.941 183.017H238.265L277.103 163.151L315.941 143.285L354.779 163.151L393.617 183.017H315.941Z" fill="url(#paint8_linear)"/>
<path d="M393.614 183.02H385.203L354.777 167.458L315.94 147.592L277.103 167.458L246.678 183.02H238.267L277.103 163.155L315.94 143.29L393.614 183.02Z" fill="url(#paint9_linear)"/>
<path d="M326.323 168.494C326.323 174.723 321.672 179.772 315.937 179.772C310.2 179.772 305.55 174.723 305.55 168.494C305.55 162.266 310.2 157.217 315.937 157.217C321.672 157.217 326.323 162.266 326.323 168.494Z" fill="url(#paint10_linear)"/>
<path d="M305.545 165.426C305.545 171.655 310.195 176.704 315.931 176.704C321.667 176.704 326.317 171.655 326.317 165.426C326.317 159.198 321.667 154.148 315.931 154.148C310.195 154.148 305.545 159.198 305.545 165.426Z" fill="url(#paint11_linear)"/>
<path d="M308.136 165.415C308.136 170.082 311.621 173.865 315.919 173.865C320.217 173.865 323.701 170.082 323.701 165.415C323.701 160.747 320.217 156.964 315.919 156.964C311.621 156.964 308.136 160.747 308.136 165.415Z" fill="url(#paint12_linear)"/>
<path d="M315.49 160.054V161.323C313.828 161.528 313.018 162.567 313.018 163.78C313.018 163.937 313.031 164.082 313.053 164.217C313.152 164.806 313.455 165.201 313.854 165.482C314.32 165.817 314.922 165.992 315.49 166.143V168.051C315.173 168.019 314.857 167.947 314.558 167.84C314.14 167.694 313.756 167.487 313.449 167.241L312.872 168.634C313.038 168.776 313.241 168.906 313.469 169.022C314.03 169.308 314.751 169.501 315.49 169.55V170.794H316.544V169.516C318.195 169.298 318.996 168.27 318.996 167.081C318.996 165.783 318.16 165.256 317.226 164.943C317 164.869 316.77 164.808 316.544 164.75V162.808C317.07 162.876 317.617 163.072 318.154 163.402L318.68 161.996C318.351 161.768 317.961 161.597 317.539 161.48C317.222 161.388 316.885 161.329 316.544 161.299V160.054H315.49ZM315.007 164.229C314.822 164.096 314.712 163.923 314.712 163.687C314.712 163.312 314.933 162.979 315.49 162.841V164.465C315.301 164.399 315.135 164.324 315.007 164.229ZM316.544 166.43C316.997 166.601 317.301 166.819 317.301 167.219C317.301 167.583 317.07 167.88 316.544 168.007V166.43Z" fill="url(#paint13_linear)"/>
<path d="M215.566 189.87H416.253V183.021H215.566V189.87Z" fill="url(#paint14_linear)"/>
<path d="M207.734 208.901H424.099V195.269H207.734V208.901Z" fill="url(#paint15_linear)"/>
<path d="M211.421 208.899L214.206 216.407H417.587L420.417 208.899H211.421Z" fill="url(#paint16_linear)"/>
<path d="M219.947 195.261H411.87V189.861H219.947V195.261Z" fill="url(#paint17_linear)"/>
<path d="M231.303 368.168H400.604V216.413H231.303V368.168Z" fill="url(#paint18_linear)"/>
<path d="M307.467 267.121C296.699 267.121 287.969 276.6 287.969 288.292V368.166H343.9V288.292C343.9 276.6 335.171 267.121 324.403 267.121H307.467Z" fill="url(#paint19_linear)"/>
<path d="M220 216.399V235.81C220 236.292 220.359 236.683 220.803 236.683H241.758C242.201 236.683 242.561 236.292 242.561 235.81V216.399H220Z" fill="url(#paint20_linear)"/>
<path d="M239.489 239.387H223.073L221.941 236.687H240.621L239.489 239.387Z" fill="#6456C5"/>
<path d="M223.062 355.588H239.519V239.395H223.062V355.588Z" fill="url(#paint21_linear)"/>
<path d="M220.422 355.589C219.714 355.589 219.113 356.153 219.011 356.914L217.491 368.168H245.107L243.587 356.914C243.485 356.153 242.883 355.589 242.175 355.589H220.422Z" fill="url(#paint22_linear)"/>
<path d="M232.204 352.424H230.394V242.454H232.204V352.424Z" fill="url(#paint23_linear)"/>
<path d="M236.74 352.424H234.931V242.454H236.74V352.424Z" fill="url(#paint24_linear)"/>
<path d="M227.677 352.425H225.868V242.454H227.677V352.425Z" fill="url(#paint25_linear)"/>
<path d="M272.839 216.403V235.814C272.839 236.296 273.198 236.687 273.642 236.687H294.597C295.04 236.687 295.4 236.296 295.4 235.814V216.403H272.839Z" fill="url(#paint26_linear)"/>
<path d="M292.322 239.389H275.907L274.774 236.689H293.454L292.322 239.389Z" fill="#6456C5"/>
<path d="M275.906 355.59H292.363V239.397H275.906V355.59Z" fill="url(#paint27_linear)"/>
<path d="M273.25 355.589C272.542 355.589 271.941 356.153 271.838 356.914L270.319 368.168H297.934L296.415 356.914C296.312 356.153 295.711 355.589 295.003 355.589H273.25Z" fill="url(#paint28_linear)"/>
<path d="M285.04 352.424H283.23V242.454H285.04V352.424Z" fill="url(#paint29_linear)"/>
<path d="M289.581 352.424H287.771V242.454H289.581V352.424Z" fill="url(#paint30_linear)"/>
<path d="M280.513 352.425H278.704V242.454H280.513V352.425Z" fill="url(#paint31_linear)"/>
<path d="M386.881 216.407V235.818C386.881 236.299 387.24 236.69 387.684 236.69H408.639C409.082 236.69 409.442 236.299 409.442 235.818V216.407H386.881Z" fill="url(#paint32_linear)"/>
<path d="M406.364 239.395H389.948L388.816 236.694H407.496L406.364 239.395Z" fill="#6456C5"/>
<path d="M389.941 355.588H406.397V239.395H389.941V355.588Z" fill="url(#paint33_linear)"/>
<path d="M387.294 355.591C386.586 355.591 385.985 356.155 385.882 356.916L384.362 368.17H411.978L410.459 356.916C410.356 356.155 409.755 355.591 409.046 355.591H387.294Z" fill="url(#paint34_linear)"/>
<path d="M399.086 352.418H397.276V242.448H399.086V352.418Z" fill="#2012A4"/>
<path d="M403.623 352.418H401.813V242.448H403.623V352.418Z" fill="#2012A4"/>
<path d="M394.559 352.419H392.75V242.449H394.559V352.419Z" fill="#2012A4"/>
<path d="M334.035 216.407V235.818C334.035 236.299 334.395 236.69 334.839 236.69H355.793C356.237 236.69 356.597 236.299 356.597 235.818V216.407H334.035Z" fill="url(#paint35_linear)"/>
<path d="M353.536 239.391H337.12L335.988 236.69H354.668L353.536 239.391Z" fill="#6456C5"/>
<path d="M337.091 355.59H353.547V239.397H337.091V355.59Z" fill="url(#paint36_linear)"/>
<path d="M334.46 355.593C333.752 355.593 333.151 356.157 333.048 356.918L331.529 368.172H359.145L357.625 356.918C357.522 356.157 356.921 355.593 356.213 355.593H334.46Z" fill="url(#paint37_linear)"/>
<path d="M346.241 352.418H344.432V242.448H346.241V352.418Z" fill="url(#paint38_linear)"/>
<path d="M350.764 352.418H348.955V242.448H350.764V352.418Z" fill="url(#paint39_linear)"/>
<path d="M341.715 352.418H339.906V242.448H341.715V352.418Z" fill="url(#paint40_linear)"/>
<path d="M418.252 373.062H213.6V368.156H418.252V373.062Z" fill="url(#paint41_linear)"/>
<path d="M418.252 373.062H213.6V371.186H418.252V373.062Z" fill="url(#paint42_linear)"/>
<path d="M424.379 377.974H207.477V373.067H424.379V377.974Z" fill="url(#paint43_linear)"/>
<path d="M424.379 377.974H207.477V375.521H424.379V377.974Z" fill="url(#paint44_linear)"/>
<path d="M430.893 387.98H200.951V377.97H430.893V387.98Z" fill="url(#paint45_linear)"/>
<path d="M430.893 387.98H200.951V382.976H430.893V387.98Z" fill="url(#paint46_linear)"/>
<path d="M362.568 202.621C365.869 204.203 359.493 195.697 359.493 195.697C359.493 195.697 359.266 201.04 362.568 202.621Z" fill="url(#paint47_linear)"/>
<path d="M366.219 186.477C366.34 187.241 369.035 188.401 369.132 188.783C369.229 189.165 367.736 189.165 365.188 188.796C363.477 188.549 361.527 187.672 360.429 187.122C359.805 186.81 359.071 187.099 358.774 187.771C358.012 189.492 357.817 192.493 358.536 194.648C359.458 197.416 361.708 198.84 361.708 198.84L366.094 205.579C366.094 205.579 377.835 202.978 378.418 201.633C379.001 200.289 381.889 196.423 381.387 193.875C380.886 191.327 378.103 191.906 378.103 191.906C378.103 191.906 378.231 191.309 377.487 190.36C376.743 189.411 375.286 188.875 371.863 187.979C369.141 187.266 367.101 186.253 366.442 186.253C366.273 186.253 366.194 186.32 366.219 186.477Z" fill="url(#paint48_linear)"/>
<path d="M378.394 201.628C377.808 202.973 366.068 205.571 366.068 205.571L364.334 202.907C366.642 203.314 368.763 203.038 370.261 201.811C374.757 198.124 375.62 192.404 375.718 189.176C376.569 189.53 377.101 189.891 377.464 190.357C378.207 191.301 378.074 191.899 378.074 191.899C378.074 191.899 380.859 191.321 381.361 193.867C381.862 196.419 378.974 200.283 378.394 201.628Z" fill="#481380"/>
<path d="M371.043 199.828C370.768 199.88 370.865 199.406 371.221 198.774C371.577 198.141 371.868 197.139 371.577 197.385C371.286 197.632 369.182 199.529 366.609 199.828C364.035 200.127 361.688 198.836 361.688 198.836C361.688 198.836 362.061 207.015 362.757 210.864C363.453 214.712 367.499 213.755 367.499 213.755V217.919L370.268 221.425L377.088 217.208V205.847C378.617 204.872 379.661 201.208 378.01 201.049C376.359 200.891 375.299 203.255 375.299 203.255C373.536 202.306 373.309 197.385 373.001 197.347C372.999 197.347 372.997 197.347 372.994 197.347C372.673 197.347 371.316 199.775 371.043 199.828Z" fill="url(#paint49_linear)"/>
<path d="M367.527 213.755V217.919C373.418 217.919 373.903 209.792 373.903 209.792C371.67 212.744 367.527 213.755 367.527 213.755Z" fill="url(#paint50_linear)"/>
<path d="M394.06 302.752C392.135 302.752 390.575 304.447 390.575 306.537V307.849H391.783C391.783 305.758 393.344 304.064 395.269 304.064H401.807C403.732 304.064 405.292 305.758 405.292 307.849H406.5V306.537C406.5 304.447 404.94 302.752 403.015 302.752H394.06Z" fill="url(#paint51_linear)"/>
<path d="M396.706 293.996C396.706 293.996 395.838 296.344 395.135 297.873C394.431 299.401 393.921 300.746 394.552 301.51C395.183 302.275 396.057 303.303 396.057 303.303C396.057 303.303 396.154 305.816 396.478 306.132C396.801 306.448 397.885 306.273 398.323 305.57C398.323 305.57 398.922 305.956 399.472 305.833C400.022 305.71 400.411 305.007 400.411 305.007C400.411 305.007 401.236 305.007 401.576 304.497C401.576 304.497 402.822 303.917 402.903 302.74C402.984 301.563 403.275 296.818 403.081 295.623C402.887 294.428 402.165 292.914 402.165 292.914L396.706 293.996Z" fill="url(#paint52_linear)"/>
<path d="M379.855 307.846C379.09 307.846 378.47 308.519 378.47 309.349V335.512C378.47 336.343 379.09 337.017 379.855 337.017H417.14C417.905 337.017 418.525 336.343 418.525 335.512V309.349C418.525 308.519 417.905 307.846 417.14 307.846H379.855Z" fill="url(#paint53_linear)"/>
<path d="M380.457 307.848C379.359 307.848 378.47 308.813 378.47 310.005V318.152C378.47 319.343 379.359 320.309 380.457 320.309H416.538C417.636 320.309 418.525 319.343 418.525 318.152V310.005C418.525 308.813 417.636 307.848 416.538 307.848H380.457Z" fill="url(#paint54_linear)"/>
<path d="M399.572 326.914V324.178C400.357 324.475 400.886 324.853 400.886 325.546C400.886 326.179 400.483 326.693 399.572 326.914ZM396.907 320.362C396.585 320.13 396.395 319.83 396.395 319.42C396.395 318.77 396.779 318.193 397.745 317.955V320.771C397.416 320.655 397.13 320.526 396.907 320.362ZM400.754 321.6C400.364 321.47 399.965 321.365 399.572 321.264V317.895C400.483 318.014 401.434 318.354 402.365 318.928L403.276 316.489C402.706 316.093 402.03 315.797 401.298 315.593C400.748 315.432 400.164 315.331 399.572 315.279V313.12H397.745V315.321C394.862 315.678 393.457 317.479 393.457 319.581C393.457 319.854 393.48 320.106 393.518 320.341C393.689 321.362 394.214 322.047 394.907 322.534C395.715 323.115 396.759 323.419 397.745 323.681V326.99C397.194 326.935 396.647 326.808 396.128 326.623C395.403 326.371 394.736 326.011 394.205 325.584L393.203 328.001C393.492 328.246 393.843 328.474 394.24 328.673C395.213 329.17 396.463 329.506 397.745 329.589V331.748H399.572V329.53C402.436 329.152 403.824 327.368 403.824 325.308C403.824 323.055 402.374 322.142 400.754 321.6Z" fill="#073593"/>
<path d="M313.773 262.329C313.317 262.467 312.798 262.459 312.359 262.451C311.875 262.441 311.489 262.432 311.394 262.619C311.212 262.975 311.697 264.011 312.952 264.188C312.952 264.188 312.005 264.925 308.719 264.679C305.435 264.433 306.939 267.4 308.169 268.843C309.399 270.286 312.401 271.041 314.222 271.278C316.043 271.516 320.081 268.843 320.081 268.843C320.081 268.843 322.99 265.184 319.658 263.043C319.658 263.043 318.58 261.564 317.002 261.433C316.874 261.422 316.753 261.417 316.636 261.417C315.31 261.417 314.655 262.062 313.773 262.329Z" fill="url(#paint55_linear)"/>
<path d="M358.42 222.618C358.111 222.742 357.809 222.887 357.525 223.057C355.706 224.094 354.383 225.957 353.936 228.174L347.924 257.743L319.618 263.031C319.618 263.031 320.59 266.023 320.04 268.831L354.256 266.443C355.452 266.357 356.492 265.511 356.902 264.284L357.525 262.414L359.205 257.376L367.029 219.232L358.42 222.618Z" fill="url(#paint56_linear)"/>
<path d="M367.041 219.238L358.432 222.624C358.123 222.748 357.821 222.893 357.537 223.063V275.147C357.537 275.738 357.978 276.217 358.522 276.217H388.418C388.962 276.217 389.403 275.738 389.403 275.147V222.387L378.382 218.923L367.041 219.238Z" fill="url(#paint57_linear)"/>
<path d="M367.528 217.919L370.295 221.423L368.181 224.696L367.063 219.238L367.528 217.919Z" fill="white"/>
<path d="M378.404 218.924L372.942 225.222L370.296 221.423L377.117 217.212L378.404 218.924Z" fill="white"/>
<path d="M389.437 257.077V257.083L390.162 259.596L396.603 293.974C399.969 294.603 402.947 292.458 402.947 292.458L400.168 259.773L396.392 230.473C395.914 226.734 393.449 223.65 390.114 222.601L389.437 222.391L378.417 218.927L389.437 257.077Z" fill="url(#paint58_linear)"/>
<path d="M358.521 279.381H388.444V276.216H358.521V279.381Z" fill="url(#paint59_linear)"/>
<path d="M367.281 279.383H373.642V276.218H367.281V279.383Z" fill="url(#paint60_linear)"/>
<path d="M312.323 262.441C311.839 262.434 311.453 262.426 311.358 262.613C311.175 262.969 311.661 264.006 312.915 264.182C312.915 264.182 311.968 264.919 308.683 264.673C305.398 264.427 306.902 267.394 308.132 268.837C309.363 270.28 312.365 271.035 314.185 271.272C315.106 271.392 316.591 270.769 317.836 270.123C317.876 269.805 317.903 269.484 317.903 269.155C317.903 266.036 316.083 263.386 313.537 262.367C313.133 262.452 312.699 262.446 312.323 262.441Z" fill="url(#paint61_linear)"/>
<path d="M382.886 249.68C381.478 259.275 388.042 256.67 389.394 268.833V257.069L382.886 234.543C382.886 234.543 384.295 240.085 382.886 249.68Z" fill="url(#paint62_linear)"/>
<g opacity="0.25">
<g opacity="0.25">
<path opacity="0.25" d="M448.004 223.352L308.945 222.736L308.954 220.368L448.012 220.983L448.004 223.352Z" fill="white"/>
</g>
<g opacity="0.25">
<path opacity="0.25" d="M447.978 231.799L308.919 231.183L308.928 228.815L447.986 229.43L447.978 231.799Z" fill="white"/>
</g>
<g opacity="0.25">
<path opacity="0.25" d="M447.934 240.26L308.876 239.644L308.885 237.276L447.943 237.892L447.934 240.26Z" fill="white"/>
</g>
<g opacity="0.25">
<path opacity="0.25" d="M447.899 248.712L308.84 248.097L308.849 245.729L447.907 246.344L447.899 248.712Z" fill="white"/>
</g>
<g opacity="0.25">
<path opacity="0.25" d="M447.868 257.166L308.81 256.55L308.819 254.182L447.877 254.797L447.868 257.166Z" fill="white"/>
</g>
<g opacity="0.25">
<path opacity="0.25" d="M447.829 265.621L308.771 265.005L308.779 262.637L447.838 263.252L447.829 265.621Z" fill="white"/>
</g>
<g opacity="0.25">
<path opacity="0.25" d="M447.804 274.073L308.746 273.457L308.755 271.089L447.813 271.704L447.804 274.073Z" fill="white"/>
</g>
</g>
<path d="M355.17 252.438C353.228 258.869 357.254 263.277 351.286 266.669L354.267 266.461C355.463 266.376 356.503 265.529 356.913 264.303L357.535 262.432V237.571C357.535 237.571 357.112 246.006 355.17 252.438Z" fill="url(#paint63_linear)"/>
<path d="M350.313 387.992L350.228 391.574L350.017 400.995H358.512L359.805 391.574L360.294 387.992H350.313Z" fill="url(#paint64_linear)"/>
<path d="M358.541 279.375L352.046 329.341C351.744 331.625 351.575 333.921 351.521 336.223L350.342 387.98L350.258 391.562H359.835L360.324 387.98L367.073 338.776L381.573 279.375H358.541Z" fill="url(#paint65_linear)"/>
<g opacity="0.399994">
<g opacity="0.399994">
<path opacity="0.399994" d="M358.216 389.338L357.617 389.251L363.939 337.797L371.813 305.738L372.397 305.907L364.531 337.925L358.216 389.338Z" fill="white"/>
</g>
</g>
<path d="M369.967 326.93L373.501 312.706L369.055 291.093L369.967 326.93Z" fill="url(#paint66_linear)"/>
<path d="M366.642 279.375L389.003 388.065L389.717 391.522H399.173L398.846 388.065L388.46 279.375H366.642Z" fill="url(#paint67_linear)"/>
<g opacity="0.399994">
<g opacity="0.399994">
<path opacity="0.399994" d="M396.113 389.839L383.99 277.841L384.591 277.764L396.714 389.762L396.113 389.839Z" fill="white"/>
</g>
</g>
<g opacity="0.399994">
<g opacity="0.399994">
<path opacity="0.399994" d="M375.332 319.914L369.394 291.049V279.389H368.79V290.734C367.771 290.574 366.986 289.622 366.986 288.472V279.386H366.382V288.472C366.382 290.002 367.468 291.248 368.844 291.387L374.742 320.058L375.332 319.914Z" fill="white"/>
</g>
</g>
<path d="M389.002 388.077L389.715 391.534L391.661 400.995H400.077L399.171 391.534L398.845 388.077H389.002Z" fill="url(#paint68_linear)"/>
<path d="M349.31 387.975C349.068 387.975 348.875 388.184 348.875 388.447V391.084C348.875 391.347 349.068 391.557 349.31 391.557H360.899C361.14 391.557 361.334 391.347 361.334 391.084V388.447C361.334 388.184 361.14 387.975 360.899 387.975H349.31Z" fill="url(#paint69_linear)"/>
<path d="M388.099 388.065C387.845 388.065 387.633 388.295 387.633 388.57V391.017C387.633 391.299 387.845 391.522 388.099 391.522H399.844C400.104 391.522 400.31 391.299 400.31 391.017V388.57C400.31 388.295 400.104 388.065 399.844 388.065H388.099Z" fill="url(#paint70_linear)"/>
<g opacity="0.100006">
<g opacity="0.100006">
<path opacity="0.100006" d="M414.304 407.113C414.304 409.479 393.254 411.397 367.288 411.397C341.322 411.397 320.273 409.479 320.273 407.113C320.273 404.747 341.322 402.828 367.288 402.828C393.254 402.828 414.304 404.747 414.304 407.113Z" fill="black"/>
</g>
</g>
<path d="M347.217 396.147C345.373 397.777 342.691 400.029 340.673 401.24C337.273 403.279 334.49 404.403 333.778 405.387C333.556 405.695 333.498 405.999 333.522 406.272C333.579 406.882 334.097 407.32 334.662 407.32H359.09C359.966 407.32 360.676 406.549 360.676 405.598V398.189C360.676 397.197 359.677 396.589 358.9 397.111C357.906 397.779 356.643 398.575 355.513 399.133C354.765 399.502 353.886 399.32 353.316 398.678L351.304 396.414C350.713 395.749 349.922 395.409 349.126 395.409C348.453 395.409 347.777 395.653 347.217 396.147Z" fill="url(#paint71_linear)"/>
<path d="M346.917 399.428C346.748 398.81 346.459 398.392 346.057 398.188C345.342 397.824 344.485 398.215 344.476 398.219L344.238 397.617C344.282 397.596 345.352 397.105 346.314 397.593C346.878 397.881 347.277 398.435 347.497 399.241L346.917 399.428Z" fill="#481380"/>
<path d="M344.171 401.703C344.002 401.087 343.714 400.669 343.313 400.464C342.601 400.1 341.738 400.491 341.729 400.495L341.491 399.892C341.537 399.871 342.607 399.38 343.567 399.869C344.132 400.156 344.53 400.711 344.75 401.517L344.171 401.703Z" fill="#481380"/>
<path d="M341.414 403.981C341.246 403.364 340.957 402.947 340.556 402.742C339.845 402.377 338.981 402.768 338.972 402.773L338.734 402.17C338.779 402.149 339.851 401.659 340.809 402.146C341.374 402.434 341.773 402.989 341.993 403.795L341.414 403.981Z" fill="#481380"/>
<path d="M333.615 405.688C333.531 405.892 333.505 406.09 333.522 406.274C333.578 406.884 334.097 407.322 334.662 407.322H359.089C359.937 407.322 360.624 406.598 360.667 405.688H333.615Z" fill="url(#paint72_linear)"/>
<path d="M388.052 396.145C386.208 397.775 383.527 400.027 381.508 401.238C378.109 403.277 375.326 404.401 374.614 405.385C374.391 405.693 374.333 405.997 374.358 406.27C374.414 406.88 374.933 407.318 375.498 407.318H399.925C400.801 407.318 401.511 406.547 401.511 405.596V398.187C401.511 397.195 400.512 396.588 399.736 397.109C398.741 397.777 397.478 398.573 396.348 399.131C395.601 399.5 394.722 399.318 394.151 398.676L392.14 396.412C391.549 395.747 390.757 395.407 389.962 395.407C389.288 395.407 388.612 395.651 388.052 396.145Z" fill="url(#paint73_linear)"/>
<path d="M387.769 399.432C387.6 398.813 387.31 398.396 386.908 398.191C386.194 397.828 385.337 398.219 385.328 398.223L385.089 397.62C385.134 397.6 386.204 397.109 387.165 397.597C387.729 397.885 388.128 398.439 388.348 399.244L387.769 399.432Z" fill="#481380"/>
<path d="M385.002 401.703C384.833 401.087 384.546 400.669 384.145 400.464C383.433 400.1 382.569 400.491 382.561 400.495L382.323 399.892C382.368 399.871 383.439 399.38 384.398 399.869C384.963 400.156 385.361 400.711 385.582 401.517L385.002 401.703Z" fill="#481380"/>
<path d="M382.256 403.981C382.088 403.364 381.799 402.947 381.398 402.742C380.687 402.377 379.822 402.768 379.814 402.773L379.577 402.17C379.621 402.149 380.694 401.659 381.652 402.146C382.217 402.434 382.615 402.989 382.835 403.795L382.256 403.981Z" fill="#481380"/>
<path d="M374.448 405.684C374.365 405.888 374.338 406.086 374.355 406.27C374.412 406.88 374.931 407.318 375.495 407.318H399.923C400.771 407.318 401.458 406.594 401.501 405.684H374.448Z" fill="url(#paint74_linear)"/>
<path d="M306.778 203.506C303.893 203.506 301.555 206.045 301.555 209.177H331.712C331.712 206.045 329.374 203.506 326.489 203.506H306.778Z" fill="url(#paint75_linear)"/>
<path d="M306.773 203.501C306.083 203.501 305.425 203.65 304.822 203.914C306.739 204.754 308.094 206.79 308.094 209.172V238.472H331.708V209.172C331.708 206.04 329.369 203.501 326.485 203.501H306.773Z" fill="url(#paint76_linear)"/>
<path d="M318.398 216.479H311.028C310.623 216.479 310.294 216.122 310.294 215.682V207.68C310.294 207.24 310.623 206.883 311.028 206.883H318.398C318.803 206.883 319.131 207.24 319.131 207.68V215.682C319.131 216.122 318.803 216.479 318.398 216.479Z" fill="#C5C9ED"/>
<path d="M328.512 210.66H321.68C321.475 210.66 321.309 210.479 321.309 210.257V208.664C321.309 208.441 321.475 208.261 321.68 208.261H328.512C328.717 208.261 328.883 208.441 328.883 208.664V210.257C328.883 210.479 328.717 210.66 328.512 210.66Z" fill="#C5C9ED"/>
<path d="M328.512 215.104H321.68C321.475 215.104 321.309 214.923 321.309 214.701V213.108C321.309 212.885 321.475 212.705 321.68 212.705H328.512C328.717 212.705 328.883 212.885 328.883 213.108V214.701C328.883 214.923 328.717 215.104 328.512 215.104Z" fill="#C5C9ED"/>
<path d="M328.408 221.529H310.76C310.503 221.529 310.294 221.303 310.294 221.024V219.636C310.294 219.357 310.503 219.13 310.76 219.13H328.408C328.665 219.13 328.874 219.357 328.874 219.636V221.024C328.874 221.303 328.665 221.529 328.408 221.529Z" fill="#C5C9ED"/>
<path d="M328.408 225.981H310.76C310.503 225.981 310.294 225.755 310.294 225.476V224.087C310.294 223.808 310.503 223.582 310.76 223.582H328.408C328.665 223.582 328.874 223.808 328.874 224.087V225.476C328.874 225.755 328.665 225.981 328.408 225.981Z" fill="#C5C9ED"/>
<path d="M328.408 230.606H310.76C310.503 230.606 310.294 230.38 310.294 230.101V228.713C310.294 228.434 310.503 228.207 310.76 228.207H328.408C328.665 228.207 328.874 228.434 328.874 228.713V230.101C328.874 230.38 328.665 230.606 328.408 230.606Z" fill="#C5C9ED"/>
<path d="M328.409 235.054H310.76C310.503 235.054 310.295 234.828 310.295 234.549V233.161C310.295 232.882 310.503 232.655 310.76 232.655H328.409C328.665 232.655 328.874 232.882 328.874 233.161V234.549C328.874 234.828 328.665 235.054 328.409 235.054Z" fill="#C5C9ED"/>
<path d="M313.337 227.089C313.337 230.824 316.125 233.852 319.564 233.852C323.003 233.852 325.791 230.824 325.791 227.089C325.791 223.355 323.003 220.328 319.564 220.328C316.125 220.328 313.337 223.355 313.337 227.089Z" fill="url(#paint77_linear)"/>
<path d="M318.348 230.251L315.932 227.628L316.867 226.613L318.348 228.221L322.299 223.93L323.234 224.945L318.348 230.251Z" fill="white"/>
<g opacity="0.100006">
<g opacity="0.100006">
<path opacity="0.100006" d="M314.39 407.1C314.39 409.466 295.606 411.384 272.435 411.384C249.263 411.384 230.479 409.466 230.479 407.1C230.479 404.733 249.263 402.815 272.435 402.815C295.606 402.815 314.39 404.733 314.39 407.1Z" fill="black"/>
</g>
</g>
<path d="M244.294 403.269C244.036 404.589 244.963 405.834 246.207 405.834H269.324C270.35 405.834 270.875 404.504 270.171 403.695C269.557 402.989 268.604 402.222 267.129 401.581C263.245 399.894 256.998 395.677 255.768 393.919L246.414 392.443L244.294 403.269Z" fill="url(#paint78_linear)"/>
<path d="M279.852 403.263C279.593 404.584 280.521 405.828 281.764 405.828H304.882C305.907 405.828 306.432 404.499 305.728 403.69C305.114 402.983 304.162 402.216 302.687 401.575C298.803 399.888 292.555 395.671 291.326 393.914L281.971 392.437L279.852 403.263Z" fill="url(#paint79_linear)"/>
<path d="M265.066 273.262L280.263 393.603C285.798 396.819 291.77 393.603 291.77 393.603L284.196 273.262H265.066Z" fill="url(#paint80_linear)"/>
<path d="M278.448 274.536C278.448 274.536 279.059 283.205 285.07 286.981L284.287 274.536H278.448Z" fill="url(#paint81_linear)"/>
<path d="M250.718 273.266L245.41 392.763C245.41 392.763 249.424 397.402 256.803 394.169L275.156 273.266H250.718Z" fill="url(#paint82_linear)"/>
<path d="M250.399 281.046L249.45 302.393C251.221 299.012 253.948 295.134 257.897 292.706C266.139 287.639 268.478 275.531 268.478 275.531L250.399 281.046Z" fill="url(#paint83_linear)"/>
<path d="M273.428 284.662L272.979 335.975L269.646 309.582L273.428 284.662Z" fill="#070D59"/>
<path d="M265.933 270.353H280.208C280.208 270.353 277.806 222.184 273.233 215.332L263.481 214.997L265.933 270.353Z" fill="url(#paint84_linear)"/>
<path d="M270.535 223.497V264.138L274.185 269.409L276.855 264.349L271.066 223.403L270.535 223.497Z" fill="url(#paint85_linear)"/>
<path d="M266.159 273.971H280.688V270.351H266.159V273.971Z" fill="url(#paint86_linear)"/>
<path d="M271.721 273.971H276.858V270.351H271.721V273.971Z" fill="url(#paint87_linear)"/>
<path d="M258.916 217.147L252.246 220.283C249.623 221.516 247.913 224.311 247.883 227.414C247.877 228.123 247.865 228.877 247.859 229.651C247.822 233.758 247.775 238.508 247.738 240.798C247.672 245.299 247.382 269.828 246.995 277.209C246.729 282.215 246.288 285.18 246.034 286.571C245.944 287.056 246.312 287.496 246.766 287.437C250.294 286.991 262.885 284.898 267.901 277.419C268.263 276.868 268.457 276.212 268.451 275.536C268.426 272.531 268.336 262.947 267.816 251.971C267.472 244.53 266.934 236.448 266.1 229.343C265.435 223.668 264.577 218.616 263.478 215.001L258.916 217.147Z" fill="url(#paint88_linear)"/>
<path d="M257.898 248.241C259.248 256.594 265.162 254.201 268.189 261.891C268.099 258.835 267.977 255.47 267.811 251.961L252.608 234.959C253.043 235.454 256.503 239.619 257.898 248.241Z" fill="url(#paint89_linear)"/>
<path d="M252.626 234.963C252.596 234.928 252.579 234.91 252.579 234.91L252.626 234.963Z" fill="url(#paint90_linear)"/>
<path d="M268.226 262.858C268.133 259.552 268.003 255.844 267.819 251.959C267.475 244.519 266.937 236.437 266.103 229.332C265.439 223.657 264.58 218.606 263.481 214.99L261.741 215.809C261.365 217.065 260.842 218.769 260.477 219.781C260.477 219.781 262.632 220.79 263.441 221.669C263.441 221.669 260.754 222.794 259.88 222.969C259.88 222.969 266.634 254.949 268.226 262.858Z" fill="#4E6FB7"/>
<path d="M284.214 240.305L298.552 255.06C300.721 257.297 304.304 255.703 304.406 252.455L305.452 219.797C303.803 219.377 301.132 216.005 301.132 216.005L297.634 238.829L286.099 221.305C285.374 220.197 284.431 219.292 283.344 218.642C282.776 218.294 282.166 218.025 281.525 217.835L273.229 215.336L284.214 240.305Z" fill="url(#paint91_linear)"/>
<path d="M276.614 240.863C277.973 255.979 278.426 274.532 278.426 274.532C278.426 274.532 279.64 279.024 285.314 280.131C285.598 280.187 285.857 279.934 285.843 279.62C285.7 276.295 284.998 259.94 284.474 246.84C284.389 244.727 284.305 242.53 284.214 240.299C283.894 232.275 283.556 223.95 283.344 218.636C282.776 218.288 282.166 218.019 281.525 217.829L273.229 215.329C273.229 215.329 275.254 225.748 276.614 240.863Z" fill="url(#paint92_linear)"/>
<path d="M276.619 240.862C277.301 248.435 277.754 256.87 278.037 263.403V263.403C278.388 251.394 277.904 222.244 277.904 222.244C276.618 221.98 275.623 220.926 275.623 220.926C276.302 220.741 277.37 220.003 277.37 220.003C276.625 219.518 275.679 217.423 275.06 215.878L273.236 215.328C273.236 215.328 275.26 225.747 276.619 240.862Z" fill="#4E6FB7"/>
<path d="M252.275 220.263C249.644 221.499 247.94 224.303 247.912 227.415C247.906 228.117 247.895 228.865 247.888 229.632L267.845 251.951L268.917 253.15C269.911 254.262 271.114 255.126 272.446 255.683L300.967 267.624C300.967 267.624 301.572 263.537 302.883 262.218L276.316 246.617L266.13 229.323L258.945 217.127L252.275 220.263Z" fill="url(#paint93_linear)"/>
<path d="M268.9 221.967L270.548 223.49C270.714 223.643 270.967 223.598 271.08 223.396L272.233 221.321L270.541 219.073L268.9 221.967Z" fill="url(#paint94_linear)"/>
<path d="M250.494 270.835L250.434 269.854C254.647 269.546 260.065 267.197 260.119 267.174L260.457 268.087C260.231 268.186 254.854 270.517 250.494 270.835Z" fill="#4E6FB7"/>
<path d="M284.324 268.556C281.887 268.556 280.426 266.851 280.365 266.779L281.033 266.114C281.045 266.129 282.298 267.572 284.324 267.572V268.556Z" fill="#4E6FB7"/>
<path d="M298.911 266.772L300.951 267.626C300.951 267.626 301.555 263.539 302.866 262.22L301.708 261.54C300.961 262.373 299.591 264.316 298.911 266.772Z" fill="url(#paint95_linear)"/>
<path d="M300.659 219.243C301.476 219.848 303.092 220.846 305.424 221.425L305.477 219.789C303.827 219.369 301.157 215.997 301.157 215.997L300.659 219.243Z" fill="url(#paint96_linear)"/>
<path d="M284.233 240.295L288.959 245.158C288.782 242.577 289.641 240.009 287.312 237.133C284.021 233.07 283.66 226.023 283.658 225.977L284.233 240.295Z" fill="url(#paint97_linear)"/>
<path d="M301.132 215.996C302.177 219.081 305.452 219.788 305.452 219.788C305.768 219.417 307.09 219.066 308.088 218.868C309.086 218.671 309.724 218.262 310.161 217.498C310.598 216.733 311.084 216.008 311.763 215.415C312.443 214.822 311.278 214.413 310.197 215.165C309.117 215.916 307.944 216.118 307.507 215.996C307.07 215.874 306.787 214.282 307.418 213.254C307.553 213.033 307.796 212.757 308.088 212.462V209.405C305.035 211.855 301.132 215.996 301.132 215.996Z" fill="url(#paint98_linear)"/>
<path d="M302.879 262.236C300.427 262.762 300.963 267.642 300.963 267.642C301.565 267.599 303.356 269.406 304.975 270.408C306.593 271.41 310.672 272.218 311.642 272.447C312.614 272.675 313.989 273.36 314.022 272.657C314.054 271.955 312.905 271.094 312.905 271.094C314.087 271.445 316.369 272.341 316.53 271.603C316.692 270.865 315.527 269.916 315.527 269.916C315.527 269.916 317.469 270.725 317.76 270.039C318.052 269.354 316.66 268.405 316.66 268.405C317.695 268.422 317.825 267.702 317.485 267.404C317.145 267.104 311.092 264.469 311.092 264.469C312.225 264.328 312.601 263.607 312.286 263.291C311.97 262.975 309.15 262.817 307.062 261.675C306.538 261.388 306.013 261.28 305.522 261.28C304.055 261.28 302.879 262.236 302.879 262.236Z" fill="url(#paint99_linear)"/>
<path d="M312.833 271.246L309.063 270.068L309.146 269.753L312.917 270.931L312.833 271.246Z" fill="#FF9C85"/>
<path d="M315.455 270.069L310.292 268.559L310.371 268.242L315.534 269.753L315.455 270.069Z" fill="#FF9C85"/>
<path d="M316.595 268.555L310.72 266.428L310.816 266.117L316.691 268.243L316.595 268.555Z" fill="#FF9C85"/>
<path d="M278.385 200.737C278.385 200.737 279.615 199.683 280.23 197.715C280.845 195.746 280.521 193.532 280.521 193.532C276.119 194.235 278.385 200.737 278.385 200.737Z" fill="url(#paint100_linear)"/>
<path d="M263.965 189.287C263.383 188.522 260.931 188.496 260.688 190.236C260.445 191.975 261.537 194.295 261.683 196.852C261.783 198.605 261.746 202.105 261.713 204.132C261.697 205.063 262.227 205.899 263.033 206.22L263.868 206.552L278.976 196.536C278.976 196.536 280.723 195.622 280.885 193.056C281.047 190.491 280.06 185.096 274.331 183.989C273.875 183.9 273.426 183.86 272.986 183.86C267.893 183.86 263.965 189.287 263.965 189.287Z" fill="url(#paint101_linear)"/>
<path d="M263.965 189.287C263.383 188.522 260.931 188.496 260.688 190.236C260.445 191.975 261.537 194.295 261.683 196.852C261.783 198.605 261.746 202.105 261.713 204.132C261.697 205.063 262.227 205.899 263.033 206.22L263.868 206.552L278.976 196.536C278.976 196.536 280.723 195.622 280.885 193.056C281.047 190.491 280.06 185.096 274.331 183.989C273.875 183.9 273.426 183.86 272.986 183.86C267.893 183.86 263.965 189.287 263.965 189.287Z" fill="url(#paint102_linear)"/>
<path d="M269.72 202.689L263.895 206.546L263.061 206.219C262.258 205.897 261.726 205.064 261.744 204.132C261.774 202.098 261.81 198.602 261.714 196.85C261.569 194.291 260.475 191.975 260.717 190.23C260.959 188.491 263.412 188.518 263.992 189.286C263.992 189.286 265.206 187.612 267.152 186.13C267.454 187.776 268.076 189.673 268.191 191.693C268.306 193.76 268.263 197.88 268.221 200.261C268.209 201.337 268.807 202.295 269.72 202.689Z" fill="#070D59"/>
<path d="M270.556 219.063L267.756 224.001L264.419 218.54L263.507 214.985L273.259 215.32L273.835 218.583L272.806 222.05L270.556 219.063Z" fill="white"/>
<path d="M266.032 201.424C266.032 201.424 265.789 200.124 264.494 198.402C263.2 196.679 261.193 197.892 261.549 199.544C261.905 201.196 263.483 202.496 263.483 202.496V214.99L270.531 219.067L273.234 215.324V211.159C274.48 211.546 277.263 211.476 277.814 209.156C278.364 206.837 278.979 196.539 278.979 196.539C272.602 198.296 267.262 195.344 267.262 195.344C267.585 200.158 266.032 201.424 266.032 201.424Z" fill="url(#paint103_linear)"/>
<path d="M272.138 216.851L273.236 215.329V211.165C273.236 211.165 268.948 209.935 266.843 206.174C266.843 206.174 266.751 213.856 272.138 216.851Z" fill="url(#paint104_linear)"/>
<defs>
<filter id="filter0_d" x="420.396" y="389.472" width="106.263" height="106.263" filterUnits="userSpaceOnUse" color-interpolation-filters="sRGB">
<feFlood flood-opacity="0" result="BackgroundImageFix"/>
<feColorMatrix in="SourceAlpha" type="matrix" values="0 0 0 0 0 0 0 0 0 0 0 0 0 0 0 0 0 0 127 0" result="hardAlpha"/>
<feOffset dy="12"/>
<feGaussianBlur stdDeviation="12"/>
<feColorMatrix type="matrix" values="0 0 0 0 0 0 0 0 0 0 0 0 0 0 0 0 0 0 0.08 0"/>
<feBlend mode="normal" in2="BackgroundImageFix" result="effect1_dropShadow"/>
<feBlend mode="normal" in="SourceGraphic" in2="effect1_dropShadow" result="shape"/>
</filter>
<filter id="filter1_bd" x="0.725098" y="249.515" width="202.762" height="154.271" filterUnits="userSpaceOnUse" color-interpolation-filters="sRGB">
<feFlood flood-opacity="0" result="BackgroundImageFix"/>
<feGaussianBlur in="BackgroundImage" stdDeviation="8.15485"/>
<feComposite in2="SourceAlpha" operator="in" result="effect1_backgroundBlur"/>
<feColorMatrix in="SourceAlpha" type="matrix" values="0 0 0 0 0 0 0 0 0 0 0 0 0 0 0 0 0 0 127 0" result="hardAlpha"/>
<feOffset dy="12"/>
<feGaussianBlur stdDeviation="12"/>
<feColorMatrix type="matrix" values="0 0 0 0 0 0 0 0 0 0 0 0 0 0 0 0 0 0 0.08 0"/>
<feBlend mode="normal" in2="effect1_backgroundBlur" result="effect2_dropShadow"/>
<feBlend mode="normal" in="SourceGraphic" in2="effect2_dropShadow" result="shape"/>
</filter>
<filter id="filter2_d" x="364.873" y="141.853" width="202.762" height="120.829" filterUnits="userSpaceOnUse" color-interpolation-filters="sRGB">
<feFlood flood-opacity="0" result="BackgroundImageFix"/>
<feColorMatrix in="SourceAlpha" type="matrix" values="0 0 0 0 0 0 0 0 0 0 0 0 0 0 0 0 0 0 127 0" result="hardAlpha"/>
<feOffset dy="12"/>
<feGaussianBlur stdDeviation="12"/>
<feColorMatrix type="matrix" values="0 0 0 0 0 0 0 0 0 0 0 0 0 0 0 0 0 0 0.08 0"/>
<feBlend mode="normal" in2="BackgroundImageFix" result="effect1_dropShadow"/>
<feBlend mode="normal" in="SourceGraphic" in2="effect1_dropShadow" result="shape"/>
</filter>
<linearGradient id="paint0_linear" x1="328.956" y1="175.7" x2="328.956" y2="505.312" gradientUnits="userSpaceOnUse">
<stop stop-color="#1C6FC4"/>
<stop offset="0.847875" stop-color="#02298A"/>
<stop offset="1" stop-color="#144591"/>
</linearGradient>
<linearGradient id="paint1_linear" x1="424.363" y1="161.136" x2="424.363" y2="219.4" gradientUnits="userSpaceOnUse">
<stop stop-color="#1C6FC4"/>
<stop offset="0.847875" stop-color="#02298A"/>
<stop offset="1" stop-color="#144591"/>
</linearGradient>
<linearGradient id="paint2_linear" x1="379.248" y1="323.886" x2="428.36" y2="323.886" gradientUnits="userSpaceOnUse">
<stop stop-color="#9087F4"/>
<stop offset="1" stop-color="#9C95FF"/>
</linearGradient>
<linearGradient id="paint3_linear" x1="198.138" y1="323.889" x2="247.251" y2="323.889" gradientUnits="userSpaceOnUse">
<stop stop-color="#9087F4"/>
<stop offset="1" stop-color="#9C95FF"/>
</linearGradient>
<linearGradient id="paint4_linear" x1="205.35" y1="398.676" x2="205.35" y2="316.776" gradientUnits="userSpaceOnUse">
<stop stop-color="#B0BECD"/>
<stop offset="0.847875" stop-color="#02298A"/>
<stop offset="1" stop-color="#144591"/>
</linearGradient>
<linearGradient id="paint5_linear" x1="421.129" y1="398.674" x2="421.129" y2="316.774" gradientUnits="userSpaceOnUse">
<stop stop-color="#B0BECD"/>
<stop offset="0.847875" stop-color="#02298A"/>
<stop offset="1" stop-color="#144591"/>
</linearGradient>
<linearGradient id="paint6_linear" x1="313.245" y1="417.644" x2="313.245" y2="387.518" gradientUnits="userSpaceOnUse">
<stop stop-color="#B0BECD"/>
<stop offset="0.847875" stop-color="#02298A"/>
<stop offset="1" stop-color="#144591"/>
</linearGradient>
<linearGradient id="paint7_linear" x1="315.954" y1="183.016" x2="315.954" y2="136.391" gradientUnits="userSpaceOnUse">
<stop stop-color="#B0BECD"/>
<stop offset="0.847875" stop-color="#02298A"/>
<stop offset="1" stop-color="#144591"/>
</linearGradient>
<linearGradient id="paint8_linear" x1="315.941" y1="183.017" x2="315.941" y2="143.285" gradientUnits="userSpaceOnUse">
<stop stop-color="#1C6FC4"/>
<stop offset="0.847875" stop-color="#02298A"/>
<stop offset="1" stop-color="#144591"/>
</linearGradient>
<linearGradient id="paint9_linear" x1="315.941" y1="183.02" x2="315.941" y2="143.29" gradientUnits="userSpaceOnUse">
<stop stop-color="#1C6FC4"/>
<stop offset="0.847875" stop-color="#02298A"/>
<stop offset="1" stop-color="#144591"/>
</linearGradient>
<linearGradient id="paint10_linear" x1="315.936" y1="179.772" x2="315.936" y2="157.217" gradientUnits="userSpaceOnUse">
<stop stop-color="#1C6FC4"/>
<stop offset="0.847875" stop-color="#02298A"/>
<stop offset="1" stop-color="#144591"/>
</linearGradient>
<linearGradient id="paint11_linear" x1="329.043" y1="197.422" x2="316.125" y2="170.686" gradientUnits="userSpaceOnUse">
<stop stop-color="#F0B50F"/>
<stop offset="1" stop-color="#EDB30F"/>
</linearGradient>
<linearGradient id="paint12_linear" x1="316.951" y1="204.183" x2="303.81" y2="169.826" gradientUnits="userSpaceOnUse">
<stop stop-color="#F0B50F"/>
<stop offset="1" stop-color="#FFF6C4"/>
</linearGradient>
<linearGradient id="paint13_linear" x1="315.933" y1="183.352" x2="315.933" y2="164.479" gradientUnits="userSpaceOnUse">
<stop stop-color="#FEB72B"/>
<stop offset="1" stop-color="#FFE75E"/>
</linearGradient>
<linearGradient id="paint14_linear" x1="315.909" y1="189.87" x2="315.909" y2="183.021" gradientUnits="userSpaceOnUse">
<stop stop-color="#1C6FC4"/>
<stop offset="0.847875" stop-color="#02298A"/>
<stop offset="1" stop-color="#144591"/>
</linearGradient>
<linearGradient id="paint15_linear" x1="315.916" y1="208.901" x2="315.916" y2="195.269" gradientUnits="userSpaceOnUse">
<stop stop-color="#1C6FC4"/>
<stop offset="0.847875" stop-color="#02298A"/>
<stop offset="1" stop-color="#144591"/>
</linearGradient>
<linearGradient id="paint16_linear" x1="315.919" y1="216.407" x2="315.919" y2="208.899" gradientUnits="userSpaceOnUse">
<stop stop-color="#1C6FC4"/>
<stop offset="0.847875" stop-color="#02298A"/>
<stop offset="1" stop-color="#144591"/>
</linearGradient>
<linearGradient id="paint17_linear" x1="315.908" y1="195.261" x2="315.908" y2="189.861" gradientUnits="userSpaceOnUse">
<stop stop-color="#1C6FC4"/>
<stop offset="0.847875" stop-color="#02298A"/>
<stop offset="1" stop-color="#144591"/>
</linearGradient>
<linearGradient id="paint18_linear" x1="315.953" y1="368.168" x2="315.953" y2="216.413" gradientUnits="userSpaceOnUse">
<stop stop-color="#1C6FC4"/>
<stop offset="0.847875" stop-color="#02298A"/>
<stop offset="1" stop-color="#144591"/>
</linearGradient>
<linearGradient id="paint19_linear" x1="315.935" y1="368.166" x2="315.935" y2="267.121" gradientUnits="userSpaceOnUse">
<stop stop-color="#1C6FC4"/>
<stop offset="0.847875" stop-color="#02298A"/>
<stop offset="1" stop-color="#144591"/>
</linearGradient>
<linearGradient id="paint20_linear" x1="231.28" y1="236.683" x2="231.28" y2="216.399" gradientUnits="userSpaceOnUse">
<stop stop-color="#1C6FC4"/>
<stop offset="0.847875" stop-color="#02298A"/>
<stop offset="1" stop-color="#144591"/>
</linearGradient>
<linearGradient id="paint21_linear" x1="231.291" y1="355.588" x2="231.291" y2="239.395" gradientUnits="userSpaceOnUse">
<stop stop-color="#B0BECD"/>
<stop offset="0.847875" stop-color="#02298A"/>
<stop offset="1" stop-color="#144591"/>
</linearGradient>
<linearGradient id="paint22_linear" x1="231.299" y1="368.168" x2="231.299" y2="355.589" gradientUnits="userSpaceOnUse">
<stop stop-color="#1C6FC4"/>
<stop offset="0.847875" stop-color="#02298A"/>
<stop offset="1" stop-color="#144591"/>
</linearGradient>
<linearGradient id="paint23_linear" x1="231.299" y1="352.424" x2="231.299" y2="242.454" gradientUnits="userSpaceOnUse">
<stop stop-color="#1C6FC4"/>
<stop offset="0.847875" stop-color="#02298A"/>
<stop offset="1" stop-color="#144591"/>
</linearGradient>
<linearGradient id="paint24_linear" x1="235.835" y1="352.424" x2="235.835" y2="242.454" gradientUnits="userSpaceOnUse">
<stop stop-color="#1C6FC4"/>
<stop offset="0.847875" stop-color="#02298A"/>
<stop offset="1" stop-color="#144591"/>
</linearGradient>
<linearGradient id="paint25_linear" x1="226.772" y1="352.425" x2="226.772" y2="242.454" gradientUnits="userSpaceOnUse">
<stop stop-color="#1C6FC4"/>
<stop offset="0.847875" stop-color="#02298A"/>
<stop offset="1" stop-color="#144591"/>
</linearGradient>
<linearGradient id="paint26_linear" x1="284.12" y1="236.687" x2="284.12" y2="216.403" gradientUnits="userSpaceOnUse">
<stop stop-color="#1C6FC4"/>
<stop offset="0.847875" stop-color="#02298A"/>
<stop offset="1" stop-color="#144591"/>
</linearGradient>
<linearGradient id="paint27_linear" x1="284.134" y1="355.59" x2="284.134" y2="239.397" gradientUnits="userSpaceOnUse">
<stop stop-color="#B0BECD"/>
<stop offset="0.847875" stop-color="#02298A"/>
<stop offset="1" stop-color="#144591"/>
</linearGradient>
<linearGradient id="paint28_linear" x1="284.127" y1="368.168" x2="284.127" y2="355.589" gradientUnits="userSpaceOnUse">
<stop stop-color="#1C6FC4"/>
<stop offset="0.847875" stop-color="#02298A"/>
<stop offset="1" stop-color="#144591"/>
</linearGradient>
<linearGradient id="paint29_linear" x1="284.135" y1="352.424" x2="284.135" y2="242.454" gradientUnits="userSpaceOnUse">
<stop stop-color="#B0BECD"/>
<stop offset="0.847875" stop-color="#02298A"/>
<stop offset="1" stop-color="#144591"/>
</linearGradient>
<linearGradient id="paint30_linear" x1="288.676" y1="352.424" x2="288.676" y2="242.454" gradientUnits="userSpaceOnUse">
<stop stop-color="#B0BECD"/>
<stop offset="0.847875" stop-color="#02298A"/>
<stop offset="1" stop-color="#144591"/>
</linearGradient>
<linearGradient id="paint31_linear" x1="279.609" y1="352.425" x2="279.609" y2="242.454" gradientUnits="userSpaceOnUse">
<stop stop-color="#B0BECD"/>
<stop offset="0.847875" stop-color="#02298A"/>
<stop offset="1" stop-color="#144591"/>
</linearGradient>
<linearGradient id="paint32_linear" x1="398.162" y1="236.69" x2="398.162" y2="216.407" gradientUnits="userSpaceOnUse">
<stop stop-color="#1C6FC4"/>
<stop offset="0.847875" stop-color="#02298A"/>
<stop offset="1" stop-color="#144591"/>
</linearGradient>
<linearGradient id="paint33_linear" x1="398.169" y1="355.588" x2="398.169" y2="239.395" gradientUnits="userSpaceOnUse">
<stop stop-color="#B0BECD"/>
<stop offset="0.847875" stop-color="#02298A"/>
<stop offset="1" stop-color="#144591"/>
</linearGradient>
<linearGradient id="paint34_linear" x1="398.17" y1="368.17" x2="398.17" y2="355.591" gradientUnits="userSpaceOnUse">
<stop stop-color="#1C6FC4"/>
<stop offset="0.847875" stop-color="#02298A"/>
<stop offset="1" stop-color="#144591"/>
</linearGradient>
<linearGradient id="paint35_linear" x1="345.316" y1="236.69" x2="345.316" y2="216.407" gradientUnits="userSpaceOnUse">
<stop stop-color="#1C6FC4"/>
<stop offset="0.847875" stop-color="#02298A"/>
<stop offset="1" stop-color="#144591"/>
</linearGradient>
<linearGradient id="paint36_linear" x1="345.319" y1="355.59" x2="345.319" y2="239.397" gradientUnits="userSpaceOnUse">
<stop stop-color="#B0BECD"/>
<stop offset="0.847875" stop-color="#02298A"/>
<stop offset="1" stop-color="#144591"/>
</linearGradient>
<linearGradient id="paint37_linear" x1="345.337" y1="368.172" x2="345.337" y2="355.593" gradientUnits="userSpaceOnUse">
<stop stop-color="#1C6FC4"/>
<stop offset="0.847875" stop-color="#02298A"/>
<stop offset="1" stop-color="#144591"/>
</linearGradient>
<linearGradient id="paint38_linear" x1="345.336" y1="352.418" x2="345.336" y2="242.448" gradientUnits="userSpaceOnUse">
<stop stop-color="#B0BECD"/>
<stop offset="0.847875" stop-color="#02298A"/>
<stop offset="1" stop-color="#144591"/>
</linearGradient>
<linearGradient id="paint39_linear" x1="349.859" y1="352.418" x2="349.859" y2="242.448" gradientUnits="userSpaceOnUse">
<stop stop-color="#B0BECD"/>
<stop offset="0.847875" stop-color="#02298A"/>
<stop offset="1" stop-color="#144591"/>
</linearGradient>
<linearGradient id="paint40_linear" x1="340.811" y1="352.418" x2="340.811" y2="242.448" gradientUnits="userSpaceOnUse">
<stop stop-color="#B0BECD"/>
<stop offset="0.847875" stop-color="#02298A"/>
<stop offset="1" stop-color="#144591"/>
</linearGradient>
<linearGradient id="paint41_linear" x1="315.926" y1="373.062" x2="315.926" y2="368.156" gradientUnits="userSpaceOnUse">
<stop stop-color="#B0BECD"/>
<stop offset="0.847875" stop-color="#02298A"/>
<stop offset="1" stop-color="#144591"/>
</linearGradient>
<linearGradient id="paint42_linear" x1="315.926" y1="373.062" x2="315.926" y2="371.186" gradientUnits="userSpaceOnUse">
<stop stop-color="#B0BECD"/>
<stop offset="0.847875" stop-color="#02298A"/>
<stop offset="1" stop-color="#144591"/>
</linearGradient>
<linearGradient id="paint43_linear" x1="315.928" y1="377.974" x2="315.928" y2="373.067" gradientUnits="userSpaceOnUse">
<stop stop-color="#B0BECD"/>
<stop offset="0.847875" stop-color="#02298A"/>
<stop offset="1" stop-color="#144591"/>
</linearGradient>
<linearGradient id="paint44_linear" x1="315.928" y1="377.974" x2="315.928" y2="375.521" gradientUnits="userSpaceOnUse">
<stop stop-color="#B0BECD"/>
<stop offset="0.847875" stop-color="#02298A"/>
<stop offset="1" stop-color="#144591"/>
</linearGradient>
<linearGradient id="paint45_linear" x1="315.922" y1="387.98" x2="315.922" y2="377.97" gradientUnits="userSpaceOnUse">
<stop stop-color="#B0BECD"/>
<stop offset="0.847875" stop-color="#02298A"/>
<stop offset="1" stop-color="#144591"/>
</linearGradient>
<linearGradient id="paint46_linear" x1="315.922" y1="387.98" x2="315.922" y2="382.976" gradientUnits="userSpaceOnUse">
<stop stop-color="#B0BECD"/>
<stop offset="0.847875" stop-color="#02298A"/>
<stop offset="1" stop-color="#144591"/>
</linearGradient>
<linearGradient id="paint47_linear" x1="361.921" y1="199.255" x2="346.644" y2="199.314" gradientUnits="userSpaceOnUse">
<stop stop-color="#481380"/>
<stop offset="1" stop-color="#6F46A5"/>
</linearGradient>
<linearGradient id="paint48_linear" x1="372.946" y1="203.254" x2="363.072" y2="177.904" gradientUnits="userSpaceOnUse">
<stop stop-color="#481380"/>
<stop offset="1" stop-color="#6F46A5"/>
</linearGradient>
<linearGradient id="paint49_linear" x1="379.804" y1="233.745" x2="368.434" y2="204.536" gradientUnits="userSpaceOnUse">
<stop stop-color="#FFC0AC"/>
<stop offset="1" stop-color="#FFD6C7"/>
</linearGradient>
<linearGradient id="paint50_linear" x1="370.149" y1="211.976" x2="380.652" y2="241.549" gradientUnits="userSpaceOnUse">
<stop stop-color="#FF9C85"/>
<stop offset="1" stop-color="#FF9C85"/>
</linearGradient>
<linearGradient id="paint51_linear" x1="398.035" y1="304.544" x2="393.835" y2="287.294" gradientUnits="userSpaceOnUse">
<stop stop-color="#481380"/>
<stop offset="1" stop-color="#6F46A5"/>
</linearGradient>
<linearGradient id="paint52_linear" x1="396.921" y1="287.51" x2="400.868" y2="307.923" gradientUnits="userSpaceOnUse">
<stop stop-color="#FFC0AC"/>
<stop offset="1" stop-color="#FFD6C7"/>
</linearGradient>
<linearGradient id="paint53_linear" x1="401.154" y1="389.344" x2="384.794" y2="325.566" gradientUnits="userSpaceOnUse">
<stop stop-color="#F0B50F"/>
<stop offset="1" stop-color="#FFF6C4"/>
</linearGradient>
<linearGradient id="paint54_linear" x1="401.154" y1="342.663" x2="398.01" y2="313.97" gradientUnits="userSpaceOnUse">
<stop stop-color="#F0B50F"/>
<stop offset="1" stop-color="#FFF6C4"/>
</linearGradient>
<linearGradient id="paint55_linear" x1="313.573" y1="266.929" x2="323.557" y2="261.4" gradientUnits="userSpaceOnUse">
<stop stop-color="#FFC0AC"/>
<stop offset="1" stop-color="#FFD6C7"/>
</linearGradient>
<linearGradient id="paint56_linear" x1="343.323" y1="268.831" x2="343.323" y2="219.232" gradientUnits="userSpaceOnUse">
<stop stop-color="#1C6FC4"/>
<stop offset="0.847875" stop-color="#02298A"/>
<stop offset="1" stop-color="#144591"/>
</linearGradient>
<linearGradient id="paint57_linear" x1="373.47" y1="276.217" x2="373.47" y2="218.923" gradientUnits="userSpaceOnUse">
<stop stop-color="#1C6FC4"/>
<stop offset="0.847875" stop-color="#02298A"/>
<stop offset="1" stop-color="#144591"/>
</linearGradient>
<linearGradient id="paint58_linear" x1="390.682" y1="294.089" x2="390.682" y2="218.927" gradientUnits="userSpaceOnUse">
<stop stop-color="#1C6FC4"/>
<stop offset="0.847875" stop-color="#02298A"/>
<stop offset="1" stop-color="#144591"/>
</linearGradient>
<linearGradient id="paint59_linear" x1="382.829" y1="300.04" x2="372.39" y2="278.97" gradientUnits="userSpaceOnUse">
<stop stop-color="#D5D7FC"/>
<stop offset="1" stop-color="#FAF1FC"/>
</linearGradient>
<linearGradient id="paint60_linear" x1="372.833" y1="281.78" x2="363.264" y2="268.16" gradientUnits="userSpaceOnUse">
<stop stop-color="#D5D7FC"/>
<stop offset="1" stop-color="#FAF1FC"/>
</linearGradient>
<linearGradient id="paint61_linear" x1="310.982" y1="268.915" x2="321.768" y2="260.461" gradientUnits="userSpaceOnUse">
<stop stop-color="#FF9C85"/>
<stop offset="1" stop-color="#FF9C85"/>
</linearGradient>
<linearGradient id="paint62_linear" x1="386.042" y1="268.833" x2="386.042" y2="234.543" gradientUnits="userSpaceOnUse">
<stop stop-color="#1C6FC4"/>
<stop offset="0.847875" stop-color="#02298A"/>
<stop offset="1" stop-color="#144591"/>
</linearGradient>
<linearGradient id="paint63_linear" x1="354.41" y1="266.669" x2="354.41" y2="237.571" gradientUnits="userSpaceOnUse">
<stop stop-color="#1C6FC4"/>
<stop offset="0.847875" stop-color="#02298A"/>
<stop offset="1" stop-color="#144591"/>
</linearGradient>
<linearGradient id="paint64_linear" x1="371.177" y1="434.899" x2="352.764" y2="395.513" gradientUnits="userSpaceOnUse">
<stop stop-color="#FFC0AC"/>
<stop offset="1" stop-color="#FFD6C7"/>
</linearGradient>
<linearGradient id="paint65_linear" x1="365.916" y1="391.562" x2="365.916" y2="279.375" gradientUnits="userSpaceOnUse">
<stop stop-color="#1C6FC4"/>
<stop offset="0.847875" stop-color="#02298A"/>
<stop offset="1" stop-color="#144591"/>
</linearGradient>
<linearGradient id="paint66_linear" x1="371.278" y1="326.93" x2="371.278" y2="291.093" gradientUnits="userSpaceOnUse">
<stop stop-color="#1C6FC4"/>
<stop offset="0.847875" stop-color="#02298A"/>
<stop offset="1" stop-color="#144591"/>
</linearGradient>
<linearGradient id="paint67_linear" x1="382.907" y1="391.522" x2="382.907" y2="279.375" gradientUnits="userSpaceOnUse">
<stop stop-color="#1C6FC4"/>
<stop offset="0.847875" stop-color="#02298A"/>
<stop offset="1" stop-color="#144591"/>
</linearGradient>
<linearGradient id="paint68_linear" x1="404.993" y1="419.099" x2="386.579" y2="379.714" gradientUnits="userSpaceOnUse">
<stop stop-color="#FFC0AC"/>
<stop offset="1" stop-color="#FFD6C7"/>
</linearGradient>
<linearGradient id="paint69_linear" x1="355.104" y1="391.557" x2="355.104" y2="387.975" gradientUnits="userSpaceOnUse">
<stop stop-color="#1C6FC4"/>
<stop offset="0.847875" stop-color="#02298A"/>
<stop offset="1" stop-color="#144591"/>
</linearGradient>
<linearGradient id="paint70_linear" x1="393.971" y1="391.522" x2="393.971" y2="388.065" gradientUnits="userSpaceOnUse">
<stop stop-color="#1C6FC4"/>
<stop offset="0.847875" stop-color="#02298A"/>
<stop offset="1" stop-color="#144591"/>
</linearGradient>
<linearGradient id="paint71_linear" x1="347.097" y1="407.32" x2="347.097" y2="395.409" gradientUnits="userSpaceOnUse">
<stop stop-color="#1C6FC4"/>
<stop offset="0.847875" stop-color="#02298A"/>
<stop offset="1" stop-color="#144591"/>
</linearGradient>
<linearGradient id="paint72_linear" x1="347.092" y1="405.425" x2="347.092" y2="414.216" gradientUnits="userSpaceOnUse">
<stop stop-color="#7F78D2"/>
<stop offset="1" stop-color="#7F78D2"/>
</linearGradient>
<linearGradient id="paint73_linear" x1="387.932" y1="407.318" x2="387.932" y2="395.407" gradientUnits="userSpaceOnUse">
<stop stop-color="#1C6FC4"/>
<stop offset="0.847875" stop-color="#02298A"/>
<stop offset="1" stop-color="#144591"/>
</linearGradient>
<linearGradient id="paint74_linear" x1="387.926" y1="405.421" x2="387.926" y2="414.212" gradientUnits="userSpaceOnUse">
<stop stop-color="#7F78D2"/>
<stop offset="1" stop-color="#7F78D2"/>
</linearGradient>
<linearGradient id="paint75_linear" x1="316.768" y1="207.991" x2="313.56" y2="227.592" gradientUnits="userSpaceOnUse">
<stop stop-color="#D5D7FC"/>
<stop offset="1" stop-color="#FAF1FC"/>
</linearGradient>
<linearGradient id="paint76_linear" x1="337.144" y1="276.831" x2="311.99" y2="210.643" gradientUnits="userSpaceOnUse">
<stop stop-color="#D5D7FC"/>
<stop offset="1" stop-color="#FAF1FC"/>
</linearGradient>
<linearGradient id="paint77_linear" x1="311.259" y1="245.759" x2="325.433" y2="218.734" gradientUnits="userSpaceOnUse">
<stop stop-color="#0A140A"/>
<stop offset="1" stop-color="#DCE35B"/>
</linearGradient>
<linearGradient id="paint78_linear" x1="241.109" y1="413.716" x2="264.83" y2="396.429" gradientUnits="userSpaceOnUse">
<stop stop-color="#070D59"/>
<stop offset="1" stop-color="#1F3C88"/>
</linearGradient>
<linearGradient id="paint79_linear" x1="279.481" y1="416.868" x2="293.724" y2="401.794" gradientUnits="userSpaceOnUse">
<stop stop-color="#070D59"/>
<stop offset="1" stop-color="#1F3C88"/>
</linearGradient>
<linearGradient id="paint80_linear" x1="262.711" y1="378.424" x2="288.688" y2="315.316" gradientUnits="userSpaceOnUse">
<stop stop-color="#070D59"/>
<stop offset="1" stop-color="#1F3C88"/>
</linearGradient>
<linearGradient id="paint81_linear" x1="271.168" y1="263.193" x2="311.283" y2="309.068" gradientUnits="userSpaceOnUse">
<stop stop-color="#070D59"/>
<stop offset="1" stop-color="#070D59"/>
</linearGradient>
<linearGradient id="paint82_linear" x1="241.236" y1="369.592" x2="267.213" y2="306.484" gradientUnits="userSpaceOnUse">
<stop stop-color="#070D59"/>
<stop offset="1" stop-color="#1F3C88"/>
</linearGradient>
<linearGradient id="paint83_linear" x1="243.069" y1="267.531" x2="288.204" y2="319.145" gradientUnits="userSpaceOnUse">
<stop stop-color="#070D59"/>
<stop offset="1" stop-color="#070D59"/>
</linearGradient>
<linearGradient id="paint84_linear" x1="271.844" y1="217.74" x2="271.844" y2="270.618" gradientUnits="userSpaceOnUse">
<stop stop-color="#D5D7FC"/>
<stop offset="1" stop-color="#FAF1FC"/>
</linearGradient>
<linearGradient id="paint85_linear" x1="270.499" y1="225.804" x2="276.596" y2="287.993" gradientUnits="userSpaceOnUse">
<stop stop-color="#E3325D"/>
<stop offset="1" stop-color="#FF866F"/>
</linearGradient>
<linearGradient id="paint86_linear" x1="270.779" y1="278.724" x2="279.348" y2="260.686" gradientUnits="userSpaceOnUse">
<stop stop-color="#231F20"/>
<stop offset="1" stop-color="#58595B"/>
</linearGradient>
<linearGradient id="paint87_linear" x1="270.786" y1="275.921" x2="276.241" y2="270.955" gradientUnits="userSpaceOnUse">
<stop stop-color="#868491"/>
<stop offset="1" stop-color="#B4B6BC"/>
</linearGradient>
<linearGradient id="paint88_linear" x1="221.2" y1="365.602" x2="269.708" y2="238.2" gradientUnits="userSpaceOnUse">
<stop stop-color="#070D59"/>
<stop offset="1" stop-color="#1F3C88"/>
</linearGradient>
<linearGradient id="paint89_linear" x1="263.447" y1="216.848" x2="254.991" y2="291.143" gradientUnits="userSpaceOnUse">
<stop stop-color="#070D59"/>
<stop offset="1" stop-color="#070D59"/>
</linearGradient>
<linearGradient id="paint90_linear" x1="254.506" y1="215.268" x2="245.822" y2="291.734" gradientUnits="userSpaceOnUse">
<stop stop-color="#070D59"/>
<stop offset="1" stop-color="#070D59"/>
</linearGradient>
<linearGradient id="paint91_linear" x1="243.617" y1="374.137" x2="292.125" y2="246.734" gradientUnits="userSpaceOnUse">
<stop stop-color="#070D59"/>
<stop offset="1" stop-color="#1F3C88"/>
</linearGradient>
<linearGradient id="paint92_linear" x1="239.196" y1="372.447" x2="287.704" y2="245.045" gradientUnits="userSpaceOnUse">
<stop stop-color="#070D59"/>
<stop offset="1" stop-color="#1F3C88"/>
</linearGradient>
<linearGradient id="paint93_linear" x1="234.555" y1="370.656" x2="283.063" y2="243.253" gradientUnits="userSpaceOnUse">
<stop stop-color="#070D59"/>
<stop offset="1" stop-color="#1F3C88"/>
</linearGradient>
<linearGradient id="paint94_linear" x1="269.957" y1="214.974" x2="270.872" y2="223.464" gradientUnits="userSpaceOnUse">
<stop stop-color="#E3325D"/>
<stop offset="1" stop-color="#FF866F"/>
</linearGradient>
<linearGradient id="paint95_linear" x1="296.546" y1="273.521" x2="303.138" y2="262.595" gradientUnits="userSpaceOnUse">
<stop stop-color="#D5D7FC"/>
<stop offset="1" stop-color="#FAF1FC"/>
</linearGradient>
<linearGradient id="paint96_linear" x1="313.862" y1="229.392" x2="298.938" y2="217.811" gradientUnits="userSpaceOnUse">
<stop stop-color="#D5D7FC"/>
<stop offset="1" stop-color="#FAF1FC"/>
</linearGradient>
<linearGradient id="paint97_linear" x1="280.099" y1="240.512" x2="296.507" y2="229.43" gradientUnits="userSpaceOnUse">
<stop stop-color="#070D59"/>
<stop offset="1" stop-color="#070D59"/>
</linearGradient>
<linearGradient id="paint98_linear" x1="302.099" y1="223.893" x2="309.555" y2="212.067" gradientUnits="userSpaceOnUse">
<stop stop-color="#FFC0AC"/>
<stop offset="1" stop-color="#FFD6C7"/>
</linearGradient>
<linearGradient id="paint99_linear" x1="297.379" y1="277.946" x2="309.39" y2="268.728" gradientUnits="userSpaceOnUse">
<stop stop-color="#FFC0AC"/>
<stop offset="1" stop-color="#FFD6C7"/>
</linearGradient>
<linearGradient id="paint100_linear" x1="279.913" y1="197.692" x2="284.225" y2="202.119" gradientUnits="userSpaceOnUse">
<stop stop-color="#070D59"/>
<stop offset="1" stop-color="#1F3C88"/>
</linearGradient>
<linearGradient id="paint101_linear" x1="253.821" y1="219.132" x2="276.645" y2="188.267" gradientUnits="userSpaceOnUse">
<stop stop-color="#070D59"/>
<stop offset="1" stop-color="#1F3C88"/>
</linearGradient>
<linearGradient id="paint102_linear" x1="253.821" y1="219.132" x2="276.645" y2="188.267" gradientUnits="userSpaceOnUse">
<stop stop-color="#070D59"/>
<stop offset="1" stop-color="#1F3C88"/>
</linearGradient>
<linearGradient id="paint103_linear" x1="261.507" y1="207.206" x2="278.979" y2="207.206" gradientUnits="userSpaceOnUse">
<stop stop-color="#FFC0AC"/>
<stop offset="1" stop-color="#FFD6C7"/>
</linearGradient>
<linearGradient id="paint104_linear" x1="273.027" y1="207.673" x2="256.865" y2="222.557" gradientUnits="userSpaceOnUse">
<stop stop-color="#FF9C85"/>
<stop offset="1" stop-color="#FF9C85"/>
</linearGradient>
</defs>
</svg>
