<svg width="202" height="173" viewBox="0 0 202 173" fill="none" xmlns="http://www.w3.org/2000/svg">
<g opacity="0.9">
<path d="M123.98 70.6237L106.719 100.531L123.98 130.44H158.502L175.763 100.531L158.502 70.6237H123.98Z" fill="url(#paint0_linear)"/>
<path d="M124.421 71.3828L107.598 100.531L124.421 129.678H158.065L174.888 100.531L158.065 71.3828H124.421Z" fill="url(#paint1_linear)"/>
<path d="M126.646 75.7506L112.146 100.873L126.646 125.996H155.644L170.144 100.873L155.644 75.7506H126.646Z" fill="url(#paint2_linear)"/>
<path d="M127.016 76.3883L112.885 100.873L127.016 125.357H155.277L169.408 100.873L155.277 76.3883H127.016Z" fill="url(#paint3_linear)"/>
<path d="M127.935 77.9853L114.726 100.873L127.935 123.761H154.355L167.564 100.873L154.355 77.9853H127.935Z" fill="url(#paint4_linear)"/>
<path d="M159.691 66.225H120.781C120.577 66.2244 120.389 66.3332 120.287 66.5099L100.833 100.219C100.731 100.395 100.731 100.613 100.833 100.789L120.288 134.497C120.446 134.77 120.794 134.863 121.066 134.706C121.339 134.549 121.432 134.2 121.275 133.928L101.984 100.504L121.111 67.365H159.691C160.006 67.365 160.261 67.11 160.261 66.7947C160.261 66.4806 160.007 66.225 159.692 66.225C159.692 66.225 159.692 66.225 159.691 66.225Z" fill="url(#paint5_linear)"/>
<path d="M40.0183 70.4659L22.7573 100.375L40.0183 130.282H74.5403L91.8013 100.375L74.5403 70.4659H40.0183Z" fill="url(#paint6_linear)"/>
<path d="M40.4585 71.2257L23.6357 100.374L40.4585 129.521H74.103L90.9258 100.374L74.103 71.2257H40.4585Z" fill="url(#paint7_linear)"/>
<path d="M42.683 75.5943L28.1836 100.718L42.683 125.84H71.6813L86.1813 100.718L71.6813 75.5943H42.683Z" fill="url(#paint8_linear)"/>
<path d="M43.0522 76.2314L28.9209 100.716L43.0522 125.198H71.3137L85.4445 100.716L71.3137 76.2314H43.0522Z" fill="url(#paint9_linear)"/>
<path d="M43.9734 123.604L30.7637 100.717L43.9734 77.8287H70.3922L83.6019 100.717L70.3922 123.604H43.9734Z" fill="url(#paint10_linear)"/>
<path d="M36.9547 134.497L17.5006 100.789C17.3985 100.613 17.398 100.395 17.5006 100.219L36.9553 66.5102C37.1126 66.237 37.4608 66.1437 37.7334 66.301C38.0066 66.4589 38.0993 66.8067 37.9426 67.08L18.6524 100.504L37.7776 133.643H76.358C76.6726 133.643 76.9281 133.898 76.9276 134.211C76.9281 134.527 76.6726 134.783 76.358 134.783H37.4492C37.245 134.783 37.0568 134.673 36.9547 134.497Z" fill="url(#paint11_linear)"/>
<path d="M131.468 61.8511L140.689 45.8746L149.91 61.8511H131.468Z" fill="url(#paint12_linear)"/>
<path d="M48.1362 61.8506L57.357 45.8741L66.5772 61.8506H48.1362Z" fill="url(#paint13_linear)"/>
<path d="M50.1132 16.1662L42.71 28.9937L50.1132 41.8203H64.9191L72.3224 28.9937L64.9191 16.1662H50.1132Z" fill="url(#paint14_linear)"/>
<path d="M133.275 16.1658L125.818 28.8683L133.275 41.5698H148.188L155.645 28.8683L148.188 16.1658H133.275Z" fill="url(#paint15_linear)"/>
<g clip-path="url(#clip0)">
<path d="M63.7485 24.6822H63.0541V23.9876C63.0539 23.8034 62.9807 23.6269 62.8505 23.4966C62.7203 23.3664 62.5438 23.2932 62.3597 23.293H54.2257C54.0416 23.2932 53.8651 23.3664 53.7349 23.4966C53.6047 23.6269 53.5315 23.8034 53.5313 23.9876V24.6822H52.8369C52.6529 24.6824 52.4764 24.7557 52.3462 24.8859C52.216 25.0161 52.1428 25.1927 52.1426 25.3768V32.9184C52.1428 33.1026 52.216 33.2791 52.3462 33.4094C52.4764 33.5396 52.6529 33.6128 52.8369 33.613H56.6409L56.3576 34.6053H55.5152C55.4626 34.6053 55.4122 34.6263 55.3749 34.6635C55.3377 34.7007 55.3168 34.7512 55.3168 34.8038V35.3992C55.3168 35.4518 55.3377 35.5023 55.3749 35.5395C55.4122 35.5768 55.4626 35.5977 55.5152 35.5977H61.0702C61.1228 35.5977 61.1733 35.5768 61.2105 35.5395C61.2477 35.5023 61.2686 35.4518 61.2686 35.3992V34.8038C61.2686 34.7512 61.2477 34.7007 61.2105 34.6635C61.1733 34.6263 61.1228 34.6053 61.0702 34.6053H60.2278L59.9446 33.613H63.7485C63.9326 33.6128 64.1091 33.5396 64.2392 33.4094C64.3694 33.2791 64.4426 33.1026 64.4428 32.9184V25.3768C64.4426 25.1927 64.3694 25.0161 64.2392 24.8859C64.1091 24.7557 63.9326 24.6824 63.7485 24.6822ZM53.9281 23.9876C53.9282 23.9087 53.9595 23.833 54.0153 23.7772C54.0711 23.7213 54.1468 23.69 54.2257 23.6899H62.3597C62.4386 23.69 62.5143 23.7213 62.5701 23.7772C62.6259 23.833 62.6573 23.9087 62.6573 23.9876V30.9338C62.6573 31.0127 62.6259 31.0884 62.5701 31.1442C62.5143 31.2 62.4386 31.2314 62.3597 31.2315H54.2257C54.1468 31.2314 54.0711 31.2 54.0153 31.1442C53.9595 31.0884 53.9282 31.0127 53.9281 30.9338V23.9876ZM60.8718 35.0023V35.2007H55.7136V35.0023H60.8718ZM56.7703 34.6053L57.0535 33.613H59.5319L59.8151 34.6053H56.7703ZM64.0461 32.9184C64.046 32.9973 64.0146 33.073 63.9588 33.1288C63.903 33.1847 63.8274 33.216 63.7485 33.2161H52.8369C52.758 33.216 52.6824 33.1847 52.6266 33.1288C52.5708 33.073 52.5394 32.9973 52.5394 32.9184V32.4223H64.0461V32.9184ZM64.0461 32.0253H52.5394V25.3768C52.5394 25.2979 52.5708 25.2222 52.6266 25.1664C52.6824 25.1106 52.758 25.0792 52.8369 25.0791H53.5313V30.9338C53.5315 31.1179 53.6047 31.2945 53.7349 31.4247C53.8651 31.555 54.0416 31.6282 54.2257 31.6284H62.3597C62.5438 31.6282 62.7203 31.555 62.8505 31.4247C62.9807 31.2945 63.0539 31.1179 63.0541 30.9338V25.0791H63.7485C63.8274 25.0792 63.903 25.1106 63.9588 25.1664C64.0146 25.2222 64.046 25.2979 64.0461 25.3768V32.0253Z" fill="url(#paint16_linear)"/>
<path d="M60.0783 28.4531C60.5099 28.4531 60.9318 28.3251 61.2907 28.0852C61.6496 27.8453 61.9293 27.5043 62.0945 27.1054C62.2597 26.7065 62.3029 26.2676 62.2187 25.8441C62.1345 25.4206 61.9266 25.0316 61.6214 24.7263C61.3162 24.421 60.9274 24.2131 60.504 24.1289C60.0807 24.0446 59.6419 24.0879 59.2432 24.2531C58.8444 24.4183 58.5036 24.6981 58.2638 25.0571C58.024 25.4162 57.896 25.8382 57.896 26.27C57.8967 26.8488 58.1268 27.4037 58.5359 27.813C58.945 28.2222 59.4997 28.4524 60.0783 28.4531ZM58.3895 26.8487L60.015 26.4874L61.1919 27.6647C60.9685 27.8437 60.7052 27.9662 60.4245 28.022C60.1437 28.0777 59.8537 28.065 59.5788 27.985C59.304 27.905 59.0525 27.76 58.8455 27.5622C58.6385 27.3644 58.4821 27.1197 58.3896 26.8487H58.3895ZM61.8638 26.27C61.8641 26.6751 61.726 27.0682 61.4725 27.384L60.2767 26.1878V24.4951C60.7129 24.5445 61.1158 24.7526 61.4084 25.0799C61.7011 25.4072 61.8632 25.8308 61.8638 26.27ZM59.8799 24.4951V26.1108L58.3031 26.4613C58.2523 25.9916 58.3897 25.5208 58.6853 25.1522C58.9809 24.7837 59.4105 24.5474 59.8799 24.4951Z" fill="url(#paint17_linear)"/>
<path d="M62.062 30.2394H59.0861V28.8501C59.0861 28.7975 59.0652 28.747 59.028 28.7098C58.9908 28.6726 58.9403 28.6517 58.8877 28.6517H58.0941C58.0415 28.6517 57.9911 28.6726 57.9539 28.7098C57.9167 28.747 57.8958 28.7975 57.8958 28.8501V30.2394H57.499V28.0563C57.499 28.0036 57.4781 27.9532 57.4409 27.9159C57.4037 27.8787 57.3532 27.8578 57.3006 27.8578H56.507C56.4544 27.8578 56.4039 27.8787 56.3667 27.9159C56.3295 27.9532 56.3086 28.0036 56.3086 28.0563V30.2394H55.9118V27.2624C55.9118 27.2098 55.8909 27.1593 55.8537 27.1221C55.8165 27.0849 55.7661 27.064 55.7134 27.064H54.9199C54.8673 27.064 54.8168 27.0849 54.7796 27.1221C54.7424 27.1593 54.7215 27.2098 54.7215 27.2624V30.2394H54.5231C54.4705 30.2394 54.42 30.2603 54.3828 30.2975C54.3456 30.3347 54.3247 30.3852 54.3247 30.4378C54.3247 30.4905 54.3456 30.5409 54.3828 30.5782C54.42 30.6154 54.4705 30.6363 54.5231 30.6363H62.062C62.1146 30.6363 62.165 30.6154 62.2023 30.5782C62.2395 30.5409 62.2604 30.4905 62.2604 30.4378C62.2604 30.3852 62.2395 30.3347 62.2023 30.2975C62.165 30.2603 62.1146 30.2394 62.062 30.2394ZM55.5151 30.2394H55.1183V27.4609H55.5151V30.2394ZM57.1022 30.2394H56.7054V28.2547H57.1022V30.2394ZM58.6893 30.2394H58.2925V29.0486H58.6893V30.2394Z" fill="url(#paint18_linear)"/>
<path d="M54.5231 25.0791H57.1022C57.1548 25.0791 57.2053 25.0581 57.2425 25.0209C57.2797 24.9837 57.3006 24.9332 57.3006 24.8806C57.3006 24.828 57.2797 24.7775 57.2425 24.7403C57.2053 24.703 57.1548 24.6821 57.1022 24.6821H54.5231C54.4705 24.6821 54.42 24.703 54.3828 24.7403C54.3456 24.7775 54.3247 24.828 54.3247 24.8806C54.3247 24.9332 54.3456 24.9837 54.3828 25.0209C54.42 25.0581 54.4705 25.0791 54.5231 25.0791Z" fill="url(#paint19_linear)"/>
<path d="M54.5231 24.4834H57.1022C57.1548 24.4834 57.2053 24.4624 57.2425 24.4252C57.2797 24.388 57.3006 24.3375 57.3006 24.2849C57.3006 24.2323 57.2797 24.1818 57.2425 24.1446C57.2053 24.1073 57.1548 24.0864 57.1022 24.0864H54.5231C54.4705 24.0864 54.42 24.1073 54.3828 24.1446C54.3456 24.1818 54.3247 24.2323 54.3247 24.2849C54.3247 24.3375 54.3456 24.388 54.3828 24.4252C54.42 24.4624 54.4705 24.4834 54.5231 24.4834Z" fill="url(#paint20_linear)"/>
<path d="M54.5231 25.6743H55.5151C55.5677 25.6743 55.6181 25.6534 55.6553 25.6161C55.6925 25.5789 55.7134 25.5284 55.7134 25.4758C55.7134 25.4232 55.6925 25.3727 55.6553 25.3355C55.6181 25.2983 55.5677 25.2773 55.5151 25.2773H54.5231C54.4705 25.2773 54.42 25.2983 54.3828 25.3355C54.3456 25.3727 54.3247 25.4232 54.3247 25.4758C54.3247 25.5284 54.3456 25.5789 54.3828 25.6161C54.42 25.6534 54.4705 25.6743 54.5231 25.6743Z" fill="url(#paint21_linear)"/>
</g>
<path d="M137.8 21.2303C137.161 21.2303 136.651 21.7464 136.651 22.3794V35.094C136.651 35.7274 137.161 36.2431 137.8 36.2431H143.447C144.08 36.2431 144.596 35.7274 144.596 35.094V22.3794C144.596 21.7464 144.08 21.2303 143.447 21.2303H137.8ZM143.447 36.6841H137.8C136.922 36.6841 136.206 35.9722 136.206 35.094V22.3794C136.206 21.5016 136.922 20.785 137.8 20.785H143.447C144.325 20.785 145.036 21.5016 145.036 22.3794V35.094C145.036 35.9722 144.325 36.6841 143.447 36.6841Z" fill="url(#paint22_linear)"/>
<path d="M137.281 34.1407H143.967V22.8559H137.281V34.1407ZM144.413 34.5869H136.835V22.4144H144.413V34.5869Z" fill="url(#paint23_linear)"/>
<path d="M140.621 35.0248C140.425 35.0248 140.263 35.1855 140.263 35.3826C140.263 35.584 140.425 35.7456 140.621 35.7456C140.822 35.7456 140.984 35.584 140.984 35.3826C140.984 35.1855 140.822 35.0248 140.621 35.0248ZM140.621 36.1909C140.18 36.1909 139.818 35.8284 139.818 35.3826C139.818 34.9406 140.18 34.579 140.621 34.579C141.066 34.579 141.429 34.9406 141.429 35.3826C141.429 35.8284 141.066 36.1909 140.621 36.1909Z" fill="url(#paint24_linear)"/>
<path d="M138.051 25.8085H140.554V23.7333H138.051V25.8085ZM140.995 26.25H137.606V23.2871H140.995V26.25Z" fill="url(#paint25_linear)"/>
<path d="M143.451 23.7334H141.381C141.259 23.7334 141.163 23.6327 141.163 23.5099C141.163 23.388 141.259 23.2878 141.381 23.2878H143.451C143.574 23.2878 143.67 23.388 143.67 23.5099C143.67 23.6327 143.574 23.7334 143.451 23.7334Z" fill="url(#paint26_linear)"/>
<path d="M143.451 24.5728H141.381C141.259 24.5728 141.163 24.4725 141.163 24.3501C141.163 24.2281 141.259 24.1279 141.381 24.1279H143.451C143.574 24.1279 143.67 24.2281 143.67 24.3501C143.67 24.4725 143.574 24.5728 143.451 24.5728Z" fill="url(#paint27_linear)"/>
<path d="M143.451 25.4116H141.381C141.259 25.4116 141.163 25.3114 141.163 25.189C141.163 25.0671 141.259 24.9707 141.381 24.9707H143.451C143.574 24.9707 143.67 25.0671 143.67 25.189C143.67 25.3114 143.574 25.4116 143.451 25.4116Z" fill="url(#paint28_linear)"/>
<path d="M143.451 26.251H141.381C141.259 26.251 141.163 26.1503 141.163 26.0279C141.163 25.9054 141.259 25.809 141.381 25.809H143.451C143.574 25.809 143.67 25.9054 143.67 26.0279C143.67 26.1503 143.574 26.251 143.451 26.251Z" fill="url(#paint29_linear)"/>
<path d="M143.452 27.0894H137.783C137.661 27.0894 137.564 26.9934 137.564 26.871C137.564 26.7486 137.661 26.6484 137.783 26.6484H143.452C143.575 26.6484 143.671 26.7486 143.671 26.871C143.671 26.9934 143.575 27.0894 143.452 27.0894Z" fill="url(#paint30_linear)"/>
<path d="M143.452 27.9282H137.783C137.661 27.9282 137.564 27.8327 137.564 27.7098C137.564 27.5874 137.661 27.4863 137.783 27.4863H143.452C143.575 27.4863 143.671 27.5874 143.671 27.7098C143.671 27.8327 143.575 27.9282 143.452 27.9282Z" fill="url(#paint31_linear)"/>
<path d="M143.452 28.7715H137.783C137.661 28.7715 137.564 28.6708 137.564 28.5475C137.564 28.4265 137.661 28.3253 137.783 28.3253H143.452C143.575 28.3253 143.671 28.4265 143.671 28.5475C143.671 28.6708 143.575 28.7715 143.452 28.7715Z" fill="url(#paint32_linear)"/>
<path d="M143.452 29.6113H137.783C137.661 29.6113 137.564 29.5102 137.564 29.3877C137.564 29.2658 137.661 29.1655 137.783 29.1655H143.452C143.575 29.1655 143.671 29.2658 143.671 29.3877C143.671 29.5102 143.575 29.6113 143.452 29.6113Z" fill="url(#paint33_linear)"/>
<path d="M143.452 30.4482H137.783C137.661 30.4482 137.564 30.3485 137.564 30.2256C137.564 30.1036 137.661 30.0025 137.783 30.0025H143.452C143.575 30.0025 143.671 30.1036 143.671 30.2256C143.671 30.3485 143.575 30.4482 143.452 30.4482Z" fill="url(#paint34_linear)"/>
<path d="M143.452 31.2891H137.783C137.661 31.2891 137.564 31.1884 137.564 31.065C137.564 30.943 137.661 30.8476 137.783 30.8476H143.452C143.575 30.8476 143.671 30.943 143.671 31.065C143.671 31.1884 143.575 31.2891 143.452 31.2891Z" fill="url(#paint35_linear)"/>
<path d="M143.452 32.1265H137.783C137.661 32.1265 137.564 32.0305 137.564 31.9081C137.564 31.7809 137.661 31.6845 137.783 31.6845H143.452C143.575 31.6845 143.671 31.7809 143.671 31.9081C143.671 32.0305 143.575 32.1265 143.452 32.1265Z" fill="url(#paint36_linear)"/>
<path d="M143.452 32.9663H137.783C137.661 32.9663 137.564 32.8704 137.564 32.7479C137.564 32.6255 137.661 32.5253 137.783 32.5253H143.452C143.575 32.5253 143.671 32.6255 143.671 32.7479C143.671 32.8704 143.575 32.9663 143.452 32.9663Z" fill="url(#paint37_linear)"/>
<path d="M143.452 33.8047H137.783C137.661 33.8047 137.564 33.7083 137.564 33.5858C137.564 33.4634 137.661 33.3632 137.783 33.3632H143.452C143.575 33.3632 143.671 33.4634 143.671 33.5858C143.671 33.7083 143.575 33.8047 143.452 33.8047Z" fill="url(#paint38_linear)"/>
<path d="M48.6775 97.0162L46.8455 102.616H45.4535L44.2215 98.8242L42.9495 102.616H41.5655L39.7255 97.0162H41.0695L42.3335 100.952L43.6535 97.0162H44.8535L46.1335 100.984L47.4375 97.0162H48.6775ZM53.2087 100.48C53.2087 100.496 53.2007 100.608 53.1847 100.816H49.9287C49.9874 101.083 50.1261 101.294 50.3447 101.448C50.5634 101.603 50.8354 101.68 51.1607 101.68C51.3847 101.68 51.5821 101.648 51.7527 101.584C51.9287 101.515 52.0914 101.408 52.2407 101.264L52.9047 101.984C52.4994 102.448 51.9074 102.68 51.1287 102.68C50.6434 102.68 50.2141 102.587 49.8407 102.4C49.4674 102.208 49.1794 101.944 48.9767 101.608C48.7741 101.272 48.6727 100.891 48.6727 100.464C48.6727 100.043 48.7714 99.6642 48.9687 99.3282C49.1714 98.9869 49.4461 98.7229 49.7927 98.5362C50.1447 98.3442 50.5367 98.2482 50.9687 98.2482C51.3901 98.2482 51.7714 98.3389 52.1127 98.5202C52.4541 98.7015 52.7207 98.9629 52.9127 99.3042C53.1101 99.6402 53.2087 100.032 53.2087 100.48ZM50.9767 99.1922C50.6941 99.1922 50.4567 99.2722 50.2647 99.4322C50.0727 99.5922 49.9554 99.8109 49.9127 100.088H52.0327C51.9901 99.8162 51.8727 99.6002 51.6807 99.4402C51.4887 99.2749 51.2541 99.1922 50.9767 99.1922ZM56.5836 98.2482C56.9836 98.2482 57.3463 98.3415 57.6716 98.5282C58.0023 98.7095 58.2609 98.9682 58.4476 99.3042C58.6343 99.6349 58.7276 100.022 58.7276 100.464C58.7276 100.907 58.6343 101.296 58.4476 101.632C58.2609 101.963 58.0023 102.222 57.6716 102.408C57.3463 102.59 56.9836 102.68 56.5836 102.68C55.9916 102.68 55.5409 102.494 55.2316 102.12V102.616H54.0396V96.6802H55.2876V98.7682C55.6023 98.4215 56.0343 98.2482 56.5836 98.2482ZM56.3676 101.656C56.6876 101.656 56.9489 101.55 57.1516 101.336C57.3596 101.118 57.4636 100.827 57.4636 100.464C57.4636 100.102 57.3596 99.8135 57.1516 99.6002C56.9489 99.3815 56.6876 99.2722 56.3676 99.2722C56.0476 99.2722 55.7836 99.3815 55.5756 99.6002C55.3729 99.8135 55.2716 100.102 55.2716 100.464C55.2716 100.827 55.3729 101.118 55.5756 101.336C55.7836 101.55 56.0476 101.656 56.3676 101.656ZM61.011 102.68C60.6537 102.68 60.3044 102.638 59.963 102.552C59.6217 102.462 59.3497 102.35 59.147 102.216L59.563 101.32C59.755 101.443 59.987 101.544 60.259 101.624C60.531 101.699 60.7977 101.736 61.059 101.736C61.587 101.736 61.851 101.606 61.851 101.344C61.851 101.222 61.779 101.134 61.635 101.08C61.491 101.027 61.2697 100.982 60.971 100.944C60.619 100.891 60.3284 100.83 60.099 100.76C59.8697 100.691 59.6697 100.568 59.499 100.392C59.3337 100.216 59.251 99.9655 59.251 99.6402C59.251 99.3682 59.3284 99.1282 59.483 98.9202C59.643 98.7069 59.8724 98.5415 60.171 98.4242C60.475 98.3069 60.8324 98.2482 61.243 98.2482C61.547 98.2482 61.8484 98.2829 62.147 98.3522C62.451 98.4162 62.7017 98.5069 62.899 98.6242L62.483 99.5122C62.1044 99.2989 61.691 99.1922 61.243 99.1922C60.9764 99.1922 60.7764 99.2295 60.643 99.3042C60.5097 99.3789 60.443 99.4749 60.443 99.5922C60.443 99.7255 60.515 99.8189 60.659 99.8722C60.803 99.9255 61.0324 99.9762 61.347 100.024C61.699 100.083 61.987 100.147 62.211 100.216C62.435 100.28 62.6297 100.4 62.795 100.576C62.9604 100.752 63.043 100.998 63.043 101.312C63.043 101.579 62.963 101.816 62.803 102.024C62.643 102.232 62.4084 102.395 62.099 102.512C61.795 102.624 61.4324 102.68 61.011 102.68ZM63.813 98.3122H65.061V102.616H63.813V98.3122ZM64.437 97.7122C64.2077 97.7122 64.021 97.6455 63.877 97.5122C63.733 97.3789 63.661 97.2135 63.661 97.0162C63.661 96.8189 63.733 96.6535 63.877 96.5202C64.021 96.3869 64.2077 96.3202 64.437 96.3202C64.6664 96.3202 64.853 96.3842 64.997 96.5122C65.141 96.6402 65.213 96.8002 65.213 96.9922C65.213 97.2002 65.141 97.3735 64.997 97.5122C64.853 97.6455 64.6664 97.7122 64.437 97.7122ZM68.9953 102.408C68.8726 102.499 68.7206 102.568 68.5393 102.616C68.3633 102.659 68.1766 102.68 67.9793 102.68C67.4673 102.68 67.07 102.55 66.7873 102.288C66.51 102.027 66.3713 101.643 66.3713 101.136V99.3682H65.7073V98.4082H66.3713V97.3602H67.6193V98.4082H68.6913V99.3682H67.6193V101.12C67.6193 101.302 67.6646 101.443 67.7553 101.544C67.8513 101.64 67.9846 101.688 68.1553 101.688C68.3526 101.688 68.5206 101.635 68.6593 101.528L68.9953 102.408ZM73.779 100.48C73.779 100.496 73.771 100.608 73.755 100.816H70.499C70.5577 101.083 70.6964 101.294 70.915 101.448C71.1337 101.603 71.4057 101.68 71.731 101.68C71.955 101.68 72.1524 101.648 72.323 101.584C72.499 101.515 72.6617 101.408 72.811 101.264L73.475 101.984C73.0697 102.448 72.4777 102.68 71.699 102.68C71.2137 102.68 70.7844 102.587 70.411 102.4C70.0377 102.208 69.7497 101.944 69.547 101.608C69.3444 101.272 69.243 100.891 69.243 100.464C69.243 100.043 69.3417 99.6642 69.539 99.3282C69.7417 98.9869 70.0164 98.7229 70.363 98.5362C70.715 98.3442 71.107 98.2482 71.539 98.2482C71.9604 98.2482 72.3417 98.3389 72.683 98.5202C73.0244 98.7015 73.291 98.9629 73.483 99.3042C73.6804 99.6402 73.779 100.032 73.779 100.48ZM71.547 99.1922C71.2644 99.1922 71.027 99.2722 70.835 99.4322C70.643 99.5922 70.5257 99.8109 70.483 100.088H72.603C72.5604 99.8162 72.443 99.6002 72.251 99.4402C72.059 99.2749 71.8244 99.1922 71.547 99.1922Z" fill="#DCEAFF"/>
<path d="M132.318 102.896L132.31 99.5355L130.662 102.304H130.078L128.438 99.6075V102.896H127.222V97.2955H128.294L130.39 100.776L132.454 97.2955H133.518L133.534 102.896H132.318ZM136.822 102.96C136.369 102.96 135.961 102.866 135.598 102.68C135.241 102.488 134.961 102.224 134.758 101.888C134.556 101.552 134.454 101.17 134.454 100.744C134.454 100.317 134.556 99.9355 134.758 99.5995C134.961 99.2635 135.241 99.0022 135.598 98.8155C135.961 98.6235 136.369 98.5275 136.822 98.5275C137.276 98.5275 137.681 98.6235 138.038 98.8155C138.396 99.0022 138.676 99.2635 138.878 99.5995C139.081 99.9355 139.182 100.317 139.182 100.744C139.182 101.17 139.081 101.552 138.878 101.888C138.676 102.224 138.396 102.488 138.038 102.68C137.681 102.866 137.276 102.96 136.822 102.96ZM136.822 101.936C137.142 101.936 137.404 101.829 137.606 101.616C137.814 101.397 137.918 101.106 137.918 100.744C137.918 100.381 137.814 100.093 137.606 99.8795C137.404 99.6608 137.142 99.5515 136.822 99.5515C136.502 99.5515 136.238 99.6608 136.03 99.8795C135.822 100.093 135.718 100.381 135.718 100.744C135.718 101.106 135.822 101.397 136.03 101.616C136.238 101.829 136.502 101.936 136.822 101.936ZM142.561 98.5275C142.961 98.5275 143.323 98.6208 143.649 98.8075C143.979 98.9888 144.238 99.2475 144.425 99.5835C144.611 99.9142 144.705 100.301 144.705 100.744C144.705 101.186 144.611 101.576 144.425 101.912C144.238 102.242 143.979 102.501 143.649 102.688C143.323 102.869 142.961 102.96 142.561 102.96C141.969 102.96 141.518 102.773 141.209 102.4V102.896H140.017V96.9595H141.265V99.0475C141.579 98.7008 142.011 98.5275 142.561 98.5275ZM142.345 101.936C142.665 101.936 142.926 101.829 143.129 101.616C143.337 101.397 143.441 101.106 143.441 100.744C143.441 100.381 143.337 100.093 143.129 99.8795C142.926 99.6608 142.665 99.5515 142.345 99.5515C142.025 99.5515 141.761 99.6608 141.553 99.8795C141.35 100.093 141.249 100.381 141.249 100.744C141.249 101.106 141.35 101.397 141.553 101.616C141.761 101.829 142.025 101.936 142.345 101.936ZM145.54 98.5915H146.788V102.896H145.54V98.5915ZM146.164 97.9915C145.935 97.9915 145.748 97.9248 145.604 97.7915C145.46 97.6582 145.388 97.4928 145.388 97.2955C145.388 97.0982 145.46 96.9328 145.604 96.7995C145.748 96.6662 145.935 96.5995 146.164 96.5995C146.393 96.5995 146.58 96.6635 146.724 96.7915C146.868 96.9195 146.94 97.0795 146.94 97.2715C146.94 97.4795 146.868 97.6528 146.724 97.7915C146.58 97.9248 146.393 97.9915 146.164 97.9915ZM147.946 96.9595H149.194V102.896H147.946V96.9595ZM154.569 100.76C154.569 100.776 154.561 100.888 154.545 101.096H151.289C151.347 101.362 151.486 101.573 151.705 101.728C151.923 101.882 152.195 101.96 152.521 101.96C152.745 101.96 152.942 101.928 153.113 101.864C153.289 101.794 153.451 101.688 153.601 101.544L154.265 102.264C153.859 102.728 153.267 102.96 152.489 102.96C152.003 102.96 151.574 102.866 151.201 102.68C150.827 102.488 150.539 102.224 150.337 101.888C150.134 101.552 150.033 101.17 150.033 100.744C150.033 100.322 150.131 99.9435 150.329 99.6075C150.531 99.2662 150.806 99.0022 151.153 98.8155C151.505 98.6235 151.897 98.5275 152.329 98.5275C152.75 98.5275 153.131 98.6182 153.473 98.7995C153.814 98.9808 154.081 99.2422 154.273 99.5835C154.47 99.9195 154.569 100.312 154.569 100.76ZM152.337 99.4715C152.054 99.4715 151.817 99.5515 151.625 99.7115C151.433 99.8715 151.315 100.09 151.273 100.368H153.393C153.35 100.096 153.233 99.8795 153.041 99.7195C152.849 99.5542 152.614 99.4715 152.337 99.4715Z" fill="#DCEAFF"/>
</g>
<path d="M71.8023 145.933C72.6083 145.933 73.306 146.068 73.8953 146.336C74.4933 146.605 74.9526 146.986 75.2733 147.48C75.594 147.974 75.7543 148.559 75.7543 149.235C75.7543 149.903 75.594 150.488 75.2733 150.99C74.9526 151.484 74.4933 151.866 73.8953 152.134C73.306 152.394 72.6083 152.524 71.8023 152.524H69.9693V155.033H67.8633V145.933H71.8023ZM71.6853 150.808C72.318 150.808 72.799 150.674 73.1283 150.405C73.4576 150.128 73.6223 149.738 73.6223 149.235C73.6223 148.724 73.4576 148.334 73.1283 148.065C72.799 147.788 72.318 147.649 71.6853 147.649H69.9693V150.808H71.6853ZM77.2418 145.387H79.2698V155.033H77.2418V145.387ZM83.9729 147.935C85.0563 147.935 85.8883 148.195 86.4689 148.715C87.0496 149.227 87.3399 150.002 87.3399 151.042V155.033H85.4419V154.162C85.0606 154.812 84.3499 155.137 83.3099 155.137C82.7726 155.137 82.3046 155.046 81.9059 154.864C81.5159 154.682 81.2169 154.431 81.0089 154.11C80.8009 153.79 80.6969 153.426 80.6969 153.018C80.6969 152.368 80.9396 151.857 81.4249 151.484C81.9189 151.112 82.6773 150.925 83.6999 150.925H85.3119C85.3119 150.483 85.1776 150.145 84.9089 149.911C84.6403 149.669 84.2373 149.547 83.6999 149.547C83.3273 149.547 82.9589 149.608 82.5949 149.729C82.2396 149.842 81.9363 149.998 81.6849 150.197L80.9569 148.78C81.3383 148.512 81.7933 148.304 82.3219 148.156C82.8593 148.009 83.4096 147.935 83.9729 147.935ZM83.8169 153.772C84.1636 153.772 84.4713 153.694 84.7399 153.538C85.0086 153.374 85.1993 153.135 85.3119 152.823V152.108H83.9209C83.0889 152.108 82.6729 152.381 82.6729 152.927C82.6729 153.187 82.7726 153.395 82.9719 153.551C83.1799 153.699 83.4616 153.772 83.8169 153.772ZM93.6864 154.695C93.487 154.843 93.24 154.955 92.9454 155.033C92.6594 155.103 92.356 155.137 92.0354 155.137C91.2034 155.137 90.5577 154.925 90.0984 154.5C89.6477 154.076 89.4224 153.452 89.4224 152.628V149.755H88.3434V148.195H89.4224V146.492H91.4504V148.195H93.1924V149.755H91.4504V152.602C91.4504 152.897 91.524 153.127 91.6714 153.291C91.8274 153.447 92.044 153.525 92.3214 153.525C92.642 153.525 92.915 153.439 93.1404 153.265L93.6864 154.695ZM97.0478 148.195H98.8418V149.755H97.0998V155.033H95.0718V149.755H93.9928V148.195H95.0718V147.883C95.0718 147.086 95.3058 146.453 95.7738 145.985C96.2505 145.517 96.9178 145.283 97.7758 145.283C98.0791 145.283 98.3651 145.318 98.6338 145.387C98.9111 145.448 99.1408 145.539 99.3228 145.66L98.7898 147.129C98.5558 146.965 98.2828 146.882 97.9708 146.882C97.3555 146.882 97.0478 147.22 97.0478 147.896V148.195ZM103.091 155.137C102.355 155.137 101.692 154.986 101.102 154.682C100.522 154.37 100.067 153.941 99.7373 153.395C99.4079 152.849 99.2433 152.23 99.2433 151.536C99.2433 150.843 99.4079 150.223 99.7373 149.677C100.067 149.131 100.522 148.707 101.102 148.403C101.692 148.091 102.355 147.935 103.091 147.935C103.828 147.935 104.487 148.091 105.067 148.403C105.648 148.707 106.103 149.131 106.432 149.677C106.762 150.223 106.926 150.843 106.926 151.536C106.926 152.23 106.762 152.849 106.432 153.395C106.103 153.941 105.648 154.37 105.067 154.682C104.487 154.986 103.828 155.137 103.091 155.137ZM103.091 153.473C103.611 153.473 104.036 153.3 104.365 152.953C104.703 152.598 104.872 152.126 104.872 151.536C104.872 150.947 104.703 150.479 104.365 150.132C104.036 149.777 103.611 149.599 103.091 149.599C102.571 149.599 102.142 149.777 101.804 150.132C101.466 150.479 101.297 150.947 101.297 151.536C101.297 152.126 101.466 152.598 101.804 152.953C102.142 153.3 102.571 153.473 103.091 153.473ZM110.219 148.962C110.461 148.624 110.786 148.369 111.194 148.195C111.61 148.022 112.086 147.935 112.624 147.935V149.807C112.398 149.79 112.247 149.781 112.169 149.781C111.588 149.781 111.133 149.946 110.804 150.275C110.474 150.596 110.31 151.081 110.31 151.731V155.033H108.282V148.039H110.219V148.962ZM122.787 147.935C123.662 147.935 124.355 148.195 124.867 148.715C125.387 149.227 125.647 149.998 125.647 151.029V155.033H123.619V151.341C123.619 150.787 123.502 150.375 123.268 150.106C123.042 149.829 122.717 149.69 122.293 149.69C121.816 149.69 121.439 149.846 121.162 150.158C120.884 150.462 120.746 150.917 120.746 151.523V155.033H118.718V151.341C118.718 150.241 118.276 149.69 117.392 149.69C116.924 149.69 116.551 149.846 116.274 150.158C115.996 150.462 115.858 150.917 115.858 151.523V155.033H113.83V148.039H115.767V148.845C116.027 148.551 116.343 148.325 116.716 148.169C117.097 148.013 117.513 147.935 117.964 147.935C118.458 147.935 118.904 148.035 119.303 148.234C119.701 148.425 120.022 148.707 120.265 149.079C120.551 148.715 120.91 148.434 121.344 148.234C121.786 148.035 122.267 147.935 122.787 147.935ZM129.817 155.137C129.237 155.137 128.669 155.068 128.114 154.929C127.56 154.782 127.118 154.6 126.788 154.383L127.464 152.927C127.776 153.127 128.153 153.291 128.595 153.421C129.037 153.543 129.471 153.603 129.895 153.603C130.753 153.603 131.182 153.391 131.182 152.966C131.182 152.767 131.065 152.624 130.831 152.537C130.597 152.451 130.238 152.377 129.752 152.316C129.18 152.23 128.708 152.13 128.335 152.017C127.963 151.905 127.638 151.705 127.36 151.419C127.092 151.133 126.957 150.726 126.957 150.197C126.957 149.755 127.083 149.365 127.334 149.027C127.594 148.681 127.967 148.412 128.452 148.221C128.946 148.031 129.527 147.935 130.194 147.935C130.688 147.935 131.178 147.992 131.663 148.104C132.157 148.208 132.565 148.356 132.885 148.546L132.209 149.989C131.594 149.643 130.922 149.469 130.194 149.469C129.761 149.469 129.436 149.53 129.219 149.651C129.003 149.773 128.894 149.929 128.894 150.119C128.894 150.336 129.011 150.488 129.245 150.574C129.479 150.661 129.852 150.743 130.363 150.821C130.935 150.917 131.403 151.021 131.767 151.133C132.131 151.237 132.448 151.432 132.716 151.718C132.985 152.004 133.119 152.403 133.119 152.914C133.119 153.348 132.989 153.733 132.729 154.071C132.469 154.409 132.088 154.674 131.585 154.864C131.091 155.046 130.502 155.137 129.817 155.137Z" fill="#DCEAFF"/>
<defs>
<linearGradient id="paint0_linear" x1="118.536" y1="80.414" x2="164.036" y2="120.7" gradientUnits="userSpaceOnUse">
<stop stop-color="white"/>
<stop offset="1" stop-color="#F2F2F2"/>
</linearGradient>
<linearGradient id="paint1_linear" x1="125.385" y1="147.907" x2="218.944" y2="61.4711" gradientUnits="userSpaceOnUse">
<stop stop-color="#115ED5"/>
<stop offset="1" stop-color="#3FD9E3"/>
</linearGradient>
<linearGradient id="paint2_linear" x1="122.072" y1="83.9742" x2="160.293" y2="117.814" gradientUnits="userSpaceOnUse">
<stop stop-color="white"/>
<stop offset="1" stop-color="#F2F2F2"/>
</linearGradient>
<linearGradient id="paint3_linear" x1="122.559" y1="84.4037" x2="159.808" y2="117.384" gradientUnits="userSpaceOnUse">
<stop stop-color="#F2F2F2"/>
<stop offset="1" stop-color="white"/>
</linearGradient>
<linearGradient id="paint4_linear" x1="128.693" y1="138.075" x2="202.159" y2="70.2026" gradientUnits="userSpaceOnUse">
<stop stop-color="#115ED5"/>
<stop offset="1" stop-color="#3FD9E3"/>
</linearGradient>
<linearGradient id="paint5_linear" x1="116.485" y1="156.22" x2="219.919" y2="84.3654" gradientUnits="userSpaceOnUse">
<stop stop-color="#115ED5"/>
<stop offset="1" stop-color="#3FD9E3"/>
</linearGradient>
<linearGradient id="paint6_linear" x1="34.5747" y1="80.2567" x2="80.0745" y2="120.542" gradientUnits="userSpaceOnUse">
<stop stop-color="white"/>
<stop offset="1" stop-color="#F2F2F2"/>
</linearGradient>
<linearGradient id="paint7_linear" x1="41.4226" y1="147.749" x2="134.981" y2="61.3123" gradientUnits="userSpaceOnUse">
<stop stop-color="#115ED5"/>
<stop offset="1" stop-color="#3FD9E3"/>
</linearGradient>
<linearGradient id="paint8_linear" x1="38.1098" y1="83.8181" x2="76.3297" y2="117.658" gradientUnits="userSpaceOnUse">
<stop stop-color="white"/>
<stop offset="1" stop-color="#F2F2F2"/>
</linearGradient>
<linearGradient id="paint9_linear" x1="38.5957" y1="84.2456" x2="75.8435" y2="117.225" gradientUnits="userSpaceOnUse">
<stop stop-color="#F2F2F2"/>
<stop offset="1" stop-color="white"/>
</linearGradient>
<linearGradient id="paint10_linear" x1="44.7305" y1="137.918" x2="118.196" y2="70.0451" gradientUnits="userSpaceOnUse">
<stop stop-color="#115ED5"/>
<stop offset="1" stop-color="#3FD9E3"/>
</linearGradient>
<linearGradient id="paint11_linear" x1="33.1525" y1="156.221" x2="136.588" y2="84.3682" gradientUnits="userSpaceOnUse">
<stop stop-color="#115ED5"/>
<stop offset="1" stop-color="#3FD9E3"/>
</linearGradient>
<linearGradient id="paint12_linear" x1="136.343" y1="66.8468" x2="161.984" y2="43.1583" gradientUnits="userSpaceOnUse">
<stop stop-color="#115ED5"/>
<stop offset="1" stop-color="#3FD9E3"/>
</linearGradient>
<linearGradient id="paint13_linear" x1="53.0108" y1="66.8463" x2="78.6516" y2="43.1583" gradientUnits="userSpaceOnUse">
<stop stop-color="#115ED5"/>
<stop offset="1" stop-color="#3FD9E3"/>
</linearGradient>
<linearGradient id="paint14_linear" x1="47.7784" y1="20.3651" x2="67.2928" y2="37.643" gradientUnits="userSpaceOnUse">
<stop stop-color="white"/>
<stop offset="1" stop-color="#F2F2F2"/>
</linearGradient>
<linearGradient id="paint15_linear" x1="130.923" y1="20.3237" x2="150.284" y2="37.7602" gradientUnits="userSpaceOnUse">
<stop stop-color="white"/>
<stop offset="1" stop-color="#F2F2F2"/>
</linearGradient>
<linearGradient id="paint16_linear" x1="55.3939" y1="19.4454" x2="74.7212" y2="34.9088" gradientUnits="userSpaceOnUse">
<stop stop-color="#115ED5"/>
<stop offset="1" stop-color="#3FD9E3"/>
</linearGradient>
<linearGradient id="paint17_linear" x1="59.0497" y1="22.7216" x2="65.9078" y2="28.2087" gradientUnits="userSpaceOnUse">
<stop stop-color="#115ED5"/>
<stop offset="1" stop-color="#3FD9E3"/>
</linearGradient>
<linearGradient id="paint18_linear" x1="56.4224" y1="25.9469" x2="61.3371" y2="34.6852" gradientUnits="userSpaceOnUse">
<stop stop-color="#115ED5"/>
<stop offset="1" stop-color="#3FD9E3"/>
</linearGradient>
<linearGradient id="paint19_linear" x1="55.1113" y1="24.558" x2="55.3186" y2="25.8015" gradientUnits="userSpaceOnUse">
<stop stop-color="#115ED5"/>
<stop offset="1" stop-color="#3FD9E3"/>
</linearGradient>
<linearGradient id="paint20_linear" x1="55.1113" y1="23.9623" x2="55.3186" y2="25.2058" gradientUnits="userSpaceOnUse">
<stop stop-color="#115ED5"/>
<stop offset="1" stop-color="#3FD9E3"/>
</linearGradient>
<linearGradient id="paint21_linear" x1="54.6918" y1="25.1532" x2="55.0966" y2="26.2867" gradientUnits="userSpaceOnUse">
<stop stop-color="#115ED5"/>
<stop offset="1" stop-color="#3FD9E3"/>
</linearGradient>
<linearGradient id="paint22_linear" x1="138.54" y1="41.6556" x2="157.542" y2="33.2081" gradientUnits="userSpaceOnUse">
<stop stop-color="#115ED5"/>
<stop offset="1" stop-color="#3FD9E3"/>
</linearGradient>
<linearGradient id="paint23_linear" x1="138.838" y1="38.3932" x2="154.483" y2="30.5982" gradientUnits="userSpaceOnUse">
<stop stop-color="#115ED5"/>
<stop offset="1" stop-color="#3FD9E3"/>
</linearGradient>
<linearGradient id="paint24_linear" x1="140.244" y1="36.6949" x2="142.776" y2="34.6694" gradientUnits="userSpaceOnUse">
<stop stop-color="#115ED5"/>
<stop offset="1" stop-color="#3FD9E3"/>
</linearGradient>
<linearGradient id="paint25_linear" x1="138.502" y1="27.1765" x2="143.253" y2="22.8266" gradientUnits="userSpaceOnUse">
<stop stop-color="#115ED5"/>
<stop offset="1" stop-color="#3FD9E3"/>
</linearGradient>
<linearGradient id="paint26_linear" x1="141.825" y1="23.8727" x2="142.129" y2="22.5053" gradientUnits="userSpaceOnUse">
<stop stop-color="#115ED5"/>
<stop offset="1" stop-color="#3FD9E3"/>
</linearGradient>
<linearGradient id="paint27_linear" x1="141.825" y1="24.7119" x2="142.128" y2="23.3465" gradientUnits="userSpaceOnUse">
<stop stop-color="#115ED5"/>
<stop offset="1" stop-color="#3FD9E3"/>
</linearGradient>
<linearGradient id="paint28_linear" x1="141.825" y1="25.5495" x2="142.123" y2="24.1952" gradientUnits="userSpaceOnUse">
<stop stop-color="#115ED5"/>
<stop offset="1" stop-color="#3FD9E3"/>
</linearGradient>
<linearGradient id="paint29_linear" x1="141.825" y1="26.3892" x2="142.124" y2="25.0319" gradientUnits="userSpaceOnUse">
<stop stop-color="#115ED5"/>
<stop offset="1" stop-color="#3FD9E3"/>
</linearGradient>
<linearGradient id="paint30_linear" x1="139.179" y1="27.2272" x2="139.306" y2="25.8188" gradientUnits="userSpaceOnUse">
<stop stop-color="#115ED5"/>
<stop offset="1" stop-color="#3FD9E3"/>
</linearGradient>
<linearGradient id="paint31_linear" x1="139.179" y1="28.0664" x2="139.306" y2="26.6549" gradientUnits="userSpaceOnUse">
<stop stop-color="#115ED5"/>
<stop offset="1" stop-color="#3FD9E3"/>
</linearGradient>
<linearGradient id="paint32_linear" x1="139.179" y1="28.911" x2="139.309" y2="27.4863" gradientUnits="userSpaceOnUse">
<stop stop-color="#115ED5"/>
<stop offset="1" stop-color="#3FD9E3"/>
</linearGradient>
<linearGradient id="paint33_linear" x1="139.179" y1="29.7507" x2="139.308" y2="28.3272" gradientUnits="userSpaceOnUse">
<stop stop-color="#115ED5"/>
<stop offset="1" stop-color="#3FD9E3"/>
</linearGradient>
<linearGradient id="paint34_linear" x1="139.179" y1="30.5876" x2="139.308" y2="29.1641" gradientUnits="userSpaceOnUse">
<stop stop-color="#115ED5"/>
<stop offset="1" stop-color="#3FD9E3"/>
</linearGradient>
<linearGradient id="paint35_linear" x1="139.179" y1="31.4271" x2="139.306" y2="30.017" gradientUnits="userSpaceOnUse">
<stop stop-color="#115ED5"/>
<stop offset="1" stop-color="#3FD9E3"/>
</linearGradient>
<linearGradient id="paint36_linear" x1="139.179" y1="32.2647" x2="139.306" y2="30.8531" gradientUnits="userSpaceOnUse">
<stop stop-color="#115ED5"/>
<stop offset="1" stop-color="#3FD9E3"/>
</linearGradient>
<linearGradient id="paint37_linear" x1="139.179" y1="33.1042" x2="139.306" y2="31.6958" gradientUnits="userSpaceOnUse">
<stop stop-color="#115ED5"/>
<stop offset="1" stop-color="#3FD9E3"/>
</linearGradient>
<linearGradient id="paint38_linear" x1="139.179" y1="33.9427" x2="139.306" y2="32.5326" gradientUnits="userSpaceOnUse">
<stop stop-color="#115ED5"/>
<stop offset="1" stop-color="#3FD9E3"/>
</linearGradient>
<clipPath id="clip0">
<rect width="12.697" height="12.7016" fill="white" transform="translate(51.9438 23.0942)"/>
</clipPath>
</defs>
</svg>
