<svg width="913" height="83" viewBox="0 0 913 83" fill="none" xmlns="http://www.w3.org/2000/svg">
<g filter="url(#filter0_d)">
<rect x="54.562" y="20.3433" width="6.06242" height="22" fill="#C9DCEE"/>
<rect x="324.946" y="3.34326" width="6.06242" height="22" fill="#C9DCEE"/>
<path d="M569.867 20.3433L575.93 20.3433V42.3433H569.867L569.867 20.3433Z" fill="#C9DCEE"/>
<path opacity="0.93" d="M14.7968 62.79H10.3888V60.7H21.6748V62.79H17.2668V74H14.7968V62.79ZM23.0592 63.854H25.4342V74H23.0592V63.854ZM24.2562 62.182C23.8256 62.182 23.4646 62.049 23.1732 61.783C22.8819 61.5043 22.7362 61.1623 22.7362 60.757C22.7362 60.3517 22.8819 60.016 23.1732 59.75C23.4646 59.4713 23.8256 59.332 24.2562 59.332C24.6869 59.332 25.0479 59.465 25.3392 59.731C25.6306 59.9843 25.7762 60.3073 25.7762 60.7C25.7762 61.118 25.6306 61.4727 25.3392 61.764C25.0606 62.0427 24.6996 62.182 24.2562 62.182ZM41.3574 63.74C42.6368 63.74 43.6501 64.1137 44.3974 64.861C45.1448 65.5957 45.5184 66.704 45.5184 68.186V74H43.1434V68.49C43.1434 67.6033 42.9471 66.9383 42.5544 66.495C42.1618 66.039 41.5981 65.811 40.8634 65.811C40.0654 65.811 39.4258 66.077 38.9444 66.609C38.4631 67.1283 38.2224 67.8757 38.2224 68.851V74H35.8474V68.49C35.8474 67.6033 35.6511 66.9383 35.2584 66.495C34.8658 66.039 34.3021 65.811 33.5674 65.811C32.7568 65.811 32.1108 66.0707 31.6294 66.59C31.1608 67.1093 30.9264 67.863 30.9264 68.851V74H28.5514V63.854H30.8124V65.146C31.1924 64.69 31.6674 64.3417 32.2374 64.101C32.8074 63.8603 33.4408 63.74 34.1374 63.74C34.8974 63.74 35.5688 63.8857 36.1514 64.177C36.7468 64.4557 37.2154 64.8737 37.5574 65.431C37.9754 64.899 38.5138 64.4873 39.1724 64.196C39.8311 63.892 40.5594 63.74 41.3574 63.74ZM58.1842 68.984C58.1842 69.1487 58.1715 69.383 58.1462 69.687H50.1852C50.3245 70.4343 50.6855 71.0297 51.2682 71.473C51.8635 71.9037 52.5982 72.119 53.4722 72.119C54.5868 72.119 55.5052 71.7517 56.2272 71.017L57.5002 72.48C57.0442 73.0247 56.4678 73.4363 55.7712 73.715C55.0745 73.9937 54.2892 74.133 53.4152 74.133C52.3005 74.133 51.3188 73.9113 50.4702 73.468C49.6215 73.0247 48.9628 72.4103 48.4942 71.625C48.0382 70.827 47.8102 69.9277 47.8102 68.927C47.8102 67.939 48.0318 67.0523 48.4752 66.267C48.9312 65.469 49.5582 64.8483 50.3562 64.405C51.1542 63.9617 52.0535 63.74 53.0542 63.74C54.0422 63.74 54.9225 63.9617 55.6952 64.405C56.4805 64.8357 57.0885 65.45 57.5192 66.248C57.9625 67.0333 58.1842 67.9453 58.1842 68.984ZM53.0542 65.64C52.2942 65.64 51.6482 65.868 51.1162 66.324C50.5968 66.7673 50.2802 67.3627 50.1662 68.11H55.9232C55.8218 67.3753 55.5115 66.78 54.9922 66.324C54.4728 65.868 53.8268 65.64 53.0542 65.64ZM60.4655 59.902H62.8405V74H60.4655V59.902ZM65.9577 63.854H68.3327V74H65.9577V63.854ZM67.1547 62.182C66.724 62.182 66.363 62.049 66.0717 61.783C65.7804 61.5043 65.6347 61.1623 65.6347 60.757C65.6347 60.3517 65.7804 60.016 66.0717 59.75C66.363 59.4713 66.724 59.332 67.1547 59.332C67.5854 59.332 67.9464 59.465 68.2377 59.731C68.529 59.9843 68.6747 60.3073 68.6747 60.7C68.6747 61.118 68.529 61.4727 68.2377 61.764C67.959 62.0427 67.598 62.182 67.1547 62.182ZM77.2069 63.74C78.4862 63.74 79.5122 64.1137 80.2849 64.861C81.0575 65.6083 81.4439 66.7167 81.4439 68.186V74H79.0689V68.49C79.0689 67.6033 78.8599 66.9383 78.4419 66.495C78.0239 66.039 77.4285 65.811 76.6559 65.811C75.7819 65.811 75.0915 66.077 74.5849 66.609C74.0782 67.1283 73.8249 67.882 73.8249 68.87V74H71.4499V63.854H73.7109V65.165C74.1035 64.6963 74.5975 64.3417 75.1929 64.101C75.7882 63.8603 76.4595 63.74 77.2069 63.74ZM94.0875 68.984C94.0875 69.1487 94.0748 69.383 94.0495 69.687H86.0885C86.2278 70.4343 86.5888 71.0297 87.1715 71.473C87.7668 71.9037 88.5015 72.119 89.3755 72.119C90.4902 72.119 91.4085 71.7517 92.1305 71.017L93.4035 72.48C92.9475 73.0247 92.3712 73.4363 91.6745 73.715C90.9778 73.9937 90.1925 74.133 89.3185 74.133C88.2038 74.133 87.2222 73.9113 86.3735 73.468C85.5248 73.0247 84.8662 72.4103 84.3975 71.625C83.9415 70.827 83.7135 69.9277 83.7135 68.927C83.7135 67.939 83.9352 67.0523 84.3785 66.267C84.8345 65.469 85.4615 64.8483 86.2595 64.405C87.0575 63.9617 87.9568 63.74 88.9575 63.74C89.9455 63.74 90.8258 63.9617 91.5985 64.405C92.3838 64.8357 92.9918 65.45 93.4225 66.248C93.8658 67.0333 94.0875 67.9453 94.0875 68.984ZM88.9575 65.64C88.1975 65.64 87.5515 65.868 87.0195 66.324C86.5002 66.7673 86.1835 67.3627 86.0695 68.11H91.8265C91.7252 67.3753 91.4148 66.78 90.8955 66.324C90.3762 65.868 89.7302 65.64 88.9575 65.64ZM105.496 60.7V74H103.026V62.771H100.214V60.7H105.496Z" fill="#0E3156"/>
<path opacity="0.93" d="M283.268 74H285.738V62.79H290.146V60.7H278.86V62.79H283.268V74ZM292.727 62.182C293.62 62.182 294.247 61.536 294.247 60.7C294.247 59.921 293.601 59.332 292.727 59.332C291.853 59.332 291.207 59.959 291.207 60.757C291.207 61.555 291.853 62.182 292.727 62.182ZM291.53 74H293.905V63.854H291.53V74ZM309.828 63.74C308.213 63.74 306.845 64.386 306.028 65.431C305.325 64.291 304.09 63.74 302.608 63.74C301.221 63.74 300.043 64.234 299.283 65.146V63.854H297.022V74H299.397V68.851C299.397 66.837 300.461 65.811 302.038 65.811C303.482 65.811 304.318 66.685 304.318 68.49V74H306.693V68.851C306.693 66.837 307.776 65.811 309.334 65.811C310.778 65.811 311.614 66.685 311.614 68.49V74H313.989V68.186C313.989 65.127 312.279 63.74 309.828 63.74ZM326.655 68.984C326.655 65.811 324.489 63.74 321.525 63.74C318.504 63.74 316.281 65.906 316.281 68.927C316.281 71.948 318.485 74.133 321.886 74.133C323.634 74.133 325.059 73.563 325.971 72.48L324.698 71.017C323.976 71.758 323.083 72.119 321.943 72.119C320.176 72.119 318.941 71.169 318.656 69.687H326.617C326.636 69.459 326.655 69.174 326.655 68.984ZM321.525 65.64C323.083 65.64 324.204 66.647 324.394 68.11H318.637C318.865 66.628 319.986 65.64 321.525 65.64ZM328.936 74H331.311V59.902H328.936V74ZM335.626 62.182C336.519 62.182 337.146 61.536 337.146 60.7C337.146 59.921 336.5 59.332 335.626 59.332C334.752 59.332 334.106 59.959 334.106 60.757C334.106 61.555 334.752 62.182 335.626 62.182ZM334.429 74H336.804V63.854H334.429V74ZM345.678 63.74C344.196 63.74 342.961 64.234 342.182 65.165V63.854H339.921V74H342.296V68.87C342.296 66.837 343.436 65.811 345.127 65.811C346.647 65.811 347.54 66.685 347.54 68.49V74H349.915V68.186C349.915 65.127 348.11 63.74 345.678 63.74ZM362.558 68.984C362.558 65.811 360.392 63.74 357.428 63.74C354.407 63.74 352.184 65.906 352.184 68.927C352.184 71.948 354.388 74.133 357.789 74.133C359.537 74.133 360.962 73.563 361.874 72.48L360.601 71.017C359.879 71.758 358.986 72.119 357.846 72.119C356.079 72.119 354.844 71.169 354.559 69.687H362.52C362.539 69.459 362.558 69.174 362.558 68.984ZM357.428 65.64C358.986 65.64 360.107 66.647 360.297 68.11H354.54C354.768 66.628 355.889 65.64 357.428 65.64ZM372.732 71.91L376.285 68.528C378.128 66.799 378.489 65.621 378.489 64.329C378.489 61.973 376.627 60.51 373.739 60.51C371.554 60.51 369.711 61.327 368.685 62.714L370.414 64.044C371.155 63.094 372.238 62.657 373.53 62.657C375.164 62.657 376 63.36 376 64.576C376 65.317 375.772 66.096 374.48 67.331L369.198 72.347V74H379.002V71.91H372.732Z" fill="#0E3156"/>
<path opacity="0.93" d="M546.377 74H548.847V62.79H553.255V60.7H541.969V62.79H546.377V74ZM555.836 62.182C556.729 62.182 557.356 61.536 557.356 60.7C557.356 59.921 556.71 59.332 555.836 59.332C554.962 59.332 554.316 59.959 554.316 60.757C554.316 61.555 554.962 62.182 555.836 62.182ZM554.639 74H557.014V63.854H554.639V74ZM572.938 63.74C571.323 63.74 569.955 64.386 569.138 65.431C568.435 64.291 567.2 63.74 565.718 63.74C564.331 63.74 563.153 64.234 562.393 65.146V63.854H560.132V74H562.507V68.851C562.507 66.837 563.571 65.811 565.148 65.811C566.592 65.811 567.428 66.685 567.428 68.49V74H569.803V68.851C569.803 66.837 570.886 65.811 572.444 65.811C573.888 65.811 574.724 66.685 574.724 68.49V74H577.099V68.186C577.099 65.127 575.389 63.74 572.938 63.74ZM589.764 68.984C589.764 65.811 587.598 63.74 584.634 63.74C581.613 63.74 579.39 65.906 579.39 68.927C579.39 71.948 581.594 74.133 584.995 74.133C586.743 74.133 588.168 73.563 589.08 72.48L587.807 71.017C587.085 71.758 586.192 72.119 585.052 72.119C583.285 72.119 582.05 71.169 581.765 69.687H589.726C589.745 69.459 589.764 69.174 589.764 68.984ZM584.634 65.64C586.192 65.64 587.313 66.647 587.503 68.11H581.746C581.974 66.628 583.095 65.64 584.634 65.64ZM592.046 74H594.421V59.902H592.046V74ZM598.735 62.182C599.628 62.182 600.255 61.536 600.255 60.7C600.255 59.921 599.609 59.332 598.735 59.332C597.861 59.332 597.215 59.959 597.215 60.757C597.215 61.555 597.861 62.182 598.735 62.182ZM597.538 74H599.913V63.854H597.538V74ZM608.787 63.74C607.305 63.74 606.07 64.234 605.291 65.165V63.854H603.03V74H605.405V68.87C605.405 66.837 606.545 65.811 608.236 65.811C609.756 65.811 610.649 66.685 610.649 68.49V74H613.024V68.186C613.024 65.127 611.219 63.74 608.787 63.74ZM625.668 68.984C625.668 65.811 623.502 63.74 620.538 63.74C617.517 63.74 615.294 65.906 615.294 68.927C615.294 71.948 617.498 74.133 620.899 74.133C622.647 74.133 624.072 73.563 624.984 72.48L623.711 71.017C622.989 71.758 622.096 72.119 620.956 72.119C619.189 72.119 617.954 71.169 617.669 69.687H625.63C625.649 69.459 625.668 69.174 625.668 68.984ZM620.538 65.64C622.096 65.64 623.217 66.647 623.407 68.11H617.65C617.878 66.628 618.999 65.64 620.538 65.64ZM638.14 66.191L641.37 62.353V60.7H632.307V62.771H638.349L635.328 66.362V68.053H636.544C638.558 68.053 639.432 68.832 639.432 70.029C639.432 71.264 638.387 72.043 636.62 72.043C635.119 72.043 633.675 71.53 632.725 70.732L631.661 72.651C632.896 73.62 634.777 74.19 636.658 74.19C640.23 74.19 641.921 72.252 641.921 70.01C641.921 68.015 640.648 66.514 638.14 66.191Z" fill="#0E3156"/>
<path opacity="0.93" d="M803.719 74H806.189V62.79H810.597V60.7H799.311V62.79H803.719V74ZM813.178 62.182C814.071 62.182 814.698 61.536 814.698 60.7C814.698 59.921 814.052 59.332 813.178 59.332C812.304 59.332 811.658 59.959 811.658 60.757C811.658 61.555 812.304 62.182 813.178 62.182ZM811.981 74H814.356V63.854H811.981V74ZM830.28 63.74C828.665 63.74 827.297 64.386 826.48 65.431C825.777 64.291 824.542 63.74 823.06 63.74C821.673 63.74 820.495 64.234 819.735 65.146V63.854H817.474V74H819.849V68.851C819.849 66.837 820.913 65.811 822.49 65.811C823.934 65.811 824.77 66.685 824.77 68.49V74H827.145V68.851C827.145 66.837 828.228 65.811 829.786 65.811C831.23 65.811 832.066 66.685 832.066 68.49V74H834.441V68.186C834.441 65.127 832.731 63.74 830.28 63.74ZM847.106 68.984C847.106 65.811 844.94 63.74 841.976 63.74C838.955 63.74 836.732 65.906 836.732 68.927C836.732 71.948 838.936 74.133 842.337 74.133C844.085 74.133 845.51 73.563 846.422 72.48L845.149 71.017C844.427 71.758 843.534 72.119 842.394 72.119C840.627 72.119 839.392 71.169 839.107 69.687H847.068C847.087 69.459 847.106 69.174 847.106 68.984ZM841.976 65.64C843.534 65.64 844.655 66.647 844.845 68.11H839.088C839.316 66.628 840.437 65.64 841.976 65.64ZM849.388 74H851.763V59.902H849.388V74ZM856.077 62.182C856.97 62.182 857.597 61.536 857.597 60.7C857.597 59.921 856.951 59.332 856.077 59.332C855.203 59.332 854.557 59.959 854.557 60.757C854.557 61.555 855.203 62.182 856.077 62.182ZM854.88 74H857.255V63.854H854.88V74ZM866.129 63.74C864.647 63.74 863.412 64.234 862.633 65.165V63.854H860.372V74H862.747V68.87C862.747 66.837 863.887 65.811 865.578 65.811C867.098 65.811 867.991 66.685 867.991 68.49V74H870.366V68.186C870.366 65.127 868.561 63.74 866.129 63.74ZM883.01 68.984C883.01 65.811 880.844 63.74 877.88 63.74C874.859 63.74 872.636 65.906 872.636 68.927C872.636 71.948 874.84 74.133 878.241 74.133C879.989 74.133 881.414 73.563 882.326 72.48L881.053 71.017C880.331 71.758 879.438 72.119 878.298 72.119C876.531 72.119 875.296 71.169 875.011 69.687H882.972C882.991 69.459 883.01 69.174 883.01 68.984ZM877.88 65.64C879.438 65.64 880.559 66.647 880.749 68.11H874.992C875.22 66.628 876.341 65.64 877.88 65.64ZM901.676 68.889H899.32V66.21H897.002V68.889H892.651L898.826 60.7H896.185L889.63 69.269V70.979H896.926V74H899.32V70.979H901.676V68.889Z" fill="#0E3156"/>
<rect opacity="0.49" x="843.613" y="20.3433" width="5.00003" height="782.052" transform="rotate(90 843.613 20.3433)" fill="#CECECE" fill-opacity="0.91"/>
<g filter="url(#filter1_d)">
<rect x="10.6367" y="1" width="110.336" height="42" rx="8" fill="#F4F9FF"/>
</g>
<g filter="url(#filter2_d)">
<rect x="268.383" width="110.336" height="44" rx="8" fill="#F4F9FF"/>
</g>
<g filter="url(#filter3_d)">
<rect x="539.281" width="109.124" height="44" rx="8" fill="#F4F9FF"/>
</g>
<g filter="url(#filter4_d)">
<rect x="799.965" width="107.911" height="44" rx="8" fill="#F4F9FF"/>
</g>
<path d="M842 28.9999H866V31.9999H842V28.9999ZM866 16.0999V17.9999H863V23.9999H865V26.9999H843V23.9999H845V17.9999H842V16.0999C841.999 15.4862 842.163 14.8835 842.476 14.3554C842.789 13.8274 843.238 13.3936 843.777 13.0999L852.367 8.41588C852.868 8.14174 853.429 7.99805 854 7.99805C854.571 7.99805 855.132 8.14174 855.633 8.41588L864.224 13.0999C864.763 13.3938 865.212 13.8277 865.525 14.3557C865.837 14.8837 866.001 15.4863 866 16.0999ZM846.562 14.9999H861.437L854.2 11.0499C854.14 11.0166 854.073 10.9991 854.005 10.9991C853.937 10.9991 853.87 11.0166 853.81 11.0499L846.562 14.9999ZM853 17.9999V23.9999H855V17.9999H853ZM848 23.9999H850V17.9999H848V23.9999ZM860 17.9999H858V23.9999H860V17.9999Z" fill="#004080"/>
<path d="M72.9995 15.849V15C72.9995 13.1435 72.262 11.363 70.9493 10.0503C69.6365 8.7375 67.856 8 65.9995 8C64.143 8 62.3625 8.7375 61.0498 10.0503C59.737 11.363 58.9995 13.1435 58.9995 15V15.849H55.9995V28.849C55.9995 29.6446 56.3156 30.4077 56.8782 30.9703C57.4408 31.5329 58.2039 31.849 58.9995 31.849H72.9995C73.7952 31.849 74.5582 31.5329 75.1208 30.9703C75.6834 30.4077 75.9995 29.6446 75.9995 28.849V15.849H72.9995ZM61.9995 15C61.9995 13.9391 62.4209 12.9217 63.1711 12.1716C63.9212 11.4214 64.9386 11 65.9995 11C67.0604 11 68.0778 11.4214 68.8279 12.1716C69.5781 12.9217 69.9995 13.9391 69.9995 15V15.849H61.9995V15ZM58.9995 28.849V18.849H72.9995V28.849H58.9995Z" fill="#004080"/>
<path d="M333.521 30.1117L332.46 29.0507C331.81 28.4006 331.038 27.8849 330.189 27.5331C329.34 27.1812 328.429 27.0002 327.51 27.0002C326.591 27.0002 325.68 27.1812 324.831 27.5331C323.982 27.8849 323.21 28.4006 322.56 29.0507L321.5 30.1117L319.379 27.9907L320.439 26.9297C322.314 25.0543 324.858 24.0008 327.51 24.0008C330.162 24.0008 332.706 25.0543 334.581 26.9297L335.642 27.9907L333.521 30.1117ZM332.106 31.5247L331.046 30.4647C330.107 29.529 328.836 29.0035 327.51 29.0035C326.185 29.0035 324.914 29.529 323.975 30.4647L322.914 31.5247L325.035 33.6467L326.096 32.5867C326.282 32.4009 326.502 32.2535 326.745 32.1529C326.988 32.0523 327.248 32.0006 327.51 32.0006C327.773 32.0006 328.033 32.0523 328.276 32.1529C328.519 32.2535 328.739 32.4009 328.925 32.5867L329.985 33.6467L332.106 31.5247ZM326.01 35.5007C326.01 35.7973 326.098 36.0873 326.263 36.334C326.428 36.5807 326.662 36.7729 326.936 36.8865C327.21 37 327.512 37.0297 327.803 36.9718C328.094 36.914 328.361 36.7711 328.571 36.5613C328.78 36.3515 328.923 36.0843 328.981 35.7933C329.039 35.5023 329.009 35.2007 328.896 34.9266C328.782 34.6525 328.59 34.4183 328.343 34.2535C328.097 34.0886 327.807 34.0007 327.51 34.0007C327.112 34.0007 326.731 34.1587 326.449 34.44C326.168 34.7213 326.01 35.1028 326.01 35.5007ZM321.5 34.3287L319.172 32.0007H317.8C317.061 32.0036 316.351 31.713 315.826 31.1926C315.301 30.6723 315.004 29.9648 315 29.2257C315.026 28.5853 315.255 27.9699 315.654 27.4681C316.053 26.9663 316.6 26.6041 317.218 26.4337L319.381 25.8777L318.048 24.0857C317.387 23.2043 317.029 22.1324 317.029 21.0307C317.016 20.3638 317.138 19.7012 317.388 19.0829C317.639 18.4647 318.011 17.9035 318.485 17.4334C318.958 16.9633 319.521 16.5939 320.141 16.3477C320.761 16.1014 321.424 15.9834 322.091 16.0007C323.341 16.0008 324.549 16.4528 325.491 17.2734C326.434 18.0939 327.048 19.2277 327.221 20.4657L327.291 20.9947C327.365 20.9947 327.436 20.9797 327.51 20.9797C330.326 20.9758 333.065 21.8939 335.31 23.5937C334.817 22.4804 334.083 21.4907 333.16 20.6963C332.238 19.9019 331.15 19.3227 329.976 19.0007C329.496 17.2774 328.466 15.7583 327.042 14.6751C325.619 13.5918 323.88 13.0038 322.091 13.0007C321.031 12.987 319.979 13.1852 318.997 13.5835C318.015 13.9818 317.122 14.5723 316.371 15.3202C315.62 16.0682 315.026 16.9586 314.624 17.9392C314.222 18.9198 314.02 19.9708 314.029 21.0307C314.028 22.157 314.263 23.2711 314.72 24.3007C313.896 24.8337 313.216 25.5623 312.741 26.4215C312.267 27.2808 312.012 28.2441 312 29.2257C312.005 30.7602 312.618 32.2303 313.705 33.3131C314.793 34.3958 316.265 35.0028 317.8 35.0007H322.176L321.5 34.3287Z" fill="#004080"/>
<path d="M596 11C593.626 11 591.306 11.7038 589.333 13.0224C587.359 14.3409 585.821 16.2151 584.913 18.4078C584.005 20.6005 583.767 23.0133 584.23 25.3411C584.693 27.6689 585.836 29.8071 587.514 31.4853C589.192 33.1635 591.331 34.3064 593.658 34.7694C595.986 35.2324 598.399 34.9948 600.592 34.0866C602.784 33.1783 604.659 31.6402 605.977 29.6668C607.296 27.6935 608 25.3734 608 23C607.996 19.8185 606.731 16.7682 604.481 14.5185C602.231 12.2688 599.181 11.0034 596 11ZM596 32V27.693C596 27.4609 595.907 27.2384 595.743 27.0743C595.579 26.9102 595.357 26.818 595.125 26.818H590.75L587 23.072C587 23.048 587 23.024 587 23C586.998 21.3064 587.474 19.6467 588.374 18.2121C589.274 16.7775 590.562 15.6264 592.087 14.8914C593.613 14.1564 595.316 13.8674 596.999 14.0577C598.681 14.248 600.276 14.9098 601.6 15.967L601.249 16.318H597.909V20.136H595.045V23.08C595.045 23.3121 595.137 23.5346 595.301 23.6987C595.465 23.8628 595.687 23.955 595.92 23.955H601.727V24.9C601.729 26.2486 602.187 27.5568 603.027 28.612C602.185 29.6687 601.117 30.522 599.9 31.1086C598.683 31.6952 597.35 31.9999 596 32Z" fill="#004080"/>
</g>
<defs>
<filter id="filter0_d" x="6.38867" y="0" width="905.487" height="82.19" filterUnits="userSpaceOnUse" color-interpolation-filters="sRGB">
<feFlood flood-opacity="0" result="BackgroundImageFix"/>
<feColorMatrix in="SourceAlpha" type="matrix" values="0 0 0 0 0 0 0 0 0 0 0 0 0 0 0 0 0 0 127 0" result="hardAlpha"/>
<feOffset dy="4"/>
<feGaussianBlur stdDeviation="2"/>
<feComposite in2="hardAlpha" operator="out"/>
<feColorMatrix type="matrix" values="0 0 0 0 0 0 0 0 0 0 0 0 0 0 0 0 0 0 0.25 0"/>
<feBlend mode="normal" in2="BackgroundImageFix" result="effect1_dropShadow"/>
<feBlend mode="normal" in="SourceGraphic" in2="effect1_dropShadow" result="shape"/>
</filter>
<filter id="filter1_d" x="6.63672" y="1" width="118.336" height="50" filterUnits="userSpaceOnUse" color-interpolation-filters="sRGB">
<feFlood flood-opacity="0" result="BackgroundImageFix"/>
<feColorMatrix in="SourceAlpha" type="matrix" values="0 0 0 0 0 0 0 0 0 0 0 0 0 0 0 0 0 0 127 0" result="hardAlpha"/>
<feOffset dy="4"/>
<feGaussianBlur stdDeviation="2"/>
<feColorMatrix type="matrix" values="0 0 0 0 0 0 0 0 0 0 0 0 0 0 0 0 0 0 0.11 0"/>
<feBlend mode="normal" in2="BackgroundImageFix" result="effect1_dropShadow"/>
<feBlend mode="normal" in="SourceGraphic" in2="effect1_dropShadow" result="shape"/>
</filter>
<filter id="filter2_d" x="264.383" y="0" width="118.336" height="52" filterUnits="userSpaceOnUse" color-interpolation-filters="sRGB">
<feFlood flood-opacity="0" result="BackgroundImageFix"/>
<feColorMatrix in="SourceAlpha" type="matrix" values="0 0 0 0 0 0 0 0 0 0 0 0 0 0 0 0 0 0 127 0" result="hardAlpha"/>
<feOffset dy="4"/>
<feGaussianBlur stdDeviation="2"/>
<feColorMatrix type="matrix" values="0 0 0 0 0 0 0 0 0 0 0 0 0 0 0 0 0 0 0.11 0"/>
<feBlend mode="normal" in2="BackgroundImageFix" result="effect1_dropShadow"/>
<feBlend mode="normal" in="SourceGraphic" in2="effect1_dropShadow" result="shape"/>
</filter>
<filter id="filter3_d" x="535.281" y="0" width="117.124" height="52" filterUnits="userSpaceOnUse" color-interpolation-filters="sRGB">
<feFlood flood-opacity="0" result="BackgroundImageFix"/>
<feColorMatrix in="SourceAlpha" type="matrix" values="0 0 0 0 0 0 0 0 0 0 0 0 0 0 0 0 0 0 127 0" result="hardAlpha"/>
<feOffset dy="4"/>
<feGaussianBlur stdDeviation="2"/>
<feColorMatrix type="matrix" values="0 0 0 0 0 0 0 0 0 0 0 0 0 0 0 0 0 0 0.11 0"/>
<feBlend mode="normal" in2="BackgroundImageFix" result="effect1_dropShadow"/>
<feBlend mode="normal" in="SourceGraphic" in2="effect1_dropShadow" result="shape"/>
</filter>
<filter id="filter4_d" x="795.965" y="0" width="115.911" height="52" filterUnits="userSpaceOnUse" color-interpolation-filters="sRGB">
<feFlood flood-opacity="0" result="BackgroundImageFix"/>
<feColorMatrix in="SourceAlpha" type="matrix" values="0 0 0 0 0 0 0 0 0 0 0 0 0 0 0 0 0 0 127 0" result="hardAlpha"/>
<feOffset dy="4"/>
<feGaussianBlur stdDeviation="2"/>
<feColorMatrix type="matrix" values="0 0 0 0 0 0 0 0 0 0 0 0 0 0 0 0 0 0 0.11 0"/>
<feBlend mode="normal" in2="BackgroundImageFix" result="effect1_dropShadow"/>
<feBlend mode="normal" in="SourceGraphic" in2="effect1_dropShadow" result="shape"/>
</filter>
</defs>
</svg>
