<svg width="175" height="12" viewBox="0 0 175 12" fill="none" xmlns="http://www.w3.org/2000/svg">
<path d="M0.730469 6.375H49.0023" stroke="#E2E2E2"/>
<path d="M126.235 6.375H174.507" stroke="#E2E2E2"/>
<path d="M64.0849 11.95C67.0841 11.95 69.5155 9.39382 69.5155 6.24062C69.5155 3.08742 67.0841 0.53125 64.0849 0.53125C61.0857 0.53125 58.6543 3.08742 58.6543 6.24062C58.6543 9.39382 61.0857 11.95 64.0849 11.95Z" fill="#014497"/>
<path d="M85.2039 6.24062C85.2039 9.39381 82.7726 11.95 79.7734 11.95C76.7741 11.95 74.3428 9.39381 74.3428 6.24062C74.3428 3.08742 76.7741 0.53125 79.7734 0.53125C82.7726 0.53125 85.2039 3.08742 85.2039 6.24062Z" fill="#014497"/>
<path d="M95.4608 11.95C98.4601 11.95 100.891 9.39382 100.891 6.24062C100.891 3.08742 98.4601 0.53125 95.4608 0.53125C92.4616 0.53125 90.0303 3.08742 90.0303 6.24062C90.0303 9.39382 92.4616 11.95 95.4608 11.95Z" fill="#014497"/>
<path d="M111.149 11.95C114.149 11.95 116.58 9.39382 116.58 6.24062C116.58 3.08742 114.149 0.53125 111.149 0.53125C108.15 0.53125 105.719 3.08742 105.719 6.24062C105.719 9.39382 108.15 11.95 111.149 11.95Z" fill="#014497"/>
</svg>
