<svg width="70" height="27" viewBox="0 0 70 27" fill="none" xmlns="http://www.w3.org/2000/svg">
<path d="M0.476562 0.162109H69.4766V21.1621C69.4766 23.9235 67.238 26.1621 64.4766 26.1621H0.476562V0.162109Z" fill="url(#paint0_linear)"/>
<path d="M29.2562 11.7319C29.1228 11.3452 28.9795 11.0819 28.8262 10.9419C28.6795 10.7952 28.4563 10.7086 28.1562 10.6819V10.4819C28.1896 10.4819 28.2395 10.4786 28.3062 10.4719C28.3662 10.4652 28.4295 10.4619 28.4962 10.4619C28.8628 10.4619 29.1928 10.5452 29.4862 10.7119C29.7862 10.8786 30.0262 11.2186 30.2062 11.7319L31.5462 15.5919L32.6162 12.4219L32.3762 11.7319C32.2428 11.3452 32.0995 11.0819 31.9462 10.9419C31.7995 10.7952 31.5762 10.7086 31.2762 10.6819V10.4819C31.3095 10.4819 31.3562 10.4786 31.4162 10.4719C31.4828 10.4652 31.5495 10.4619 31.6162 10.4619C31.9828 10.4619 32.3129 10.5452 32.6063 10.7119C32.9063 10.8786 33.1462 11.2186 33.3262 11.7319L34.6662 15.5919L36.3762 10.5619H36.8062L34.5163 17.2619H34.3162L32.8363 13.0519L31.3962 17.2619H31.1962L29.2562 11.7319ZM38.4802 17.2619C38.2669 17.2619 38.0502 17.2186 37.8302 17.1319C37.6102 17.0386 37.4203 16.8886 37.2603 16.6819C37.107 16.4752 37.0303 16.2019 37.0303 15.8619C37.0303 15.3552 37.2636 14.9952 37.7302 14.7819C38.2036 14.5686 38.8202 14.4619 39.5802 14.4619H39.8802C39.8802 13.8086 39.7902 13.3619 39.6102 13.1219C39.4302 12.8819 39.1702 12.7619 38.8302 12.7619C38.5302 12.7619 38.2902 12.8252 38.1102 12.9519C37.9302 13.0786 37.8036 13.2986 37.7302 13.6119H37.2803C37.2803 13.3852 37.2936 13.2086 37.3202 13.0819C37.3469 12.9486 37.417 12.8252 37.5303 12.7119C37.6503 12.5919 37.847 12.5052 38.1203 12.4519C38.4003 12.3919 38.7037 12.3619 39.0303 12.3619C39.5703 12.3619 39.9969 12.5086 40.3102 12.8019C40.6236 13.0886 40.7803 13.6419 40.7803 14.4619V17.1619H40.2803L39.9302 16.7119H39.8802C39.7602 16.8652 39.5837 16.9952 39.3503 17.1019C39.117 17.2086 38.8269 17.2619 38.4802 17.2619ZM38.9302 16.8119C39.1502 16.8119 39.3336 16.7586 39.4802 16.6519C39.6269 16.5452 39.7602 16.3986 39.8802 16.2119V14.8619H39.5802C39.0869 14.8619 38.6969 14.9552 38.4102 15.1419C38.1236 15.3219 37.9802 15.5619 37.9802 15.8619C37.9802 16.1686 38.0702 16.4052 38.2502 16.5719C38.4369 16.7319 38.6636 16.8119 38.9302 16.8119ZM43.5648 17.2619C43.1914 17.2619 42.898 17.1552 42.6847 16.9419C42.4713 16.7286 42.3647 16.4019 42.3647 15.9619V12.8619H41.6647V12.4619H42.3647V11.5619L42.8647 10.9619H43.2647V12.4619H44.4647V12.8619H43.2647V15.9619C43.2647 16.5619 43.498 16.8619 43.9647 16.8619C44.1247 16.8619 44.258 16.8452 44.3647 16.8119C44.478 16.7786 44.5947 16.7286 44.7147 16.6619L44.8148 16.8619C44.6614 16.9752 44.4913 17.0719 44.3047 17.1519C44.118 17.2252 43.8714 17.2619 43.5648 17.2619ZM47.4837 17.2619C47.0037 17.2619 46.5969 17.1552 46.2636 16.9419C45.9369 16.7219 45.6903 16.4286 45.5236 16.0619C45.3636 15.6886 45.2836 15.2719 45.2836 14.8119C45.2836 14.3519 45.3636 13.9386 45.5236 13.5719C45.6903 13.1986 45.9369 12.9052 46.2636 12.6919C46.5969 12.4719 47.0037 12.3619 47.4837 12.3619C48.217 12.3619 48.7003 12.4786 48.9336 12.7119C49.0469 12.8252 49.117 12.9652 49.1437 13.1319C49.1704 13.2919 49.1836 13.5852 49.1836 14.0119H48.9837C48.957 13.5986 48.827 13.2886 48.5937 13.0819C48.3604 12.8686 48.0569 12.7619 47.6836 12.7619C47.2036 12.7619 46.8404 12.9519 46.5937 13.3319C46.3537 13.7119 46.2337 14.2052 46.2337 14.8119C46.2337 15.4186 46.3537 15.9119 46.5937 16.2919C46.8404 16.6719 47.2036 16.8619 47.6836 16.8619C48.0236 16.8619 48.3036 16.7986 48.5236 16.6719C48.7436 16.5386 48.9469 16.3352 49.1336 16.0619L49.3336 16.2119C49.1136 16.5852 48.8536 16.8552 48.5536 17.0219C48.2536 17.1819 47.897 17.2619 47.4837 17.2619ZM50.3876 11.7619C50.3876 11.4219 50.341 11.1719 50.2477 11.0119C50.1543 10.8452 49.9676 10.7619 49.6876 10.7619H49.4876V10.5619H50.3876C50.6342 10.5619 50.8176 10.5952 50.9376 10.6619C51.0642 10.7219 51.1542 10.8352 51.2076 11.0019C51.2609 11.1686 51.2876 11.4219 51.2876 11.7619V12.8619C51.4276 12.7219 51.6076 12.6052 51.8276 12.5119C52.0542 12.4119 52.3077 12.3619 52.5877 12.3619C53.0877 12.3619 53.4942 12.4952 53.8076 12.7619C54.1276 13.0286 54.2876 13.4952 54.2876 14.1619V17.1619H53.3876V14.1619C53.3876 13.6952 53.2809 13.3552 53.0676 13.1419C52.8609 12.9219 52.6009 12.8119 52.2876 12.8119C51.9342 12.8119 51.6009 12.9886 51.2876 13.3419V17.1619H50.3876V11.7619Z" fill="white"/>
<path d="M22.1204 14.8501C20.6514 11.9958 18.0752 10.2686 15.2243 10.2686C12.3734 10.2686 9.79285 11.9958 8.3369 14.8501L8.21484 15.0655L8.32818 15.2854C9.7972 18.1397 12.3734 19.867 15.2243 19.867C18.0752 19.867 20.6558 18.1626 22.1204 15.2854L22.2338 15.0655L22.1204 14.8501ZM15.2243 18.9278C12.7701 18.9278 10.5165 17.4891 9.20872 15.0655C10.5165 12.6418 12.7701 11.2032 15.2243 11.2032C17.6785 11.2032 19.906 12.6464 21.2355 15.0655C19.906 17.4891 17.6741 18.9278 15.2243 18.9278Z" fill="white"/>
<path d="M15.3507 18.2215C17.0022 18.2215 18.3411 16.8143 18.3411 15.0785C18.3411 13.3427 17.0022 11.9355 15.3507 11.9355C13.6992 11.9355 12.3604 13.3427 12.3604 15.0785C12.3604 16.8143 13.6992 18.2215 15.3507 18.2215Z" fill="white"/>
<defs>
<linearGradient id="paint0_linear" x1="0.476563" y1="1.78711" x2="69.5722" y2="11.2659" gradientUnits="userSpaceOnUse">
<stop stop-color="#014497"/>
<stop offset="1" stop-color="#508FC9"/>
</linearGradient>
</defs>
</svg>
